<svg width="50" height="50" viewBox="0 0 50 50" fill="none" xmlns="http://www.w3.org/2000/svg">
<path d="M25 50C38.8071 50 50 38.8071 50 25C50 11.1929 38.8071 0 25 0C11.1929 0 0 11.1929 0 25C0 38.8071 11.1929 50 25 50Z" fill="#74564A"/>
<path d="M31.916 35.9625V25.0534H35.6021C36.4579 25.0534 37.1575 25.2079 37.7008 25.5168C38.2477 25.8222 38.6525 26.2359 38.9153 26.758C39.1781 27.28 39.3095 27.8624 39.3095 28.5051C39.3095 29.1479 39.1781 29.732 38.9153 30.2576C38.6561 30.7832 38.2548 31.2022 37.7115 31.5147C37.1681 31.8236 36.4721 31.9781 35.6234 31.9781H32.9814V30.8062H35.5808C36.1667 30.8062 36.6373 30.705 36.9924 30.5026C37.3475 30.3002 37.6049 30.0268 37.7647 29.6823C37.9281 29.3343 38.0098 28.9419 38.0098 28.5051C38.0098 28.0683 37.9281 27.6777 37.7647 27.3332C37.6049 26.9888 37.3457 26.7189 36.987 26.5236C36.6284 26.3247 36.1525 26.2253 35.5595 26.2253H33.237V35.9625H31.916Z" fill="white"/>
<path d="M29.6942 30.5079C29.6942 31.6585 29.4864 32.6528 29.0709 33.4909C28.6555 34.329 28.0855 34.9753 27.3611 35.4298C26.6366 35.8843 25.8092 36.1116 24.8788 36.1116C23.9484 36.1116 23.121 35.8843 22.3966 35.4298C21.6721 34.9753 21.1022 34.329 20.6867 33.4909C20.2712 32.6528 20.0635 31.6585 20.0635 30.5079C20.0635 29.3574 20.2712 28.363 20.6867 27.525C21.1022 26.6869 21.6721 26.0406 22.3966 25.5861C23.121 25.1315 23.9484 24.9042 24.8788 24.9042C25.8092 24.9042 26.6366 25.1315 27.3611 25.5861C28.0855 26.0406 28.6555 26.6869 29.0709 27.525C29.4864 28.363 29.6942 29.3574 29.6942 30.5079ZM28.4157 30.5079C28.4157 29.5633 28.2577 28.7661 27.9417 28.1162C27.6292 27.4664 27.2048 26.9745 26.6686 26.6407C26.1359 26.3069 25.5393 26.14 24.8788 26.14C24.2183 26.14 23.6199 26.3069 23.0837 26.6407C22.551 26.9745 22.1267 27.4664 21.8106 28.1162C21.4981 28.7661 21.3419 29.5633 21.3419 30.5079C21.3419 31.4525 21.4981 32.2498 21.8106 32.8996C22.1267 33.5495 22.551 34.0413 23.0837 34.3751C23.6199 34.7089 24.2183 34.8758 24.8788 34.8758C25.5393 34.8758 26.1359 34.7089 26.6686 34.3751C27.2048 34.0413 27.6292 33.5495 27.9417 32.8996C28.2577 32.2498 28.4157 31.4525 28.4157 30.5079Z" fill="white"/>
<path d="M10.7227 26.2253V25.0534H18.9045V26.2253H15.4741V35.9625H14.1531V26.2253H10.7227Z" fill="white"/>
<path d="M6.42578 25.2874L25.0008 6.69995L43.5758 25.2874" stroke="white" stroke-width="0.99" stroke-miterlimit="10"/>
</svg>
