<svg width="545" height="114" viewBox="0 0 545 114" fill="none" xmlns="http://www.w3.org/2000/svg">
<path d="M22.6802 15.0092C22.1002 15.0492 21.5102 15.2792 21.2402 15.5092C20.3402 16.3192 19.0802 17.2592 17.7302 18.2092C21.6402 19.7892 23.8902 24.1092 23.8902 28.3792C23.8902 32.6492 21.5502 36.9692 16.2002 38.1892C15.8402 38.2792 15.5302 38.3192 15.2102 38.3192C13.6302 38.3192 12.7402 37.2392 12.7402 36.2092C12.7402 35.3592 13.3702 34.4992 14.7202 34.2692C18.3702 33.7692 20.1202 30.7592 20.1202 27.6592C20.1202 27.3892 20.1202 27.1592 20.0802 26.8892C16.7002 30.2192 11.5302 34.3992 4.46023 36.6092C4.10023 36.6992 3.79023 36.7892 3.52023 36.7892C2.26023 36.7892 1.49023 35.8892 1.49023 34.9392C1.49023 34.1292 2.03023 33.2792 3.29023 32.9592C9.86023 31.2992 15.9802 26.7992 18.9502 23.4192C18.7702 23.1492 18.5902 22.8792 18.3702 22.6092C15.7102 24.7692 11.0402 27.9192 6.62023 29.2692C6.35023 29.3592 6.12023 29.3592 5.90023 29.3592C4.73023 29.3592 4.06023 28.4592 4.06023 27.6092C4.06023 26.8892 4.46023 26.2092 5.41023 25.9392C9.50023 24.8992 13.4602 22.5592 15.8002 20.6792L15.3502 20.4992C15.1702 20.4592 14.9902 20.4092 14.8102 20.4092C14.5402 20.4092 14.3202 20.4492 14.1402 20.5392L13.5602 20.8092C12.1202 21.6192 10.6802 22.2892 9.42023 22.6992C9.06023 22.8292 8.75024 22.8792 8.47023 22.8792C7.26023 22.8792 6.63023 22.0292 6.63023 21.1292C6.63023 20.4592 7.04023 19.7792 7.94023 19.5592C10.7302 18.7892 14.1002 16.9492 16.7602 15.0192L11.3602 15.1092H11.2702C10.1002 15.1092 9.52024 14.2592 9.52024 13.3992C9.52024 12.4992 10.1002 11.6492 11.3202 11.6492H11.3602C14.4202 11.7392 17.0302 11.7892 19.6402 11.7892C22.2502 11.7892 24.9002 11.7492 28.0502 11.6492H28.1002C29.3602 11.6492 29.9902 12.4992 29.9902 13.3992C29.9902 14.2992 29.4102 15.1092 28.1502 15.1092H28.0602L22.7102 15.0192L22.6802 15.0092ZM26.3702 8.70922C24.3902 8.61922 21.7802 8.57922 19.1702 8.57922C16.8802 8.57922 14.6302 8.61922 12.9202 8.70922C9.95023 8.88922 8.33023 10.1492 8.20023 11.5392V13.0692C8.20023 14.2392 7.16023 14.8692 6.13023 14.8692C5.10023 14.8692 4.11023 14.2892 4.06023 12.9292V11.2192C4.10023 7.39922 8.33023 5.50922 12.6102 5.27922L17.4202 5.14922V2.12922C17.4202 0.829219 18.5002 0.199219 19.6302 0.199219C20.7602 0.199219 21.8402 0.829219 21.8402 2.08922V2.12922C21.8002 3.43922 21.8002 4.28922 21.8002 5.14922C23.6402 5.14922 25.4002 5.18922 26.7902 5.27922C32.5002 5.63922 35.6102 8.56922 35.6602 11.3092C35.6602 11.7192 35.7002 11.9392 35.7002 12.1192C35.7002 12.3492 35.6602 12.5292 35.6602 12.8392C35.5202 14.0992 34.4502 14.7292 33.4102 14.7292C32.3702 14.7292 31.3802 14.1492 31.3802 12.9292V11.5792C31.3402 10.4092 29.8502 8.83922 26.3902 8.69922L26.3702 8.70922ZM36.9002 36.5592C36.5402 36.5592 36.0902 36.5192 35.6402 36.3792C30.1902 34.8092 24.1202 29.0492 24.1202 24.0092C24.1202 22.2992 24.7502 20.7292 26.3202 19.3792C27.3102 18.5692 27.8102 18.1192 29.0202 17.2692C29.4702 16.9592 29.9702 16.7692 30.4202 16.7692C31.5902 16.7692 32.5802 17.7592 32.5802 18.8392C32.5802 19.4192 32.2702 20.0992 31.4602 20.5892C30.4302 21.2192 29.6202 21.7092 28.9902 22.2092C28.2702 22.7892 27.9502 23.5192 27.9502 24.2792C27.9502 27.3392 32.7202 31.4792 37.4502 32.4292C38.7502 32.6992 39.3802 33.5992 39.3802 34.4492C39.3802 35.5292 38.5302 36.5592 36.9102 36.5592H36.9002Z" fill="#2F564A"/>
<path d="M63.7202 11.9489C63.6802 12.7989 63.6302 13.7089 63.5402 14.6089C63.6302 14.7889 63.9002 14.9189 64.7502 15.0089C67.8502 15.4189 69.7002 17.5689 69.7502 21.0789V21.6589C69.7502 27.0589 69.0702 36.9589 61.4202 36.9589C61.1102 36.9589 60.7502 36.9589 60.4302 36.9189C59.1202 36.7889 58.4902 35.7989 58.4902 34.8089C58.4902 33.7289 59.2102 32.6989 60.6102 32.6989C60.7402 32.6989 60.9702 32.6989 61.1502 32.7389C61.3302 32.7789 61.4602 32.7789 61.6502 32.7789C64.9802 32.7789 66.0102 25.7589 66.0102 22.0689C66.0102 21.6189 66.0102 21.1689 65.9702 20.8489C65.8802 19.6389 65.3002 18.5089 64.0402 18.3789H63.9102C63.5502 18.3789 63.1902 18.5089 63.0502 18.8289C62.0102 25.7589 59.9002 32.6389 55.7202 36.8689C55.1802 37.4489 54.5502 37.6789 53.9702 37.6789C52.8902 37.6789 51.9502 36.8289 51.9502 35.8289C51.9502 35.3389 52.1702 34.8389 52.6202 34.3889C57.6202 29.3089 59.4102 20.1689 59.8602 11.9389L56.2202 12.0789H56.0902C54.7002 12.0789 54.0602 11.1789 54.0602 10.2389C54.0602 9.29891 54.7402 8.25891 56.0902 8.25891H56.2202C57.8402 8.34891 59.2302 8.38891 60.5902 8.38891C60.5902 7.71891 60.5502 5.95891 60.4602 2.85891V2.76891C60.4602 1.50891 61.4902 0.878906 62.5302 0.878906C63.5702 0.878906 64.6002 1.50891 64.6002 2.76891V2.85891C64.4602 6.18891 64.4602 7.71891 64.4602 8.38891L68.8302 8.25891H68.9202C70.3202 8.25891 70.9902 9.19891 70.9902 10.1889C70.9902 10.4589 70.9502 10.7289 70.8602 10.9589C72.8402 8.39891 74.3202 5.06891 75.2702 2.45891C75.5902 1.64891 76.3102 1.33891 77.0202 1.33891C78.0602 1.33891 79.1402 2.05891 79.1402 3.13891C79.1402 3.36891 79.1002 3.58891 79.0102 3.80891C78.6502 4.74891 78.1502 5.87891 77.5702 7.09891C79.9102 7.09891 83.1102 7.04891 87.6502 6.86891H87.8302C89.3602 6.86891 90.0802 7.80891 90.0802 8.75891C90.0802 9.70891 89.3202 10.6989 87.7402 10.6989H87.6502C82.7902 10.5689 79.1502 10.5689 76.9402 10.5689C75.7702 10.5689 75.5002 11.0189 75.1902 11.3789C74.2002 12.9589 73.1202 14.3489 72.0402 15.4289C71.5402 15.9189 71.0002 16.0989 70.4602 16.0989C69.3802 16.0989 68.3902 15.2489 68.3902 14.2489C68.3902 13.7989 68.5702 13.3489 69.0602 12.8989C69.4702 12.5389 69.8302 12.1289 70.2302 11.6889C69.9202 11.9089 69.4702 12.0889 68.9702 12.0889H68.7902L63.7502 11.9489H63.7202ZM81.9502 18.3789C81.9102 19.3189 81.8202 21.5689 81.7202 22.7889C83.7502 22.7889 85.9102 22.7489 88.3402 22.6989H88.3802C89.5902 22.6989 90.2202 23.5489 90.2202 24.4089C90.2202 25.2189 89.6402 26.0789 88.3802 26.0789H88.3402C86.1802 26.0289 84.2502 25.9889 82.4502 25.9889C83.8002 29.3689 86.9002 32.2889 91.0402 33.3189C92.3002 33.6289 92.8802 34.5289 92.8802 35.4289C92.8802 36.5489 91.9802 37.6789 90.4502 37.6789C90.1302 37.6789 89.8202 37.6389 89.5002 37.5389C85.9002 36.5989 82.1202 33.2189 80.1002 29.3089C78.4302 33.0389 75.2402 36.3689 69.9302 37.8089C69.6102 37.8989 69.3002 37.9489 69.0302 37.9489C67.5902 37.9489 66.7402 36.8289 66.7402 35.7889C66.7402 34.9789 67.2802 34.1689 68.4902 33.9489C73.6602 33.0089 76.4102 29.5889 77.4502 25.9889C75.6502 26.0289 73.8502 26.0789 71.8702 26.0789H71.8302C70.6202 26.0789 70.0302 25.2689 70.0302 24.4589C70.0302 23.6089 70.6602 22.7089 71.8302 22.7089H71.8702C74.0302 22.7989 75.9602 22.8389 77.9002 22.8389C77.9402 21.8089 77.9902 19.4189 77.9902 18.3889C77.4502 18.3889 76.9102 18.3889 76.3202 18.4289C75.6502 19.5489 74.8302 20.6789 73.9802 21.4889C73.5302 21.8889 73.0302 22.0689 72.5402 22.0689C71.5002 22.0689 70.6002 21.2989 70.6002 20.3989C70.6002 19.9889 70.7802 19.5889 71.2302 19.1889C73.2602 17.3889 74.6102 14.4189 75.2302 12.1689C75.4602 11.4089 76.1302 11.0889 76.8502 11.0889C77.8402 11.0889 78.8302 11.6789 78.8302 12.7089C78.8302 12.8889 78.7902 13.0689 78.7402 13.2889C78.5602 13.8289 78.2902 14.4589 78.0202 15.1389H79.6902C81.2702 15.1389 83.0202 15.0889 86.2602 15.0489H86.3002C87.4702 15.0489 88.0502 15.8989 88.0502 16.7589C88.0502 17.6189 87.5102 18.4689 86.3402 18.4689H86.2502L81.9302 18.3789H81.9502Z" fill="#2F564A"/>
<path d="M115.29 24.8587C117.04 22.8787 118.84 20.4487 120.06 18.4287C120.78 17.3087 120.92 16.4087 120.96 15.2387C121 13.7987 122.13 13.0787 123.21 13.0787C124.29 13.0787 125.41 13.8487 125.41 15.4187V15.5487C125.32 17.1187 124.96 18.6087 123.79 20.2287C122.3 22.3487 118.97 26.2087 116.46 29.6787C115.34 31.2087 114.21 31.9287 113.13 31.9287C112.05 31.9287 110.92 31.2487 109.84 29.9487C108.36 28.1487 107.64 25.8587 107.64 23.4687C107.64 20.4087 108.85 17.1687 111.33 14.5587C114.62 11.0487 119.11 9.38867 123.48 9.38867C128.61 9.38867 133.56 11.6787 136.03 15.9587C137.15 17.8487 137.65 19.8787 137.65 21.8587C137.65 28.3387 131.94 34.4587 121.54 35.0387H121.31C119.69 35.0387 118.75 34.0887 118.75 33.0987C118.75 32.2487 119.51 31.3487 121.27 31.1587C129.64 30.4387 133.19 25.8487 133.19 21.4887C133.19 20.1387 132.83 18.7387 132.15 17.5687C130.35 14.5087 126.93 12.7987 123.29 12.7987C120.14 12.7987 116.86 14.0587 114.33 16.7987C112.75 18.5487 111.72 20.9887 111.72 23.1887C111.72 24.2687 111.94 25.2087 112.44 26.0687C112.62 26.4287 112.85 26.6087 113.11 26.6087C113.47 26.6087 113.92 26.2987 114.55 25.6687L115.27 24.8587H115.29Z" fill="#2F564A"/>
<path d="M174.96 11.8187V15.9087C179.68 15.9087 184.41 15.8187 188.23 15.7287H188.32C189.81 15.7287 190.53 16.7188 190.53 17.7087C190.53 18.6987 189.81 19.6888 188.32 19.6888H188.23C183.77 19.5588 179.59 19.4188 175.54 19.3787C178.74 24.0588 183.68 28.0588 191.15 31.0288C192.23 31.4788 192.73 32.3287 192.73 33.1887C192.73 34.3987 191.74 35.6687 190.26 35.6687C189.85 35.6687 189.4 35.5788 188.91 35.3587C183.06 32.6087 178.29 28.4788 175.01 24.1988C175.05 27.8888 175.14 31.7987 175.28 36.2087V36.2987C175.28 37.6487 174.2 38.3687 173.07 38.3687C171.94 38.3687 170.91 37.6487 170.91 36.2987V36.2087C171 31.7987 171.09 27.9288 171.13 24.2888C167.76 28.6488 163.35 32.9687 157.45 35.8487C157 36.0787 156.55 36.1687 156.14 36.1687C154.75 36.1687 153.8 34.9487 153.8 33.7787C153.8 32.9687 154.21 32.2088 155.24 31.7588C161.49 29.1088 166.67 24.5187 170.54 19.3888C166.54 19.3888 162.58 19.4788 158.48 19.6988H158.25C156.81 19.6988 156.09 18.7987 156.09 17.8088C156.09 16.8188 156.9 15.7387 158.38 15.7387H158.47C161.84 15.8287 166.39 15.8687 171.2 15.9187C171.2 14.5687 171.16 13.2188 171.16 11.8287C168.1 11.8287 165.17 11.8687 162.38 11.9587H162.29C160.94 11.9587 160.27 11.0187 160.27 10.0287C160.27 9.03875 160.99 8.00875 162.38 8.04875C165.21 8.13875 168.09 8.17875 171.06 8.17875L170.88 2.91875V2.78875C170.88 1.38875 171.96 0.71875 173.04 0.71875C174.12 0.71875 175.25 1.39875 175.25 2.78875V2.91875C175.16 4.75875 175.07 6.51875 175.02 8.17875C177.63 8.17875 180.33 8.13875 183.12 8.04875H183.21C184.61 8.04875 185.28 9.03875 185.28 9.98875C185.28 10.9387 184.61 11.9688 183.21 11.9688H183.12L174.93 11.8387L174.96 11.8187Z" fill="#2F564A"/>
<path d="M228.11 10.5096C228.02 12.9896 227.98 15.4196 227.98 17.7996H228.29C228.7 17.7996 229.19 17.7996 229.69 17.1196C230.64 15.7296 231.58 14.0596 232.3 12.3496C232.66 11.4996 233.34 11.1796 234.05 11.1796C235.17 11.1796 236.34 11.9896 236.34 13.1196C236.34 13.3896 236.3 13.6596 236.12 13.9696C235.36 15.3196 234.45 16.6296 233.46 17.7496C235.85 17.6996 238.41 17.6096 241.34 17.4796H241.43C242.92 17.4796 243.68 18.4696 243.68 19.4596C243.68 20.4496 242.92 21.4396 241.43 21.4396H241.34C236.39 21.3096 232.61 21.2196 229.06 21.1696C232.7 25.6696 238.01 29.6696 245.44 32.1896C246.75 32.6396 247.33 33.5396 247.33 34.4396C247.33 35.6496 246.25 36.8196 244.67 36.8196C244.26 36.8196 243.77 36.7796 243.28 36.5496C236.98 34.0296 231.9 29.9796 228.03 25.2596C228.12 28.6296 228.21 32.0996 228.44 36.0596V36.1996C228.44 37.5996 227.36 38.2696 226.28 38.2696C225.2 38.2696 224.16 37.5996 224.16 36.1996V36.0596C224.34 32.0596 224.48 28.4996 224.52 25.1696C220.56 29.8996 215.48 34.0296 209.76 36.5996C209.18 36.8696 208.64 36.9596 208.19 36.9596C206.75 36.9596 205.8 35.9296 205.8 34.7996C205.8 33.8996 206.38 32.9496 207.78 32.4196C213.18 30.3496 218.8 26.5696 223.26 21.1696C219.71 21.2096 215.93 21.2996 211.07 21.4396H210.98C209.54 21.4396 208.82 20.4996 208.82 19.5496C208.82 18.5096 209.58 17.4796 210.98 17.4796H211.07C214.08 17.6096 216.69 17.6996 219.17 17.7496C219.08 17.6096 218.99 17.4796 218.94 17.3396C218.18 15.7196 217.1 14.6896 216.33 14.0996C215.88 13.7396 215.7 13.3296 215.7 12.9296C215.7 12.0796 216.55 11.2596 217.63 11.2596C217.99 11.2596 218.39 11.3496 218.8 11.5696C219.88 12.1496 221.68 13.6896 222.58 15.4396C222.76 15.7996 222.85 16.1096 222.85 16.4296C222.85 16.9696 222.58 17.4196 222.22 17.7796H224.6C224.56 15.3996 224.51 12.9696 224.42 10.4896C220.59 10.4896 217 10.5396 214.16 10.6296H214.07C212.58 10.6296 211.86 9.63961 211.86 8.64961C211.86 7.65961 212.62 6.66961 214.07 6.66961H214.16C217.08 6.75961 220.64 6.80961 224.33 6.80961L224.15 2.80961V2.66961C224.15 1.26961 225.23 0.599609 226.27 0.599609C227.31 0.599609 228.43 1.26961 228.43 2.66961V2.80961C228.34 4.20961 228.29 5.50961 228.25 6.80961C231.67 6.80961 235.04 6.76961 238.11 6.66961H238.2C239.64 6.66961 240.36 7.65961 240.36 8.64961C240.36 9.63961 239.64 10.6296 238.2 10.6296H238.11L228.12 10.4896L228.11 10.5096Z" fill="#2F564A"/>
<path d="M275.31 25.9899C274.27 26.6199 273.42 27.2499 272.75 27.8399C271.71 28.7799 271.26 29.6799 271.26 30.4899C271.26 31.6099 272.07 32.5099 273.2 33.0499C273.96 33.4499 274.82 33.6299 275.72 33.6299C276.89 33.6299 278.15 33.3199 279.55 32.6399C280.04 32.3699 280.54 32.2799 280.94 32.2799C282.15 32.2799 283.01 33.1799 283.01 34.2199C283.01 35.0299 282.51 35.8899 281.3 36.4199C279.77 37.0999 278.01 37.4099 276.35 37.4099C274.6 37.4099 272.89 37.0499 271.54 36.3299C268.97 34.9799 267.54 33.0499 267.54 30.8399C267.54 29.0399 268.53 27.0599 270.69 25.1699C271.95 24.0499 273.66 22.9699 275.51 21.9299C275.51 21.3499 275.46 20.8499 275.42 20.4899C275.2 19.1899 274.39 18.6899 273.4 18.6899C272.82 18.6899 272.1 18.9199 271.46 19.1899C270.25 19.7299 268.9 20.9399 267.91 22.1099C267.37 22.7799 266.34 24.1299 265.89 24.5799C265.08 25.4799 264.18 25.7999 263.42 25.7999C262.25 25.7999 261.39 25.0299 261.39 24.0499C261.39 23.3699 261.8 22.6099 262.83 21.8899C265.31 20.1399 268.1 15.9499 269.76 12.7999C268.86 12.9399 268.14 12.9799 267.51 12.9799C266.25 12.9799 265.44 12.7499 264.81 12.4799C263.82 12.0799 263.32 11.2699 263.32 10.4599C263.32 9.55992 263.95 8.70992 265.12 8.70992C265.48 8.70992 265.93 8.79992 266.38 8.97992C266.92 9.24992 267.55 9.38992 268.45 9.38992C269.12 9.38992 269.98 9.29992 271.11 9.11992C271.56 7.80992 271.87 6.23992 271.87 5.73992V5.64992C271.87 3.93992 272.95 3.16992 274.03 3.16992C275.11 3.16992 276.1 3.88992 276.1 5.23992C276.1 5.37992 276.05 5.50992 276.05 5.64992C275.92 6.40992 275.78 7.17992 275.33 8.16992C276 7.94992 276.68 7.67992 277.27 7.40992C277.63 7.22992 277.99 7.13992 278.3 7.13992C279.38 7.13992 280.05 7.98992 280.05 8.93992C280.05 9.70992 279.51 10.6099 278.25 10.9599C277.04 11.3199 275.46 11.7699 273.8 12.1699C272.99 13.7499 271.95 15.5899 271.37 16.5299C271.33 16.6199 271.33 16.6699 271.33 16.7099H271.37C271.37 16.7099 271.41 16.7099 271.51 16.6699C272.36 16.1699 273.4 15.8999 274.43 15.8999C276.54 15.8999 278.57 16.9799 278.88 19.4099C278.88 19.6399 278.92 19.9099 278.97 20.1799C281.89 18.7799 284.91 17.6199 287.29 16.7599C288.05 16.4899 288.73 16.2599 289.31 15.9999C289.94 15.6799 290.57 15.5899 291.07 15.5899C292.46 15.5899 293.36 16.4899 293.36 17.5299C293.36 18.3399 292.78 19.2399 291.42 19.7299C290.52 20.0499 289.94 20.1799 288.99 20.4099C286.38 21.0399 282.47 22.3899 279 24.0099C279 25.8599 278.91 27.6999 278.82 29.0499C278.69 30.6199 277.56 31.4299 276.53 31.4299C275.59 31.4299 274.78 30.7999 274.78 29.4899C274.78 29.3099 274.78 29.1299 274.82 28.9099C274.91 28.3299 275.09 27.7899 275.18 27.1999L275.31 25.9899Z" fill="#2F564A"/>
<path d="M335.391 25.039C335.391 26.479 335.481 28.819 335.481 28.819V29.129C335.481 34.569 331.841 37.899 325.851 37.899H325.631C323.831 37.899 322.971 36.819 322.971 35.779C322.971 34.739 323.831 33.669 325.401 33.669H325.581C325.801 33.669 326.081 33.709 326.301 33.709C329.941 33.709 331.161 31.689 331.251 28.399C331.291 26.819 331.291 23.899 331.291 21.019H327.781C322.421 21.019 317.111 21.109 311.721 21.199H311.631C310.191 21.199 309.471 20.159 309.471 19.179C309.471 18.199 310.191 17.199 311.631 17.199H311.721C317.521 17.329 322.791 17.429 328.011 17.429H331.251L331.111 13.329V13.149C331.111 11.839 332.191 11.169 333.271 11.169C334.351 11.169 335.481 11.839 335.481 13.239V13.329C335.441 14.369 335.391 15.849 335.391 17.379C338.271 17.339 341.191 17.289 344.251 17.199H344.341C345.781 17.199 346.501 18.189 346.501 19.179C346.501 20.169 345.781 21.199 344.341 21.199H344.251C341.241 21.159 338.271 21.059 335.391 21.059V25.019V25.039ZM316.801 14.239C316.761 15.499 315.681 16.219 314.591 16.219C313.601 16.219 312.561 15.589 312.471 14.239V12.489C312.511 9.11898 315.621 6.81898 320.031 6.45898C321.651 6.36898 323.581 6.27898 325.651 6.23898V2.36898C325.651 0.928984 326.771 0.208984 327.901 0.208984C329.031 0.208984 330.191 0.928984 330.191 2.36898V2.45898C330.151 3.44898 330.101 4.84898 330.101 6.23898C332.031 6.23898 333.881 6.32898 335.541 6.45898C340.311 6.81898 343.331 8.97898 343.501 11.899C343.501 12.439 343.541 12.849 343.541 13.479C343.541 15.149 342.371 15.909 341.201 15.909C340.161 15.909 339.131 15.239 339.131 13.839V13.569C339.131 13.299 339.181 12.669 339.181 12.399C339.041 11.189 337.871 10.149 335.131 9.91898C333.111 9.78898 330.501 9.73898 327.891 9.73898C325.281 9.73898 322.671 9.77898 320.641 9.91898C317.851 10.149 316.771 11.539 316.771 12.799V14.239H316.801ZM323.511 29.809C322.251 28.409 320.591 27.109 318.791 26.429C317.841 26.119 317.441 25.439 317.441 24.759C317.441 23.819 318.251 22.919 319.511 22.919C319.781 22.919 320.091 22.959 320.411 23.049C322.531 23.679 325.221 25.119 326.751 26.779C327.291 27.359 327.471 27.949 327.471 28.489C327.471 29.699 326.521 30.699 325.351 30.699C324.721 30.699 324.091 30.429 323.511 29.799V29.809Z" fill="#2F564A"/>
<path d="M380.7 32.0598C382.99 30.8498 384.3 28.5098 384.3 26.2998C384.3 24.5898 383.58 22.9698 381.92 21.9798C380.88 21.3498 379.63 21.0398 378.19 21.0398C375.9 21.0398 373.28 21.8898 370.99 23.8698C370.05 24.6798 368.61 26.2098 367.3 27.7798C366.49 28.6798 365.63 29.0898 364.92 29.0898C363.66 29.0898 362.67 28.0998 362.67 26.9298C362.67 26.3398 362.94 25.7098 363.52 25.1298C364.96 23.7798 366.85 22.0698 368.02 21.1698C370.36 19.4998 375.49 13.3798 377.78 10.4998C377.87 10.3698 377.91 10.3198 377.91 10.2798C377.91 10.2398 377.87 10.2398 377.87 10.2398C377.78 10.2398 377.65 10.3298 377.56 10.3698C375.44 11.4498 373.33 11.9898 371.35 12.2098C371.22 12.2098 371.03 12.2598 370.9 12.2598C369.23 12.2598 368.43 11.0898 368.43 10.0098C368.43 9.01984 369.1 8.02984 370.5 8.02984H371.04C372.25 8.02984 374.15 7.79984 379.05 6.31984C379.59 6.13984 380.13 6.08984 380.58 6.08984C382.47 6.08984 383.55 7.39984 383.55 8.73984C383.55 9.41984 383.28 10.0898 382.79 10.6298C379.96 13.6398 378.29 15.3998 376.26 17.6498C376.13 17.7398 376.08 17.8298 376.08 17.8798C376.08 17.8798 376.12 17.9198 376.17 17.9198C376.22 17.9198 376.31 17.8798 376.4 17.8798C377.16 17.6498 378.11 17.5698 379.05 17.5698C380.54 17.5698 382.11 17.8398 383.42 18.4698C387.02 20.3198 388.68 23.2398 388.68 26.2498C388.68 29.7098 386.52 33.2698 382.43 35.3798C380.9 36.1898 378.65 36.7298 376.4 36.7298C374.6 36.7298 372.8 36.3698 371.36 35.6098C369.2 34.3898 368.26 32.5898 368.26 30.8398C368.26 28.4598 370.06 26.2498 372.89 26.2498C373.43 26.2498 373.97 26.3398 374.6 26.5198C377.12 27.2398 378.33 29.0798 378.42 30.7898V31.1898C378.42 31.8198 378.33 32.4498 378.11 32.9398C379.05 32.7598 380 32.4498 380.72 32.0398L380.7 32.0598ZM374.9 31.3898C374.9 30.7198 374.59 30.0398 373.82 29.7698C373.55 29.6798 373.32 29.6398 373.1 29.6398C372.24 29.6398 371.75 30.2198 371.75 30.9398C371.75 31.4398 372.02 32.0598 372.65 32.5198C372.97 32.7498 373.37 32.9198 373.77 33.0198C374.44 32.9298 374.89 32.1698 374.89 31.3998L374.9 31.3898Z" fill="#2F564A"/>
<path d="M415.171 16.7597C415.311 16.7197 415.491 16.6697 415.671 16.6697C415.851 16.6697 416.081 16.7097 416.301 16.7997C417.471 17.2997 418.591 18.1997 419.221 19.0497C419.491 19.4097 419.581 19.7697 419.581 20.1297C419.581 21.1197 418.731 22.0197 417.831 22.0197C417.381 22.0197 416.931 21.7997 416.571 21.2597C416.121 20.5797 415.671 20.0497 415.171 19.5897C415.171 25.0297 415.311 30.2997 415.491 36.0097V36.0997C415.491 37.4997 414.411 38.2197 413.371 38.2197C412.331 38.2197 411.301 37.5397 411.301 36.0997V36.0097C411.431 29.8497 411.611 25.0297 411.661 20.3997C410.221 22.4697 408.561 24.2697 406.621 25.7997C406.081 26.1997 405.541 26.3797 405.001 26.3797C403.881 26.3797 402.971 25.4797 402.971 24.3997C402.971 23.7197 403.331 22.9997 404.231 22.4597C406.391 21.1097 409.051 18.5397 410.941 15.4397C411.351 14.7597 411.571 14.2197 411.661 13.7297V13.3697C410.401 13.3697 409.141 13.3697 408.061 13.4197H407.971C406.441 13.4197 405.721 12.5197 405.721 11.5697C405.721 10.6197 406.481 9.67969 407.931 9.67969H408.021C409.061 9.71969 410.311 9.76969 411.621 9.76969C411.581 7.60969 411.491 5.40969 411.401 2.92969V2.79969C411.401 1.39969 412.441 0.679688 413.471 0.679688C414.501 0.679688 415.501 1.39969 415.501 2.79969V2.92969C415.411 5.30969 415.321 7.55969 415.281 9.71969C415.861 9.71969 416.451 9.71969 417.031 9.67969H417.121C418.291 9.67969 418.921 10.3997 419.101 11.1597C421.761 9.21969 423.961 6.07969 426.121 3.68969C427.341 2.37969 428.731 1.79969 430.121 1.79969C431.511 1.79969 432.821 2.33969 433.991 3.37969C436.871 5.93969 440.471 9.35969 444.031 11.0697C444.841 11.4797 445.201 12.1097 445.201 12.7397C445.201 13.8197 444.251 14.8997 442.951 14.8997C442.541 14.8997 442.051 14.7597 441.601 14.4897C439.761 13.4597 437.681 11.6597 435.751 9.85969C435.881 10.0897 435.931 10.3597 435.931 10.5797C435.931 11.3397 435.441 12.0597 434.401 12.0597H434.271C433.101 12.0197 432.021 12.0197 431.031 12.0197C429.631 12.0197 428.331 12.0197 426.891 12.0597H426.801C425.721 12.0597 425.181 11.3397 425.181 10.6197C425.181 10.5297 425.221 10.3897 425.221 10.3097C423.691 12.1097 421.981 13.8197 420.001 15.0797C419.461 15.4397 418.961 15.5797 418.511 15.5797C417.391 15.5797 416.531 14.6397 416.531 13.7397C416.531 13.5997 416.571 13.5097 416.571 13.4297C416.121 13.3797 415.621 13.3797 415.171 13.3797V16.7597ZM436.321 23.4697C434.391 23.5597 432.451 23.6097 430.561 23.6097C428.671 23.6097 426.831 23.5697 425.161 23.4697C421.741 23.2897 420.121 21.8997 419.901 19.6497C419.861 19.2897 419.811 18.8897 419.811 18.5297C419.811 18.1297 419.861 17.7197 419.901 17.3597C420.171 15.1597 421.971 13.7197 425.161 13.5797C426.781 13.4897 428.801 13.4497 430.921 13.4497C432.721 13.4497 434.611 13.4897 436.321 13.5797C439.611 13.7197 441.401 15.1997 441.631 17.3597C441.671 17.7697 441.671 18.1697 441.671 18.5697C441.671 18.9697 441.671 19.3797 441.631 19.6497C441.411 21.7197 439.831 23.2997 436.321 23.4697ZM433.801 37.5097C432.761 37.5997 431.771 37.6497 430.691 37.6497C429.751 37.6497 428.801 37.6097 427.771 37.5097C424.891 37.2397 423.051 35.7997 422.781 33.1897C422.691 32.5197 422.691 31.7097 422.691 30.9897C422.691 30.2197 422.691 29.5497 422.781 29.0097C423.091 26.6697 424.851 24.9097 428.041 24.7397C428.711 24.6997 429.751 24.6997 430.741 24.6997C431.731 24.6997 432.681 24.6997 433.351 24.7397C436.771 24.9197 438.521 26.6797 438.751 29.0097C438.791 29.6797 438.791 30.3597 438.791 31.0297C438.791 31.7497 438.791 32.4697 438.751 33.1897C438.571 35.6697 436.771 37.2397 433.801 37.5097ZM425.521 16.2197C423.951 16.3097 423.271 16.9897 423.141 17.8397C423.101 18.0197 423.101 18.2897 423.101 18.5097C423.101 18.7797 423.101 19.0497 423.141 19.2297C423.271 20.1297 424.001 20.7597 425.521 20.8497C426.641 20.9397 427.811 20.9897 429.031 21.0297V16.0797L425.521 16.2097V16.2197ZM427.011 20.6297C426.561 20.6297 426.201 20.3997 425.971 19.9497C425.611 19.0997 425.211 18.7797 424.711 18.2897C424.491 18.0597 424.391 17.8397 424.391 17.6097C424.391 17.0297 425.021 16.4897 425.791 16.4897C426.061 16.4897 426.371 16.5797 426.641 16.7597C427.181 17.0697 427.951 17.9297 428.311 18.7397C428.401 18.9197 428.441 19.0997 428.441 19.2797C428.441 20.0497 427.681 20.6297 427.001 20.6297H427.011ZM431.511 5.82969C431.151 5.46969 430.701 5.24969 430.251 5.24969C429.801 5.24969 429.351 5.47969 428.941 5.92969C428.001 6.95969 427.101 8.08969 426.151 9.25969C426.331 9.16969 426.601 9.12969 426.871 9.12969C428.131 9.16969 429.341 9.16969 430.561 9.16969C431.781 9.16969 432.991 9.16969 434.251 9.12969C434.561 9.12969 434.831 9.16969 435.061 9.25969C433.761 8.04969 432.541 6.82969 431.511 5.83969V5.82969ZM435.201 29.3597C435.111 28.3697 434.391 27.6897 432.991 27.5197C432.501 27.4697 431.641 27.4297 430.741 27.4297C429.841 27.4297 428.901 27.4697 428.401 27.5197C427.051 27.6997 426.421 28.4197 426.331 29.3597C426.331 29.4497 426.291 29.5897 426.291 29.6697H435.201V29.3597ZM430.701 32.2897C429.221 32.2897 427.781 32.3297 426.291 32.3297C426.291 32.5097 426.291 32.6897 426.331 32.8697C426.461 33.9097 427.321 34.5397 428.541 34.6697C429.081 34.7597 429.891 34.7597 430.741 34.7597C431.551 34.7597 432.361 34.7597 432.991 34.6697C434.341 34.5397 435.111 33.8597 435.201 32.8697C435.201 32.6897 435.241 32.5097 435.241 32.3297C433.621 32.3297 432.141 32.2897 430.701 32.2897ZM432.141 20.9897C433.441 20.9897 434.751 20.9497 435.971 20.8497C437.451 20.7597 438.221 20.1797 438.351 19.2297C438.351 18.9597 438.391 18.6897 438.391 18.4597C438.391 18.1897 438.351 18.0097 438.351 17.8297C438.171 16.9297 437.541 16.2997 435.971 16.2097C434.801 16.1197 433.451 16.0797 432.141 16.0797V20.9797V20.9897ZM434.161 20.7197C433.491 20.7197 432.811 20.2697 432.811 19.6797C432.811 19.5497 432.851 19.3697 432.941 19.2297C433.301 18.6497 433.891 17.7897 434.291 17.0197C434.561 16.5697 434.961 16.3497 435.411 16.3497C436.131 16.3497 436.851 16.8897 436.851 17.6097C436.851 17.7897 436.811 18.0197 436.671 18.2397C436.311 18.8197 435.631 19.6797 435.141 20.2597C434.871 20.5697 434.511 20.7097 434.151 20.7097L434.161 20.7197Z" fill="#2F564A"/>
<path d="M467.19 24.8587C468.94 22.8787 470.74 20.4487 471.96 18.4287C472.68 17.3087 472.82 16.4087 472.86 15.2387C472.9 13.7987 474.03 13.0787 475.11 13.0787C476.19 13.0787 477.31 13.8487 477.31 15.4187V15.5487C477.22 17.1187 476.86 18.6087 475.69 20.2287C474.2 22.3487 470.87 26.2087 468.36 29.6787C467.24 31.2087 466.11 31.9287 465.03 31.9287C463.95 31.9287 462.82 31.2487 461.74 29.9487C460.26 28.1487 459.54 25.8587 459.54 23.4687C459.54 20.4087 460.75 17.1687 463.23 14.5587C466.52 11.0487 471.01 9.38867 475.38 9.38867C480.51 9.38867 485.46 11.6787 487.93 15.9587C489.05 17.8487 489.55 19.8787 489.55 21.8587C489.55 28.3387 483.84 34.4587 473.44 35.0387H473.21C471.59 35.0387 470.65 34.0887 470.65 33.0987C470.65 32.2487 471.41 31.3487 473.17 31.1587C481.54 30.4387 485.09 25.8487 485.09 21.4887C485.09 20.1387 484.73 18.7387 484.05 17.5687C482.25 14.5087 478.83 12.7987 475.19 12.7987C472.04 12.7987 468.76 14.0587 466.23 16.7987C464.65 18.5487 463.62 20.9887 463.62 23.1887C463.62 24.2687 463.84 25.2087 464.34 26.0687C464.52 26.4287 464.75 26.6087 465.01 26.6087C465.37 26.6087 465.82 26.2987 466.45 25.6687L467.17 24.8587H467.19Z" fill="#2F564A"/>
<path d="M528.03 15.0092C527.45 15.0492 526.86 15.2792 526.59 15.5092C525.69 16.3192 524.43 17.2592 523.08 18.2092C526.99 19.7892 529.24 24.1092 529.24 28.3792C529.24 32.6492 526.9 36.9692 521.55 38.1892C521.19 38.2792 520.88 38.3192 520.56 38.3192C518.98 38.3192 518.09 37.2392 518.09 36.2092C518.09 35.3592 518.72 34.4992 520.07 34.2692C523.72 33.7692 525.47 30.7592 525.47 27.6592C525.47 27.3892 525.47 27.1592 525.43 26.8892C522.05 30.2192 516.88 34.3992 509.81 36.6092C509.45 36.6992 509.14 36.7892 508.87 36.7892C507.61 36.7892 506.84 35.8892 506.84 34.9392C506.84 34.1292 507.38 33.2792 508.64 32.9592C515.21 31.2992 521.33 26.7992 524.3 23.4192C524.12 23.1492 523.94 22.8792 523.72 22.6092C521.06 24.7692 516.39 27.9192 511.97 29.2692C511.7 29.3592 511.47 29.3592 511.25 29.3592C510.08 29.3592 509.41 28.4592 509.41 27.6092C509.41 26.8892 509.81 26.2092 510.76 25.9392C514.85 24.8992 518.81 22.5592 521.15 20.6792L520.7 20.4992C520.52 20.4592 520.34 20.4092 520.16 20.4092C519.89 20.4092 519.67 20.4492 519.49 20.5392L518.91 20.8092C517.47 21.6192 516.03 22.2892 514.77 22.6992C514.41 22.8292 514.1 22.8792 513.82 22.8792C512.61 22.8792 511.98 22.0292 511.98 21.1292C511.98 20.4592 512.39 19.7792 513.29 19.5592C516.08 18.7892 519.45 16.9492 522.11 15.0192L516.71 15.1092H516.62C515.45 15.1092 514.87 14.2592 514.87 13.3992C514.87 12.4992 515.45 11.6492 516.67 11.6492H516.71C519.77 11.7392 522.38 11.7892 524.99 11.7892C527.6 11.7892 530.25 11.7492 533.4 11.6492H533.45C534.71 11.6492 535.34 12.4992 535.34 13.3992C535.34 14.2992 534.76 15.1092 533.5 15.1092H533.41L528.06 15.0192L528.03 15.0092ZM531.72 8.70922C529.74 8.61922 527.13 8.57922 524.52 8.57922C522.23 8.57922 519.98 8.61922 518.27 8.70922C515.3 8.88922 513.68 10.1492 513.55 11.5392V13.0692C513.55 14.2392 512.51 14.8692 511.48 14.8692C510.45 14.8692 509.46 14.2892 509.41 12.9292V11.2192C509.45 7.39922 513.68 5.50922 517.96 5.27922L522.77 5.14922V2.12922C522.77 0.829219 523.85 0.199219 524.98 0.199219C526.11 0.199219 527.19 0.829219 527.19 2.08922V2.12922C527.15 3.43922 527.15 4.28922 527.15 5.14922C528.99 5.14922 530.75 5.18922 532.14 5.27922C537.85 5.63922 540.96 8.56922 541.01 11.3092C541.01 11.7192 541.05 11.9392 541.05 12.1192C541.05 12.3492 541.01 12.5292 541.01 12.8392C540.87 14.0992 539.8 14.7292 538.76 14.7292C537.72 14.7292 536.73 14.1492 536.73 12.9292V11.5792C536.69 10.4092 535.2 8.83922 531.74 8.69922L531.72 8.70922ZM542.25 36.5592C541.89 36.5592 541.44 36.5192 540.99 36.3792C535.54 34.8092 529.47 29.0492 529.47 24.0092C529.47 22.2992 530.1 20.7292 531.67 19.3792C532.66 18.5692 533.16 18.1192 534.37 17.2692C534.82 16.9592 535.32 16.7692 535.77 16.7692C536.94 16.7692 537.93 17.7592 537.93 18.8392C537.93 19.4192 537.62 20.0992 536.81 20.5892C535.78 21.2192 534.97 21.7092 534.34 22.2092C533.62 22.7892 533.3 23.5192 533.3 24.2792C533.3 27.3392 538.07 31.4792 542.8 32.4292C544.1 32.6992 544.73 33.5992 544.73 34.4492C544.73 35.5292 543.88 36.5592 542.26 36.5592H542.25Z" fill="#2F564A"/>
<path d="M7.25031 93.4096C6.21031 93.6396 5.22031 93.7696 4.33031 93.7696C3.88031 93.7696 3.43031 93.7196 2.98031 93.6796C1.50031 93.4496 0.820312 92.4696 0.820312 91.5196C0.820312 90.5696 1.54031 89.6296 2.89031 89.6296C3.03031 89.6296 3.16031 89.6696 3.30031 89.6696C3.84031 89.7596 4.38031 89.7596 4.92031 89.7596C5.68031 89.7596 6.45031 89.7096 7.21031 89.5296C7.17031 87.9096 7.17031 86.4296 7.17031 85.2096C7.17031 83.9896 7.17031 82.9996 7.21031 82.4596C7.25031 81.0196 8.33031 80.3496 9.37031 80.3496C10.4103 80.3496 11.5303 81.0696 11.5303 82.4596C11.5303 82.5996 11.5303 82.7296 11.4903 82.9096C11.3103 84.1196 11.1803 86.0096 11.1303 88.1696L14.3703 86.6396C14.7303 86.4596 15.0403 86.4096 15.4103 86.4096C16.5303 86.4096 17.4403 87.3096 17.4403 88.2996C17.4403 89.0596 16.9003 89.9196 15.5903 90.4596C13.9203 91.1796 12.4403 91.7696 11.0503 92.2596C11.0103 94.1096 11.0103 95.9096 11.0103 97.6996C12.5403 97.1596 14.1203 96.7596 15.6903 96.4896C16.8103 96.3096 17.8503 96.1796 18.7903 96.1796C24.4103 96.1796 27.2903 99.3696 27.2903 102.79C27.2903 105.62 25.2603 108.68 21.1703 110.26C19.8703 110.76 18.6103 110.98 17.5303 110.98C14.2003 110.98 12.0403 108.91 12.0403 106.26C12.0403 105.59 12.1703 104.91 12.4503 104.19C12.8603 103.2 13.6603 102.75 14.3803 102.75C15.2803 102.75 16.0503 103.33 16.0503 104.37C16.0503 104.55 16.0503 104.78 15.9603 105C15.8703 105.22 15.8703 105.45 15.8703 105.67C15.8703 106.66 16.6303 107.38 17.8503 107.38C18.4303 107.38 19.1103 107.2 19.8803 106.88C22.1703 105.89 23.2103 104.36 23.2103 103.01C23.2103 101.16 21.4103 99.5896 18.1703 99.5896C17.4003 99.5896 16.5903 99.6796 15.7003 99.8596C14.1703 100.17 12.4603 100.62 11.0603 101.16C11.1103 104.22 11.1503 106.65 11.2003 107.28V107.5C11.2003 110.11 8.86031 111.42 6.34031 111.42C5.40031 111.42 4.41031 111.24 3.51031 110.84C1.22031 109.85 0.320312 108.36 0.320312 106.7C0.320312 105.98 0.500313 105.21 0.860313 104.45C1.90031 102.24 4.55031 100.35 7.43031 98.9596L7.30031 93.3796L7.25031 93.4096ZM4.28031 105.33C4.10031 105.64 4.01031 105.96 4.01031 106.23C4.01031 106.9 4.51031 107.4 5.18031 107.67C5.41031 107.76 5.76031 107.85 6.13031 107.85C6.76031 107.85 7.39031 107.58 7.43031 106.77V102.58C5.99031 103.39 4.82031 104.38 4.28031 105.33ZM29.1203 96.5096C27.5403 94.5296 25.4303 93.6796 23.4103 93.6796C22.8703 93.6796 22.3703 93.7696 21.8803 93.8596C21.6103 93.8996 21.3403 93.9496 21.1203 93.9496C19.9503 93.9496 19.3703 93.1896 19.3703 92.3796C19.3703 91.5296 20.0003 90.5796 21.3003 90.3596C22.1103 90.2196 22.9703 90.1296 23.8703 90.1296C26.6103 90.1296 29.6703 90.8996 31.6503 92.8696C32.3703 93.5896 32.6403 94.3096 32.6403 94.9896C32.6403 96.2496 31.6003 97.2396 30.5203 97.2396C30.0203 97.2396 29.5303 97.0096 29.1303 96.5196L29.1203 96.5096Z" fill="#2F564A"/>
<path d="M52.8803 112.578C52.4303 112.758 51.9803 112.848 51.6203 112.848C50.3103 112.848 49.5503 111.898 49.5503 110.868C49.5503 110.098 49.9603 109.288 50.9903 108.848C54.4503 107.318 57.2903 105.558 59.8103 103.178C58.5503 102.458 57.2503 101.778 55.9803 101.238C55.0803 100.838 54.6803 100.158 54.6803 99.4884C54.6803 98.4984 55.5403 97.5584 56.7103 97.5584C57.0203 97.5584 57.3403 97.6484 57.7003 97.7784C59.1003 98.4084 60.8103 99.2184 62.5203 100.208C63.5103 98.9484 64.4503 97.5084 65.4003 95.9384C65.8503 95.2184 66.4803 94.8984 67.1503 94.8984C68.2303 94.8984 69.3103 95.7084 69.3103 96.8784C69.3103 97.2884 69.1803 97.7784 68.8603 98.2284C67.8703 99.6684 66.9203 101.058 65.8903 102.318C67.2903 103.308 68.5903 104.438 69.7603 105.608C70.3403 106.188 70.5703 106.818 70.5703 107.408C70.5703 108.668 69.5303 109.658 68.4503 109.658C67.8703 109.658 67.3303 109.428 66.8303 108.808C65.8403 107.548 64.5803 106.378 63.2303 105.348C60.2603 108.408 56.9303 110.838 52.8803 112.588V112.578ZM53.6003 89.5384C53.0203 89.9884 52.4303 90.1684 51.8903 90.1684C50.7203 90.1684 49.8203 89.1784 49.8203 88.1484C49.8203 87.5184 50.1303 86.8884 50.8503 86.3984C54.0003 84.3284 56.2103 80.8684 58.1803 76.9084C58.6303 76.0084 59.3503 75.6484 60.0703 75.6484C61.1503 75.6484 62.1903 76.4984 62.1903 77.6684C62.1903 78.0684 62.1003 78.4784 61.8803 78.8784C61.6503 79.2384 61.4703 79.6384 61.2503 80.0484H64.1803C68.8603 80.0484 74.2103 79.9584 78.2603 79.8684H78.3503C79.7903 79.8684 80.4703 80.8184 80.4703 81.7184C80.4703 82.6584 79.7503 83.6084 78.3503 83.6084H78.2603C75.2903 83.5184 71.6403 83.5184 68.0503 83.5184C65.1703 83.5184 62.3403 83.5184 60.0403 83.5584C59.3703 83.5584 58.9203 83.8684 58.6003 84.1884C57.1103 86.2584 55.4003 88.2384 53.6003 89.5384ZM78.7103 112.038C74.3403 109.388 73.2203 104.568 73.1703 97.9984C73.1703 95.4384 71.5903 94.0884 69.0303 94.0884H67.2803C63.7703 94.0884 60.3503 94.1784 57.5603 94.1784C56.7503 94.1784 55.9403 94.1384 55.2703 94.1384C53.9703 94.0984 53.3403 93.2384 53.3403 92.3884C53.3403 91.5384 53.9703 90.6784 55.1803 90.6784H55.2703C55.9903 90.6784 56.7603 90.7184 57.6103 90.7184C60.4403 90.7184 64.0403 90.6284 67.7803 90.6284H69.6703C73.6703 90.6684 77.2303 92.6984 77.2303 96.9684V98.3184C77.2303 104.078 78.2203 106.468 80.6903 108.258C81.1403 108.568 81.5903 108.758 82.0403 108.758C82.8903 108.758 83.6103 108.078 83.6103 106.958C83.6103 106.828 83.6103 106.688 83.5703 106.508C83.5303 106.368 83.5303 106.238 83.5303 106.098C83.5303 104.798 84.6503 104.028 85.7403 104.028C86.8303 104.028 87.9503 104.798 87.9503 106.408V106.548C87.9503 110.998 85.0703 112.978 82.1003 112.978C80.9303 112.978 79.7103 112.668 78.7203 112.038H78.7103ZM73.6203 88.7284H73.5303C71.2403 88.6884 68.9903 88.6384 66.8703 88.6384C64.2603 88.6384 61.8803 88.6784 59.8103 88.7284H59.7203C58.5103 88.7284 57.8803 87.9184 57.8803 87.0584C57.8803 86.2484 58.5103 85.3884 59.7703 85.3884H59.8103C61.4803 85.4784 63.8103 85.4784 66.2903 85.4784C68.7703 85.4784 71.3703 85.4784 73.5403 85.3884H73.5803C74.8803 85.3884 75.5603 86.2384 75.5603 87.0584C75.5603 87.9084 74.9303 88.7284 73.6303 88.7284H73.6203Z" fill="#2F564A"/>
<path d="M125.28 103.31C123.75 103.35 122.18 103.35 120.42 103.35C119.75 103.35 119.25 103.17 118.93 102.85C118.84 103.66 118.26 104.43 117.09 104.43H117L112.1 104.34C112.14 106.5 112.23 108.75 112.32 111.09V111.18C112.32 112.49 111.28 113.16 110.29 113.16C109.3 113.16 108.31 112.49 108.31 111.18V111.09C108.4 108.7 108.49 106.46 108.53 104.34C106.33 104.34 104.08 104.38 101.92 104.43H101.88C100.71 104.43 100.08 103.53 100.08 102.67C100.08 101.81 100.66 100.96 101.88 100.96H101.92C103.99 101.05 106.28 101.05 108.63 101.05C108.63 100.47 108.67 99.8798 108.67 99.3398L107.77 99.2498C104.89 98.9798 103.23 97.5398 103 95.2498C102.91 94.4798 102.87 93.5398 102.87 92.6398C102.87 91.6898 102.91 90.7899 103 89.9799C103.31 87.5499 105.21 86.0199 107.86 85.7999C108.09 85.7999 108.31 85.7598 108.58 85.7598C108.58 85.2198 108.54 84.6798 108.54 84.0898L103.23 84.1798H103.19C102.02 84.1798 101.44 83.3298 101.44 82.4698C101.44 81.6098 102.02 80.8098 103.19 80.8098H103.23C104.98 80.8498 106.69 80.8998 108.45 80.8998L108.32 77.5698V77.4799C108.32 76.2199 109.31 75.5898 110.3 75.5898C111.29 75.5898 112.33 76.2199 112.33 77.4799V77.5698L112.2 80.8998C113.82 80.8998 115.39 80.8598 116.92 80.8098H116.96C118.13 80.8098 118.71 81.6198 118.71 82.4698C118.71 83.3198 118.13 84.1798 116.96 84.1798H116.92L112.11 84.0898C112.06 84.6698 112.06 85.2599 112.06 85.7999C112.24 85.8399 112.42 85.8398 112.6 85.8398C115.62 86.0698 117.37 87.5499 117.6 90.1599C117.64 90.9699 117.69 91.9998 117.69 92.9898L118.14 92.8498C120.35 92.3598 122.64 91.4998 124.62 90.3298C122.73 88.7498 121.29 86.8698 120.62 84.8398C120.44 84.2998 120.35 83.7598 120.35 83.1698C120.35 80.8798 121.88 78.7098 125.03 78.4898C125.61 78.4398 126.47 78.4398 127.28 78.4398C128.13 78.4398 128.99 78.4398 129.57 78.4898C132.95 78.7598 134.74 80.5098 134.74 82.8098C134.74 83.2998 134.7 83.7998 134.51 84.3398C133.88 86.3198 132.62 88.2498 130.87 89.9598C133.53 91.2698 136.54 92.1199 139.15 92.4799C140.32 92.6199 140.91 93.5198 140.91 94.4198C140.91 95.4098 140.14 96.4898 138.62 96.4898C138.44 96.4898 138.26 96.4898 138.04 96.4498C134.93 95.9498 131.06 94.5998 127.74 92.5798C125.22 94.3398 122.25 95.7298 119.24 96.4498C118.97 96.5398 118.7 96.5398 118.48 96.5398C117.98 96.5398 117.62 96.4499 117.31 96.2299C116.68 97.7599 115.19 99.0598 112.85 99.2498L112.04 99.3398V101.05C113.79 101.05 115.5 101.01 117.04 100.96C117.67 100.96 118.16 101.14 118.48 101.45C118.57 100.6 119.2 99.7798 120.37 99.7798H120.46C122.21 99.8698 123.79 99.9198 125.27 99.9198C125.23 98.8398 125.18 97.7098 125.18 96.5898V96.4998C125.18 95.1498 126.17 94.5198 127.21 94.5198C128.25 94.5198 129.23 95.1998 129.23 96.4998V96.5898C129.19 97.7098 129.14 98.8398 129.14 99.9198C130.76 99.9198 132.47 99.8798 134.45 99.7798H134.54C135.76 99.7798 136.34 100.68 136.34 101.54C136.34 102.44 135.76 103.34 134.54 103.34H134.45C132.47 103.3 130.76 103.25 129.05 103.25V107.62C131.88 107.62 134.76 107.58 137.73 107.44H137.82C139.12 107.44 139.76 108.38 139.76 109.28C139.76 110.23 139.13 111.17 137.82 111.17H137.73C135.26 111.08 132.87 111.04 130.48 111.04C125.71 111.04 121.17 111.17 116.8 111.17C115.4 111.17 114.77 110.27 114.77 109.33C114.77 108.39 115.44 107.44 116.71 107.44H116.8C119.63 107.53 122.42 107.62 125.3 107.62V103.3L125.28 103.31ZM108.77 93.7198H106.11L106.24 94.8398C106.42 95.7898 107.01 96.3198 108.22 96.4198L108.76 96.5098V93.7198H108.77ZM108.77 91.0698C108.77 90.2598 108.73 89.3999 108.73 88.5499C108.59 88.5999 108.41 88.5998 108.28 88.5998C107.2 88.6898 106.35 89.2698 106.21 90.5298C106.17 90.7098 106.17 90.8898 106.17 91.0698H108.78H108.77ZM114.44 91.0698C114.4 90.8898 114.4 90.7098 114.4 90.5298C114.31 89.3198 113.72 88.7299 112.42 88.5499C112.24 88.5499 112.11 88.5498 111.92 88.5098C111.88 89.3598 111.88 90.2198 111.88 91.0698H114.45H114.44ZM112.5 96.4198C113.85 96.2398 114.34 95.4298 114.39 94.6199C114.39 94.3099 114.43 94.0398 114.43 93.7198H111.86V96.5098L112.49 96.4198H112.5ZM130.37 84.0499C130.41 83.8699 130.46 83.6398 130.46 83.4698C130.46 82.6198 129.79 81.8899 128.8 81.7999C128.44 81.7599 127.94 81.7598 127.4 81.7598C126.86 81.7598 126.32 81.7599 126.01 81.7999C124.89 81.8899 124.34 82.6999 124.34 83.5499C124.34 83.7299 124.38 83.9498 124.43 84.1298C124.88 85.6098 126.1 86.9598 127.67 88.1298C128.93 86.9198 129.92 85.5198 130.37 84.0398V84.0499Z" fill="#2F564A"/>
<path d="M159.301 110.009C158.621 110.009 157.951 109.699 157.411 108.839C156.291 107.089 155.791 104.519 155.791 101.369C155.791 96.6494 156.871 90.5294 158.131 83.8194C158.351 82.6494 159.301 82.1094 160.201 82.1094C161.191 82.1094 162.181 82.7394 162.181 83.9094C162.181 84.0494 162.181 84.1794 162.131 84.3194C161.231 88.9094 159.571 95.1594 159.571 99.7094C159.571 100.069 159.571 100.429 159.611 100.789C159.611 100.969 159.651 101.019 159.701 101.019C159.751 101.019 159.791 100.979 159.881 100.839C160.101 100.529 160.551 99.5394 160.821 99.0394C161.181 98.4094 161.721 98.1894 162.221 98.1894C163.031 98.1894 163.791 98.7694 163.791 99.5894C163.791 99.8094 163.751 99.9894 163.661 100.219C162.621 102.239 161.411 104.719 161.411 107.009C161.411 107.239 161.411 107.459 161.451 107.689V107.919C161.451 109.039 160.421 110.029 159.291 110.029L159.301 110.009ZM176.271 108.349C172.581 108.349 169.021 107.269 166.871 105.379C166.241 104.839 166.011 104.259 166.011 103.709C166.011 102.669 166.871 101.819 167.991 101.819C168.441 101.819 168.931 101.949 169.381 102.269C171.411 103.669 173.521 104.209 175.681 104.209C177.521 104.209 179.411 103.849 181.261 103.219C181.531 103.129 181.801 103.089 182.021 103.089C183.191 103.089 183.951 104.029 183.951 105.069C183.951 105.969 183.411 106.909 182.021 107.409C180.221 108.039 178.241 108.349 176.261 108.349H176.271ZM179.551 90.2994C178.151 89.7994 176.441 89.5794 174.731 89.5794C173.021 89.5794 171.311 89.8094 169.691 90.2494C169.421 90.3394 169.191 90.3394 168.971 90.3394C167.851 90.3394 167.221 89.5294 167.221 88.6294C167.221 87.9094 167.631 87.1494 168.481 86.7394C169.781 86.1094 172.661 85.8394 175.411 85.8394C177.521 85.8394 179.591 86.0194 180.811 86.3794C181.981 86.7394 182.481 87.5494 182.481 88.3594C182.481 89.4394 181.671 90.4294 180.411 90.4294C180.141 90.4294 179.871 90.3894 179.561 90.2994H179.551Z" fill="#2F564A"/>
<path d="M214.61 109.918C210.29 109.918 206.06 108.698 203.9 106.498C203.23 105.818 202.96 105.098 202.96 104.478C202.96 103.308 203.9 102.408 205.07 102.408C205.61 102.408 206.15 102.588 206.74 102.988C209.17 104.698 211.74 105.368 214.3 105.368C216.51 105.368 218.71 104.868 220.87 104.108C221.18 103.978 221.5 103.928 221.82 103.928C223.08 103.928 223.93 104.918 223.93 106.038C223.93 106.978 223.35 108.018 221.82 108.648C219.66 109.498 217.14 109.908 214.62 109.908L214.61 109.918ZM218.03 90.3883H217.04C214.57 90.3883 209.53 90.1583 207.05 87.9583C206.38 87.3783 206.1 86.6983 206.1 86.0683C206.1 84.9483 207.05 83.9983 208.22 83.9983C208.63 83.9983 209.07 84.0883 209.48 84.3983C211.32 85.6583 213.62 86.0183 216 86.0183C216.77 86.0183 217.58 85.9683 218.39 85.9283H218.75C220.33 85.9283 221.18 86.9183 221.18 87.9983C221.18 89.0783 220.19 90.3383 218.03 90.3783V90.3883ZM224.19 87.5983C223.65 87.5983 223.11 87.3283 222.79 86.6083C222.7 86.4283 222.61 85.9783 222.48 85.7083C222.03 84.7583 221.53 84.0883 220.99 83.6383C220.63 83.3283 220.45 82.9683 220.45 82.5583C220.45 81.8383 221.08 81.1583 221.94 81.1583C222.34 81.1583 222.75 81.3383 223.2 81.6983C224.19 82.5483 225.32 84.2183 225.72 85.2483C225.81 85.5183 225.86 85.7483 225.86 85.9683C225.86 86.9183 225.05 87.5883 224.19 87.5883V87.5983ZM227.25 85.0383C227.16 84.8583 227.07 84.4083 226.93 84.1383C226.44 83.1983 225.9 82.5683 225.36 82.1183C224.95 81.8083 224.78 81.4483 224.78 81.0383C224.78 80.3683 225.41 79.7383 226.26 79.7383C226.62 79.7383 227.03 79.8683 227.47 80.1883C228.51 80.9583 229.72 82.5283 230.08 83.6083C230.17 83.8783 230.21 84.1083 230.21 84.3283C230.21 85.3183 229.4 85.9883 228.59 85.9883C228.09 85.9883 227.56 85.7183 227.24 85.0483L227.25 85.0383Z" fill="#2F564A"/>
<path d="M256.86 91.5584C257.09 91.4184 257.36 91.3784 257.67 91.3784C257.94 91.3784 258.21 91.4184 258.48 91.5584C259.92 92.2284 261.45 93.4484 262.22 94.5684C262.53 95.0684 262.67 95.5184 262.67 95.9184C262.67 97.0884 261.73 97.8984 260.69 97.8984C260.11 97.8984 259.48 97.6284 259.07 96.8584C258.66 96.1384 257.86 95.1484 256.86 94.4284C256.86 99.3284 257 104.328 257.18 110.268V110.308C257.18 111.708 256.06 112.418 254.93 112.418C253.8 112.418 252.77 111.748 252.77 110.348V110.258C252.9 104.948 253.04 100.448 253.09 96.2184C251.51 98.1084 249.71 99.9084 247.92 101.208C247.25 101.708 246.57 101.928 245.98 101.928C244.72 101.928 243.73 100.988 243.73 99.9484C243.73 99.3184 244.14 98.6884 244.99 98.1484C247.51 96.6684 249.85 94.4984 251.74 92.2084C252.78 90.9984 253 90.0084 253.05 89.1084V88.8884C251.52 88.8884 249.99 88.8884 248.55 88.9284H248.46C247.11 88.9284 246.43 87.9884 246.43 87.0384C246.43 86.0884 247.1 85.1484 248.46 85.1484H248.55C249.99 85.1884 251.47 85.2384 253.01 85.2384C252.97 83.0284 252.87 80.7884 252.78 78.3584V78.2684C252.78 76.8684 253.86 76.1484 254.94 76.1484C256.02 76.1484 257.19 76.8684 257.19 78.2684V78.3584C257.1 80.7884 257.01 83.0384 256.96 85.2384C258.22 85.2384 259.44 85.1984 260.65 85.1484H260.74C262.13 85.1484 262.81 86.0884 262.81 87.0384C262.81 87.9884 262.13 88.9284 260.74 88.9284H260.65C259.44 88.9284 258.13 88.8884 256.87 88.8884V91.5384L256.86 91.5584ZM272.34 112.038C271.8 112.038 271.3 112.038 270.86 111.998C266.63 111.688 264.29 109.658 264.15 104.848C264.11 102.688 264.06 98.0584 264.06 93.7384C264.06 90.1384 264.1 86.7684 264.15 85.1484C264.33 81.0484 266.76 79.0284 270.86 78.8084C271.49 78.7584 272.07 78.7584 272.7 78.7584C273.28 78.7584 273.91 78.7584 274.54 78.8084C279 79.0784 281.11 81.5484 281.25 85.4684C281.29 87.2684 281.34 92.6684 281.34 97.4784C281.34 100.448 281.34 103.188 281.3 104.678C281.17 109.488 278.69 111.738 274.33 112.008C273.75 112.048 273.02 112.048 272.35 112.048L272.34 112.038ZM277.16 85.8484C277.11 84.0984 276.12 82.6984 274.23 82.5184C273.74 82.4784 273.2 82.4784 272.7 82.4784C272.16 82.4784 271.66 82.4784 271.17 82.5184C269.28 82.6984 268.29 83.9184 268.2 85.7584C268.16 86.4284 268.11 87.4684 268.11 88.5884C269.69 88.6284 271.12 88.6284 272.57 88.6284C274.02 88.6284 275.54 88.6284 277.2 88.5884C277.2 87.4684 277.16 86.4284 277.16 85.8384V85.8484ZM277.2 92.2784C275.53 92.2784 274.05 92.2384 272.57 92.2384C271.09 92.2384 269.69 92.2784 268.11 92.2784V97.2784C269.69 97.3184 271.12 97.3184 272.57 97.3184C274.02 97.3184 275.54 97.3184 277.2 97.2784V92.2784ZM272.61 100.918C271.12 100.918 269.69 100.968 268.15 100.968C268.15 102.408 268.19 103.618 268.19 104.428C268.23 106.678 269.14 107.978 271.25 108.208C271.7 108.248 272.2 108.298 272.69 108.298C273.18 108.298 273.68 108.258 274.13 108.208C276.2 107.978 277.1 106.538 277.15 104.248C277.15 103.478 277.19 102.308 277.19 100.968C275.52 100.968 274.04 100.918 272.6 100.918H272.61Z" fill="#2F564A"/>
<path d="M299.791 86.1193C298.481 86.1193 297.851 85.2693 297.851 84.3693C297.851 83.3793 298.571 82.3893 299.831 82.3893H299.871C301.891 82.4793 303.831 82.5193 305.811 82.5193C308.281 82.5193 310.761 82.4293 313.231 82.3393H313.321C314.531 82.3393 315.121 83.2793 315.121 84.2293C315.121 85.1793 314.541 86.1193 313.321 86.1193H313.231C311.201 86.0293 309.181 85.9793 307.111 85.9793C304.731 85.9793 302.341 86.0293 299.871 86.1193H299.781H299.791ZM313.521 112.939C313.301 112.979 313.071 113.029 312.851 113.029C311.681 113.029 310.921 112.089 310.781 111.139C310.061 111.539 309.161 111.809 308.081 111.899C307.411 111.949 306.911 111.989 306.411 111.989C305.911 111.989 305.421 111.949 304.791 111.899C302.181 111.719 300.341 110.009 300.201 107.309C300.161 106.459 300.111 105.959 300.111 105.419C300.111 105.059 300.151 104.699 300.151 104.159C300.331 101.279 302.311 99.6593 304.921 99.4793C305.501 99.4393 305.951 99.4393 306.451 99.4393C306.951 99.4393 307.491 99.4393 308.201 99.4793C310.861 99.6593 312.831 101.149 313.021 103.889C313.021 104.559 313.061 105.059 313.061 105.549C313.061 106.089 313.021 106.589 313.021 107.219C312.981 107.899 312.841 108.529 312.611 109.069C320.301 107.269 322.061 101.289 322.061 94.7193V94.2193C322.021 92.8693 323.101 92.1093 324.131 92.1093C325.031 92.1093 325.931 92.7393 325.931 94.1793C325.931 95.3893 325.841 96.5593 325.711 97.6893C325.751 98.5893 325.981 99.4393 326.291 100.249C327.821 99.2593 329.841 97.6893 331.011 96.5593C331.421 96.1593 331.861 95.9793 332.271 95.9793C333.311 95.9793 334.201 96.9193 334.201 97.9593C334.201 98.4093 334.021 98.8593 333.571 99.2693C332.001 100.709 329.431 102.279 327.901 103.139C329.931 105.789 333.071 107.769 336.141 108.309C337.441 108.539 338.031 109.429 338.031 110.329C338.031 111.409 337.181 112.489 335.651 112.489C335.381 112.489 335.071 112.489 334.751 112.399C330.211 111.279 326.111 107.319 324.271 103.489C322.471 107.949 319.101 111.409 313.521 112.939ZM310.641 76.7593C311.811 76.7593 312.401 77.6593 312.401 78.5593C312.401 79.4593 311.861 80.3093 310.691 80.3093H310.601C308.891 80.2693 307.681 80.2693 306.511 80.2693C305.341 80.2693 304.261 80.2693 302.871 80.3093H302.781C301.571 80.3093 300.981 79.4993 300.981 78.5993C300.981 77.6993 301.611 76.7493 302.821 76.7493H302.861C304.391 76.8393 305.471 76.8393 306.591 76.8393C307.711 76.8393 308.881 76.8393 310.591 76.7493H310.631L310.641 76.7593ZM310.591 91.7393C308.881 91.6993 307.671 91.6993 306.501 91.6993C305.331 91.6993 304.251 91.6993 302.861 91.7393H302.771C301.561 91.7393 300.971 90.8893 300.971 90.0293C300.971 89.1293 301.601 88.1793 302.771 88.1793H302.861C304.571 88.2193 305.691 88.2693 306.951 88.2693C307.941 88.2693 309.071 88.2293 310.591 88.1793H310.681C311.851 88.1793 312.391 89.0793 312.391 89.9793C312.391 90.8793 311.851 91.7293 310.681 91.7293H310.591V91.7393ZM310.591 97.2793C309.061 97.2393 307.941 97.1893 306.861 97.1893C305.561 97.1893 304.431 97.2393 302.861 97.2793H302.771C301.561 97.2793 300.971 96.4293 300.971 95.5693C300.971 94.6693 301.601 93.7193 302.771 93.7193H302.861C304.571 93.7693 305.691 93.8093 306.951 93.8093C307.941 93.8093 309.071 93.7693 310.591 93.7193H310.681C311.851 93.7193 312.391 94.6193 312.391 95.5193C312.391 96.4193 311.851 97.2693 310.681 97.2693H310.591V97.2793ZM309.471 106.949C309.521 106.499 309.521 106.099 309.521 105.689C309.521 105.279 309.521 104.879 309.471 104.379C309.431 103.619 308.891 102.719 307.671 102.629C307.311 102.589 307.001 102.539 306.591 102.539C306.281 102.539 305.921 102.579 305.511 102.629C304.521 102.719 303.841 103.439 303.761 104.429C303.711 104.919 303.671 105.279 303.671 105.689C303.671 106.049 303.711 106.459 303.761 106.949C303.851 108.029 304.661 108.529 305.331 108.659C305.741 108.749 306.191 108.749 306.591 108.749C307.041 108.749 307.491 108.749 307.901 108.659C308.801 108.479 309.431 107.849 309.471 106.949ZM315.811 95.3893C315.451 95.5293 315.141 95.6193 314.821 95.6193C313.651 95.6193 312.881 94.7193 312.881 93.7793C312.881 93.0593 313.331 92.3393 314.411 91.9293C320.801 89.6393 322.331 85.1793 322.331 79.2893C322.331 78.8393 322.291 78.3493 322.291 77.8893V77.7993C322.291 76.5393 323.281 75.7793 324.271 75.7793C325.261 75.7793 326.161 76.4493 326.161 77.8893C326.161 79.1093 326.161 80.2293 326.031 81.3093C326.031 81.3993 326.071 81.4893 326.071 81.5393C326.111 82.2593 326.251 82.9793 326.481 83.6493C327.971 82.5293 329.811 80.8593 330.851 79.6893C331.301 79.1893 331.791 79.0093 332.241 79.0093C333.281 79.0093 334.261 79.9593 334.261 81.0293C334.261 81.5693 334.041 82.1093 333.541 82.6093C332.011 84.1393 329.541 85.6693 327.961 86.5693C329.801 89.0893 332.641 90.9793 335.431 91.3793C336.641 91.5593 337.181 92.4193 337.181 93.2693C337.181 94.2993 336.411 95.3793 334.971 95.3793C334.741 95.3793 334.521 95.3393 334.251 95.2893C330.291 94.3893 326.421 90.7493 324.621 87.1493C323.091 90.7893 320.251 93.6293 315.801 95.3793L315.811 95.3893ZM317.251 102.629C316.671 101.279 315.861 100.339 314.731 99.2993C314.371 98.9393 314.191 98.5793 314.191 98.1793C314.191 97.2793 315.131 96.4293 316.171 96.4293C316.531 96.4293 316.931 96.5193 317.291 96.8293C318.281 97.6393 319.811 99.1693 320.441 100.919C320.531 101.189 320.571 101.459 320.571 101.689C320.571 102.859 319.621 103.669 318.681 103.669C318.101 103.669 317.561 103.359 317.241 102.629H317.251ZM317.881 85.4893C317.521 84.4093 316.711 83.1993 315.631 82.1093C315.271 81.7493 315.131 81.3393 315.131 80.9893C315.131 80.0893 316.031 79.2393 317.021 79.2393C317.421 79.2393 317.831 79.4193 318.191 79.7393C319.361 80.8193 320.571 82.1693 321.161 83.9193C321.251 84.1893 321.291 84.4593 321.291 84.7293C321.291 85.8993 320.301 86.7093 319.401 86.7093C318.771 86.7093 318.141 86.3493 317.871 85.4993L317.881 85.4893Z" fill="#2F564A"/>
<path d="M360.23 90.6188C359.42 91.5588 358.97 92.5088 358.97 93.4988C358.97 94.3988 359.33 95.3388 360.18 96.3288C363.1 99.7488 366.12 104.429 367.2 108.699C367.29 109.059 367.33 109.419 367.33 109.779C367.33 111.489 366.16 112.529 364.95 112.529C363.91 112.529 362.83 111.759 362.48 109.969C361.76 106.189 359.15 101.739 356.86 98.8088C355.42 96.9688 354.74 95.3488 354.74 93.7288C354.74 91.9788 355.55 90.2688 356.99 88.3788C358.48 86.4888 359.96 84.5588 360.86 83.2088C361.62 82.1288 362.07 81.4088 362.61 80.2388C363.11 79.2488 363.96 78.7988 364.82 78.7988C366.03 78.7988 367.25 79.6488 367.25 80.9988C367.25 81.4488 367.12 81.8988 366.8 82.4388C366.3 83.2088 366.08 83.5188 365.09 84.7788L360.23 90.6288V90.6188Z" fill="#2F564A"/>
<path d="M399.561 85.1294C399.971 84.9894 400.321 84.8595 400.641 84.6795C400.951 84.5495 401.221 84.4494 401.491 84.4494C402.481 84.4494 403.201 85.3495 403.201 86.2995C403.201 87.0595 402.751 87.9195 401.631 88.3695C400.681 88.7295 399.691 89.0894 398.611 89.4494C397.081 95.1194 394.071 104.839 393.711 107.579C393.481 109.239 392.221 110.099 391.141 110.099C390.061 110.099 389.211 109.429 389.211 108.079C389.211 107.769 389.251 107.359 389.391 106.959C390.071 104.709 393.081 95.1695 394.471 90.3595C393.931 90.5395 393.431 90.7194 392.991 90.8094C392.491 90.8994 392.041 90.9494 391.551 90.9494C391.141 90.9494 390.701 90.9094 390.201 90.8094C388.851 90.5394 388.261 89.5995 388.261 88.6495C388.261 87.6095 388.981 86.6294 390.151 86.6294C390.371 86.6294 390.551 86.6695 390.781 86.7195C391.181 86.8495 391.631 86.8995 392.081 86.8995C393.121 86.8995 394.291 86.6294 395.411 86.2694C395.541 85.5494 395.631 84.7394 395.721 84.0194C395.861 82.9394 395.901 81.9494 395.951 81.4594C396.081 80.1494 397.121 79.5194 398.111 79.5194C399.101 79.5194 400.181 80.2394 400.181 81.5894V81.7295C400.181 82.4495 400.001 83.2995 399.821 84.1595L399.551 85.1495L399.561 85.1294ZM409.411 110.329C406.121 110.329 403.111 109.609 401.271 108.389C400.321 107.759 399.971 106.989 399.971 106.319C399.971 105.199 400.871 104.299 402.041 104.299C402.451 104.299 402.941 104.439 403.391 104.749C404.561 105.649 406.491 106.139 408.701 106.139C410.411 106.139 412.341 105.829 414.231 105.199C414.641 105.069 415.041 105.019 415.351 105.019C416.751 105.019 417.511 106.009 417.511 107.089C417.511 108.079 416.881 109.109 415.581 109.469C413.551 110.049 411.441 110.319 409.411 110.319V110.329ZM405.051 88.0495C405.051 87.2795 405.631 86.5695 406.801 86.2995C407.341 86.2095 407.971 86.1195 408.601 86.1195C410.621 86.1195 413.141 86.6595 415.621 87.6495C416.791 88.1495 417.241 88.9594 417.241 89.7694C417.241 90.0794 417.151 90.4394 417.011 90.7094C416.701 91.3794 416.071 91.7895 415.211 91.7895C414.851 91.7895 414.451 91.6994 414.001 91.5194C411.341 90.3094 410.221 89.7694 408.021 89.7694C407.701 89.7694 407.351 89.7694 406.981 89.8094H406.801C405.721 89.8094 405.091 89.0395 405.051 88.2295V88.0495ZM417.291 85.7995C416.751 85.7995 416.211 85.5295 415.891 84.8595C415.801 84.6295 415.711 84.1795 415.581 83.9095C415.131 82.9695 414.631 82.2894 414.091 81.8394C413.691 81.5294 413.551 81.1195 413.551 80.7595C413.551 80.0395 414.181 79.3695 415.041 79.3695C415.451 79.3695 415.851 79.5495 416.301 79.9095C417.251 80.7595 418.371 82.4295 418.821 83.4695C418.911 83.7395 418.961 83.9595 418.961 84.1895C418.961 85.1395 418.151 85.8094 417.291 85.8094V85.7995ZM420.391 83.2394C420.301 83.0594 420.171 82.6094 420.031 82.3394C419.531 81.3994 419.041 80.7595 418.501 80.3195C418.091 80.0095 417.921 79.6394 417.921 79.2394C417.921 78.5694 418.551 77.9395 419.401 77.9395C419.761 77.9395 420.171 78.0695 420.621 78.3895C421.611 79.1595 422.821 80.7294 423.231 81.8094C423.321 82.0794 423.361 82.3094 423.361 82.5294C423.361 83.5194 422.551 84.1994 421.741 84.1994C421.251 84.1994 420.711 83.9295 420.391 83.2595V83.2394Z" fill="#2F564A"/>
<path d="M452.48 98.7588C452.48 98.2188 452.75 97.6787 453.29 97.3587C453.47 97.2687 454.05 97.0887 454.28 96.9987C454.55 96.9587 454.64 96.8588 454.64 96.7288C454.64 96.5988 454.51 96.4188 454.33 96.2288C453.29 95.0188 452.35 93.1687 451.5 91.0587C448.8 91.5087 446.46 91.6888 444.53 91.6888C443.22 91.6888 442.15 91.5988 441.29 91.5088C439.67 91.3688 438.95 90.3387 438.95 89.3487C438.95 88.3587 439.67 87.3688 440.93 87.3688C441.07 87.3688 441.25 87.3687 441.38 87.4187C442.46 87.5487 443.81 87.7288 445.47 87.7288C446.87 87.7288 448.44 87.5887 450.24 87.3187C449.74 85.6087 449.34 83.8588 449.02 82.1488C448.98 81.9688 448.98 81.7887 448.98 81.6087C448.98 80.3487 449.97 79.7188 451.01 79.7188C452.05 79.7188 453.08 80.3488 453.26 81.6588C453.48 83.2788 453.76 84.8987 454.16 86.4287C455.56 86.0687 457.04 85.5787 458.66 84.9487C459.11 84.7687 459.47 84.7188 459.83 84.7188C461.09 84.7188 461.81 85.6588 461.81 86.6588C461.81 87.5088 461.31 88.3687 460.19 88.7687C458.52 89.3487 456.9 89.8487 455.37 90.2487C456.18 92.2687 457.17 93.9787 458.34 95.1087C459.24 96.0588 460.23 96.5487 461.22 96.9587C462.21 97.3587 462.66 98.0788 462.66 98.7988C462.66 99.8388 461.71 100.869 460.23 100.869C460.01 100.869 459.78 100.829 459.51 100.779C457.71 100.419 456.13 100.689 454.29 100.469C453.08 100.379 452.49 99.5688 452.49 98.7588H452.48ZM451.49 111.589H451.36C447.58 111.549 442 109.699 440.52 105.109C440.43 104.799 440.38 104.479 440.38 104.209C440.38 102.999 441.37 102.269 442.45 102.269C443.44 102.269 444.57 102.849 445.06 104.159C446.05 106.719 449.74 107.039 451.99 107.039C453.88 107.039 454.87 108.119 454.87 109.199C454.87 110.369 453.79 111.579 451.49 111.579V111.589Z" fill="#2F564A"/>
<path d="M491.851 102.5C492.301 102.81 492.661 103 493.021 103C493.381 103 493.741 102.77 494.191 102.23C494.951 101.33 495.631 100.29 495.901 99.8495C496.351 99.1695 496.941 98.8995 497.521 98.8995C498.461 98.8995 499.361 99.6695 499.361 100.75C499.361 101.11 499.271 101.47 499.091 101.83C498.551 102.91 497.651 104.08 497.291 105.83C496.931 107.68 495.541 108.49 493.871 108.49C492.971 108.49 491.981 108.22 491.081 107.77C486.181 105.21 483.391 98.0995 483.391 90.8995V90.5395C483.391 88.8295 484.431 88.0195 485.511 88.0195C486.591 88.0195 487.621 88.8695 487.671 90.3995C487.711 95.9795 489.021 100.79 491.851 102.5ZM510.981 98.4895C510.571 96.2395 509.001 93.6795 506.711 92.7795C505.901 92.4695 505.541 91.8395 505.541 91.2095C505.541 90.2195 506.351 89.2295 507.701 89.2295C508.111 89.2295 508.601 89.3195 509.101 89.5395C512.251 90.8895 514.991 94.0795 515.351 97.0495C515.391 97.2295 515.391 97.4095 515.391 97.5895C515.391 99.3395 514.181 100.29 513.011 100.29C512.111 100.29 511.211 99.7095 510.981 98.4895Z" fill="#2F564A"/>
<path d="M536.13 113.749C533.47 113.439 530.91 111.769 530.91 108.259C530.91 105.199 533.34 102.459 536.71 102.459C540.31 102.459 542.83 104.839 542.83 108.259C542.83 111.319 539.5 114.199 536.12 113.749H536.13ZM536.81 105.199C535.06 105.199 533.84 106.599 533.84 108.169C533.84 110.009 535.14 110.869 536.5 110.999C538.25 111.229 539.96 109.739 539.96 108.169C539.96 106.409 538.65 105.199 536.81 105.199Z" fill="#2F564A"/>
</svg>
