<svg width="290" height="51" viewBox="0 0 290 51" fill="none" xmlns="http://www.w3.org/2000/svg">
<path d="M11.9406 7.95C11.6306 7.97 11.3206 8.1 11.1706 8.22C10.6906 8.66 10.0206 9.16 9.30062 9.67C11.3906 10.52 12.5806 12.84 12.5806 15.13C12.5806 17.42 11.3306 19.75 8.48062 20.4C8.29062 20.45 8.12063 20.47 7.95062 20.47C7.11062 20.47 6.63063 19.89 6.63063 19.33C6.63063 18.87 6.97062 18.41 7.68062 18.29C9.62062 18.02 10.5606 16.4 10.5606 14.74C10.5606 14.59 10.5606 14.47 10.5406 14.33C8.74062 16.12 5.99062 18.37 2.22063 19.55C2.03063 19.6 1.86063 19.65 1.72063 19.65C1.05063 19.65 0.640625 19.17 0.640625 18.66C0.640625 18.22 0.930625 17.77 1.60063 17.6C5.10063 16.71 8.36062 14.29 9.94062 12.48C9.84062 12.33 9.75062 12.19 9.63062 12.04C8.22062 13.2 5.72062 14.89 3.37063 15.62C3.23062 15.67 3.11062 15.67 2.99062 15.67C2.37062 15.67 2.01063 15.19 2.01063 14.73C2.01063 14.34 2.23063 13.98 2.73063 13.84C4.91063 13.28 7.02063 12.03 8.27063 11.01L8.03062 10.91C7.93062 10.89 7.84062 10.86 7.74062 10.86C7.60063 10.86 7.48063 10.88 7.38063 10.93L7.07063 11.08C6.30063 11.52 5.54063 11.88 4.86063 12.1C4.67063 12.17 4.50063 12.2 4.36063 12.2C3.71063 12.2 3.38063 11.74 3.38063 11.26C3.38063 10.9 3.60063 10.54 4.08063 10.41C5.57063 10 7.36062 9.01 8.78062 7.97L5.90063 8.02H5.85063C5.23063 8.02 4.91062 7.56 4.91062 7.1C4.91062 6.62 5.22062 6.16 5.87063 6.16H5.89062C7.52063 6.21 8.91062 6.23 10.3006 6.23C11.6906 6.23 13.1006 6.21 14.7806 6.16H14.8006C15.4706 6.16 15.8106 6.62 15.8106 7.1C15.8106 7.58 15.5006 8.02 14.8306 8.02H14.7806L11.9306 7.97L11.9406 7.95ZM13.9006 4.57C12.8506 4.52 11.4506 4.5 10.0706 4.5C8.85062 4.5 7.65062 4.52 6.74062 4.57C5.16062 4.67 4.29062 5.34 4.22062 6.09V6.91C4.22062 7.54 3.67062 7.88 3.12063 7.88C2.57063 7.88 2.04062 7.57 2.02062 6.84V5.92C2.04062 3.87 4.30063 2.85 6.57063 2.73L9.14062 2.66V1.04C9.14062 0.34 9.72062 0 10.3106 0C10.9006 0 11.4906 0.34 11.4906 1.01V1.03C11.4706 1.73 11.4706 2.19 11.4706 2.65C12.4506 2.65 13.3906 2.67 14.1306 2.72C17.1706 2.91 18.8306 4.48 18.8506 5.96C18.8506 6.18 18.8706 6.3 18.8706 6.4C18.8706 6.52 18.8506 6.62 18.8506 6.79C18.7806 7.47 18.2006 7.8 17.6506 7.8C17.1006 7.8 16.5706 7.49 16.5706 6.83V6.1C16.5506 5.47 15.7606 4.63 13.9106 4.55L13.9006 4.57ZM19.5106 19.53C19.3206 19.53 19.0806 19.51 18.8406 19.43C15.9406 18.58 12.7006 15.49 12.7006 12.78C12.7006 11.86 13.0406 11.02 13.8706 10.29C14.4006 9.85 14.6606 9.61 15.3106 9.15C15.5506 8.98 15.8106 8.88 16.0506 8.88C16.6706 8.88 17.2006 9.41 17.2006 9.99C17.2006 10.3 17.0306 10.67 16.6006 10.93C16.0506 11.27 15.6206 11.53 15.2806 11.8C14.9006 12.11 14.7306 12.5 14.7306 12.91C14.7306 14.55 17.2706 16.78 19.7906 17.29C20.4906 17.44 20.8206 17.92 20.8206 18.38C20.8206 18.96 20.3606 19.52 19.5006 19.52L19.5106 19.53Z" fill="#2F564A"/>
<path d="M33.8005 6.30937C33.7805 6.76937 33.7505 7.24937 33.7005 7.73937C33.7505 7.83937 33.8905 7.90937 34.3505 7.95937C36.0005 8.17937 36.9905 9.33938 37.0105 11.2194V11.5294C37.0105 14.4294 36.6505 19.7494 32.5805 19.7494C32.4105 19.7494 32.2205 19.7494 32.0505 19.7294C31.3605 19.6594 31.0205 19.1294 31.0205 18.5894C31.0205 18.0094 31.4005 17.4494 32.1505 17.4494C32.2205 17.4494 32.3405 17.4494 32.4405 17.4694C32.5405 17.4894 32.6105 17.4894 32.7005 17.4894C34.4705 17.4894 35.0305 13.7194 35.0305 11.7394C35.0305 11.4994 35.0305 11.2594 35.0105 11.0894C34.9605 10.4394 34.6505 9.82938 33.9805 9.75938H33.9105C33.7205 9.75938 33.5305 9.82938 33.4505 9.99938C32.9005 13.7194 31.7705 17.4194 29.5405 19.6894C29.2505 19.9994 28.9205 20.1294 28.6005 20.1294C28.0205 20.1294 27.5205 19.6694 27.5205 19.1394C27.5205 18.8694 27.6405 18.6094 27.8805 18.3694C30.5405 15.6394 31.5005 10.7294 31.7405 6.30937L29.8005 6.37937H29.7305C28.9905 6.37937 28.6505 5.89937 28.6505 5.38937C28.6505 4.87937 29.0105 4.32937 29.7305 4.32937H29.8005C30.6605 4.37937 31.4105 4.39937 32.1305 4.39937C32.1305 4.03937 32.1105 3.08938 32.0605 1.42937V1.37937C32.0605 0.699375 32.6105 0.359375 33.1605 0.359375C33.7105 0.359375 34.2605 0.699375 34.2605 1.37937V1.42937C34.1905 3.21937 34.1905 4.03937 34.1905 4.39937L36.5205 4.32937H36.5705C37.3105 4.32937 37.6705 4.83937 37.6705 5.36937C37.6705 5.51937 37.6505 5.65938 37.6005 5.77938C38.6505 4.39937 39.4505 2.60938 39.9505 1.20938C40.1205 0.779375 40.5005 0.609375 40.8805 0.609375C41.4305 0.609375 42.0105 0.999375 42.0105 1.57938C42.0105 1.69938 41.9905 1.81938 41.9405 1.93938C41.7505 2.44938 41.4805 3.04938 41.1705 3.69938C42.4205 3.69938 44.1205 3.67937 46.5405 3.57937H46.6405C47.4605 3.57937 47.8405 4.08938 47.8405 4.58938C47.8405 5.08938 47.4305 5.62937 46.5905 5.62937H46.5405C43.9505 5.55937 42.0105 5.55937 40.8305 5.55937C40.2105 5.55937 40.0605 5.79937 39.9005 5.98937C39.3705 6.83937 38.8005 7.58938 38.2205 8.16937C37.9605 8.43937 37.6705 8.52938 37.3805 8.52938C36.8005 8.52938 36.2805 8.06938 36.2805 7.53937C36.2805 7.29938 36.3805 7.05937 36.6405 6.81938C36.8605 6.62937 37.0505 6.40937 37.2605 6.16937C37.0905 6.28937 36.8505 6.38937 36.5905 6.38937H36.4905L33.8105 6.31938L33.8005 6.30937ZM43.5005 9.76938C43.4805 10.2794 43.4305 11.4894 43.3805 12.1394C44.4605 12.1394 45.6105 12.1194 46.9005 12.0894H46.9205C47.5705 12.0894 47.9005 12.5494 47.9005 13.0094C47.9005 13.4494 47.5905 13.8994 46.9205 13.8994H46.9005C45.7505 13.8794 44.7205 13.8494 43.7605 13.8494C44.4805 15.6594 46.1305 17.2294 48.3405 17.7894C49.0105 17.9594 49.3205 18.4394 49.3205 18.9294C49.3205 19.5294 48.8405 20.1394 48.0305 20.1394C47.8605 20.1394 47.6905 20.1194 47.5305 20.0694C45.6105 19.5594 43.6005 17.7494 42.5205 15.6494C41.6305 17.6594 39.9305 19.4394 37.1005 20.2194C36.9305 20.2694 36.7605 20.2894 36.6205 20.2894C35.8505 20.2894 35.4005 19.6894 35.4005 19.1294C35.4005 18.6894 35.6905 18.2594 36.3405 18.1394C39.1005 17.6294 40.5605 15.7994 41.1105 13.8594C40.1505 13.8794 39.1905 13.9094 38.1405 13.9094H38.1205C37.4705 13.9094 37.1605 13.4694 37.1605 13.0394C37.1605 12.5794 37.5005 12.0994 38.1205 12.0994H38.1405C39.2905 12.1494 40.3205 12.1694 41.3505 12.1694C41.3705 11.6094 41.4005 10.3294 41.4005 9.77938C41.1105 9.77938 40.8205 9.77938 40.5105 9.79938C40.1505 10.3994 39.7205 11.0094 39.2605 11.4394C39.0205 11.6594 38.7605 11.7494 38.4905 11.7494C37.9405 11.7494 37.4605 11.3394 37.4605 10.8594C37.4605 10.6394 37.5605 10.4194 37.8005 10.2094C38.8805 9.23938 39.6005 7.64937 39.9305 6.43937C40.0505 6.02938 40.4105 5.85938 40.7905 5.85938C41.3205 5.85938 41.8405 6.16937 41.8405 6.72937C41.8405 6.82937 41.8205 6.91937 41.7905 7.03937C41.6905 7.32937 41.5505 7.66937 41.4105 8.02937H42.3005C43.1405 8.02937 44.0705 8.00938 45.8005 7.97937H45.8205C46.4405 7.97937 46.7505 8.43937 46.7505 8.89937C46.7505 9.35938 46.4605 9.81938 45.8405 9.81938H45.7905L43.4905 9.76938H43.5005Z" fill="#2F564A"/>
<path d="M61.2614 13.2497C62.2014 12.1897 63.1514 10.8797 63.8014 9.78969C64.1814 9.18969 64.2614 8.69969 64.2814 8.06969C64.3014 7.29969 64.9014 6.90969 65.4814 6.90969C66.0614 6.90969 66.6514 7.31969 66.6514 8.16969V8.23969C66.6014 9.08969 66.4114 9.87969 65.7914 10.7497C65.0014 11.8897 63.2214 13.9597 61.8814 15.8297C61.2814 16.6497 60.6814 17.0397 60.1114 17.0397C59.5414 17.0397 58.9314 16.6797 58.3614 15.9797C57.5714 15.0097 57.1914 13.7797 57.1914 12.4997C57.1914 10.8597 57.8414 9.11969 59.1614 7.70969C60.9114 5.81969 63.3114 4.92969 65.6314 4.92969C68.3614 4.92969 71.0014 6.15969 72.3214 8.45969C72.9214 9.47969 73.1814 10.5597 73.1814 11.6297C73.1814 15.1097 70.1414 18.3997 64.6014 18.7097H64.4814C63.6214 18.7097 63.1114 18.1997 63.1114 17.6697C63.1114 17.2097 63.5214 16.7297 64.4514 16.6297C68.9114 16.2397 70.8014 13.7797 70.8014 11.4297C70.8014 10.6997 70.6114 9.95969 70.2514 9.32969C69.2914 7.68969 67.4714 6.76969 65.5314 6.76969C63.8514 6.76969 62.1014 7.44969 60.7614 8.91969C59.9214 9.85969 59.3714 11.1697 59.3714 12.3497C59.3714 12.9297 59.4914 13.4397 59.7514 13.8997C59.8514 14.0897 59.9714 14.1897 60.1114 14.1897C60.3014 14.1897 60.5414 14.0197 60.8814 13.6797L61.2614 13.2397V13.2497Z" fill="#2F564A"/>
<path d="M93.0527 6.23977V8.43976C95.5727 8.43976 98.0827 8.38977 100.123 8.33977H100.173C100.963 8.33977 101.353 8.86977 101.353 9.39977C101.353 9.92976 100.973 10.4598 100.173 10.4598H100.123C97.7527 10.3898 95.5227 10.3098 93.3627 10.2898C95.0627 12.7998 97.7027 14.9598 101.683 16.5498C102.263 16.7898 102.523 17.2498 102.523 17.7098C102.523 18.3598 101.993 19.0398 101.203 19.0398C100.983 19.0398 100.743 18.9898 100.483 18.8698C97.3627 17.3998 94.8227 15.1698 93.0727 12.8798C93.0927 14.8598 93.1427 16.9598 93.2127 19.3298V19.3798C93.2127 20.1098 92.6327 20.4898 92.0327 20.4898C91.4327 20.4898 90.8827 20.0998 90.8827 19.3798V19.3298C90.9327 16.9598 90.9827 14.8798 91.0027 12.9198C89.2027 15.2598 86.8527 17.5898 83.7127 19.1298C83.4727 19.2498 83.2327 19.2998 83.0127 19.2998C82.2727 19.2998 81.7627 18.6498 81.7627 18.0198C81.7627 17.5798 81.9827 17.1698 82.5327 16.9298C85.8627 15.4998 88.6227 13.0398 90.6827 10.2798C88.5527 10.2798 86.4427 10.3298 84.2627 10.4498H84.1427C83.3727 10.4498 82.9927 9.96976 82.9927 9.43976C82.9927 8.90977 83.4227 8.32977 84.2127 8.32977H84.2627C86.0627 8.37977 88.4827 8.39977 91.0427 8.42977C91.0427 7.70977 91.0227 6.97977 91.0227 6.22977C89.3927 6.22977 87.8327 6.24977 86.3527 6.29977H86.3027C85.5827 6.29977 85.2227 5.78977 85.2227 5.25977C85.2227 4.72977 85.6027 4.16977 86.3527 4.19977C87.8627 4.24977 89.3927 4.26977 90.9827 4.26977L90.8827 1.43977V1.36977C90.8827 0.619766 91.4527 0.259766 92.0327 0.259766C92.6127 0.259766 93.2127 0.619766 93.2127 1.36977V1.43977C93.1627 2.42977 93.1127 3.36977 93.0927 4.26977C94.4827 4.26977 95.9227 4.24977 97.4027 4.19977H97.4527C98.1927 4.19977 98.5527 4.72976 98.5527 5.23977C98.5527 5.74977 98.1927 6.29977 97.4527 6.29977H97.4027L93.0427 6.22977L93.0527 6.23977Z" fill="#2F564A"/>
<path d="M121.354 5.5307C121.304 6.8607 121.284 8.1707 121.284 9.4507H121.454C121.674 9.4507 121.934 9.4507 122.194 9.0907C122.694 8.3407 123.204 7.4507 123.584 6.5307C123.774 6.0707 124.134 5.9007 124.524 5.9007C125.124 5.9007 125.744 6.3407 125.744 6.9407C125.744 7.0807 125.724 7.2307 125.624 7.4007C125.214 8.1307 124.734 8.8307 124.214 9.4307C125.484 9.4107 126.854 9.3607 128.404 9.2807H128.454C129.244 9.2807 129.654 9.8107 129.654 10.3407C129.654 10.8707 129.244 11.4007 128.454 11.4007H128.404C125.764 11.3307 123.754 11.2807 121.864 11.2607C123.804 13.6807 126.634 15.8307 130.594 17.1807C131.294 17.4207 131.604 17.9007 131.604 18.3907C131.604 19.0407 131.024 19.6707 130.194 19.6707C129.974 19.6707 129.714 19.6507 129.454 19.5207C126.094 18.1707 123.394 15.9907 121.324 13.4507C121.374 15.2607 121.424 17.1207 121.544 19.2507V19.3207C121.544 20.0707 120.964 20.4307 120.394 20.4307C119.824 20.4307 119.264 20.0707 119.264 19.3207V19.2507C119.364 17.1007 119.434 15.1907 119.454 13.4007C117.344 15.9407 114.634 18.1607 111.594 19.5407C111.284 19.6907 110.994 19.7307 110.754 19.7307C109.984 19.7307 109.484 19.1707 109.484 18.5707C109.484 18.0907 109.794 17.5807 110.544 17.2907C113.424 16.1807 116.414 14.1507 118.794 11.2507C116.904 11.2707 114.884 11.3207 112.294 11.3907H112.244C111.474 11.3907 111.094 10.8807 111.094 10.3807C111.094 9.8207 111.504 9.2707 112.244 9.2707H112.294C113.904 9.3407 115.294 9.3907 116.604 9.4207C116.554 9.3507 116.504 9.2707 116.484 9.2007C116.074 8.3307 115.504 7.7707 115.094 7.4607C114.854 7.2707 114.754 7.0507 114.754 6.8307C114.754 6.3707 115.214 5.9407 115.784 5.9407C115.974 5.9407 116.194 5.9907 116.404 6.1107C116.974 6.4207 117.934 7.2507 118.414 8.1907C118.514 8.3807 118.554 8.5507 118.554 8.7207C118.554 9.0107 118.414 9.2507 118.214 9.4507H119.484C119.464 8.1707 119.434 6.8607 119.384 5.5307C117.344 5.5307 115.424 5.5507 113.914 5.6007H113.864C113.074 5.6007 112.684 5.0707 112.684 4.5407C112.684 4.0107 113.094 3.4807 113.864 3.4807H113.914C115.474 3.5307 117.364 3.5507 119.334 3.5507L119.234 1.4007V1.3307C119.234 0.580703 119.814 0.220703 120.364 0.220703C120.914 0.220703 121.514 0.580703 121.514 1.3307V1.4007C121.464 2.1507 121.444 2.8507 121.414 3.5507C123.234 3.5507 125.034 3.5307 126.664 3.4807H126.714C127.484 3.4807 127.864 4.0107 127.864 4.5407C127.864 5.0707 127.484 5.6007 126.714 5.6007H126.664L121.344 5.5307H121.354Z" fill="#2F564A"/>
<path d="M146.505 13.8496C145.955 14.1896 145.495 14.5296 145.135 14.8396C144.585 15.3496 144.345 15.8296 144.345 16.2696C144.345 16.8696 144.775 17.3596 145.375 17.6496C145.785 17.8696 146.235 17.9596 146.715 17.9596C147.335 17.9596 148.005 17.7896 148.755 17.4296C149.015 17.2796 149.285 17.2396 149.495 17.2396C150.145 17.2396 150.595 17.7196 150.595 18.2796C150.595 18.7196 150.335 19.1696 149.685 19.4596C148.865 19.8196 147.935 19.9896 147.045 19.9896C146.105 19.9896 145.195 19.7996 144.475 19.4096C143.105 18.6796 142.345 17.6496 142.345 16.4596C142.345 15.4896 142.875 14.4296 144.025 13.4096C144.695 12.8096 145.605 12.2296 146.595 11.6696C146.595 11.3596 146.575 11.0896 146.545 10.8996C146.425 10.1996 145.995 9.92961 145.465 9.92961C145.155 9.92961 144.765 10.0496 144.435 10.1996C143.785 10.4896 143.065 11.1396 142.545 11.7696C142.255 12.1296 141.705 12.8596 141.465 13.0996C141.035 13.5796 140.555 13.7496 140.145 13.7496C139.525 13.7496 139.065 13.3396 139.065 12.8096C139.065 12.4496 139.285 12.0396 139.835 11.6496C141.155 10.7096 142.635 8.45961 143.525 6.76961C143.045 6.83961 142.665 6.86961 142.325 6.86961C141.655 6.86961 141.225 6.74961 140.885 6.59961C140.355 6.37961 140.095 5.94961 140.095 5.50961C140.095 5.02961 140.435 4.56961 141.055 4.56961C141.245 4.56961 141.485 4.61961 141.725 4.71961C142.015 4.86961 142.345 4.93961 142.825 4.93961C143.185 4.93961 143.645 4.88961 144.235 4.78961C144.475 4.08961 144.645 3.23961 144.645 2.97961V2.92961C144.645 2.00961 145.225 1.59961 145.795 1.59961C146.365 1.59961 146.895 1.98961 146.895 2.70961C146.895 2.77961 146.875 2.85961 146.875 2.92961C146.805 3.33961 146.735 3.74961 146.495 4.27961C146.855 4.15961 147.215 4.00961 147.525 3.86961C147.715 3.76961 147.905 3.71961 148.075 3.71961C148.655 3.71961 149.005 4.17961 149.005 4.68961C149.005 5.09961 148.715 5.57961 148.045 5.77961C147.395 5.96961 146.555 6.21961 145.675 6.42961C145.245 7.27961 144.695 8.26961 144.385 8.76961C144.365 8.81961 144.365 8.83961 144.365 8.86961H144.385C144.385 8.86961 144.405 8.86961 144.455 8.84961C144.915 8.57961 145.465 8.43961 146.015 8.43961C147.145 8.43961 148.225 9.01961 148.385 10.3296C148.385 10.4496 148.405 10.5996 148.435 10.7396C149.995 9.98961 151.595 9.35961 152.865 8.89961C153.275 8.74961 153.635 8.62961 153.945 8.48961C154.285 8.31961 154.615 8.26961 154.875 8.26961C155.615 8.26961 156.095 8.74961 156.095 9.30961C156.095 9.74961 155.785 10.2296 155.065 10.4896C154.585 10.6596 154.275 10.7296 153.765 10.8496C152.375 11.1896 150.295 11.9096 148.445 12.7796C148.445 13.7696 148.395 14.7596 148.345 15.4896C148.275 16.3396 147.675 16.7696 147.125 16.7696C146.625 16.7696 146.195 16.4296 146.195 15.7296C146.195 15.6296 146.195 15.5396 146.215 15.4196C146.265 15.1096 146.355 14.8196 146.405 14.4996L146.475 13.8496H146.505Z" fill="#2F564A"/>
<path d="M178.505 13.34C178.505 14.11 178.555 15.37 178.555 15.37V15.54C178.555 18.46 176.615 20.25 173.425 20.25H173.305C172.345 20.25 171.895 19.67 171.895 19.11C171.895 18.55 172.355 17.97 173.195 17.97H173.295C173.415 17.97 173.555 17.99 173.675 17.99C175.615 17.99 176.265 16.9 176.315 15.14C176.335 14.29 176.335 12.72 176.335 11.18H174.465C171.615 11.18 168.785 11.23 165.905 11.28H165.855C165.085 11.28 164.705 10.72 164.705 10.19C164.705 9.66 165.085 9.13 165.855 9.13H165.905C168.995 9.2 171.805 9.25 174.585 9.25H176.315L176.245 7.05V6.95C176.245 6.25 176.825 5.89 177.395 5.89C177.965 5.89 178.565 6.25 178.565 7V7.05C178.545 7.61 178.515 8.4 178.515 9.23C180.045 9.21 181.605 9.18 183.235 9.13H183.285C184.055 9.13 184.435 9.66 184.435 10.19C184.435 10.72 184.055 11.28 183.285 11.28H183.235C181.625 11.26 180.045 11.21 178.515 11.21V13.34H178.505ZM168.605 7.54C168.585 8.22 168.005 8.6 167.435 8.6C166.905 8.6 166.355 8.26 166.305 7.54V6.6C166.325 4.79 167.985 3.55 170.335 3.36C171.195 3.31 172.225 3.26 173.335 3.24V1.16C173.335 0.39 173.935 0 174.535 0C175.135 0 175.755 0.39 175.755 1.16V1.21C175.735 1.74 175.705 2.49 175.705 3.24C176.735 3.24 177.715 3.29 178.605 3.36C181.145 3.55 182.755 4.71 182.845 6.28C182.845 6.57 182.865 6.79 182.865 7.13C182.865 8.02 182.245 8.44 181.615 8.44C181.065 8.44 180.515 8.08 180.515 7.33V7.18C180.515 7.03 180.535 6.7 180.535 6.55C180.465 5.9 179.835 5.34 178.375 5.22C177.295 5.15 175.905 5.12 174.515 5.12C173.125 5.12 171.735 5.14 170.655 5.22C169.165 5.34 168.595 6.09 168.595 6.77V7.54H168.605ZM172.175 15.9C171.505 15.15 170.615 14.45 169.655 14.09C169.155 13.92 168.935 13.56 168.935 13.2C168.935 12.69 169.365 12.21 170.035 12.21C170.175 12.21 170.345 12.23 170.515 12.28C171.645 12.62 173.085 13.39 173.895 14.29C174.185 14.6 174.275 14.92 174.275 15.21C174.275 15.86 173.775 16.39 173.145 16.39C172.805 16.39 172.475 16.24 172.165 15.91L172.175 15.9Z" fill="#2F564A"/>
<path d="M202.635 17.1104C203.855 16.4604 204.555 15.2004 204.555 14.0204C204.555 13.1004 204.175 12.2304 203.285 11.7004C202.735 11.3604 202.065 11.1904 201.295 11.1904C200.075 11.1904 198.685 11.6504 197.465 12.7104C196.965 13.1504 196.195 13.9704 195.495 14.8104C195.065 15.2904 194.605 15.5104 194.225 15.5104C193.555 15.5104 193.025 14.9804 193.025 14.3504C193.025 14.0404 193.165 13.7004 193.485 13.3804C194.255 12.6604 195.255 11.7404 195.885 11.2504C197.135 10.3604 199.865 7.07039 201.085 5.52039C201.135 5.45039 201.155 5.42039 201.155 5.40039C201.155 5.38039 201.135 5.38039 201.135 5.38039C201.085 5.38039 201.015 5.43039 200.965 5.45039C199.835 6.03039 198.715 6.32039 197.655 6.44039C197.585 6.44039 197.485 6.46039 197.415 6.46039C196.525 6.46039 196.095 5.83039 196.095 5.25039C196.095 4.72039 196.455 4.19039 197.195 4.19039H197.485C198.135 4.19039 199.135 4.07039 201.755 3.27039C202.045 3.17039 202.335 3.15039 202.575 3.15039C203.585 3.15039 204.155 3.85039 204.155 4.58039C204.155 4.94039 204.015 5.31039 203.745 5.60039C202.235 7.22039 201.345 8.16039 200.265 9.37039C200.195 9.42039 200.165 9.47039 200.165 9.49039C200.165 9.49039 200.185 9.51039 200.215 9.51039C200.245 9.51039 200.285 9.49039 200.335 9.49039C200.745 9.37039 201.245 9.32039 201.745 9.32039C202.535 9.32039 203.375 9.47039 204.075 9.80039C205.995 10.7904 206.875 12.3604 206.875 13.9804C206.875 15.8404 205.725 17.7504 203.545 18.8904C202.725 19.3304 201.535 19.6204 200.335 19.6204C199.375 19.6204 198.415 19.4304 197.655 19.0204C196.505 18.3704 196.005 17.4004 196.005 16.4604C196.005 15.1804 196.965 13.9904 198.475 13.9904C198.765 13.9904 199.055 14.0404 199.385 14.1404C200.725 14.5304 201.375 15.5204 201.425 16.4404V16.6604C201.425 17.0004 201.375 17.3404 201.255 17.6004C201.755 17.5004 202.265 17.3304 202.645 17.1204L202.635 17.1104ZM199.545 16.7504C199.545 16.3904 199.375 16.0204 198.965 15.8804C198.825 15.8304 198.705 15.8104 198.585 15.8104C198.125 15.8104 197.865 16.1204 197.865 16.5104C197.865 16.7804 198.005 17.1104 198.345 17.3604C198.515 17.4804 198.725 17.5804 198.945 17.6304C199.305 17.5804 199.545 17.1704 199.545 16.7604V16.7504Z" fill="#2F564A"/>
<path d="M220.997 8.88977C221.067 8.86977 221.167 8.83977 221.257 8.83977C221.347 8.83977 221.477 8.85977 221.597 8.90977C222.217 9.17977 222.817 9.65977 223.157 10.1198C223.297 10.3098 223.347 10.5098 223.347 10.6998C223.347 11.2298 222.887 11.7098 222.407 11.7098C222.167 11.7098 221.927 11.5898 221.737 11.2998C221.497 10.9398 221.257 10.6498 220.997 10.4098C220.997 13.3298 221.067 16.1598 221.167 19.2298V19.2798C221.167 20.0298 220.587 20.4198 220.037 20.4198C219.487 20.4198 218.937 20.0598 218.937 19.2798V19.2298C219.007 15.9198 219.107 13.3298 219.127 10.8398C218.357 11.9498 217.477 12.9198 216.447 13.7398C216.157 13.9598 215.867 14.0498 215.587 14.0498C214.987 14.0498 214.507 13.5698 214.507 12.9898C214.507 12.6298 214.697 12.2398 215.177 11.9498C216.327 11.2198 217.747 9.84977 218.747 8.17977C218.967 7.81977 219.087 7.52977 219.127 7.25977V7.06977C218.457 7.06977 217.787 7.06977 217.207 7.08977H217.157C216.347 7.08977 215.957 6.60977 215.957 6.09977C215.957 5.58977 216.367 5.08977 217.127 5.08977H217.177C217.727 5.10977 218.397 5.13977 219.097 5.13977C219.077 3.97977 219.027 2.79977 218.977 1.46977V1.39977C218.977 0.649766 219.527 0.259766 220.077 0.259766C220.627 0.259766 221.157 0.649766 221.157 1.39977V1.46977C221.107 2.74977 221.057 3.95977 221.037 5.11977C221.347 5.11977 221.657 5.11977 221.977 5.09977H222.027C222.647 5.09977 222.987 5.48977 223.077 5.89977C224.487 4.85977 225.667 3.16977 226.817 1.88977C227.467 1.18977 228.207 0.869766 228.947 0.869766C229.687 0.869766 230.387 1.15977 231.007 1.71977C232.537 3.09977 234.457 4.92977 236.347 5.84977C236.777 6.06977 236.967 6.40977 236.967 6.73977C236.967 7.31977 236.467 7.89977 235.767 7.89977C235.547 7.89977 235.287 7.82977 235.047 7.67977C234.067 7.11977 232.957 6.15977 231.927 5.18977C231.997 5.30977 232.027 5.45977 232.027 5.57977C232.027 5.98977 231.767 6.37977 231.217 6.37977H231.147C230.527 6.35977 229.947 6.35977 229.417 6.35977C228.677 6.35977 227.977 6.35977 227.207 6.37977H227.157C226.577 6.37977 226.297 5.98977 226.297 5.60977C226.297 5.55977 226.317 5.48977 226.317 5.43977C225.497 6.40977 224.587 7.32977 223.537 7.99977C223.247 8.18977 222.987 8.26977 222.747 8.26977C222.147 8.26977 221.687 7.75977 221.687 7.27977C221.687 7.20977 221.707 7.15977 221.707 7.10977C221.467 7.08977 221.207 7.08977 220.967 7.08977V8.89977L220.997 8.88977ZM232.267 12.4998C231.237 12.5498 230.207 12.5698 229.197 12.5698C228.187 12.5698 227.207 12.5498 226.317 12.4998C224.497 12.3998 223.637 11.6498 223.517 10.4498C223.497 10.2598 223.467 10.0398 223.467 9.84977C223.467 9.62977 223.487 9.40977 223.517 9.21977C223.657 8.03977 224.617 7.25977 226.317 7.18977C227.177 7.13977 228.257 7.11977 229.387 7.11977C230.347 7.11977 231.357 7.13977 232.267 7.18977C234.017 7.25977 234.977 8.05977 235.097 9.21977C235.117 9.43977 235.117 9.65977 235.117 9.86977C235.117 10.0798 235.117 10.3098 235.097 10.4498C234.977 11.5598 234.137 12.4098 232.267 12.4998ZM230.927 20.0398C230.377 20.0898 229.847 20.1098 229.277 20.1098C228.777 20.1098 228.267 20.0898 227.717 20.0398C226.187 19.8898 225.197 19.1198 225.057 17.7198C225.007 17.3598 225.007 16.9198 225.007 16.5398C225.007 16.1298 225.007 15.7698 225.057 15.4798C225.227 14.2198 226.157 13.2798 227.857 13.1798C228.217 13.1598 228.767 13.1598 229.297 13.1598C229.827 13.1598 230.327 13.1598 230.687 13.1798C232.507 13.2798 233.447 14.2198 233.567 15.4798C233.587 15.8398 233.587 16.1998 233.587 16.5698C233.587 16.9598 233.587 17.3398 233.567 17.7298C233.467 19.0598 232.507 19.9098 230.927 20.0498V20.0398ZM226.517 8.59977C225.677 8.64977 225.317 9.00977 225.247 9.46977C225.227 9.56977 225.227 9.70977 225.227 9.82977C225.227 9.97976 225.227 10.1198 225.247 10.2198C225.317 10.6998 225.707 11.0398 226.517 11.0898C227.117 11.1398 227.737 11.1598 228.387 11.1898V8.52977L226.517 8.59977ZM227.307 10.9698C227.067 10.9698 226.877 10.8498 226.757 10.6098C226.567 10.1498 226.347 9.97977 226.087 9.71977C225.967 9.59977 225.917 9.47976 225.917 9.35977C225.917 9.04976 226.257 8.75977 226.657 8.75977C226.797 8.75977 226.967 8.80976 227.117 8.90977C227.407 9.07977 227.817 9.53977 228.007 9.96977C228.057 10.0698 228.077 10.1598 228.077 10.2598C228.077 10.6698 227.667 10.9898 227.307 10.9898V10.9698ZM229.697 3.01977C229.507 2.82977 229.267 2.70977 229.027 2.70977C228.787 2.70977 228.547 2.82977 228.327 3.06977C227.827 3.62977 227.347 4.22977 226.837 4.85977C226.937 4.80977 227.077 4.78977 227.217 4.78977C227.887 4.80977 228.537 4.80977 229.187 4.80977C229.837 4.80977 230.477 4.80977 231.157 4.78977C231.327 4.78977 231.467 4.80977 231.587 4.85977C230.897 4.20977 230.247 3.54977 229.697 3.01977ZM231.667 15.6598C231.617 15.1298 231.237 14.7698 230.497 14.6698C230.237 14.6498 229.777 14.6198 229.297 14.6198C228.817 14.6198 228.317 14.6398 228.047 14.6698C227.327 14.7698 226.987 15.1498 226.947 15.6598C226.947 15.7098 226.927 15.7798 226.927 15.8298H231.677V15.6598H231.667ZM229.267 17.2298C228.477 17.2298 227.707 17.2498 226.917 17.2498C226.917 17.3498 226.917 17.4398 226.937 17.5398C227.007 18.0998 227.467 18.4298 228.117 18.5098C228.407 18.5598 228.837 18.5598 229.287 18.5598C229.717 18.5598 230.147 18.5598 230.487 18.5098C231.207 18.4398 231.617 18.0798 231.657 17.5398C231.657 17.4398 231.677 17.3498 231.677 17.2498C230.817 17.2498 230.027 17.2298 229.257 17.2298H229.267ZM230.037 11.1698C230.737 11.1698 231.427 11.1498 232.077 11.0998C232.867 11.0498 233.277 10.7398 233.347 10.2298C233.347 10.0798 233.367 9.93976 233.367 9.81977C233.367 9.66977 233.347 9.57977 233.347 9.47976C233.247 8.99977 232.917 8.65977 232.077 8.60977C231.457 8.55976 230.737 8.53977 230.037 8.53977V11.1698ZM231.117 11.0198C230.757 11.0198 230.397 10.7798 230.397 10.4598C230.397 10.3898 230.417 10.2898 230.467 10.2198C230.657 9.90977 230.967 9.44977 231.187 9.03977C231.327 8.79977 231.547 8.67977 231.787 8.67977C232.167 8.67977 232.557 8.96976 232.557 9.35977C232.557 9.45977 232.537 9.57977 232.457 9.69977C232.267 10.0098 231.907 10.4698 231.647 10.7898C231.507 10.9598 231.307 11.0298 231.117 11.0298V11.0198Z" fill="#2F564A"/>
<path d="M248.709 13.2497C249.649 12.1897 250.599 10.8797 251.249 9.78969C251.629 9.18969 251.709 8.69969 251.729 8.06969C251.749 7.29969 252.349 6.90969 252.929 6.90969C253.509 6.90969 254.099 7.31969 254.099 8.16969V8.23969C254.049 9.08969 253.859 9.87969 253.239 10.7497C252.449 11.8897 250.669 13.9597 249.329 15.8297C248.729 16.6497 248.129 17.0397 247.559 17.0397C246.989 17.0397 246.379 16.6797 245.809 15.9797C245.019 15.0097 244.639 13.7797 244.639 12.4997C244.639 10.8597 245.289 9.11969 246.609 7.70969C248.359 5.81969 250.759 4.92969 253.079 4.92969C255.809 4.92969 258.449 6.15969 259.769 8.45969C260.369 9.47969 260.629 10.5597 260.629 11.6297C260.629 15.1097 257.589 18.3997 252.049 18.7097H251.929C251.069 18.7097 250.559 18.1997 250.559 17.6697C250.559 17.2097 250.969 16.7297 251.899 16.6297C256.359 16.2397 258.249 13.7797 258.249 11.4297C258.249 10.6997 258.059 9.95969 257.699 9.32969C256.739 7.68969 254.919 6.76969 252.979 6.76969C251.299 6.76969 249.549 7.44969 248.209 8.91969C247.369 9.85969 246.819 11.1697 246.819 12.3497C246.819 12.9297 246.939 13.4397 247.199 13.8997C247.299 14.0897 247.419 14.1897 247.559 14.1897C247.749 14.1897 247.989 14.0197 248.329 13.6797L248.709 13.2397V13.2497Z" fill="#2F564A"/>
<path d="M281.119 7.95C280.809 7.97 280.499 8.1 280.349 8.22C279.869 8.66 279.199 9.16 278.479 9.67C280.569 10.52 281.759 12.84 281.759 15.13C281.759 17.42 280.509 19.75 277.659 20.4C277.469 20.45 277.299 20.47 277.129 20.47C276.289 20.47 275.809 19.89 275.809 19.33C275.809 18.87 276.149 18.41 276.859 18.29C278.799 18.02 279.739 16.4 279.739 14.74C279.739 14.59 279.739 14.47 279.719 14.33C277.919 16.12 275.169 18.37 271.399 19.55C271.209 19.6 271.039 19.65 270.899 19.65C270.229 19.65 269.819 19.17 269.819 18.66C269.819 18.22 270.109 17.77 270.779 17.6C274.279 16.71 277.539 14.29 279.119 12.48C279.019 12.33 278.929 12.19 278.809 12.04C277.399 13.2 274.899 14.89 272.549 15.62C272.409 15.67 272.289 15.67 272.169 15.67C271.549 15.67 271.189 15.19 271.189 14.73C271.189 14.34 271.409 13.98 271.909 13.84C274.089 13.28 276.199 12.03 277.449 11.01L277.209 10.91C277.109 10.89 277.019 10.86 276.919 10.86C276.779 10.86 276.659 10.88 276.559 10.93L276.249 11.08C275.479 11.52 274.719 11.88 274.039 12.1C273.849 12.17 273.679 12.2 273.539 12.2C272.889 12.2 272.559 11.74 272.559 11.26C272.559 10.9 272.779 10.54 273.259 10.41C274.749 10 276.539 9.01 277.959 7.97L275.079 8.02H275.029C274.409 8.02 274.089 7.56 274.089 7.1C274.089 6.62 274.399 6.16 275.049 6.16H275.069C276.699 6.21 278.089 6.23 279.479 6.23C280.869 6.23 282.279 6.21 283.959 6.16H283.979C284.649 6.16 284.989 6.62 284.989 7.1C284.989 7.58 284.679 8.02 284.009 8.02H283.959L281.109 7.97L281.119 7.95ZM283.079 4.57C282.029 4.52 280.629 4.5 279.249 4.5C278.029 4.5 276.829 4.52 275.919 4.57C274.339 4.67 273.469 5.34 273.399 6.09V6.91C273.399 7.54 272.849 7.88 272.299 7.88C271.749 7.88 271.219 7.57 271.199 6.84V5.92C271.219 3.87 273.479 2.85 275.749 2.73L278.319 2.66V1.04C278.319 0.34 278.899 0 279.489 0C280.079 0 280.669 0.34 280.669 1.01V1.03C280.649 1.73 280.649 2.19 280.649 2.65C281.629 2.65 282.569 2.67 283.309 2.72C286.349 2.91 288.009 4.48 288.029 5.96C288.029 6.18 288.049 6.3 288.049 6.4C288.049 6.52 288.029 6.62 288.029 6.79C287.959 7.47 287.379 7.8 286.829 7.8C286.279 7.8 285.749 7.49 285.749 6.83V6.1C285.729 5.47 284.939 4.63 283.089 4.55L283.079 4.57ZM288.689 19.53C288.499 19.53 288.259 19.51 288.019 19.43C285.119 18.58 281.879 15.49 281.879 12.78C281.879 11.86 282.219 11.02 283.049 10.29C283.579 9.85 283.839 9.61 284.489 9.15C284.729 8.98 284.989 8.88 285.229 8.88C285.849 8.88 286.379 9.41 286.379 9.99C286.379 10.3 286.209 10.67 285.779 10.93C285.229 11.27 284.799 11.53 284.459 11.8C284.079 12.11 283.909 12.5 283.909 12.91C283.909 14.55 286.449 16.78 288.969 17.29C289.669 17.44 289.999 17.92 289.999 18.38C289.999 18.96 289.539 19.52 288.679 19.52L288.689 19.53Z" fill="#2F564A"/>
<path d="M3.71 40.0493C3.16 40.1693 2.63 40.2393 2.15 40.2393C1.91 40.2393 1.67 40.2193 1.43 40.1893C0.64 40.0693 0.28 39.5393 0.28 39.0293C0.28 38.5193 0.66 38.0093 1.38 38.0093C1.45 38.0093 1.52 38.0293 1.6 38.0293C1.89 38.0793 2.17 38.0793 2.46 38.0793C2.87 38.0793 3.28 38.0593 3.68 37.9593C3.66 37.0893 3.66 36.2893 3.66 35.6393C3.66 34.9893 3.66 34.4593 3.68 34.1693C3.7 33.3993 4.28 33.0293 4.83 33.0293C5.38 33.0293 5.98 33.4193 5.98 34.1693C5.98 34.2393 5.98 34.3193 5.96 34.4093C5.86 35.0593 5.79 36.0793 5.77 37.2393L7.5 36.4193C7.69 36.3193 7.86 36.2993 8.05 36.2993C8.65 36.2993 9.13 36.7793 9.13 37.3193C9.13 37.7293 8.84 38.1893 8.15 38.4793C7.26 38.8693 6.47 39.1793 5.73 39.4493C5.71 40.4393 5.71 41.4093 5.71 42.3693C6.53 42.0793 7.36 41.8593 8.2 41.7193C8.8 41.6193 9.35 41.5493 9.85 41.5493C12.85 41.5493 14.38 43.2693 14.38 45.0993C14.38 46.6193 13.3 48.2693 11.12 49.1093C10.42 49.3793 9.75 49.4993 9.18 49.4993C7.41 49.4993 6.26 48.3893 6.26 46.9593C6.26 46.5993 6.33 46.2293 6.48 45.8493C6.7 45.3193 7.13 45.0793 7.51 45.0793C7.99 45.0793 8.4 45.3893 8.4 45.9493C8.4 46.0493 8.4 46.1693 8.35 46.2893C8.3 46.4093 8.3 46.5293 8.3 46.6493C8.3 47.1793 8.71 47.5693 9.35 47.5693C9.66 47.5693 10.02 47.4693 10.43 47.2993C11.65 46.7693 12.2 45.9493 12.2 45.2193C12.2 44.2293 11.24 43.3793 9.52 43.3793C9.11 43.3793 8.68 43.4293 8.2 43.5293C7.38 43.6993 6.47 43.9393 5.73 44.2293C5.75 45.8693 5.78 47.1793 5.8 47.5193V47.6393C5.8 49.0393 4.55 49.7393 3.21 49.7393C2.71 49.7393 2.18 49.6393 1.7 49.4293C0.48 48.8993 0 48.0993 0 47.2093C0 46.8193 0.1 46.4093 0.29 45.9993C0.84 44.8193 2.26 43.7993 3.79 43.0493L3.72 40.0493H3.71ZM2.13 46.4593C2.03 46.6293 1.99 46.7993 1.99 46.9393C1.99 47.2993 2.25 47.5693 2.61 47.7093C2.73 47.7593 2.92 47.8093 3.11 47.8093C3.45 47.8093 3.78 47.6693 3.81 47.2293V44.9793C3.04 45.4193 2.42 45.9493 2.13 46.4493V46.4593ZM15.36 41.7193C14.52 40.6593 13.39 40.1993 12.32 40.1993C12.03 40.1993 11.77 40.2493 11.5 40.2993C11.36 40.3193 11.21 40.3493 11.09 40.3493C10.47 40.3493 10.16 39.9393 10.16 39.4993C10.16 39.0393 10.5 38.5293 11.19 38.4093C11.62 38.3393 12.08 38.2893 12.56 38.2893C14.02 38.2893 15.65 38.6993 16.71 39.7593C17.09 40.1493 17.24 40.5293 17.24 40.8993C17.24 41.5793 16.69 42.1093 16.11 42.1093C15.85 42.1093 15.58 41.9893 15.37 41.7193H15.36Z" fill="#2F564A"/>
<path d="M28.021 50.35C27.781 50.45 27.541 50.5 27.351 50.5C26.651 50.5 26.251 49.99 26.251 49.44C26.251 49.03 26.471 48.59 27.021 48.35C28.871 47.53 30.381 46.59 31.721 45.3C31.051 44.91 30.351 44.55 29.681 44.26C29.201 44.04 28.991 43.68 28.991 43.32C28.991 42.79 29.451 42.28 30.071 42.28C30.241 42.28 30.411 42.33 30.601 42.4C31.341 42.74 32.251 43.17 33.171 43.71C33.701 43.03 34.201 42.26 34.701 41.41C34.941 41.02 35.281 40.85 35.641 40.85C36.221 40.85 36.791 41.29 36.791 41.91C36.791 42.13 36.721 42.39 36.551 42.64C36.021 43.41 35.521 44.16 34.971 44.84C35.711 45.37 36.411 45.98 37.031 46.6C37.341 46.91 37.461 47.25 37.461 47.57C37.461 48.25 36.911 48.78 36.331 48.78C36.021 48.78 35.731 48.66 35.471 48.32C34.941 47.64 34.271 47.01 33.551 46.46C31.971 48.1 30.191 49.41 28.041 50.35H28.021ZM28.401 37.97C28.091 38.21 27.781 38.31 27.491 38.31C26.871 38.31 26.391 37.78 26.391 37.22C26.391 36.88 26.561 36.54 26.941 36.28C28.621 35.17 29.791 33.31 30.851 31.18C31.091 30.7 31.471 30.5 31.861 30.5C32.441 30.5 32.991 30.96 32.991 31.59C32.991 31.81 32.941 32.02 32.821 32.24C32.701 32.43 32.601 32.65 32.481 32.87H34.041C36.531 32.87 39.381 32.82 41.541 32.77H41.591C42.361 32.77 42.721 33.28 42.721 33.76C42.721 34.27 42.341 34.77 41.591 34.77H41.541C39.961 34.72 38.021 34.72 36.101 34.72C34.571 34.72 33.061 34.72 31.831 34.74C31.471 34.74 31.231 34.91 31.061 35.08C30.271 36.19 29.361 37.26 28.401 37.96V37.97ZM41.781 50.06C39.451 48.63 38.861 46.05 38.831 42.52C38.831 41.14 37.991 40.42 36.621 40.42H35.681C33.811 40.42 31.991 40.47 30.501 40.47C30.071 40.47 29.641 40.45 29.281 40.45C28.581 40.43 28.251 39.97 28.251 39.51C28.251 39.05 28.591 38.59 29.231 38.59H29.281C29.661 38.59 30.071 38.61 30.531 38.61C32.041 38.61 33.961 38.56 35.951 38.56H36.961C39.091 38.58 40.991 39.67 40.991 41.97V42.69C40.991 45.78 41.521 47.07 42.841 48.03C43.081 48.2 43.321 48.3 43.561 48.3C44.021 48.3 44.401 47.94 44.401 47.33C44.401 47.26 44.401 47.18 44.381 47.09C44.361 47.02 44.361 46.94 44.361 46.87C44.361 46.17 44.961 45.76 45.531 45.76C46.101 45.76 46.711 46.17 46.711 47.04V47.11C46.711 49.5 45.181 50.57 43.591 50.57C42.971 50.57 42.321 50.4 41.791 50.06H41.781ZM39.071 37.54H39.021C37.801 37.52 36.601 37.49 35.471 37.49C34.081 37.49 32.811 37.51 31.711 37.54H31.661C31.011 37.54 30.681 37.1 30.681 36.65C30.681 36.21 31.021 35.76 31.691 35.76H31.711C32.601 35.81 33.841 35.81 35.161 35.81C36.481 35.81 37.871 35.81 39.021 35.76H39.041C39.741 35.76 40.101 36.22 40.101 36.65C40.101 37.11 39.761 37.54 39.071 37.54Z" fill="#2F564A"/>
<path d="M66.5919 45.3705C65.7819 45.3905 64.9419 45.3905 64.0019 45.3905C63.6419 45.3905 63.3819 45.2905 63.2119 45.1205C63.1619 45.5605 62.8519 45.9705 62.2319 45.9705H62.1819L59.5719 45.9205C59.5919 47.0805 59.6419 48.2905 59.6919 49.5505V49.6005C59.6919 50.3005 59.1419 50.6605 58.6119 50.6605C58.0819 50.6605 57.5519 50.3005 57.5519 49.6005V49.5505C57.6019 48.2705 57.6519 47.0605 57.6719 45.9205C56.5019 45.9205 55.3019 45.9405 54.1519 45.9705H54.1319C53.5119 45.9705 53.1719 45.4905 53.1719 45.0305C53.1719 44.5705 53.4819 44.1105 54.1319 44.1105H54.1519C55.2519 44.1605 56.4819 44.1605 57.7219 44.1605C57.7219 43.8505 57.7419 43.5305 57.7419 43.2405L57.2619 43.1905C55.7319 43.0405 54.8419 42.2705 54.7219 41.0405C54.6719 40.6305 54.6519 40.1205 54.6519 39.6405C54.6519 39.1305 54.6719 38.6505 54.7219 38.2105C54.8919 36.9005 55.9019 36.0805 57.3119 35.9605C57.4319 35.9605 57.5519 35.9405 57.6919 35.9405C57.6919 35.6505 57.6719 35.3605 57.6719 35.0505L54.8419 35.1005H54.8219C54.2019 35.1005 53.8819 34.6405 53.8819 34.1805C53.8819 33.7205 54.1919 33.2905 54.8219 33.2905H54.8419C55.7819 33.3105 56.6919 33.3405 57.6219 33.3405L57.5519 31.5505V31.5005C57.5519 30.8205 58.0819 30.4805 58.6119 30.4805C59.1419 30.4805 59.6919 30.8205 59.6919 31.5005V31.5505L59.6219 33.3405C60.4819 33.3405 61.3219 33.3205 62.1419 33.2905H62.1619C62.7819 33.2905 63.1019 33.7205 63.1019 34.1805C63.1019 34.6405 62.7919 35.1005 62.1619 35.1005H62.1419L59.5719 35.0505C59.5519 35.3605 59.5519 35.6805 59.5519 35.9705C59.6519 35.9905 59.7419 35.9905 59.8419 35.9905C61.4519 36.1105 62.3819 36.9105 62.5019 38.3105C62.5219 38.7505 62.5519 39.3005 62.5519 39.8305L62.7919 39.7605C63.9619 39.4905 65.1919 39.0405 66.2419 38.4105C65.2319 37.5605 64.4719 36.5505 64.1119 35.4605C64.0119 35.1705 63.9719 34.8805 63.9719 34.5705C63.9719 33.3405 64.7819 32.1805 66.4619 32.0605C66.7719 32.0405 67.2319 32.0405 67.6619 32.0405C68.1219 32.0405 68.5719 32.0405 68.8819 32.0605C70.6819 32.2105 71.6419 33.1505 71.6419 34.3805C71.6419 34.6505 71.6219 34.9105 71.5219 35.2005C71.1819 36.2605 70.5119 37.3005 69.5819 38.2205C70.9919 38.9205 72.6019 39.3805 73.9919 39.5705C74.6119 39.6405 74.9319 40.1305 74.9319 40.6105C74.9319 41.1405 74.5219 41.7205 73.7119 41.7205C73.6119 41.7205 73.5219 41.7205 73.4019 41.7005C71.7519 41.4305 69.6819 40.7105 67.9119 39.6205C66.5719 40.5605 64.9919 41.3105 63.3819 41.7005C63.2419 41.7505 63.0919 41.7505 62.9719 41.7505C62.7119 41.7505 62.5119 41.7005 62.3519 41.5805C62.0119 42.4005 61.2219 43.1005 59.9819 43.2005L59.5519 43.2505V44.1705C60.4819 44.1705 61.4019 44.1505 62.2119 44.1205C62.5519 44.1205 62.8119 44.2205 62.9819 44.3905C63.0319 43.9305 63.3619 43.5005 63.9919 43.5005H64.0419C64.9819 43.5505 65.8119 43.5705 66.6119 43.5705C66.5919 42.9905 66.5619 42.3905 66.5619 41.7805V41.7305C66.5619 41.0005 67.0919 40.6705 67.6419 40.6705C68.1919 40.6705 68.7219 41.0305 68.7219 41.7305V41.7805C68.7019 42.3805 68.6719 42.9905 68.6719 43.5705C69.5319 43.5705 70.4419 43.5505 71.5019 43.5005H71.5519C72.2019 43.5005 72.5119 43.9805 72.5119 44.4405C72.5119 44.9205 72.2019 45.4105 71.5519 45.4105H71.5019C70.4419 45.3905 69.5319 45.3605 68.6219 45.3605V47.7105C70.1319 47.7105 71.6619 47.6905 73.2519 47.6105H73.3019C74.0019 47.6105 74.3319 48.1205 74.3319 48.6005C74.3319 49.1105 73.9919 49.6205 73.3019 49.6205H73.2519C71.9319 49.5705 70.6619 49.5505 69.3919 49.5505C66.8519 49.5505 64.4319 49.6205 62.1019 49.6205C61.3619 49.6205 61.0219 49.1405 61.0219 48.6305C61.0219 48.1205 61.3819 47.6105 62.0519 47.6105H62.1019C63.6119 47.6605 65.1019 47.7105 66.6319 47.7105V45.3905L66.5919 45.3705ZM57.7919 40.2205H56.3819L56.4519 40.8205C56.5519 41.3305 56.8619 41.6205 57.5019 41.6705L57.7919 41.7205V40.2205ZM57.7919 38.7905C57.7919 38.3505 57.7719 37.9005 57.7719 37.4405C57.7019 37.4605 57.6019 37.4605 57.5319 37.4605C56.9519 37.5105 56.5019 37.8205 56.4319 38.5005C56.4119 38.6005 56.4119 38.6905 56.4119 38.7905H57.8019H57.7919ZM60.8119 38.7905C60.7919 38.6905 60.7919 38.6005 60.7919 38.5005C60.7419 37.8505 60.4319 37.5305 59.7319 37.4405C59.6319 37.4405 59.5619 37.4405 59.4719 37.4205C59.4519 37.8805 59.4519 38.3405 59.4519 38.8005H60.8219L60.8119 38.7905ZM59.7819 41.6705C60.5019 41.5705 60.7619 41.1405 60.7919 40.7005C60.7919 40.5305 60.8119 40.3905 60.8119 40.2205H59.4419V41.7205L59.7819 41.6705ZM69.2919 35.0205C69.3119 34.9205 69.3419 34.8005 69.3419 34.7105C69.3419 34.2505 68.9819 33.8605 68.4519 33.8205C68.2619 33.8005 67.9919 33.8005 67.7119 33.8005C67.4319 33.8005 67.1319 33.8005 66.9719 33.8205C66.3719 33.8705 66.0819 34.3005 66.0819 34.7605C66.0819 34.8605 66.1019 34.9805 66.1319 35.0705C66.3719 35.8705 67.0219 36.5905 67.8619 37.2205C68.5319 36.5705 69.0619 35.8205 69.3019 35.0205H69.2919Z" fill="#2F564A"/>
<path d="M84.7128 48.9705C84.3528 48.9705 83.9928 48.8005 83.7028 48.3405C83.1028 47.4005 82.8428 46.0205 82.8428 44.3305C82.8428 41.7905 83.4228 38.5005 84.0928 34.9005C84.2128 34.2705 84.7128 33.9805 85.1928 33.9805C85.7228 33.9805 86.2528 34.3205 86.2528 34.9505C86.2528 35.0205 86.2528 35.1005 86.2328 35.1705C85.7528 37.6405 84.8628 41.0005 84.8628 43.4405C84.8628 43.6305 84.8628 43.8305 84.8828 44.0205C84.8828 44.1205 84.9028 44.1405 84.9328 44.1405C84.9628 44.1405 84.9828 44.1205 85.0328 44.0405C85.1528 43.8705 85.3928 43.3405 85.5328 43.0705C85.7228 42.7305 86.0128 42.6105 86.2728 42.6105C86.7028 42.6105 87.1128 42.9205 87.1128 43.3605C87.1128 43.4805 87.0928 43.5805 87.0428 43.7005C86.4928 44.7905 85.8428 46.1205 85.8428 47.3505C85.8428 47.4705 85.8428 47.5905 85.8628 47.7105V47.8305C85.8628 48.4305 85.3128 48.9705 84.7128 48.9705ZM93.7428 48.0705C91.7728 48.0705 89.8828 47.4905 88.7328 46.4705C88.3928 46.1805 88.2728 45.8705 88.2728 45.5805C88.2728 45.0205 88.7328 44.5705 89.3228 44.5705C89.5628 44.5705 89.8228 44.6405 90.0628 44.8105C91.1428 45.5605 92.2728 45.8505 93.4228 45.8505C94.4028 45.8505 95.4128 45.6605 96.3928 45.3205C96.5328 45.2705 96.6828 45.2505 96.8028 45.2505C97.4228 45.2505 97.8328 45.7605 97.8328 46.3105C97.8328 46.7905 97.5428 47.3005 96.8028 47.5705C95.8428 47.9105 94.7928 48.0805 93.7328 48.0805L93.7428 48.0705ZM95.4928 38.3805C94.7528 38.1105 93.8428 37.9905 92.9228 37.9905C92.0028 37.9905 91.1028 38.1105 90.2428 38.3505C90.1028 38.4005 89.9828 38.4005 89.8628 38.4005C89.2628 38.4005 88.9228 37.9605 88.9228 37.4805C88.9228 37.0905 89.1428 36.6805 89.5928 36.4605C90.2828 36.1205 91.8228 35.9805 93.2828 35.9805C94.4128 35.9805 95.5128 36.0805 96.1628 36.2705C96.7828 36.4605 97.0528 36.9005 97.0528 37.3305C97.0528 37.9105 96.6228 38.4405 95.9528 38.4405C95.8128 38.4405 95.6628 38.4205 95.4928 38.3705V38.3805Z" fill="#2F564A"/>
<path d="M114.163 48.9192C111.863 48.9192 109.613 48.2692 108.453 47.0792C108.093 46.7192 107.953 46.3292 107.953 45.9892C107.953 45.3592 108.453 44.8792 109.083 44.8792C109.373 44.8792 109.663 44.9792 109.973 45.1892C111.273 46.1092 112.633 46.4692 114.003 46.4692C115.183 46.4692 116.353 46.1992 117.503 45.7892C117.673 45.7192 117.843 45.6892 118.003 45.6892C118.673 45.6892 119.133 46.2192 119.133 46.8292C119.133 47.3392 118.823 47.8892 118.003 48.2292C116.853 48.6892 115.513 48.9092 114.173 48.9092L114.163 48.9192ZM115.993 38.4292H115.463C114.143 38.4292 111.463 38.3092 110.143 37.1192C109.783 36.8092 109.643 36.4392 109.643 36.1092C109.643 35.5092 110.143 34.9992 110.773 34.9992C110.993 34.9992 111.233 35.0492 111.443 35.2192C112.423 35.8992 113.653 36.0892 114.913 36.0892C115.323 36.0892 115.753 36.0692 116.183 36.0392H116.373C117.213 36.0392 117.663 36.5692 117.663 37.1492C117.663 37.7292 117.133 38.4092 115.983 38.4292H115.993ZM119.273 36.9292C118.983 36.9292 118.693 36.7792 118.533 36.3992C118.483 36.2992 118.433 36.0592 118.363 35.9192C118.123 35.4092 117.863 35.0492 117.573 34.8092C117.383 34.6392 117.283 34.4492 117.283 34.2292C117.283 33.8392 117.623 33.4792 118.073 33.4792C118.293 33.4792 118.503 33.5792 118.743 33.7692C119.273 34.2292 119.873 35.1192 120.083 35.6792C120.133 35.8292 120.153 35.9492 120.153 36.0692C120.153 36.5792 119.723 36.9392 119.263 36.9392L119.273 36.9292ZM120.903 35.5492C120.853 35.4492 120.803 35.2092 120.733 35.0692C120.473 34.5592 120.183 34.2192 119.893 33.9792C119.673 33.8092 119.583 33.6192 119.583 33.3992C119.583 33.0392 119.923 32.6992 120.373 32.6992C120.563 32.6992 120.783 32.7692 121.023 32.9392C121.573 33.3492 122.223 34.1992 122.413 34.7792C122.463 34.9292 122.483 35.0492 122.483 35.1692C122.483 35.6992 122.053 36.0592 121.623 36.0592C121.363 36.0592 121.073 35.9192 120.903 35.5492Z" fill="#2F564A"/>
<path d="M136.674 39.0593C136.794 38.9893 136.934 38.9593 137.104 38.9593C137.244 38.9593 137.394 38.9793 137.534 39.0593C138.304 39.4193 139.114 40.0693 139.524 40.6793C139.694 40.9493 139.764 41.1893 139.764 41.4093C139.764 42.0393 139.264 42.4693 138.704 42.4693C138.394 42.4693 138.054 42.3193 137.844 41.9093C137.624 41.5193 137.194 40.9893 136.664 40.5993C136.664 43.2293 136.734 45.9193 136.834 49.1093V49.1293C136.834 49.8793 136.234 50.2693 135.634 50.2693C135.034 50.2693 134.484 49.9093 134.484 49.1593V49.1093C134.554 46.2593 134.624 43.8393 134.654 41.5693C133.814 42.5893 132.854 43.5493 131.894 44.2493C131.534 44.5193 131.174 44.6393 130.864 44.6393C130.194 44.6393 129.664 44.1293 129.664 43.5793C129.664 43.2393 129.884 42.8993 130.334 42.6093C131.674 41.8093 132.924 40.6493 133.924 39.4193C134.474 38.7693 134.594 38.2393 134.624 37.7493V37.6293C133.814 37.6293 132.994 37.6293 132.224 37.6493H132.174C131.454 37.6493 131.094 37.1393 131.094 36.6293C131.094 36.1193 131.454 35.6193 132.174 35.6193H132.224C132.994 35.6393 133.784 35.6693 134.594 35.6693C134.574 34.4893 134.524 33.2793 134.474 31.9693V31.9193C134.474 31.1693 135.054 30.7793 135.624 30.7793C136.194 30.7793 136.824 31.1693 136.824 31.9193V31.9693C136.774 33.2793 136.724 34.4793 136.704 35.6693C137.374 35.6693 138.024 35.6493 138.674 35.6193H138.724C139.464 35.6193 139.824 36.1293 139.824 36.6293C139.824 37.1293 139.464 37.6493 138.724 37.6493H138.674C138.024 37.6493 137.334 37.6293 136.664 37.6293V39.0593H136.674ZM144.924 50.0593C144.634 50.0593 144.374 50.0593 144.134 50.0393C141.884 49.8693 140.634 48.7793 140.564 46.1993C140.544 45.0393 140.514 42.5493 140.514 40.2293C140.514 38.2993 140.534 36.4793 140.564 35.6093C140.664 33.4093 141.954 32.3193 144.134 32.1993C144.474 32.1793 144.784 32.1793 145.114 32.1793C145.424 32.1793 145.764 32.1793 146.094 32.1993C148.464 32.3393 149.594 33.6693 149.664 35.7793C149.684 36.7493 149.714 39.6493 149.714 42.2293C149.714 43.8293 149.714 45.2993 149.694 46.0993C149.624 48.6893 148.304 49.8993 145.984 50.0393C145.674 50.0593 145.284 50.0593 144.924 50.0593ZM147.484 35.9893C147.464 35.0493 146.934 34.2993 145.924 34.1993C145.664 34.1793 145.374 34.1793 145.114 34.1793C144.824 34.1793 144.564 34.1793 144.294 34.1993C143.284 34.2993 142.764 34.9493 142.714 35.9393C142.694 36.2993 142.664 36.8593 142.664 37.4593C143.504 37.4793 144.274 37.4793 145.034 37.4793C145.794 37.4793 146.614 37.4793 147.504 37.4593C147.504 36.8593 147.484 36.2993 147.484 35.9893ZM147.514 39.4393C146.624 39.4393 145.834 39.4193 145.044 39.4193C144.254 39.4193 143.514 39.4393 142.674 39.4393V42.1193C143.514 42.1393 144.284 42.1393 145.044 42.1393C145.804 42.1393 146.624 42.1393 147.514 42.1193V39.4393ZM145.064 44.0893C144.274 44.0893 143.504 44.1093 142.694 44.1093C142.694 44.8793 142.714 45.5393 142.714 45.9693C142.734 47.1793 143.214 47.8793 144.344 47.9993C144.584 48.0193 144.844 48.0493 145.114 48.0493C145.384 48.0493 145.644 48.0293 145.884 47.9993C146.984 47.8793 147.464 47.1093 147.494 45.8693C147.494 45.4593 147.514 44.8293 147.514 44.1093C146.624 44.1093 145.834 44.0893 145.064 44.0893Z" fill="#2F564A"/>
<path d="M159.545 36.1303C158.845 36.1303 158.515 35.6703 158.515 35.1903C158.515 34.6603 158.895 34.1303 159.565 34.1303H159.585C160.665 34.1803 161.695 34.2003 162.745 34.2003C164.065 34.2003 165.385 34.1503 166.705 34.1003H166.755C167.405 34.1003 167.715 34.6103 167.715 35.1103C167.715 35.6103 167.405 36.1303 166.755 36.1303H166.705C165.625 36.0803 164.545 36.0603 163.445 36.0603C162.175 36.0603 160.905 36.0803 159.585 36.1303H159.535H159.545ZM166.855 50.5403C166.735 50.5603 166.615 50.5903 166.495 50.5903C165.875 50.5903 165.465 50.0803 165.395 49.5803C165.015 49.8003 164.535 49.9403 163.955 49.9903C163.595 50.0103 163.335 50.0403 163.065 50.0403C162.795 50.0403 162.535 50.0203 162.205 49.9903C160.815 49.8903 159.835 48.9803 159.755 47.5203C159.735 47.0603 159.705 46.7903 159.705 46.5003C159.705 46.3103 159.725 46.1103 159.725 45.8203C159.825 44.2703 160.875 43.4003 162.265 43.3103C162.575 43.2903 162.815 43.2903 163.075 43.2903C163.335 43.2903 163.625 43.2903 164.015 43.3103C165.425 43.4103 166.485 44.2003 166.585 45.6803C166.585 46.0403 166.605 46.3103 166.605 46.5703C166.605 46.8603 166.585 47.1303 166.585 47.4603C166.565 47.8203 166.485 48.1603 166.365 48.4503C170.465 47.4803 171.395 44.2703 171.395 40.7403V40.4703C171.375 39.7403 171.945 39.3303 172.495 39.3303C172.975 39.3303 173.455 39.6703 173.455 40.4403C173.455 41.0903 173.405 41.7203 173.335 42.3303C173.355 42.8103 173.475 43.2703 173.645 43.7103C174.465 43.1803 175.535 42.3303 176.165 41.7303C176.385 41.5103 176.625 41.4203 176.835 41.4203C177.385 41.4203 177.865 41.9303 177.865 42.4803C177.865 42.7203 177.765 42.9603 177.525 43.1803C176.685 43.9503 175.315 44.8003 174.505 45.2603C175.585 46.6903 177.265 47.7503 178.895 48.0403C179.595 48.1603 179.905 48.6403 179.905 49.1303C179.905 49.7103 179.445 50.2903 178.635 50.2903C178.495 50.2903 178.325 50.2903 178.155 50.2403C175.735 49.6403 173.555 47.5103 172.565 45.4503C171.605 47.8403 169.805 49.7003 166.835 50.5303L166.855 50.5403ZM165.315 31.1103C165.935 31.1103 166.255 31.5903 166.255 32.0803C166.255 32.5703 165.965 33.0203 165.345 33.0203H165.295C164.385 33.0003 163.735 33.0003 163.115 33.0003C162.495 33.0003 161.915 33.0003 161.175 33.0203H161.125C160.475 33.0203 160.165 32.5803 160.165 32.1003C160.165 31.6203 160.505 31.1103 161.145 31.1103H161.165C161.985 31.1603 162.555 31.1603 163.155 31.1603C163.755 31.1603 164.375 31.1603 165.285 31.1103H165.305H165.315ZM165.295 39.1503C164.385 39.1303 163.735 39.1303 163.115 39.1303C162.495 39.1303 161.915 39.1303 161.175 39.1503H161.125C160.475 39.1503 160.165 38.6903 160.165 38.2303C160.165 37.7503 160.505 37.2403 161.125 37.2403H161.175C162.085 37.2603 162.685 37.2903 163.355 37.2903C163.885 37.2903 164.485 37.2703 165.295 37.2403H165.345C165.965 37.2403 166.255 37.7203 166.255 38.2103C166.255 38.7003 165.965 39.1503 165.345 39.1503H165.295ZM165.295 42.1303C164.485 42.1103 163.885 42.0803 163.305 42.0803C162.615 42.0803 162.015 42.1003 161.175 42.1303H161.125C160.475 42.1303 160.165 41.6703 160.165 41.2103C160.165 40.7303 160.505 40.2203 161.125 40.2203H161.175C162.085 40.2403 162.685 40.2703 163.355 40.2703C163.885 40.2703 164.485 40.2503 165.295 40.2203H165.345C165.965 40.2203 166.255 40.7003 166.255 41.1903C166.255 41.6803 165.965 42.1303 165.345 42.1303H165.295ZM164.695 47.3203C164.715 47.0803 164.715 46.8603 164.715 46.6403C164.715 46.4203 164.715 46.2003 164.695 45.9403C164.675 45.5303 164.385 45.0503 163.735 45.0003C163.545 44.9803 163.375 44.9503 163.155 44.9503C162.985 44.9503 162.795 44.9703 162.575 45.0003C162.045 45.0503 161.685 45.4403 161.645 45.9703C161.625 46.2403 161.595 46.4303 161.595 46.6503C161.595 46.8403 161.615 47.0603 161.645 47.3303C161.695 47.9103 162.125 48.1803 162.485 48.2503C162.705 48.3003 162.945 48.3003 163.155 48.3003C163.395 48.3003 163.635 48.3003 163.855 48.2503C164.335 48.1503 164.665 47.8103 164.695 47.3303V47.3203ZM168.075 41.1103C167.885 41.1803 167.715 41.2303 167.545 41.2303C166.925 41.2303 166.515 40.7503 166.515 40.2403C166.515 39.8503 166.755 39.4703 167.335 39.2503C170.735 38.0203 171.555 35.6203 171.555 32.4603C171.555 32.2203 171.535 31.9503 171.535 31.7103V31.6603C171.535 30.9803 172.065 30.5703 172.585 30.5703C173.105 30.5703 173.595 30.9303 173.595 31.7103C173.595 32.3603 173.595 32.9703 173.525 33.5503C173.525 33.6003 173.545 33.6503 173.545 33.6703C173.565 34.0603 173.645 34.4403 173.765 34.8103C174.555 34.2103 175.535 33.3103 176.095 32.6803C176.335 32.4103 176.595 32.3203 176.835 32.3203C177.385 32.3203 177.915 32.8303 177.915 33.4103C177.915 33.7003 177.795 33.9903 177.535 34.2603C176.725 35.0803 175.405 35.9003 174.565 36.3903C175.545 37.7403 177.055 38.7603 178.545 38.9803C179.195 39.0803 179.475 39.5403 179.475 40.0003C179.475 40.5603 179.065 41.1403 178.305 41.1403C178.185 41.1403 178.065 41.1203 177.925 41.0903C175.815 40.6103 173.755 38.6503 172.795 36.7203C171.975 38.6803 170.465 40.2003 168.095 41.1403L168.075 41.1103ZM168.845 45.0003C168.535 44.2803 168.105 43.7703 167.505 43.2103C167.315 43.0203 167.215 42.8203 167.215 42.6103C167.215 42.1303 167.715 41.6703 168.265 41.6703C168.455 41.6703 168.675 41.7203 168.865 41.8903C169.395 42.3303 170.205 43.1503 170.545 44.0903C170.595 44.2403 170.615 44.3803 170.615 44.5003C170.615 45.1303 170.115 45.5603 169.605 45.5603C169.295 45.5603 169.005 45.3903 168.835 45.0003H168.845ZM169.175 35.8003C168.985 35.2203 168.555 34.5703 167.975 33.9903C167.785 33.8003 167.715 33.5803 167.715 33.3903C167.715 32.9103 168.195 32.4503 168.725 32.4503C168.945 32.4503 169.155 32.5503 169.345 32.7203C169.965 33.3003 170.615 34.0303 170.925 34.9703C170.975 35.1203 170.995 35.2603 170.995 35.4103C170.995 36.0403 170.465 36.4703 169.985 36.4703C169.645 36.4703 169.315 36.2803 169.165 35.8203L169.175 35.8003Z" fill="#2F564A"/>
<path d="M191.737 38.5495C191.307 39.0595 191.067 39.5595 191.067 40.0995C191.067 40.5795 191.257 41.0895 191.717 41.6195C193.277 43.4595 194.877 45.9695 195.457 48.2695C195.507 48.4595 195.527 48.6595 195.527 48.8495C195.527 49.7695 194.907 50.3195 194.257 50.3195C193.707 50.3195 193.127 49.9095 192.937 48.9395C192.557 46.9095 191.167 44.5195 189.937 42.9495C189.167 41.9595 188.807 41.0895 188.807 40.2195C188.807 39.2795 189.237 38.3595 190.007 37.3395C190.797 36.3195 191.587 35.2895 192.067 34.5595C192.477 33.9795 192.717 33.5895 193.007 32.9595C193.267 32.4295 193.727 32.1895 194.177 32.1895C194.827 32.1895 195.467 32.6495 195.467 33.3695C195.467 33.6095 195.397 33.8495 195.227 34.1395C194.967 34.5495 194.847 34.7195 194.317 35.3995L191.727 38.5395L191.737 38.5495Z" fill="#2F564A"/>
<path d="M212.687 35.6002C212.907 35.5302 213.097 35.4502 213.267 35.3602C213.437 35.2902 213.577 35.2402 213.727 35.2402C214.257 35.2402 214.637 35.7202 214.637 36.2302C214.637 36.6402 214.397 37.1002 213.797 37.3402C213.297 37.5302 212.767 37.7302 212.187 37.9202C211.377 40.9702 209.767 46.1902 209.577 47.6602C209.457 48.5502 208.787 49.0102 208.207 49.0102C207.627 49.0102 207.177 48.6502 207.177 47.9202C207.177 47.7502 207.197 47.5302 207.277 47.3202C207.637 46.1102 209.247 40.9902 209.987 38.4002C209.697 38.5002 209.437 38.5902 209.197 38.6402C208.937 38.6902 208.697 38.7102 208.427 38.7102C208.207 38.7102 207.967 38.6902 207.707 38.6402C206.987 38.4902 206.677 37.9902 206.677 37.4802C206.677 36.9202 207.057 36.3902 207.687 36.3902C207.807 36.3902 207.907 36.4102 208.027 36.4402C208.247 36.5102 208.487 36.5402 208.727 36.5402C209.277 36.5402 209.897 36.3902 210.497 36.2002C210.567 35.8102 210.617 35.3802 210.667 34.9902C210.737 34.4102 210.767 33.8802 210.787 33.6102C210.857 32.9102 211.407 32.5702 211.937 32.5702C212.467 32.5702 213.037 32.9602 213.037 33.6802V33.7502C213.037 34.1402 212.937 34.6002 212.847 35.0602L212.707 35.5902L212.687 35.6002ZM217.937 49.1402C216.187 49.1402 214.577 48.7502 213.597 48.1002C213.097 47.7602 212.907 47.3502 212.907 46.9902C212.907 46.3902 213.387 45.9002 214.007 45.9002C214.227 45.9002 214.487 45.9702 214.727 46.1402C215.347 46.6202 216.377 46.8902 217.557 46.8902C218.467 46.8902 219.497 46.7202 220.507 46.3802C220.727 46.3102 220.937 46.2802 221.107 46.2802C221.847 46.2802 222.257 46.8102 222.257 47.3902C222.257 47.9202 221.917 48.4802 221.227 48.6702C220.147 48.9802 219.017 49.1302 217.947 49.1302L217.937 49.1402ZM215.607 37.1702C215.607 36.7602 215.917 36.3702 216.547 36.2302C216.837 36.1802 217.167 36.1302 217.507 36.1302C218.587 36.1302 219.927 36.4202 221.247 36.9502C221.867 37.2202 222.107 37.6502 222.107 38.0902C222.107 38.2602 222.057 38.4502 221.987 38.6002C221.817 38.9602 221.487 39.1802 221.027 39.1802C220.837 39.1802 220.617 39.1302 220.377 39.0302C218.967 38.3802 218.367 38.0902 217.187 38.0902C217.017 38.0902 216.827 38.0902 216.637 38.1102H216.537C215.957 38.1102 215.627 37.7002 215.597 37.2602V37.1602L215.607 37.1702ZM222.127 35.9602C221.837 35.9602 221.547 35.8102 221.387 35.4502C221.337 35.3302 221.287 35.0902 221.217 34.9402C220.977 34.4302 220.717 34.0702 220.427 33.8302C220.207 33.6602 220.137 33.4402 220.137 33.2502C220.137 32.8602 220.477 32.5002 220.927 32.5002C221.147 32.5002 221.357 32.6002 221.597 32.7902C222.097 33.2502 222.697 34.1402 222.937 34.7002C222.987 34.8502 223.007 34.9702 223.007 35.0902C223.007 35.6002 222.577 35.9602 222.117 35.9602H222.127ZM223.777 34.5902C223.727 34.4902 223.657 34.2502 223.587 34.1102C223.327 33.6002 223.057 33.2602 222.767 33.0202C222.547 32.8502 222.457 32.6602 222.457 32.4402C222.457 32.0802 222.797 31.7402 223.247 31.7402C223.437 31.7402 223.657 31.8102 223.897 31.9802C224.427 32.3902 225.067 33.2402 225.287 33.8202C225.337 33.9702 225.357 34.0902 225.357 34.2102C225.357 34.7402 224.927 35.1002 224.497 35.1002C224.237 35.1002 223.947 34.9502 223.777 34.5902Z" fill="#2F564A"/>
<path d="M240.868 42.9292C240.868 42.6392 241.008 42.3492 241.298 42.1792C241.398 42.1292 241.708 42.0292 241.828 41.9892C241.968 41.9692 242.018 41.9192 242.018 41.8392C242.018 41.7592 241.948 41.6692 241.848 41.5692C241.298 40.9192 240.788 39.9292 240.338 38.7892C238.898 39.0292 237.658 39.1292 236.628 39.1292C235.928 39.1292 235.358 39.0792 234.898 39.0292C234.038 38.9592 233.648 38.3992 233.648 37.8692C233.648 37.3392 234.028 36.8092 234.698 36.8092C234.768 36.8092 234.868 36.8092 234.938 36.8292C235.518 36.8992 236.228 36.9992 237.118 36.9992C237.858 36.9992 238.698 36.9292 239.658 36.7792C239.398 35.8592 239.178 34.9192 239.008 33.9992C238.988 33.8992 238.988 33.8092 238.988 33.7092C238.988 33.0292 239.518 32.6992 240.068 32.6992C240.618 32.6992 241.168 33.0392 241.268 33.7392C241.388 34.6092 241.528 35.4792 241.748 36.2992C242.488 36.1092 243.278 35.8392 244.148 35.4992C244.388 35.3992 244.578 35.3792 244.768 35.3792C245.438 35.3792 245.828 35.8892 245.828 36.4192C245.828 36.8792 245.568 37.3392 244.968 37.5592C244.078 37.8692 243.218 38.1392 242.398 38.3592C242.828 39.4492 243.358 40.3692 243.978 40.9692C244.458 41.4792 244.988 41.7392 245.508 41.9592C246.038 42.1792 246.278 42.5592 246.278 42.9492C246.278 43.5092 245.778 44.0592 244.978 44.0592C244.858 44.0592 244.738 44.0392 244.598 44.0092C243.638 43.8192 242.798 43.9592 241.818 43.8392C241.168 43.7892 240.858 43.3592 240.858 42.9192L240.868 42.9292ZM240.348 49.8092H240.278C238.268 49.7892 235.288 48.7992 234.498 46.3292C234.448 46.1592 234.428 45.9892 234.428 45.8492C234.428 45.1992 234.958 44.8092 235.528 44.8092C236.058 44.8092 236.658 45.1192 236.918 45.8292C237.448 47.2092 239.408 47.3792 240.608 47.3792C241.618 47.3792 242.138 47.9592 242.138 48.5392C242.138 49.1692 241.558 49.8192 240.338 49.8192L240.348 49.8092Z" fill="#2F564A"/>
<path d="M261.849 44.9302C262.089 45.1002 262.279 45.2002 262.469 45.2002C262.659 45.2002 262.849 45.0802 263.089 44.7902C263.499 44.3102 263.859 43.7502 263.999 43.5102C264.239 43.1502 264.549 43.0002 264.859 43.0002C265.359 43.0002 265.839 43.4102 265.839 43.9902C265.839 44.1802 265.789 44.3802 265.699 44.5702C265.409 45.1502 264.929 45.7802 264.739 46.7202C264.549 47.7102 263.799 48.1502 262.919 48.1502C262.439 48.1502 261.909 48.0002 261.429 47.7602C258.819 46.3802 257.329 42.5602 257.329 38.7002V38.5102C257.329 37.5902 257.879 37.1602 258.459 37.1602C259.039 37.1602 259.589 37.6202 259.609 38.4402C259.629 41.4402 260.329 44.0202 261.839 44.9402L261.849 44.9302ZM272.029 42.7802C271.809 41.5702 270.969 40.1902 269.749 39.7102C269.319 39.5402 269.129 39.2002 269.129 38.8602C269.129 38.3302 269.559 37.8002 270.279 37.8002C270.499 37.8002 270.759 37.8502 271.019 37.9702C272.699 38.7002 274.159 40.4102 274.349 42.0102C274.369 42.1102 274.369 42.2002 274.369 42.3002C274.369 43.2402 273.719 43.7502 273.099 43.7502C272.619 43.7502 272.139 43.4402 272.019 42.7802H272.029Z" fill="#2F564A"/>
<path d="M285.429 50.9802C284.019 50.8102 282.649 49.9202 282.649 48.0302C282.649 46.3902 283.939 44.9102 285.739 44.9102C287.659 44.9102 288.999 46.1902 288.999 48.0302C288.999 49.6702 287.229 51.2202 285.429 50.9802ZM285.789 46.3802C284.849 46.3802 284.209 47.1302 284.209 47.9802C284.209 48.9702 284.899 49.4302 285.619 49.5002C286.549 49.6202 287.469 48.8202 287.469 47.9802C287.469 47.0402 286.769 46.3802 285.789 46.3802Z" fill="#2F564A"/>
</svg>
