<svg width="170" height="67" viewBox="0 0 170 67" fill="none" xmlns="http://www.w3.org/2000/svg">
<path d="M20.6583 3.19048C20.6283 2.77041 20.6283 2.20033 20.5983 1.3202V1.26019C20.5983 0.420063 21.3482 0 22.0981 0C22.848 0 23.5979 0.420063 23.5979 1.26019V1.3202C23.5679 2.10031 23.5379 2.73041 23.5379 3.19048C25.1578 3.19048 26.7076 3.22048 27.8474 3.28049C31.167 3.46052 33.3868 4.81072 33.6568 7.19107C33.6568 7.34109 33.6867 7.46111 33.6867 7.58113C33.6867 7.73115 33.6568 7.88117 33.6568 8.0312C33.5968 9.02134 32.8468 9.53142 32.0969 9.53142C31.407 9.53142 30.7171 9.08135 30.7171 8.15121V7.3711C30.6271 6.41095 29.6672 5.57083 27.5475 5.44081C26.3176 5.3508 24.5878 5.32079 22.788 5.32079C20.5983 5.32079 18.3286 5.3808 16.8587 5.44081C14.909 5.53082 13.7191 6.49097 13.6291 7.3711V8.27123C13.6291 9.14136 12.9092 9.59143 12.1593 9.59143C11.4094 9.59143 10.6895 9.11136 10.6895 8.15121V7.22108C10.8094 5.14077 13.0892 3.3705 16.4088 3.28049L20.6583 3.19048ZM26.3176 24.6137C25.3877 24.6737 23.9779 24.7037 22.5481 24.7037C20.8683 24.7037 19.1385 24.6737 17.9386 24.6137C15.3889 24.4937 13.8391 23.4735 13.5991 21.6032C13.5391 21.2132 13.5391 20.7031 13.5391 20.193C13.5391 19.7129 13.5391 19.2029 13.5991 18.7828C13.8391 16.8525 15.5489 15.8624 17.9686 15.7423C18.8985 15.7123 20.2183 15.7123 21.6182 15.7123C23.358 15.7123 25.1777 15.7123 26.4076 15.7724C28.9573 15.9224 30.6271 16.8825 30.8371 18.8128C30.8671 19.1729 30.8971 19.6829 30.8971 20.223C30.8971 20.6431 30.8671 21.0931 30.8371 21.4532C30.5671 23.5635 28.8873 24.4636 26.3176 24.6137ZM28.2374 8.60128C25.7777 8.54127 24.0179 8.51127 22.2181 8.51127C20.4183 8.51127 18.5985 8.54127 16.0488 8.60128H16.0188C15.2089 8.60128 14.789 8.09121 14.789 7.55113C14.789 7.04105 15.2089 6.53097 16.0188 6.53097H16.0788C18.6585 6.59098 20.5083 6.62099 22.3081 6.62099C24.1079 6.62099 25.8677 6.59098 28.2374 6.53097H28.2974C29.0773 6.53097 29.4672 7.04105 29.4672 7.55113C29.4672 8.0612 29.0473 8.60128 28.2674 8.60128H28.2374ZM22.4581 9.54142C23.6279 9.54142 24.7978 9.57143 25.7177 9.63144C27.5175 9.72145 28.6173 10.5016 28.7673 11.5317C28.7973 11.7117 28.7973 11.9218 28.7973 12.1318C28.7973 12.2818 28.7973 12.4619 28.7673 12.6119C28.6173 13.752 27.6575 14.5722 25.7177 14.6622C24.6978 14.6922 23.438 14.7222 22.1881 14.7222C20.9382 14.7222 19.6384 14.6922 18.6885 14.6622C16.8287 14.5722 15.7289 13.9421 15.5489 12.7619C15.5189 12.5819 15.5189 12.3718 15.5189 12.1618C15.5189 11.8918 15.5189 11.6217 15.5789 11.4117C15.7889 10.6316 16.6288 9.70145 18.6885 9.64144C19.7384 9.58143 21.1182 9.55142 22.4581 9.55142V9.54142ZM18.1786 17.6326C16.8287 17.7226 16.1688 18.2927 16.0488 18.9528L15.9888 19.3129H20.8683C20.8683 18.6828 20.8683 18.1127 20.8383 17.5426L18.1786 17.6326ZM16.0488 21.3332C16.1988 22.2933 16.8887 22.6534 18.1486 22.7434C18.8085 22.8034 19.7984 22.8334 20.8383 22.8334C20.8683 22.2933 20.8683 21.6632 20.8683 20.9931C19.1585 20.9931 17.4887 20.9931 15.9888 21.0231L16.0488 21.3232V21.3332ZM22.1881 11.2817C21.1682 11.2817 20.1483 11.2817 19.4084 11.3117C18.9585 11.3417 18.2086 11.4917 18.2086 12.1218C18.2086 12.7519 18.8685 12.8719 19.4084 12.9019C20.2183 12.9619 21.2382 12.9619 22.2181 12.9619C23.198 12.9619 24.1979 12.9619 24.9678 12.9019C25.5977 12.8719 25.9877 12.6619 26.0776 12.3018C26.0776 12.2718 26.1076 12.1818 26.1076 12.1218C26.1076 12.0618 26.0776 12.0018 26.0776 11.9418C26.0176 11.6117 25.6577 11.3717 24.9678 11.3117C24.1879 11.2817 23.198 11.2817 22.1881 11.2817ZM23.238 17.5426V19.3129H28.4174C28.4174 19.1929 28.3874 19.1028 28.3874 18.9828C28.3274 18.2027 27.6075 17.7226 26.3476 17.6326L23.238 17.5426ZM23.238 22.8634C24.4378 22.8334 25.5777 22.8034 26.2876 22.7434C27.6075 22.6234 28.2974 22.0533 28.3874 21.2732C28.3874 21.2132 28.4174 21.1231 28.4174 21.0331C26.9775 21.0031 25.1278 21.0031 23.238 21.0031V22.8734V22.8634Z" fill="white"/>
<path d="M55.8736 21.1831C58.0934 21.1831 60.3031 21.1231 62.3729 21.0631H62.4328C63.4827 21.0631 63.9927 21.7532 63.9927 22.4433C63.9927 23.1334 63.4827 23.8235 62.4328 23.8235H62.3729C59.9431 23.7635 57.3734 23.7335 54.8537 23.7335C52.0141 23.7335 49.2244 23.7635 46.7347 23.8235H46.6747C45.5948 23.8235 45.1149 23.1634 45.1149 22.4733C45.1149 21.7832 45.6548 21.0631 46.6447 21.0631H46.7347C48.6845 21.1531 50.8042 21.1831 52.964 21.1831C52.994 19.983 53.0239 16.6425 53.0239 13.0619C50.1843 13.0619 47.3346 13.1219 44.375 13.182H44.285C43.2651 13.182 42.7852 12.5219 42.7852 11.8618C42.7852 11.1417 43.3251 10.3915 44.315 10.3915H44.375C47.4846 10.4816 50.2743 10.5416 52.994 10.5416C52.994 7.80115 52.964 5.13076 52.904 3.35049V3.26048C52.904 2.27033 53.6839 1.76025 54.4638 1.76025C55.2437 1.76025 56.0236 2.27033 56.0236 3.29048V3.35049C55.9336 5.34079 55.9036 7.92117 55.8736 10.5416C58.5933 10.5416 61.383 10.4816 64.5526 10.3915H64.6126C65.6325 10.3915 66.1124 11.0816 66.1124 11.7717C66.1124 12.4618 65.6025 13.182 64.6126 13.182H64.5526C61.5329 13.1219 58.6833 13.0619 55.8436 13.0619C55.8436 16.2224 55.8436 19.2329 55.8736 21.1831Z" fill="white"/>
<path d="M75.9611 13.5719C75.5412 13.962 75.1212 14.112 74.7313 14.112C73.8914 14.112 73.2314 13.4219 73.2314 12.6718C73.2314 12.3117 73.4114 11.9217 73.8014 11.5916C77.4509 8.73119 80.0006 4.70059 81.4105 1.48011C81.6805 0.880026 82.1904 0.609985 82.6703 0.609985C83.4202 0.609985 84.1402 1.18007 84.1402 1.99019C84.1402 2.26023 84.0802 2.53027 83.9302 2.80031C83.3003 3.94048 82.5803 5.27068 81.6805 6.62088C81.4105 7.22097 81.2605 8.00109 81.2605 8.7612C81.2005 12.1917 81.1405 16.6124 81.1405 20.943V23.7134C81.1405 24.7636 80.3606 25.3037 79.6107 25.3037C78.9208 25.3037 78.2309 24.8236 78.2309 23.8334V23.7134C78.4408 19.8328 78.5908 14.442 78.6508 10.7115C77.8109 11.7016 76.911 12.6718 75.9611 13.5719ZM85.63 16.2223H85.57C84.6101 16.2223 84.1602 15.6222 84.1602 15.0221C84.1602 14.392 84.6401 13.7319 85.57 13.7319H85.63C86.9198 13.7919 88.0897 13.822 89.2496 13.822L89.1896 9.49131L84.6701 9.58132H84.6101C83.6802 9.58132 83.2303 8.98123 83.2303 8.35114C83.2303 7.72104 83.7402 7.03094 84.6701 7.06095C87.1898 7.12095 89.0096 7.15096 90.9294 7.15096C92.6392 7.15096 94.429 7.12095 96.9487 7.06095H97.0086C97.9085 7.06095 98.3585 7.69104 98.3585 8.29113C98.3585 8.95123 97.8785 9.58132 97.0086 9.58132H96.9487C94.9089 9.52131 93.3291 9.49131 91.8893 9.49131C91.8893 10.8415 91.8593 12.3217 91.8593 13.822C93.0291 13.822 94.259 13.7919 95.6288 13.7319H95.6888C96.6187 13.7319 97.0686 14.362 97.0686 14.9921C97.0686 15.6222 96.6187 16.2223 95.6888 16.2223H95.6288C94.249 16.1623 93.0191 16.1323 91.8593 16.1323C91.8593 18.0326 91.8593 19.9529 91.8893 21.8531C94.079 21.8531 96.2887 21.7931 98.6585 21.7031H98.7185C99.6183 21.7031 100.068 22.3632 100.068 22.9933C100.068 23.6234 99.6183 24.3135 98.7185 24.3135H98.6585C95.8988 24.2235 93.4191 24.1635 90.8994 24.1635C88.3797 24.1635 85.93 24.2235 83.1703 24.3135H83.0803C82.0904 24.3135 81.6405 23.7134 81.6405 23.0833C81.6405 22.3932 82.1504 21.7031 83.1103 21.7031H83.1703C85.3 21.7931 87.2698 21.8531 89.1896 21.8531C89.2196 19.9529 89.2496 18.0326 89.2496 16.1323L85.63 16.2223ZM90.6894 5.54072C89.6695 4.43055 88.2897 3.70045 87.4298 3.3704C86.8298 3.16036 86.5599 2.7103 86.5599 2.26023C86.5599 1.63014 87.1298 0.970039 87.9997 0.970039C88.1197 0.970039 88.2697 1.00004 88.4197 1.03005C89.4695 1.24008 91.9193 2.47026 92.7891 3.4104C93.1491 3.77046 93.2991 4.19052 93.2991 4.55057C93.2991 5.36069 92.5792 6.0508 91.7993 6.0508C91.4093 6.0508 91.0194 5.90077 90.6894 5.54072Z" fill="white"/>
<path d="M108.747 1.99031C110.907 1.99031 112.666 3.13048 112.666 5.33081C112.666 5.78087 112.606 6.26095 112.426 6.80103C112.366 6.95105 112.366 7.10107 112.366 7.22109C112.366 7.55114 112.546 7.79117 112.906 7.91119C114.556 8.45127 115.666 9.2914 115.666 11.6718C115.666 12.0618 115.636 12.4819 115.576 12.9319C115.306 15.0723 114.676 16.9925 113.866 18.6228C116.266 21.2432 119.946 22.3533 123.715 22.3533C125.815 22.3533 127.965 22.0233 129.944 21.3932C130.124 21.3332 130.304 21.3032 130.484 21.3032C131.294 21.3032 131.804 21.9633 131.804 22.6534C131.804 23.2535 131.414 23.8836 130.454 24.1236C128.474 24.6337 126.415 24.9037 124.345 24.9037C119.916 24.9037 115.546 23.6435 112.606 20.7231C111.407 22.4634 110.027 23.7936 108.777 24.6337C108.357 24.9037 107.967 25.0237 107.607 25.0237C106.797 25.0237 106.287 24.3936 106.287 23.7335C106.287 23.2235 106.557 22.6834 107.277 22.3533C108.417 21.8433 109.827 20.5731 110.987 18.7428C110.297 17.6626 109.757 16.4225 109.397 15.0122C109.127 15.4323 108.827 15.8524 108.497 16.0924C108.137 16.3925 107.777 16.5125 107.447 16.5125C106.817 16.5125 106.337 16.0024 106.337 15.4323C106.337 15.0723 106.517 14.7122 106.967 14.4122C108.287 13.602 108.767 12.5119 108.767 11.8518C108.767 10.9816 109.427 10.5316 110.057 10.5316C110.687 10.5316 111.287 10.9516 111.287 11.8218C111.287 12.1518 111.227 12.3319 111.227 12.6019V13.052C111.436 14.2521 111.796 15.3123 112.276 16.2724C112.696 15.1923 113.026 14.0121 113.206 12.7219C113.236 12.5119 113.266 12.3018 113.266 12.1218C113.266 11.0417 112.756 10.3216 111.886 10.1315C110.777 9.92149 109.847 9.2914 109.847 8.02121C109.847 7.72116 109.907 7.42112 109.997 7.06107C110.117 6.641 110.207 6.22094 110.207 5.83088C110.207 5.05077 109.847 4.45068 108.677 4.45068C108.587 4.45068 108.467 4.48068 108.347 4.48068H108.167C107.267 4.48068 106.817 3.9106 106.817 3.31051C106.817 2.71042 107.267 2.08032 108.227 1.99031H108.737H108.747ZM123.445 20.4331V20.4931C123.445 21.3932 122.785 21.8433 122.095 21.8433C121.405 21.8433 120.775 21.3932 120.775 20.4931V20.4331C120.775 19.923 120.805 19.4729 120.805 18.9628L116.136 19.0529H116.076C115.236 19.0529 114.816 18.5428 114.816 18.0027C114.816 17.4626 115.266 16.8925 116.076 16.8925H116.136C117.516 16.9525 119.156 16.9525 120.865 16.9825C120.865 16.5025 120.895 16.0224 120.895 15.5423L117.246 15.6023H117.186C116.346 15.6023 115.986 15.0923 115.986 14.5822C115.986 14.0421 116.406 13.502 117.186 13.502H117.246L120.895 13.592C120.895 13.142 120.925 12.7219 120.925 12.2718C119.666 12.2718 118.436 12.2718 117.666 12.3018H117.606C116.946 12.3018 116.616 11.8218 116.616 11.3417C116.616 10.8316 116.946 10.3516 117.636 10.3216H120.925C120.925 9.78147 120.895 9.24139 120.895 8.70131C119.366 8.70131 117.726 8.76132 116.226 8.79132H116.166C115.266 8.79132 114.816 8.22124 114.816 7.65115C114.816 7.08107 115.266 6.51098 116.166 6.51098H116.226C117.756 6.57099 119.336 6.601 120.895 6.601C120.865 6.09092 120.865 5.55084 120.865 5.04076H117.636C116.826 5.01076 116.466 4.50068 116.466 3.99061C116.466 3.45053 116.856 2.91045 117.666 2.91045H117.726C118.416 2.94045 119.646 2.94045 120.805 2.94045C120.805 2.40037 120.775 1.86029 120.775 1.32021V1.2602C120.775 0.480085 121.435 0.0900269 122.095 0.0900269C122.755 0.0900269 123.445 0.480085 123.445 1.2602V1.32021L123.385 2.94045H124.165C126.505 3.03047 127.965 4.11063 128.115 6.19094V6.46098C128.534 6.46098 128.954 6.46098 129.734 6.43097H129.764C130.664 6.43097 131.084 7.00106 131.084 7.60115C131.084 8.20123 130.634 8.80132 129.764 8.80132H129.734C128.984 8.80132 128.534 8.77132 128.145 8.77132C128.145 8.92134 128.115 9.07136 128.115 9.16138C127.935 10.9016 126.645 12.0818 124.195 12.2318L123.295 12.2918V13.612C124.705 13.612 126.105 13.582 127.275 13.522H127.335C128.085 13.522 128.475 14.0321 128.475 14.5722C128.475 15.0823 128.085 15.6223 127.305 15.6223H127.275C126.135 15.5923 124.765 15.5623 123.325 15.5623C123.325 16.0424 123.325 16.5225 123.355 17.0025C125.545 17.0025 127.695 16.9725 129.434 16.9125H129.464C130.274 16.9125 130.694 17.4526 130.694 17.9927C130.694 18.5328 130.274 19.0729 129.494 19.0729H129.434C127.695 19.0128 125.575 18.9828 123.385 18.9828L123.445 20.4531V20.4331ZM123.295 8.6313V10.2515C123.505 10.2515 123.715 10.2515 123.925 10.2215C125.035 10.1615 125.545 9.62145 125.665 8.78132C125.665 8.75132 125.695 8.69131 125.695 8.6313H123.295ZM125.665 6.41097C125.575 5.51083 124.915 5.06077 123.895 5.00076C123.715 5.00076 123.535 4.97075 123.355 4.97075C123.325 5.51083 123.325 6.02091 123.325 6.56099C124.285 6.56099 125.065 6.56099 125.665 6.53099V6.41097Z" fill="white"/>
<path d="M144.413 16.3725C145.583 15.0523 146.783 13.422 147.583 12.0718C148.062 11.3217 148.152 10.7216 148.182 9.93152C148.212 8.97137 148.962 8.4913 149.682 8.4913C150.402 8.4913 151.152 9.00138 151.152 10.0515V10.1415C151.092 11.1917 150.852 12.1919 150.072 13.272C149.082 14.6822 146.873 17.2726 145.193 19.593C144.443 20.6131 143.693 21.0932 142.973 21.0932C142.253 21.0932 141.503 20.6431 140.783 19.773C139.793 18.5728 139.313 17.0326 139.313 15.4423C139.313 13.392 140.123 11.2317 141.773 9.48145C143.963 7.1311 146.953 6.02094 149.852 6.02094C153.262 6.02094 156.561 7.55116 158.201 10.4116C158.951 11.6718 159.281 13.032 159.281 14.3522C159.281 18.6828 155.482 22.7734 148.562 23.1635H148.412C147.333 23.1635 146.703 22.5334 146.703 21.8733C146.703 21.3032 147.213 20.7031 148.382 20.5831C153.952 20.103 156.321 17.0326 156.321 14.1121C156.321 13.212 156.081 12.2719 155.632 11.4917C154.432 9.44144 152.162 8.30128 149.732 8.30128C147.632 8.30128 145.453 9.1414 143.773 10.9817C142.723 12.1518 142.033 13.7821 142.033 15.2523C142.033 15.9724 142.183 16.6025 142.513 17.1826C142.633 17.4226 142.783 17.5427 142.963 17.5427C143.203 17.5427 143.503 17.3326 143.923 16.9126L144.403 16.3725H144.413Z" fill="white"/>
<path d="M10.8687 42.0362C10.8687 43.1464 10.0888 44.2665 8.499 44.1765C7.89907 44.1465 6.84919 44.1165 6.33925 44.1165C4.80943 44.1465 4.38948 44.6866 4.32949 46.4969C4.29949 47.187 4.29949 48.4272 4.29949 49.9274C4.29949 53.1779 4.32949 57.6885 4.35949 60.699C4.38948 62.1392 3.27961 62.8393 2.16974 62.8393C1.05988 62.8393 0.0299965 62.1692 0.0299965 60.839C0 58.1886 0 54.4581 0 51.3576C0 49.0973 0 47.177 0.0299965 46.2769C0.149982 41.8562 2.71968 40.0159 6.13928 39.9259H8.74897C10.1588 39.9259 10.8787 40.9761 10.8787 42.0362H10.8687ZM7.51911 41.2261C7.09916 41.2261 6.61922 41.2561 6.13928 41.2561C3.26962 41.3461 1.49982 42.6663 1.37984 46.2769C1.34984 47.147 1.34984 49.1073 1.34984 51.3876C1.34984 54.5181 1.34984 58.3086 1.37984 60.809C1.37984 61.3191 1.79979 61.5891 2.21974 61.5891C2.63969 61.5891 3.05964 61.3191 3.05964 60.689C3.02964 57.6785 2.99965 52.9578 2.99965 49.6774C2.99965 48.2071 2.99965 47.027 3.02964 46.4269C3.11963 43.7765 4.2895 42.8463 6.37925 42.8163C7.06917 42.8163 7.99906 42.8463 8.59899 42.8463C9.19892 42.8463 9.46889 42.4263 9.46889 42.0362C9.46889 41.6462 9.19892 41.2861 8.65898 41.2561C8.32902 41.2561 7.93907 41.2261 7.51911 41.2261Z" fill="white"/>
<path d="M20.7782 58.1687C20.7782 60.7591 22.248 62.2893 24.2178 62.2893C25.4176 62.2893 26.8275 61.7192 28.1673 60.479C29.9971 58.7988 30.837 55.7283 31.007 53.558C31.127 52.2678 31.1569 51.1477 31.1569 50.1875C31.1569 48.4773 31.037 47.2371 30.887 46.1269V45.9169C30.887 45.0467 31.5469 44.5967 32.2668 44.5967C32.9867 44.5967 33.7666 45.0767 33.7666 46.0369C33.7666 46.1269 33.7666 46.2469 33.7366 46.3369C33.7067 46.547 33.6767 46.787 33.6767 47.057C33.6767 49.7975 35.3865 54.6082 37.3862 55.6883C38.3161 56.1684 38.7061 56.8285 38.7061 57.4286C38.7061 58.1787 38.1061 58.7788 37.2362 58.7788C36.8763 58.7788 36.4563 58.6588 36.0064 58.3887C35.0165 57.7286 33.7266 55.4983 33.3067 53.8181C33.2467 53.638 33.2167 53.578 33.1567 53.578C33.0967 53.578 33.0667 53.728 33.0667 53.9081C33.0367 56.8585 32.1068 60.379 29.8371 62.4193C27.8273 64.1996 25.7376 65.0097 23.8778 65.0097C20.6782 65.0097 18.1885 62.5694 18.1885 58.5988C18.1885 58.3887 18.2185 58.1787 18.2185 57.9687C18.4584 54.5082 20.0183 51.3477 22.138 48.5773C22.168 48.5173 22.198 48.4873 22.198 48.4573C22.198 48.4273 22.168 48.4272 22.108 48.4272H22.018C21.928 48.4573 21.7781 48.4573 21.5981 48.4573C21.1481 48.4573 20.4282 48.3672 19.7683 47.9772C19.1384 47.6171 18.8684 47.1071 18.8684 46.657C18.8684 45.9669 19.4383 45.3668 20.0983 45.3668C20.3082 45.3668 20.5482 45.4268 20.7882 45.6068C21.1481 45.8769 21.898 46.1769 22.588 46.1769C22.7079 46.1769 22.7979 46.1769 22.9179 46.1469C23.6978 46.0569 24.8377 45.7268 25.4276 45.4268C25.7876 45.2468 26.1175 45.1568 26.4475 45.1568C27.2874 45.1568 27.8873 45.8169 27.8873 46.537C27.8873 47.1371 27.4374 47.7672 26.3875 48.0372C24.0178 48.6673 20.7882 54.3881 20.7582 58.0587V58.1487L20.7782 58.1687Z" fill="white"/>
<path d="M51.8933 57.2285C53.0632 55.9083 54.2631 54.2781 55.063 52.9279C55.5429 52.1777 55.6329 51.5777 55.6629 50.7875C55.6929 49.8274 56.4428 49.3473 57.1627 49.3473C57.8826 49.3473 58.6326 49.8574 58.6326 50.9076V50.9976C58.5726 52.0477 58.3326 53.0479 57.5527 54.128C56.5628 55.5382 54.3531 58.1286 52.6733 60.449C51.9233 61.4691 51.1734 61.9492 50.4535 61.9492C49.7336 61.9492 48.9837 61.4991 48.2638 60.629C47.2739 59.4288 46.7939 57.8886 46.7939 56.2984C46.7939 54.2481 47.6038 52.0877 49.2537 50.3375C51.4434 47.9871 54.433 46.877 57.3327 46.877C60.7423 46.877 64.0419 48.4072 65.6817 51.2676C66.4316 52.5278 66.7616 53.888 66.7616 55.2082C66.7616 59.5388 62.962 63.6295 56.0429 64.0195H55.8929C54.813 64.0195 54.1831 63.3894 54.1831 62.7293C54.1831 62.1592 54.693 61.5591 55.8629 61.4391C61.4322 60.9591 63.8019 57.8886 63.8019 54.9682C63.8019 54.068 63.562 53.1279 63.112 52.3478C61.9122 50.2975 59.6424 49.1573 57.2127 49.1573C55.113 49.1573 52.9332 49.9974 51.2534 51.8377C50.2035 53.0079 49.5136 54.6381 49.5136 56.1083C49.5136 56.8284 49.6636 57.4585 49.9936 58.0386C50.1136 58.2787 50.2635 58.3987 50.4435 58.3987C50.6835 58.3987 50.9835 58.1886 51.4034 57.7686L51.8833 57.2285H51.8933Z" fill="white"/>
<path d="M82.3702 66.0198H82.2802C79.5905 66.0198 76.8009 64.6396 75.691 62.0792C75.571 61.8092 75.541 61.5691 75.541 61.3591C75.541 60.549 76.2009 60.0089 76.9508 60.0089C77.5508 60.0089 78.1807 60.339 78.5407 61.1491C79.1106 62.3493 80.3704 63.0494 81.9803 63.0494H82.3702C83.75 63.0494 84.41 63.7695 84.41 64.4896C84.41 65.2097 83.6901 66.0198 82.3702 66.0198ZM84.41 48.5972C84.6199 49.5874 84.8599 50.5575 85.1299 51.4576C85.9398 51.2476 86.7797 50.9776 87.6496 50.6475C87.9196 50.5575 88.1895 50.4975 88.4295 50.4975C89.2394 50.4975 89.7193 51.0976 89.7193 51.7277C89.7193 52.2077 89.4194 52.7178 88.7595 52.9579C87.7696 53.3179 86.8397 53.588 85.9798 53.828C86.3997 54.7581 86.8497 55.5382 87.3596 55.9983C87.8996 56.5084 88.4095 56.8984 88.7995 57.1085C89.3994 57.4685 89.6694 57.9786 89.6694 58.4287C89.6694 59.1788 89.0394 59.8389 88.1095 59.8389C87.9296 59.8389 87.7496 59.8089 87.5396 59.7489C86.4297 59.4188 85.3199 59.4488 84.22 59.2388C83.4701 59.1188 83.0801 58.5487 83.0801 58.0386C83.0801 57.6186 83.3201 57.2585 83.86 57.1385C84.46 57.0185 84.7599 56.8684 84.7599 56.6584C84.7599 56.6284 84.7299 56.5684 84.6999 56.5084C84.31 55.9983 83.92 55.2482 83.5901 54.3381C81.8503 54.6681 80.4204 54.7881 79.2506 54.7881C78.9206 54.7881 78.6506 54.7581 78.3807 54.7581C77.3308 54.7281 76.8209 54.038 76.8209 53.4079C76.8209 52.7778 77.3308 52.1177 78.2907 52.1177H78.4707C78.9506 52.1477 79.4306 52.1777 79.9705 52.1777C80.8404 52.1777 81.8003 52.1177 82.7902 51.9677C82.4902 50.9476 82.2202 49.8874 81.9803 48.8672C80.5404 49.0773 79.2806 49.3173 78.2707 49.5574C78.1207 49.5874 77.9707 49.6174 77.8207 49.6174C76.9209 49.6174 76.3809 48.9273 76.3809 48.2372C76.3809 47.6971 76.7409 47.157 77.5508 47.007C78.4507 46.8569 79.8605 46.6469 81.4403 46.4369C81.2603 45.4767 81.0804 44.5966 80.9904 43.9065C80.9604 43.8165 80.9604 43.7265 80.9604 43.6365C80.9604 42.8564 81.6503 42.3763 82.3402 42.3763C82.9701 42.3763 83.6001 42.7663 83.6901 43.6665C83.75 44.4766 83.87 45.3167 84.02 46.1969C84.7099 46.1368 85.4298 46.0768 86.1198 46.0468H86.2398C87.2596 46.0468 87.7396 46.6469 87.7396 47.277C87.7396 47.9071 87.2596 48.5072 86.3897 48.5072L84.44 48.5972H84.41Z" fill="white"/>
<path d="M104.588 57.2285C105.758 55.9083 106.957 54.2781 107.757 52.9279C108.237 52.1777 108.327 51.5777 108.357 50.7875C108.387 49.8274 109.137 49.3473 109.857 49.3473C110.577 49.3473 111.327 49.8574 111.327 50.9076V50.9976C111.267 52.0477 111.027 53.0479 110.247 54.128C109.257 55.5382 107.047 58.1286 105.368 60.449C104.618 61.4691 103.868 61.9492 103.148 61.9492C102.428 61.9492 101.678 61.4991 100.958 60.629C99.9682 59.4288 99.4883 57.8886 99.4883 56.2984C99.4883 54.2481 100.298 52.0877 101.948 50.3375C104.138 47.9871 107.127 46.877 110.027 46.877C113.437 46.877 116.736 48.4072 118.376 51.2676C119.126 52.5278 119.456 53.888 119.456 55.2082C119.456 59.5388 115.656 63.6295 108.737 64.0195H108.587C107.507 64.0195 106.877 63.3894 106.877 62.7293C106.877 62.1592 107.387 61.5591 108.557 61.4391C114.127 60.9591 116.496 57.8886 116.496 54.9682C116.496 54.068 116.256 53.1279 115.806 52.3478C114.607 50.2975 112.337 49.1573 109.907 49.1573C107.807 49.1573 105.628 49.9974 103.948 51.8377C102.898 53.0079 102.208 54.6381 102.208 56.1083C102.208 56.8284 102.358 57.4585 102.688 58.0386C102.808 58.2787 102.958 58.3987 103.138 58.3987C103.378 58.3987 103.678 58.1886 104.098 57.7686L104.578 57.2285H104.588Z" fill="white"/>
<path d="M142.073 50.6375C141.683 50.6675 141.294 50.8175 141.114 50.9676C140.514 51.5076 139.674 52.1377 138.774 52.7678C141.383 53.818 142.873 56.7084 142.873 59.5688C142.873 62.4293 141.314 65.3197 137.754 66.1298C137.514 66.1898 137.304 66.2198 137.094 66.2198C136.044 66.2198 135.444 65.4997 135.444 64.8096C135.444 64.2395 135.864 63.6694 136.764 63.5194C139.194 63.1894 140.354 61.1691 140.354 59.0988C140.354 58.9187 140.354 58.7687 140.324 58.5887C138.074 60.819 134.634 63.6094 129.935 65.0897C129.695 65.1497 129.485 65.2097 129.305 65.2097C128.465 65.2097 127.955 64.6096 127.955 63.9795C127.955 63.4394 128.315 62.8693 129.155 62.6593C133.524 61.5491 137.594 58.5387 139.574 56.2783C139.454 56.0983 139.334 55.9183 139.184 55.7383C137.414 57.1785 134.304 59.2888 131.365 60.1889C131.185 60.2489 131.035 60.2489 130.885 60.2489C130.105 60.2489 129.655 59.6488 129.655 59.0788C129.655 58.5987 129.925 58.1486 130.555 57.9686C133.274 57.2785 135.914 55.7083 137.474 54.4481L137.174 54.3281C137.054 54.298 136.934 54.268 136.814 54.268C136.634 54.268 136.484 54.298 136.364 54.3581L135.974 54.5381C135.014 55.0782 134.054 55.5282 133.224 55.7983C132.984 55.8883 132.775 55.9183 132.595 55.9183C131.785 55.9183 131.365 55.3482 131.365 54.7481C131.365 54.298 131.635 53.848 132.235 53.698C134.094 53.1879 136.334 51.9577 138.104 50.6575L134.514 50.7175H134.454C133.674 50.7175 133.284 50.1474 133.284 49.5773C133.284 48.9773 133.674 48.4072 134.484 48.4072H134.514C136.554 48.4672 138.284 48.4972 140.024 48.4972C141.763 48.4972 143.523 48.4672 145.623 48.4072H145.653C146.493 48.4072 146.913 48.9773 146.913 49.5773C146.913 50.1774 146.523 50.7175 145.683 50.7175H145.623L142.063 50.6575L142.073 50.6375ZM144.533 46.4269C143.213 46.3669 141.483 46.3369 139.744 46.3369C138.214 46.3369 136.724 46.3669 135.584 46.4269C133.604 46.5469 132.535 47.387 132.445 48.3272V49.3473C132.445 50.1274 131.755 50.5475 131.065 50.5475C130.375 50.5475 129.715 50.1574 129.685 49.2573V48.1171C129.715 45.5567 132.525 44.2966 135.374 44.1465L138.574 44.0565V42.0362C138.574 41.1661 139.294 40.746 140.044 40.746C140.794 40.746 141.513 41.1661 141.513 42.0062V42.0362C141.483 42.9064 141.483 43.4764 141.483 44.0565C142.713 44.0565 143.883 44.0865 144.803 44.1465C148.603 44.3866 150.672 46.3469 150.702 48.1771C150.702 48.4472 150.732 48.5972 150.732 48.7172C150.732 48.8672 150.702 48.9873 150.702 49.1973C150.612 50.0374 149.892 50.4575 149.203 50.4575C148.513 50.4575 147.853 50.0674 147.853 49.2573V48.3572C147.823 47.577 146.833 46.5169 144.533 46.4269ZM151.532 65.0497C151.292 65.0497 150.992 65.0196 150.692 64.9296C147.073 63.8795 143.023 60.0289 143.023 56.6584C143.023 55.5182 143.443 54.4581 144.493 53.5579C145.153 53.0179 145.483 52.7178 146.293 52.1477C146.593 51.9377 146.923 51.8177 147.223 51.8177C148.003 51.8177 148.663 52.4778 148.663 53.1979C148.663 53.5879 148.453 54.038 147.913 54.3681C147.223 54.7881 146.683 55.1182 146.263 55.4482C145.783 55.8383 145.573 56.3183 145.573 56.8284C145.573 58.8787 148.743 61.6391 151.892 62.2792C152.762 62.4593 153.182 63.0594 153.182 63.6294C153.182 64.3495 152.612 65.0396 151.532 65.0396V65.0497Z" fill="white"/>
<path d="M159.111 64.8997C159.111 63.7896 159.891 62.6694 161.481 62.7594C162.081 62.7894 163.131 62.8194 163.641 62.8194C165.171 62.7894 165.591 62.2493 165.651 60.4391C165.681 59.749 165.681 58.5088 165.681 57.0085C165.681 53.7581 165.651 49.2474 165.621 46.2369C165.591 44.7967 166.7 44.0966 167.81 44.0966C168.92 44.0966 169.97 44.7567 169.97 46.0869C170 48.7373 170 52.4679 170 55.5683C170 57.8287 170 59.749 169.97 60.6491C169.85 65.0697 167.28 66.91 163.861 67H161.251C159.841 67 159.121 65.9499 159.121 64.8897L159.111 64.8997ZM162.461 65.7198C162.881 65.7198 163.331 65.7198 163.841 65.6898C166.71 65.5998 168.48 64.2796 168.6 60.6691C168.63 59.799 168.63 57.8387 168.63 55.5583C168.63 52.4279 168.63 48.6373 168.6 46.1369C168.6 45.6268 168.18 45.3568 167.76 45.3568C167.34 45.3568 166.92 45.6268 166.92 46.2569C166.95 49.2674 166.98 53.9881 166.98 57.2686C166.98 58.7388 166.98 59.919 166.95 60.5191C166.86 63.1695 165.691 64.0996 163.601 64.1296C162.911 64.1296 161.981 64.0996 161.381 64.0996C160.781 64.0996 160.511 64.5197 160.511 64.9097C160.511 65.2998 160.781 65.6598 161.321 65.6898C161.651 65.7198 162.041 65.7198 162.461 65.7198Z" fill="white"/>
</svg>
