<svg width="525" height="41" viewBox="0 0 525 41" fill="none" xmlns="http://www.w3.org/2000/svg">
<path d="M15.29 6.24697C15.24 5.60729 15.24 4.7477 15.2 3.42835V3.33839C15.2 2.05901 16.35 1.42932 17.5 1.42932C18.65 1.42932 19.8 2.06901 19.8 3.33839V3.42835C19.75 4.60777 19.71 5.56731 19.71 6.24697C22.19 6.24697 24.58 6.29695 26.33 6.38691C31.43 6.65677 34.84 8.70578 35.25 12.304C35.25 12.5339 35.3 12.7138 35.3 12.8937C35.3 13.1236 35.25 13.3535 35.25 13.5734C35.16 15.0727 34.01 15.8523 32.86 15.8523C31.8 15.8523 30.75 15.1726 30.75 13.7533V12.5739C30.61 11.1146 29.14 9.84522 25.88 9.65531C23.99 9.51538 21.33 9.4754 18.57 9.4754C15.21 9.4754 11.72 9.56536 9.47 9.65531C6.48 9.79525 4.64 11.2445 4.5 12.5739V13.9432C4.5 15.2626 3.4 15.9423 2.25 15.9423C1.1 15.9423 0 15.2126 0 13.7533V12.344C0.18 9.20553 3.68 6.51684 8.78 6.37691L15.31 6.23698L15.29 6.24697ZM23.98 38.6712C22.55 38.7611 20.39 38.8111 18.19 38.8111C15.62 38.8111 12.95 38.7611 11.11 38.6712C7.2 38.4913 4.81 36.942 4.44 34.1134C4.35 33.5237 4.35 32.7441 4.35 31.9744C4.35 31.2448 4.35 30.4752 4.44 29.8355C4.81 26.9169 7.43 25.4176 11.15 25.2377C12.58 25.1877 14.6 25.1877 16.76 25.1877C19.43 25.1877 22.23 25.1877 24.12 25.2777C28.03 25.5076 30.6 26.9669 30.92 29.8755C30.97 30.4252 31.01 31.1948 31.01 32.0144C31.01 32.6541 30.96 33.3338 30.92 33.8835C30.51 37.072 27.93 38.4413 23.98 38.6612V38.6712ZM26.92 14.443C23.15 14.353 20.44 14.3031 17.68 14.3031C14.92 14.3031 12.12 14.353 8.21 14.443H8.16C6.92 14.443 6.27 13.6734 6.27 12.8538C6.27 12.0841 6.91 11.3045 8.16 11.3045H8.25C12.2 11.3945 15.05 11.4444 17.81 11.4444C20.57 11.4444 23.28 11.3945 26.91 11.3045H27C28.2 11.3045 28.79 12.0741 28.79 12.8538C28.79 13.6334 28.15 14.443 26.95 14.443H26.9H26.92ZM18.05 15.8523C19.84 15.8523 21.64 15.9023 23.06 15.9922C25.82 16.1322 27.52 17.3116 27.75 18.8608C27.8 19.1307 27.8 19.4505 27.8 19.7704C27.8 20.0003 27.8 20.2701 27.75 20.5C27.52 22.2292 26.05 23.4586 23.06 23.5985C21.5 23.6485 19.57 23.6885 17.64 23.6885C15.71 23.6885 13.73 23.6385 12.26 23.5985C9.41 23.4586 7.71 22.5091 7.43 20.7299C7.38 20.4601 7.38 20.1402 7.38 19.8204C7.38 19.4106 7.38 19.0008 7.47 18.6809C7.79 17.5015 9.08 16.0822 12.25 15.9922C13.86 15.9023 15.97 15.8523 18.04 15.8523H18.05ZM11.47 28.1063C9.4 28.2463 8.39 29.1058 8.21 30.1054L8.12 30.6551H15.61C15.61 29.6956 15.61 28.836 15.56 27.9664L11.47 28.1063ZM8.21 33.7036C8.44 35.1629 9.5 35.7026 11.43 35.8426C12.44 35.9325 13.96 35.9825 15.57 35.9825C15.62 35.1629 15.62 34.2034 15.62 33.2038C13 33.2038 10.42 33.2038 8.13 33.2538L8.22 33.7136L8.21 33.7036ZM17.64 18.501C16.08 18.501 14.51 18.501 13.36 18.551C12.67 18.601 11.52 18.8209 11.52 19.7804C11.52 20.7399 12.53 20.9198 13.36 20.9598C14.6 21.0498 16.16 21.0498 17.68 21.0498C19.2 21.0498 20.71 21.0498 21.91 20.9598C22.88 20.9098 23.47 20.6 23.61 20.0502C23.61 20.0003 23.66 19.8703 23.66 19.7804C23.66 19.6904 23.61 19.6005 23.61 19.5105C23.52 19.0108 22.97 18.6409 21.91 18.551C20.71 18.501 19.2 18.501 17.63 18.501H17.64ZM19.24 27.9664V30.6551H27.19C27.19 30.4752 27.14 30.3352 27.14 30.1553C27.05 28.9759 25.94 28.2463 24.01 28.1063L19.23 27.9664H19.24ZM19.24 36.0225C21.08 35.9725 22.83 35.9325 23.93 35.8426C25.95 35.6626 27.01 34.7931 27.15 33.6136C27.15 33.5237 27.2 33.3838 27.2 33.2538C24.99 33.2038 22.14 33.2038 19.25 33.2038V36.0225H19.24Z" fill="white"/>
<path d="M69.351 33.4737C72.751 33.4737 76.151 33.3837 79.331 33.2938H79.421C81.031 33.2938 81.811 34.3432 81.811 35.3927C81.811 36.4422 81.031 37.4917 79.421 37.4917H79.331C75.611 37.4018 71.651 37.3518 67.791 37.3518C63.421 37.3518 59.151 37.4018 55.331 37.4917H55.241C53.581 37.4917 52.851 36.4922 52.851 35.4427C52.851 34.3932 53.681 33.3038 55.191 33.3038H55.331C58.321 33.4437 61.581 33.4837 64.891 33.4837C64.941 31.6646 64.981 26.607 64.981 21.1897C60.611 21.1897 56.241 21.2796 51.691 21.3696H51.551C49.991 21.3696 49.251 20.3701 49.251 19.3705C49.251 18.2811 50.081 17.1416 51.591 17.1416H51.681C56.461 17.2816 60.741 17.3715 64.921 17.3715C64.921 13.2235 64.871 9.17551 64.781 6.48681V6.34688C64.781 4.84761 65.981 4.06799 67.171 4.06799C68.361 4.06799 69.561 4.83762 69.561 6.38686V6.47682C69.421 9.48535 69.381 13.3935 69.331 17.3615C73.511 17.3615 77.791 17.2716 82.661 17.1316H82.751C84.311 17.1316 85.051 18.1811 85.051 19.2306C85.051 20.2801 84.271 21.3696 82.751 21.3696H82.661C78.021 21.2796 73.651 21.1897 69.281 21.1897C69.281 25.9673 69.281 30.5251 69.331 33.4837L69.351 33.4737Z" fill="white"/>
<path d="M100.202 21.9593C99.5617 22.549 98.9117 22.7789 98.3117 22.7789C97.0217 22.7789 96.0117 21.7294 96.0117 20.59C96.0117 20.0402 96.2917 19.4505 96.8817 18.9508C102.492 14.6229 106.402 8.52584 108.562 3.64821C108.972 2.73866 109.762 2.32886 110.492 2.32886C111.642 2.32886 112.742 3.19843 112.742 4.42783C112.742 4.83764 112.652 5.24744 112.422 5.65724C111.452 7.38639 110.352 9.39541 108.972 11.4444C108.562 12.354 108.332 13.5434 108.332 14.6728C108.242 19.8603 108.152 26.5571 108.152 33.1139V37.3018C108.152 38.891 106.952 39.7106 105.812 39.7106C104.752 39.7106 103.702 38.981 103.702 37.4817V37.3018C104.022 31.4247 104.252 23.2787 104.342 17.6314C103.052 19.1307 101.672 20.59 100.202 21.9593ZM115.052 25.9673H114.962C113.492 25.9673 112.802 25.0578 112.802 24.1482C112.802 23.1887 113.542 22.1892 114.962 22.1892H115.052C117.032 22.2791 118.822 22.3291 120.612 22.3291L120.522 15.7723L113.582 15.9122H113.492C112.062 15.9122 111.382 15.0027 111.382 14.0432C111.382 13.0836 112.162 12.0441 113.592 12.0841C117.452 12.1741 120.262 12.224 123.202 12.224C125.822 12.224 128.582 12.1741 132.442 12.0841H132.532C133.912 12.0841 134.602 13.0436 134.602 13.9532C134.602 14.9527 133.862 15.9122 132.532 15.9122H132.442C129.312 15.8223 126.882 15.7723 124.672 15.7723C124.672 17.8213 124.622 20.0502 124.622 22.3291C126.412 22.3291 128.302 22.2791 130.412 22.1892H130.502C131.932 22.1892 132.612 23.1487 132.612 24.0983C132.612 25.0478 131.922 25.9673 130.502 25.9673H130.412C128.302 25.8774 126.412 25.8274 124.622 25.8274C124.622 28.696 124.622 31.6146 124.672 34.4832C128.032 34.4832 131.432 34.3932 135.062 34.2533H135.152C136.532 34.2533 137.222 35.2528 137.222 36.2124C137.222 37.1719 136.532 38.2114 135.152 38.2114H135.062C130.832 38.0714 127.012 37.9815 123.152 37.9815C119.292 37.9815 115.522 38.0714 111.292 38.2114H111.152C109.632 38.2114 108.942 37.3018 108.942 36.3423C108.942 35.2928 109.722 34.2433 111.192 34.2433H111.282C114.542 34.3832 117.582 34.4732 120.522 34.4732C120.572 31.6046 120.612 28.686 120.612 25.8174L115.052 25.9573V25.9673ZM122.822 9.79522C121.262 8.10604 119.142 7.01657 117.812 6.51682C116.892 6.19697 116.482 5.5173 116.482 4.82764C116.482 3.86811 117.352 2.86859 118.692 2.86859C118.872 2.86859 119.102 2.91857 119.332 2.95855C120.942 3.27839 124.712 5.14748 126.042 6.5568C126.592 7.10653 126.822 7.73622 126.822 8.28596C126.822 9.51536 125.722 10.5648 124.522 10.5648C123.922 10.5648 123.322 10.335 122.822 9.79522Z" fill="white"/>
<path d="M150.543 4.42783C153.853 4.42783 156.563 6.15698 156.563 9.48536C156.563 10.165 156.473 10.8947 156.193 11.7143C156.103 11.9442 156.103 12.1741 156.103 12.354C156.103 12.8537 156.383 13.2235 156.933 13.4035C159.463 14.2231 161.163 15.5024 161.163 19.0907C161.163 19.6804 161.113 20.3201 161.023 20.9998C160.613 24.2282 159.643 27.1468 158.403 29.6056C162.083 33.5636 167.733 35.2528 173.533 35.2528C176.753 35.2528 180.063 34.7531 183.093 33.7935C183.373 33.7036 183.643 33.6536 183.923 33.6536C185.163 33.6536 185.943 34.6531 185.943 35.7026C185.943 36.6121 185.343 37.5717 183.873 37.9315C180.843 38.7011 177.663 39.1109 174.493 39.1109C167.693 39.1109 160.973 37.2019 156.473 32.784C154.633 35.4227 152.523 37.4317 150.583 38.7011C149.943 39.1109 149.343 39.2908 148.793 39.2908C147.553 39.2908 146.773 38.3313 146.773 37.3318C146.773 36.5622 147.183 35.7426 148.293 35.2328C150.043 34.4632 152.203 32.5441 153.993 29.7655C152.933 28.1263 152.103 26.2572 151.553 24.1182C151.143 24.7579 150.683 25.3976 150.173 25.7574C149.623 26.2172 149.073 26.3971 148.563 26.3971C147.593 26.3971 146.863 25.6275 146.863 24.7579C146.863 24.2082 147.143 23.6685 147.833 23.2087C149.853 21.9793 150.593 20.3401 150.593 19.3406C150.593 18.0212 151.603 17.3415 152.573 17.3415C153.543 17.3415 154.463 17.9812 154.463 19.3006C154.463 19.8003 154.373 20.0702 154.373 20.48V21.1597C154.693 22.9788 155.243 24.578 155.983 26.0273C156.623 24.3881 157.133 22.609 157.413 20.6499C157.463 20.3301 157.503 20.0102 157.503 19.7404C157.503 18.1012 156.723 17.0117 155.393 16.7318C153.693 16.412 152.263 15.4525 152.263 13.5434C152.263 13.0836 152.353 12.6338 152.493 12.0841C152.673 11.4444 152.813 10.8047 152.813 10.215C152.813 9.03558 152.263 8.11603 150.473 8.11603C150.333 8.11603 150.153 8.166 149.963 8.166H149.683C148.303 8.166 147.613 7.29643 147.613 6.38687C147.613 5.47731 148.303 4.51778 149.773 4.38785H150.553L150.543 4.42783ZM173.113 32.3342V32.4242C173.113 33.7935 172.103 34.4732 171.043 34.4732C169.983 34.4732 169.023 33.7935 169.023 32.4242V32.3342C169.023 31.5646 169.073 30.8749 169.073 30.1053L161.903 30.2452H161.813C160.523 30.2452 159.883 29.4756 159.883 28.656C159.883 27.8364 160.573 26.9668 161.813 26.9668H161.903C164.013 27.0568 166.543 27.0568 169.163 27.1068C169.163 26.3771 169.213 25.6475 169.213 24.9178L163.603 25.0078H163.513C162.223 25.0078 161.673 24.2382 161.673 23.4586C161.673 22.639 162.313 21.8194 163.513 21.8194H163.603L169.213 21.9593C169.213 21.2796 169.263 20.6399 169.263 19.9603C167.333 19.9603 165.443 19.9603 164.253 20.0102H164.163C163.153 20.0102 162.643 19.2806 162.643 18.5509C162.643 17.7813 163.153 17.0517 164.203 17.0017H169.263C169.263 16.1821 169.213 15.3625 169.213 14.5429C166.873 14.5429 164.343 14.6329 162.043 14.6828H161.953C160.573 14.6828 159.883 13.8133 159.883 12.9537C159.883 12.0941 160.573 11.2245 161.953 11.2245H162.043C164.383 11.3145 166.823 11.3644 169.213 11.3644C169.163 10.5948 169.163 9.77522 169.163 8.9956H164.193C162.953 8.94562 162.403 8.176 162.403 7.40637C162.403 6.58677 163.003 5.76717 164.243 5.76717H164.333C165.393 5.81715 167.273 5.81715 169.073 5.81715C169.073 4.99755 169.023 4.17795 169.023 3.35835V3.26839C169.023 2.08897 170.033 1.48926 171.043 1.48926C172.053 1.48926 173.113 2.07897 173.113 3.26839V3.35835L173.023 5.81715H174.223C177.813 5.95708 180.063 7.59628 180.293 10.7348V11.1446C180.933 11.1446 181.583 11.1446 182.773 11.0946H182.823C184.203 11.0946 184.843 11.9642 184.843 12.8737C184.843 13.7833 184.153 14.6928 182.823 14.6928H182.773C181.623 14.6928 180.933 14.6428 180.333 14.6428C180.333 14.8727 180.283 15.1026 180.283 15.2326C180.003 17.8713 178.033 19.6504 174.263 19.8803L172.883 19.9703V21.9693C175.043 21.9693 177.203 21.9193 178.993 21.8293H179.083C180.233 21.8293 180.833 22.599 180.833 23.4186C180.833 24.1882 180.233 25.0078 179.043 25.0078H178.993C177.243 24.9578 175.133 24.9178 172.923 24.9178C172.923 25.6475 172.923 26.3771 172.973 27.1068C176.333 27.1068 179.643 27.0568 182.303 26.9668H182.353C183.593 26.9668 184.243 27.7864 184.243 28.606C184.243 29.4256 183.603 30.2452 182.403 30.2452H182.313C179.643 30.1553 176.383 30.1053 173.023 30.1053L173.113 32.3342ZM172.883 14.4929V16.9517C173.203 16.9517 173.523 16.9517 173.853 16.9017C175.553 16.8118 176.333 15.9922 176.523 14.7128C176.523 14.6628 176.573 14.5729 176.573 14.4829H172.893L172.883 14.4929ZM176.513 11.1246C176.373 9.75523 175.363 9.07556 173.803 8.98561C173.523 8.98561 173.253 8.93563 172.973 8.93563C172.923 9.75523 172.923 10.5249 172.923 11.3445C174.393 11.3445 175.593 11.3445 176.513 11.2945V11.1146V11.1246Z" fill="white"/>
<path d="M205.294 26.1873C207.084 24.1883 208.924 21.7295 210.164 19.6805C210.904 18.541 211.034 17.6315 211.084 16.452C211.134 14.9928 212.284 14.2631 213.384 14.2631C214.484 14.2631 215.634 15.0327 215.634 16.632V16.7719C215.544 18.3611 215.174 19.8704 213.974 21.5096C212.454 23.6485 209.054 27.5666 206.484 31.0749C205.334 32.6242 204.184 33.3538 203.084 33.3538C201.984 33.3538 200.834 32.6741 199.724 31.3548C198.204 29.5357 197.474 27.2068 197.474 24.798C197.474 21.6995 198.714 18.4211 201.244 15.7824C204.604 12.2341 209.194 10.5449 213.654 10.5449C218.894 10.5449 223.954 12.8638 226.484 17.1917C227.634 19.1008 228.144 21.1498 228.144 23.1588C228.144 29.7156 222.304 35.9126 211.684 36.5023H211.454C209.794 36.5023 208.834 35.5427 208.834 34.5432C208.834 33.6737 209.614 32.7641 211.404 32.5842C219.954 31.8545 223.584 27.2068 223.584 22.799C223.584 21.4296 223.214 20.0203 222.524 18.8409C220.684 15.7424 217.194 14.0132 213.464 14.0132C210.244 14.0132 206.894 15.2926 204.314 18.0613C202.704 19.8404 201.644 22.2992 201.644 24.5281C201.644 25.6176 201.874 26.5771 202.384 27.4467C202.564 27.8065 202.794 27.9964 203.074 27.9964C203.444 27.9964 203.904 27.6766 204.544 27.0369L205.284 26.2173L205.294 26.1873Z" fill="white"/>
<path d="M280.695 3.19844C280.695 4.88762 279.495 6.5668 277.065 6.42687C276.145 6.37689 274.535 6.33691 273.755 6.33691C271.415 6.38689 270.765 7.20649 270.675 9.93516C270.625 10.9846 270.625 12.8537 270.625 15.1226C270.625 20.0402 270.675 26.8669 270.715 31.4247C270.765 33.6136 269.055 34.6531 267.355 34.6531C265.655 34.6531 264.045 33.6536 264.045 31.6446C263.995 27.6365 263.995 21.9893 263.995 17.3016C263.995 13.8832 263.995 10.9747 264.045 9.60532C264.225 2.90858 268.185 0.129937 273.425 0H277.425C279.585 0 280.685 1.58923 280.685 3.18845L280.695 3.19844ZM275.545 1.96904C274.905 1.96904 274.165 2.01902 273.435 2.01902C269.025 2.15895 266.305 4.15798 266.125 9.62531C266.075 10.9447 266.075 13.9032 266.075 17.3615C266.075 22.0992 266.075 27.8364 266.125 31.6146C266.125 32.3842 266.765 32.794 267.415 32.794C268.065 32.794 268.705 32.3842 268.705 31.4247C268.655 26.8669 268.615 19.7204 268.615 14.7628C268.615 12.5339 268.615 10.7548 268.665 9.84521C268.805 5.83716 270.595 4.42784 273.815 4.37787C274.875 4.37787 276.295 4.42784 277.215 4.42784C278.135 4.42784 278.545 3.78815 278.545 3.19844C278.545 2.60873 278.135 2.059 277.305 2.01902C276.795 2.01902 276.205 1.96904 275.555 1.96904H275.545Z" fill="white"/>
<path d="M295.906 27.6065C295.906 31.5246 298.156 33.8435 301.196 33.8435C303.036 33.8435 305.196 32.9739 307.266 31.1148C310.066 28.5661 311.356 23.9183 311.636 20.6399C311.816 18.6809 311.866 17.0017 311.866 15.5424C311.866 12.9437 311.686 11.0846 311.456 9.39541V9.07556C311.456 7.75621 312.466 7.07654 313.566 7.07654C314.666 7.07654 315.866 7.80618 315.866 9.26547C315.866 9.4054 315.866 9.58532 315.816 9.72525C315.766 10.0451 315.726 10.4049 315.726 10.8147C315.726 14.9627 318.346 22.2392 321.426 23.8784C322.856 24.608 323.446 25.6075 323.446 26.5171C323.446 27.6565 322.526 28.5661 321.196 28.5661C320.646 28.5661 319.996 28.3862 319.306 27.9764C317.786 26.9768 315.816 23.6085 315.166 21.0597C315.076 20.7899 315.026 20.6999 314.936 20.6999C314.846 20.6999 314.796 20.9298 314.796 21.1997C314.746 25.6575 313.326 30.9849 309.826 34.0834C306.746 36.7721 303.526 38.0015 300.676 38.0015C295.756 38.0015 291.936 34.3133 291.936 28.3062C291.936 27.9864 291.986 27.6665 291.986 27.3467C292.356 22.1092 294.746 17.3315 298.006 13.1436C298.056 13.0536 298.096 13.0037 298.096 12.9637C298.096 12.9237 298.046 12.9137 297.956 12.9137H297.816C297.676 12.9637 297.446 12.9637 297.176 12.9637C296.486 12.9637 295.386 12.8237 294.376 12.234C293.406 11.6843 292.996 10.9147 292.996 10.235C292.996 9.18551 293.866 8.27595 294.886 8.27595C295.206 8.27595 295.576 8.36591 295.946 8.63578C296.496 9.04558 297.646 9.50535 298.706 9.50535C298.886 9.50535 299.026 9.50535 299.216 9.45538C300.416 9.31545 302.156 8.81569 303.076 8.36591C303.626 8.09604 304.136 7.95611 304.636 7.95611C305.926 7.95611 306.846 8.95562 306.846 10.0551C306.846 10.9646 306.156 11.9242 304.546 12.334C300.916 13.2935 295.946 21.9393 295.906 27.4966V27.6365V27.6065Z" fill="white"/>
<path d="M343.676 26.1873C345.466 24.1883 347.306 21.7295 348.546 19.6805C349.286 18.541 349.416 17.6315 349.466 16.452C349.516 14.9928 350.666 14.2631 351.766 14.2631C352.866 14.2631 354.016 15.0327 354.016 16.632V16.7719C353.926 18.3611 353.556 19.8704 352.356 21.5096C350.836 23.6485 347.436 27.5666 344.866 31.0749C343.716 32.6242 342.566 33.3538 341.466 33.3538C340.366 33.3538 339.216 32.6741 338.106 31.3548C336.586 29.5357 335.856 27.2068 335.856 24.798C335.856 21.6995 337.096 18.4211 339.626 15.7824C342.986 12.2341 347.576 10.5449 352.036 10.5449C357.276 10.5449 362.336 12.8638 364.866 17.1917C366.016 19.1008 366.526 21.1498 366.526 23.1588C366.526 29.7156 360.686 35.9126 350.066 36.5023H349.836C348.176 36.5023 347.216 35.5427 347.216 34.5432C347.216 33.6737 347.996 32.7641 349.786 32.5842C358.336 31.8545 361.966 27.2068 361.966 22.799C361.966 21.4296 361.596 20.0203 360.906 18.8409C359.066 15.7424 355.576 14.0132 351.846 14.0132C348.626 14.0132 345.276 15.2926 342.696 18.0613C341.086 19.8404 340.026 22.2992 340.026 24.5281C340.026 25.6176 340.256 26.5771 340.766 27.4467C340.946 27.8065 341.176 27.9964 341.456 27.9964C341.826 27.9964 342.286 27.6766 342.926 27.0369L343.666 26.2173L343.676 26.1873Z" fill="white"/>
<path d="M390.477 39.4908H390.337C386.197 39.4908 381.927 37.3918 380.227 33.5237C380.047 33.1139 379.997 32.7541 379.997 32.4342C379.997 31.2048 381.007 30.3852 382.157 30.3852C383.077 30.3852 384.047 30.885 384.597 32.1144C385.467 33.9335 387.397 34.983 389.887 34.983H390.487C392.597 34.983 393.617 36.0724 393.617 37.1719C393.617 38.2714 392.517 39.4908 390.487 39.4908H390.477ZM393.597 13.1236C393.917 14.6229 394.287 16.0822 394.697 17.4515C395.937 17.1317 397.227 16.7219 398.557 16.2221C398.967 16.0822 399.387 15.9922 399.757 15.9922C400.997 15.9922 401.737 16.9018 401.737 17.8613C401.737 18.591 401.277 19.3606 400.267 19.7304C398.747 20.2801 397.327 20.6899 395.987 21.0498C396.627 22.4591 397.317 23.6485 398.097 24.3282C398.927 25.0978 399.707 25.6975 400.307 26.0173C401.227 26.5671 401.637 27.3367 401.637 28.0164C401.637 29.1558 400.667 30.1553 399.247 30.1553C398.967 30.1553 398.697 30.1053 398.377 30.0154C396.677 29.5156 394.977 29.5556 393.277 29.2458C392.127 29.0659 391.527 28.1963 391.527 27.4267C391.527 26.787 391.897 26.2472 392.727 26.0573C393.647 25.8774 394.107 25.6475 394.107 25.3277C394.107 25.2777 394.057 25.1877 394.017 25.0978C393.417 24.3282 392.817 23.1887 392.317 21.8194C389.647 22.3191 387.447 22.4991 385.647 22.4991C385.137 22.4991 384.727 22.4491 384.317 22.4491C382.707 22.3991 381.927 21.3596 381.927 20.4001C381.927 19.4405 382.707 18.441 384.177 18.441H384.457C385.197 18.491 385.927 18.531 386.757 18.531C388.087 18.531 389.557 18.441 391.077 18.2111C390.617 16.6619 390.207 15.0727 389.837 13.5234C387.627 13.8433 385.697 14.2031 384.137 14.5729C383.907 14.6229 383.677 14.6629 383.447 14.6629C382.067 14.6629 381.237 13.6134 381.237 12.5639C381.237 11.7443 381.787 10.9247 383.027 10.6948C384.407 10.4649 386.567 10.1451 389.007 9.82523C388.727 8.36594 388.457 7.04658 388.317 5.99709C388.267 5.85716 388.267 5.72722 388.267 5.58729C388.267 4.40787 389.327 3.67822 390.377 3.67822C391.347 3.67822 392.307 4.26794 392.447 5.63727C392.537 6.86667 392.727 8.14605 392.957 9.4654C394.017 9.37545 395.117 9.28549 396.177 9.23551H396.357C397.917 9.23551 398.657 10.1451 398.657 11.1046C398.657 12.0641 397.917 12.9737 396.587 12.9737L393.597 13.1136V13.1236Z" fill="white"/>
<path d="M424.588 26.1873C426.378 24.1883 428.218 21.7295 429.458 19.6805C430.198 18.541 430.328 17.6315 430.378 16.452C430.428 14.9928 431.578 14.2631 432.678 14.2631C433.778 14.2631 434.928 15.0327 434.928 16.632V16.7719C434.838 18.3611 434.468 19.8704 433.268 21.5096C431.748 23.6485 428.348 27.5666 425.778 31.0749C424.628 32.6242 423.478 33.3538 422.378 33.3538C421.278 33.3538 420.128 32.6741 419.018 31.3548C417.498 29.5357 416.768 27.2068 416.768 24.798C416.768 21.6995 418.008 18.4211 420.538 15.7824C423.898 12.2341 428.488 10.5449 432.948 10.5449C438.188 10.5449 443.248 12.8638 445.778 17.1917C446.928 19.1008 447.438 21.1498 447.438 23.1588C447.438 29.7156 441.598 35.9126 430.978 36.5023H430.748C429.088 36.5023 428.128 35.5427 428.128 34.5432C428.128 33.6737 428.908 32.7641 430.698 32.5842C439.248 31.8545 442.878 27.2068 442.878 22.799C442.878 21.4296 442.508 20.0203 441.818 18.8409C439.978 15.7424 436.488 14.0132 432.758 14.0132C429.538 14.0132 426.188 15.2926 423.608 18.0613C421.998 19.8404 420.938 22.2992 420.938 24.5281C420.938 25.6176 421.168 26.5771 421.678 27.4467C421.858 27.8065 422.088 27.9964 422.368 27.9964C422.738 27.9964 423.198 27.6766 423.838 27.0369L424.578 26.2173L424.588 26.1873Z" fill="white"/>
<path d="M482.149 16.2221C481.549 16.2721 480.949 16.4919 480.679 16.7218C479.759 17.5414 478.469 18.501 477.089 19.4505C481.089 21.0397 483.389 25.4176 483.389 29.7455C483.389 34.0734 480.999 38.4413 475.529 39.6707C475.159 39.7606 474.839 39.8106 474.519 39.8106C472.909 39.8106 471.989 38.7211 471.989 37.6716C471.989 36.8021 472.629 35.9425 474.009 35.7126C477.729 35.2128 479.529 32.1643 479.529 29.0158C479.529 28.746 479.529 28.5161 479.479 28.2462C476.029 31.6146 470.739 35.8525 463.529 38.0814C463.159 38.1714 462.839 38.2613 462.559 38.2613C461.269 38.2613 460.489 37.3518 460.489 36.3923C460.489 35.5727 461.039 34.7031 462.329 34.3932C469.039 32.7041 475.299 28.1563 478.329 24.7379C478.149 24.4681 477.959 24.1882 477.729 23.9183C475.019 26.1073 470.239 29.2957 465.729 30.655C465.449 30.745 465.219 30.745 464.989 30.745C463.789 30.745 463.099 29.8354 463.099 28.9659C463.099 28.2362 463.509 27.5566 464.479 27.2767C468.659 26.2272 472.709 23.8584 475.099 21.9493L474.639 21.7694C474.459 21.7194 474.269 21.6794 474.089 21.6794C473.809 21.6794 473.579 21.7294 473.399 21.8194L472.799 22.0892C471.329 22.9088 469.859 23.5885 468.569 23.9983C468.199 24.1382 467.879 24.1782 467.599 24.1782C466.359 24.1782 465.719 23.3086 465.719 22.3991C465.719 21.7194 466.129 21.0297 467.049 20.8098C469.899 20.0402 473.349 18.1711 476.059 16.2121L470.539 16.302H470.449C469.249 16.302 468.659 15.4325 468.659 14.5729C468.659 13.6633 469.259 12.7937 470.499 12.7937H470.549C473.679 12.8837 476.339 12.9337 479.009 12.9337C481.679 12.9337 484.389 12.8837 487.609 12.7937H487.659C488.949 12.7937 489.589 13.6633 489.589 14.5729C489.589 15.4824 488.989 16.302 487.699 16.302H487.609L482.139 16.2121L482.149 16.2221ZM485.919 9.84519C483.899 9.75523 481.229 9.70525 478.559 9.70525C476.209 9.70525 473.919 9.75523 472.169 9.84519C469.139 10.0251 467.479 11.3045 467.339 12.7138V14.263C467.339 15.4425 466.279 16.0821 465.229 16.0821C464.179 16.0821 463.159 15.4924 463.119 14.1231V12.3939C463.169 8.52583 467.489 6.60676 471.859 6.38687L476.779 6.24694V3.19843C476.779 1.87907 477.879 1.23938 479.029 1.23938C480.179 1.23938 481.279 1.87907 481.279 3.14845V3.19843C481.229 4.51778 481.229 5.38736 481.229 6.24694C483.119 6.24694 484.909 6.29692 486.329 6.38687C492.169 6.7467 495.339 9.71525 495.389 12.4839C495.389 12.8937 495.439 13.1236 495.439 13.3035C495.439 13.5334 495.389 13.7133 495.389 14.0331C495.249 15.3125 494.149 15.9422 493.089 15.9422C492.029 15.9422 491.019 15.3525 491.019 14.1231V12.7538C490.969 11.5743 489.459 9.97512 485.919 9.83519V9.84519ZM496.669 38.0315C496.299 38.0315 495.839 37.9815 495.379 37.8515C489.819 36.2623 483.609 30.4252 483.609 25.3276C483.609 23.5985 484.249 21.9993 485.859 20.6399C486.869 19.8203 487.379 19.3606 488.619 18.501C489.079 18.1811 489.589 18.0012 490.049 18.0012C491.249 18.0012 492.259 19.0007 492.259 20.1002C492.259 20.6899 491.939 21.3796 491.109 21.8793C490.049 22.519 489.219 23.0188 488.579 23.5185C487.839 24.1082 487.519 24.8379 487.519 25.6175C487.519 28.716 492.389 32.904 497.219 33.8635C498.549 34.1334 499.199 35.0429 499.199 35.9125C499.199 37.002 498.329 38.0514 496.669 38.0514V38.0315Z" fill="white"/>
<path d="M508.3 37.8016C508.3 36.1124 509.5 34.4332 511.93 34.5732C512.85 34.6232 514.46 34.6631 515.24 34.6631C517.58 34.6132 518.23 33.7936 518.32 31.0649C518.37 30.0154 518.37 28.1463 518.37 25.8774C518.37 20.9598 518.32 14.1331 518.28 9.57535C518.23 7.38642 519.94 6.34692 521.64 6.34692C523.34 6.34692 524.95 7.34644 524.95 9.35546C525 13.3635 525 19.0108 525 23.6985C525 27.1168 525 30.0254 524.95 31.3947C524.77 38.0915 520.81 40.8701 515.57 41H511.57C509.41 41 508.31 39.4108 508.31 37.8116L508.3 37.8016ZM513.45 39.031C514.09 39.031 514.78 39.031 515.56 38.981C519.97 38.8411 522.69 36.8421 522.87 31.3747C522.92 30.0554 522.92 27.0968 522.92 23.6385C522.92 18.9008 522.92 13.1636 522.87 9.38544C522.87 8.61582 522.23 8.20602 521.58 8.20602C520.93 8.20602 520.29 8.61582 520.29 9.57535C520.34 14.1331 520.38 21.2796 520.38 26.2372C520.38 28.4662 520.38 30.2453 520.33 31.1548C520.19 35.1629 518.4 36.5722 515.18 36.6222C514.12 36.6222 512.7 36.5722 511.78 36.5722C510.86 36.5722 510.45 37.2119 510.45 37.8016C510.45 38.3913 510.86 38.941 511.69 38.981C512.2 39.031 512.79 39.031 513.44 39.031H513.45Z" fill="white"/>
</svg>
