<svg width="1200" height="116" viewBox="0 0 1200 116" fill="none" xmlns="http://www.w3.org/2000/svg">
<path d="M385.94 3.5198C385.94 5.2198 384.74 6.9198 382.31 6.7898C381.39 6.7398 379.78 6.6998 379 6.6998C376.65 6.7498 376.01 7.5698 375.92 10.3298C375.87 11.3898 375.87 13.2698 375.87 15.5698C375.87 20.5398 375.92 27.4398 375.96 32.0398C376.01 34.2498 374.3 35.3098 372.6 35.3098C370.9 35.3098 369.29 34.2998 369.29 32.2698C369.24 28.2198 369.24 22.5198 369.24 17.7798C369.24 14.3298 369.24 11.3898 369.29 10.0098C369.47 3.2398 373.43 0.439805 378.68 0.299805H382.68C384.84 0.299805 385.95 1.9098 385.95 3.5198H385.94ZM380.79 2.2798C380.15 2.2798 379.41 2.3298 378.67 2.3298C374.25 2.4698 371.54 4.4898 371.36 10.0098C371.31 11.3398 371.31 14.3298 371.31 17.8298C371.31 22.6098 371.31 28.4098 371.36 32.2298C371.36 33.0098 372 33.4298 372.65 33.4298C373.3 33.4298 373.94 33.0198 373.94 32.0498C373.89 27.4498 373.85 20.2298 373.85 15.2098C373.85 12.9598 373.85 11.1598 373.89 10.2398C374.03 6.1898 375.82 4.7698 379.04 4.7198C380.1 4.7198 381.52 4.7698 382.44 4.7698C383.36 4.7698 383.77 4.1298 383.77 3.5298C383.77 2.9298 383.36 2.3798 382.53 2.3298C382.02 2.3298 381.43 2.2798 380.78 2.2798H380.79Z" fill="white"/>
<path d="M401.17 28.1795C401.17 32.1395 403.42 34.4795 406.46 34.4795C408.3 34.4795 410.46 33.6095 412.53 31.7195C415.34 29.1395 416.62 24.4495 416.9 21.1395C417.08 19.1595 417.13 17.4595 417.13 15.9895C417.13 13.3695 416.95 11.4795 416.72 9.77945V9.45945C416.72 8.12945 417.73 7.43945 418.84 7.43945C419.95 7.43945 421.14 8.17945 421.14 9.64945C421.14 9.78945 421.14 9.96945 421.09 10.1095C421.04 10.4295 421 10.7995 421 11.2095C421 15.3995 423.62 22.7595 426.71 24.4095C428.14 25.1495 428.73 26.1595 428.73 27.0795C428.73 28.2295 427.81 29.1495 426.48 29.1495C425.93 29.1495 425.28 28.9695 424.59 28.5495C423.07 27.5395 421.09 24.1295 420.45 21.5595C420.36 21.2795 420.31 21.1895 420.22 21.1895C420.13 21.1895 420.08 21.4195 420.08 21.6995C420.03 26.2095 418.61 31.5895 415.11 34.7195C412.03 37.4295 408.81 38.6795 405.95 38.6795C401.03 38.6795 397.21 34.9495 397.21 28.8795C397.21 28.5595 397.26 28.2395 397.26 27.9095C397.63 22.6195 400.02 17.7895 403.29 13.5595C403.34 13.4695 403.38 13.4195 403.38 13.3795C403.38 13.3395 403.33 13.3295 403.24 13.3295H403.1C402.96 13.3795 402.73 13.3795 402.46 13.3795C401.77 13.3795 400.67 13.2395 399.65 12.6395C398.68 12.0895 398.27 11.3095 398.27 10.6195C398.27 9.55945 399.14 8.63945 400.16 8.63945C400.48 8.63945 400.85 8.72945 401.22 9.00945C401.77 9.41945 402.92 9.87945 403.98 9.87945C404.16 9.87945 404.3 9.87945 404.49 9.82945C405.69 9.68945 407.43 9.18945 408.35 8.72945C408.9 8.44945 409.41 8.31945 409.91 8.31945C411.2 8.31945 412.12 9.32945 412.12 10.4395C412.12 11.3595 411.43 12.3295 409.82 12.7395C406.19 13.7095 401.22 22.4495 401.17 28.0595V28.1995V28.1795Z" fill="white"/>
<path d="M448.96 26.7499C450.75 24.7299 452.59 22.2399 453.84 20.1699C454.58 19.0199 454.71 18.0999 454.76 16.8999C454.8 15.4299 455.96 14.6899 457.06 14.6899C458.16 14.6899 459.31 15.4699 459.31 17.0799V17.2199C459.22 18.8299 458.85 20.3499 457.65 21.9999C456.13 24.1599 452.73 28.1199 450.15 31.6599C449 33.2199 447.85 33.9599 446.75 33.9599C445.65 33.9599 444.5 33.2699 443.39 31.9399C441.87 30.0999 441.14 27.7499 441.14 25.3199C441.14 22.1899 442.38 18.8799 444.91 16.2099C448.27 12.6199 452.87 10.9199 457.33 10.9199C462.57 10.9199 467.63 13.2699 470.16 17.6399C471.31 19.5699 471.82 21.6399 471.82 23.6699C471.82 30.2899 465.98 36.5499 455.35 37.1499H455.12C453.46 37.1499 452.5 36.1799 452.5 35.1699C452.5 34.2999 453.28 33.3799 455.08 33.1899C463.64 32.4499 467.27 27.7599 467.27 23.2999C467.27 21.9199 466.9 20.4899 466.21 19.2999C464.37 16.1699 460.87 14.4199 457.15 14.4199C453.93 14.4199 450.57 15.7099 447.99 18.5099C446.38 20.2999 445.32 22.7899 445.32 25.0399C445.32 26.1399 445.55 27.1099 446.06 27.9799C446.24 28.3499 446.47 28.5299 446.75 28.5299C447.12 28.5299 447.58 28.2099 448.22 27.5599L448.96 26.7299V26.7499Z" fill="white"/>
<path d="M495.79 40.1795H495.65C491.51 40.1795 487.23 38.0595 485.53 34.1495C485.35 33.7395 485.3 33.3695 485.3 33.0495C485.3 31.8095 486.31 30.9795 487.46 30.9795C488.38 30.9795 489.35 31.4895 489.9 32.7295C490.78 34.5695 492.71 35.6295 495.19 35.6295H495.79C497.91 35.6295 498.92 36.7295 498.92 37.8395C498.92 38.9495 497.82 40.1895 495.79 40.1895V40.1795ZM498.92 13.5495C499.24 15.0695 499.61 16.5395 500.02 17.9195C501.26 17.5995 502.55 17.1795 503.88 16.6795C504.29 16.5395 504.71 16.4495 505.08 16.4495C506.32 16.4495 507.06 17.3695 507.06 18.3395C507.06 19.0795 506.6 19.8595 505.59 20.2295C504.07 20.7795 502.65 21.1995 501.31 21.5595C501.95 22.9895 502.64 24.1795 503.43 24.8695C504.26 25.6495 505.04 26.2495 505.64 26.5695C506.56 27.1195 506.97 27.8995 506.97 28.5895C506.97 29.7395 506 30.7495 504.58 30.7495C504.3 30.7495 504.03 30.6995 503.71 30.6095C502.01 30.0995 500.31 30.1495 498.6 29.8295C497.45 29.6495 496.85 28.7695 496.85 27.9895C496.85 27.3495 497.22 26.7895 498.05 26.6095C498.97 26.4295 499.43 26.1995 499.43 25.8695C499.43 25.8195 499.38 25.7295 499.34 25.6395C498.74 24.8595 498.14 23.7095 497.64 22.3295C494.97 22.8395 492.76 23.0195 490.97 23.0195C490.46 23.0195 490.05 22.9695 489.64 22.9695C488.03 22.9195 487.25 21.8695 487.25 20.8995C487.25 19.9295 488.03 18.9195 489.5 18.9195H489.78C490.52 18.9695 491.25 19.0095 492.08 19.0095C493.41 19.0095 494.89 18.9195 496.4 18.6895C495.94 17.1295 495.53 15.5195 495.16 13.9495C492.95 14.2695 491.02 14.6395 489.46 15.0095C489.23 15.0595 489 15.0995 488.77 15.0995C487.39 15.0995 486.56 14.0395 486.56 12.9795C486.56 12.1495 487.11 11.3195 488.35 11.0895C489.73 10.8595 491.89 10.5395 494.33 10.2195C494.05 8.74953 493.78 7.40953 493.64 6.35953C493.6 6.21953 493.6 6.07953 493.6 5.94953C493.6 4.74953 494.66 4.01953 495.72 4.01953C496.69 4.01953 497.65 4.61953 497.79 5.99953C497.88 7.23953 498.07 8.52953 498.3 9.85953C499.36 9.76953 500.46 9.67953 501.52 9.62953H501.7C503.26 9.62953 504 10.5495 504 11.5195C504 12.4895 503.26 13.4095 501.93 13.4095L498.94 13.5495H498.92Z" fill="white"/>
<path d="M529.92 26.7499C531.71 24.7299 533.55 22.2399 534.8 20.1699C535.54 19.0199 535.67 18.0999 535.72 16.8999C535.76 15.4299 536.92 14.6899 538.02 14.6899C539.12 14.6899 540.27 15.4699 540.27 17.0799V17.2199C540.18 18.8299 539.81 20.3499 538.61 21.9999C537.09 24.1599 533.69 28.1199 531.11 31.6599C529.96 33.2199 528.81 33.9599 527.71 33.9599C526.61 33.9599 525.46 33.2699 524.35 31.9399C522.83 30.0999 522.1 27.7499 522.1 25.3199C522.1 22.1899 523.34 18.8799 525.87 16.2099C529.23 12.6199 533.83 10.9199 538.29 10.9199C543.53 10.9199 548.59 13.2699 551.12 17.6399C552.27 19.5699 552.78 21.6399 552.78 23.6699C552.78 30.2899 546.94 36.5499 536.31 37.1499H536.08C534.42 37.1499 533.46 36.1799 533.46 35.1699C533.46 34.2999 534.24 33.3799 536.04 33.1899C544.6 32.4499 548.23 27.7599 548.23 23.2999C548.23 21.9199 547.86 20.4899 547.17 19.2999C545.33 16.1699 541.83 14.4199 538.11 14.4199C534.89 14.4199 531.53 15.7099 528.95 18.5099C527.34 20.2999 526.28 22.7899 526.28 25.0399C526.28 26.1399 526.51 27.1099 527.02 27.9799C527.2 28.3499 527.43 28.5299 527.71 28.5299C528.08 28.5299 528.54 28.2099 529.18 27.5599L529.92 26.7299V26.7499Z" fill="white"/>
<path d="M587.52 16.6803C586.92 16.7303 586.32 16.9603 586.05 17.1903C585.13 18.0203 583.84 18.9803 582.46 19.9503C586.46 21.5603 588.76 25.9803 588.76 30.3503C588.76 34.7203 586.37 39.1403 580.89 40.3803C580.52 40.4703 580.2 40.5203 579.88 40.5203C578.27 40.5203 577.35 39.4203 577.35 38.3603C577.35 37.4903 577.99 36.6103 579.37 36.3803C583.1 35.8703 584.89 32.7903 584.89 29.6203C584.89 29.3403 584.89 29.1103 584.84 28.8403C581.39 32.2403 576.1 36.5203 568.88 38.7803C568.51 38.8703 568.19 38.9603 567.91 38.9603C566.62 38.9603 565.84 38.0403 565.84 37.0703C565.84 36.2403 566.39 35.3703 567.68 35.0503C574.4 33.3503 580.65 28.7503 583.69 25.3003C583.51 25.0203 583.32 24.7503 583.09 24.4703C580.38 26.6803 575.59 29.9003 571.08 31.2803C570.8 31.3703 570.57 31.3703 570.34 31.3703C569.14 31.3703 568.45 30.4503 568.45 29.5803C568.45 28.8403 568.86 28.1503 569.83 27.8803C574.02 26.8203 578.07 24.4303 580.46 22.5003L580 22.3203C579.82 22.2703 579.63 22.2303 579.45 22.2303C579.17 22.2303 578.94 22.2803 578.76 22.3703L578.16 22.6503C576.69 23.4803 575.21 24.1703 573.93 24.5803C573.56 24.7203 573.24 24.7603 572.96 24.7603C571.72 24.7603 571.07 23.8903 571.07 22.9703C571.07 22.2803 571.48 21.5903 572.4 21.3603C575.25 20.5803 578.7 18.6903 581.42 16.7103L575.9 16.8003H575.81C574.61 16.8003 574.02 15.9303 574.02 15.0503C574.02 14.1303 574.62 13.2603 575.86 13.2603H575.91C579.04 13.3503 581.71 13.4003 584.38 13.4003C587.05 13.4003 589.76 13.3503 592.98 13.2603H593.03C594.32 13.2603 594.96 14.1303 594.96 15.0503C594.96 15.9703 594.36 16.8003 593.07 16.8003H592.98L587.51 16.7103L587.52 16.6803ZM591.29 10.2303C589.27 10.1403 586.6 10.0903 583.93 10.0903C581.58 10.0903 579.28 10.1403 577.54 10.2303C574.5 10.4103 572.85 11.7003 572.71 13.1303V14.6903C572.71 15.8903 571.65 16.5303 570.59 16.5303C569.53 16.5303 568.52 15.9303 568.47 14.5503V12.8003C568.51 8.89027 572.84 6.96027 577.21 6.73027L582.13 6.59027V3.51027C582.13 2.18027 583.23 1.53027 584.38 1.53027C585.53 1.53027 586.63 2.17027 586.63 3.46027V3.51027C586.58 4.84027 586.58 5.72027 586.58 6.59027C588.47 6.59027 590.26 6.64027 591.69 6.73027C597.53 7.10027 600.71 10.0903 600.75 12.8903C600.75 13.3003 600.8 13.5303 600.8 13.7203C600.8 13.9503 600.75 14.1303 600.75 14.4603C600.61 15.7503 599.51 16.3903 598.45 16.3903C597.39 16.3903 596.38 15.7903 596.38 14.5503V13.1703C596.33 11.9703 594.82 10.3603 591.27 10.2303H591.29ZM602.05 38.7103C601.68 38.7103 601.22 38.6603 600.76 38.5303C595.19 36.9203 588.98 31.0303 588.98 25.8803C588.98 24.1303 589.62 22.5203 591.23 21.1403C592.24 20.3103 592.75 19.8503 593.99 18.9803C594.45 18.6603 594.96 18.4703 595.42 18.4703C596.62 18.4703 597.63 19.4803 597.63 20.5903C597.63 21.1903 597.31 21.8803 596.48 22.3803C595.42 23.0203 594.59 23.5303 593.95 24.0403C593.21 24.6403 592.89 25.3703 592.89 26.1603C592.89 29.2903 597.77 33.5203 602.6 34.4903C603.93 34.7703 604.58 35.6903 604.58 36.5603C604.58 37.6603 603.71 38.7203 602.05 38.7203V38.7103Z" fill="white"/>
<path d="M613.69 38.4795C613.69 36.7795 614.89 35.0795 617.32 35.2095C618.24 35.2595 619.85 35.2995 620.63 35.2995C622.98 35.2495 623.62 34.4295 623.71 31.6695C623.76 30.6095 623.76 28.7295 623.76 26.4295C623.76 21.4595 623.71 14.5595 623.67 9.95945C623.62 7.74945 625.33 6.68945 627.03 6.68945C628.73 6.68945 630.34 7.69945 630.34 9.72945C630.39 13.7795 630.39 19.4795 630.39 24.2195C630.39 27.6695 630.39 30.6095 630.34 31.9895C630.16 38.7495 626.2 41.5595 620.96 41.6995H616.96C614.8 41.6995 613.69 40.0895 613.69 38.4795ZM618.84 39.7195C619.48 39.7195 620.17 39.7195 620.96 39.6695C625.38 39.5295 628.09 37.5095 628.27 31.9895C628.32 30.6595 628.32 27.6695 628.32 24.1695C628.32 19.3895 628.32 13.5895 628.27 9.76945C628.27 8.98945 627.63 8.56945 626.98 8.56945C626.33 8.56945 625.69 8.97945 625.69 9.94945C625.74 14.5495 625.78 21.7695 625.78 26.7895C625.78 29.0395 625.78 30.8395 625.73 31.7595C625.59 35.8095 623.8 37.2295 620.58 37.2795C619.52 37.2795 618.1 37.2295 617.17 37.2295C616.3 37.2295 615.84 37.8695 615.84 38.4695C615.84 39.0695 616.25 39.6195 617.08 39.6695C617.59 39.7195 618.18 39.7195 618.83 39.7195H618.84Z" fill="white"/>
<path d="M682.23 18.1C678.83 22.84 673.9 26.75 667 29.6C666.45 29.83 665.94 29.92 665.53 29.92C664.15 29.92 663.37 29 663.37 28.03C663.37 27.2 663.92 26.37 665.16 25.91C670.82 23.93 674.78 21.08 677.44 18.14C674.4 18.14 671.32 18.23 668.29 18.28H668.2C666.77 18.28 666.13 17.41 666.13 16.49C666.13 15.52 666.87 14.56 668.2 14.56H668.29C672.15 14.65 676.02 14.74 679.93 14.79C680.34 14.05 680.71 13.36 680.99 12.67C679.43 12.72 678.05 12.72 677.45 12.72C673.49 12.67 672.02 11.25 672.02 9.72996C672.02 8.66996 672.76 7.56996 673.86 6.82996C675.52 5.72996 679.06 3.37996 680.35 1.94996C680.81 1.43996 681.41 1.20996 681.96 1.20996C683.16 1.20996 684.31 2.12996 684.31 3.27996C684.31 3.73996 684.13 4.24996 683.67 4.70996C682.38 5.99996 679.16 7.69996 678.06 8.29996C677.74 8.47996 677.55 8.70996 677.55 8.93996C677.55 9.21996 677.87 9.44996 678.61 9.44996C680.04 9.44996 685.42 9.30996 686.89 9.16996C688.27 9.02996 689.05 8.70996 689.05 8.24996C689.05 7.92996 688.68 7.55996 687.85 7.18996L686.88 6.72996C686.14 6.40996 685.82 5.94996 685.82 5.48996C685.82 4.70996 686.74 3.87996 687.89 3.87996C688.21 3.87996 688.58 3.92996 688.9 4.05996C691.98 5.25996 695.71 7.73996 697.32 9.80996C697.64 10.27 697.83 10.68 697.83 11.1C697.83 12.16 696.73 12.99 695.62 12.99C694.93 12.99 694.29 12.71 693.83 12.02C693.6 11.65 693.28 11.28 692.91 10.92C692.82 10.83 692.73 10.78 692.63 10.78C692.03 10.78 691.48 12.16 688.49 12.34C687.8 12.39 686.51 12.48 684.99 12.52C685.04 12.66 685.08 12.8 685.08 12.93C685.08 13.16 684.99 13.44 684.9 13.67L684.35 14.77C689.36 14.77 694.38 14.68 699.35 14.54H699.44C700.82 14.54 701.56 15.51 701.56 16.43C701.56 17.35 700.87 18.27 699.44 18.27H699.35C696.18 18.22 692.96 18.13 689.78 18.13C693.28 21.63 697.51 23.88 702.25 24.98C703.54 25.3 704.09 26.22 704.09 27.14C704.09 28.29 703.26 29.39 701.74 29.39C701.42 29.39 701.1 29.34 700.73 29.25C695.35 27.64 688.95 22.63 685.36 18.07H682.23V18.1ZM670.08 38.48C670.08 37.56 670.82 36.59 672.15 36.59H672.7C680.84 36.59 686.87 33.28 691.15 28.17C691.66 27.57 692.21 27.34 692.76 27.34C693.86 27.34 694.83 28.35 694.83 29.46C694.83 29.97 694.65 30.47 694.23 30.93C688.94 36.59 681.26 40.41 672.42 40.41C670.81 40.46 670.07 39.44 670.07 38.48H670.08ZM674.32 35.31C674.14 35.36 674 35.36 673.81 35.36C672.66 35.36 672.15 34.62 672.15 33.8C672.15 33.02 672.66 32.19 673.67 32.01C679.56 30.91 683.65 28.15 686.92 24.42C687.38 23.91 687.89 23.68 688.35 23.68C689.36 23.68 690.28 24.65 690.28 25.66C690.28 26.12 690.14 26.58 689.73 26.99C686.23 30.72 680.53 34.26 674.32 35.32V35.31ZM674.92 30.34C674.6 30.48 674.28 30.52 674 30.52C672.99 30.52 672.39 29.74 672.39 28.91C672.39 28.31 672.71 27.67 673.49 27.39C677.03 25.96 680.34 23.8 682.92 20.72C683.38 20.17 683.93 19.94 684.39 19.94C685.36 19.94 686.18 20.77 686.18 21.78C686.18 22.19 686 22.7 685.58 23.16C682.82 26.1 679.05 28.86 674.91 30.34H674.92Z" fill="white"/>
<path d="M736.46 14.6498C740.14 11.4798 743.45 7.83977 746.21 3.97977C746.76 3.19977 747.5 2.87977 748.19 2.87977C749.39 2.87977 750.44 3.74977 750.44 4.94977C750.44 5.35977 750.26 5.86977 749.89 6.37977C747.77 9.08977 745.1 11.8998 742.16 14.5698C744.55 14.5198 747.08 14.4298 749.89 14.3398H750.03C751.41 14.3398 752.1 15.2098 752.1 16.1298C752.1 17.0998 751.36 18.0598 749.89 18.0598H749.8C745.52 17.9198 741.89 17.8298 738.44 17.7798C736.6 19.2498 734.67 20.7198 732.69 22.0598C732.65 22.1498 732.65 22.1998 732.65 22.2898C736.15 21.7398 739.78 20.9998 743.41 20.0798C743.69 19.9898 743.96 19.9898 744.19 19.9898C745.48 19.9898 746.17 20.8198 746.17 21.7398C746.17 22.6598 745.57 23.4898 744.24 23.8098C740.42 24.6398 734.62 25.3298 731.77 25.5998C731.77 25.7398 731.73 25.8298 731.73 25.9198C731.73 26.9298 732.51 27.5298 733.85 27.6698C735.28 27.8098 736.47 27.8098 738.04 27.9898C742.09 28.4498 744.8 29.7398 744.8 32.9098V33.3198C744.39 38.4298 738.68 39.9898 734.04 39.9898C732.11 39.9898 730.41 39.7098 729.3 39.3498C728.1 38.9398 727.55 38.0198 727.55 37.1398C727.55 36.1698 728.24 35.2498 729.48 35.2498C729.85 35.2498 730.22 35.3398 730.63 35.4798C731.69 35.8898 733.02 36.0798 734.36 36.0798C737.26 36.0798 740.16 35.1098 740.3 33.2298V32.9998C740.3 31.8498 739.38 31.6698 737.68 31.4398C736.3 31.2998 734.97 31.2998 733.31 31.1198C730.04 30.7998 727.74 29.5998 727.74 26.7498C727.74 26.3398 727.83 25.8798 727.92 25.3698C727.92 25.2798 727.97 25.1398 727.97 25.0498C723.88 27.3998 719.74 29.2798 715.87 30.3398C715.55 30.4298 715.23 30.4798 714.95 30.4798C713.52 30.4798 712.65 29.4698 712.65 28.4098C712.65 27.5398 713.25 26.6598 714.63 26.3398C720.8 24.8698 726.96 21.8298 732.57 17.7398C728.06 17.7898 723.46 17.8798 717.62 18.0598H717.53C715.97 18.0598 715.23 17.1898 715.23 16.2698C715.23 15.2998 716.01 14.3398 717.48 14.3398H717.62C722.31 14.5198 726.27 14.6198 730 14.6598V11.3498C727.84 11.3498 725.58 11.3998 722.87 11.4398H722.78C721.4 11.4398 720.8 10.6098 720.8 9.77977C720.8 8.80976 721.54 7.84977 722.82 7.84977H722.87C725.54 7.93977 727.79 7.98977 729.95 7.98977C729.9 6.60977 729.86 5.17977 729.77 3.75977V3.57977C729.77 2.19977 730.83 1.50977 731.93 1.50977C733.03 1.50977 734.18 2.19977 734.18 3.57977V3.75977C734.09 5.13977 734.04 6.56977 734 7.94977C735.52 7.94977 737.08 7.89977 738.88 7.85977H738.92C740.21 7.85977 740.9 8.77977 740.9 9.69977C740.9 10.6198 740.26 11.4498 738.97 11.4498H738.88C737.09 11.4498 735.47 11.3998 733.96 11.3998V14.6698H736.49L736.46 14.6498Z" fill="white"/>
<path d="M769.541 37.4202C769.171 37.5102 768.801 37.5602 768.481 37.5602C767.011 37.5602 766.041 36.5902 766.041 35.4902C766.041 34.6202 766.681 33.7002 768.341 33.2402C777.081 30.8002 782.971 23.9902 784.071 18.1502C784.121 17.8302 784.161 17.5502 784.161 17.2802C784.161 15.5302 783.061 14.3402 780.621 14.2902H779.191C775.331 14.2902 771.051 14.5702 768.101 14.6102C766.351 14.6102 765.431 13.5102 765.431 12.4502C765.431 11.3902 766.301 10.3302 768.011 10.3302H768.191C768.881 10.3802 769.661 10.3802 770.491 10.3802C773.021 10.3802 776.061 10.2902 779.181 10.2902H781.301C786.361 10.3802 789.081 12.9102 789.081 16.8702C789.081 17.4702 789.031 18.0702 788.901 18.7102C787.521 26.1602 780.251 34.3502 769.531 37.4302L769.541 37.4202ZM792.541 12.5402C792.361 12.5402 792.221 12.4902 792.031 12.4902C789.961 12.2102 787.981 10.9702 787.981 8.2102C787.981 5.8602 789.871 3.7002 792.491 3.7002C795.301 3.7002 797.231 5.5902 797.231 8.2102C797.231 10.4602 794.981 12.5302 792.541 12.5302V12.5402ZM792.541 5.9102C791.251 5.9102 790.331 6.9702 790.331 8.1602C790.331 9.5402 791.301 10.1802 792.311 10.2802H792.591C793.831 10.2802 794.941 9.2702 794.941 8.1602C794.941 6.8302 793.981 5.9102 792.551 5.9102H792.541Z" fill="white"/>
<path d="M812.87 38.0699C812.69 38.1199 812.55 38.1199 812.41 38.1199C810.98 38.1199 810.16 37.0599 810.16 35.9999C810.16 35.1299 810.76 34.2099 812.18 33.9799C820.42 32.6899 826.07 27.8199 827.87 22.8499C828.05 22.3399 828.15 21.8799 828.15 21.4699C828.15 19.9999 827.09 18.9899 825.07 18.9899C820.98 18.9899 815.09 19.2699 811.41 19.3099C809.94 19.3099 809.11 18.2099 809.11 17.1499C809.11 16.1799 809.85 15.2199 811.55 15.2199H813.25C816.01 15.2199 819.6 15.1699 823.28 15.1699H825.58C829.91 15.1699 832.9 17.5199 832.9 21.0999C832.9 21.8399 832.81 22.5699 832.53 23.3999C830.37 30.3899 822.78 36.6499 812.89 38.0799L812.87 38.0699ZM827.78 11.4299H827.55C826.12 11.3399 824.42 11.2899 822.67 11.2899C819.91 11.2899 817.06 11.3799 814.9 11.4699H814.76C813.2 11.4699 812.41 10.4999 812.41 9.48988C812.41 8.47988 813.19 7.50988 814.66 7.50988H814.75C815.72 7.55988 816.87 7.55988 818.11 7.55988C821.28 7.55988 825.06 7.46988 827.63 7.37988H827.86C829.47 7.37988 830.3 8.38988 830.3 9.35988C830.3 10.4199 829.42 11.4299 827.77 11.4299H827.78Z" fill="white"/>
<path d="M854.96 20.4901C854.41 20.4901 853.86 20.2601 853.4 19.7501C852.43 18.5501 850.5 17.0401 848.52 16.4401C847.42 16.1201 846.91 15.3801 846.91 14.6501C846.91 13.6401 847.88 12.5801 849.35 12.5801C849.63 12.5801 849.9 12.6301 850.18 12.6701C852.43 13.2201 855.33 14.6501 856.71 16.2601C857.22 16.8601 857.45 17.5001 857.45 18.0501C857.45 19.4301 856.21 20.4901 854.97 20.4901H854.96ZM851.1 35.6301C850.82 35.6801 850.55 35.7201 850.32 35.7201C848.53 35.7201 847.42 34.5701 847.42 33.4201C847.42 32.4101 848.29 31.4001 850.27 31.1701C860.3 29.9701 868.49 20.6301 871.34 15.2101C871.85 14.2401 872.67 13.8301 873.5 13.8301C874.65 13.8301 875.75 14.6601 875.75 15.9901C875.75 16.4001 875.61 16.9101 875.38 17.4201C872.07 24.3201 862.45 33.7101 851.09 35.6401L851.1 35.6301Z" fill="white"/>
<path d="M957.6 114.13C951.09 114.13 945.92 114.25 942.24 114.38C940.64 114.38 940.64 112.41 942.12 112.17C944.82 111.8 946.42 111.43 948.27 110.94C952.82 109.71 953.19 106.52 953.31 94.1C953.56 86.11 953.56 78.49 953.56 70.26V46.29C953.68 35.72 953.19 31.17 948.64 30.19C946.43 29.58 943.85 29.21 941.76 28.96C940.78 28.84 940.41 28.35 940.41 27.73C940.41 27.24 940.9 26.62 941.76 26.62C946.43 26.62 949.26 26.74 957.61 26.74C964.49 26.74 970.15 26.25 979 26.25C998.3 26.25 1006.65 37.8 1006.65 49.73C1006.65 67.31 994.11 77.02 973.22 76.77C971.5 76.65 971.62 74.31 973.34 74.31C988.7 73.45 996.08 65.21 996.08 52.56C996.08 39.91 987.85 29.45 973.1 29.45C970.52 29.45 968.55 29.45 966.83 29.57C964.62 29.82 963.51 31.17 963.39 33.38V49.36C963.39 55.01 963.39 61.16 963.27 70.25C963.15 79.96 963.27 88.93 963.27 94.09C963.27 105.89 964.13 109.45 968.43 110.44C971.26 111.05 976.3 111.67 978.75 111.92C981.09 112.17 980.84 114.5 979.12 114.5C975.56 114.38 965.35 114.13 957.61 114.13H957.6Z" fill="#6D8880"/>
<path d="M1037.48 114.13C1031.21 114.13 1026.54 114.38 1025.56 114.38C1023.84 114.38 1023.59 112.17 1025.81 111.8C1026.3 111.68 1028.76 111.19 1030.48 110.45C1032.32 109.59 1033.06 106.52 1033.06 93.4903V55.5103C1033.06 46.1703 1032.94 37.9303 1032.57 34.3703C1032.32 28.2203 1031.83 25.7703 1030.48 25.7703C1029.01 25.7703 1025.93 26.2603 1024.33 26.3803C1023.47 26.5003 1022.98 25.8903 1022.98 25.2703C1022.98 24.6503 1023.35 24.0403 1024.21 23.9203C1030.85 22.3203 1036.01 19.9903 1040.43 17.6503C1040.92 17.4003 1041.41 17.2803 1041.9 17.2803C1042.88 17.2803 1043.62 18.1403 1043.25 20.1103C1042.88 21.8303 1042.27 25.7603 1042.14 32.1503C1041.89 36.7003 1041.77 45.0603 1041.77 54.4003V93.2403C1041.77 106.39 1042.14 109.22 1043.61 110.2C1044.72 111.06 1048.4 111.67 1050.37 112.04C1051.11 112.16 1051.48 112.65 1051.48 113.15C1051.48 113.89 1050.87 114.5 1050.01 114.5C1048.53 114.5 1043.74 114.13 1037.47 114.13H1037.48Z" fill="#6D8880"/>
<path d="M1082.71 115.73C1075.21 115.73 1070.91 110.2 1070.91 104.79C1070.91 100.98 1072.39 97.4204 1078.04 94.9604L1095.99 87.2204C1097.83 86.3604 1098.82 85.0104 1098.82 82.9204C1098.94 80.7104 1098.94 79.1104 1098.94 77.6304C1098.82 70.7504 1094.52 64.3604 1088.86 64.3604C1085.91 64.3604 1083.7 65.7104 1082.47 66.8204C1081.61 67.8004 1080.87 71.1204 1080.5 73.3304C1080.01 75.9104 1077.18 77.8804 1075.09 77.8804C1073.61 77.8804 1072.51 77.3904 1072.26 75.7904C1072.14 74.6804 1072.01 73.3304 1072.14 72.5904C1072.88 69.0304 1086.89 59.4404 1094.51 59.4404C1099.92 59.4404 1107.91 64.8504 1107.78 77.0204C1107.66 87.3404 1107.29 91.8904 1107.17 102.83C1106.92 108.48 1108.28 110.33 1110.73 110.33C1111.96 110.33 1113.19 109.72 1115.03 107.87C1115.77 107.13 1116.63 107.38 1116.63 108.24C1116.63 108.36 1116.63 108.61 1116.51 108.85C1113.93 114.01 1110.61 115.73 1106.92 115.73C1104.22 115.73 1100.53 114.62 1098.93 110.57C1098.07 108.36 1097.46 107.99 1095.61 109.59C1091.55 113.65 1087.62 115.49 1082.95 115.74H1082.7L1082.71 115.73ZM1095 107.49C1097.7 105.77 1098.44 103.93 1098.56 99.6204C1098.68 97.5304 1098.68 95.4404 1098.68 93.2304C1098.8 90.4004 1097.94 88.6804 1094.38 90.4004C1090.82 92.1204 1087.74 93.6004 1084.67 95.1904C1081.47 96.9104 1080.49 99.2504 1080.49 102.69C1080.49 107.36 1083.19 110.31 1087.37 110.31C1090.2 110.31 1092.53 109.08 1094.99 107.48L1095 107.49Z" fill="#6D8880"/>
<path d="M1137.28 112.16C1138.63 111.91 1139.86 111.55 1141.46 111.05C1143.8 110.31 1143.92 105.89 1143.92 95.1898C1143.92 88.4298 1143.92 82.4098 1143.8 77.1198C1143.68 70.1098 1142.69 68.5198 1141.1 68.5198C1139.99 68.5198 1138.27 68.6398 1136.31 68.7698C1135.57 68.8898 1135.08 68.2798 1135.08 67.6598C1135.08 67.1698 1135.45 66.5498 1136.06 66.4298C1141.59 64.9498 1147.12 62.3698 1151.3 60.0398C1151.67 59.7898 1152.16 59.6698 1152.53 59.6698C1153.39 59.6698 1154.13 60.2798 1153.88 61.2698L1153.51 63.3598C1153.02 66.6798 1154.62 67.0498 1157.32 65.0798C1162.97 60.8998 1166.29 59.5498 1171.21 59.5498C1181.66 59.5498 1189.4 66.3098 1189.52 77.1298C1189.52 84.2598 1189.52 91.5098 1189.64 100.61C1189.76 107.62 1190.38 110.07 1191.85 110.69C1193.57 111.43 1196.03 111.67 1197.26 111.92C1198.12 112.04 1198.61 112.66 1198.61 113.27C1198.61 113.88 1198.12 114.38 1197.26 114.38C1195.66 114.38 1191.73 114.13 1184.72 114.13C1178.33 114.13 1173.78 114.38 1173.04 114.38C1171.32 114.38 1171.2 112.29 1172.92 111.92C1174.27 111.67 1176.48 111.31 1178.33 110.69C1179.8 110.2 1180.66 107.74 1180.66 100.73C1180.66 91.7598 1180.66 83.8898 1180.54 79.4698C1180.29 71.1098 1175.87 65.2098 1167.02 65.2098C1162.35 65.2098 1158.54 66.8098 1154.98 69.2698C1153.51 70.4998 1152.89 71.7298 1152.77 73.6898V95.0798C1152.77 105.65 1152.65 110.32 1154.37 110.94C1155.97 111.43 1157.57 111.68 1160.15 112.05C1161.87 112.3 1161.62 114.39 1159.9 114.39C1156.7 114.39 1152.4 114.14 1148.22 114.14C1143.3 114.14 1138.26 114.51 1137.28 114.51C1135.56 114.51 1135.56 112.42 1137.28 112.17V112.16Z" fill="#6D8880"/>
</svg>
