<svg width="335" height="86" viewBox="0 0 335 86" fill="none" xmlns="http://www.w3.org/2000/svg">
<path d="M130.844 32.3763C128.682 32.3763 126.965 32.4163 125.743 32.4597C125.212 32.4597 125.212 31.803 125.704 31.723C126.6 31.5997 127.131 31.4763 127.746 31.313C129.256 30.903 129.379 29.8397 129.419 25.6997C129.502 23.0363 129.502 20.4963 129.502 17.753V9.76301C129.542 6.23968 129.379 4.72301 127.868 4.39634C127.135 4.19301 126.278 4.06967 125.584 3.98634C125.259 3.94634 125.136 3.78301 125.136 3.57634C125.136 3.41301 125.298 3.20634 125.584 3.20634C127.135 3.20634 128.074 3.24634 130.847 3.24634C133.131 3.24634 135.011 3.08301 137.949 3.08301C144.358 3.08301 147.13 6.93301 147.13 10.9097C147.13 16.7697 142.967 20.0063 136.03 19.923C135.459 19.883 135.499 19.103 136.07 19.103C141.17 18.8163 143.621 16.0697 143.621 11.853C143.621 7.63634 140.888 4.14967 135.99 4.14967C135.134 4.14967 134.48 4.14967 133.908 4.18967C133.175 4.27301 132.806 4.72301 132.766 5.45967V10.7863C132.766 12.6697 132.766 14.7197 132.726 17.7497C132.686 20.9863 132.726 23.9763 132.726 25.6963C132.726 29.6297 133.012 30.8163 134.44 31.1463C135.379 31.3497 137.053 31.5563 137.866 31.6397C138.643 31.723 138.56 32.4997 137.989 32.4997C136.807 32.4597 133.417 32.3763 130.847 32.3763H130.844Z" fill="#6D8880"/>
<path d="M157.368 32.3761C155.286 32.3761 153.736 32.4594 153.41 32.4594C152.839 32.4594 152.756 31.7228 153.493 31.5994C153.656 31.5594 154.473 31.3961 155.044 31.1494C155.655 30.8628 155.901 29.8394 155.901 25.4961V12.8361C155.901 9.72277 155.861 6.97611 155.738 5.78944C155.655 3.73944 155.492 2.92277 155.044 2.92277C154.556 2.92277 153.533 3.08611 153.002 3.12611C152.716 3.16611 152.554 2.96277 152.554 2.75611C152.554 2.54944 152.677 2.34611 152.962 2.30611C155.167 1.77277 156.88 0.996107 158.348 0.216107C158.511 0.132773 158.673 0.0927734 158.836 0.0927734C159.161 0.0927734 159.407 0.37944 159.284 1.03611C159.161 1.60944 158.959 2.91944 158.916 5.04944C158.833 6.56611 158.793 9.35277 158.793 12.4661V25.4128C158.793 29.7961 158.916 30.7394 159.404 31.0661C159.772 31.3528 160.994 31.5561 161.648 31.6794C161.894 31.7194 162.017 31.8828 162.017 32.0494C162.017 32.2961 161.814 32.4994 161.529 32.4994C161.037 32.4994 159.447 32.3761 157.365 32.3761H157.368Z" fill="#6D8880"/>
<path d="M172.386 32.9098C169.896 32.9098 168.468 31.0665 168.468 29.2632C168.468 27.9932 168.959 26.8065 170.835 25.9865L176.795 23.4065C177.406 23.1198 177.735 22.6698 177.735 21.9732C177.775 21.2365 177.775 20.7032 177.775 20.2098C177.735 17.9165 176.307 15.7865 174.428 15.7865C173.448 15.7865 172.715 16.2365 172.306 16.6065C172.021 16.9332 171.775 18.0398 171.652 18.7765C171.489 19.6365 170.55 20.2932 169.856 20.2932C169.364 20.2932 168.999 20.1298 168.916 19.5965C168.876 19.2265 168.833 18.7765 168.876 18.5298C169.122 17.3432 173.774 14.1465 176.304 14.1465C178.1 14.1465 180.753 15.9498 180.71 20.0065C180.67 23.4465 180.548 24.9632 180.508 28.6098C180.425 30.4932 180.876 31.1098 181.69 31.1098C182.098 31.1098 182.507 30.9065 183.118 30.2898C183.363 30.0432 183.649 30.1265 183.649 30.4132C183.649 30.4532 183.649 30.5365 183.609 30.6165C182.752 32.3365 181.65 32.9098 180.425 32.9098C179.528 32.9098 178.303 32.5398 177.772 31.1898C177.486 30.4532 177.284 30.3298 176.669 30.8632C175.321 32.2165 174.016 32.8298 172.466 32.9132H172.383L172.386 32.9098ZM176.467 30.1632C177.363 29.5898 177.609 28.9765 177.649 27.5398C177.689 26.8432 177.689 26.1465 177.689 25.4098C177.729 24.4665 177.443 23.8932 176.261 24.4665C175.079 25.0398 174.056 25.5332 173.037 26.0632C171.974 26.6365 171.649 27.4165 171.649 28.5632C171.649 30.1198 172.545 31.1032 173.933 31.1032C174.873 31.1032 175.647 30.6932 176.463 30.1598L176.467 30.1632Z" fill="#6D8880"/>
<path d="M190.506 31.7203C190.954 31.6369 191.363 31.5169 191.894 31.3503C192.671 31.1036 192.711 29.6303 192.711 26.0636C192.711 23.8103 192.711 21.8036 192.671 20.0403C192.631 17.7036 192.302 17.1736 191.774 17.1736C191.406 17.1736 190.835 17.2136 190.184 17.2569C189.938 17.2969 189.775 17.0936 189.775 16.8869C189.775 16.7236 189.898 16.5169 190.101 16.4769C191.937 15.9836 193.773 15.1236 195.161 14.3469C195.284 14.2636 195.447 14.2236 195.57 14.2236C195.855 14.2236 196.101 14.4269 196.018 14.7569L195.895 15.4536C195.732 16.5603 196.264 16.6836 197.16 16.0269C199.036 14.6336 200.139 14.1836 201.772 14.1836C205.242 14.1836 207.812 16.4369 207.852 20.0436C207.852 22.4203 207.852 24.8369 207.892 27.8703C207.932 30.2069 208.138 31.0236 208.626 31.2303C209.197 31.4769 210.014 31.5569 210.422 31.6403C210.708 31.6803 210.87 31.8869 210.87 32.0903C210.87 32.2936 210.708 32.4603 210.422 32.4603C209.891 32.4603 208.586 32.3769 206.258 32.3769C204.136 32.3769 202.626 32.4603 202.38 32.4603C201.809 32.4603 201.769 31.7636 202.34 31.6403C202.788 31.5569 203.522 31.4369 204.136 31.2303C204.625 31.0669 204.91 30.2469 204.91 27.9103C204.91 24.9203 204.91 22.2969 204.87 20.8236C204.787 18.0369 203.32 16.0703 200.381 16.0703C198.83 16.0703 197.565 16.6036 196.383 17.4236C195.895 17.8336 195.689 18.2436 195.649 18.8969V26.0269C195.649 29.5503 195.609 31.1069 196.181 31.3136C196.712 31.4769 197.243 31.5603 198.1 31.6836C198.671 31.7669 198.588 32.4636 198.017 32.4636C196.954 32.4636 195.526 32.3803 194.138 32.3803C192.505 32.3803 190.831 32.5036 190.506 32.5036C189.935 32.5036 189.935 31.8069 190.506 31.7236V31.7203Z" fill="#6D8880"/>
<path d="M11.1937 60.3469C11.1937 61.4802 10.4008 62.6135 8.79518 62.5269C8.18729 62.4935 7.12348 62.4669 6.6081 62.4669C5.05533 62.5002 4.63245 63.0469 4.57299 64.8869C4.53995 65.5935 4.53995 66.8469 4.53995 68.3802C4.53995 71.6935 4.57299 76.2935 4.59942 79.3602C4.63245 80.8335 3.50257 81.5402 2.3793 81.5402C1.25602 81.5402 0.192217 80.8669 0.192217 79.5135C0.15918 76.8135 0.15918 73.0135 0.15918 69.8535C0.15918 67.5535 0.15918 65.5935 0.192217 64.6735C0.311152 60.1602 2.92772 58.2935 6.39666 58.2002H9.03965C10.4669 58.2002 11.2003 59.2735 11.2003 60.3469H11.1937ZM7.79084 59.5202C7.36796 59.5202 6.879 59.5535 6.39005 59.5535C3.46954 59.6469 1.6789 60.9935 1.55997 64.6735C1.52693 65.5602 1.52693 67.5535 1.52693 69.8869C1.52693 73.0735 1.52693 76.9402 1.55997 79.4869C1.55997 80.0069 1.98285 80.2869 2.41234 80.2869C2.84182 80.2869 3.2647 80.0135 3.2647 79.3669C3.23167 76.3002 3.20524 71.4869 3.20524 68.1402C3.20524 66.6402 3.20524 65.4402 3.23167 64.8269C3.32417 62.1269 4.50691 61.1802 6.63453 61.1469C7.33492 61.1469 8.27318 61.1802 8.88107 61.1802C9.48896 61.1802 9.75987 60.7535 9.75987 60.3535C9.75987 59.9535 9.48896 59.5869 8.94054 59.5535C8.60356 59.5535 8.21372 59.5202 7.78423 59.5202H7.79084Z" fill="white"/>
<path d="M21.2562 76.7866C21.2562 79.4266 22.7429 80.9866 24.7516 80.9866C25.9674 80.9866 27.3946 80.4066 28.7623 79.1466C30.619 77.4266 31.4648 74.3 31.6498 72.0933C31.7687 70.7733 31.8018 69.64 31.8018 68.66C31.8018 66.9133 31.6828 65.6533 31.5309 64.52V64.3066C31.5309 63.42 32.1982 62.96 32.9317 62.96C33.6651 62.96 34.4514 63.4533 34.4514 64.4333C34.4514 64.5266 34.4514 64.6466 34.4183 64.74C34.3853 64.9533 34.3589 65.2 34.3589 65.4733C34.3589 68.2666 36.09 73.1733 38.1318 74.2733C39.0766 74.7666 39.4665 75.44 39.4665 76.0533C39.4665 76.82 38.8586 77.4333 37.9798 77.4333C37.6164 77.4333 37.1869 77.3133 36.731 77.0333C35.7266 76.36 34.4183 74.0866 33.9955 72.3733C33.936 72.1866 33.903 72.1266 33.8435 72.1266C33.784 72.1266 33.751 72.28 33.751 72.4666C33.718 75.4733 32.7797 79.06 30.4671 81.1466C28.432 82.9533 26.3043 83.7866 24.4146 83.7866C21.1637 83.7866 18.6396 81.3 18.6396 77.2533C18.6396 77.04 18.6727 76.8266 18.6727 76.6066C18.9172 73.08 20.4964 69.86 22.657 67.04C22.69 66.98 22.7165 66.9466 22.7165 66.92C22.7165 66.8933 22.6834 66.8866 22.624 66.8866H22.5315C22.439 66.92 22.287 66.92 22.1086 66.92C21.6527 66.92 20.9258 66.8266 20.2519 66.4266C19.611 66.06 19.34 65.54 19.34 65.08C19.34 64.3733 19.9149 63.76 20.5889 63.76C20.8003 63.76 21.0448 63.82 21.2893 64.0066C21.6527 64.28 22.4125 64.5866 23.1129 64.5866C23.2319 64.5866 23.3244 64.5866 23.4499 64.5533C24.2428 64.46 25.3925 64.1266 26.0004 63.82C26.3638 63.6333 26.7008 63.5466 27.0312 63.5466C27.8835 63.5466 28.4914 64.22 28.4914 64.96C28.4914 65.5733 28.0355 66.22 26.9717 66.4933C24.5732 67.14 21.2893 72.9666 21.2562 76.7066V76.8V76.7866Z" fill="white"/>
<path d="M52.8341 75.8336C54.0168 74.4869 55.2326 72.8269 56.0585 71.4469C56.5475 70.6803 56.6334 70.0669 56.6664 69.2669C56.6928 68.2869 57.4593 67.7936 58.1861 67.7936C58.9129 67.7936 59.6728 68.3136 59.6728 69.3869V69.4803C59.6133 70.5536 59.3689 71.5669 58.576 72.6669C57.5716 74.1069 55.3251 76.7469 53.6203 79.1069C52.8605 80.1469 52.1006 80.6403 51.3738 80.6403C50.647 80.6403 49.8871 80.1803 49.1537 79.2936C48.1493 78.0669 47.667 76.5003 47.667 74.8803C47.667 72.7936 48.4863 70.5869 50.158 68.8069C52.3781 66.4136 55.4176 65.2803 58.3645 65.2803C61.8269 65.2803 65.1702 66.8469 66.8419 69.7603C67.6018 71.0469 67.9388 72.4269 67.9388 73.7803C67.9388 78.1936 64.08 82.3669 57.0562 82.7669H56.9043C55.8074 82.7669 55.1731 82.1203 55.1731 81.4469C55.1731 80.8669 55.6885 80.2536 56.8778 80.1269C62.5339 79.6336 64.9324 76.5069 64.9324 73.5336C64.9324 72.6136 64.6879 71.6603 64.232 70.8669C63.0162 68.7803 60.7036 67.6136 58.2456 67.6136C56.118 67.6136 53.8979 68.4736 52.1931 70.3403C51.1293 71.5336 50.4289 73.1936 50.4289 74.6936C50.4289 75.4269 50.5809 76.0736 50.9179 76.6536C51.0368 76.9003 51.1888 77.0203 51.3738 77.0203C51.6183 77.0203 51.9222 76.8069 52.3451 76.3736L52.8341 75.8203V75.8336Z" fill="white"/>
<path d="M83.776 84.7864H83.6835C80.948 84.7864 78.12 83.373 76.9967 80.7664C76.8778 80.493 76.8447 80.2464 76.8447 80.033C76.8447 79.2064 77.5121 78.653 78.2719 78.653C78.8798 78.653 79.5208 78.993 79.8842 79.8197C80.4656 81.0464 81.7409 81.753 83.3795 81.753H83.776C85.1768 81.753 85.8441 82.4864 85.8441 83.2264C85.8441 83.9664 85.1173 84.793 83.776 84.793V84.7864ZM85.8441 67.033C86.0556 68.0464 86.3001 69.0264 86.571 69.9464C87.3903 69.733 88.2427 69.453 89.1215 69.1197C89.3924 69.0264 89.6699 68.9664 89.9144 68.9664C90.7337 68.9664 91.2226 69.5797 91.2226 70.2264C91.2226 70.7197 90.9187 71.2397 90.2513 71.4864C89.247 71.853 88.3087 72.133 87.4233 72.373C87.8462 73.3264 88.3021 74.1197 88.8241 74.5797C89.3725 75.0997 89.8879 75.4997 90.2844 75.713C90.8923 76.0797 91.1632 76.5997 91.1632 77.0597C91.1632 77.8264 90.5222 78.4997 89.584 78.4997C89.399 78.4997 89.2206 78.4664 89.0091 78.4064C87.8859 78.0664 86.7626 78.0997 85.6327 77.8864C84.8728 77.7664 84.4764 77.1797 84.4764 76.6597C84.4764 76.233 84.7209 75.8597 85.2693 75.7397C85.8772 75.6197 86.1811 75.4664 86.1811 75.2464C86.1811 75.213 86.1481 75.153 86.1216 75.093C85.7252 74.573 85.3287 73.8064 84.9984 72.8864C83.2342 73.2264 81.7739 73.3464 80.5912 73.3464C80.2542 73.3464 79.9833 73.313 79.7124 73.313C78.6486 73.2797 78.1332 72.5797 78.1332 71.933C78.1332 71.2864 78.6486 70.613 79.6199 70.613H79.8049C80.2938 70.6464 80.7762 70.673 81.3246 70.673C82.2034 70.673 83.1813 70.613 84.179 70.4597C83.8751 69.4197 83.6042 68.3464 83.3597 67.2997C81.8995 67.513 80.6242 67.7597 79.5934 68.0064C79.4415 68.0397 79.2895 68.0664 79.1375 68.0664C78.2257 68.0664 77.6773 67.3597 77.6773 66.653C77.6773 66.0997 78.0407 65.5464 78.86 65.393C79.7718 65.2397 81.1991 65.0264 82.8113 64.813C82.6263 63.833 82.4479 62.9397 82.3554 62.2397C82.3289 62.1464 82.3289 62.053 82.3289 61.9664C82.3289 61.1664 83.0293 60.6797 83.7297 60.6797C84.3707 60.6797 85.005 61.0797 85.0975 61.9997C85.1569 62.8264 85.2825 63.6864 85.4345 64.573C86.1349 64.513 86.8617 64.453 87.5621 64.4197H87.681C88.7118 64.4197 89.2007 65.033 89.2007 65.6797C89.2007 66.3264 88.7118 66.9397 87.833 66.9397L85.8573 67.033H85.8441Z" fill="white"/>
<path d="M106.327 75.8336C107.51 74.4869 108.726 72.8269 109.552 71.4469C110.041 70.6803 110.127 70.0669 110.16 69.2669C110.186 68.2869 110.952 67.7936 111.679 67.7936C112.406 67.7936 113.166 68.3136 113.166 69.3869V69.4803C113.107 70.5536 112.862 71.5669 112.069 72.6669C111.065 74.1069 108.818 76.7469 107.114 79.1069C106.354 80.1469 105.594 80.6403 104.867 80.6403C104.14 80.6403 103.38 80.1803 102.647 79.2936C101.643 78.0669 101.16 76.5003 101.16 74.8803C101.16 72.7936 101.979 70.5869 103.651 68.8069C105.871 66.4136 108.911 65.2803 111.858 65.2803C115.32 65.2803 118.663 66.8469 120.335 69.7603C121.095 71.0469 121.432 72.4269 121.432 73.7803C121.432 78.1936 117.573 82.3669 110.549 82.7669H110.397C109.301 82.7669 108.666 82.1203 108.666 81.4469C108.666 80.8669 109.182 80.2536 110.371 80.1269C116.027 79.6336 118.426 76.5069 118.426 73.5336C118.426 72.6136 118.181 71.6603 117.725 70.8669C116.509 68.7803 114.197 67.6136 111.739 67.6136C109.611 67.6136 107.391 68.4736 105.686 70.3403C104.622 71.5336 103.922 73.1936 103.922 74.6936C103.922 75.4269 104.074 76.0736 104.411 76.6536C104.53 76.9003 104.682 77.0203 104.867 77.0203C105.111 77.0203 105.415 76.8069 105.838 76.3736L106.327 75.8203V75.8336Z" fill="white"/>
<path d="M144.387 69.1195C143.99 69.1529 143.594 69.3062 143.415 69.4595C142.807 70.0129 141.955 70.6529 141.043 71.2995C143.686 72.3729 145.206 75.3195 145.206 78.2329C145.206 81.1462 143.627 84.0929 140.006 84.9195C139.761 84.9795 139.55 85.0129 139.338 85.0129C138.275 85.0129 137.667 84.2795 137.667 83.5729C137.667 82.9929 138.09 82.4062 139.001 82.2529C141.466 81.9129 142.649 79.8595 142.649 77.7462C142.649 77.5595 142.649 77.4062 142.616 77.2262C140.336 79.4929 136.841 82.3462 132.07 83.8529C131.826 83.9129 131.614 83.9729 131.429 83.9729C130.577 83.9729 130.062 83.3595 130.062 82.7129C130.062 82.1595 130.425 81.5795 131.277 81.3662C135.718 80.2329 139.847 77.1662 141.856 74.8662C141.737 74.6795 141.611 74.4995 141.459 74.3129C139.669 75.7862 136.504 77.9329 133.524 78.8529C133.339 78.9129 133.187 78.9129 133.035 78.9129C132.242 78.9129 131.786 78.2995 131.786 77.7195C131.786 77.2262 132.057 76.7662 132.698 76.5862C135.466 75.8795 138.142 74.2862 139.722 72.9995L139.418 72.8795C139.299 72.8462 139.173 72.8195 139.054 72.8195C138.869 72.8195 138.717 72.8529 138.598 72.9129L138.202 73.0995C137.231 73.6529 136.253 74.1129 135.407 74.3862C135.163 74.4795 134.951 74.5062 134.766 74.5062C133.947 74.5062 133.517 73.9262 133.517 73.3129C133.517 72.8529 133.788 72.3929 134.396 72.2395C136.279 71.7195 138.559 70.4595 140.356 69.1395L136.709 69.1995H136.649C135.856 69.1995 135.466 68.6195 135.466 68.0329C135.466 67.4195 135.863 66.8395 136.682 66.8395H136.715C138.783 66.8995 140.548 66.9329 142.312 66.9329C144.076 66.9329 145.867 66.8995 147.994 66.8395H148.027C148.88 66.8395 149.303 67.4195 149.303 68.0329C149.303 68.6462 148.906 69.1995 148.054 69.1995H147.994L144.38 69.1395L144.387 69.1195ZM146.878 64.8195C145.543 64.7595 143.779 64.7262 142.014 64.7262C140.462 64.7262 138.942 64.7595 137.792 64.8195C135.784 64.9395 134.693 65.7995 134.601 66.7529V67.7929C134.601 68.5929 133.9 69.0195 133.2 69.0195C132.5 69.0195 131.832 68.6195 131.799 67.6995V66.5329C131.826 63.9262 134.687 62.6395 137.574 62.4862L140.825 62.3929V60.3395C140.825 59.4529 141.552 59.0195 142.312 59.0195C143.072 59.0195 143.799 59.4462 143.799 60.3062V60.3395C143.765 61.2262 143.765 61.8129 143.765 62.3929C145.014 62.3929 146.197 62.4262 147.142 62.4862C151.001 62.7329 153.102 64.7262 153.128 66.5929C153.128 66.8662 153.161 67.0195 153.161 67.1462C153.161 67.2995 153.128 67.4195 153.128 67.6395C153.036 68.4995 152.309 68.9262 151.609 68.9262C150.908 68.9262 150.241 68.5262 150.241 67.6995V66.7795C150.208 65.9795 149.21 64.9062 146.864 64.8195H146.878ZM153.987 83.8062C153.743 83.8062 153.439 83.7729 153.135 83.6862C149.455 82.6129 145.351 78.6862 145.351 75.2529C145.351 74.0862 145.774 73.0129 146.838 72.0929C147.505 71.5395 147.842 71.2329 148.662 70.6529C148.966 70.4395 149.303 70.3129 149.606 70.3129C150.399 70.3129 151.067 70.9862 151.067 71.7262C151.067 72.1262 150.855 72.5862 150.307 72.9195C149.606 73.3462 149.058 73.6862 148.635 74.0262C148.146 74.4262 147.935 74.9129 147.935 75.4395C147.935 77.5262 151.159 80.3462 154.351 80.9929C155.229 81.1795 155.659 81.7929 155.659 82.3729C155.659 83.1062 155.084 83.8129 153.987 83.8129V83.8062Z" fill="white"/>
<path d="M161.679 83.6533C161.679 82.52 162.472 81.3866 164.077 81.4733C164.685 81.5066 165.749 81.5333 166.264 81.5333C167.817 81.5 168.24 80.9533 168.299 79.1133C168.332 78.4066 168.332 77.1533 168.332 75.62C168.332 72.3066 168.299 67.7066 168.273 64.64C168.24 63.1666 169.37 62.46 170.493 62.46C171.616 62.46 172.68 63.1333 172.68 64.4866C172.713 67.1866 172.713 70.9866 172.713 74.1466C172.713 76.4466 172.713 78.4066 172.68 79.3266C172.561 83.8333 169.945 85.7066 166.482 85.8H163.839C162.412 85.8 161.679 84.7266 161.679 83.6533ZM165.082 84.48C165.504 84.48 165.96 84.48 166.482 84.4466C169.403 84.3533 171.193 83.0066 171.312 79.3266C171.345 78.44 171.345 76.4466 171.345 74.1133C171.345 70.9266 171.345 67.06 171.312 64.5133C171.312 63.9933 170.89 63.7133 170.46 63.7133C170.031 63.7133 169.608 63.9866 169.608 64.6333C169.641 67.7 169.667 72.5133 169.667 75.86C169.667 77.36 169.667 78.56 169.634 79.1733C169.542 81.8733 168.359 82.82 166.231 82.8533C165.531 82.8533 164.593 82.82 163.978 82.82C163.403 82.82 163.099 83.2466 163.099 83.6466C163.099 84.0466 163.37 84.4133 163.919 84.4466C164.256 84.48 164.645 84.48 165.075 84.48H165.082Z" fill="white"/>
<path d="M206.967 70.0666C204.72 73.2266 201.463 75.8333 196.903 77.7333C196.54 77.8866 196.203 77.9466 195.932 77.9466C195.02 77.9466 194.505 77.3333 194.505 76.6866C194.505 76.1333 194.868 75.58 195.688 75.2733C199.427 73.9533 202.044 72.0533 203.802 70.0933C201.793 70.0933 199.758 70.1533 197.756 70.1866H197.696C196.751 70.1866 196.329 69.6066 196.329 68.9933C196.329 68.3466 196.818 67.7066 197.696 67.7066H197.756C200.306 67.7666 202.863 67.8266 205.447 67.86C205.718 67.3666 205.962 66.9066 206.147 66.4466C205.117 66.48 204.205 66.48 203.808 66.48C201.192 66.4466 200.22 65.5 200.22 64.4866C200.22 63.78 200.709 63.0466 201.436 62.5533C202.533 61.82 204.872 60.2533 205.724 59.3C206.028 58.96 206.425 58.8066 206.788 58.8066C207.581 58.8066 208.341 59.42 208.341 60.1866C208.341 60.4933 208.222 60.8333 207.918 61.14C207.066 62 204.938 63.1333 204.211 63.5333C204 63.6533 203.874 63.8066 203.874 63.96C203.874 64.1466 204.086 64.3 204.575 64.3C205.52 64.3 209.074 64.2066 210.046 64.1133C210.958 64.02 211.473 63.8066 211.473 63.5C211.473 63.2866 211.228 63.04 210.68 62.7933L210.039 62.4866C209.55 62.2733 209.339 61.9666 209.339 61.66C209.339 61.14 209.947 60.5866 210.706 60.5866C210.918 60.5866 211.162 60.62 211.374 60.7066C213.409 61.5066 215.874 63.16 216.937 64.54C217.149 64.8466 217.274 65.12 217.274 65.4C217.274 66.1066 216.547 66.66 215.814 66.66C215.358 66.66 214.935 66.4733 214.631 66.0133C214.479 65.7666 214.268 65.52 214.023 65.28C213.964 65.22 213.904 65.1866 213.838 65.1866C213.442 65.1866 213.079 66.1066 211.103 66.2266C210.647 66.26 209.795 66.32 208.79 66.3466C208.823 66.44 208.85 66.5333 208.85 66.62C208.85 66.7733 208.79 66.96 208.731 67.1133L208.367 67.8466C211.678 67.8466 214.995 67.7866 218.279 67.6933H218.338C219.25 67.6933 219.739 68.34 219.739 68.9533C219.739 69.5666 219.283 70.18 218.338 70.18H218.279C216.184 70.1466 214.056 70.0866 211.955 70.0866C214.268 72.42 217.063 73.92 220.195 74.6533C221.047 74.8666 221.411 75.48 221.411 76.0933C221.411 76.86 220.862 77.5933 219.858 77.5933C219.646 77.5933 219.435 77.56 219.19 77.5C215.636 76.4266 211.407 73.0866 209.035 70.0466H206.967V70.0666ZM198.939 83.6533C198.939 83.04 199.427 82.3933 200.306 82.3933H200.67C206.048 82.3933 210.032 80.1866 212.861 76.78C213.197 76.38 213.561 76.2266 213.924 76.2266C214.651 76.2266 215.292 76.9 215.292 77.64C215.292 77.98 215.173 78.3133 214.896 78.62C211.4 82.3933 206.326 84.94 200.485 84.94C199.421 84.9733 198.932 84.2933 198.932 83.6533H198.939ZM201.74 81.54C201.621 81.5733 201.529 81.5733 201.403 81.5733C200.643 81.5733 200.306 81.08 200.306 80.5333C200.306 80.0133 200.643 79.46 201.311 79.34C205.202 78.6066 207.905 76.7666 210.066 74.28C210.369 73.94 210.706 73.7866 211.01 73.7866C211.678 73.7866 212.286 74.4333 212.286 75.1066C212.286 75.4133 212.193 75.72 211.922 75.9933C209.61 78.48 205.843 80.84 201.74 81.5466V81.54ZM202.137 78.2266C201.925 78.32 201.714 78.3466 201.529 78.3466C200.861 78.3466 200.465 77.8266 200.465 77.2733C200.465 76.8733 200.676 76.4466 201.192 76.26C203.531 75.3066 205.718 73.8666 207.423 71.8133C207.726 71.4466 208.09 71.2933 208.394 71.2933C209.035 71.2933 209.577 71.8466 209.577 72.52C209.577 72.7933 209.458 73.1333 209.18 73.44C207.356 75.4 204.865 77.24 202.13 78.2266H202.137Z" fill="white"/>
<path d="M242.799 67.7668C245.23 65.6535 247.417 63.2268 249.241 60.6535C249.605 60.1335 250.094 59.9202 250.549 59.9202C251.342 59.9202 252.036 60.5002 252.036 61.3002C252.036 61.5735 251.917 61.9135 251.673 62.2535C250.272 64.0602 248.508 65.9335 246.565 67.7135C248.144 67.6802 249.816 67.6202 251.673 67.5602H251.765C252.677 67.5602 253.133 68.1402 253.133 68.7535C253.133 69.4002 252.644 70.0402 251.673 70.0402H251.613C248.785 69.9468 246.387 69.8868 244.107 69.8535C242.891 70.8335 241.616 71.8135 240.308 72.7068C240.281 72.7668 240.281 72.8002 240.281 72.8602C242.594 72.4935 244.993 72.0002 247.391 71.3868C247.576 71.3268 247.754 71.3268 247.906 71.3268C248.759 71.3268 249.215 71.8802 249.215 72.4935C249.215 73.1068 248.818 73.6602 247.939 73.8735C245.415 74.4268 241.583 74.8868 239.7 75.0668C239.7 75.1602 239.674 75.2202 239.674 75.2802C239.674 75.9535 240.189 76.3535 241.074 76.4468C242.019 76.5402 242.805 76.5402 243.843 76.6602C246.519 76.9668 248.309 77.8268 248.309 79.9402V80.2135C248.039 83.6202 244.266 84.6602 241.2 84.6602C239.925 84.6602 238.801 84.4735 238.068 84.2335C237.275 83.9602 236.912 83.3468 236.912 82.7602C236.912 82.1135 237.368 81.5002 238.187 81.5002C238.431 81.5002 238.676 81.5602 238.947 81.6535C239.647 81.9268 240.526 82.0535 241.411 82.0535C243.327 82.0535 245.244 81.4068 245.336 80.1535V80.0002C245.336 79.2335 244.728 79.1135 243.605 78.9602C242.693 78.8668 241.814 78.8668 240.717 78.7468C238.557 78.5335 237.037 77.7335 237.037 75.8335C237.037 75.5602 237.097 75.2535 237.156 74.9135C237.156 74.8535 237.189 74.7602 237.189 74.7002C234.487 76.2668 231.751 77.5202 229.194 78.2268C228.983 78.2868 228.771 78.3202 228.586 78.3202C227.641 78.3202 227.066 77.6468 227.066 76.9402C227.066 76.3602 227.463 75.7735 228.375 75.5602C232.452 74.5802 236.522 72.5535 240.229 69.8268C237.249 69.8602 234.209 69.9202 230.35 70.0402H230.291C229.26 70.0402 228.771 69.4602 228.771 68.8468C228.771 68.2002 229.287 67.5602 230.258 67.5602H230.35C233.449 67.6802 236.066 67.7468 238.53 67.7735V65.5668C237.103 65.5668 235.61 65.6002 233.819 65.6268H233.76C232.848 65.6268 232.452 65.0735 232.452 64.5202C232.452 63.8735 232.94 63.2335 233.786 63.2335H233.819C235.583 63.2935 237.07 63.3268 238.497 63.3268C238.464 62.4068 238.438 61.4535 238.378 60.5068V60.3868C238.378 59.4668 239.079 59.0068 239.806 59.0068C240.532 59.0068 241.292 59.4668 241.292 60.3868V60.5068C241.233 61.4268 241.2 62.3802 241.173 63.3002C242.178 63.3002 243.209 63.2668 244.398 63.2402H244.424C245.277 63.2402 245.733 63.8535 245.733 64.4668C245.733 65.0802 245.31 65.6335 244.457 65.6335H244.398C243.215 65.6335 242.145 65.6002 241.147 65.6002V67.7802H242.819L242.799 67.7668Z" fill="white"/>
<path d="M264.657 82.9468C264.413 83.0068 264.168 83.0401 263.957 83.0401C262.985 83.0401 262.344 82.3935 262.344 81.6601C262.344 81.0801 262.767 80.4668 263.864 80.1601C269.639 78.5335 273.531 73.9935 274.258 70.1001C274.291 69.8868 274.317 69.7001 274.317 69.5201C274.317 68.3535 273.59 67.5601 271.978 67.5268H271.033C268.483 67.5268 265.655 67.7135 263.706 67.7401C262.549 67.7401 261.941 67.0068 261.941 66.3001C261.941 65.5935 262.516 64.8868 263.646 64.8868H263.765C264.221 64.9201 264.736 64.9201 265.285 64.9201C266.956 64.9201 268.965 64.8601 271.027 64.8601H272.427C275.771 64.9201 277.568 66.6068 277.568 69.2468C277.568 69.6468 277.535 70.0468 277.449 70.4735C276.537 75.4401 271.734 80.9001 264.65 82.9535L264.657 82.9468ZM279.854 66.3601C279.735 66.3601 279.643 66.3268 279.517 66.3268C278.15 66.1401 276.841 65.3135 276.841 63.4735C276.841 61.9068 278.09 60.4668 279.821 60.4668C281.678 60.4668 282.953 61.7268 282.953 63.4735C282.953 64.9735 281.467 66.3535 279.854 66.3535V66.3601ZM279.854 61.9401C279.002 61.9401 278.394 62.6468 278.394 63.4401C278.394 64.3601 279.035 64.7868 279.702 64.8535H279.887C280.707 64.8535 281.44 64.1801 281.44 63.4401C281.44 62.5535 280.806 61.9401 279.861 61.9401H279.854Z" fill="white"/>
<path d="M293.287 83.3799C293.168 83.4133 293.076 83.4133 292.983 83.4133C292.038 83.4133 291.497 82.7066 291.497 81.9999C291.497 81.4199 291.893 80.8066 292.831 80.6533C298.276 79.7933 302.009 76.5466 303.198 73.2333C303.317 72.8933 303.383 72.5866 303.383 72.3133C303.383 71.3333 302.683 70.6599 301.348 70.6599C298.646 70.6599 294.754 70.8466 292.322 70.8733C291.351 70.8733 290.803 70.1399 290.803 69.4333C290.803 68.7866 291.292 68.1466 292.415 68.1466H293.538C295.362 68.1466 297.734 68.1133 300.166 68.1133H301.685C304.546 68.1133 306.522 69.6799 306.522 72.0666C306.522 72.5599 306.463 73.0466 306.277 73.5999C304.85 78.2599 299.835 82.4333 293.3 83.3866L293.287 83.3799ZM303.139 65.6199H302.987C302.042 65.5599 300.919 65.5266 299.763 65.5266C297.939 65.5266 296.056 65.5866 294.628 65.6466H294.536C293.505 65.6466 292.983 64.9999 292.983 64.3266C292.983 63.6533 293.499 63.0066 294.47 63.0066H294.529C295.17 63.0399 295.93 63.0399 296.749 63.0399C298.844 63.0399 301.342 62.9799 303.04 62.9199H303.192C304.256 62.9199 304.804 63.5933 304.804 64.2399C304.804 64.9466 304.223 65.6199 303.132 65.6199H303.139Z" fill="white"/>
<path d="M321.098 71.6601C320.735 71.6601 320.371 71.5067 320.068 71.1667C319.427 70.3667 318.151 69.3601 316.843 68.9601C316.116 68.7467 315.779 68.2534 315.779 67.7667C315.779 67.0934 316.42 66.3867 317.392 66.3867C317.577 66.3867 317.755 66.4201 317.94 66.4467C319.427 66.8134 321.343 67.7667 322.255 68.8401C322.592 69.2401 322.744 69.6667 322.744 70.0334C322.744 70.9534 321.924 71.6601 321.105 71.6601H321.098ZM318.548 81.7534C318.363 81.7867 318.184 81.8134 318.032 81.8134C316.85 81.8134 316.116 81.0467 316.116 80.2801C316.116 79.6067 316.691 78.9334 317.999 78.7801C324.627 77.9801 330.038 71.7534 331.921 68.1401C332.258 67.4934 332.8 67.2201 333.349 67.2201C334.108 67.2201 334.835 67.7734 334.835 68.6601C334.835 68.9334 334.743 69.2734 334.591 69.6134C332.404 74.2134 326.047 80.4734 318.541 81.7601L318.548 81.7534Z" fill="white"/>
</svg>
