<svg width="117" height="54" viewBox="0 0 117 54" fill="none" xmlns="http://www.w3.org/2000/svg">
<path d="M28.7825 21.6156C27.1623 21.6156 25.5022 20.6258 24.8421 18.6262C23.312 13.9371 20.3018 3.94919 19.8217 1.97959C19.7917 1.82962 19.7617 1.70965 19.7617 1.55968C19.7617 0.599877 20.6318 0.0299938 21.5019 0.0299938C22.1919 0.0299938 22.852 0.38992 23.062 1.22975C23.7821 4.21913 26.5223 13.9671 27.5724 17.5764C27.7524 18.2063 28.2324 18.5062 28.7125 18.5062C29.2225 18.5062 29.7625 18.1763 29.9426 17.5764C30.6926 15.1269 33.6429 4.21913 34.4529 1.22975C34.693 0.38992 35.383 0 36.0731 0C36.9131 0 37.7832 0.569883 37.7832 1.52969C37.7832 1.67965 37.7532 1.82962 37.7232 1.97959C36.9131 4.99897 33.9029 14.537 32.6728 18.6262C32.0727 20.5958 30.4226 21.6156 28.7625 21.6156H28.7825Z" fill="#2F564A"/>
<path d="M47.5932 21.6459C43.4128 21.6459 40.6826 18.6565 40.6826 14.9772C40.6826 11.298 43.4228 8.30859 47.5932 8.30859C51.7635 8.30859 54.5938 11.298 54.5938 14.9772C54.5938 18.6565 51.8935 21.6459 47.5932 21.6459ZM51.5935 14.9872C51.5935 12.7177 50.0334 10.8581 47.5932 10.8581C45.153 10.8581 43.6229 12.7077 43.6229 14.9872C43.6229 17.2668 45.183 19.1164 47.5932 19.1164C50.0034 19.1164 51.5935 17.2668 51.5935 14.9872Z" fill="#2F564A"/>
<path d="M59.7744 3.12041C59.7744 1.83067 60.9144 1.30078 61.6344 1.30078H61.6944C62.6544 1.33078 63.5544 2.14061 63.5544 3.12041C63.5544 4.20019 62.6544 5.00002 61.6944 5.03002H61.6344C60.6444 5.03002 59.8044 4.43014 59.7744 3.21039V3.12041ZM61.6644 21.5866C60.9144 21.5866 60.1644 21.1067 60.1644 20.1569C60.1644 17.9474 60.1944 15.1079 60.1944 12.8084C60.1944 11.6387 60.1944 10.6289 60.1644 9.90901V9.84903C60.1644 8.91922 60.9144 8.46931 61.6644 8.46931C62.4144 8.46931 63.1644 8.91922 63.1644 9.80903V9.86902C63.1344 10.8588 63.1044 12.6185 63.1044 14.5281C63.1044 16.4377 63.1344 18.5072 63.1644 20.0869V20.1469C63.1644 21.1067 62.4144 21.5766 61.6644 21.5766V21.5866Z" fill="#2F564A"/>
<path d="M75.4655 21.6846C73.6355 21.6846 71.7655 21.0547 70.5655 19.715C69.3955 18.4253 68.8555 16.7556 68.8555 15.1159C68.8555 13.1463 69.6355 11.1967 71.0755 9.91701C72.2755 8.83723 73.9255 8.27734 75.5555 8.27734C77.1855 8.27734 78.8055 8.87722 79.8555 10.037C80.1555 10.3669 80.2755 10.7268 80.2755 11.0568C80.2755 11.8366 79.5555 12.4865 78.8055 12.4865C78.4155 12.4865 78.0255 12.3365 77.6955 11.9166C77.1555 11.2567 76.2855 10.9268 75.3555 10.9268C74.5155 10.9268 73.6155 11.2267 73.0155 11.7666C72.1155 12.5765 71.6355 13.7962 71.6355 14.996C71.6355 16.0457 71.9955 17.0855 72.7455 17.9254C73.4055 18.6452 74.4255 18.9751 75.4155 18.9751C76.4055 18.9751 77.4255 18.6152 78.0255 17.9254C78.4755 17.3855 78.9855 17.1455 79.4355 17.1455C80.1855 17.1455 80.7855 17.7754 80.7855 18.5552C80.7855 18.9152 80.6655 19.3351 80.3355 19.695C79.2255 21.0147 77.3555 21.6946 75.4655 21.6946V21.6846Z" fill="#2F564A"/>
<path d="M91.2663 21.7353C87.7763 21.7353 85.1963 19.0758 85.1963 15.1266C85.1963 11.1774 87.5063 8.24805 91.3563 8.24805C92.7963 8.24805 93.9963 8.69795 94.9063 9.38781C95.9263 10.1677 96.5263 11.3874 96.5263 12.5572C96.5263 14.0868 95.4763 15.4566 92.9463 15.4866H88.1363C88.0163 15.4866 87.8963 15.6665 87.8963 15.9065V15.9665C87.9863 17.8161 89.5463 19.2258 91.2663 19.2258C92.6463 19.2258 93.4263 18.8059 94.1563 18.146C94.4863 17.8461 94.8163 17.7261 95.1163 17.7261C95.8363 17.7261 96.4063 18.356 96.4063 19.1058C96.4063 19.4957 96.2563 19.9157 95.8363 20.2756C94.6063 21.3554 93.4063 21.7353 91.2663 21.7353ZM93.3763 11.3674C92.9263 10.9775 92.2363 10.5876 91.3663 10.5876C89.5363 10.5876 88.4163 11.6673 88.0563 12.9771V13.0371C88.0563 13.187 88.1463 13.307 88.2963 13.307C88.6263 13.337 89.4963 13.367 90.4863 13.367C91.2063 13.367 91.9563 13.337 92.6163 13.337C93.5163 13.337 93.8163 12.9171 93.8163 12.4372C93.8163 12.0173 93.6063 11.5974 93.3663 11.3574L93.3763 11.3674Z" fill="#2F564A"/>
<path d="M3.72031 43.6007C3.17026 43.7207 2.64022 43.7906 2.16018 43.7906C1.92016 43.7906 1.68014 43.7707 1.44012 43.7407C0.650054 43.6207 0.290024 43.0908 0.290024 42.5909C0.290024 42.091 0.670055 41.5911 1.40012 41.5911C1.47012 41.5911 1.54013 41.6111 1.62013 41.6111C1.91016 41.6611 2.20018 41.6611 2.49021 41.6611C2.90024 41.6611 3.31027 41.6411 3.72031 41.5411C3.70031 40.6813 3.70031 39.8914 3.70031 39.2416C3.70031 38.5917 3.70031 38.0718 3.72031 37.7819C3.74031 37.022 4.32036 36.6621 4.8704 36.6621C5.42045 36.6621 6.0205 37.042 6.0205 37.7819C6.0205 37.8519 6.0205 37.9219 6.0005 38.0218C5.90049 38.6717 5.83048 39.6715 5.81048 40.8213L7.54062 40.0114C7.73064 39.9114 7.90065 39.8914 8.09067 39.8914C8.69072 39.8914 9.17076 40.3713 9.17076 40.8912C9.17076 41.3012 8.88074 41.7511 8.18068 42.041C7.2906 42.4209 6.50054 42.7309 5.75048 43.0008C5.73047 43.9806 5.73047 44.9404 5.73047 45.8902C6.55054 45.6003 7.39061 45.3903 8.23068 45.2403C8.83073 45.1404 9.38078 45.0704 9.89082 45.0704C12.9011 45.0704 14.4312 46.77 14.4312 48.5897C14.4312 50.0993 13.3511 51.719 11.1609 52.5588C10.4609 52.8188 9.79081 52.9388 9.21076 52.9388C7.43062 52.9388 6.28052 51.839 6.28052 50.4293C6.28052 50.0694 6.35053 49.7094 6.50054 49.3295C6.72056 48.7996 7.15059 48.5697 7.53062 48.5697C8.01066 48.5697 8.4207 48.8796 8.4207 49.4295C8.4207 49.5295 8.4207 49.6494 8.37069 49.7594C8.32069 49.8694 8.32069 49.9994 8.32069 50.1193C8.32069 50.6492 8.73072 51.0292 9.38078 51.0292C9.6908 51.0292 10.0508 50.9292 10.4609 50.7692C11.691 50.2393 12.241 49.4295 12.241 48.7096C12.241 47.7298 11.2809 46.89 9.55079 46.89C9.14076 46.89 8.71072 46.94 8.23068 47.03C7.41061 47.1999 6.50054 47.4399 5.75048 47.7198C5.77048 49.3495 5.80048 50.6392 5.82048 50.9692V51.0891C5.82048 52.4789 4.57038 53.1687 3.22027 53.1687C2.71022 53.1687 2.19018 53.0687 1.71014 52.8588C0.48004 52.3289 0 51.5391 0 50.6592C0 50.2793 0.100008 49.8694 0.290024 49.4595C0.84007 48.2897 2.26019 47.2799 3.80031 46.5401L3.73031 43.5707L3.72031 43.6007ZM2.13018 49.9294C2.03017 50.0993 1.99016 50.2593 1.99016 50.4093C1.99016 50.7692 2.25019 51.0292 2.62022 51.1791C2.74023 51.2291 2.93024 51.2791 3.12026 51.2791C3.46029 51.2791 3.79031 51.1391 3.82032 50.7092V48.4897C3.05025 48.9196 2.4302 49.4495 2.14018 49.9494L2.13018 49.9294ZM15.4013 45.2503C14.5612 44.2006 13.4311 43.7407 12.351 43.7407C12.061 43.7407 11.801 43.7906 11.531 43.8406C11.3909 43.8606 11.2409 43.8906 11.1209 43.8906C10.4909 43.8906 10.1808 43.4807 10.1808 43.0508C10.1808 42.6009 10.5209 42.091 11.2109 41.971C11.641 41.901 12.101 41.851 12.581 41.851C14.0512 41.851 15.6813 42.261 16.7414 43.3107C17.1214 43.6907 17.2714 44.0706 17.2714 44.4305C17.2714 45.1004 16.7214 45.6303 16.1413 45.6303C15.8813 45.6303 15.6113 45.5103 15.3913 45.2503H15.4013Z" fill="#2F564A"/>
<path d="M41.4734 40.6015C41.4734 41.4113 40.8934 41.8212 40.3233 41.8212C39.7533 41.8212 39.1732 41.4413 39.1732 40.6515V40.6015C39.1732 40.4115 39.1932 40.3115 39.1932 40.2416C39.1932 40.1416 39.1732 40.0716 39.1732 39.8616C39.1532 39.0718 38.4031 38.5519 36.863 38.5019C35.4729 38.4319 33.9528 38.4019 32.5127 38.4019C32.8227 38.5719 33.0627 38.8818 33.0627 39.2118C33.0627 39.4017 33.0127 39.5717 32.8727 39.7616C33.4227 39.7616 34.0028 39.7616 34.4328 39.7816C36.0629 39.8816 37.053 40.6615 37.053 41.7412C37.053 42.1212 36.913 42.5511 36.643 43.011C36.213 43.7308 35.6129 44.4007 34.8829 45.0206C36.833 45.9504 39.4532 46.5303 42.4335 46.5503C43.2235 46.5503 43.6336 47.1001 43.6336 47.63C43.6336 48.1599 43.2035 48.7298 42.3335 48.7298H42.2635C38.7332 48.5898 35.5329 47.61 33.2227 46.2403C30.1925 48.1499 26.2721 49.2997 24.082 49.5596H23.8619C23.0719 49.5596 22.6318 49.0297 22.6318 48.5098C22.6318 47.99 23.0119 47.5001 23.7819 47.4301C26.0221 47.2401 29.1224 46.3303 31.4726 45.0106C30.7525 44.3907 30.2225 43.7208 29.8824 43.051C29.8324 42.981 29.8124 42.911 29.7824 42.831C28.5123 43.9308 27.1122 44.9106 25.7421 45.5305C25.4821 45.6504 25.2621 45.7004 25.042 45.7004C24.372 45.7004 23.9319 45.2505 23.9319 44.7406C23.9319 44.4107 24.152 44.0708 24.652 43.8608C26.9322 42.931 29.5624 40.8514 31.0725 38.7619C31.1925 38.5919 31.3326 38.4719 31.4826 38.4019C30.6925 38.4019 29.9224 38.4519 29.2224 38.4719C27.6122 38.5419 27.0322 39.0718 26.9822 39.8116C26.9622 39.9816 26.9622 40.0716 26.9622 40.1916C26.9622 40.2915 26.9622 40.4115 26.9822 40.6215V40.6715C26.9822 41.3913 26.4322 41.7712 25.8521 41.7712C25.2721 41.7712 24.742 41.3913 24.742 40.6015V39.6917C24.762 37.902 26.4021 36.7523 29.0224 36.6323L31.9126 36.5623C31.9126 36.2024 31.8926 35.6825 31.8626 34.8427V34.7927C31.8626 34.0728 32.4426 33.7129 33.0427 33.7129C33.6427 33.7129 34.2228 34.0728 34.2228 34.7927V34.8427C34.2028 35.6325 34.1728 36.1824 34.1728 36.5623C35.1129 36.5623 36.0529 36.6123 36.983 36.6323C39.2432 36.7323 41.3634 37.5621 41.4334 39.6717V40.5815L41.4734 40.6015ZM34.9729 53.7788C34.4728 53.7988 33.8928 53.8288 33.3127 53.8288C32.5927 53.8288 31.8926 53.8088 31.3926 53.7788C29.8524 53.7088 28.4823 53.1789 28.3123 51.5092C28.2923 51.3693 28.2923 51.1993 28.2923 51.0593C28.2923 50.6994 28.3423 50.3895 28.3623 50.1495C28.5323 48.7898 29.8524 48.02 31.4926 47.95C31.9726 47.93 32.6227 47.93 33.2527 47.93C33.8828 47.93 34.4828 47.93 34.8929 47.95C36.503 48.0499 37.7531 48.8098 37.9231 49.9795C37.9731 50.2695 37.9731 50.5294 37.9731 50.8194C37.9731 51.0393 37.9731 51.2693 37.9531 51.5092C37.8331 53.0689 36.563 53.7088 34.9929 53.7788H34.9729ZM35.8429 50.8894C35.8429 50.7194 35.8229 50.5594 35.7929 50.4095C35.6929 49.8096 35.1429 49.5696 34.5428 49.5296C34.1628 49.5096 33.6327 49.5096 33.0727 49.5096C32.5127 49.5096 31.9926 49.5096 31.6026 49.5296C30.9325 49.5796 30.5225 49.8896 30.4225 50.4095C30.4025 50.5494 30.3725 50.7394 30.3725 50.9094C30.3725 51.0293 30.3925 51.1293 30.3925 51.2393C30.4625 51.8892 30.9725 52.0791 31.5226 52.1191C31.9326 52.1691 32.4627 52.1691 33.0127 52.1691C33.5627 52.1691 34.0928 52.1691 34.5528 52.1191C35.2729 52.0691 35.7329 51.8592 35.8029 51.1893C35.8029 51.0893 35.8229 50.9693 35.8229 50.8794L35.8429 50.8894ZM34.5428 42.3311C34.6128 42.2111 34.6428 42.0712 34.6428 41.9512C34.6428 41.6613 34.4528 41.4013 33.8928 41.3513C33.6728 41.3313 33.4327 41.3313 33.1727 41.3313C32.8827 41.3313 32.5927 41.3313 32.3326 41.3513C31.8726 41.3713 31.6326 41.7112 31.6326 42.0412C31.6326 42.1412 31.6526 42.2611 31.7026 42.3511C32.0126 42.921 32.4927 43.4509 33.0927 43.9308C33.7228 43.4309 34.2228 42.901 34.5328 42.3311H34.5428Z" fill="#2F564A"/>
<path d="M67.6553 42.9515H67.7053C68.3354 42.9515 68.6454 43.3614 68.6454 43.7913C68.6454 44.2212 68.3054 44.6811 67.6853 44.6811H67.6653C65.9552 44.6311 64.5151 44.6111 63.1449 44.6111C63.1449 46.4008 63.195 48.2004 63.285 49.99V50.3C63.285 52.7195 61.8448 53.9592 59.7747 53.9592C59.6347 53.9592 59.4846 53.9392 59.3446 53.9392C58.6246 53.8892 58.2845 53.4093 58.2845 52.9594C58.2845 52.4795 58.6246 51.9996 59.2746 51.9996H59.6347C60.4547 51.9996 61.2648 51.5697 61.2648 49.7301C61.2448 47.0506 61.2148 45.6909 61.2148 44.6111L57.3645 44.6811C57.1044 44.6811 56.9044 44.6311 56.7344 44.5611C56.5444 44.8211 56.2344 44.991 55.8943 44.991C55.6343 44.991 55.3643 44.8711 55.1743 44.5611C54.8843 44.1112 54.5942 43.8213 54.2842 43.5513C54.2842 46.6807 54.3542 49.6701 54.4542 52.8994V52.9494C54.4542 53.6393 53.8742 53.9992 53.3041 53.9992C52.7341 53.9992 52.194 53.6393 52.194 52.9494V52.8994C52.264 49.6001 52.3641 46.9706 52.3841 44.4612C51.564 45.6109 50.6539 46.6607 49.7338 47.4505C49.4438 47.6905 49.1538 47.8105 48.8938 47.8105C48.2637 47.8105 47.7637 47.3106 47.7637 46.7307C47.7637 46.4008 47.9537 46.0108 48.4137 45.7009C49.4938 44.9311 50.9339 43.5213 51.994 41.9217C52.214 41.6117 52.3541 41.2318 52.3741 40.9419V40.8719C51.674 40.8719 50.9539 40.8719 50.2839 40.8919H50.2339C49.4638 40.8919 49.1038 40.412 49.1038 39.9121C49.1038 39.4122 49.5138 38.8823 50.2339 38.8823H50.2539C50.9539 38.9023 51.644 38.9323 52.344 38.9323C52.324 37.7625 52.274 36.5428 52.224 35.2031V35.1331C52.224 34.4632 52.7741 34.1333 53.3341 34.1333C53.8942 34.1333 54.4442 34.4632 54.4442 35.1331V35.2031C54.3742 36.5228 54.3242 37.7425 54.3042 38.9323C54.7343 38.9323 55.1943 38.9123 55.6543 38.8823C56.4244 38.8823 56.8344 39.3822 56.8344 39.8821C56.8344 40.382 56.4544 40.8819 55.6843 40.8819H55.6643C55.2043 40.8819 54.7542 40.8619 54.2942 40.8619V42.0616C54.4142 42.0117 54.5342 41.9617 54.6542 41.9617C54.7543 41.9617 54.8243 41.9817 54.9143 42.0117C55.4643 42.2516 56.1144 42.7015 56.5544 43.2314C56.7244 43.0414 57.0144 42.9415 57.3745 42.9415C58.6746 42.9915 59.9447 43.0115 61.2248 43.0414V41.7317C60.2847 41.7317 59.3746 41.7517 58.5346 41.7817H58.4846C57.8545 41.7817 57.5745 41.4018 57.5745 40.9919C57.5745 40.582 57.9145 40.152 58.5346 40.152H58.5546C59.3746 40.172 60.2847 40.202 61.2248 40.202V39.0523C59.9947 39.0523 58.8246 39.0723 57.7345 39.1023H57.6845C57.0544 39.1023 56.7444 38.6923 56.7444 38.2924C56.7444 37.8925 57.0844 37.4526 57.7045 37.4526H57.7245C58.4946 37.4726 59.3146 37.5026 60.1547 37.5026C59.9847 37.4026 59.8147 37.2626 59.7247 37.0227C59.4146 36.3528 59.2446 36.1129 58.7146 35.633C58.4946 35.443 58.4046 35.2231 58.4046 35.0331C58.4046 34.5532 58.9046 34.1733 59.4346 34.1733C59.6047 34.1733 59.7947 34.2233 59.9647 34.3132C60.3747 34.5532 61.2648 35.483 61.5248 36.1329C61.5948 36.3028 61.6248 36.4428 61.6248 36.5828C61.6248 37.0127 61.3648 37.3526 61.0248 37.4926H62.2249C62.4649 37.4726 62.6349 37.3026 62.7049 37.2026C63.1649 36.4428 63.645 35.533 63.935 34.7831C64.125 34.3032 64.4851 34.1133 64.8751 34.1133C65.4251 34.1133 66.0252 34.5432 66.0252 35.1431C66.0252 35.313 65.9752 35.473 65.8852 35.643C65.5251 36.2628 65.1151 36.9127 64.7051 37.4826C65.4951 37.4826 66.2952 37.4626 67.0653 37.4326H67.0853C67.7353 37.4326 68.0754 37.8425 68.0754 38.2424C68.0754 38.6723 67.7353 39.0823 67.0853 39.0823H67.0653C65.7652 39.0623 64.4451 39.0323 63.1449 39.0323V40.182C64.105 40.182 65.0951 40.162 66.1052 40.132H66.1252C66.7752 40.132 67.1153 40.542 67.1153 40.9419C67.1153 41.3418 66.7752 41.7517 66.1552 41.7517H66.1052C65.0751 41.7317 64.105 41.7017 63.1449 41.7017V43.0115L67.6653 42.9115L67.6553 42.9515ZM56.9044 47.0406C56.4044 46.8707 56.2044 46.5407 56.2044 46.2008C56.2044 45.7509 56.5844 45.271 57.1644 45.271C57.2845 45.271 57.4545 45.291 57.5945 45.371C58.1945 45.6309 58.6046 45.8009 59.1346 45.9708C60.2147 46.3308 60.6947 47.0906 60.6947 48.0004C60.6947 48.3604 60.5947 48.7703 60.4547 49.1502C59.6647 51.0898 57.6645 52.3295 56.3944 52.6695C56.2544 52.7195 56.1044 52.7195 55.9644 52.7195C55.2643 52.7195 54.8143 52.2196 54.8143 51.7197C54.8143 51.3597 55.0343 51.0298 55.5143 50.8798C56.8144 50.4699 58.3245 49.6601 58.8046 48.5403C58.8746 48.4003 58.9046 48.2504 58.9046 48.1304C58.9046 47.8205 58.6846 47.6005 58.3245 47.5105C57.7745 47.2906 57.5345 47.2706 56.9044 47.0606V47.0406ZM65.5151 48.1904C65.5151 48.3304 65.5351 48.4803 65.6152 48.6403C66.1252 49.7901 67.6853 50.6299 69.0254 51.0598C69.5055 51.2298 69.7255 51.5597 69.7255 51.9196C69.7255 52.4695 69.2655 53.0194 68.5454 53.0194C68.4054 53.0194 68.2554 52.9994 68.0854 52.9494C66.7652 52.5895 64.7151 51.2798 63.905 49.2702C63.735 48.8603 63.645 48.4603 63.645 48.0504C63.645 47.1406 64.145 46.3008 65.2551 45.9408C65.8052 45.7709 66.1952 45.6109 66.7953 45.321C66.9653 45.251 67.1353 45.201 67.2953 45.201C67.8453 45.201 68.2554 45.6809 68.2554 46.1608C68.2554 46.4907 68.0654 46.8307 67.5553 47.0006C66.9253 47.2406 66.6152 47.2906 66.0452 47.4805C65.7052 47.6205 65.5151 47.8605 65.5151 48.2004V48.1904Z" fill="#2F564A"/>
<path d="M79.366 46.9705C80.306 45.9207 81.2661 44.631 81.9162 43.5512C82.2962 42.9513 82.3762 42.4714 82.3962 41.8515C82.4162 41.0917 83.0263 40.7018 83.5963 40.7018C84.1664 40.7018 84.7764 41.1117 84.7764 41.9415V42.0115C84.7264 42.8513 84.5364 43.6412 83.9063 44.501C83.1163 45.6208 81.3361 47.6804 79.986 49.52C79.386 50.3298 78.7859 50.7197 78.2059 50.7197C77.6258 50.7197 77.0258 50.3598 76.4457 49.6699C75.6557 48.7101 75.2656 47.4904 75.2656 46.2306C75.2656 44.601 75.9157 42.8813 77.2358 41.4916C78.9959 39.622 81.3961 38.7422 83.7263 38.7422C86.4666 38.7422 89.1168 39.9619 90.4369 42.2315C91.0369 43.2313 91.307 44.311 91.307 45.3608C91.307 48.8101 88.2567 52.0594 82.6962 52.3694H82.5762C81.7062 52.3694 81.2061 51.8695 81.2061 51.3396C81.2061 50.8897 81.6162 50.4098 82.5562 50.3098C87.0266 49.9299 88.9268 47.4904 88.9268 45.1709C88.9268 44.451 88.7367 43.7112 88.3767 43.0913C87.4166 41.4616 85.5865 40.5518 83.6363 40.5518C81.9562 40.5518 80.196 41.2217 78.8459 42.6814C78.0059 43.6112 77.4558 44.9009 77.4558 46.0807C77.4558 46.6506 77.5758 47.1605 77.8358 47.6104C77.9358 47.8003 78.0559 47.9003 78.1959 47.9003C78.3859 47.9003 78.6259 47.7303 78.9659 47.4004L79.346 46.9705H79.366Z" fill="#2F564A"/>
<path d="M98.8683 53.6694C98.5583 53.7894 98.2682 53.8394 98.0282 53.8394C97.2782 53.8394 96.8281 53.3395 96.8281 52.8396C96.8281 52.4297 97.0681 52.0498 97.6182 51.8398C99.8584 50.98 101.108 49.2604 101.108 46.221C101.108 45.981 101.108 45.7711 101.088 45.5311V45.3112C101.088 43.4415 102.529 42.5117 104.619 42.4418C105.649 42.4218 106.899 42.3918 108.109 42.3918C109.319 42.3918 110.489 42.4118 111.449 42.4418C113.61 42.5117 114.67 43.4715 114.82 44.7813C114.84 44.9712 114.84 45.2112 114.84 45.4511V45.7411C114.72 47.1008 113.66 48.0806 111.349 48.2306C110.269 48.3005 108.799 48.3305 107.409 48.3305C106.329 48.3305 105.269 48.3105 104.479 48.2806C104.169 48.2606 103.369 48.2106 103.159 48.0406C102.989 50.1702 101.378 52.6796 98.8783 53.6794L98.8683 53.6694ZM108.969 39.5823C110.649 39.5623 112.339 39.5323 114.16 39.4824H114.21C114.86 39.4824 115.17 39.9323 115.17 40.3922C115.17 40.8721 114.83 41.352 114.18 41.352H114.16C111.899 41.302 109.859 41.252 107.859 41.252C105.859 41.252 103.869 41.302 101.699 41.352H101.649C100.978 41.352 100.638 40.8721 100.638 40.4222C100.638 39.9423 100.978 39.4924 101.649 39.4924H101.699C103.459 39.5423 105.139 39.5623 106.799 39.5923V38.2326C104.709 38.2526 102.569 38.2826 100.118 38.3526H100.068C99.3183 38.3526 98.9383 37.8527 98.9383 37.3728C98.9383 36.8729 99.3183 36.393 100.068 36.393H100.118C102.569 36.463 104.709 36.513 106.779 36.513C106.779 35.9631 106.759 35.4332 106.759 35.0033V34.9533C106.759 34.2334 107.339 33.8535 107.909 33.8535C108.479 33.8535 109.039 34.2134 109.039 34.9533V35.0033L108.989 36.513C111.149 36.513 113.369 36.463 115.87 36.393H115.92C116.64 36.393 117 36.8729 117 37.3528C117 37.8527 116.62 38.3526 115.92 38.3526H115.87C113.319 38.2826 111.129 38.2326 108.969 38.2326V39.5923V39.5823ZM104.879 44.1214C104.009 44.1714 103.269 44.5513 103.269 45.5111V45.6111C103.289 46.231 103.819 46.4509 104.619 46.4709C105.199 46.4909 105.989 46.5209 106.829 46.5209C106.829 46.141 106.849 45.7311 106.849 45.3012C106.849 44.8912 106.829 44.4913 106.829 44.0814C106.109 44.0814 105.409 44.1014 104.879 44.1314V44.1214ZM111.129 46.4409C111.799 46.4209 112.499 46.151 112.569 45.5611C112.569 45.4911 112.589 45.3911 112.589 45.3012C112.589 45.2112 112.569 45.1112 112.569 45.0412C112.469 44.3914 111.919 44.1614 111.149 44.1314C110.549 44.1114 109.729 44.0814 108.869 44.0814V46.5209L111.129 46.4509V46.4409Z" fill="#2F564A"/>
</svg>
