<svg width="179" height="100" viewBox="0 0 179 100" fill="none" xmlns="http://www.w3.org/2000/svg">
<path d="M21.1099 50.9801C17.3299 50.9801 13.4799 48.6701 11.9399 43.9801C8.36986 32.9901 1.36986 9.61012 0.249863 4.99012C0.179863 4.64012 0.109863 4.36012 0.109863 4.01012C0.109863 1.77012 2.13986 0.440117 4.16986 0.440117C5.77986 0.440117 7.31986 1.28012 7.80986 3.24012C9.48986 10.2401 15.8599 33.0601 18.3099 41.5301C18.7299 43.0001 19.8499 43.7001 20.9699 43.7001C22.1599 43.7001 23.4199 42.9301 23.8399 41.5301C25.5899 35.7901 32.4499 10.2401 34.3399 3.24012C34.8999 1.28012 36.5099 0.370117 38.1199 0.370117C40.0799 0.370117 42.1099 1.70012 42.1099 3.94012C42.1099 4.29012 42.0399 4.64012 41.9699 4.99012C40.0799 12.0601 33.0799 34.3901 30.2099 43.9801C28.8099 48.6001 24.9599 50.9801 21.1099 50.9801Z" fill="#2F564A"/>
<path d="M64.9301 51.0501C55.2001 51.0501 48.8301 44.0501 48.8301 35.4401C48.8301 26.8301 55.2001 19.8301 64.9301 19.8301C74.6601 19.8301 81.2401 26.8301 81.2401 35.4401C81.2401 44.0501 74.9401 51.0501 64.9301 51.0501ZM74.2401 35.4401C74.2401 30.1201 70.6001 25.7801 64.9301 25.7801C59.2601 25.7801 55.6901 30.1201 55.6901 35.4401C55.6901 40.7601 59.3301 45.1001 64.9301 45.1001C70.5301 45.1001 74.2401 40.7601 74.2401 35.4401Z" fill="#2F564A"/>
<path d="M93.2798 7.64988C93.2798 4.63988 95.9398 3.37988 97.6198 3.37988H97.7598C99.9998 3.44988 102.1 5.33988 102.1 7.64988C102.1 10.1699 99.9998 12.0599 97.7598 12.1299H97.6198C95.3098 12.1299 93.3498 10.7299 93.2798 7.85988V7.64988ZM97.6898 50.9099C95.9398 50.9099 94.1898 49.7899 94.1898 47.5499C94.1898 42.3699 94.2598 35.7199 94.2598 30.3299C94.2598 27.5999 94.2598 25.2199 94.1898 23.5399V23.3999C94.1898 21.2299 95.9398 20.1799 97.6898 20.1799C99.4398 20.1799 101.19 21.2299 101.19 23.3299V23.4699C101.12 25.7799 101.05 29.9099 101.05 34.3899C101.05 38.8699 101.12 43.6999 101.19 47.4099V47.5499C101.19 49.7899 99.4398 50.9099 97.6898 50.9099Z" fill="#2F564A"/>
<path d="M129.82 51.1204C125.55 51.1204 121.21 49.6504 118.41 46.5004C115.68 43.4904 114.42 39.5704 114.42 35.7204C114.42 31.1004 116.24 26.5504 119.6 23.5404C122.4 21.0204 126.25 19.6904 130.03 19.6904C133.81 19.6904 137.59 21.0904 140.04 23.8204C140.74 24.5904 141.02 25.4304 141.02 26.2004C141.02 28.0204 139.34 29.5604 137.59 29.5604C136.68 29.5604 135.77 29.2104 135 28.2304C133.74 26.6904 131.71 25.9204 129.54 25.9204C127.58 25.9204 125.48 26.6204 124.08 27.8804C121.98 29.7704 120.86 32.6404 120.86 35.4404C120.86 37.8904 121.7 40.3404 123.45 42.3004C124.99 43.9804 127.37 44.7504 129.68 44.7504C131.99 44.7504 134.37 43.9104 135.77 42.3004C136.82 41.0404 138.01 40.4804 139.06 40.4804C140.81 40.4804 142.21 41.9504 142.21 43.7704C142.21 44.6104 141.93 45.5904 141.16 46.4304C138.57 49.5104 134.23 51.1204 129.82 51.1204Z" fill="#2F564A"/>
<path d="M166.64 51.2604C158.52 51.2604 152.5 45.0304 152.5 35.7904C152.5 26.5504 157.89 19.6904 166.85 19.6904C170.21 19.6904 173.01 20.7404 175.11 22.3504C177.49 24.1704 178.89 27.0404 178.89 29.7704C178.89 33.3404 176.44 36.5604 170.56 36.6304H159.36C159.08 36.6304 158.8 37.0504 158.8 37.6104V37.7504C159.01 42.0904 162.65 45.3804 166.64 45.3804C169.86 45.3804 171.68 44.4004 173.36 42.8604C174.13 42.1604 174.9 41.8804 175.6 41.8804C177.28 41.8804 178.61 43.3504 178.61 45.1004C178.61 46.0104 178.26 46.9904 177.28 47.8304C174.41 50.3504 171.61 51.2604 166.64 51.2604ZM171.54 26.9704C170.49 26.0604 168.88 25.1504 166.85 25.1504C162.58 25.1504 159.99 27.6704 159.15 30.7504V30.8904C159.15 31.2404 159.36 31.5204 159.71 31.5204C160.48 31.5904 162.51 31.6604 164.82 31.6604C166.5 31.6604 168.25 31.5904 169.79 31.5904C171.89 31.5904 172.59 30.6104 172.59 29.4904C172.59 28.5104 172.1 27.5304 171.54 26.9704Z" fill="#2F564A"/>
<path d="M26.3798 87.4503C25.7398 87.5903 25.1198 87.6703 24.5598 87.6703C24.2798 87.6703 23.9998 87.6403 23.7198 87.6103C22.7998 87.4703 22.3798 86.8503 22.3798 86.2703C22.3798 85.6903 22.8298 85.0903 23.6698 85.0903C23.7498 85.0903 23.8398 85.1203 23.9198 85.1203C24.2598 85.1803 24.5898 85.1803 24.9298 85.1803C25.4098 85.1803 25.8798 85.1503 26.3598 85.0403C26.3298 84.0303 26.3298 83.1103 26.3298 82.3503C26.3298 81.5903 26.3298 80.9803 26.3598 80.6403C26.3898 79.7403 27.0598 79.3203 27.6998 79.3203C28.3398 79.3203 29.0398 79.7703 29.0398 80.6403C29.0398 80.7203 29.0398 80.8103 29.0098 80.9203C28.8998 81.6803 28.8098 82.8503 28.7898 84.2003L30.8098 83.2503C31.0298 83.1403 31.2298 83.1103 31.4498 83.1103C32.1498 83.1103 32.7098 83.6703 32.7098 84.2903C32.7098 84.7703 32.3698 85.3003 31.5598 85.6303C30.5198 86.0803 29.5998 86.4403 28.7298 86.7503C28.6998 87.9003 28.6998 89.0203 28.6998 90.1403C29.6498 89.8003 30.6298 89.5503 31.6098 89.3803C32.3098 89.2703 32.9498 89.1803 33.5398 89.1803C37.0398 89.1803 38.8298 91.1703 38.8298 93.3003C38.8298 95.0603 37.5698 96.9703 35.0198 97.9503C34.2098 98.2603 33.4198 98.4003 32.7498 98.4003C30.6798 98.4003 29.3298 97.1103 29.3298 95.4603C29.3298 95.0403 29.4098 94.6203 29.5798 94.1703C29.8298 93.5503 30.3398 93.2703 30.7798 93.2703C31.3398 93.2703 31.8198 93.6303 31.8198 94.2803C31.8198 94.3903 31.8198 94.5303 31.7598 94.6703C31.6998 94.8103 31.6998 94.9503 31.6998 95.0903C31.6998 95.7103 32.1798 96.1503 32.9298 96.1503C33.2898 96.1503 33.7098 96.0403 34.1898 95.8403C35.6198 95.2203 36.2598 94.2703 36.2598 93.4303C36.2598 92.2803 35.1398 91.3003 33.1198 91.3003C32.6398 91.3003 32.1398 91.3603 31.5798 91.4703C30.6298 91.6703 29.5598 91.9503 28.6998 92.2803C28.7298 94.1803 28.7598 95.7003 28.7798 96.0903V96.2303C28.7798 97.8503 27.3198 98.6703 25.7598 98.6703C25.1698 98.6703 24.5598 98.5603 23.9998 98.3103C22.5698 97.6903 22.0098 96.7703 22.0098 95.7303C22.0098 95.2803 22.1198 94.8103 22.3498 94.3303C22.9898 92.9603 24.6498 91.7803 26.4398 90.9103L26.3598 87.4403L26.3798 87.4503ZM24.5298 94.8703C24.4198 95.0703 24.3598 95.2603 24.3598 95.4303C24.3598 95.8503 24.6698 96.1603 25.0898 96.3303C25.2298 96.3903 25.4498 96.4403 25.6798 96.4403C26.0698 96.4403 26.4598 96.2703 26.4898 95.7703V93.1703C25.5898 93.6703 24.8698 94.2903 24.5298 94.8803V94.8703ZM39.9898 89.3803C39.0098 88.1503 37.6898 87.6203 36.4298 87.6203C36.0898 87.6203 35.7898 87.6803 35.4798 87.7303C35.3098 87.7603 35.1398 87.7903 34.9998 87.7903C34.2698 87.7903 33.9098 87.3103 33.9098 86.8103C33.9098 86.2803 34.2998 85.6903 35.1098 85.5503C35.6098 85.4703 36.1498 85.4103 36.7098 85.4103C38.4198 85.4103 40.3198 85.8903 41.5498 87.1203C41.9998 87.5703 42.1698 88.0203 42.1698 88.4403C42.1698 89.2203 41.5298 89.8403 40.8498 89.8403C40.5398 89.8403 40.2298 89.7003 39.9798 89.3903L39.9898 89.3803Z" fill="#2F564A"/>
<path d="M70.3399 83.9501C70.3399 84.9001 69.6699 85.3801 68.9999 85.3801C68.3299 85.3801 67.6599 84.9302 67.6599 84.0102V83.9501C67.6599 83.7301 67.6899 83.6102 67.6899 83.5302C67.6899 83.4202 67.6599 83.3302 67.6599 83.0802C67.6299 82.1602 66.7599 81.5402 64.9699 81.4802C63.3499 81.4002 61.5799 81.3702 59.8999 81.3702C60.2599 81.5702 60.5399 81.9302 60.5399 82.3202C60.5399 82.5402 60.4799 82.7402 60.3199 82.9602C60.9599 82.9602 61.6399 82.9602 62.1399 82.9902C64.0399 83.1002 65.1899 84.0302 65.1899 85.2902C65.1899 85.7402 65.0199 86.2401 64.7099 86.7701C64.2099 87.6101 63.5099 88.3902 62.6699 89.1202C64.9399 90.2102 67.9899 90.8802 71.4599 90.9102C72.3799 90.9102 72.8599 91.5502 72.8599 92.1702C72.8599 92.7902 72.3599 93.4602 71.3499 93.4602H71.2699C67.1499 93.2902 63.4299 92.1402 60.7399 90.5502C57.2099 92.7902 52.6499 94.1302 50.0999 94.4402H49.8499C48.9299 94.4402 48.4199 93.8202 48.4199 93.2102C48.4199 92.6002 48.8699 92.0301 49.7599 91.9501C52.3599 91.7301 55.9799 90.6602 58.7199 89.1202C57.8799 88.3902 57.2599 87.6102 56.8699 86.8202C56.8099 86.7402 56.7899 86.6502 56.7599 86.5702C55.2799 87.8602 53.6499 89.0102 52.0599 89.7302C51.7499 89.8702 51.4999 89.9302 51.2499 89.9302C50.4699 89.9302 49.9599 89.4002 49.9599 88.8102C49.9599 88.4201 50.2099 88.0301 50.7999 87.7701C53.4599 86.6801 56.5099 84.2402 58.2799 81.8102C58.4199 81.6102 58.5899 81.4702 58.7599 81.3902C57.8399 81.3902 56.9399 81.4502 56.1299 81.4702C54.2499 81.5502 53.5799 82.1702 53.5299 83.0402C53.4999 83.2402 53.4999 83.3502 53.4999 83.4902C53.4999 83.6002 53.4999 83.7402 53.5299 83.9902V84.0502C53.5299 84.8902 52.8899 85.3401 52.2099 85.3401C51.5299 85.3401 50.9199 84.8902 50.9199 83.9702V82.9102C50.9499 80.8102 52.8499 79.4702 55.8999 79.3302L59.2599 79.2502C59.2599 78.8302 59.2299 78.2102 59.1999 77.2302V77.1702C59.1999 76.3302 59.8699 75.9102 60.5699 75.9102C61.2699 75.9102 61.9399 76.3302 61.9399 77.1702V77.2302C61.9099 78.1502 61.8799 78.8002 61.8799 79.2502C62.9699 79.2502 64.0599 79.3102 65.1599 79.3302C67.7899 79.4402 70.2599 80.4202 70.3399 82.8902V83.9501ZM62.7799 99.3801C62.1899 99.4102 61.5199 99.4402 60.8499 99.4402C60.0099 99.4402 59.1999 99.4102 58.6099 99.3801C56.8199 99.3001 55.2199 98.6802 55.0299 96.7202C54.9999 96.5502 54.9999 96.3602 54.9999 96.1902C54.9999 95.7702 55.0599 95.4102 55.0799 95.1301C55.2799 93.5301 56.8199 92.6402 58.7199 92.5502C59.2799 92.5202 60.0399 92.5201 60.7599 92.5201C61.4799 92.5201 62.1899 92.5202 62.6599 92.5502C64.5399 92.6602 65.9899 93.5602 66.1899 94.9302C66.2499 95.2702 66.2499 95.5702 66.2499 95.9102C66.2499 96.1602 66.2499 96.4402 66.2199 96.7202C66.0799 98.5402 64.5999 99.3001 62.7799 99.3801ZM63.7899 95.9902C63.7899 95.7901 63.7599 95.6002 63.7299 95.4302C63.6199 94.7302 62.9699 94.4502 62.2699 94.3902C61.8199 94.3602 61.2099 94.3602 60.5599 94.3602C59.9099 94.3602 59.2999 94.3602 58.8499 94.3902C58.0699 94.4502 57.5899 94.8102 57.4799 95.4302C57.4499 95.6002 57.4199 95.8201 57.4199 96.0201C57.4199 96.1601 57.4499 96.2702 57.4499 96.4102C57.5299 97.1702 58.1199 97.3902 58.7699 97.4501C59.2499 97.5101 59.8599 97.5102 60.5099 97.5102C61.1599 97.5102 61.7699 97.5101 62.2999 97.4501C63.1399 97.3902 63.6699 97.1402 63.7599 96.3602C63.7599 96.2502 63.7899 96.1102 63.7899 96.0002V95.9902ZM62.2799 85.9702C62.3599 85.8302 62.3899 85.6601 62.3899 85.5201C62.3899 85.1801 62.1699 84.8802 61.5199 84.8202C61.2699 84.7902 60.9899 84.7902 60.6799 84.7902C60.3399 84.7902 60.0099 84.7902 59.6999 84.8202C59.1699 84.8502 58.8899 85.2401 58.8899 85.6301C58.8899 85.7401 58.9199 85.8802 58.9699 85.9902C59.3299 86.6602 59.8899 87.2801 60.5899 87.8401C61.3199 87.2501 61.9099 86.6402 62.2699 85.9602L62.2799 85.9702Z" fill="#2F564A"/>
<path d="M100.83 86.6999H100.89C101.62 86.6999 101.98 87.1799 101.98 87.6799C101.98 88.1799 101.59 88.7199 100.86 88.7199H100.83C98.8399 88.6599 97.1599 88.6399 95.5699 88.6399C95.5699 90.7399 95.6299 92.8399 95.7399 94.9399V95.2999C95.7399 98.1299 94.0599 99.5799 91.6499 99.5799C91.4799 99.5799 91.3099 99.5499 91.1499 99.5499C90.3099 99.4899 89.9199 98.9299 89.9199 98.3999C89.9199 97.8399 90.3099 97.2799 91.0699 97.2799H91.4899C92.4399 97.2799 93.3899 96.7799 93.3899 94.6199C93.3599 91.4799 93.3299 89.8899 93.3299 88.6299L88.8499 88.7099C88.5399 88.7099 88.3199 88.6499 88.1199 88.5699C87.8999 88.8799 87.5299 89.0699 87.1399 89.0699C86.8299 89.0699 86.5199 88.9299 86.2999 88.5699C85.9599 88.0399 85.6299 87.6999 85.2599 87.3899C85.2599 91.0599 85.3399 94.5599 85.4599 98.3399V98.3999C85.4599 99.2099 84.7899 99.6299 84.1199 99.6299C83.4499 99.6299 82.8299 99.2099 82.8299 98.3999V98.3399C82.9099 94.4799 83.0299 91.3999 83.0499 88.4599C82.0999 89.7999 81.0299 91.0399 79.9699 91.9599C79.6299 92.2399 79.2999 92.3799 78.9899 92.3799C78.2599 92.3799 77.6699 91.7899 77.6699 91.1199C77.6699 90.7299 77.8899 90.2799 78.4299 89.9199C79.6899 89.0199 81.3699 87.3699 82.5999 85.4999C82.8499 85.1399 83.0199 84.6899 83.0499 84.3499V84.2699C82.2399 84.2699 81.3999 84.2699 80.6099 84.2999H80.5499C79.6499 84.2999 79.2299 83.7399 79.2299 83.1499C79.2299 82.5599 79.7099 81.9499 80.5499 81.9499H80.5799C81.3899 81.9799 82.1999 82.0099 83.0199 82.0099C82.9899 80.6399 82.9399 79.2099 82.8799 77.6399V77.5599C82.8799 76.7799 83.5199 76.3799 84.1699 76.3799C84.8199 76.3799 85.4599 76.7699 85.4599 77.5599V77.6399C85.3799 79.1799 85.3199 80.6099 85.2899 82.0099C85.7899 82.0099 86.3299 81.9799 86.8599 81.9499C87.7599 81.9499 88.2299 82.5399 88.2299 83.1299C88.2299 83.7199 87.7799 84.3099 86.8899 84.3099H86.8599C86.3299 84.3099 85.7999 84.2799 85.2599 84.2799V85.6799C85.3999 85.6199 85.5399 85.5699 85.6799 85.5699C85.7899 85.5699 85.8799 85.5999 85.9899 85.6299C86.6299 85.9099 87.3899 86.4399 87.8899 87.0599C88.0899 86.8399 88.4199 86.7199 88.8399 86.7199C90.3499 86.7799 91.8399 86.7999 93.3199 86.8299V85.2899C92.2299 85.2899 91.1599 85.3199 90.1799 85.3499H90.1199C89.3899 85.3499 89.0599 84.8999 89.0599 84.4299C89.0599 83.9599 89.4499 83.4499 90.1799 83.4499H90.2099C91.1599 83.4799 92.2299 83.5099 93.3199 83.5099V82.1699C91.8899 82.1699 90.5199 82.1999 89.2599 82.2299H89.1999C88.4699 82.2299 88.1099 81.7499 88.1099 81.2799C88.1099 80.8099 88.4999 80.2999 89.2299 80.2999H89.2599C90.1599 80.3299 91.1099 80.3599 92.0899 80.3599C91.8899 80.2499 91.6999 80.0799 91.5899 79.7999C91.2299 79.0199 91.0299 78.7399 90.4099 78.1799C90.1599 77.9599 90.0499 77.6999 90.0499 77.4799C90.0499 76.9199 90.6399 76.4699 91.2499 76.4699C91.4499 76.4699 91.6699 76.5299 91.8699 76.6399C92.3499 76.9199 93.3799 78.0099 93.6899 78.7699C93.7699 78.9699 93.7999 79.1299 93.7999 79.2999C93.7999 79.7999 93.4899 80.1999 93.0999 80.3599H94.4999C94.7799 80.3299 94.9799 80.1399 95.0599 80.0199C95.5899 79.1199 96.1499 78.0599 96.4899 77.1899C96.7099 76.6299 97.1299 76.4099 97.5799 76.4099C98.2199 76.4099 98.9199 76.9099 98.9199 77.6099C98.9199 77.8099 98.8599 77.9999 98.7499 78.1999C98.3299 78.9299 97.8499 79.6799 97.3799 80.3599C98.2999 80.3599 99.2299 80.3299 100.12 80.2999H100.15C100.91 80.2999 101.3 80.7799 101.3 81.2499C101.3 81.7499 100.91 82.2299 100.15 82.2299H100.12C98.6099 82.1999 97.0699 82.1699 95.5599 82.1699V83.5099C96.6799 83.5099 97.8299 83.4799 98.9999 83.4499H99.0299C99.7899 83.4499 100.18 83.9299 100.18 84.3999C100.18 84.8699 99.7899 85.3499 99.0599 85.3499H98.9999C97.7999 85.3199 96.6799 85.2899 95.5599 85.2899V86.8299L100.82 86.7199L100.83 86.6999ZM88.3199 91.4799C87.7299 91.2799 87.5099 90.8899 87.5099 90.4999C87.5099 89.9699 87.9599 89.4099 88.6299 89.4099C88.7699 89.4099 88.9699 89.4399 89.1299 89.5199C89.8299 89.8299 90.3099 90.0199 90.9199 90.2199C92.1799 90.6399 92.7399 91.5399 92.7399 92.5999C92.7399 93.0199 92.6299 93.4999 92.4599 93.9399C91.5399 96.2099 89.2099 97.6599 87.7299 98.0599C87.5599 98.1199 87.3899 98.1199 87.2299 98.1199C86.4199 98.1199 85.8899 97.5299 85.8899 96.9399C85.8899 96.5199 86.1399 96.1299 86.6999 95.9599C88.2099 95.4799 89.9799 94.5299 90.5399 93.2199C90.6199 93.0499 90.6499 92.8799 90.6499 92.7399C90.6499 92.3799 90.3999 92.1199 89.9799 92.0099C89.3399 91.7599 89.0599 91.7299 88.3299 91.4799H88.3199ZM98.3399 92.8299C98.3399 92.9999 98.3699 93.1699 98.4499 93.3599C99.0399 94.6999 100.86 95.6799 102.43 96.1899C102.99 96.3899 103.24 96.7799 103.24 97.1999C103.24 97.8399 102.71 98.4899 101.87 98.4899C101.7 98.4899 101.53 98.4599 101.34 98.4099C99.7999 97.9899 97.4199 96.4499 96.4699 94.0999C96.2699 93.6199 96.1599 93.1499 96.1599 92.6699C96.1599 91.6099 96.7499 90.6299 98.0399 90.2099C98.6799 90.0099 99.1299 89.8199 99.8299 89.4799C100.03 89.3999 100.22 89.3399 100.42 89.3399C101.06 89.3399 101.54 89.8999 101.54 90.4599C101.54 90.8499 101.32 91.2399 100.73 91.4399C99.9999 91.7199 99.6399 91.7799 98.9699 91.9999C98.5799 92.1699 98.3499 92.4499 98.3499 92.8399L98.3399 92.8299Z" fill="#2F564A"/>
<path d="M114.47 91.4003C115.56 90.1703 116.68 88.6603 117.44 87.4003C117.89 86.7003 117.97 86.1403 118 85.4103C118.03 84.5103 118.73 84.0703 119.4 84.0703C120.07 84.0703 120.77 84.5503 120.77 85.5303V85.6103C120.71 86.5903 120.49 87.5103 119.76 88.5203C118.84 89.8403 116.76 92.2403 115.2 94.4003C114.5 95.3503 113.8 95.8003 113.13 95.8003C112.46 95.8003 111.76 95.3803 111.09 94.5703C110.17 93.4503 109.72 92.0203 109.72 90.5403C109.72 88.6403 110.48 86.6203 112.02 85.0003C114.06 82.8203 116.86 81.7803 119.58 81.7803C122.77 81.7803 125.85 83.2103 127.39 85.8703C128.09 87.0503 128.4 88.3103 128.4 89.5403C128.4 93.5703 124.84 97.3803 118.38 97.7403H118.24C117.23 97.7403 116.64 97.1503 116.64 96.5403C116.64 96.0103 117.12 95.4503 118.21 95.3403C123.42 94.8903 125.63 92.0403 125.63 89.3203C125.63 88.4803 125.41 87.6103 124.99 86.8803C123.87 84.9803 121.74 83.9103 119.47 83.9103C117.51 83.9103 115.47 84.6903 113.9 86.4003C112.92 87.4903 112.28 89.0003 112.28 90.3803C112.28 91.0503 112.42 91.6403 112.73 92.1703C112.84 92.3903 112.98 92.5103 113.15 92.5103C113.37 92.5103 113.65 92.3103 114.05 91.9203L114.5 91.4203L114.47 91.4003Z" fill="#2F564A"/>
<path d="M137.18 99.2405C136.82 99.3805 136.48 99.4405 136.2 99.4405C135.33 99.4405 134.8 98.8505 134.8 98.2605C134.8 97.7805 135.08 97.3405 135.72 97.0805C138.32 96.0705 139.78 94.0605 139.78 90.5005C139.78 90.2205 139.78 89.9705 139.75 89.6905V89.4405C139.75 87.2605 141.43 86.1605 143.87 86.0805C145.07 86.0505 146.53 86.0205 147.93 86.0205C149.33 86.0205 150.7 86.0505 151.82 86.0805C154.34 86.1605 155.57 87.2805 155.74 88.8205C155.77 89.0405 155.77 89.3205 155.77 89.6005V89.9405C155.63 91.5405 154.4 92.6805 151.71 92.8505C150.45 92.9305 148.74 92.9605 147.12 92.9605C145.86 92.9605 144.63 92.9305 143.7 92.9005C143.34 92.8705 142.41 92.8205 142.16 92.6205C141.96 95.1105 140.09 98.0505 137.18 99.2305V99.2405ZM148.94 82.7505C150.9 82.7205 152.86 82.6905 154.99 82.6405H155.05C155.81 82.6405 156.17 83.1705 156.17 83.7005C156.17 84.2605 155.78 84.8205 155.02 84.8205H154.99C152.36 84.7605 149.98 84.7105 147.65 84.7105C145.32 84.7105 143 84.7705 140.48 84.8205H140.42C139.64 84.8205 139.24 84.2605 139.24 83.7305C139.24 83.1705 139.63 82.6405 140.42 82.6405H140.48C142.52 82.7005 144.48 82.7205 146.42 82.7505V81.1505C143.98 81.1805 141.49 81.2105 138.64 81.2905H138.58C137.71 81.2905 137.26 80.7005 137.26 80.1405C137.26 79.5505 137.71 78.9905 138.58 78.9905H138.64C141.5 79.0705 143.99 79.1305 146.4 79.1305C146.4 78.4905 146.37 77.8705 146.37 77.3705V77.3105C146.37 76.4705 147.04 76.0205 147.71 76.0205C148.38 76.0205 149.03 76.4405 149.03 77.3105V77.3705L148.97 79.1305C151.49 79.1305 154.07 79.0705 156.98 78.9905H157.04C157.88 78.9905 158.3 79.5505 158.3 80.1105C158.3 80.7005 157.85 81.2905 157.04 81.2905H156.98C154.01 81.2105 151.46 81.1505 148.94 81.1505V82.7505ZM144.18 88.0705C143.17 88.1305 142.3 88.5705 142.3 89.6905V89.8005C142.33 90.5305 142.94 90.7805 143.87 90.8105C144.54 90.8405 145.47 90.8705 146.45 90.8705C146.45 90.4205 146.48 89.9505 146.48 89.4405C146.48 88.9605 146.45 88.4905 146.45 88.0105C145.61 88.0105 144.8 88.0405 144.18 88.0705ZM151.46 90.7805C152.24 90.7505 153.06 90.4405 153.14 89.7405C153.14 89.6605 153.17 89.5405 153.17 89.4305C153.17 89.3205 153.14 89.2105 153.14 89.1205C153.03 88.3605 152.38 88.0805 151.49 88.0605C150.79 88.0305 149.84 88.0005 148.83 88.0005V90.8605L151.46 90.7805Z" fill="#2F564A"/>
</svg>
