<svg width="1002" height="95" viewBox="0 0 1002 95" fill="none" xmlns="http://www.w3.org/2000/svg">
<path d="M357 69.2065C357 69.2065 392.05 93.0599 427.7 84.0487C462.67 75.7575 499.19 92.5999 500.48 92.9899C500.48 92.9899 500.48 92.9899 500.48 92.9999C500.48 92.9999 500.49 92.9999 500.5 92.9999H500.52C501.81 92.5999 538.33 75.7575 573.3 84.0487C608.95 93.0599 644.03 69.2566 644 69.2065" stroke="white" stroke-linecap="round" stroke-linejoin="round"/>
<path d="M446.43 37.342C446.55 37.302 446.71 37.262 446.87 37.262C447.03 37.262 447.23 37.302 447.43 37.3821C448.47 37.8221 449.47 38.6322 450.03 39.3923C450.27 39.7124 450.35 40.0324 450.35 40.3625C450.35 41.2426 449.59 42.0527 448.79 42.0527C448.39 42.0527 447.99 41.8527 447.67 41.3726C447.27 40.7725 446.87 40.2825 446.43 39.8824C446.43 44.7531 446.55 49.4538 446.71 54.5645V54.6445C446.71 55.8947 445.75 56.5348 444.83 56.5348C443.91 56.5348 442.99 55.9347 442.99 54.6445V54.5645C443.11 49.0537 443.27 44.7531 443.31 40.6125C442.03 42.4628 440.55 44.073 438.83 45.4432C438.35 45.8033 437.87 45.9633 437.39 45.9633C436.39 45.9633 435.59 45.1632 435.59 44.193C435.59 43.5929 435.91 42.9428 436.71 42.4628C438.63 41.2526 440.99 38.9623 442.68 36.1919C443.04 35.5918 443.24 35.1017 443.32 34.6617V34.3416C442.2 34.3416 441.08 34.3416 440.12 34.3816H440.04C438.68 34.3816 438.04 33.5815 438.04 32.7314C438.04 31.8813 438.72 31.0411 440 31.0411H440.08C441 31.0812 442.12 31.1212 443.28 31.1212C443.24 29.1909 443.16 27.2206 443.08 25.0103V24.8903C443.08 23.6401 444 23 444.92 23C445.84 23 446.72 23.6401 446.72 24.8903V25.0103C446.64 27.1406 446.56 29.1509 446.52 31.0812C447.04 31.0812 447.56 31.0812 448.08 31.0411H448.16C449.2 31.0411 449.76 31.6812 449.92 32.3713C452.28 30.6411 454.24 27.8307 456.17 25.7004C457.25 24.5302 458.49 24.0101 459.73 24.0101C460.97 24.0101 462.13 24.4902 463.17 25.4203C465.73 27.7107 468.94 30.7711 472.1 32.3013C472.82 32.6614 473.14 33.2215 473.14 33.7915C473.14 34.7617 472.3 35.7218 471.14 35.7218C470.78 35.7218 470.34 35.6018 469.94 35.3618C468.3 34.4416 466.46 32.8314 464.73 31.2212C464.85 31.4212 464.89 31.6612 464.89 31.8613C464.89 32.5414 464.45 33.1915 463.53 33.1915H463.41C462.37 33.1515 461.41 33.1515 460.53 33.1515C459.29 33.1515 458.13 33.1515 456.85 33.1915H456.77C455.81 33.1915 455.33 32.5514 455.33 31.9013C455.33 31.8213 455.37 31.7012 455.37 31.6212C454.01 33.2315 452.49 34.7617 450.73 35.8818C450.25 36.2019 449.81 36.3219 449.41 36.3219C448.41 36.3219 447.65 35.4818 447.65 34.6717C447.65 34.5517 447.69 34.4716 447.69 34.3916C447.29 34.3516 446.85 34.3516 446.45 34.3516V37.3721L446.43 37.342ZM465.25 43.3429C463.53 43.4229 461.81 43.4629 460.12 43.4629C458.43 43.4629 456.8 43.4229 455.31 43.3429C452.27 43.1829 450.83 41.9327 450.63 39.9224C450.59 39.6024 450.55 39.2423 450.55 38.9223C450.55 38.5622 450.59 38.2022 450.63 37.8721C450.87 35.9018 452.47 34.6117 455.31 34.4916C456.75 34.4116 458.55 34.3716 460.44 34.3716C462.04 34.3716 463.72 34.4116 465.25 34.4916C468.17 34.6117 469.77 35.9418 469.97 37.8721C470.01 38.2322 470.01 38.5922 470.01 38.9623C470.01 39.3323 470.01 39.6824 469.97 39.9224C469.77 41.7727 468.37 43.1829 465.25 43.3429ZM463.01 55.8847C462.09 55.9647 461.21 56.0047 460.25 56.0047C459.41 56.0047 458.57 55.9647 457.65 55.8847C455.09 55.6447 453.45 54.3545 453.2 52.0241C453.12 51.4241 453.12 50.694 453.12 50.0539C453.12 49.3738 453.12 48.7637 453.2 48.2836C453.48 46.1933 455.04 44.6231 457.88 44.4631C458.48 44.4231 459.4 44.4231 460.28 44.4231C461.16 44.4231 462 44.4231 462.6 44.4631C465.64 44.6231 467.2 46.1933 467.4 48.2836C467.44 48.8837 467.44 49.4938 467.44 50.0939C467.44 50.734 467.44 51.3841 467.4 52.0241C467.24 54.2345 465.64 55.6447 463 55.8847H463.01ZM455.64 36.862C454.24 36.942 453.64 37.5421 453.52 38.3122C453.48 38.4722 453.48 38.7122 453.48 38.9123C453.48 39.1523 453.48 39.3923 453.52 39.5524C453.64 40.3525 454.28 40.9226 455.64 41.0026C456.64 41.0826 457.68 41.1226 458.76 41.1626V36.742L455.64 36.862ZM456.96 40.8025C456.56 40.8025 456.24 40.6025 456.04 40.2025C455.72 39.4423 455.36 39.1523 454.92 38.7122C454.72 38.5122 454.64 38.3122 454.64 38.1122C454.64 37.5921 455.2 37.102 455.88 37.102C456.12 37.102 456.4 37.182 456.64 37.342C457.12 37.6221 457.8 38.3922 458.12 39.1123C458.2 39.2723 458.24 39.4323 458.24 39.5924C458.24 40.2725 457.56 40.8025 456.96 40.8025ZM460.97 27.5707C460.65 27.2506 460.25 27.0506 459.85 27.0506C459.45 27.0506 459.05 27.2506 458.69 27.6507C457.85 28.5708 457.05 29.5809 456.21 30.6211C456.37 30.5411 456.61 30.5011 456.85 30.5011C457.97 30.5411 459.05 30.5411 460.13 30.5411C461.21 30.5411 462.29 30.5411 463.41 30.5011C463.69 30.5011 463.93 30.5411 464.13 30.6211C462.97 29.5309 461.89 28.4508 460.97 27.5607V27.5707ZM464.25 48.6037C464.17 47.7235 463.53 47.1134 462.29 46.9534C461.85 46.9134 461.09 46.8734 460.29 46.8734C459.49 46.8734 458.65 46.9134 458.21 46.9534C457.01 47.1134 456.45 47.7535 456.37 48.6037C456.37 48.6837 456.33 48.8037 456.33 48.8837H464.26V48.6037H464.25ZM460.25 51.224C458.93 51.224 457.65 51.264 456.33 51.264C456.33 51.4241 456.33 51.5841 456.37 51.7441C456.49 52.6642 457.25 53.2343 458.33 53.3543C458.81 53.4343 459.53 53.4343 460.29 53.4343C461.01 53.4343 461.73 53.4343 462.29 53.3543C463.49 53.2343 464.17 52.6342 464.25 51.7441C464.25 51.5841 464.29 51.4241 464.29 51.264C462.85 51.264 461.53 51.224 460.25 51.224ZM461.53 41.1226C462.69 41.1226 463.85 41.0826 464.93 41.0026C466.25 40.9226 466.93 40.4025 467.05 39.5524C467.05 39.3123 467.09 39.0723 467.09 38.8723C467.09 38.6322 467.05 38.4722 467.05 38.3122C466.89 37.5121 466.33 36.942 464.93 36.862C463.89 36.782 462.69 36.742 461.53 36.742V41.1226ZM463.33 40.8826C462.73 40.8826 462.13 40.4825 462.13 39.9624C462.13 39.8424 462.17 39.6824 462.25 39.5624C462.57 39.0423 463.09 38.2722 463.45 37.5921C463.69 37.192 464.05 36.992 464.45 36.992C465.09 36.992 465.73 37.4721 465.73 38.1222C465.73 38.2822 465.69 38.4822 465.57 38.6822C465.25 39.2023 464.65 39.9724 464.21 40.4925C463.97 40.7725 463.65 40.8926 463.33 40.8926V40.8826Z" fill="white"/>
<path d="M503.179 55.0444C502.179 55.1245 501.099 55.1645 500.019 55.1645C498.939 55.1645 497.899 55.1245 496.979 55.0444C492.579 54.6444 489.969 52.3541 489.809 48.2435C489.729 46.5132 489.689 44.0229 489.689 41.4825C489.689 38.6321 489.729 35.7317 489.849 33.6814C490.049 29.5808 492.849 27.0904 496.979 26.7604C497.979 26.6804 499.299 26.6404 500.579 26.6404C501.459 26.6404 502.259 26.6404 502.939 26.7204C507.139 27.0804 510.149 29.1707 510.309 33.3913C510.349 35.1616 510.389 38.092 510.389 40.9524C510.389 43.8128 510.349 46.6232 510.309 48.1535C510.149 52.054 507.589 54.6644 503.179 55.0344V55.0444ZM506.659 42.0526C504.099 42.0126 501.979 42.0126 499.889 42.0126C497.799 42.0126 495.769 42.0126 493.399 42.0526C493.399 44.2629 493.439 46.3932 493.519 47.8034C493.639 49.9337 494.919 51.3439 497.479 51.5839C498.279 51.664 499.239 51.704 500.159 51.704C501.079 51.704 501.959 51.664 502.639 51.5839C504.879 51.3039 506.399 49.8137 506.519 47.7634L506.639 42.0526H506.659ZM506.539 34.0114C506.379 31.6011 504.699 30.4309 502.419 30.1909C501.619 30.1109 500.699 30.0709 499.779 30.0709C498.859 30.0709 498.059 30.1109 497.419 30.1909C494.939 30.4709 493.699 32.0011 493.579 34.2115C493.499 35.3416 493.459 36.8618 493.459 38.5121C496.179 38.5521 498.469 38.5521 500.869 38.5521C502.669 38.5521 504.509 38.5521 506.679 38.5121L506.559 34.0114H506.539Z" fill="white"/>
<path d="M538.63 36.5018V39.4822C538.91 39.2822 539.27 39.1622 539.71 39.1622C539.91 39.1622 540.109 39.2022 540.309 39.2422C541.549 39.5623 543.47 40.6924 544.07 41.4925C544.43 41.9726 544.549 42.4127 544.549 42.8627C544.549 43.9529 543.67 44.793 542.71 44.793C542.19 44.793 541.67 44.553 541.27 43.9129C540.67 42.9928 539.709 42.2626 538.789 41.7826C538.709 41.7826 538.67 41.7426 538.63 41.7026C538.67 45.5231 538.789 49.5437 539.029 53.8043V53.9643C539.029 55.4145 537.99 56.1746 536.91 56.1346C535.87 56.1346 534.829 55.4545 534.829 54.0043V53.8043C535.069 49.7037 535.23 45.7631 535.27 42.0626C533.67 44.1529 531.629 46.2432 529.179 47.9735C528.699 48.3335 528.219 48.4535 527.779 48.4535C526.739 48.4535 525.979 47.6534 525.979 46.7233C525.979 46.1632 526.3 45.5531 527.02 45.1131C529.94 43.3428 532.669 40.5324 534.549 38.3121C535.189 37.552 535.269 36.9819 535.309 36.5418V36.5018C533.469 36.5018 531.669 36.5418 529.859 36.5818H529.779C528.539 36.5818 527.939 35.7417 527.939 34.8916C527.939 34.0415 528.539 33.2014 529.779 33.2014H529.859C531.579 33.2814 533.42 33.2814 535.27 33.2814L535.149 29.3408C534.149 29.5808 533.069 29.7809 531.91 29.9809C531.75 30.0209 531.589 30.0209 531.469 30.0209C530.309 30.0209 529.669 29.1808 529.669 28.3307C529.669 27.5705 530.19 26.8004 531.27 26.6804C534.99 26.2004 537.48 25.1502 539.96 23.95C540.24 23.83 540.519 23.75 540.759 23.75C541.759 23.75 542.559 24.5901 542.559 25.5203C542.559 26.1203 542.199 26.7704 541.279 27.2105C540.719 27.4905 540.04 27.7706 539.32 28.0506C539 28.2506 538.799 28.5307 538.799 28.8507L538.679 33.2714C539.959 33.2714 541.199 33.2314 542.439 33.1913H542.52C543.76 33.1913 544.399 34.0315 544.399 34.8816C544.399 35.7317 543.8 36.5718 542.52 36.5718H542.439L538.639 36.4918L538.63 36.5018ZM552.799 53.4742C552.319 53.4742 551.839 53.4342 551.399 53.3942C547.799 53.0742 545.749 51.3039 545.509 47.4434C545.429 45.7931 545.389 43.6228 545.389 41.5325C545.389 39.1622 545.429 36.8719 545.509 35.4217C545.709 32.2412 547.71 30.1909 551.24 29.8709C551.76 29.8309 552.279 29.8309 552.839 29.8309C553.359 29.8309 553.919 29.8309 554.439 29.8709C558.279 30.2309 559.97 32.4412 560.13 35.5017C560.21 36.9119 560.249 39.2822 560.249 41.6526C560.249 43.7029 560.21 45.7931 560.13 47.3234C559.93 51.0239 558.09 53.1142 554.24 53.3942C553.76 53.4342 553.279 53.4742 552.799 53.4742ZM553.88 33.1213C553.56 33.0813 553.199 33.0813 552.839 33.0813C552.519 33.0813 552.159 33.0813 551.839 33.1213C550.199 33.2814 549.279 34.4115 549.199 35.9817C549.119 37.2719 549.079 39.5623 549.079 41.8926C549.079 43.7429 549.119 45.5931 549.199 47.0433C549.279 48.8136 550.279 49.8537 551.559 50.0238C551.919 50.1038 552.399 50.1038 552.839 50.1038C553.279 50.1038 553.719 50.1038 554.079 50.0238C555.479 49.8237 556.319 48.7736 556.399 46.9633C556.479 45.4731 556.52 43.5028 556.52 41.6126C556.52 39.3622 556.479 37.2319 556.399 35.9017C556.359 34.4915 555.36 33.2914 553.88 33.1313V33.1213Z" fill="white"/>
<path d="M922.236 15.58C930.477 7.2 941.927 2 954.598 2C979.679 2 1000 22.37 1000 47.5C1000 72.63 979.669 93 954.598 93C941.927 93 930.477 87.8 922.236 79.42" stroke="white" stroke-width="3.39" stroke-linecap="round" stroke-linejoin="round"/>
<path d="M882.764 79.42C874.523 87.8 863.073 93 850.402 93C825.321 93 805 72.62 805 47.5C805 22.38 825.321 2 850.402 2C863.073 2 874.523 7.2 882.764 15.58" stroke="white" stroke-width="3.39" stroke-linecap="round" stroke-linejoin="round"/>
<path d="M840.672 53.18C841.812 53.18 842.522 52.62 842.522 51.92C842.522 51.49 842.242 50.99 841.602 50.56C840.652 49.91 839.972 49.57 838.892 48.77C837.812 47.97 837.352 46.92 837.352 45.9C837.352 43.93 839.102 42.08 841.782 42.04C842.492 42.04 843.262 42.1 844.122 42.32C845.072 42.57 845.472 43.25 845.472 43.86C845.472 44.57 844.982 45.22 844.182 45.22C843.902 45.22 843.632 45.16 843.322 45C842.742 44.72 842.242 44.63 841.782 44.63H841.692C840.832 44.63 840.272 45.12 840.272 45.77C840.272 46.2 840.552 46.73 841.222 47.16C842.052 47.68 842.942 48.18 843.902 48.89C845.102 49.78 845.622 50.89 845.622 51.97C845.622 53.94 843.742 55.79 840.792 55.79H840.642C839.812 55.79 838.792 55.7 837.782 55.39C836.952 55.11 836.582 54.5 836.582 53.91C836.582 53.2 837.102 52.52 837.902 52.52C838.182 52.52 838.452 52.58 838.762 52.74C839.312 53.02 839.992 53.14 840.552 53.17H840.672V53.18Z" fill="white"/>
<path d="M858.362 55.86C854.792 55.86 852.142 53.11 852.142 49.04C852.142 44.97 854.512 41.95 858.452 41.95C859.932 41.95 861.162 42.4099 862.082 43.1199C863.132 43.9199 863.742 45.1899 863.742 46.3899C863.742 47.9599 862.662 49.38 860.082 49.41H855.162C855.042 49.41 854.912 49.6 854.912 49.84V49.8999C855.002 51.8099 856.602 53.2599 858.362 53.2599C859.782 53.2599 860.582 52.8299 861.312 52.1499C861.652 51.8399 861.992 51.7199 862.292 51.7199C863.032 51.7199 863.612 52.3699 863.612 53.1399C863.612 53.5399 863.462 53.97 863.032 54.34C861.772 55.45 860.542 55.8499 858.352 55.8499L858.362 55.86ZM860.522 45.16C860.062 44.76 859.352 44.36 858.462 44.36C856.582 44.36 855.442 45.4699 855.072 46.8299V46.8899C855.072 47.0399 855.162 47.1699 855.322 47.1699C855.662 47.1999 856.552 47.2299 857.572 47.2299C858.312 47.2299 859.082 47.2 859.762 47.2C860.682 47.2 860.992 46.77 860.992 46.27C860.992 45.84 860.772 45.41 860.532 45.16H860.522Z" fill="white"/>
<path d="M874.183 54.3801C874.183 55.2401 873.443 55.68 872.703 55.68C871.963 55.68 871.163 55.22 871.163 54.35V54.2901C871.223 51.7901 871.253 50.03 871.253 48.46V46.92C871.253 43.99 873.933 42.11 876.823 42.05H876.883C877.863 42.05 878.363 42.7 878.363 43.35C878.363 44 877.843 44.74 876.853 44.8C875.463 44.83 874.143 45.79 874.113 47.39V49.43C874.113 50.6901 874.113 52.36 874.173 54.33V54.39L874.183 54.3801Z" fill="white"/>
<path d="M885.174 36.65C885.174 35.32 886.344 34.77 887.084 34.77H887.144C888.124 34.8 889.054 35.63 889.054 36.65C889.054 37.76 888.134 38.59 887.144 38.62H887.084C886.064 38.62 885.204 38 885.174 36.74V36.65ZM887.114 55.71C886.344 55.71 885.574 55.22 885.574 54.23C885.574 51.95 885.604 49.02 885.604 46.64C885.604 45.44 885.604 44.39 885.574 43.65V43.59C885.574 42.63 886.344 42.17 887.114 42.17C887.884 42.17 888.654 42.63 888.654 43.56V43.62C888.624 44.64 888.594 46.46 888.594 48.43C888.594 50.4 888.624 52.53 888.654 54.17V54.23C888.654 55.22 887.884 55.71 887.114 55.71Z" fill="white"/>
<path d="M902.495 55.86C898.925 55.86 896.275 53.11 896.275 49.04C896.275 44.97 898.645 41.95 902.585 41.95C904.065 41.95 905.295 42.4099 906.215 43.1199C907.265 43.9199 907.875 45.1899 907.875 46.3899C907.875 47.9599 906.795 49.38 904.215 49.41H899.295C899.175 49.41 899.045 49.6 899.045 49.84V49.8999C899.135 51.8099 900.735 53.2599 902.495 53.2599C903.915 53.2599 904.715 52.8299 905.445 52.1499C905.785 51.8399 906.125 51.7199 906.425 51.7199C907.165 51.7199 907.745 52.3699 907.745 53.1399C907.745 53.5399 907.595 53.97 907.165 54.34C905.905 55.45 904.675 55.8499 902.485 55.8499L902.495 55.86ZM904.655 45.16C904.195 44.76 903.485 44.36 902.595 44.36C900.715 44.36 899.575 45.4699 899.205 46.8299V46.8899C899.205 47.0399 899.295 47.1699 899.455 47.1699C899.795 47.1999 900.685 47.2299 901.705 47.2299C902.445 47.2299 903.215 47.2 903.895 47.2C904.815 47.2 905.125 46.77 905.125 46.27C905.125 45.84 904.905 45.41 904.665 45.16H904.655Z" fill="white"/>
<path d="M918.075 53.18C919.215 53.18 919.925 52.62 919.925 51.92C919.925 51.49 919.645 50.99 919.005 50.56C918.055 49.91 917.375 49.57 916.295 48.77C915.215 47.97 914.755 46.92 914.755 45.9C914.755 43.93 916.505 42.08 919.185 42.04C919.895 42.04 920.665 42.1 921.525 42.32C922.475 42.57 922.875 43.25 922.875 43.86C922.875 44.57 922.385 45.22 921.585 45.22C921.305 45.22 921.035 45.16 920.725 45C920.145 44.72 919.645 44.63 919.185 44.63H919.095C918.235 44.63 917.675 45.12 917.675 45.77C917.675 46.2 917.955 46.73 918.625 47.16C919.455 47.68 920.345 48.18 921.305 48.89C922.505 49.78 923.025 50.89 923.025 51.97C923.025 53.94 921.145 55.79 918.195 55.79H918.045C917.215 55.79 916.195 55.7 915.185 55.39C914.355 55.11 913.985 54.5 913.985 53.91C913.985 53.2 914.505 52.52 915.305 52.52C915.585 52.52 915.855 52.58 916.165 52.74C916.715 53.02 917.395 53.14 917.955 53.17H918.075V53.18Z" fill="white"/>
<path d="M929.796 44.76V44.61C929.796 39.49 931.426 33.26 937.276 33.26C943.126 33.26 944.726 39.34 944.786 44.4V44.77C944.786 49.83 942.936 55.97 937.276 55.97C931.616 55.97 929.826 49.86 929.796 44.77V44.76ZM941.586 44.48C941.586 41.52 940.876 36.15 937.276 36.15C933.676 36.15 932.966 41.55 932.966 44.6V44.79C932.996 47.69 933.826 53.06 937.276 53.06C940.726 53.06 941.586 47.38 941.586 44.48Z" fill="white"/>
<path d="M964.517 55.5601C963.037 55.5901 961.567 55.5901 960.237 55.5901H955.377C953.467 55.5901 952.237 54.6601 952.237 53.2801C952.237 52.3901 952.727 51.3701 953.837 50.2601C956.207 47.9201 959.467 45.5101 961.287 43.6001C962.677 42.1801 963.287 40.6701 963.287 39.3701C963.287 37.4301 961.937 35.9801 959.497 35.9801H959.317C957.007 36.0401 955.747 37.6801 955.747 39.4301C955.747 39.8301 955.807 40.2301 955.927 40.6301C956.017 40.9101 956.047 41.1901 956.047 41.4001C956.047 42.3901 955.337 42.9401 954.537 42.9401C953.857 42.9401 953.147 42.5401 952.877 41.6101C952.697 41.0501 952.597 40.4101 952.597 39.7601C952.597 36.8601 954.567 33.5301 959.247 33.3101H959.617C963.707 33.3101 966.387 36.0601 966.387 39.4501C966.387 41.3901 965.497 43.5501 963.527 45.5001C961.277 47.6901 958.077 49.8801 956.017 52.0101C955.867 52.1601 955.797 52.2901 955.797 52.4101C955.797 52.6001 955.947 52.7201 956.287 52.7201C957.887 52.6601 962.747 52.5001 964.567 52.4101H964.687C965.797 52.4101 966.347 53.1501 966.347 53.8901C966.347 54.6901 965.697 55.5201 964.497 55.5601H964.517Z" fill="white"/>
</svg>
