<svg width="157" height="127" viewBox="0 0 157 127" fill="none" xmlns="http://www.w3.org/2000/svg">
<path d="M1 113.084C1 113.084 19.9294 126.033 39.1829 121.141C58.0692 116.64 77.7925 125.783 78.4892 125.995C78.4892 125.995 78.4892 125.995 78.4892 126C78.4892 126 78.4946 126 78.5 126H78.5108C79.2075 125.783 98.9308 116.64 117.817 121.141C137.071 126.033 156.016 113.111 156 113.084" stroke="white" stroke-linecap="round" stroke-linejoin="round"/>
<path d="M90.1455 10.3569C95.2165 5.2 102.263 2 110.06 2C125.495 2 138 14.5354 138 30C138 45.4646 125.489 58 110.06 58C102.263 58 95.2165 54.8 90.1455 49.6431" stroke="white" stroke-width="3.39" stroke-linecap="round" stroke-linejoin="round"/>
<path d="M65.8546 49.6431C60.7836 54.8 53.7371 58 45.9398 58C30.5052 58 18 45.4585 18 30C18 14.5415 30.5052 2 45.9398 2C53.7371 2 60.7836 5.2 65.8546 10.3569" stroke="white" stroke-width="3.39" stroke-linecap="round" stroke-linejoin="round"/>
<path d="M39.9525 33.4955C40.654 33.4955 41.0909 33.1509 41.0909 32.7201C41.0909 32.4555 40.9186 32.1478 40.5248 31.8832C39.9402 31.4832 39.5217 31.274 38.8571 30.7817C38.1925 30.2894 37.9094 29.6432 37.9094 29.0155C37.9094 27.8032 38.9863 26.6648 40.6355 26.6401C41.0725 26.6401 41.5463 26.6771 42.0755 26.8124C42.6602 26.9663 42.9063 27.3848 42.9063 27.7601C42.9063 28.1971 42.6048 28.5971 42.1125 28.5971C41.9402 28.5971 41.774 28.5601 41.5832 28.4617C41.2263 28.2894 40.9186 28.234 40.6355 28.234H40.5802C40.0509 28.234 39.7063 28.5355 39.7063 28.9355C39.7063 29.2001 39.8786 29.5263 40.2909 29.7909C40.8017 30.1109 41.3494 30.4186 41.9402 30.8555C42.6786 31.4032 42.9986 32.0863 42.9986 32.7509C42.9986 33.9632 41.8417 35.1017 40.0263 35.1017H39.934C39.4232 35.1017 38.7955 35.0463 38.174 34.8555C37.6632 34.6832 37.4355 34.3078 37.4355 33.9448C37.4355 33.5078 37.7555 33.0894 38.2479 33.0894C38.4202 33.0894 38.5863 33.1263 38.7771 33.2248C39.1155 33.3971 39.534 33.4709 39.8786 33.4894H39.9525V33.4955Z" fill="white"/>
<path d="M50.8375 35.1445C48.6405 35.1445 47.0098 33.4522 47.0098 30.9475C47.0098 28.4429 48.4682 26.5845 50.8928 26.5845C51.8036 26.5845 52.5605 26.8675 53.1267 27.3045C53.7728 27.7968 54.1482 28.5783 54.1482 29.3168C54.1482 30.2829 53.4836 31.1568 51.8959 31.1752H48.8682C48.7944 31.1752 48.7144 31.2922 48.7144 31.4399V31.4768C48.7698 32.6522 49.7544 33.5445 50.8375 33.5445C51.7113 33.5445 52.2036 33.2799 52.6528 32.8614C52.8621 32.6706 53.0713 32.5968 53.2559 32.5968C53.7113 32.5968 54.0682 32.9968 54.0682 33.4706C54.0682 33.7168 53.9759 33.9814 53.7113 34.2091C52.9359 34.8922 52.179 35.1383 50.8313 35.1383L50.8375 35.1445ZM52.1667 28.5599C51.8836 28.3137 51.4467 28.0675 50.899 28.0675C49.7421 28.0675 49.0405 28.7506 48.8128 29.5875V29.6245C48.8128 29.7168 48.8682 29.7968 48.9667 29.7968C49.1759 29.8152 49.7236 29.8337 50.3513 29.8337C50.8067 29.8337 51.2805 29.8152 51.699 29.8152C52.2651 29.8152 52.4559 29.5506 52.4559 29.2429C52.4559 28.9783 52.3205 28.7137 52.1728 28.5599H52.1667Z" fill="white"/>
<path d="M60.5753 34.2337C60.5753 34.763 60.1199 35.0337 59.6645 35.0337C59.2091 35.0337 58.7168 34.7507 58.7168 34.2153V34.1783C58.7537 32.6399 58.7722 31.5568 58.7722 30.5907V29.643C58.7722 27.8399 60.4214 26.683 62.1999 26.646H62.2368C62.8399 26.646 63.1476 27.046 63.1476 27.446C63.1476 27.846 62.8276 28.3014 62.2183 28.3383C61.363 28.3568 60.5506 28.9476 60.5322 29.9322V31.1876C60.5322 31.963 60.5322 32.9907 60.5691 34.203V34.2399L60.5753 34.2337Z" fill="white"/>
<path d="M67.3379 23.3234C67.3379 22.5049 68.0579 22.1665 68.5133 22.1665H68.5502C69.1533 22.1849 69.7256 22.6957 69.7256 23.3234C69.7256 24.0065 69.1594 24.5172 68.5502 24.5357H68.5133C67.8856 24.5357 67.3564 24.1542 67.3379 23.3788V23.3234ZM68.5317 35.0526C68.0579 35.0526 67.584 34.7511 67.584 34.1418C67.584 32.7388 67.6025 30.9357 67.6025 29.4711C67.6025 28.7326 67.6025 28.0865 67.584 27.6311V27.5942C67.584 27.0034 68.0579 26.7203 68.5317 26.7203C69.0056 26.7203 69.4794 27.0034 69.4794 27.5757V27.6126C69.461 28.2403 69.4425 29.3603 69.4425 30.5726C69.4425 31.7849 69.461 33.0957 69.4794 34.1049V34.1418C69.4794 34.7511 69.0056 35.0526 68.5317 35.0526Z" fill="white"/>
<path d="M77.9976 35.1445C75.8007 35.1445 74.1699 33.4522 74.1699 30.9475C74.1699 28.4429 75.6284 26.5845 78.053 26.5845C78.9638 26.5845 79.7207 26.8675 80.2868 27.3045C80.933 27.7968 81.3084 28.5783 81.3084 29.3168C81.3084 30.2829 80.6438 31.1568 79.0561 31.1752H76.0284C75.9545 31.1752 75.8745 31.2922 75.8745 31.4399V31.4768C75.9299 32.6522 76.9145 33.5445 77.9976 33.5445C78.8715 33.5445 79.3638 33.2799 79.813 32.8614C80.0222 32.6706 80.2315 32.5968 80.4161 32.5968C80.8715 32.5968 81.2284 32.9968 81.2284 33.4706C81.2284 33.7168 81.1361 33.9814 80.8715 34.2091C80.0961 34.8922 79.3392 35.1383 77.9915 35.1383L77.9976 35.1445ZM79.3268 28.5599C79.0438 28.3137 78.6068 28.0675 78.0592 28.0675C76.9022 28.0675 76.2007 28.7506 75.973 29.5875V29.6245C75.973 29.7168 76.0284 29.7968 76.1268 29.7968C76.3361 29.8152 76.8838 29.8337 77.5115 29.8337C77.9668 29.8337 78.4407 29.8152 78.8591 29.8152C79.4253 29.8152 79.6161 29.5506 79.6161 29.2429C79.6161 28.9783 79.4807 28.7137 79.333 28.5599H79.3268Z" fill="white"/>
<path d="M87.5843 33.4955C88.2858 33.4955 88.7228 33.1509 88.7228 32.7201C88.7228 32.4555 88.5505 32.1478 88.1566 31.8832C87.572 31.4832 87.1535 31.274 86.4889 30.7817C85.8243 30.2894 85.5412 29.6432 85.5412 29.0155C85.5412 27.8032 86.6182 26.6648 88.2674 26.6401C88.7043 26.6401 89.1782 26.6771 89.7074 26.8124C90.292 26.9663 90.5382 27.3848 90.5382 27.7601C90.5382 28.1971 90.2366 28.5971 89.7443 28.5971C89.572 28.5971 89.4058 28.5601 89.2151 28.4617C88.8582 28.2894 88.5505 28.234 88.2674 28.234H88.212C87.6828 28.234 87.3382 28.5355 87.3382 28.9355C87.3382 29.2001 87.5105 29.5263 87.9228 29.7909C88.4335 30.1109 88.9812 30.4186 89.572 30.8555C90.3105 31.4032 90.6305 32.0863 90.6305 32.7509C90.6305 33.9632 89.4735 35.1017 87.6582 35.1017H87.5658C87.0551 35.1017 86.4274 35.0463 85.8058 34.8555C85.2951 34.6832 85.0674 34.3078 85.0674 33.9448C85.0674 33.5078 85.3874 33.0894 85.8797 33.0894C86.052 33.0894 86.2182 33.1263 86.4089 33.2248C86.7474 33.3971 87.1658 33.4709 87.5105 33.4894H87.5843V33.4955Z" fill="white"/>
<path d="M94.7979 28.3137V28.2214C94.7979 25.0707 95.8009 21.2368 99.4009 21.2368C103.001 21.2368 103.986 24.9784 104.022 28.0922V28.3199C104.022 31.4337 102.884 35.2122 99.4009 35.2122C95.9179 35.2122 94.8163 31.4522 94.7979 28.3199V28.3137ZM102.053 28.1414C102.053 26.3199 101.616 23.0153 99.4009 23.0153C97.1855 23.0153 96.7486 26.3384 96.7486 28.2153V28.3322C96.7671 30.1168 97.2779 33.4214 99.4009 33.4214C101.524 33.4214 102.053 29.926 102.053 28.1414Z" fill="white"/>
<path d="M116.165 34.9599C115.255 34.9784 114.35 34.9784 113.531 34.9784H110.541C109.365 34.9784 108.608 34.4061 108.608 33.5569C108.608 33.0092 108.91 32.3815 109.593 31.6984C111.051 30.2584 113.058 28.7753 114.178 27.5999C115.033 26.7261 115.408 25.7969 115.408 24.9969C115.408 23.803 114.578 22.9107 113.076 22.9107H112.965C111.544 22.9476 110.768 23.9569 110.768 25.0338C110.768 25.2799 110.805 25.5261 110.879 25.7722C110.935 25.9445 110.953 26.1169 110.953 26.2461C110.953 26.8553 110.516 27.1938 110.024 27.1938C109.605 27.1938 109.168 26.9476 109.002 26.3753C108.891 26.0307 108.83 25.6369 108.83 25.2369C108.83 23.4522 110.042 21.403 112.922 21.2676H113.15C115.667 21.2676 117.316 22.9599 117.316 25.0461C117.316 26.2399 116.768 27.5692 115.556 28.7692C114.171 30.1169 112.202 31.4645 110.935 32.7753C110.842 32.8676 110.799 32.9476 110.799 33.0215C110.799 33.1384 110.891 33.2122 111.101 33.2122C112.085 33.1753 115.076 33.0769 116.196 33.0215H116.27C116.953 33.0215 117.291 33.4769 117.291 33.9322C117.291 34.4245 116.891 34.9353 116.153 34.9599H116.165Z" fill="white"/>
</svg>
