<svg width="1002" height="95" viewBox="0 0 1002 95" fill="none" xmlns="http://www.w3.org/2000/svg">
<path d="M357 69.2065C357 69.2065 392.05 93.0599 427.7 84.0487C462.67 75.7575 499.19 92.5999 500.48 92.9899C500.48 92.9899 500.48 92.9899 500.48 92.9999C500.48 92.9999 500.49 92.9999 500.5 92.9999H500.52C501.81 92.5999 538.33 75.7575 573.3 84.0487C608.95 93.0599 644.03 69.2566 644 69.2065" stroke="white" stroke-linecap="round" stroke-linejoin="round"/>
<path d="M922.236 15.58C930.477 7.2 941.927 2 954.598 2C979.679 2 1000 22.37 1000 47.5C1000 72.63 979.669 93 954.598 93C941.927 93 930.477 87.8 922.236 79.42" stroke="white" stroke-width="3.39" stroke-linecap="round" stroke-linejoin="round"/>
<path d="M882.764 79.42C874.523 87.8 863.073 93 850.402 93C825.321 93 805 72.62 805 47.5C805 22.38 825.321 2 850.402 2C863.073 2 874.523 7.2 882.764 15.58" stroke="white" stroke-width="3.39" stroke-linecap="round" stroke-linejoin="round"/>
<path d="M840.672 53.18C841.812 53.18 842.522 52.62 842.522 51.92C842.522 51.49 842.242 50.99 841.602 50.56C840.652 49.91 839.972 49.57 838.892 48.77C837.812 47.97 837.352 46.92 837.352 45.9C837.352 43.93 839.102 42.08 841.782 42.04C842.492 42.04 843.262 42.1 844.122 42.32C845.072 42.57 845.472 43.25 845.472 43.86C845.472 44.57 844.982 45.22 844.182 45.22C843.902 45.22 843.632 45.16 843.322 45C842.742 44.72 842.242 44.63 841.782 44.63H841.692C840.832 44.63 840.272 45.12 840.272 45.77C840.272 46.2 840.552 46.73 841.222 47.16C842.052 47.68 842.942 48.18 843.902 48.89C845.102 49.78 845.622 50.89 845.622 51.97C845.622 53.94 843.742 55.79 840.792 55.79H840.642C839.812 55.79 838.792 55.7 837.782 55.39C836.952 55.11 836.582 54.5 836.582 53.91C836.582 53.2 837.102 52.52 837.902 52.52C838.182 52.52 838.452 52.58 838.762 52.74C839.312 53.02 839.992 53.14 840.552 53.17H840.672V53.18Z" fill="white"/>
<path d="M858.362 55.8602C854.792 55.8602 852.142 53.1102 852.142 49.0402C852.142 44.9702 854.512 41.9502 858.452 41.9502C859.932 41.9502 861.162 42.4101 862.082 43.1201C863.132 43.9201 863.742 45.1901 863.742 46.3901C863.742 47.9601 862.662 49.3802 860.082 49.4102H855.162C855.042 49.4102 854.912 49.6002 854.912 49.8402V49.9001C855.002 51.8101 856.602 53.2601 858.362 53.2601C859.782 53.2601 860.582 52.8301 861.312 52.1501C861.652 51.8401 861.992 51.7201 862.292 51.7201C863.032 51.7201 863.612 52.3701 863.612 53.1401C863.612 53.5401 863.462 53.9702 863.032 54.3402C861.772 55.4502 860.542 55.8501 858.352 55.8501L858.362 55.8602ZM860.522 45.1602C860.062 44.7602 859.352 44.3602 858.462 44.3602C856.582 44.3602 855.442 45.4701 855.072 46.8301V46.8901C855.072 47.0401 855.162 47.1701 855.322 47.1701C855.662 47.2001 856.552 47.2301 857.572 47.2301C858.312 47.2301 859.082 47.2002 859.762 47.2002C860.682 47.2002 860.992 46.7702 860.992 46.2702C860.992 45.8402 860.772 45.4102 860.532 45.1602H860.522Z" fill="white"/>
<path d="M874.183 54.3799C874.183 55.2399 873.443 55.6798 872.703 55.6798C871.963 55.6798 871.163 55.2198 871.163 54.3498V54.2899C871.223 51.7899 871.253 50.0298 871.253 48.4598V46.9198C871.253 43.9898 873.933 42.1098 876.823 42.0498H876.883C877.863 42.0498 878.363 42.6998 878.363 43.3498C878.363 43.9998 877.843 44.7398 876.853 44.7998C875.463 44.8298 874.143 45.7898 874.113 47.3898V49.4298C874.113 50.6899 874.113 52.3598 874.173 54.3298V54.3898L874.183 54.3799Z" fill="white"/>
<path d="M885.174 36.65C885.174 35.32 886.344 34.77 887.084 34.77H887.144C888.124 34.8 889.054 35.63 889.054 36.65C889.054 37.76 888.134 38.59 887.144 38.62H887.084C886.064 38.62 885.204 38 885.174 36.74V36.65ZM887.114 55.71C886.344 55.71 885.574 55.22 885.574 54.23C885.574 51.95 885.604 49.02 885.604 46.64C885.604 45.44 885.604 44.39 885.574 43.65V43.59C885.574 42.63 886.344 42.17 887.114 42.17C887.884 42.17 888.654 42.63 888.654 43.56V43.62C888.624 44.64 888.594 46.46 888.594 48.43C888.594 50.4 888.624 52.53 888.654 54.17V54.23C888.654 55.22 887.884 55.71 887.114 55.71Z" fill="white"/>
<path d="M902.495 55.8602C898.925 55.8602 896.275 53.1102 896.275 49.0402C896.275 44.9702 898.645 41.9502 902.585 41.9502C904.065 41.9502 905.295 42.4101 906.215 43.1201C907.265 43.9201 907.875 45.1901 907.875 46.3901C907.875 47.9601 906.795 49.3802 904.215 49.4102H899.295C899.175 49.4102 899.045 49.6002 899.045 49.8402V49.9001C899.135 51.8101 900.735 53.2601 902.495 53.2601C903.915 53.2601 904.715 52.8301 905.445 52.1501C905.785 51.8401 906.125 51.7201 906.425 51.7201C907.165 51.7201 907.745 52.3701 907.745 53.1401C907.745 53.5401 907.595 53.9702 907.165 54.3402C905.905 55.4502 904.675 55.8501 902.485 55.8501L902.495 55.8602ZM904.655 45.1602C904.195 44.7602 903.485 44.3602 902.595 44.3602C900.715 44.3602 899.575 45.4701 899.205 46.8301V46.8901C899.205 47.0401 899.295 47.1701 899.455 47.1701C899.795 47.2001 900.685 47.2301 901.705 47.2301C902.445 47.2301 903.215 47.2002 903.895 47.2002C904.815 47.2002 905.125 46.7702 905.125 46.2702C905.125 45.8402 904.905 45.4102 904.665 45.1602H904.655Z" fill="white"/>
<path d="M918.075 53.18C919.215 53.18 919.925 52.62 919.925 51.92C919.925 51.49 919.645 50.99 919.005 50.56C918.055 49.91 917.375 49.57 916.295 48.77C915.215 47.97 914.755 46.92 914.755 45.9C914.755 43.93 916.505 42.08 919.185 42.04C919.895 42.04 920.665 42.1 921.525 42.32C922.475 42.57 922.875 43.25 922.875 43.86C922.875 44.57 922.385 45.22 921.585 45.22C921.305 45.22 921.035 45.16 920.725 45C920.145 44.72 919.645 44.63 919.185 44.63H919.095C918.235 44.63 917.675 45.12 917.675 45.77C917.675 46.2 917.955 46.73 918.625 47.16C919.455 47.68 920.345 48.18 921.305 48.89C922.505 49.78 923.025 50.89 923.025 51.97C923.025 53.94 921.145 55.79 918.195 55.79H918.045C917.215 55.79 916.195 55.7 915.185 55.39C914.355 55.11 913.985 54.5 913.985 53.91C913.985 53.2 914.505 52.52 915.305 52.52C915.585 52.52 915.855 52.58 916.165 52.74C916.715 53.02 917.395 53.14 917.955 53.17H918.075V53.18Z" fill="white"/>
<path d="M929.796 44.7598V44.6098C929.796 39.4898 931.426 33.2598 937.276 33.2598C943.126 33.2598 944.726 39.3398 944.786 44.3998V44.7698C944.786 49.8298 942.936 55.9698 937.276 55.9698C931.616 55.9698 929.826 49.8598 929.796 44.7698V44.7598ZM941.586 44.4798C941.586 41.5198 940.876 36.1498 937.276 36.1498C933.676 36.1498 932.966 41.5498 932.966 44.5998V44.7898C932.996 47.6898 933.826 53.0598 937.276 53.0598C940.726 53.0598 941.586 47.3798 941.586 44.4798Z" fill="white"/>
<path d="M964.517 55.5601C963.037 55.5901 961.567 55.5901 960.237 55.5901H955.377C953.467 55.5901 952.237 54.6601 952.237 53.2801C952.237 52.3901 952.727 51.3701 953.837 50.2601C956.207 47.9201 959.467 45.5101 961.287 43.6001C962.677 42.1801 963.287 40.6701 963.287 39.3701C963.287 37.4301 961.937 35.9801 959.497 35.9801H959.317C957.007 36.0401 955.747 37.6801 955.747 39.4301C955.747 39.8301 955.807 40.2301 955.927 40.6301C956.017 40.9101 956.047 41.1901 956.047 41.4001C956.047 42.3901 955.337 42.9401 954.537 42.9401C953.857 42.9401 953.147 42.5401 952.877 41.6101C952.697 41.0501 952.597 40.4101 952.597 39.7601C952.597 36.8601 954.567 33.5301 959.247 33.3101H959.617C963.707 33.3101 966.387 36.0601 966.387 39.4501C966.387 41.3901 965.497 43.5501 963.527 45.5001C961.277 47.6901 958.077 49.8801 956.017 52.0101C955.867 52.1601 955.797 52.2901 955.797 52.4101C955.797 52.6001 955.947 52.7201 956.287 52.7201C957.887 52.6601 962.747 52.5001 964.567 52.4101H964.687C965.797 52.4101 966.347 53.1501 966.347 53.8901C966.347 54.6901 965.697 55.5201 964.497 55.5601H964.517Z" fill="white"/>
</svg>
