<svg width="1002" height="97" viewBox="0 0 1002 97" fill="none" xmlns="http://www.w3.org/2000/svg">
<path d="M119.236 17.58C127.476 9.2 138.927 4 151.597 4C176.679 4 197 24.37 197 49.5C197 74.63 176.669 95 151.597 95C138.927 95 127.476 89.8 119.236 81.42" stroke="white" stroke-width="3.39" stroke-linecap="round" stroke-linejoin="round"/>
<path d="M79.764 81.42C71.5236 89.8 60.073 95 47.4023 95C22.321 95 2 74.62 2 49.5C2 24.38 22.321 4 47.4023 4C60.073 4 71.5236 9.2 79.764 17.58" stroke="white" stroke-width="3.39" stroke-linecap="round" stroke-linejoin="round"/>
<path d="M37.6715 55.18C38.8115 55.18 39.5215 54.62 39.5215 53.92C39.5215 53.49 39.2415 52.99 38.6015 52.56C37.6515 51.91 36.9715 51.57 35.8915 50.77C34.8115 49.97 34.3515 48.92 34.3515 47.9C34.3515 45.93 36.1015 44.08 38.7815 44.04C39.4915 44.04 40.2615 44.1 41.1215 44.32C42.0715 44.57 42.4715 45.25 42.4715 45.86C42.4715 46.57 41.9815 47.22 41.1815 47.22C40.9015 47.22 40.6315 47.16 40.3215 47C39.7415 46.72 39.2415 46.63 38.7815 46.63H38.6915C37.8315 46.63 37.2715 47.12 37.2715 47.77C37.2715 48.2 37.5515 48.73 38.2215 49.16C39.0515 49.68 39.9415 50.18 40.9015 50.89C42.1015 51.78 42.6215 52.89 42.6215 53.97C42.6215 55.94 40.7415 57.79 37.7915 57.79H37.6415C36.8115 57.79 35.7915 57.7 34.7815 57.39C33.9515 57.11 33.5815 56.5 33.5815 55.91C33.5815 55.2 34.1015 54.52 34.9015 54.52C35.1815 54.52 35.4515 54.58 35.7615 54.74C36.3115 55.02 36.9915 55.14 37.5515 55.17H37.6715V55.18Z" fill="white"/>
<path d="M55.3626 57.86C51.7926 57.86 49.1426 55.11 49.1426 51.04C49.1426 46.97 51.5126 43.95 55.4526 43.95C56.9326 43.95 58.1626 44.4099 59.0826 45.1199C60.1326 45.9199 60.7426 47.1899 60.7426 48.3899C60.7426 49.9599 59.6626 51.38 57.0826 51.41H52.1626C52.0426 51.41 51.9126 51.6 51.9126 51.84V51.8998C52.0026 53.8098 53.6026 55.2598 55.3626 55.2598C56.7826 55.2598 57.5826 54.8298 58.3126 54.1498C58.6526 53.8398 58.9926 53.7198 59.2926 53.7198C60.0326 53.7198 60.6126 54.3699 60.6126 55.1399C60.6126 55.5399 60.4626 55.97 60.0326 56.34C58.7726 57.45 57.5426 57.8498 55.3526 57.8498L55.3626 57.86ZM57.5226 47.16C57.0626 46.76 56.3526 46.36 55.4626 46.36C53.5826 46.36 52.4426 47.4698 52.0726 48.8298V48.8899C52.0726 49.0399 52.1626 49.1698 52.3226 49.1698C52.6626 49.1998 53.5526 49.2299 54.5726 49.2299C55.3126 49.2299 56.0826 49.2 56.7626 49.2C57.6826 49.2 57.9926 48.77 57.9926 48.27C57.9926 47.84 57.7726 47.41 57.5326 47.16H57.5226Z" fill="white"/>
<path d="M71.1836 56.3801C71.1836 57.2401 70.4436 57.68 69.7036 57.68C68.9636 57.68 68.1636 57.22 68.1636 56.35V56.2901C68.2236 53.7901 68.2536 52.03 68.2536 50.46V48.92C68.2536 45.99 70.9336 44.11 73.8236 44.05H73.8836C74.8636 44.05 75.3636 44.7 75.3636 45.35C75.3636 46 74.8436 46.74 73.8536 46.8C72.4636 46.83 71.1436 47.79 71.1136 49.39V51.43C71.1136 52.6902 71.1136 54.3601 71.1736 56.3301V56.39L71.1836 56.3801Z" fill="white"/>
<path d="M82.1738 38.65C82.1738 37.32 83.3438 36.77 84.0838 36.77H84.1438C85.1238 36.8 86.0538 37.63 86.0538 38.65C86.0538 39.76 85.1338 40.59 84.1438 40.62H84.0838C83.0638 40.62 82.2038 40 82.1738 38.74V38.65ZM84.1138 57.71C83.3438 57.71 82.5738 57.22 82.5738 56.23C82.5738 53.95 82.6038 51.02 82.6038 48.64C82.6038 47.44 82.6038 46.39 82.5738 45.65V45.59C82.5738 44.63 83.3438 44.17 84.1138 44.17C84.8838 44.17 85.6538 44.63 85.6538 45.56V45.62C85.6238 46.64 85.5938 48.46 85.5938 50.43C85.5938 52.4 85.6238 54.53 85.6538 56.17V56.23C85.6538 57.22 84.8838 57.71 84.1138 57.71Z" fill="white"/>
<path d="M99.4949 57.86C95.9249 57.86 93.2749 55.11 93.2749 51.04C93.2749 46.97 95.6449 43.95 99.5849 43.95C101.065 43.95 102.295 44.4099 103.215 45.1199C104.265 45.9199 104.875 47.1899 104.875 48.3899C104.875 49.9599 103.795 51.38 101.215 51.41H96.2949C96.1749 51.41 96.0449 51.6 96.0449 51.84V51.8998C96.1349 53.8098 97.7349 55.2598 99.4949 55.2598C100.915 55.2598 101.715 54.8298 102.445 54.1498C102.785 53.8398 103.125 53.7198 103.425 53.7198C104.165 53.7198 104.745 54.3699 104.745 55.1399C104.745 55.5399 104.595 55.97 104.165 56.34C102.905 57.45 101.675 57.8498 99.4849 57.8498L99.4949 57.86ZM101.655 47.16C101.195 46.76 100.485 46.36 99.5949 46.36C97.7149 46.36 96.5749 47.4698 96.2049 48.8298V48.8899C96.2049 49.0399 96.2949 49.1698 96.4549 49.1698C96.7949 49.1998 97.6849 49.2299 98.7049 49.2299C99.4449 49.2299 100.215 49.2 100.895 49.2C101.815 49.2 102.125 48.77 102.125 48.27C102.125 47.84 101.905 47.41 101.665 47.16H101.655Z" fill="white"/>
<path d="M115.075 55.18C116.215 55.18 116.925 54.62 116.925 53.92C116.925 53.49 116.645 52.99 116.005 52.56C115.055 51.91 114.375 51.57 113.295 50.77C112.215 49.97 111.755 48.92 111.755 47.9C111.755 45.93 113.505 44.08 116.185 44.04C116.895 44.04 117.665 44.1 118.525 44.32C119.475 44.57 119.875 45.25 119.875 45.86C119.875 46.57 119.385 47.22 118.585 47.22C118.305 47.22 118.035 47.16 117.725 47C117.145 46.72 116.645 46.63 116.185 46.63H116.095C115.235 46.63 114.675 47.12 114.675 47.77C114.675 48.2 114.955 48.73 115.625 49.16C116.455 49.68 117.345 50.18 118.305 50.89C119.505 51.78 120.025 52.89 120.025 53.97C120.025 55.94 118.145 57.79 115.195 57.79H115.045C114.215 57.79 113.195 57.7 112.185 57.39C111.355 57.11 110.985 56.5 110.985 55.91C110.985 55.2 111.505 54.52 112.305 54.52C112.585 54.52 112.855 54.58 113.165 54.74C113.715 55.02 114.395 55.14 114.955 55.17H115.075V55.18Z" fill="white"/>
<path d="M126.796 46.76V46.61C126.796 41.49 128.426 35.26 134.276 35.26C140.126 35.26 141.726 41.34 141.786 46.4V46.77C141.786 51.83 139.936 57.97 134.276 57.97C128.616 57.97 126.826 51.86 126.796 46.77V46.76ZM138.586 46.48C138.586 43.52 137.876 38.15 134.276 38.15C130.676 38.15 129.966 43.55 129.966 46.6V46.79C129.996 49.69 130.826 55.06 134.276 55.06C137.726 55.06 138.586 49.38 138.586 46.48Z" fill="white"/>
<path d="M152.098 38.68H152.038C150.868 38.68 150.288 37.91 150.288 37.11C150.288 36.31 150.868 35.51 152.078 35.51C152.508 35.51 152.908 35.54 153.398 35.54C155.518 35.54 157.768 37.21 157.768 40.23V40.54C157.648 42.88 157.588 51.92 157.548 56.02C157.548 57.19 156.718 57.75 155.888 57.75C155.058 57.75 154.228 57.19 154.228 56.05V55.99C154.318 52.13 154.448 42.76 154.448 40.97C154.448 39.18 153.768 38.69 152.878 38.69H152.108L152.098 38.68Z" fill="white"/>
<path d="M359 71.1154C359 71.1154 394.05 95.071 429.7 86.0205C464.67 77.7004 501.19 94.6043 502.48 94.9899C502.48 94.9899 502.48 94.9899 502.48 95C502.48 95 502.49 95 502.5 95H502.52C503.81 94.6043 540.33 77.6903 575.3 86.0103C610.95 95.0609 646.03 71.156 646 71.1052" stroke="white" stroke-linecap="round" stroke-linejoin="round"/>
</svg>
