<svg width="157" height="127" viewBox="0 0 157 127" fill="none" xmlns="http://www.w3.org/2000/svg">
<path d="M91.1445 10.3569C96.2155 5.2 103.262 2 111.059 2C126.494 2 138.999 14.5354 138.999 30C138.999 45.4646 126.488 58 111.059 58C103.262 58 96.2155 54.8 91.1445 49.6431" stroke="white" stroke-width="3.39" stroke-linecap="round" stroke-linejoin="round"/>
<path d="M66.8544 49.6431C61.7834 54.8 54.7369 58 46.9397 58C31.5052 58 19 45.4585 19 30C19 14.5415 31.5052 2 46.9397 2C54.7369 2 61.7834 5.2 66.8544 10.3569" stroke="white" stroke-width="3.39" stroke-linecap="round" stroke-linejoin="round"/>
<path d="M40.9515 33.4955C41.653 33.4955 42.0899 33.1509 42.0899 32.7201C42.0899 32.4555 41.9176 32.1478 41.5238 31.8832C40.9392 31.4832 40.5207 31.274 39.8561 30.7817C39.1915 30.2893 38.9084 29.6432 38.9084 29.0155C38.9084 27.8032 39.9853 26.6647 41.6345 26.6401C42.0715 26.6401 42.5453 26.677 43.0745 26.8124C43.6591 26.9663 43.9053 27.3847 43.9053 27.7601C43.9053 28.197 43.6038 28.597 43.1115 28.597C42.9392 28.597 42.773 28.5601 42.5822 28.4617C42.2253 28.2893 41.9176 28.234 41.6345 28.234H41.5792C41.0499 28.234 40.7053 28.5355 40.7053 28.9355C40.7053 29.2001 40.8776 29.5263 41.2899 29.7909C41.8007 30.1109 42.3484 30.4186 42.9392 30.8555C43.6776 31.4032 43.9976 32.0863 43.9976 32.7509C43.9976 33.9632 42.8407 35.1017 41.0253 35.1017H40.933C40.4222 35.1017 39.7946 35.0463 39.173 34.8555C38.6623 34.6832 38.4346 34.3078 38.4346 33.9447C38.4346 33.5078 38.7546 33.0893 39.2469 33.0893C39.4192 33.0893 39.5853 33.1263 39.7761 33.2247C40.1146 33.397 40.533 33.4709 40.8776 33.4893H40.9515V33.4955Z" fill="white"/>
<path d="M51.8384 35.1445C49.6415 35.1445 48.0107 33.4522 48.0107 30.9476C48.0107 28.443 49.4692 26.5845 51.8938 26.5845C52.8046 26.5845 53.5615 26.8676 54.1276 27.3045C54.7738 27.7968 55.1491 28.5783 55.1491 29.3168C55.1491 30.283 54.4845 31.1568 52.8969 31.1753H49.8692C49.7953 31.1753 49.7153 31.2922 49.7153 31.4399V31.4768C49.7707 32.6522 50.7553 33.5445 51.8384 33.5445C52.7122 33.5445 53.2045 33.2799 53.6538 32.8614C53.863 32.6706 54.0722 32.5968 54.2569 32.5968C54.7122 32.5968 55.0692 32.9968 55.0692 33.4706C55.0692 33.7168 54.9768 33.9814 54.7122 34.2091C53.9369 34.8922 53.1799 35.1383 51.8323 35.1383L51.8384 35.1445ZM53.1676 28.5599C52.8846 28.3137 52.4476 28.0676 51.8999 28.0676C50.743 28.0676 50.0415 28.7506 49.8138 29.5876V29.6245C49.8138 29.7168 49.8692 29.7968 49.9677 29.7968C50.1769 29.8153 50.7246 29.8337 51.3523 29.8337C51.8076 29.8337 52.2815 29.8153 52.6999 29.8153C53.2661 29.8153 53.4569 29.5506 53.4569 29.243C53.4569 28.9783 53.3215 28.7137 53.1738 28.5599H53.1676Z" fill="white"/>
<path d="M61.5743 34.2339C61.5743 34.7631 61.1189 35.0339 60.6635 35.0339C60.2081 35.0339 59.7158 34.7508 59.7158 34.2154V34.1785C59.7527 32.64 59.7712 31.5569 59.7712 30.5908V29.6431C59.7712 27.84 61.4204 26.6831 63.1989 26.6462H63.2358C63.8389 26.6462 64.1466 27.0462 64.1466 27.4462C64.1466 27.8462 63.8266 28.3016 63.2173 28.3385C62.362 28.3569 61.5497 28.9477 61.5312 29.9323V31.1877C61.5312 31.9631 61.5312 32.9908 61.5681 34.2031V34.24L61.5743 34.2339Z" fill="white"/>
<path d="M68.3379 23.323C68.3379 22.5045 69.0579 22.166 69.5133 22.166H69.5502C70.1533 22.1845 70.7256 22.6953 70.7256 23.323C70.7256 24.006 70.1594 24.5168 69.5502 24.5353H69.5133C68.8856 24.5353 68.3564 24.1537 68.3379 23.3783V23.323ZM69.5317 35.0522C69.0579 35.0522 68.584 34.7507 68.584 34.1414C68.584 32.7383 68.6025 30.9353 68.6025 29.4707C68.6025 28.7322 68.6025 28.086 68.584 27.6307V27.5937C68.584 27.003 69.0579 26.7199 69.5317 26.7199C70.0056 26.7199 70.4794 27.003 70.4794 27.5753V27.6122C70.4609 28.2399 70.4425 29.3599 70.4425 30.5722C70.4425 31.7845 70.4609 33.0953 70.4794 34.1045V34.1414C70.4794 34.7507 70.0056 35.0522 69.5317 35.0522Z" fill="white"/>
<path d="M78.9976 35.1445C76.8007 35.1445 75.1699 33.4522 75.1699 30.9476C75.1699 28.443 76.6284 26.5845 79.053 26.5845C79.9637 26.5845 80.7207 26.8676 81.2868 27.3045C81.9329 27.7968 82.3083 28.5783 82.3083 29.3168C82.3083 30.283 81.6437 31.1568 80.056 31.1753H77.0284C76.9545 31.1753 76.8745 31.2922 76.8745 31.4399V31.4768C76.9299 32.6522 77.9145 33.5445 78.9976 33.5445C79.8714 33.5445 80.3637 33.2799 80.813 32.8614C81.0222 32.6706 81.2314 32.5968 81.416 32.5968C81.8714 32.5968 82.2283 32.9968 82.2283 33.4706C82.2283 33.7168 82.136 33.9814 81.8714 34.2091C81.096 34.8922 80.3391 35.1383 78.9914 35.1383L78.9976 35.1445ZM80.3268 28.5599C80.0437 28.3137 79.6068 28.0676 79.0591 28.0676C77.9022 28.0676 77.2007 28.7506 76.973 29.5876V29.6245C76.973 29.7168 77.0284 29.7968 77.1268 29.7968C77.3361 29.8153 77.8837 29.8337 78.5114 29.8337C78.9668 29.8337 79.4407 29.8153 79.8591 29.8153C80.4253 29.8153 80.616 29.5506 80.616 29.243C80.616 28.9783 80.4807 28.7137 80.333 28.5599H80.3268Z" fill="white"/>
<path d="M88.5843 33.4955C89.2858 33.4955 89.7227 33.1509 89.7227 32.7201C89.7227 32.4555 89.5504 32.1478 89.1566 31.8832C88.572 31.4832 88.1535 31.274 87.4889 30.7817C86.8243 30.2893 86.5412 29.6432 86.5412 29.0155C86.5412 27.8032 87.6181 26.6647 89.2674 26.6401C89.7043 26.6401 90.1781 26.677 90.7073 26.8124C91.292 26.9663 91.5381 27.3847 91.5381 27.7601C91.5381 28.197 91.2366 28.597 90.7443 28.597C90.572 28.597 90.4058 28.5601 90.215 28.4617C89.8581 28.2893 89.5504 28.234 89.2674 28.234H89.212C88.6827 28.234 88.3381 28.5355 88.3381 28.9355C88.3381 29.2001 88.5104 29.5263 88.9227 29.7909C89.4335 30.1109 89.9812 30.4186 90.572 30.8555C91.3104 31.4032 91.6304 32.0863 91.6304 32.7509C91.6304 33.9632 90.4735 35.1017 88.6581 35.1017H88.5658C88.0551 35.1017 87.4274 35.0463 86.8058 34.8555C86.2951 34.6832 86.0674 34.3078 86.0674 33.9447C86.0674 33.5078 86.3874 33.0893 86.8797 33.0893C87.052 33.0893 87.2181 33.1263 87.4089 33.2247C87.7474 33.397 88.1658 33.4709 88.5104 33.4893H88.5843V33.4955Z" fill="white"/>
<path d="M95.7969 28.3138V28.2215C95.7969 25.0707 96.7999 21.2368 100.4 21.2368C104 21.2368 104.984 24.9784 105.021 28.0922V28.3199C105.021 31.4338 103.883 35.2122 100.4 35.2122C96.9169 35.2122 95.8153 31.4522 95.7969 28.3199V28.3138ZM103.052 28.1415C103.052 26.3199 102.615 23.0153 100.4 23.0153C98.1846 23.0153 97.7476 26.3384 97.7476 28.2153V28.3322C97.7661 30.1168 98.2769 33.4215 100.4 33.4215C102.523 33.4215 103.052 29.9261 103.052 28.1415Z" fill="white"/>
<path d="M111.368 23.3414H111.331C110.611 23.3414 110.254 22.8676 110.254 22.3753C110.254 21.883 110.611 21.3906 111.355 21.3906C111.62 21.3906 111.866 21.4091 112.168 21.4091C113.472 21.4091 114.857 22.4368 114.857 24.2953V24.486C114.783 25.926 114.746 31.4891 114.722 34.0122C114.722 34.7322 114.211 35.0768 113.7 35.0768C113.189 35.0768 112.679 34.7322 112.679 34.0306V33.9937C112.734 31.6183 112.814 25.8522 112.814 24.7506C112.814 23.6491 112.395 23.3476 111.848 23.3476H111.374L111.368 23.3414Z" fill="white"/>
<path d="M1 113.034C1 113.034 19.9294 126.039 39.1829 121.125C58.0692 116.609 77.7925 125.785 78.4892 125.995C78.4892 125.995 78.4892 125.995 78.4892 126C78.4892 126 78.4946 126 78.5 126H78.5108C79.2075 125.785 98.9308 116.603 117.817 121.12C137.071 126.033 156.016 113.056 156 113.029" stroke="white" stroke-linecap="round" stroke-linejoin="round"/>
</svg>
