<svg width="1002" height="97" viewBox="0 0 1002 97" fill="none" xmlns="http://www.w3.org/2000/svg">
<path d="M119.236 17.58C127.476 9.2 138.927 4 151.597 4C176.679 4 197 24.37 197 49.5C197 74.63 176.669 95 151.597 95C138.927 95 127.476 89.8 119.236 81.42" stroke="white" stroke-width="3.39" stroke-linecap="round" stroke-linejoin="round"/>
<path d="M79.764 81.42C71.5236 89.8 60.073 95 47.4023 95C22.321 95 2 74.62 2 49.5C2 24.38 22.321 4 47.4023 4C60.073 4 71.5236 9.2 79.764 17.58" stroke="white" stroke-width="3.39" stroke-linecap="round" stroke-linejoin="round"/>
<path d="M37.6715 55.18C38.8115 55.18 39.5215 54.62 39.5215 53.92C39.5215 53.49 39.2415 52.99 38.6015 52.56C37.6515 51.91 36.9715 51.57 35.8915 50.77C34.8115 49.97 34.3515 48.92 34.3515 47.9C34.3515 45.93 36.1015 44.08 38.7815 44.04C39.4915 44.04 40.2615 44.1 41.1215 44.32C42.0715 44.57 42.4715 45.25 42.4715 45.86C42.4715 46.57 41.9815 47.22 41.1815 47.22C40.9015 47.22 40.6315 47.16 40.3215 47C39.7415 46.72 39.2415 46.63 38.7815 46.63H38.6915C37.8315 46.63 37.2715 47.12 37.2715 47.77C37.2715 48.2 37.5515 48.73 38.2215 49.16C39.0515 49.68 39.9415 50.18 40.9015 50.89C42.1015 51.78 42.6215 52.89 42.6215 53.97C42.6215 55.94 40.7415 57.79 37.7915 57.79H37.6415C36.8115 57.79 35.7915 57.7 34.7815 57.39C33.9515 57.11 33.5815 56.5 33.5815 55.91C33.5815 55.2 34.1015 54.52 34.9015 54.52C35.1815 54.52 35.4515 54.58 35.7615 54.74C36.3115 55.02 36.9915 55.14 37.5515 55.17H37.6715V55.18Z" fill="white"/>
<path d="M55.3626 57.86C51.7926 57.86 49.1426 55.11 49.1426 51.04C49.1426 46.97 51.5126 43.95 55.4526 43.95C56.9326 43.95 58.1626 44.4099 59.0826 45.1199C60.1326 45.9199 60.7426 47.1899 60.7426 48.3899C60.7426 49.9599 59.6626 51.38 57.0826 51.41H52.1626C52.0426 51.41 51.9126 51.6 51.9126 51.84V51.8999C52.0026 53.8099 53.6026 55.2599 55.3626 55.2599C56.7826 55.2599 57.5826 54.8299 58.3126 54.1499C58.6526 53.8399 58.9926 53.7199 59.2926 53.7199C60.0326 53.7199 60.6126 54.3699 60.6126 55.1399C60.6126 55.5399 60.4626 55.97 60.0326 56.34C58.7726 57.45 57.5426 57.8499 55.3526 57.8499L55.3626 57.86ZM57.5226 47.16C57.0626 46.76 56.3526 46.36 55.4626 46.36C53.5826 46.36 52.4426 47.4699 52.0726 48.8299V48.8899C52.0726 49.0399 52.1626 49.1699 52.3226 49.1699C52.6626 49.1999 53.5526 49.2299 54.5726 49.2299C55.3126 49.2299 56.0826 49.2 56.7626 49.2C57.6826 49.2 57.9926 48.77 57.9926 48.27C57.9926 47.84 57.7726 47.41 57.5326 47.16H57.5226Z" fill="white"/>
<path d="M71.1836 56.3801C71.1836 57.2401 70.4436 57.68 69.7036 57.68C68.9636 57.68 68.1636 57.22 68.1636 56.35V56.2901C68.2236 53.7901 68.2536 52.03 68.2536 50.46V48.92C68.2536 45.99 70.9336 44.11 73.8236 44.05H73.8836C74.8636 44.05 75.3636 44.7 75.3636 45.35C75.3636 46 74.8436 46.74 73.8536 46.8C72.4636 46.83 71.1436 47.79 71.1136 49.39V51.43C71.1136 52.6901 71.1136 54.36 71.1736 56.33V56.39L71.1836 56.3801Z" fill="white"/>
<path d="M82.1738 38.65C82.1738 37.32 83.3438 36.77 84.0838 36.77H84.1438C85.1238 36.8 86.0538 37.63 86.0538 38.65C86.0538 39.76 85.1338 40.59 84.1438 40.62H84.0838C83.0638 40.62 82.2038 40 82.1738 38.74V38.65ZM84.1138 57.71C83.3438 57.71 82.5738 57.22 82.5738 56.23C82.5738 53.95 82.6038 51.02 82.6038 48.64C82.6038 47.44 82.6038 46.39 82.5738 45.65V45.59C82.5738 44.63 83.3438 44.17 84.1138 44.17C84.8838 44.17 85.6538 44.63 85.6538 45.56V45.62C85.6238 46.64 85.5938 48.46 85.5938 50.43C85.5938 52.4 85.6238 54.53 85.6538 56.17V56.23C85.6538 57.22 84.8838 57.71 84.1138 57.71Z" fill="white"/>
<path d="M99.4949 57.86C95.9249 57.86 93.2749 55.11 93.2749 51.04C93.2749 46.97 95.6449 43.95 99.5849 43.95C101.065 43.95 102.295 44.4099 103.215 45.1199C104.265 45.9199 104.875 47.1899 104.875 48.3899C104.875 49.9599 103.795 51.38 101.215 51.41H96.2949C96.1749 51.41 96.0449 51.6 96.0449 51.84V51.8999C96.1349 53.8099 97.7349 55.2599 99.4949 55.2599C100.915 55.2599 101.715 54.8299 102.445 54.1499C102.785 53.8399 103.125 53.7199 103.425 53.7199C104.165 53.7199 104.745 54.3699 104.745 55.1399C104.745 55.5399 104.595 55.97 104.165 56.34C102.905 57.45 101.675 57.8499 99.4849 57.8499L99.4949 57.86ZM101.655 47.16C101.195 46.76 100.485 46.36 99.5949 46.36C97.7149 46.36 96.5749 47.4699 96.2049 48.8299V48.8899C96.2049 49.0399 96.2949 49.1699 96.4549 49.1699C96.7949 49.1999 97.6849 49.2299 98.7049 49.2299C99.4449 49.2299 100.215 49.2 100.895 49.2C101.815 49.2 102.125 48.77 102.125 48.27C102.125 47.84 101.905 47.41 101.665 47.16H101.655Z" fill="white"/>
<path d="M115.075 55.18C116.215 55.18 116.925 54.62 116.925 53.92C116.925 53.49 116.645 52.99 116.005 52.56C115.055 51.91 114.375 51.57 113.295 50.77C112.215 49.97 111.755 48.92 111.755 47.9C111.755 45.93 113.505 44.08 116.185 44.04C116.895 44.04 117.665 44.1 118.525 44.32C119.475 44.57 119.875 45.25 119.875 45.86C119.875 46.57 119.385 47.22 118.585 47.22C118.305 47.22 118.035 47.16 117.725 47C117.145 46.72 116.645 46.63 116.185 46.63H116.095C115.235 46.63 114.675 47.12 114.675 47.77C114.675 48.2 114.955 48.73 115.625 49.16C116.455 49.68 117.345 50.18 118.305 50.89C119.505 51.78 120.025 52.89 120.025 53.97C120.025 55.94 118.145 57.79 115.195 57.79H115.045C114.215 57.79 113.195 57.7 112.185 57.39C111.355 57.11 110.985 56.5 110.985 55.91C110.985 55.2 111.505 54.52 112.305 54.52C112.585 54.52 112.855 54.58 113.165 54.74C113.715 55.02 114.395 55.14 114.955 55.17H115.075V55.18Z" fill="white"/>
<path d="M126.796 46.76V46.61C126.796 41.49 128.426 35.26 134.276 35.26C140.126 35.26 141.726 41.34 141.786 46.4V46.77C141.786 51.83 139.936 57.97 134.276 57.97C128.616 57.97 126.826 51.86 126.796 46.77V46.76ZM138.586 46.48C138.586 43.52 137.876 38.15 134.276 38.15C130.676 38.15 129.966 43.55 129.966 46.6V46.79C129.996 49.69 130.826 55.06 134.276 55.06C137.726 55.06 138.586 49.38 138.586 46.48Z" fill="white"/>
<path d="M152.098 38.68H152.038C150.868 38.68 150.288 37.91 150.288 37.11C150.288 36.31 150.868 35.51 152.078 35.51C152.508 35.51 152.908 35.54 153.398 35.54C155.518 35.54 157.768 37.21 157.768 40.23V40.54C157.648 42.88 157.588 51.92 157.548 56.02C157.548 57.19 156.718 57.75 155.888 57.75C155.058 57.75 154.228 57.19 154.228 56.05V55.99C154.318 52.13 154.448 42.76 154.448 40.97C154.448 39.18 153.768 38.69 152.878 38.69H152.108L152.098 38.68Z" fill="white"/>
<path d="M359 71.1155C359 71.1155 394.05 95.0711 429.7 86.0206C464.67 77.7005 501.19 94.6044 502.48 94.99C502.48 94.99 502.48 94.99 502.48 95.0001C502.48 95.0001 502.49 95.0001 502.5 95.0001H502.52C503.81 94.6044 540.33 77.6904 575.3 86.0104C610.95 95.061 646.03 71.1561 646 71.1053" stroke="white" stroke-linecap="round" stroke-linejoin="round"/>
<path d="M416.95 56.0784C416.03 56.0784 415.27 55.429 415.27 54.5463C415.27 54.1405 415.43 53.6534 415.87 53.2171C417.19 51.8068 418.35 49.6253 418.79 47.6468C418.99 46.7539 419.67 46.3582 420.39 46.3582C421.27 46.3582 422.15 46.967 422.15 48.012C422.15 48.1744 422.15 48.3367 422.11 48.4991C421.67 50.3559 420.07 53.9071 418.59 55.3682C418.07 55.8958 417.51 56.0987 416.95 56.0987V56.0784ZM427.56 39.692C427.24 39.3673 427.12 39.0426 427.12 38.7585C427.12 37.9874 427.92 37.4293 428.72 37.4293C429.04 37.4293 429.4 37.5105 429.68 37.754C431.04 38.8397 432.4 41.4676 432.68 43.0403C432.72 43.2026 432.72 43.3244 432.72 43.4462C432.72 44.613 431.8 45.3029 430.96 45.3029C430.32 45.3029 429.68 44.9377 429.48 44.1361C429.32 43.5273 429.28 43.3244 429.16 43.3244C428.96 43.3244 428.6 43.8926 427.32 44.0144C427.08 44.0549 426.8 44.0955 426.56 44.0955C426.56 48.1338 426.56 49.26 426.8 56.4132V56.4944C426.8 57.7424 425.84 58.3918 424.92 58.3918C424 58.3918 423.04 57.783 423.04 56.4944V56.4132C423.24 49.5847 423.32 48.0526 423.36 44.3796C421.64 44.5014 420 44.6231 419.04 44.6637H418.96C417.68 44.6637 417.08 43.8926 417.08 43.091C417.08 42.2895 417.72 41.5183 418.8 41.5183H418.88C419.12 41.5589 419.36 41.5589 419.64 41.5589C420.04 41.4778 420.32 41.1937 420.52 40.9096C420.92 40.3819 421.36 39.7833 421.8 39.1339L420.76 38.2816C419.32 37.1554 418.72 35.8566 418.72 34.6086C418.72 33.7158 418.96 32.8736 419.44 32.0619C420.64 30.0022 421.68 27.8613 422.32 26.2886C422.68 25.3957 423.36 25 424.08 25C425 25 425.88 25.69 425.88 26.735C425.88 27.0597 425.8 27.3844 425.64 27.7395C424.64 29.7587 423.72 31.3719 422.6 33.1476C422.32 33.5534 422.2 33.9593 422.2 34.355C422.2 34.9232 422.52 35.4406 423.16 35.8871L423.68 36.2524C425.12 33.9897 426.44 31.6053 427.2 29.9514C427.52 29.2615 428.08 28.9469 428.68 28.9469C429.6 28.9469 430.6 29.7181 430.6 30.7632C430.6 31.0067 430.52 31.2502 430.4 31.5343C429.2 33.9593 426.16 38.3628 423.83 41.5082C424.95 41.4676 426.03 41.427 426.95 41.3458C427.67 41.3053 428.03 40.9806 428.03 40.5747C428.03 40.3718 427.91 40.0877 427.71 39.8848L427.55 39.6818L427.56 39.692ZM429.52 52.5678C429.28 51.0357 428.56 49.3818 427.72 48.2048C427.52 47.9207 427.44 47.6366 427.44 47.3525C427.44 46.5814 428.16 45.9828 429 45.9828C429.44 45.9828 429.92 46.1451 430.32 46.551C431.48 47.7584 432.56 50.1834 432.8 51.6749C432.84 51.8778 432.84 52.0402 432.84 52.2025C432.84 53.4505 431.96 54.1405 431.12 54.1405C430.4 54.1405 429.68 53.6534 429.52 52.5678ZM437.09 42.2692C436.93 43.923 436.85 45.374 436.85 46.9162C436.85 47.8903 436.89 48.8542 436.97 49.9804C437.17 52.7301 439.13 54.3434 441.82 54.3434H441.9C444.98 54.2622 446.91 52.6083 446.91 50.5892C446.91 50.3457 446.87 50.1428 446.83 49.8993C446.79 49.6963 446.79 49.534 446.79 49.3311C446.79 48.0831 447.79 47.3931 448.79 47.3931C449.79 47.3931 450.71 48.0019 450.87 49.2499C450.91 49.5746 450.91 49.8587 450.91 50.1834C450.91 53.9781 447.95 57.6917 441.9 57.7729H441.78C437.29 57.7729 433.81 55.5914 433.45 50.5486C433.37 49.5441 433.33 48.4483 433.33 47.2815C433.33 45.4653 433.41 43.5273 433.57 41.5894C433.81 38.1599 436.25 36.4654 439.22 36.4654C440.22 36.4654 440.9 36.506 441.3 36.506C442.42 36.506 443.38 35.532 443.54 34.5275C443.62 34.081 443.66 33.5128 443.66 32.9954C443.66 32.5083 443.62 31.9909 443.54 31.585C443.34 30.5805 442.58 29.8906 441.46 29.8094C440.9 29.7688 440.38 29.7688 439.9 29.7688C438.54 29.7688 437.5 29.85 436.26 29.85H435.74C434.42 29.85 433.82 28.9977 433.82 28.1555C433.82 27.3134 434.46 26.3799 435.7 26.3799H435.78C436.18 26.3799 436.58 26.4205 436.98 26.4205C437.7 26.4205 438.46 26.3799 439.3 26.3799C440.06 26.3799 440.9 26.4205 441.86 26.4611C444.94 26.6234 446.75 28.399 447.1 30.9458C447.18 31.5952 447.22 32.2344 447.22 32.9243C447.22 33.6955 447.18 34.4159 447.1 35.1058C446.74 37.9772 444.82 39.8746 441.65 39.8746H439.77C438.25 39.9152 437.21 40.8791 437.09 42.2996V42.2692Z" fill="white"/>
<path d="M467.25 57.4483C466.69 57.8948 466.13 58.0571 465.61 58.0571C464.45 58.0571 463.57 57.2048 463.57 56.2003C463.57 55.6321 463.85 55.0335 464.53 54.5059C470.26 50.1835 471.5 43.7608 471.5 37.1048C471.5 34.1218 471.22 31.0474 471.02 28.1455V27.9832C471.02 26.8164 471.98 26.2076 472.94 26.2076C473.9 26.2076 474.82 26.7758 474.86 27.9426C474.94 30.3676 475.06 32.8636 475.06 35.3698C475.34 34.9233 475.9 34.5986 476.54 34.5986C476.86 34.5986 477.22 34.6798 477.54 34.9233C478.78 35.8872 480.1 38.1093 480.22 40.4531V40.5749C480.22 41.9446 479.26 42.6752 478.38 42.6752C477.58 42.6752 476.82 42.107 476.78 40.9401C476.74 39.0022 476.1 37.9165 475.26 36.8207C475.18 36.7395 475.1 36.6584 475.06 36.5772C474.98 44.532 473.62 52.4056 467.25 57.4483ZM466.01 43.9638C465.09 43.9638 464.25 43.2738 464.25 42.3911C464.25 42.0258 464.37 41.5794 464.69 41.1836C465.85 39.7327 466.41 38.2412 466.65 35.5727C466.73 34.5682 467.49 34.1218 468.29 34.1218C469.17 34.1218 470.09 34.69 470.09 35.735V35.8162C469.97 38.4035 468.77 41.6707 467.61 43.1622C467.17 43.7304 466.57 43.9739 466.01 43.9739V43.9638ZM480.59 29.0283C480.59 27.8208 481.47 27.2526 482.39 27.2526C483.31 27.2526 484.31 27.8614 484.27 29.0689C484.19 32.2548 484.15 36.2931 484.15 40.4125C484.15 44.532 484.19 48.8137 484.27 52.4056V52.4461C484.27 53.6942 483.35 54.3435 482.43 54.3435C481.51 54.3435 480.55 53.6942 480.59 52.4056C480.67 49.1384 480.71 45.2625 480.71 41.3866C480.71 36.9425 480.67 32.5389 480.59 29.0689V29.0283ZM486.63 40.859C486.47 38.8804 485.67 37.8353 484.79 36.7801C484.51 36.4554 484.39 36.1713 484.39 35.8466C484.39 35.0755 485.19 34.4769 486.07 34.4769C486.39 34.4769 486.71 34.5581 487.03 34.761C488.35 35.6539 489.79 37.8658 490.07 40.169V40.4531C490.07 41.7823 489.11 42.5128 488.23 42.5128C487.47 42.5128 486.71 41.9852 486.63 40.859ZM490.44 41.6707C490.44 36.5467 490.4 31.4938 490.32 27.8614V27.8208C490.32 26.6134 491.24 26.0046 492.2 26.0046C493.16 26.0046 494.16 26.654 494.12 27.8614C494.04 32.1026 494 37.1048 494 42.0765C494 47.0483 494.04 51.9287 494.12 55.8452V55.8858C494.12 57.1744 493.12 57.9049 492.16 57.9049C491.2 57.9049 490.32 57.215 490.32 55.8452C490.4 51.9693 490.44 46.7642 490.44 41.6707Z" fill="white"/>
<path d="M518.56 46.3887C520.12 44.6131 521.72 42.4316 522.8 40.6154C523.44 39.6109 523.56 38.7992 523.6 37.744C523.64 36.4554 524.64 35.806 525.6 35.806C526.56 35.806 527.56 36.496 527.56 37.9063V38.0281C527.48 39.4384 527.16 40.7778 526.12 42.2287C524.8 44.1261 521.84 47.5961 519.59 50.7111C518.59 52.0808 517.59 52.7302 516.63 52.7302C515.67 52.7302 514.67 52.1214 513.71 50.9546C512.39 49.3413 511.75 47.2816 511.75 45.1407C511.75 42.391 512.83 39.4892 515.03 37.1453C517.95 34 521.96 32.4983 525.84 32.4983C530.4 32.4983 534.81 34.558 537.01 38.3933C538.01 40.0878 538.45 41.904 538.45 43.6796C538.45 49.4935 533.36 54.9827 524.11 55.5103H523.91C522.47 55.5103 521.63 54.658 521.63 53.7753C521.63 53.0042 522.31 52.2026 523.87 52.0403C531.32 51.3909 534.48 47.2714 534.48 43.3549C534.48 42.1475 534.16 40.8894 533.56 39.8443C531.96 37.0946 528.91 35.5625 525.67 35.5625C522.87 35.5625 519.94 36.6888 517.7 39.1543C516.3 40.727 515.38 42.9085 515.38 44.887C515.38 45.851 515.58 46.7032 516.02 47.4744C516.18 47.7991 516.38 47.9614 516.62 47.9614C516.94 47.9614 517.34 47.6773 517.9 47.1091L518.54 46.3786L518.56 46.3887Z" fill="white"/>
<path d="M582.11 56.2408C577.99 52.2026 577.14 45.6176 577.14 39.8849C577.14 37.9063 577.26 36.0089 577.34 34.3551V33.9492C577.34 31.1995 575.74 29.6674 572.69 29.2616C571.61 29.1398 570.05 29.0586 568.53 29.0586C567.29 29.0586 566.01 29.0992 565.13 29.221C562.09 29.6268 560.85 31.646 560.85 33.868V33.9898C560.89 35.5625 560.93 37.0946 560.93 38.5963C560.93 45.9017 560.05 52.4461 554.36 57.4483C553.84 57.8947 553.28 58.0976 552.72 58.0976C551.6 58.0976 550.6 57.2453 550.6 56.2003C550.6 55.6726 550.88 55.1146 551.52 54.587C556.53 50.6299 557.37 44.8566 557.37 38.718C557.37 37.1047 557.29 35.4509 557.25 33.8275V33.4216C557.25 29.3833 559.69 26.3597 564.7 25.9538C565.94 25.8727 567.46 25.7915 569.02 25.7915C570.58 25.7915 572.02 25.8727 573.22 25.9944C578.23 26.5626 581.07 29.1398 581.07 33.2998C581.07 33.6245 581.07 33.9086 581.03 34.2333C580.83 36.293 580.71 38.231 580.71 40.1284C580.71 45.577 581.71 50.224 584.59 53.3288C584.83 53.6129 585.11 53.7753 585.39 53.7753C585.79 53.7753 586.15 53.3694 586.15 52.2432C586.15 51.1169 587.07 50.5081 588.03 50.5081C588.99 50.5081 589.99 51.1169 589.99 52.4867V52.649C589.79 56.0379 587.79 57.8135 585.59 57.8135C584.43 57.8135 583.15 57.2859 582.11 56.2408ZM572.58 50.3458C572.1 50.0617 571.9 49.6558 571.9 49.2601C571.9 48.5296 572.58 47.8498 573.46 47.8498C573.7 47.8498 574.02 47.8904 574.3 48.0527C575.66 48.7427 577.86 51.0763 578.58 53.0143C578.7 53.339 578.74 53.6231 578.74 53.8666C578.74 54.9928 577.86 55.7234 577.02 55.7234C576.38 55.7234 575.82 55.3581 575.54 54.516C575.46 54.3536 575.42 54.1507 575.34 53.9478C575.18 53.5419 575.06 53.3796 574.98 53.3796C574.74 53.3796 574.34 54.1101 572.7 54.6682C570.5 55.4799 565.33 55.7944 561.97 56.0379H561.69C560.33 56.0379 559.65 55.1856 559.65 54.3435C559.65 53.5013 560.33 52.6084 561.57 52.6084C563.05 52.5678 564.77 52.4867 566.46 52.3649C566.86 52.2837 567.22 52.1214 567.26 51.5532L567.38 48.0426C567.22 48.0426 567.06 48.002 566.94 48.002C564.58 47.8396 562.7 46.5105 562.49 44.0449C562.45 43.5578 562.41 43.0404 562.41 42.5128C562.41 42.1881 562.41 41.8228 562.45 41.4981C562.65 39.3572 564.01 37.744 566.69 37.5004C566.89 37.5004 567.13 37.4599 567.37 37.4599C567.37 36.6887 567.33 35.9683 567.33 35.2378C566.53 35.2784 565.73 35.319 564.97 35.319H564.17C563.05 35.319 562.49 34.5073 562.49 33.7463C562.49 32.9853 563.05 32.1736 564.17 32.1736H565.17C567.81 32.1736 570.26 31.8489 572.42 30.9256C572.7 30.8038 572.98 30.7632 573.22 30.7632C574.18 30.7632 574.78 31.575 574.78 32.3765C574.78 33.0259 574.46 33.6245 573.66 33.9898C572.74 34.3956 571.7 34.6797 570.54 34.8827V37.47C570.74 37.47 570.94 37.5106 571.14 37.5106C573.9 37.7135 575.38 39.3268 575.54 41.2648C575.58 41.63 575.58 41.9953 575.58 42.3098C575.58 42.878 575.54 43.3955 575.5 43.8825C575.3 46.1452 573.82 47.799 570.97 48.002C570.81 48.002 570.65 48.0426 570.53 48.0426C570.53 49.2906 570.53 50.4675 570.57 51.2285C570.57 51.5126 570.53 51.7156 570.49 51.9185L571.81 51.675C572.37 51.5938 572.81 51.1879 572.81 50.7821C572.81 50.6603 572.77 50.5792 572.69 50.4574L572.57 50.3356L572.58 50.3458ZM567.54 40.1284C567.42 40.1284 567.3 40.169 567.22 40.169C566.26 40.2501 565.66 40.8589 565.5 41.6199C565.42 41.9446 565.42 42.3098 565.42 42.665C565.42 43.0708 565.42 43.4361 565.5 43.7506C565.62 44.4812 566.26 45.0798 567.18 45.161C567.3 45.2016 567.42 45.2016 567.54 45.2016V40.1182V40.1284ZM570.34 45.2219C570.5 45.2219 570.66 45.2219 570.82 45.1813C571.7 45.1001 572.34 44.4507 572.42 43.568C572.46 43.2433 572.46 42.9186 572.46 42.5939C572.46 42.2693 572.46 41.9852 572.42 41.6605C572.3 40.8082 571.7 40.2907 570.74 40.169C570.62 40.169 570.5 40.169 570.34 40.1284V45.2117V45.2219Z" fill="white"/>
</svg>
