<svg width="157" height="127" viewBox="0 0 157 127" fill="none" xmlns="http://www.w3.org/2000/svg">
<path d="M91.1445 10.3569C96.2155 5.2 103.262 2 111.059 2C126.494 2 138.999 14.5354 138.999 30C138.999 45.4646 126.488 58 111.059 58C103.262 58 96.2155 54.8 91.1445 49.6431" stroke="white" stroke-width="3.39" stroke-linecap="round" stroke-linejoin="round"/>
<path d="M66.8544 49.6431C61.7834 54.8 54.7369 58 46.9397 58C31.5052 58 19 45.4585 19 30C19 14.5415 31.5052 2 46.9397 2C54.7369 2 61.7834 5.2 66.8544 10.3569" stroke="white" stroke-width="3.39" stroke-linecap="round" stroke-linejoin="round"/>
<path d="M40.9515 33.4954C41.653 33.4954 42.0899 33.1508 42.0899 32.72C42.0899 32.4554 41.9176 32.1477 41.5238 31.8831C40.9392 31.4831 40.5207 31.2739 39.8561 30.7816C39.1915 30.2892 38.9084 29.6431 38.9084 29.0154C38.9084 27.8031 39.9853 26.6646 41.6345 26.64C42.0715 26.64 42.5453 26.6769 43.0745 26.8123C43.6591 26.9662 43.9053 27.3846 43.9053 27.76C43.9053 28.1969 43.6038 28.5969 43.1115 28.5969C42.9392 28.5969 42.773 28.56 42.5822 28.4616C42.2253 28.2892 41.9176 28.2339 41.6345 28.2339H41.5792C41.0499 28.2339 40.7053 28.5354 40.7053 28.9354C40.7053 29.2 40.8776 29.5262 41.2899 29.7908C41.8007 30.1108 42.3484 30.4185 42.9392 30.8554C43.6776 31.4031 43.9976 32.0862 43.9976 32.7508C43.9976 33.9631 42.8407 35.1016 41.0253 35.1016H40.933C40.4222 35.1016 39.7946 35.0462 39.173 34.8554C38.6623 34.6831 38.4346 34.3077 38.4346 33.9446C38.4346 33.5077 38.7546 33.0892 39.2469 33.0892C39.4192 33.0892 39.5853 33.1262 39.7761 33.2246C40.1146 33.3969 40.533 33.4708 40.8776 33.4892H40.9515V33.4954Z" fill="white"/>
<path d="M51.8384 35.1446C49.6415 35.1446 48.0107 33.4523 48.0107 30.9477C48.0107 28.4431 49.4692 26.5846 51.8938 26.5846C52.8046 26.5846 53.5615 26.8677 54.1276 27.3046C54.7738 27.7969 55.1491 28.5784 55.1491 29.3169C55.1491 30.2831 54.4845 31.1569 52.8969 31.1754H49.8692C49.7953 31.1754 49.7153 31.2923 49.7153 31.44V31.4769C49.7707 32.6523 50.7553 33.5446 51.8384 33.5446C52.7122 33.5446 53.2045 33.28 53.6538 32.8615C53.863 32.6707 54.0722 32.5969 54.2569 32.5969C54.7122 32.5969 55.0692 32.9969 55.0692 33.4707C55.0692 33.7169 54.9768 33.9815 54.7122 34.2092C53.9369 34.8923 53.1799 35.1384 51.8323 35.1384L51.8384 35.1446ZM53.1676 28.56C52.8846 28.3138 52.4476 28.0677 51.8999 28.0677C50.743 28.0677 50.0415 28.7507 49.8138 29.5877V29.6246C49.8138 29.7169 49.8692 29.7969 49.9677 29.7969C50.1769 29.8154 50.7246 29.8338 51.3523 29.8338C51.8076 29.8338 52.2815 29.8154 52.6999 29.8154C53.2661 29.8154 53.4569 29.5507 53.4569 29.2431C53.4569 28.9784 53.3215 28.7138 53.1738 28.56H53.1676Z" fill="white"/>
<path d="M61.5743 34.2339C61.5743 34.7631 61.1189 35.0339 60.6635 35.0339C60.2081 35.0339 59.7158 34.7508 59.7158 34.2154V34.1785C59.7527 32.64 59.7712 31.5569 59.7712 30.5908V29.6431C59.7712 27.84 61.4204 26.6831 63.1989 26.6462H63.2358C63.8389 26.6462 64.1466 27.0462 64.1466 27.4462C64.1466 27.8462 63.8266 28.3016 63.2173 28.3385C62.362 28.3569 61.5497 28.9477 61.5312 29.9323V31.1877C61.5312 31.9631 61.5312 32.9908 61.5681 34.2031V34.24L61.5743 34.2339Z" fill="white"/>
<path d="M68.3379 23.3231C68.3379 22.5046 69.0579 22.1661 69.5133 22.1661H69.5502C70.1533 22.1846 70.7256 22.6954 70.7256 23.3231C70.7256 24.0061 70.1594 24.5169 69.5502 24.5354H69.5133C68.8856 24.5354 68.3564 24.1538 68.3379 23.3784V23.3231ZM69.5317 35.0523C69.0579 35.0523 68.584 34.7508 68.584 34.1415C68.584 32.7384 68.6025 30.9354 68.6025 29.4708C68.6025 28.7323 68.6025 28.0861 68.584 27.6308V27.5938C68.584 27.0031 69.0579 26.72 69.5317 26.72C70.0056 26.72 70.4794 27.0031 70.4794 27.5754V27.6123C70.4609 28.24 70.4425 29.36 70.4425 30.5723C70.4425 31.7846 70.4609 33.0954 70.4794 34.1046V34.1415C70.4794 34.7508 70.0056 35.0523 69.5317 35.0523Z" fill="white"/>
<path d="M78.9976 35.1446C76.8007 35.1446 75.1699 33.4523 75.1699 30.9477C75.1699 28.4431 76.6284 26.5846 79.053 26.5846C79.9637 26.5846 80.7207 26.8677 81.2868 27.3046C81.9329 27.7969 82.3083 28.5784 82.3083 29.3169C82.3083 30.2831 81.6437 31.1569 80.056 31.1754H77.0284C76.9545 31.1754 76.8745 31.2923 76.8745 31.44V31.4769C76.9299 32.6523 77.9145 33.5446 78.9976 33.5446C79.8714 33.5446 80.3637 33.28 80.813 32.8615C81.0222 32.6707 81.2314 32.5969 81.416 32.5969C81.8714 32.5969 82.2283 32.9969 82.2283 33.4707C82.2283 33.7169 82.136 33.9815 81.8714 34.2092C81.096 34.8923 80.3391 35.1384 78.9914 35.1384L78.9976 35.1446ZM80.3268 28.56C80.0437 28.3138 79.6068 28.0677 79.0591 28.0677C77.9022 28.0677 77.2007 28.7507 76.973 29.5877V29.6246C76.973 29.7169 77.0284 29.7969 77.1268 29.7969C77.3361 29.8154 77.8837 29.8338 78.5114 29.8338C78.9668 29.8338 79.4407 29.8154 79.8591 29.8154C80.4253 29.8154 80.616 29.5507 80.616 29.2431C80.616 28.9784 80.4807 28.7138 80.333 28.56H80.3268Z" fill="white"/>
<path d="M88.5843 33.4954C89.2858 33.4954 89.7227 33.1508 89.7227 32.72C89.7227 32.4554 89.5504 32.1477 89.1566 31.8831C88.572 31.4831 88.1535 31.2739 87.4889 30.7816C86.8243 30.2892 86.5412 29.6431 86.5412 29.0154C86.5412 27.8031 87.6181 26.6646 89.2674 26.64C89.7043 26.64 90.1781 26.6769 90.7073 26.8123C91.292 26.9662 91.5381 27.3846 91.5381 27.76C91.5381 28.1969 91.2366 28.5969 90.7443 28.5969C90.572 28.5969 90.4058 28.56 90.215 28.4616C89.8581 28.2892 89.5504 28.2339 89.2674 28.2339H89.212C88.6827 28.2339 88.3381 28.5354 88.3381 28.9354C88.3381 29.2 88.5104 29.5262 88.9227 29.7908C89.4335 30.1108 89.9812 30.4185 90.572 30.8554C91.3104 31.4031 91.6304 32.0862 91.6304 32.7508C91.6304 33.9631 90.4735 35.1016 88.6581 35.1016H88.5658C88.0551 35.1016 87.4274 35.0462 86.8058 34.8554C86.2951 34.6831 86.0674 34.3077 86.0674 33.9446C86.0674 33.5077 86.3874 33.0892 86.8797 33.0892C87.052 33.0892 87.2181 33.1262 87.4089 33.2246C87.7474 33.3969 88.1658 33.4708 88.5104 33.4892H88.5843V33.4954Z" fill="white"/>
<path d="M95.7969 28.3139V28.2216C95.7969 25.0708 96.7999 21.2369 100.4 21.2369C104 21.2369 104.984 24.9785 105.021 28.0923V28.32C105.021 31.4339 103.883 35.2123 100.4 35.2123C96.9169 35.2123 95.8153 31.4523 95.7969 28.32V28.3139ZM103.052 28.1416C103.052 26.32 102.615 23.0154 100.4 23.0154C98.1846 23.0154 97.7476 26.3385 97.7476 28.2154V28.3323C97.7661 30.1169 98.2769 33.4216 100.4 33.4216C102.523 33.4216 103.052 29.9262 103.052 28.1416Z" fill="white"/>
<path d="M111.368 23.3415H111.331C110.611 23.3415 110.254 22.8677 110.254 22.3754C110.254 21.8831 110.611 21.3907 111.355 21.3907C111.62 21.3907 111.866 21.4092 112.168 21.4092C113.472 21.4092 114.857 22.4369 114.857 24.2954V24.4861C114.783 25.9261 114.746 31.4892 114.722 34.0123C114.722 34.7323 114.211 35.0769 113.7 35.0769C113.189 35.0769 112.679 34.7323 112.679 34.0307V33.9938C112.734 31.6184 112.814 25.8523 112.814 24.7507C112.814 23.6492 112.395 23.3477 111.848 23.3477H111.374L111.368 23.3415Z" fill="white"/>
<path d="M1 113.034C1 113.034 19.9294 126.039 39.1829 121.125C58.0692 116.609 77.7925 125.785 78.4892 125.995C78.4892 125.995 78.4892 125.995 78.4892 126C78.4892 126 78.4946 126 78.5 126H78.5108C79.2075 125.785 98.9308 116.603 117.817 121.12C137.071 126.033 156.016 113.056 156 113.029" stroke="white" stroke-linecap="round" stroke-linejoin="round"/>
<path d="M32.297 104.871C31.8001 104.871 31.3896 104.519 31.3896 104.039C31.3896 103.819 31.4761 103.555 31.7137 103.318C32.4266 102.552 33.0531 101.368 33.2907 100.294C33.3987 99.8092 33.766 99.5944 34.1548 99.5944C34.6301 99.5944 35.1053 99.9249 35.1053 100.492C35.1053 100.58 35.1053 100.669 35.0837 100.757C34.8461 101.765 33.982 103.692 33.1827 104.486C32.9018 104.772 32.5994 104.882 32.297 104.882V104.871ZM38.0271 95.9756C37.8543 95.7994 37.7895 95.6231 37.7895 95.4689C37.7895 95.0503 38.2215 94.7474 38.6536 94.7474C38.8264 94.7474 39.0208 94.7914 39.1721 94.9236C39.9065 95.513 40.641 96.9396 40.7923 97.7933C40.8139 97.8814 40.8139 97.9475 40.8139 98.0136C40.8139 98.6471 40.317 99.0216 39.8633 99.0216C39.5177 99.0216 39.1721 98.8233 39.064 98.3882C38.9776 98.0577 38.956 97.9475 38.8912 97.9475C38.7832 97.9475 38.5888 98.256 37.8975 98.3221C37.7679 98.3441 37.6166 98.3661 37.487 98.3661C37.487 100.558 37.487 101.17 37.6167 105.053V105.097C37.6167 105.774 37.0982 106.127 36.6013 106.127C36.1045 106.127 35.586 105.796 35.586 105.097V105.053C35.694 101.346 35.7372 100.514 35.7588 98.5204C34.8299 98.5865 33.9442 98.6526 33.4257 98.6746H33.3825C32.6912 98.6746 32.3672 98.256 32.3672 97.8208C32.3672 97.3857 32.7128 96.9671 33.2961 96.9671H33.3393C33.4689 96.9891 33.5985 96.9891 33.7498 96.9891C33.9658 96.9451 34.117 96.7908 34.225 96.6366C34.441 96.3502 34.6787 96.0252 34.9163 95.6727L34.3546 95.21C33.5769 94.5986 33.2529 93.8936 33.2529 93.2161C33.2529 92.7314 33.3825 92.2742 33.6417 91.8336C34.2898 90.7155 34.8515 89.5533 35.1971 88.6995C35.3916 88.2148 35.7588 88 36.1477 88C36.6445 88 37.1198 88.3745 37.1198 88.9419C37.1198 89.1181 37.0766 89.2944 36.9902 89.4872C36.4501 90.5833 35.9532 91.4591 35.3484 92.423C35.1971 92.6433 35.1323 92.8636 35.1323 93.0784C35.1323 93.3869 35.3052 93.6678 35.6508 93.9101L35.9316 94.1084C36.7093 92.8801 37.4222 91.5857 37.8327 90.6879C38.0055 90.3134 38.3079 90.1426 38.632 90.1426C39.1288 90.1426 39.6689 90.5612 39.6689 91.1286C39.6689 91.2608 39.6257 91.393 39.5609 91.5472C38.9128 92.8636 37.271 95.2541 36.0126 96.9616C36.6175 96.9396 37.2008 96.9175 37.6977 96.8735C38.0865 96.8514 38.2809 96.6752 38.2809 96.4548C38.2809 96.3447 38.2161 96.1905 38.1081 96.0803L38.0217 95.9701L38.0271 95.9756ZM39.0856 102.965C38.956 102.134 38.5672 101.236 38.1135 100.597C38.0055 100.443 37.9623 100.288 37.9623 100.134C37.9623 99.7156 38.3511 99.3906 38.8048 99.3906C39.0424 99.3906 39.3017 99.4788 39.5177 99.6991C40.1442 100.355 40.7275 101.671 40.8571 102.481C40.8787 102.591 40.8787 102.679 40.8787 102.767C40.8787 103.445 40.4034 103.819 39.9498 103.819C39.5609 103.819 39.172 103.555 39.0856 102.965ZM43.174 97.3747C43.0876 98.2725 43.0444 99.0602 43.0444 99.8974C43.0444 100.426 43.066 100.949 43.1092 101.561C43.2172 103.053 44.2757 103.929 45.7285 103.929H45.7717C47.4351 103.885 48.4775 102.987 48.4775 101.891C48.4775 101.759 48.4559 101.649 48.4342 101.517C48.4126 101.407 48.4126 101.318 48.4126 101.208C48.4126 100.531 48.9527 100.156 49.4928 100.156C50.0329 100.156 50.5297 100.487 50.6161 101.164C50.6377 101.34 50.6377 101.495 50.6377 101.671C50.6377 103.731 49.0391 105.747 45.7717 105.791H45.7069C43.282 105.791 41.4025 104.607 41.2081 101.869C41.1649 101.324 41.1433 100.729 41.1433 100.096C41.1433 99.1097 41.1865 98.0577 41.2729 97.0057C41.4025 95.1439 42.7203 94.2241 44.3243 94.2241C44.8644 94.2241 45.2316 94.2461 45.4477 94.2461C46.0525 94.2461 46.571 93.7174 46.6574 93.1721C46.7006 92.9297 46.7222 92.6212 46.7222 92.3403C46.7222 92.076 46.7006 91.795 46.6574 91.5747C46.5494 91.0294 46.1389 90.6549 45.5341 90.6108C45.2316 90.5888 44.9508 90.5888 44.6916 90.5888C43.9571 90.5888 43.3954 90.6328 42.7257 90.6328H42.4449C41.732 90.6328 41.4079 90.1702 41.4079 89.713C41.4079 89.2558 41.7536 88.7491 42.4233 88.7491H42.4665C42.6825 88.7491 42.8985 88.7711 43.1146 88.7711C43.5034 88.7711 43.9139 88.7491 44.3675 88.7491C44.778 88.7491 45.2316 88.7711 45.7501 88.7932C47.4135 88.8813 48.391 89.8452 48.5801 91.2277C48.6233 91.5802 48.6449 91.9272 48.6449 92.3018C48.6449 92.7204 48.6233 93.1115 48.5801 93.486C48.3856 95.0448 47.3487 96.0748 45.6367 96.0748H44.6214C43.8004 96.0968 43.2388 96.6201 43.174 97.3912V97.3747Z" fill="white"/>
<path d="M59.4621 105.615C59.1596 105.857 58.8572 105.945 58.5764 105.945C57.9499 105.945 57.4746 105.483 57.4746 104.937C57.4746 104.629 57.6258 104.304 57.9931 104.017C61.0877 101.671 61.7574 98.1844 61.7574 94.5712C61.7574 92.9518 61.6061 91.2828 61.4981 89.7075V89.6194C61.4981 88.986 62.0166 88.6555 62.5351 88.6555C63.0535 88.6555 63.5504 88.964 63.572 89.5974C63.6152 90.9138 63.68 92.2688 63.68 93.6293C63.8312 93.3869 64.1337 93.2107 64.4793 93.2107C64.6521 93.2107 64.8466 93.2547 65.0194 93.3869C65.6891 93.9102 66.402 95.1164 66.4668 96.3888V96.4549C66.4668 97.1985 65.9483 97.5951 65.473 97.5951C65.041 97.5951 64.6305 97.2866 64.6089 96.6532C64.5873 95.6012 64.2417 95.0118 63.788 94.4169C63.7448 94.3729 63.7016 94.3288 63.68 94.2847C63.6368 98.603 62.9023 102.877 59.4621 105.615ZM58.7924 98.2946C58.2955 98.2946 57.8419 97.92 57.8419 97.4408C57.8419 97.2426 57.9067 97.0002 58.0795 96.7854C58.706 95.9977 59.0084 95.1881 59.138 93.7394C59.1812 93.1941 59.5917 92.9518 60.0237 92.9518C60.499 92.9518 60.9959 93.2602 60.9959 93.8276V93.8716C60.9311 95.2762 60.283 97.0498 59.6565 97.8595C59.4189 98.1679 59.0948 98.3001 58.7924 98.3001V98.2946ZM66.6666 90.1867C66.6666 89.5313 67.1419 89.2228 67.6387 89.2228C68.1356 89.2228 68.6757 89.5533 68.654 90.2088C68.6108 91.9383 68.5892 94.1305 68.5892 96.3668C68.5892 98.603 68.6108 100.927 68.654 102.877V102.899C68.654 103.577 68.1572 103.929 67.6603 103.929C67.1635 103.929 66.645 103.577 66.6666 102.877C66.7098 101.104 66.7314 98.9996 66.7314 96.8955C66.7314 94.483 66.7098 92.0925 66.6666 90.2088V90.1867ZM69.9286 96.6091C69.8422 95.5351 69.4101 94.9677 68.9349 94.3949C68.7837 94.2186 68.7189 94.0644 68.7189 93.8882C68.7189 93.4695 69.1509 93.1446 69.6262 93.1446C69.799 93.1446 69.9718 93.1886 70.1446 93.2988C70.8575 93.7835 71.6352 94.9843 71.7865 96.2346V96.3888C71.7865 97.1104 71.268 97.5069 70.7927 97.5069C70.3823 97.5069 69.9718 97.2205 69.9286 96.6091ZM71.9863 97.0498C71.9863 94.2682 71.9647 91.5252 71.9215 89.5533V89.5313C71.9215 88.8758 72.4183 88.5453 72.9368 88.5453C73.4553 88.5453 73.9953 88.8979 73.9737 89.5533C73.9305 91.8557 73.9089 94.5712 73.9089 97.2701C73.9089 99.969 73.9305 102.618 73.9737 104.745V104.767C73.9737 105.466 73.4337 105.863 72.9152 105.863C72.3967 105.863 71.9215 105.488 71.9215 104.745C71.9647 102.64 71.9863 99.8148 71.9863 97.0498Z" fill="white"/>
<path d="M87.174 99.6109C88.0165 98.647 88.8806 97.4628 89.4639 96.4769C89.8095 95.9316 89.8743 95.4909 89.8959 94.9181C89.9175 94.2186 90.4576 93.8661 90.9761 93.8661C91.4945 93.8661 92.0346 94.2406 92.0346 95.0062V95.0723C91.9914 95.8379 91.8186 96.565 91.2569 97.3526C90.544 98.3827 88.9454 100.266 87.7302 101.957C87.1902 102.701 86.6501 103.053 86.1316 103.053C85.6132 103.053 85.0731 102.723 84.5546 102.09C83.8417 101.214 83.4961 100.096 83.4961 98.9335C83.4961 97.4408 84.0794 95.8655 85.2675 94.5931C86.8445 92.8856 89.0102 92.0704 91.1057 92.0704C93.5684 92.0704 95.9501 93.1886 97.1383 95.2706C97.6783 96.1905 97.916 97.1764 97.916 98.1403C97.916 101.296 95.167 104.276 90.1714 104.563H90.0633C89.2856 104.563 88.832 104.1 88.832 103.621C88.832 103.202 89.1992 102.767 90.0417 102.679C94.0653 102.326 95.7719 100.09 95.7719 97.964C95.7719 97.3086 95.5991 96.6256 95.275 96.0583C94.4109 94.5656 92.7637 93.7339 91.0139 93.7339C89.5017 93.7339 87.9193 94.3453 86.7095 95.6837C85.9534 96.5375 85.4565 97.7217 85.4565 98.7958C85.4565 99.319 85.5646 99.7817 85.8022 100.2C85.8886 100.377 85.9966 100.465 86.1262 100.465C86.2991 100.465 86.5151 100.31 86.8175 100.002L87.1632 99.6054L87.174 99.6109Z" fill="white"/>
<path d="M121.494 104.959C119.269 102.767 118.81 99.1924 118.81 96.0804C118.81 95.0063 118.875 93.9763 118.918 93.0785V92.8582C118.918 91.3655 118.054 90.5338 116.407 90.3134C115.823 90.2473 114.981 90.2033 114.16 90.2033C113.49 90.2033 112.799 90.2253 112.324 90.2914C110.682 90.5117 110.012 91.6078 110.012 92.8141V92.8802C110.034 93.7339 110.055 94.5656 110.055 95.3808C110.055 99.3466 109.58 102.899 106.507 105.615C106.226 105.857 105.924 105.967 105.622 105.967C105.017 105.967 104.477 105.505 104.477 104.937C104.477 104.651 104.628 104.348 104.973 104.062C107.679 101.913 108.133 98.7793 108.133 95.4469C108.133 94.5712 108.09 93.6733 108.068 92.7921V92.5717C108.068 90.3795 109.386 88.7381 112.092 88.5178C112.761 88.4738 113.582 88.4297 114.425 88.4297C115.267 88.4297 116.045 88.4738 116.693 88.5398C119.399 88.8483 120.932 90.2473 120.932 92.5056C120.932 92.6819 120.932 92.8361 120.911 93.0124C120.803 94.1305 120.738 95.1826 120.738 96.2126C120.738 99.1704 121.278 101.693 122.834 103.379C122.963 103.533 123.114 103.621 123.266 103.621C123.482 103.621 123.676 103.401 123.676 102.789C123.676 102.178 124.173 101.847 124.691 101.847C125.21 101.847 125.75 102.178 125.75 102.921V103.009C125.642 104.849 124.562 105.813 123.374 105.813C122.747 105.813 122.056 105.527 121.494 104.959ZM116.347 101.759C116.088 101.605 115.98 101.385 115.98 101.17C115.98 100.773 116.347 100.404 116.823 100.404C116.952 100.404 117.125 100.426 117.276 100.514C118.011 100.889 119.199 102.156 119.588 103.208C119.653 103.384 119.674 103.538 119.674 103.67C119.674 104.282 119.199 104.678 118.745 104.678C118.4 104.678 118.097 104.48 117.946 104.023C117.903 103.935 117.881 103.825 117.838 103.715C117.751 103.494 117.687 103.406 117.643 103.406C117.514 103.406 117.298 103.803 116.412 104.106C115.224 104.546 112.432 104.717 110.617 104.849H110.466C109.731 104.849 109.364 104.386 109.364 103.929C109.364 103.472 109.731 102.987 110.401 102.987C111.2 102.965 112.129 102.921 113.042 102.855C113.258 102.811 113.453 102.723 113.474 102.415L113.539 100.509C113.453 100.509 113.366 100.487 113.301 100.487C112.027 100.399 111.011 99.6771 110.898 98.3387C110.876 98.0743 110.855 97.7934 110.855 97.5069C110.855 97.3307 110.855 97.1324 110.876 96.9561C110.984 95.7939 111.719 94.9182 113.166 94.786C113.274 94.786 113.404 94.7639 113.534 94.7639C113.534 94.3453 113.512 93.9543 113.512 93.5577C113.08 93.5797 112.648 93.6017 112.237 93.6017H111.805C111.2 93.6017 110.898 93.1611 110.898 92.748C110.898 92.3349 111.2 91.8942 111.805 91.8942H112.345C113.771 91.8942 115.094 91.718 116.261 91.2168C116.412 91.1507 116.563 91.1286 116.693 91.1286C117.211 91.1286 117.535 91.5693 117.535 92.0044C117.535 92.3569 117.363 92.6819 116.931 92.8802C116.434 93.1005 115.872 93.2547 115.246 93.3649V94.7694C115.354 94.7694 115.462 94.7915 115.57 94.7915C117.06 94.9016 117.859 95.7774 117.946 96.8295C117.967 97.0277 117.967 97.226 117.967 97.3968C117.967 97.7052 117.946 97.9861 117.924 98.2505C117.816 99.4788 117.017 100.377 115.478 100.487C115.391 100.487 115.305 100.509 115.24 100.509C115.24 101.186 115.24 101.825 115.262 102.238C115.262 102.393 115.24 102.503 115.219 102.613L115.931 102.481C116.234 102.437 116.472 102.216 116.472 101.996C116.472 101.93 116.45 101.886 116.407 101.82L116.342 101.754L116.347 101.759ZM113.625 96.2126C113.561 96.2126 113.496 96.2346 113.453 96.2346C112.934 96.2787 112.61 96.6091 112.524 97.0222C112.48 97.1985 112.48 97.3968 112.48 97.5896C112.48 97.8099 112.48 98.0082 112.524 98.1789C112.588 98.5755 112.934 98.9005 113.431 98.9445C113.496 98.9666 113.561 98.9666 113.625 98.9666V96.207V96.2126ZM115.138 98.9776C115.224 98.9776 115.31 98.9776 115.397 98.9556C115.872 98.9115 116.218 98.559 116.261 98.0798C116.282 97.9035 116.282 97.7273 116.282 97.551C116.282 97.3748 116.282 97.2205 116.261 97.0443C116.196 96.5816 115.872 96.3007 115.354 96.2346C115.289 96.2346 115.224 96.2346 115.138 96.2126V98.9721V98.9776Z" fill="white"/>
</svg>
