<svg width="157" height="127" viewBox="0 0 157 127" fill="none" xmlns="http://www.w3.org/2000/svg">
<path d="M1 113.084C1 113.084 19.9294 126.033 39.1829 121.141C58.0692 116.64 77.7925 125.783 78.4892 125.995C78.4892 125.995 78.4892 125.995 78.4892 126C78.4892 126 78.4946 126 78.5 126H78.5108C79.2075 125.783 98.9308 116.64 117.817 121.141C137.071 126.033 156.016 113.111 156 113.084" stroke="white" stroke-linecap="round" stroke-linejoin="round"/>
<path d="M49.2987 95.7857C49.3635 95.764 49.4499 95.7422 49.5363 95.7422C49.6227 95.7422 49.7307 95.764 49.8388 95.8074C50.4004 96.0463 50.9405 96.4861 51.2429 96.8987C51.3726 97.0724 51.4158 97.2462 51.4158 97.4253C51.4158 97.9031 51.0053 98.3429 50.5733 98.3429C50.3572 98.3429 50.1412 98.2343 49.9684 97.9737C49.7524 97.6479 49.5363 97.3819 49.2987 97.1647C49.2987 99.8088 49.3635 102.361 49.4499 105.135V105.178C49.4499 105.857 48.9314 106.205 48.4346 106.205C47.9377 106.205 47.4409 105.879 47.4409 105.178V105.135C47.5057 102.143 47.5921 99.8088 47.6137 97.5611C46.9224 98.5655 46.1231 99.4396 45.1942 100.183C44.9349 100.379 44.6757 100.466 44.4165 100.466C43.8764 100.466 43.4443 100.031 43.4443 99.5048C43.4443 99.179 43.6172 98.8261 44.0492 98.5655C45.0861 97.9086 46.3607 96.6652 47.2734 95.1613C47.4679 94.8355 47.5759 94.5695 47.6191 94.3306V94.1569C47.0142 94.1569 46.4093 94.1569 45.8909 94.1786H45.8476C45.1132 94.1786 44.7675 93.7442 44.7675 93.2828C44.7675 92.8213 45.1348 92.3652 45.826 92.3652H45.8693C46.3661 92.3869 46.971 92.4086 47.5975 92.4086C47.5759 91.3608 47.5327 90.2912 47.4895 89.0913V89.0261C47.4895 88.3475 47.9863 88 48.4832 88C48.9801 88 49.4553 88.3475 49.4553 89.0261V89.0913C49.4121 90.2477 49.3689 91.339 49.3473 92.3869C49.6281 92.3869 49.909 92.3869 50.1898 92.3652H50.233C50.7947 92.3652 51.0971 92.7127 51.1835 93.0873C52.4581 92.148 53.5166 90.6224 54.559 89.4659C55.1422 88.8307 55.8119 88.5484 56.4816 88.5484C57.1513 88.5484 57.7778 88.809 58.3395 89.3139C59.722 90.5572 61.4557 92.2186 63.1623 93.0493C63.5511 93.2447 63.724 93.5488 63.724 93.8583C63.724 94.3849 63.2703 94.9061 62.6438 94.9061C62.4494 94.9061 62.2118 94.841 61.9957 94.7107C61.11 94.2112 60.1163 93.337 59.182 92.4629C59.2468 92.5715 59.2684 92.7018 59.2684 92.8104C59.2684 93.1796 59.0307 93.5325 58.5339 93.5325H58.4691C57.9074 93.5108 57.3889 93.5108 56.9137 93.5108C56.244 93.5108 55.6175 93.5108 54.9262 93.5325H54.883C54.3645 93.5325 54.1053 93.185 54.1053 92.8321C54.1053 92.7887 54.1269 92.7235 54.1269 92.6801C53.3924 93.5542 52.5715 94.3849 51.621 94.993C51.3618 95.1667 51.1241 95.2319 50.9081 95.2319C50.368 95.2319 49.9576 94.7758 49.9576 94.336C49.9576 94.2709 49.9792 94.2275 49.9792 94.184C49.7632 94.1623 49.5255 94.1623 49.3095 94.1623V95.802L49.2987 95.7857ZM59.4628 99.0433C58.5339 99.0867 57.605 99.1084 56.6922 99.1084C55.7795 99.1084 54.8992 99.0867 54.0945 99.0433C52.4527 98.9564 51.675 98.2778 51.567 97.1865C51.5454 97.0127 51.5238 96.8173 51.5238 96.6435C51.5238 96.4481 51.5454 96.2526 51.567 96.0734C51.6966 95.0039 52.5607 94.3035 54.0945 94.2383C54.8722 94.1949 55.8443 94.1732 56.8651 94.1732C57.7292 94.1732 58.6365 94.1949 59.4628 94.2383C61.0398 94.3035 61.9039 95.0256 62.0119 96.0734C62.0335 96.2689 62.0335 96.4644 62.0335 96.6652C62.0335 96.8661 62.0335 97.0562 62.0119 97.1865C61.9039 98.1909 61.1478 98.9564 59.4628 99.0433ZM58.253 105.852C57.7562 105.895 57.2809 105.917 56.7625 105.917C56.3088 105.917 55.8551 105.895 55.3583 105.852C53.9757 105.721 53.09 105.021 52.955 103.756C52.9118 103.43 52.9118 103.034 52.9118 102.686C52.9118 102.317 52.9118 101.986 52.955 101.725C53.1062 100.591 53.9487 99.7382 55.4825 99.6514C55.8065 99.6297 56.3034 99.6297 56.7787 99.6297C57.2539 99.6297 57.7076 99.6297 58.0316 99.6514C59.6734 99.7382 60.5159 100.591 60.624 101.725C60.6456 102.051 60.6456 102.382 60.6456 102.708C60.6456 103.056 60.6456 103.408 60.624 103.756C60.5375 104.956 59.6734 105.721 58.2476 105.852H58.253ZM54.2727 95.5251C53.5166 95.5685 53.1926 95.8943 53.1278 96.3123C53.1062 96.3992 53.1062 96.5295 53.1062 96.6381C53.1062 96.7684 53.1062 96.8987 53.1278 96.9856C53.1926 97.4199 53.5382 97.7294 54.2727 97.7728C54.8128 97.8163 55.3745 97.838 55.9578 97.8597V95.4599L54.2727 95.5251ZM54.9856 97.6642C54.7696 97.6642 54.5968 97.5557 54.4888 97.3385C54.3159 96.9258 54.1215 96.7684 53.8839 96.5295C53.7759 96.4209 53.7327 96.3123 53.7327 96.2037C53.7327 95.9214 54.0351 95.6554 54.4024 95.6554C54.532 95.6554 54.6832 95.6988 54.8128 95.7857C55.072 95.9377 55.4393 96.3558 55.6121 96.7467C55.6553 96.8335 55.6769 96.9204 55.6769 97.0073C55.6769 97.3765 55.3097 97.6642 54.9856 97.6642ZM57.1513 90.4812C56.9785 90.3075 56.7625 90.1989 56.5464 90.1989C56.3304 90.1989 56.1144 90.3075 55.9199 90.5246C55.4663 91.0241 55.0342 91.5725 54.5806 92.1372C54.667 92.0937 54.7966 92.072 54.9262 92.072C55.5311 92.0937 56.1144 92.0937 56.6976 92.0937C57.2809 92.0937 57.8642 92.0937 58.4691 92.072C58.6203 92.072 58.7499 92.0937 58.8579 92.1372C58.2314 91.5454 57.6482 90.959 57.1513 90.4758V90.4812ZM58.9227 101.899C58.8795 101.421 58.5339 101.09 57.8642 101.003C57.6266 100.982 57.2161 100.96 56.7841 100.96C56.352 100.96 55.8983 100.982 55.6607 101.003C55.0126 101.09 54.7102 101.438 54.667 101.899C54.667 101.943 54.6454 102.008 54.6454 102.051H58.9281V101.899H58.9227ZM56.7625 103.322C56.0496 103.322 55.3583 103.343 54.6454 103.343C54.6454 103.43 54.6454 103.517 54.667 103.604C54.7318 104.103 55.1422 104.413 55.7255 104.478C55.9848 104.522 56.3736 104.522 56.7841 104.522C57.1729 104.522 57.5618 104.522 57.8642 104.478C58.5123 104.413 58.8795 104.087 58.9227 103.604C58.9227 103.517 58.9443 103.43 58.9443 103.343C58.1666 103.343 57.4537 103.322 56.7625 103.322ZM57.4537 97.838C58.0802 97.838 58.7067 97.8163 59.29 97.7728C60.0029 97.7294 60.3701 97.4471 60.4349 96.9856C60.4349 96.8553 60.4565 96.725 60.4565 96.6164C60.4565 96.4861 60.4349 96.3992 60.4349 96.3123C60.3485 95.878 60.0461 95.5685 59.29 95.5251C58.7283 95.4816 58.0802 95.4599 57.4537 95.4599V97.838ZM58.4259 97.7077C58.1018 97.7077 57.7778 97.4905 57.7778 97.2082C57.7778 97.143 57.7994 97.0562 57.8426 96.991C58.0154 96.7087 58.2963 96.2906 58.4907 95.9214C58.6203 95.7042 58.8147 95.5957 59.0307 95.5957C59.3764 95.5957 59.722 95.8563 59.722 96.2092C59.722 96.296 59.7004 96.4046 59.6356 96.5132C59.4628 96.7955 59.1388 97.2136 58.9011 97.4959C58.7715 97.648 58.5987 97.7131 58.4259 97.7131V97.7077Z" fill="white"/>
<path d="M79.9467 105.396C79.4066 105.439 78.8233 105.461 78.2401 105.461C77.6568 105.461 77.0951 105.439 76.5982 105.396C74.2219 105.178 72.8123 103.935 72.7259 101.704C72.6827 100.764 72.6611 99.4125 72.6611 98.0335C72.6611 96.4861 72.6827 94.9116 72.7475 93.7986C72.8556 91.5725 74.3677 90.2206 76.5982 90.0415C77.1383 89.998 77.8512 89.9763 78.5425 89.9763C79.0178 89.9763 79.4498 89.9763 79.8171 90.0198C82.0853 90.2152 83.711 91.3499 83.7974 93.6411C83.819 94.6021 83.8406 96.1929 83.8406 97.7457C83.8406 99.2985 83.819 100.824 83.7974 101.655C83.711 103.772 82.3284 105.189 79.9467 105.39V105.396ZM81.8261 98.3429C80.4435 98.3212 79.2986 98.3212 78.1698 98.3212C77.0411 98.3212 75.9448 98.3212 74.6648 98.3429C74.6648 99.5428 74.6864 100.699 74.7296 101.465C74.7944 102.621 75.4857 103.387 76.8683 103.517C77.3003 103.561 77.8188 103.582 78.3157 103.582C78.8125 103.582 79.2878 103.561 79.655 103.517C80.8648 103.365 81.6857 102.556 81.7505 101.443L81.8153 98.3429H81.8261ZM81.7613 93.9777C81.6749 92.6693 80.7676 92.034 79.5362 91.9037C79.1042 91.8603 78.6073 91.8386 78.1104 91.8386C77.6136 91.8386 77.1815 91.8603 76.8359 91.9037C75.4965 92.0558 74.8268 92.8864 74.762 94.0863C74.7188 94.6999 74.6972 95.5251 74.6972 96.421C76.1662 96.4427 77.4029 96.4427 78.6991 96.4427C79.6712 96.4427 80.665 96.4427 81.8369 96.421L81.7721 93.9777H81.7613Z" fill="white"/>
<path d="M99.0936 95.3296V96.9476C99.2448 96.839 99.4393 96.7739 99.6769 96.7739C99.7849 96.7739 99.8929 96.7956 100.001 96.8173C100.671 96.991 101.708 97.6045 102.032 98.0389C102.226 98.2995 102.291 98.5384 102.291 98.7827C102.291 99.3745 101.816 99.8306 101.297 99.8306C101.016 99.8306 100.735 99.7003 100.519 99.3528C100.195 98.8533 99.6769 98.4569 99.18 98.1963C99.1368 98.1963 99.1152 98.1746 99.0936 98.1529C99.1152 100.227 99.18 102.41 99.3096 104.722V104.809C99.3096 105.597 98.748 106.009 98.1647 105.987C97.603 105.987 97.0413 105.618 97.0413 104.831V104.722C97.171 102.496 97.2574 100.357 97.279 98.3484C96.4149 99.4831 95.3131 100.618 93.9899 101.557C93.7307 101.753 93.4715 101.818 93.2338 101.818C92.6722 101.818 92.2617 101.383 92.2617 100.878C92.2617 100.574 92.4345 100.243 92.8234 100.004C94.4004 99.0433 95.8748 97.5177 96.8901 96.3124C97.2358 95.8997 97.279 95.5903 97.3006 95.3514V95.3296C96.3068 95.3296 95.3347 95.3514 94.3572 95.3731H94.314C93.6443 95.3731 93.3203 94.917 93.3203 94.4555C93.3203 93.994 93.6443 93.538 94.314 93.538H94.3572C95.2861 93.5814 96.2798 93.5814 97.279 93.5814L97.2142 91.4422C96.6741 91.5725 96.0908 91.6811 95.4643 91.7897C95.3779 91.8114 95.2915 91.8114 95.2267 91.8114C94.6002 91.8114 94.2546 91.3554 94.2546 90.8939C94.2546 90.4812 94.5354 90.0632 95.1187 89.998C97.1278 89.7374 98.4725 89.1673 99.8119 88.5158C99.9631 88.4507 100.114 88.4072 100.244 88.4072C100.784 88.4072 101.216 88.8633 101.216 89.3682C101.216 89.694 101.022 90.0469 100.525 90.2858C100.222 90.4378 99.8551 90.5898 99.4663 90.7418C99.2934 90.8504 99.1854 91.0025 99.1854 91.1762L99.1206 93.576C99.8119 93.576 100.482 93.5542 101.151 93.5325H101.194C101.864 93.5325 102.21 93.9886 102.21 94.4501C102.21 94.9116 101.886 95.3676 101.194 95.3676H101.151L99.099 95.3242L99.0936 95.3296ZM106.746 104.543C106.487 104.543 106.228 104.522 105.99 104.5C104.046 104.326 102.939 103.365 102.809 101.269C102.766 100.374 102.744 99.1953 102.744 98.0606C102.744 96.7739 102.766 95.5305 102.809 94.7433C102.917 93.0167 103.997 91.9037 105.904 91.73C106.185 91.7083 106.466 91.7083 106.768 91.7083C107.049 91.7083 107.351 91.7083 107.632 91.73C109.706 91.9254 110.619 93.1253 110.705 94.7867C110.748 95.5522 110.77 96.839 110.77 98.1258C110.77 99.2388 110.748 100.374 110.705 101.204C110.597 103.213 109.603 104.348 107.524 104.5C107.265 104.522 107.006 104.543 106.746 104.543ZM107.33 93.4945C107.157 93.4728 106.962 93.4728 106.768 93.4728C106.595 93.4728 106.401 93.4728 106.228 93.4945C105.342 93.5814 104.845 94.1949 104.802 95.0473C104.759 95.7477 104.737 96.991 104.737 98.2561C104.737 99.2605 104.759 100.265 104.802 101.052C104.845 102.013 105.385 102.578 106.077 102.67C106.271 102.714 106.53 102.714 106.768 102.714C107.006 102.714 107.243 102.714 107.438 102.67C108.194 102.562 108.647 101.991 108.691 101.009C108.734 100.2 108.755 99.1302 108.755 98.104C108.755 96.8824 108.734 95.726 108.691 95.0039C108.669 94.2383 108.129 93.5868 107.33 93.5V93.4945Z" fill="white"/>
<path d="M90.1455 10.3569C95.2165 5.2 102.263 2 110.06 2C125.495 2 138 14.5354 138 30C138 45.4646 125.489 58 110.06 58C102.263 58 95.2165 54.8 90.1455 49.6431" stroke="white" stroke-width="3.39" stroke-linecap="round" stroke-linejoin="round"/>
<path d="M65.8546 49.6431C60.7836 54.8 53.7371 58 45.9398 58C30.5052 58 18 45.4585 18 30C18 14.5415 30.5052 2 45.9398 2C53.7371 2 60.7836 5.2 65.8546 10.3569" stroke="white" stroke-width="3.39" stroke-linecap="round" stroke-linejoin="round"/>
<path d="M39.9525 33.4955C40.654 33.4955 41.0909 33.1509 41.0909 32.7201C41.0909 32.4555 40.9186 32.1478 40.5248 31.8832C39.9402 31.4832 39.5217 31.274 38.8571 30.7817C38.1925 30.2894 37.9094 29.6432 37.9094 29.0155C37.9094 27.8032 38.9863 26.6648 40.6355 26.6401C41.0725 26.6401 41.5463 26.6771 42.0755 26.8124C42.6602 26.9663 42.9063 27.3848 42.9063 27.7601C42.9063 28.1971 42.6048 28.5971 42.1125 28.5971C41.9402 28.5971 41.774 28.5601 41.5832 28.4617C41.2263 28.2894 40.9186 28.234 40.6355 28.234H40.5802C40.0509 28.234 39.7063 28.5355 39.7063 28.9355C39.7063 29.2001 39.8786 29.5263 40.2909 29.7909C40.8017 30.1109 41.3494 30.4186 41.9402 30.8555C42.6786 31.4032 42.9986 32.0863 42.9986 32.7509C42.9986 33.9632 41.8417 35.1017 40.0263 35.1017H39.934C39.4232 35.1017 38.7955 35.0463 38.174 34.8555C37.6632 34.6832 37.4355 34.3078 37.4355 33.9448C37.4355 33.5078 37.7555 33.0894 38.2479 33.0894C38.4202 33.0894 38.5863 33.1263 38.7771 33.2248C39.1155 33.3971 39.534 33.4709 39.8786 33.4894H39.9525V33.4955Z" fill="white"/>
<path d="M50.8375 35.1445C48.6405 35.1445 47.0098 33.4522 47.0098 30.9475C47.0098 28.4429 48.4682 26.5845 50.8928 26.5845C51.8036 26.5845 52.5605 26.8675 53.1267 27.3045C53.7728 27.7968 54.1482 28.5783 54.1482 29.3168C54.1482 30.2829 53.4836 31.1568 51.8959 31.1752H48.8682C48.7944 31.1752 48.7144 31.2922 48.7144 31.4399V31.4768C48.7698 32.6522 49.7544 33.5445 50.8375 33.5445C51.7113 33.5445 52.2036 33.2799 52.6528 32.8614C52.8621 32.6706 53.0713 32.5968 53.2559 32.5968C53.7113 32.5968 54.0682 32.9968 54.0682 33.4706C54.0682 33.7168 53.9759 33.9814 53.7113 34.2091C52.9359 34.8922 52.179 35.1383 50.8313 35.1383L50.8375 35.1445ZM52.1667 28.5599C51.8836 28.3137 51.4467 28.0675 50.899 28.0675C49.7421 28.0675 49.0405 28.7506 48.8128 29.5875V29.6245C48.8128 29.7168 48.8682 29.7968 48.9667 29.7968C49.1759 29.8152 49.7236 29.8337 50.3513 29.8337C50.8067 29.8337 51.2805 29.8152 51.699 29.8152C52.2651 29.8152 52.4559 29.5506 52.4559 29.2429C52.4559 28.9783 52.3205 28.7137 52.1728 28.5599H52.1667Z" fill="white"/>
<path d="M60.5753 34.2339C60.5753 34.7632 60.1199 35.0339 59.6645 35.0339C59.2091 35.0339 58.7168 34.7509 58.7168 34.2155V34.1785C58.7537 32.6401 58.7722 31.557 58.7722 30.5909V29.6432C58.7722 27.8401 60.4214 26.6832 62.1999 26.6462H62.2368C62.8399 26.6462 63.1476 27.0462 63.1476 27.4462C63.1476 27.8462 62.8276 28.3016 62.2183 28.3385C61.363 28.357 60.5506 28.9478 60.5322 29.9324V31.1878C60.5322 31.9632 60.5322 32.9909 60.5691 34.2032V34.2401L60.5753 34.2339Z" fill="white"/>
<path d="M67.3379 23.3232C67.3379 22.5047 68.0579 22.1663 68.5133 22.1663H68.5502C69.1533 22.1847 69.7256 22.6955 69.7256 23.3232C69.7256 24.0063 69.1594 24.517 68.5502 24.5355H68.5133C67.8856 24.5355 67.3564 24.154 67.3379 23.3786V23.3232ZM68.5317 35.0524C68.0579 35.0524 67.584 34.7509 67.584 34.1416C67.584 32.7386 67.6025 30.9355 67.6025 29.4709C67.6025 28.7324 67.6025 28.0863 67.584 27.6309V27.594C67.584 27.0032 68.0579 26.7201 68.5317 26.7201C69.0056 26.7201 69.4794 27.0032 69.4794 27.5755V27.6124C69.461 28.2401 69.4425 29.3601 69.4425 30.5724C69.4425 31.7847 69.461 33.0955 69.4794 34.1047V34.1416C69.4794 34.7509 69.0056 35.0524 68.5317 35.0524Z" fill="white"/>
<path d="M77.9976 35.1445C75.8007 35.1445 74.1699 33.4522 74.1699 30.9475C74.1699 28.4429 75.6284 26.5845 78.053 26.5845C78.9638 26.5845 79.7207 26.8675 80.2868 27.3045C80.933 27.7968 81.3084 28.5783 81.3084 29.3168C81.3084 30.2829 80.6438 31.1568 79.0561 31.1752H76.0284C75.9545 31.1752 75.8745 31.2922 75.8745 31.4399V31.4768C75.9299 32.6522 76.9145 33.5445 77.9976 33.5445C78.8715 33.5445 79.3638 33.2799 79.813 32.8614C80.0222 32.6706 80.2315 32.5968 80.4161 32.5968C80.8715 32.5968 81.2284 32.9968 81.2284 33.4706C81.2284 33.7168 81.1361 33.9814 80.8715 34.2091C80.0961 34.8922 79.3392 35.1383 77.9915 35.1383L77.9976 35.1445ZM79.3268 28.5599C79.0438 28.3137 78.6068 28.0675 78.0592 28.0675C76.9022 28.0675 76.2007 28.7506 75.973 29.5875V29.6245C75.973 29.7168 76.0284 29.7968 76.1268 29.7968C76.3361 29.8152 76.8838 29.8337 77.5115 29.8337C77.9668 29.8337 78.4407 29.8152 78.8591 29.8152C79.4253 29.8152 79.6161 29.5506 79.6161 29.2429C79.6161 28.9783 79.4807 28.7137 79.333 28.5599H79.3268Z" fill="white"/>
<path d="M87.5843 33.4955C88.2858 33.4955 88.7228 33.1509 88.7228 32.7201C88.7228 32.4555 88.5505 32.1478 88.1566 31.8832C87.572 31.4832 87.1535 31.274 86.4889 30.7817C85.8243 30.2894 85.5412 29.6432 85.5412 29.0155C85.5412 27.8032 86.6182 26.6648 88.2674 26.6401C88.7043 26.6401 89.1782 26.6771 89.7074 26.8124C90.292 26.9663 90.5382 27.3848 90.5382 27.7601C90.5382 28.1971 90.2366 28.5971 89.7443 28.5971C89.572 28.5971 89.4058 28.5601 89.2151 28.4617C88.8582 28.2894 88.5505 28.234 88.2674 28.234H88.212C87.6828 28.234 87.3382 28.5355 87.3382 28.9355C87.3382 29.2001 87.5105 29.5263 87.9228 29.7909C88.4335 30.1109 88.9812 30.4186 89.572 30.8555C90.3105 31.4032 90.6305 32.0863 90.6305 32.7509C90.6305 33.9632 89.4735 35.1017 87.6582 35.1017H87.5658C87.0551 35.1017 86.4274 35.0463 85.8058 34.8555C85.2951 34.6832 85.0674 34.3078 85.0674 33.9448C85.0674 33.5078 85.3874 33.0894 85.8797 33.0894C86.052 33.0894 86.2182 33.1263 86.4089 33.2248C86.7474 33.3971 87.1658 33.4709 87.5105 33.4894H87.5843V33.4955Z" fill="white"/>
<path d="M94.7979 28.3137V28.2214C94.7979 25.0707 95.8009 21.2368 99.4009 21.2368C103.001 21.2368 103.986 24.9784 104.022 28.0922V28.3199C104.022 31.4337 102.884 35.2122 99.4009 35.2122C95.9179 35.2122 94.8163 31.4522 94.7979 28.3199V28.3137ZM102.053 28.1414C102.053 26.3199 101.616 23.0153 99.4009 23.0153C97.1855 23.0153 96.7486 26.3384 96.7486 28.2153V28.3322C96.7671 30.1168 97.2779 33.4214 99.4009 33.4214C101.524 33.4214 102.053 29.926 102.053 28.1414Z" fill="white"/>
<path d="M116.165 34.9601C115.255 34.9786 114.35 34.9786 113.531 34.9786H110.541C109.365 34.9786 108.608 34.4063 108.608 33.5571C108.608 33.0094 108.91 32.3817 109.593 31.6986C111.051 30.2586 113.058 28.7755 114.178 27.6001C115.033 26.7263 115.408 25.7971 115.408 24.9971C115.408 23.8032 114.578 22.9109 113.076 22.9109H112.965C111.544 22.9478 110.768 23.9571 110.768 25.034C110.768 25.2801 110.805 25.5263 110.879 25.7724C110.935 25.9447 110.953 26.1171 110.953 26.2463C110.953 26.8555 110.516 27.194 110.024 27.194C109.605 27.194 109.168 26.9478 109.002 26.3755C108.891 26.0309 108.83 25.6371 108.83 25.2371C108.83 23.4524 110.042 21.4032 112.922 21.2678H113.15C115.667 21.2678 117.316 22.9601 117.316 25.0463C117.316 26.2401 116.768 27.5694 115.556 28.7694C114.171 30.1171 112.202 31.4647 110.935 32.7755C110.842 32.8678 110.799 32.9478 110.799 33.0217C110.799 33.1386 110.891 33.2124 111.101 33.2124C112.085 33.1755 115.076 33.0771 116.196 33.0217H116.27C116.953 33.0217 117.291 33.4771 117.291 33.9324C117.291 34.4247 116.891 34.9355 116.153 34.9601H116.165Z" fill="white"/>
</svg>
