<svg width="449" height="85" viewBox="0 0 449 85" fill="none" xmlns="http://www.w3.org/2000/svg">
<path d="M449 0H0V85H449V0Z" fill="#2998AE"/>
<path d="M71.81 45.2201C71.41 45.2201 71.02 45.1101 70.59 44.8601C66.13 42.2701 62.53 37.3701 58.46 33.0201C58.14 32.6601 57.7 32.4801 57.27 32.4801C56.87 32.4801 56.44 32.6601 56.15 32.9801C52.41 37.1901 48.95 42.3401 44.49 45.5801C43.91 46.0101 43.37 46.1901 42.87 46.1901C41.79 46.1901 41 45.2901 41 44.3501C41 43.7401 41.32 43.1301 42.04 42.7301C46.47 40.2801 50.07 34.8801 53.77 30.7401C54.81 29.5901 56 29.0801 57.19 29.0801C58.49 29.0801 59.75 29.6901 60.72 30.7001C65.29 35.4901 68.1 38.9801 72.63 41.4601C73.49 41.9301 73.85 42.5801 73.85 43.2201C73.85 44.2301 72.95 45.2001 71.8 45.2001L71.81 45.2201ZM60.4 58.1101C59.5 58.1101 58.67 57.5001 58.67 56.5301C58.67 56.2401 58.74 55.9501 58.89 55.6301C59.54 54.1901 60.33 52.2501 60.91 50.2301C60.98 49.9801 61.02 49.7601 61.02 49.5101C61.02 48.5001 60.34 47.7101 58.9 47.6401C58.22 47.6001 57.53 47.6001 56.88 47.6001C55.08 47.6001 53.39 47.6701 51.59 47.6701H50.8C49.61 47.6701 49.04 46.8401 49.04 46.0501C49.04 45.2601 49.62 44.4301 50.73 44.4301H50.8C52.06 44.4701 53.18 44.4701 54.26 44.4701H56.85C57.64 44.4701 58.43 44.4701 59.26 44.5101C62.32 44.6201 64.62 45.9901 64.62 48.8701C64.62 49.3701 64.55 49.9501 64.4 50.5601C63.86 52.6801 63.14 54.9901 62.35 56.7501C61.92 57.6901 61.16 58.1201 60.41 58.1201L60.4 58.1101ZM61.48 38.3101C62.56 38.3101 63.1 39.1001 63.1 39.9301C63.1 40.7601 62.56 41.5101 61.48 41.5101H61.37C60.07 41.4701 58.89 41.4401 57.7 41.4401C56.3 41.4401 54.89 41.4801 53.45 41.5101H53.38C52.26 41.5101 51.72 40.7201 51.72 39.9301C51.72 39.1401 52.3 38.3101 53.38 38.3101H53.45C54.71 38.3801 55.97 38.3801 57.3 38.3801C58.63 38.3801 59.93 38.3801 61.37 38.3101H61.48Z" fill="white"/>
<path d="M97.5099 50.3009L97.2899 50.4409C96.6099 50.9109 95.8099 51.1209 95.0199 51.1209C92.9699 51.1209 90.9499 49.6809 90.8799 46.9809V46.8709C90.8799 44.8509 92.5699 42.9109 95.0899 42.9109H95.2699C96.1299 42.9809 96.6699 43.0909 97.0699 43.3109C97.0699 42.2709 97.0299 41.0809 96.9999 39.6009C92.6799 39.9609 88.3599 40.6409 84.1099 41.5109C83.9299 41.5509 83.7499 41.5509 83.6099 41.5509C82.5299 41.5509 81.8799 40.7909 81.8799 39.9709C81.8799 39.2109 82.4599 38.4209 83.7199 38.2409C86.1699 37.8809 91.5999 37.1609 96.8899 36.6209C96.8499 35.6809 96.7799 34.8209 96.7499 34.1709C96.6799 33.3809 96.6399 32.9509 96.5299 32.5509C96.4599 32.3309 96.4599 32.1209 96.4599 31.9409C96.4599 30.8609 97.3199 30.2109 98.2199 30.2109C99.1199 30.2109 99.9099 30.7509 100.09 31.9709C100.16 32.3309 100.16 32.7309 100.16 33.1209C100.16 33.4409 100.16 33.8009 100.12 34.2409L100.01 36.3309C102.71 36.0809 105.19 35.9309 106.99 35.9309C107.75 35.9309 108.36 35.9709 108.83 36.0009C109.84 36.1109 110.45 36.9409 110.45 37.7309C110.45 38.5209 109.84 39.2809 108.43 39.2809H108.21C107.13 39.2409 106.05 39.2409 105.01 39.2409C103.32 39.2409 101.66 39.2809 99.9699 39.3809C99.9699 41.7209 100.04 43.9209 100.04 44.7109V45.2109C100.72 46.1809 100.98 47.3309 100.98 48.4909C100.98 49.9709 100.55 51.4409 99.9399 52.3409C98.1399 55.0009 94.5799 57.6009 89.8999 58.2409C89.7899 58.2409 89.6499 58.2809 89.5399 58.2809C88.5299 58.2809 87.9899 57.6009 87.9899 56.8809C87.9899 56.2309 88.4599 55.5809 89.4699 55.4409C93.9299 54.7609 96.0599 52.5209 97.2799 50.6909L97.4999 50.2909L97.5099 50.3009ZM95.2099 45.4709C94.1999 45.4709 93.6999 46.0809 93.6999 46.8709V47.0109C93.7699 47.7709 94.4199 48.2709 95.1399 48.2709C95.3599 48.2709 95.6099 48.2309 95.8199 48.1309C96.6799 47.7709 96.8999 47.1609 97.0099 46.3309C96.5399 45.7909 95.9299 45.4709 95.2099 45.4709Z" fill="white"/>
<path d="M125.09 40.2903C124.44 41.0503 124.08 41.8003 124.08 42.5903C124.08 43.3103 124.37 44.0703 125.05 44.8603C127.39 47.6003 129.8 51.3403 130.67 54.7603C130.74 55.0503 130.78 55.3403 130.78 55.6203C130.78 56.9903 129.84 57.8203 128.87 57.8203C128.04 57.8203 127.18 57.2103 126.89 55.7703C126.31 52.7503 124.23 49.1803 122.39 46.8403C121.24 45.3603 120.73 44.0303 120.73 42.7703C120.73 41.3703 121.34 40.0003 122.49 38.4903C123.68 36.9803 124.87 35.4303 125.59 34.3503C126.2 33.4903 126.56 32.9103 126.99 31.9703C127.39 31.1803 128.07 30.8203 128.75 30.8203C129.72 30.8203 130.69 31.5003 130.69 32.5803C130.69 32.9403 130.58 33.3003 130.33 33.7303C129.93 34.3403 129.75 34.5903 128.96 35.6003L125.07 40.2803L125.09 40.2903ZM132.43 40.7903C132 40.7903 131.57 40.5703 131.31 40.0303C131.24 39.8503 131.17 39.4903 131.06 39.2703C130.7 38.5103 130.3 37.9703 129.87 37.6103C129.55 37.3603 129.44 37.0303 129.44 36.7503C129.44 36.1703 129.94 35.6303 130.63 35.6303C130.95 35.6303 131.28 35.7703 131.64 36.0603C132.4 36.7403 133.3 38.0803 133.66 38.9003C133.73 39.1203 133.77 39.3003 133.77 39.4803C133.77 40.2403 133.12 40.7803 132.44 40.7803L132.43 40.7903ZM134.92 38.7403C134.85 38.6003 134.74 38.2403 134.63 38.0203C134.23 37.2603 133.84 36.7603 133.41 36.4003C133.09 36.1503 132.94 35.8603 132.94 35.5403C132.94 35.0003 133.44 34.5003 134.13 34.5003C134.42 34.5003 134.74 34.6103 135.1 34.8603C135.89 35.4703 136.86 36.7303 137.19 37.6003C137.26 37.8203 137.3 38.0003 137.3 38.1803C137.3 38.9703 136.65 39.5103 136 39.5103C135.6 39.5103 135.17 39.2903 134.92 38.7503V38.7403Z" fill="white"/>
<path d="M175.38 47.2002H175.42C176.46 47.2002 177 47.9202 177 48.6802C177 49.4402 176.46 50.1602 175.38 50.1202C170.84 50.0502 166.38 50.0102 161.85 50.0102C157.32 50.0102 152.78 50.0502 148.14 50.1202H148.1C146.98 50.1202 146.44 49.4402 146.44 48.7202C146.44 47.9602 147.05 47.1702 148.13 47.2102L153.39 47.3202C153.43 46.0602 153.43 44.6602 153.43 43.2502C152.6 43.2502 151.77 43.2902 150.91 43.2902H150.87C149.72 43.2902 149.18 42.5702 149.18 41.8502C149.18 41.0902 149.79 40.3002 150.91 40.3402L153.43 40.4102V36.8802C152.67 37.6002 151.92 38.2502 151.27 38.7502C150.87 39.0402 150.48 39.1502 150.12 39.1502C149.22 39.1502 148.43 38.4302 148.43 37.6002C148.43 37.1302 148.68 36.6302 149.33 36.2002C151.92 34.5102 153.97 32.1002 155.56 29.3202C155.88 28.7402 156.42 28.4902 156.93 28.4902C157.83 28.4902 158.69 29.1702 158.69 30.0702C158.69 30.3602 158.62 30.6502 158.4 30.9702C157.93 31.6502 157.36 32.4102 156.71 33.2002C158.19 33.2402 159.7 33.2402 161.25 33.2402C164.35 33.2402 167.69 33.2002 171.8 33.1002H171.84C172.96 33.1002 173.5 33.8202 173.5 34.5802C173.5 35.3402 172.92 36.0602 171.81 36.0202C171.16 36.0202 170.59 36.0202 169.97 35.9802C169.97 37.2402 169.93 38.7902 169.93 40.4102L172.7 40.3402H172.74C173.86 40.3402 174.4 41.0602 174.4 41.8202C174.4 42.5802 173.82 43.3302 172.71 43.3002C171.77 43.3002 170.84 43.2602 169.94 43.2602C169.94 44.6602 169.98 46.0702 169.98 47.3302L175.42 47.2202L175.38 47.2002ZM149.9 58.1802C148.86 58.1802 148.1 57.3902 148.1 56.5602C148.1 56.0202 148.46 55.4102 149.32 55.0102C150.65 54.4002 151.77 53.5002 152.42 51.9902C152.67 51.3402 153.25 51.0902 153.82 51.0902C154.68 51.0902 155.58 51.7402 155.58 52.6702C155.58 52.8502 155.54 53.0702 155.47 53.2802C154.75 55.1902 152.59 57.3102 150.79 58.0002C150.47 58.1102 150.18 58.1802 149.89 58.1802H149.9ZM156.09 35.9002C156.09 37.2002 156.05 38.7802 156.05 40.4002C156.73 40.4002 157.42 40.4402 158.07 40.4402C158.07 38.8202 158.07 37.2402 158.03 35.9002H156.09ZM158.03 47.3502C158.07 46.0502 158.07 44.6502 158.07 43.1702C157.42 43.1702 156.74 43.2102 156.05 43.2102C156.05 44.6502 156.09 46.0502 156.09 47.3502H158.03ZM159.07 57.8202C158.31 57.8202 157.63 57.3502 157.63 56.3402V56.2002C157.67 55.9102 157.67 55.6202 157.67 55.3702C157.67 54.2502 157.49 53.5302 157.17 52.6002C157.13 52.4602 157.1 52.3502 157.1 52.2002C157.1 51.4802 157.86 51.0502 158.61 51.0502C159.26 51.0502 159.91 51.3402 160.16 51.9902C160.63 53.1102 160.88 54.1902 160.88 55.5502V56.0902C160.84 57.2102 159.94 57.8202 159.08 57.8202H159.07ZM162.64 40.4302C162.64 38.8102 162.64 37.2302 162.6 35.8902H160.69C160.69 37.1502 160.65 38.7702 160.65 40.4302H162.63H162.64ZM162.6 47.3502C162.64 46.0502 162.64 44.6502 162.64 43.1702H160.66C160.66 44.6102 160.7 46.0502 160.7 47.3502H162.61H162.6ZM164.22 56.6002C163.86 54.8402 163.36 53.9702 162.67 52.9302C162.53 52.7102 162.45 52.5002 162.45 52.2802C162.45 51.6302 163.17 51.1302 163.96 51.1302C164.46 51.1302 165.04 51.3102 165.47 51.8102C166.19 52.6402 166.98 54.0102 167.38 55.7002C167.42 55.8802 167.42 56.0202 167.42 56.1702C167.42 57.2502 166.56 57.9002 165.69 57.9002C165.04 57.9002 164.39 57.5002 164.21 56.6002H164.22ZM167.25 35.9302C166.57 35.9302 165.92 35.8902 165.27 35.8902C165.27 37.1902 165.23 38.8102 165.23 40.4302C165.91 40.4302 166.6 40.3902 167.28 40.3902C167.28 38.8102 167.28 37.2602 167.24 35.9302H167.25ZM167.25 47.3502C167.29 46.0502 167.29 44.6502 167.29 43.2102C166.61 43.2102 165.92 43.1702 165.24 43.1702C165.24 44.6102 165.28 46.0502 165.28 47.3502H167.26H167.25ZM171.96 56.8802C171.06 55.3702 169.84 54.1402 168.54 53.2402C168.18 52.9902 168 52.6302 168 52.3002C168 51.6202 168.68 50.9702 169.62 50.9702C169.98 50.9702 170.34 51.0402 170.74 51.2602C172.11 51.9802 173.91 53.4902 174.77 54.8202C175.02 55.1802 175.09 55.5402 175.09 55.9002C175.09 56.9102 174.19 57.7002 173.29 57.7002C172.79 57.7002 172.28 57.4502 171.96 56.8702V56.8802Z" fill="white"/>
<path d="M194.54 41.4807V43.1407C194.76 43.0007 195.01 42.9207 195.26 42.9207C195.4 42.9207 195.58 42.9607 195.73 42.9907C196.81 43.4207 198.36 44.7507 198.86 45.5507C199.04 45.8407 199.11 46.1307 199.11 46.3807C199.11 47.2407 198.35 47.9607 197.6 47.9607C197.2 47.9607 196.81 47.7407 196.52 47.2807C195.94 46.3807 195.22 45.6607 194.54 45.1607C194.58 48.2907 194.65 51.8207 194.79 56.5307V56.6007C194.79 57.6107 193.96 58.1507 193.1 58.1507C192.24 58.1507 191.44 57.6107 191.44 56.6007V56.5307C191.55 52.5707 191.62 49.3707 191.66 46.5207C190.33 48.5407 188.89 50.1207 187.27 51.3807C186.84 51.7007 186.37 51.8507 185.97 51.8507C185.11 51.8507 184.42 51.1707 184.42 50.3707C184.42 49.9007 184.67 49.4007 185.28 48.9707C187.33 47.6007 189.13 45.6607 190.93 43.2807C191.36 42.6707 191.61 42.0207 191.69 41.4807C190.47 41.4807 189.21 41.5507 187.91 41.5907H187.8C186.68 41.5907 186.18 40.9107 186.18 40.1907C186.18 39.4307 186.76 38.6807 187.84 38.6807H187.91C189.28 38.7507 190.5 38.7907 191.69 38.7907C191.65 36.1307 191.58 33.3207 191.47 29.9407V29.8707C191.47 28.9007 192.3 28.3907 193.13 28.3907C193.96 28.3907 194.79 28.8907 194.79 29.8707V29.9407C194.72 32.0607 194.65 33.9007 194.61 35.6307C195.11 34.9507 195.91 33.6907 196.34 32.8207C196.59 32.3207 197.06 32.1007 197.49 32.1007C198.25 32.1007 199 32.6807 199 33.4707C199 33.7207 198.93 33.9707 198.78 34.2607C198.24 35.1207 197.23 36.4607 196.44 37.2507C196.15 37.5707 195.79 37.7207 195.43 37.7207C195.11 37.7207 194.78 37.6107 194.57 37.4007C194.57 37.8707 194.53 38.3407 194.53 38.8007L197.59 38.6907H197.66C198.74 38.6907 199.24 39.4107 199.24 40.1307C199.24 40.8507 198.7 41.6107 197.69 41.6107H197.58L194.52 41.5007L194.54 41.4807ZM188.88 36.6207C188.52 35.7607 187.58 34.7107 187.22 34.3907C186.9 34.1007 186.79 33.7807 186.79 33.4907C186.79 32.8107 187.51 32.1907 188.3 32.1907C188.55 32.1907 188.8 32.2307 189.02 32.3707C189.78 32.8007 191.04 34.3507 191.4 35.1807C191.54 35.4707 191.58 35.7207 191.58 35.9707C191.58 36.8707 190.82 37.5207 190.1 37.5207C189.63 37.5207 189.13 37.2307 188.88 36.6207ZM198.85 51.8407C198.56 51.9507 198.27 51.9807 198.02 51.9807C196.94 51.9807 196.29 51.1907 196.29 50.3607C196.29 49.7107 196.72 49.0607 197.66 48.8507C200.86 48.0907 204.21 47.1207 207.45 46.1107V43.1607C207.45 38.5907 207.38 34.1307 207.31 29.8807V29.8407C207.31 28.7607 208.17 28.2207 209 28.2207C209.9 28.2207 210.76 28.7607 210.76 29.8007V29.8707C210.65 33.5107 210.62 37.3907 210.62 41.3507V45.0607C211.81 44.6307 213 44.2307 214.15 43.8007C214.4 43.6907 214.65 43.6607 214.87 43.6607C215.88 43.6607 216.49 44.4507 216.49 45.2807C216.49 45.9307 216.09 46.5807 215.16 46.8307C213.72 47.2307 212.21 47.6607 210.66 48.1307C210.7 50.9007 210.73 53.6407 210.8 56.3407V56.3807C210.8 57.5707 209.86 58.1807 208.96 58.1807C208.06 58.1807 207.27 57.6407 207.27 56.4207V56.3507C207.34 53.9707 207.38 51.5307 207.41 49.1107C204.49 50.0107 201.54 50.9507 198.84 51.8507L198.85 51.8407ZM203.64 43.9607C202.45 42.9507 201.34 42.5907 200.4 42.3407C199.72 42.1607 199.43 41.6607 199.43 41.1207C199.43 40.3607 200.04 39.5707 201.09 39.5707C201.23 39.5707 201.38 39.5707 201.52 39.6107C202.78 39.8607 204.51 40.4707 205.52 41.3007C206.02 41.7307 206.2 42.2007 206.2 42.6707C206.2 43.5707 205.48 44.3607 204.65 44.3607C204.33 44.3607 203.97 44.2507 203.64 43.9607ZM203.75 37.1207C203.03 36.2607 201.88 35.5707 200.98 35.2107C200.33 34.9207 200.04 34.4507 200.04 33.9907C200.04 33.2707 200.65 32.5907 201.62 32.5907C201.84 32.5907 202.09 32.6307 202.34 32.7007C203.38 32.9907 205.18 33.9207 206.05 34.8607C206.41 35.2607 206.55 35.6507 206.55 36.0507C206.55 36.9507 205.76 37.7407 204.93 37.7407C204.53 37.7407 204.1 37.5607 203.74 37.1307L203.75 37.1207Z" fill="white"/>
<path d="M227.19 41.59H226.94C225.75 41.59 224.96 40.69 224.96 39.79C224.96 38.96 225.61 38.13 227.08 37.95C227.76 37.88 228.59 37.66 229.06 37.52C231.11 36.94 233.96 35.83 236.29 34.93C237.23 34.57 238.45 34.07 239.6 33.67C242.44 32.77 243.88 32.41 245.75 32.3H246C247.33 32.3 247.98 33.13 247.98 33.96C247.98 34.9 247.22 35.87 245.75 35.87H245.21C243.3 35.87 239.81 36.37 238.51 37.85C237.61 38.86 237.18 40.33 237.18 41.95C237.18 45.98 239.7 51.09 243.41 53.43C244.49 54.08 244.92 54.94 244.92 55.66C244.92 56.6 244.2 57.39 243.08 57.39C242.4 57.39 241.57 57.1 240.7 56.38C236.92 53.28 234.18 47.31 234.18 42.49C234.18 41.23 234.36 40.04 234.76 39C234.83 38.82 234.87 38.68 234.87 38.6C234.87 38.6 234.857 38.5867 234.83 38.56C234.83 38.56 234.72 38.6 234.61 38.63C233.13 39.24 231.23 40.32 229.46 40.93C228.6 41.18 227.91 41.47 227.16 41.58L227.19 41.59ZM249 32.16C248.53 32.16 248.1 31.94 247.88 31.37C247.81 31.19 247.74 30.83 247.63 30.61C247.27 29.82 246.91 29.28 246.48 28.92C246.19 28.67 246.05 28.38 246.05 28.09C246.05 27.51 246.59 26.97 247.24 26.97C247.56 26.97 247.89 27.11 248.25 27.4C249.04 28.12 249.91 29.45 250.23 30.28C250.3 30.5 250.34 30.68 250.34 30.86C250.34 31.62 249.66 32.16 249.01 32.16H249ZM251.66 30.32C251.59 30.14 251.52 29.78 251.41 29.6C251.05 28.81 250.65 28.3 250.22 27.94C249.9 27.69 249.75 27.36 249.75 27.08C249.75 26.54 250.25 26 250.94 26C251.23 26 251.59 26.11 251.91 26.4C252.74 27.05 253.67 28.31 253.96 29.17C254.03 29.35 254.07 29.53 254.07 29.71C254.07 30.5 253.42 31.08 252.74 31.08C252.34 31.08 251.91 30.86 251.66 30.32Z" fill="white"/>
<path d="M275.32 53.5397C274.42 53.5397 273.59 53.4997 272.58 53.4297C273.19 53.6497 273.62 54.2597 273.62 54.8697C273.62 55.3397 273.37 55.8097 272.79 56.1297C270.23 57.5297 266.89 58.3997 264.08 58.6097H263.9C262.75 58.6097 262.17 57.8497 262.17 57.0997C262.17 56.3497 262.67 55.6997 263.75 55.6197C266.38 55.3997 268.97 54.7897 271.24 53.5297C271.38 53.4597 271.53 53.3897 271.71 53.3497C269.12 53.0597 267.71 51.9797 267.57 49.8897C267.5 49.0997 267.46 48.3097 267.46 47.5097C267.46 46.6097 267.5 45.7497 267.57 44.8497C267.64 43.4797 268.51 42.4397 269.87 41.8597C269.01 41.7897 268.54 41.2097 268.54 40.5997C268.54 40.3797 268.61 40.1697 268.72 39.9497C266.99 40.8097 265.48 41.4297 263.75 41.9697C263.5 42.0397 263.25 42.0797 263.03 42.0797C261.99 42.0797 261.41 41.2897 261.41 40.4597C261.41 39.8097 261.77 39.1597 262.6 38.9497C264.83 38.3397 266.78 37.6497 268.76 36.7197C268.98 36.6097 269.23 36.5797 269.41 36.5797C270.2 36.5797 270.78 37.2597 270.78 37.9797C270.78 38.4497 270.56 38.8797 270.1 39.2397C274.71 38.7697 276.58 37.0797 276.58 34.7797V34.7097C276.54 33.8497 277.37 33.4497 278.2 33.4497C279.03 33.4497 279.78 33.8497 279.78 34.5997C279.78 34.7797 279.74 34.9597 279.74 35.1397C280.24 37.6597 282.62 39.9297 289.14 40.4297C290.08 40.4997 290.58 41.2197 290.58 41.9397C290.58 42.7297 289.97 43.5597 288.71 43.5597H288.46C283.28 43.0897 280 40.8597 278.31 38.2297C277.23 39.4897 275.47 40.6097 273.13 41.2897C273.74 41.2497 274.28 41.2497 274.79 41.2497C275.73 41.2497 276.7 41.2897 278.39 41.3597C281.27 41.4697 282.96 42.7997 283.11 44.7397C283.18 45.6397 283.22 46.4697 283.22 47.3297C283.22 48.1897 283.18 49.0597 283.11 49.9597C282.93 51.8697 281.49 52.9797 279.04 53.3097C279.26 53.3497 279.44 53.4197 279.65 53.4897C281.02 54.1397 284.15 54.9697 286.6 55.0397C287.64 55.0797 288.18 55.8297 288.18 56.5497C288.18 57.3797 287.57 58.2097 286.38 58.2097H286.24C283.14 57.9597 279.98 56.9897 278.14 56.0497C277.56 55.7597 277.35 55.2897 277.35 54.8597C277.35 54.2097 277.82 53.5597 278.47 53.3797C277.17 53.4897 276.2 53.5197 275.34 53.5197L275.32 53.5397ZM267.51 34.3097C266.36 33.4497 264.81 32.8697 263.66 32.6497C262.87 32.4697 262.51 31.9297 262.51 31.3897C262.51 30.5997 263.16 29.8097 264.24 29.8097H264.31C265.43 29.8797 268.2 30.7797 269.24 31.4997C269.82 31.8997 270.07 32.3997 270.07 32.8997C270.07 33.7997 269.31 34.6597 268.45 34.6597C268.16 34.6597 267.84 34.5497 267.51 34.2997V34.3097ZM272.98 36.5797C272.55 36.9397 272.08 37.0797 271.68 37.0797C270.82 37.0797 270.13 36.4297 270.13 35.7097C270.13 35.3097 270.31 34.8797 270.78 34.5197C272.69 33.0097 273.88 30.9897 274.96 28.6897C275.21 28.1497 275.68 27.9297 276.18 27.9297C277.01 27.9297 277.91 28.5397 277.91 29.3297C277.91 29.5497 277.84 29.7597 277.73 29.9797C277.62 30.1997 277.48 30.4097 277.37 30.6597C278.38 30.6197 279.67 30.5897 281.01 30.5897C281.84 30.5897 282.7 30.5897 283.49 30.6297C285.72 30.7397 286.91 32.1097 286.91 33.6197C286.91 34.2997 286.66 35.0197 286.12 35.6397C285.54 36.3197 284.82 37.0097 284.14 37.5097C283.74 37.7997 283.38 37.9097 283.02 37.9097C282.23 37.9097 281.58 37.2997 281.58 36.6097C281.58 36.2497 281.72 35.8897 282.12 35.5997C282.66 35.1697 282.95 34.8797 283.24 34.4797C283.42 34.2597 283.49 34.0097 283.49 33.8297C283.49 33.3997 283.17 33.1097 282.59 33.0697C281.69 32.9997 280.65 32.9997 279.53 32.9997C278.67 32.9997 277.73 32.9997 276.9 33.0397C276.07 33.0797 275.71 33.4397 275.46 33.7197C274.7 34.7997 273.84 35.8097 272.98 36.5597V36.5797ZM280.14 46.6997C277.98 46.6597 276.5 46.6597 275.06 46.6597C273.62 46.6597 272.29 46.6597 270.45 46.6997V47.9997C272.32 48.0397 273.65 48.0397 275.09 48.0397C276.53 48.0397 277.97 48.0397 280.13 47.9997V46.6997H280.14ZM275.07 49.7897C273.67 49.7897 272.33 49.7897 270.57 49.8297C270.68 50.6197 271.33 51.1597 272.51 51.3097C273.3 51.3797 274.2 51.4197 275.14 51.4197C276.18 51.4197 277.26 51.3797 278.16 51.3097C279.46 51.1997 279.85 50.6297 280 49.8297C277.91 49.7897 276.47 49.7897 275.07 49.7897ZM278.09 43.4197C277.44 43.3497 276.54 43.3097 275.68 43.3097C274.53 43.3097 273.34 43.3797 272.48 43.4497C271.26 43.5597 270.75 44.1297 270.61 44.8497C272.41 44.8897 273.71 44.8897 275.11 44.8897C276.51 44.8897 277.92 44.8897 280.01 44.8497C279.87 44.0897 279.4 43.5897 278.1 43.4097L278.09 43.4197Z" fill="white"/>
<path d="M308.3 41.4807V43.1407C308.52 43.0007 308.77 42.9207 309.02 42.9207C309.16 42.9207 309.34 42.9607 309.49 42.9907C310.57 43.4207 312.12 44.7507 312.62 45.5507C312.8 45.8407 312.87 46.1307 312.87 46.3807C312.87 47.2407 312.11 47.9607 311.36 47.9607C310.96 47.9607 310.57 47.7407 310.28 47.2807C309.7 46.3807 308.98 45.6607 308.3 45.1607C308.34 48.2907 308.41 51.8207 308.55 56.5307V56.6007C308.55 57.6107 307.72 58.1507 306.86 58.1507C306 58.1507 305.2 57.6107 305.2 56.6007V56.5307C305.31 52.5707 305.38 49.3707 305.42 46.5207C304.09 48.5407 302.65 50.1207 301.03 51.3807C300.6 51.7007 300.13 51.8507 299.73 51.8507C298.87 51.8507 298.18 51.1707 298.18 50.3707C298.18 49.9007 298.43 49.4007 299.04 48.9707C301.09 47.6007 302.89 45.6607 304.69 43.2807C305.12 42.6707 305.37 42.0207 305.45 41.4807C304.23 41.4807 302.97 41.5507 301.67 41.5907H301.56C300.44 41.5907 299.94 40.9107 299.94 40.1907C299.94 39.4307 300.52 38.6807 301.6 38.6807H301.67C303.04 38.7507 304.26 38.7907 305.45 38.7907C305.41 36.1307 305.34 33.3207 305.23 29.9407V29.8707C305.23 28.9007 306.06 28.3907 306.89 28.3907C307.72 28.3907 308.55 28.8907 308.55 29.8707V29.9407C308.48 32.0607 308.41 33.9007 308.37 35.6307C308.87 34.9507 309.67 33.6907 310.1 32.8207C310.35 32.3207 310.82 32.1007 311.25 32.1007C312.01 32.1007 312.76 32.6807 312.76 33.4707C312.76 33.7207 312.69 33.9707 312.54 34.2607C312 35.1207 310.99 36.4607 310.2 37.2507C309.91 37.5707 309.55 37.7207 309.19 37.7207C308.87 37.7207 308.54 37.6107 308.33 37.4007C308.33 37.8707 308.29 38.3407 308.29 38.8007L311.35 38.6907H311.42C312.5 38.6907 313 39.4107 313 40.1307C313 40.8507 312.46 41.6107 311.45 41.6107H311.34L308.28 41.5007L308.3 41.4807ZM302.64 36.6207C302.28 35.7607 301.34 34.7107 300.98 34.3907C300.66 34.1007 300.55 33.7807 300.55 33.4907C300.55 32.8107 301.27 32.1907 302.06 32.1907C302.31 32.1907 302.56 32.2307 302.78 32.3707C303.54 32.8007 304.8 34.3507 305.16 35.1807C305.3 35.4707 305.34 35.7207 305.34 35.9707C305.34 36.8707 304.58 37.5207 303.86 37.5207C303.39 37.5207 302.89 37.2307 302.64 36.6207ZM312.61 51.8407C312.32 51.9507 312.03 51.9807 311.78 51.9807C310.7 51.9807 310.05 51.1907 310.05 50.3607C310.05 49.7107 310.48 49.0607 311.42 48.8507C314.62 48.0907 317.97 47.1207 321.21 46.1107V43.1607C321.21 38.5907 321.14 34.1307 321.07 29.8807V29.8407C321.07 28.7607 321.93 28.2207 322.76 28.2207C323.66 28.2207 324.52 28.7607 324.52 29.8007V29.8707C324.41 33.5107 324.38 37.3907 324.38 41.3507V45.0607C325.57 44.6307 326.76 44.2307 327.91 43.8007C328.16 43.6907 328.41 43.6607 328.63 43.6607C329.64 43.6607 330.25 44.4507 330.25 45.2807C330.25 45.9307 329.85 46.5807 328.92 46.8307C327.48 47.2307 325.97 47.6607 324.42 48.1307C324.46 50.9007 324.49 53.6407 324.56 56.3407V56.3807C324.56 57.5707 323.62 58.1807 322.72 58.1807C321.82 58.1807 321.03 57.6407 321.03 56.4207V56.3507C321.1 53.9707 321.14 51.5307 321.17 49.1107C318.25 50.0107 315.3 50.9507 312.6 51.8507L312.61 51.8407ZM317.4 43.9607C316.21 42.9507 315.1 42.5907 314.16 42.3407C313.48 42.1607 313.19 41.6607 313.19 41.1207C313.19 40.3607 313.8 39.5707 314.85 39.5707C314.99 39.5707 315.14 39.5707 315.28 39.6107C316.54 39.8607 318.27 40.4707 319.28 41.3007C319.78 41.7307 319.96 42.2007 319.96 42.6707C319.96 43.5707 319.24 44.3607 318.41 44.3607C318.09 44.3607 317.73 44.2507 317.4 43.9607ZM317.51 37.1207C316.79 36.2607 315.64 35.5707 314.74 35.2107C314.09 34.9207 313.8 34.4507 313.8 33.9907C313.8 33.2707 314.41 32.5907 315.38 32.5907C315.6 32.5907 315.85 32.6307 316.1 32.7007C317.14 32.9907 318.94 33.9207 319.81 34.8607C320.17 35.2607 320.31 35.6507 320.31 36.0507C320.31 36.9507 319.52 37.7407 318.69 37.7407C318.29 37.7407 317.86 37.5607 317.5 37.1307L317.51 37.1207Z" fill="white"/>
<path d="M339.26 36.8305C338.22 36.8305 337.71 36.1505 337.71 35.4305C337.71 34.6405 338.29 33.8505 339.29 33.8505H339.33C340.95 33.9205 342.46 33.9605 343.97 33.9605C345.88 33.9605 347.75 33.8905 349.73 33.8205H349.8C350.77 33.8205 351.24 34.5805 351.24 35.3305C351.24 36.0805 350.77 36.8405 349.8 36.8405H349.73C348.11 36.7705 346.53 36.7305 344.94 36.7305C343.14 36.7305 341.3 36.7705 339.32 36.8405H339.25L339.26 36.8305ZM349.59 52.3805C349.59 52.8105 349.55 53.2105 349.55 53.7105C349.41 55.8305 348.15 57.2705 345.59 57.4505C345.05 57.4905 344.73 57.5205 344.4 57.5205C344.07 57.5205 343.75 57.4805 343.25 57.4505C341.16 57.3105 339.69 55.9405 339.58 53.7805C339.54 53.1005 339.51 52.7005 339.51 52.2705C339.51 51.9805 339.55 51.6905 339.55 51.2605C339.69 48.9605 341.28 47.6605 343.37 47.5205C343.84 47.4805 344.13 47.4805 344.45 47.4805C344.77 47.4805 345.13 47.4805 345.71 47.5205C347.83 47.6605 349.42 48.8505 349.56 51.0505C349.56 51.5905 349.6 51.9905 349.6 52.3805H349.59ZM347.64 29.3505C348.58 29.3505 349.04 30.0705 349.04 30.7905C349.04 31.5105 348.61 32.1905 347.67 32.1905H347.6C346.23 32.1505 345.33 32.1505 344.47 32.1505C343.61 32.1505 342.81 32.1505 341.7 32.1905H341.63C340.66 32.1905 340.19 31.5405 340.19 30.8205C340.19 30.1005 340.69 29.3405 341.67 29.3405H341.71C342.93 29.4105 343.73 29.4105 344.55 29.4105C345.37 29.4105 346.24 29.4105 347.61 29.3405H347.65L347.64 29.3505ZM347.61 41.3305C346.24 41.2905 345.34 41.2905 344.48 41.2905C343.62 41.2905 342.82 41.2905 341.71 41.3305H341.64C340.67 41.3305 340.2 40.6505 340.2 39.9605C340.2 39.2405 340.7 38.4805 341.64 38.4805H341.71C343.08 38.5205 343.91 38.5505 344.81 38.5505C345.57 38.5505 346.39 38.5105 347.62 38.4805H347.69C348.63 38.4805 349.06 39.2005 349.06 39.9205C349.06 40.6405 348.63 41.3205 347.69 41.3205H347.62L347.61 41.3305ZM347.61 45.7605C346.39 45.7205 345.52 45.6905 344.73 45.6905C343.79 45.6905 342.97 45.7305 341.71 45.7605H341.64C340.67 45.7605 340.2 45.0805 340.2 44.3905C340.2 43.6705 340.7 42.9105 341.64 42.9105H341.71C343.08 42.9505 343.91 42.9805 344.81 42.9805C345.57 42.9805 346.39 42.9405 347.62 42.9105H347.69C348.63 42.9105 349.06 43.6305 349.06 44.3505C349.06 45.0705 348.63 45.7505 347.69 45.7505H347.62L347.61 45.7605ZM346.71 53.5005C346.75 53.1405 346.75 52.8205 346.75 52.4905C346.75 52.1605 346.75 51.8405 346.71 51.4505C346.67 50.8405 346.24 50.1205 345.27 50.0505C344.98 50.0105 344.8 49.9805 344.59 49.9805C344.38 49.9805 344.16 50.0205 343.83 50.0505C343.04 50.1205 342.5 50.7005 342.43 51.4905C342.39 51.8905 342.36 52.1705 342.36 52.5005C342.36 52.7905 342.4 53.1105 342.43 53.5105C342.5 54.3705 343.15 54.7705 343.69 54.8805C344.01 54.9505 344.3 54.9505 344.55 54.9505C344.84 54.9505 345.13 54.9505 345.45 54.8805C346.17 54.7405 346.67 54.2305 346.71 53.5105V53.5005ZM360.28 38.8105C362.87 38.7705 365.43 38.7405 367.84 38.6705H367.88C368.78 38.6705 369.25 39.2805 369.25 39.9305C369.25 40.5405 368.78 41.1905 367.88 41.1905H367.84C365.36 41.1205 362.62 41.0805 359.78 41.0805C356.94 41.0805 353.98 41.1205 351.11 41.1905H351.07C350.17 41.1905 349.74 40.5805 349.74 39.9305C349.74 39.2805 350.17 38.6705 351.07 38.6705H351.11C353.16 38.7405 355.29 38.7805 357.41 38.8105V37.3305C356.19 37.3305 354.96 37.3705 353.59 37.4005H353.55C352.72 37.4005 352.33 36.8205 352.33 36.2805C352.33 35.6705 352.76 35.0905 353.55 35.0905H353.59C354.92 35.1305 356.18 35.1605 357.41 35.1605C357.41 34.7605 357.37 34.3305 357.37 33.9005L352.19 33.9705H352.15C351.25 33.9705 350.82 33.3605 350.82 32.7505C350.82 32.1005 351.29 31.4505 352.15 31.4505H352.19C353.74 31.5205 355.5 31.5605 357.34 31.5605C357.3 30.8005 357.3 30.0505 357.3 29.3605V29.2905C357.3 28.2805 358.06 27.8105 358.81 27.8105C359.56 27.8105 360.36 28.3105 360.36 29.2905V29.3605L360.29 31.5605C362.34 31.5605 364.32 31.5605 365.87 31.4905H365.91C366.77 31.4905 367.17 32.1005 367.17 32.7105C367.17 33.3605 366.74 33.9705 365.91 33.9705H365.87C364.11 33.9305 362.2 33.9005 360.29 33.9005V35.1605C361.59 35.1605 362.92 35.1205 364.5 35.0905H364.54C365.37 35.0905 365.8 35.6705 365.8 36.2405C365.8 36.8105 365.37 37.3905 364.54 37.3905H364.5C362.92 37.3505 361.58 37.3205 360.29 37.3205V38.8005L360.28 38.8105ZM365.1 53.0305V53.1405C365.1 55.4805 363.88 58.1805 360.6 58.1805C360.42 58.1805 360.2 58.1405 360.02 58.1405C359.01 58.0705 358.54 57.3505 358.54 56.6605C358.54 55.9405 359.01 55.2605 359.87 55.2605H360.19C361.34 55.2605 362.13 54.5405 362.17 52.7405V52.3105C361.09 52.3105 359.94 52.2705 358.82 52.2705C357.7 52.2705 356.55 52.3105 355.58 52.3105C355.58 53.9305 355.58 55.5105 355.54 56.8805C355.5 57.8205 354.75 58.3205 353.99 58.3205C353.23 58.3205 352.59 57.8505 352.59 56.9205V56.8505C352.7 53.8305 352.77 49.5805 352.81 46.0205C352.85 43.5705 354.65 42.2005 357.17 41.9905C357.57 41.9505 358.25 41.9505 358.9 41.9505C359.51 41.9505 360.16 41.9505 360.52 41.9905C363.54 42.2805 364.91 43.7905 364.95 46.0205C364.95 47.1705 364.99 49.4405 365.02 50.3405L365.09 53.0405L365.1 53.0305ZM362.22 48.5705C360.92 48.5305 359.59 48.5005 358.3 48.5005C357.4 48.5005 356.46 48.5405 355.6 48.5405V50.1205H362.22V48.5705ZM362.15 46.3005C362.11 45.3305 361.43 44.5405 360.24 44.3905C359.84 44.3505 359.34 44.3505 358.8 44.3505C358.3 44.3505 357.76 44.3505 357.43 44.3905C356.39 44.5005 355.67 45.2505 355.63 46.2305V46.3705H362.15V46.3005Z" fill="white"/>
<path d="M382.38 43.0303C381.26 42.7403 380.83 42.1303 380.83 41.4803C380.83 40.6903 381.55 39.9303 382.63 39.9303C382.88 39.9303 383.17 39.9703 383.46 40.0703L386.16 40.9703C388.1 41.6203 389.11 42.9903 389.11 44.7903C389.11 45.3303 389.04 45.8703 388.86 46.4803C387.53 50.7303 381.98 54.6103 378.75 55.2603C378.53 55.3003 378.32 55.3303 378.14 55.3303C376.84 55.3303 376.16 54.4703 376.16 53.6003C376.16 52.8803 376.63 52.1603 377.64 51.9403C381.24 51.1503 384.8 48.3403 385.67 45.7103C385.78 45.4203 385.81 45.1303 385.81 44.8803C385.81 44.3003 385.56 43.8003 384.73 43.5803L382.39 43.0003L382.38 43.0303ZM393.9 51.0503V51.3003C393.9 53.6003 392.93 58.0703 387.35 58.0703H387.21C385.7 58.0303 385.01 57.1703 385.01 56.3403C385.01 55.5103 385.69 54.6103 386.99 54.6103H387.42C389.4 54.6103 390.55 53.2403 390.55 50.6503V50.5403C390.48 47.0503 390.48 42.5503 390.44 38.1903C387.42 38.1903 384.43 38.2603 381.23 38.3303H381.16C379.9 38.3303 379.32 37.5703 379.32 36.7803C379.32 35.9903 379.97 35.1203 381.19 35.1203H381.23C384.43 35.2303 387.42 35.2603 390.41 35.3003C390.41 33.4303 390.34 31.5903 390.3 29.9403V29.8703C390.3 28.8603 391.16 28.3203 392.03 28.3203C392.9 28.3203 393.72 28.8203 393.72 29.9003V29.9403L393.61 35.3003C396.67 35.2603 399.84 35.2303 403.29 35.1203C404.48 35.1203 405.09 35.9103 405.09 36.7003C405.09 37.4903 404.48 38.3203 403.33 38.3203H403.29C399.83 38.2503 396.67 38.1803 393.61 38.1803C393.61 41.1303 393.65 44.1203 393.79 48.0403L393.9 51.0303V51.0503ZM406 55.2303C405.86 55.2303 405.68 55.2303 405.53 55.1903C402.22 54.7203 396.71 51.2303 395.16 46.4403C394.98 45.8303 394.87 45.2503 394.87 44.7503C394.87 42.9903 395.91 41.6503 397.82 40.9703C399.22 40.5003 399.55 40.4703 400.99 39.8503C401.31 39.7103 401.67 39.6303 401.96 39.6303C402.97 39.6303 403.69 40.3903 403.69 41.1403C403.69 41.7503 403.29 42.3603 402.29 42.7203C400.92 43.1903 400.6 43.1203 399.27 43.5503C398.41 43.8403 398.12 44.3103 398.12 44.8803C398.12 45.1303 398.19 45.3803 398.26 45.6403C399.3 48.5903 402.98 51.1803 406.65 51.7903C407.66 51.9703 408.13 52.6503 408.13 53.3703C408.13 54.2703 407.41 55.2103 406.01 55.2103L406 55.2303ZM398.87 34.0603C397.93 33.0203 396.93 32.6203 396.21 32.3703C395.56 32.1503 395.27 31.6903 395.27 31.1803C395.27 30.4603 395.92 29.6703 397 29.6703C397.14 29.6703 397.29 29.6703 397.43 29.7103C398.44 29.9303 400.38 30.7903 401.25 31.7603C401.61 32.1603 401.75 32.5503 401.75 32.9503C401.75 33.8503 400.96 34.6403 400.09 34.6403C399.69 34.6403 399.26 34.4603 398.87 34.0603Z" fill="white"/>
</svg>
