<svg width="449" height="85" viewBox="0 0 449 85" fill="none" xmlns="http://www.w3.org/2000/svg">
<path d="M449 0H0V85H449V0Z" fill="#DF8F00"/>
<path d="M138.33 54.55C134.87 54.55 131.49 53.58 129.76 51.81C129.22 51.27 129 50.69 129 50.19C129 49.25 129.76 48.53 130.69 48.53C131.12 48.53 131.55 48.67 132.02 49C133.96 50.37 136.02 50.91 138.07 50.91C139.83 50.91 141.6 50.51 143.33 49.9C143.58 49.79 143.83 49.76 144.09 49.76C145.1 49.76 145.78 50.55 145.78 51.45C145.78 52.21 145.31 53.03 144.09 53.54C142.36 54.22 140.35 54.55 138.33 54.55ZM141.06 38.93H140.27C138.29 38.93 134.26 38.75 132.28 36.99C131.74 36.52 131.52 35.98 131.52 35.48C131.52 34.58 132.28 33.82 133.21 33.82C133.53 33.82 133.89 33.89 134.22 34.14C135.7 35.15 137.53 35.44 139.44 35.44C140.05 35.44 140.7 35.4 141.35 35.37H141.64C142.9 35.37 143.58 36.16 143.58 37.03C143.58 37.9 142.79 38.9 141.06 38.94V38.93ZM145.99 36.7C145.56 36.7 145.13 36.48 144.87 35.91C144.8 35.77 144.73 35.41 144.62 35.19C144.26 34.43 143.86 33.89 143.43 33.53C143.14 33.28 143 32.99 143 32.67C143 32.09 143.5 31.55 144.19 31.55C144.51 31.55 144.84 31.69 145.2 31.98C145.99 32.66 146.89 34 147.22 34.82C147.29 35.04 147.33 35.22 147.33 35.4C147.33 36.16 146.68 36.7 146 36.7H145.99ZM148.44 34.65C148.37 34.51 148.3 34.15 148.19 33.93C147.79 33.17 147.36 32.67 146.93 32.31C146.61 32.06 146.46 31.77 146.46 31.45C146.46 30.91 146.96 30.41 147.65 30.41C147.94 30.41 148.26 30.52 148.62 30.77C149.45 31.38 150.42 32.64 150.71 33.51C150.78 33.73 150.82 33.91 150.82 34.09C150.82 34.88 150.17 35.42 149.52 35.42C149.12 35.42 148.69 35.2 148.44 34.66V34.65Z" fill="white"/>
<path d="M179.91 34.93C179.84 36.91 179.8 38.85 179.8 40.76H180.05C180.37 40.76 180.77 40.76 181.17 40.22C181.93 39.1 182.68 37.77 183.26 36.4C183.55 35.72 184.09 35.46 184.66 35.46C185.56 35.46 186.5 36.11 186.5 37.01C186.5 37.23 186.46 37.44 186.32 37.69C185.71 38.77 184.99 39.81 184.2 40.71C186.11 40.67 188.16 40.6 190.5 40.49H190.57C191.76 40.49 192.37 41.28 192.37 42.07C192.37 42.86 191.76 43.65 190.57 43.65H190.5C186.54 43.54 183.52 43.47 180.67 43.43C183.59 47.03 187.83 50.23 193.77 52.25C194.81 52.61 195.28 53.33 195.28 54.05C195.28 55.02 194.42 55.96 193.16 55.96C192.84 55.96 192.44 55.92 192.04 55.74C187 53.72 182.93 50.48 179.84 46.71C179.91 49.41 179.98 52.18 180.16 55.35V55.46C180.16 56.58 179.3 57.12 178.43 57.12C177.56 57.12 176.74 56.58 176.74 55.46V55.35C176.88 52.15 176.99 49.3 177.03 46.64C173.86 50.42 169.79 53.73 165.22 55.78C164.75 56 164.32 56.07 163.96 56.07C162.81 56.07 162.05 55.24 162.05 54.34C162.05 53.62 162.52 52.86 163.63 52.43C167.95 50.77 172.45 47.75 176.01 43.43C173.17 43.47 170.14 43.54 166.26 43.65H166.19C165.04 43.65 164.46 42.89 164.46 42.14C164.46 41.31 165.07 40.48 166.19 40.48H166.26C168.67 40.59 170.76 40.66 172.74 40.7C172.67 40.59 172.6 40.48 172.56 40.38C171.95 39.08 171.08 38.26 170.47 37.79C170.11 37.5 169.97 37.18 169.97 36.85C169.97 36.17 170.65 35.52 171.52 35.52C171.81 35.52 172.13 35.59 172.46 35.77C173.32 36.24 174.76 37.46 175.48 38.87C175.62 39.16 175.7 39.41 175.7 39.66C175.7 40.09 175.48 40.45 175.2 40.74H177.11C177.07 38.83 177.04 36.89 176.97 34.91C173.91 34.91 171.03 34.95 168.76 35.02H168.69C167.5 35.02 166.93 34.23 166.93 33.44C166.93 32.65 167.54 31.86 168.69 31.86H168.76C171.1 31.93 173.94 31.97 176.9 31.97L176.76 28.77V28.66C176.76 27.54 177.62 27 178.45 27C179.28 27 180.18 27.54 180.18 28.66V28.77C180.11 29.89 180.07 30.93 180.04 31.97C182.78 31.97 185.48 31.93 187.92 31.86H187.99C189.14 31.86 189.72 32.65 189.72 33.44C189.72 34.23 189.14 35.02 187.99 35.02H187.92L179.93 34.91L179.91 34.93Z" fill="white"/>
<path d="M215.33 43.75C215.58 43.64 215.8 43.61 216.01 43.61C216.77 43.61 217.34 44.19 217.34 44.87C217.34 45.37 217.02 45.91 216.3 46.24C214.07 47.28 210.11 48.9 207.55 49.62C207.3 49.69 207.08 49.73 206.87 49.73C205.86 49.73 205.32 48.97 205.32 48.22C205.32 47.54 205.72 46.85 206.65 46.64C207.62 46.42 208.67 46.14 209.67 45.85C209.92 45.74 210.25 45.56 210.25 44.91C210.29 43.51 210.29 41.06 210.29 38.5C209.46 38.5 208.63 38.54 207.84 38.54H207.77C206.62 38.54 206.04 37.82 206.04 37.1C206.04 36.34 206.65 35.55 207.77 35.55H207.84C208.63 35.59 209.46 35.62 210.29 35.62C210.25 33.42 210.22 31.19 210.22 29.21V29.17C210.22 28.05 211.05 27.51 211.84 27.51C212.63 27.51 213.5 28.09 213.5 29.2C213.46 31.22 213.39 33.45 213.39 35.61C214 35.61 214.65 35.57 215.23 35.54H215.3C216.42 35.54 216.96 36.3 216.96 37.02C216.96 37.78 216.38 38.53 215.3 38.53H215.23C214.62 38.53 213.97 38.49 213.36 38.49V44.07C213.36 44.25 213.32 44.43 213.29 44.61L215.34 43.75H215.33ZM226.06 46.89C223.47 51.14 218.36 54.77 213.71 56.07C213.46 56.14 213.21 56.18 212.99 56.18C211.98 56.18 211.48 55.5 211.48 54.78C211.48 54.17 211.88 53.56 212.67 53.38C216.56 52.55 220.55 50.07 222.89 46.97C222.53 46.97 222.17 47.01 221.85 47.01C221.24 47.05 220.84 47.15 220.45 47.44C218.58 49.1 216.56 50.46 214.69 51.29C214.33 51.43 214.04 51.51 213.75 51.51C212.85 51.51 212.31 50.83 212.31 50.14C212.31 49.6 212.6 49.06 213.28 48.81C216.27 47.66 219 45.79 221.27 42.87L215.8 42.98H215.76C214.75 42.98 214.28 42.26 214.28 41.54C214.28 40.82 214.75 40.1 215.72 40.1H215.79C218.85 40.17 221.84 40.21 224.9 40.21C228.28 40.21 231.74 40.17 235.41 40.07H235.48C236.49 40.07 236.96 40.79 236.96 41.51C236.96 42.23 236.49 42.95 235.48 42.95H235.41C231.49 42.88 227.92 42.84 224.5 42.84C224.07 43.45 223.64 44.06 223.13 44.64C224.28 44.6 225.58 44.6 226.84 44.6C227.78 44.6 228.71 44.6 229.61 44.64C232.42 44.78 234.33 46.44 234.4 49.07V49.29C234.4 54.8 230.87 57.06 227.27 57.06C227.05 57.06 226.84 57.02 226.62 57.02C225.47 56.95 224.93 56.19 224.93 55.47C224.93 54.75 225.47 54.03 226.41 54.03H226.63C226.85 54.07 227.06 54.07 227.24 54.07C229.51 54.07 231.42 52.52 231.42 49.43V49.03C231.35 48.31 230.99 47.7 230.34 47.34C228.29 51.95 224.69 55.4 220.8 56.91C220.48 57.05 220.19 57.09 219.94 57.09C219 57.09 218.46 56.37 218.46 55.69C218.46 55.15 218.75 54.61 219.43 54.36C223.03 53.03 225.66 50.9 227.6 46.91H226.05L226.06 46.89ZM226.78 38.86C226.2 38.93 225.52 38.93 224.8 38.93C224.08 38.93 223.36 38.93 222.75 38.86C220.23 38.61 218.86 37.1 218.65 35.26C218.58 34.72 218.58 33.93 218.58 33.21C218.58 32.6 218.58 32.02 218.62 31.66C218.8 29.54 220.35 27.88 222.83 27.7C223.55 27.66 224.13 27.66 224.74 27.66C225.32 27.66 225.89 27.66 226.58 27.7C229.14 27.88 230.83 29.32 231.01 31.62C231.05 32.3 231.08 32.95 231.08 33.56C231.08 34.1 231.04 34.6 231.01 35.14C230.83 37.12 229.28 38.56 226.8 38.85L226.78 38.86ZM228.18 31.84C228.11 30.72 227.35 30.22 226.34 30.11C225.87 30.07 225.22 30.04 224.61 30.04C224.07 30.04 223.57 30.08 223.13 30.11C222.12 30.22 221.4 30.72 221.33 31.84C221.33 31.95 221.29 32.02 221.29 32.13H228.17V31.84H228.18ZM221.38 35.01C221.49 35.84 222.06 36.45 223.04 36.56C223.58 36.63 224.26 36.67 224.95 36.67C225.53 36.67 226.1 36.63 226.53 36.56C227.5 36.42 228.11 35.95 228.19 34.98C228.19 34.84 228.23 34.66 228.23 34.48C227.08 34.48 225.93 34.44 224.74 34.44C223.55 34.44 222.4 34.48 221.32 34.48L221.39 35.02L221.38 35.01Z" fill="white"/>
<path d="M265.52 49.7301V49.9501C265.52 54.4101 262.1 56.9701 258.18 56.9701H257.86C256.42 56.9301 255.77 56.0701 255.77 55.2101C255.77 54.3501 256.42 53.5901 257.53 53.5901H258.11C259.91 53.5901 262.07 52.6201 262.11 49.0901C262.11 48.2301 262.15 47.4001 262.15 46.5701C262.15 44.8801 262.11 43.2201 262.01 41.5701C258.66 41.6401 255.28 41.7101 253.08 41.7101C252.43 41.7101 251.86 41.6701 251.46 41.6701C250.38 41.6301 249.84 40.9101 249.84 40.1901C249.84 39.4701 250.42 38.7501 251.46 38.7501H251.53C252.11 38.7901 253.01 38.7901 254.05 38.7901C256.43 38.7901 259.7 38.7501 262.9 38.7201C261.64 37.7101 260.13 36.9201 258.62 36.4201C257.94 36.2001 257.65 35.7401 257.65 35.2701C257.65 34.5101 258.33 33.7201 259.34 33.7201C259.48 33.7201 259.63 33.7601 259.81 33.7901C261.32 34.1901 263.01 34.9101 264.42 35.8101L264.74 35.6701C265.89 35.2701 267.26 34.5501 268.16 33.6201C268.41 33.3701 268.52 33.0401 268.52 32.7601C268.52 32.2901 268.2 31.8601 267.33 31.8201C266.72 31.7801 265.96 31.7801 265.17 31.7801C262.22 31.7801 258.37 31.9601 256.06 31.9601H255.63C254.48 31.9601 253.9 31.1701 253.9 30.4501C253.9 29.6901 254.44 28.9701 255.56 28.9701H257.18C259.12 28.9701 261.61 28.9301 264.02 28.9301C265.39 28.9301 266.79 28.9301 268.02 29.0001C270.83 29.1401 272.16 30.7601 272.16 32.5301C272.16 33.5701 271.69 34.6501 270.76 35.5201C269.75 36.4201 268.49 37.3901 266.87 38.0001C267.01 38.2201 267.12 38.4701 267.16 38.6801C269.61 38.6801 271.8 38.6801 272.81 38.7201C275.65 38.8301 276.99 40.5201 276.99 42.3901C276.99 43.4001 276.63 44.4101 275.91 45.3101C274.58 46.9301 272.42 48.4401 270.4 48.8701C270.22 48.9101 270.04 48.9101 269.9 48.9101C268.75 48.9101 268.06 48.0501 268.06 47.2201C268.06 46.5701 268.46 45.9201 269.43 45.7401C270.94 45.4201 272.31 44.6201 273.25 43.4401C273.47 43.1501 273.57 42.8601 273.57 42.5801C273.57 42.0001 273.17 41.5001 272.31 41.4601H271.05C269.75 41.4601 267.74 41.4601 265.47 41.5001C265.43 42.2901 265.43 43.1201 265.43 43.8801C265.43 45.3601 265.47 46.5401 265.47 46.5401L265.54 49.7401L265.52 49.7301Z" fill="white"/>
<path d="M291.15 54.4801C290.29 54.4801 289.53 53.8301 289.53 53.0801C289.53 52.7201 289.71 52.3201 290.07 51.9601C291.29 50.7701 292.34 48.8601 292.7 47.1001C292.84 46.3401 293.42 45.9801 294.03 45.9801C294.82 45.9801 295.65 46.5601 295.65 47.4901C295.65 47.6001 295.65 47.7401 295.61 47.8501C295.29 49.5401 293.7 52.7801 292.33 54.0101C291.97 54.3301 291.54 54.4801 291.14 54.4801H291.15ZM299.5 43.8301V46.1701C299.5 48.4701 299.5 50.9201 299.68 55.2801V55.3901C299.68 56.5101 298.85 57.0501 298.02 57.0501C297.19 57.0501 296.36 56.5101 296.36 55.3601V55.2901C296.54 49.7101 296.61 47.1201 296.65 44.1001C295.14 44.2101 293.66 44.3501 292.76 44.3501H292.69C291.57 44.3501 291.07 43.6701 291.07 42.9801C291.07 42.2601 291.61 41.5801 292.51 41.5801H292.62C292.76 41.5801 292.91 41.6201 293.05 41.6201H293.12C293.62 41.6201 293.98 41.3001 294.24 40.9701L294.74 40.3201C294.85 40.0701 294.88 39.9201 294.88 39.7801C294.88 39.5601 294.81 39.4201 294.7 39.2801L294.16 38.8501C292.97 37.8801 292.47 36.7601 292.47 35.6801C292.47 34.8501 292.76 34.0601 293.19 33.3001C294.16 31.6101 295.03 29.9201 295.57 28.5101C295.86 27.7501 296.47 27.4301 297.08 27.4301C297.87 27.4301 298.66 27.9701 298.66 28.8001C298.66 29.0201 298.59 29.2701 298.48 29.5201C297.65 31.3201 296.86 32.7201 295.82 34.2701C295.57 34.6301 295.46 35.0301 295.46 35.3901C295.46 35.9301 295.71 36.4701 296.29 36.8301C296.47 36.9701 296.65 37.0801 296.79 37.2301C297.98 35.3601 299.09 33.4101 299.74 31.9401C300.03 31.2901 300.53 31.0401 301.07 31.0401C301.9 31.0401 302.73 31.6501 302.73 32.5201C302.73 32.7401 302.66 32.9901 302.55 33.2401C301.51 35.3601 299.02 38.9601 297.04 41.5501C297.98 41.5101 298.84 41.4401 299.52 41.4101C300.13 41.3701 300.49 41.0101 300.49 40.6501V40.5401L300.06 39.9601C299.81 39.6701 299.66 39.3801 299.66 39.1001C299.66 38.4501 300.38 37.9501 301.06 37.9501C301.35 37.9501 301.64 38.0601 301.89 38.2401L302.36 38.7401V38.5601C302.36 38.2001 302.5 37.8801 302.9 37.4401C304.59 35.6401 305.92 32.8001 307.18 28.8401C307.43 28.1201 308.01 27.8001 308.62 27.8001C309.45 27.8001 310.31 28.3801 310.31 29.3101C310.31 29.4901 310.27 29.6701 310.2 29.8901C309.77 31.0801 309.23 32.3701 308.65 33.6001C309.33 33.5301 310.13 33.4901 310.99 33.4901C311.6 33.4901 312.21 33.4901 312.83 33.5301C316.65 33.7501 318.63 35.9401 318.95 38.8601C319.06 39.9801 319.13 41.1601 319.13 42.3201C319.13 49.3001 316.79 56.3601 309.81 56.3601H309.34C308.19 56.3201 307.68 55.5701 307.68 54.8101C307.68 54.0501 308.26 53.2301 309.34 53.2301H309.77C314.56 53.2301 315.96 47.2201 315.96 42.3201C315.96 41.2801 315.89 40.3001 315.78 39.4401C315.56 37.5301 314.52 36.5601 312.32 36.3801C311.74 36.3401 311.17 36.3101 310.59 36.3101C309.87 36.3101 309.15 36.3501 308.43 36.3801C307.57 36.4501 307.06 36.7801 306.85 36.9601C306.27 37.9001 305.7 38.7201 305.19 39.3401C304.79 39.7701 304.33 39.9501 303.86 39.9501C303.61 39.9501 303.36 39.9101 303.14 39.8101C303.79 40.8501 304.29 42.0801 304.47 42.9401C304.51 43.0801 304.51 43.1901 304.51 43.3001C304.51 44.1601 303.97 44.7001 303.32 44.8501C303.21 44.8901 303.1 44.8901 303 44.8901C302.39 44.8901 301.78 44.4901 301.63 43.5901C301.63 43.5501 301.59 43.4801 301.59 43.4501C301.52 43.2701 301.48 43.2001 301.45 43.2001C301.31 43.2001 301.02 43.7401 299.94 43.8101L299.47 43.8801L299.5 43.8301ZM302.42 51.9601C302.17 50.5601 301.34 48.7601 300.55 47.7501C300.37 47.5001 300.26 47.2101 300.26 46.9601C300.26 46.2801 300.94 45.7001 301.74 45.7001C302.14 45.7001 302.53 45.8401 302.89 46.2001C303.97 47.2401 305.16 49.7601 305.45 51.1001C305.49 51.2801 305.52 51.4601 305.52 51.6001C305.52 52.6801 304.69 53.2901 303.86 53.2901C303.21 53.2901 302.6 52.8901 302.42 51.9601ZM309.9 45.8401C309.07 44.6501 307.52 43.6101 306.59 43.1801C305.94 42.8901 305.65 42.3901 305.65 41.8801C305.65 41.1201 306.26 40.4001 307.23 40.4001C307.48 40.4001 307.73 40.4401 308.02 40.5401C309.32 40.9701 311.37 42.1601 312.38 43.4201C312.7 43.8501 312.85 44.2801 312.85 44.6801C312.85 45.6901 311.99 46.5201 311.12 46.5201C310.69 46.5201 310.22 46.3001 309.9 45.8401Z" fill="white"/>
</svg>
