<svg width="105" height="40" viewBox="0 0 105 40" fill="none" xmlns="http://www.w3.org/2000/svg">
<rect width="105" height="40" fill="#DF8F00"/>
<path d="M19.867 18.979H35.15V20.934H19.867V18.979ZM20.666 13.403H34.487V15.358H20.666V13.403ZM26.429 11.55H28.588V27.513H26.429V11.55ZM31.478 15.307L33.62 15.936C33.416 16.3213 33.2063 16.7067 32.991 17.092C32.7757 17.4773 32.566 17.84 32.362 18.18C32.158 18.52 31.9653 18.8203 31.784 19.081L30.016 18.486C30.186 18.2027 30.3617 17.8797 30.543 17.517C30.7357 17.143 30.9113 16.7633 31.07 16.378C31.24 15.9927 31.376 15.6357 31.478 15.307ZM21.805 16.038L23.624 15.341C23.8393 15.647 24.0433 15.9813 24.236 16.344C24.4287 16.6953 24.5987 17.0467 24.746 17.398C24.9047 17.738 25.018 18.0497 25.086 18.333L23.131 19.115C23.0743 18.8317 22.978 18.5143 22.842 18.163C22.7173 17.8117 22.5643 17.449 22.383 17.075C22.2017 16.6897 22.009 16.344 21.805 16.038ZM26.089 19.778L27.738 20.441C27.3413 21.1097 26.8823 21.7613 26.361 22.396C25.851 23.0193 25.29 23.6143 24.678 24.181C24.0773 24.7363 23.454 25.252 22.808 25.728C22.162 26.1927 21.5047 26.5893 20.836 26.918C20.734 26.748 20.598 26.5553 20.428 26.34C20.258 26.1247 20.0823 25.915 19.901 25.711C19.7197 25.507 19.5497 25.3427 19.391 25.218C20.0483 24.9347 20.7 24.6003 21.346 24.215C21.992 23.8183 22.6097 23.382 23.199 22.906C23.7883 22.4187 24.3267 21.9143 24.814 21.393C25.3127 20.8603 25.7377 20.322 26.089 19.778ZM28.996 19.795C29.336 20.339 29.744 20.8773 30.22 21.41C30.7073 21.9427 31.24 22.447 31.818 22.923C32.4073 23.399 33.0193 23.8353 33.654 24.232C34.3 24.6287 34.946 24.963 35.592 25.235C35.4447 25.371 35.2747 25.541 35.082 25.745C34.9007 25.949 34.725 26.1587 34.555 26.374C34.3963 26.5893 34.266 26.782 34.164 26.952C33.4953 26.6233 32.838 26.2267 32.192 25.762C31.5573 25.2973 30.9397 24.7817 30.339 24.215C29.7497 23.6483 29.2 23.0477 28.69 22.413C28.18 21.7783 27.7267 21.1267 27.33 20.458L28.996 19.795ZM41.729 18.418H52.507V20.135H41.729V18.418ZM43.582 20.934H50.569V22.549H43.582V20.934ZM44.228 19.047L45.979 19.489C45.5597 20.4637 44.9873 21.3647 44.262 22.192C43.548 23.008 42.7887 23.6823 41.984 24.215C41.882 24.1017 41.746 23.9657 41.576 23.807C41.4173 23.637 41.2473 23.4783 41.066 23.331C40.896 23.1837 40.743 23.0647 40.607 22.974C41.4003 22.5433 42.1143 21.988 42.749 21.308C43.395 20.6167 43.888 19.863 44.228 19.047ZM50.263 20.934H52.15C52.15 20.934 52.1443 21.0247 52.133 21.206C52.133 21.376 52.1217 21.5233 52.099 21.648C52.031 22.7473 51.946 23.654 51.844 24.368C51.7533 25.0707 51.6513 25.6147 51.538 26C51.4247 26.3967 51.2887 26.68 51.13 26.85C50.9713 27.0427 50.7957 27.1787 50.603 27.258C50.4217 27.3373 50.2177 27.394 49.991 27.428C49.7983 27.4507 49.549 27.4677 49.243 27.479C48.9483 27.4903 48.6253 27.4847 48.274 27.462C48.2627 27.224 48.2173 26.9463 48.138 26.629C48.0587 26.323 47.951 26.068 47.815 25.864C48.087 25.8867 48.3307 25.9037 48.546 25.915C48.7613 25.915 48.9257 25.915 49.039 25.915C49.1523 25.915 49.243 25.9037 49.311 25.881C49.3903 25.8583 49.464 25.8073 49.532 25.728C49.634 25.6147 49.7247 25.3993 49.804 25.082C49.8947 24.7533 49.974 24.2773 50.042 23.654C50.1213 23.0307 50.195 22.2203 50.263 21.223V20.934ZM45.044 15.545V16.361H49.43V15.545H45.044ZM45.044 13.403V14.202H49.43V13.403H45.044ZM43.225 11.992H51.317V17.772H43.225V11.992ZM36.765 15.137H41.95V17.058H36.765V15.137ZM38.482 11.771H40.386V22.345H38.482V11.771ZM36.374 22.685C36.816 22.5263 37.326 22.328 37.904 22.09C38.4933 21.852 39.1167 21.597 39.774 21.325C40.4313 21.0417 41.083 20.7583 41.729 20.475L42.171 22.226C41.321 22.668 40.454 23.11 39.57 23.552C38.686 23.994 37.8757 24.3963 37.139 24.759L36.374 22.685ZM48.308 21.274L49.685 22.022C49.481 22.702 49.192 23.399 48.818 24.113C48.444 24.8157 48.0247 25.473 47.56 26.085C47.0953 26.697 46.608 27.2013 46.098 27.598C45.928 27.4053 45.707 27.2013 45.435 26.986C45.163 26.7707 44.8967 26.595 44.636 26.459C45.1913 26.1077 45.707 25.6543 46.183 25.099C46.659 24.5437 47.0783 23.9317 47.441 23.263C47.815 22.5943 48.104 21.9313 48.308 21.274ZM45.741 21.291L47.067 22.073C46.7837 22.6623 46.4097 23.2573 45.945 23.858C45.4917 24.4587 44.993 25.0197 44.449 25.541C43.905 26.0623 43.361 26.493 42.817 26.833C42.6583 26.629 42.4543 26.4137 42.205 26.187C41.967 25.9603 41.729 25.7733 41.491 25.626C42.0463 25.3427 42.596 24.9687 43.14 24.504C43.6953 24.0393 44.1997 23.5293 44.653 22.974C45.1063 22.4073 45.469 21.8463 45.741 21.291ZM60.548 19.591H62.673V25.303C62.673 25.8357 62.5993 26.2437 62.452 26.527C62.3047 26.8217 62.027 27.0427 61.619 27.19C61.2223 27.3373 60.7463 27.4223 60.191 27.445C59.6357 27.479 58.9897 27.496 58.253 27.496C58.1963 27.2127 58.0943 26.8783 57.947 26.493C57.7997 26.119 57.6523 25.8017 57.505 25.541C57.845 25.5523 58.1963 25.5637 58.559 25.575C58.9217 25.575 59.2447 25.575 59.528 25.575C59.8113 25.575 60.0097 25.575 60.123 25.575C60.293 25.5637 60.4063 25.5353 60.463 25.49C60.5197 25.4447 60.548 25.3597 60.548 25.235V19.591ZM55.448 12.502H65.886V14.389H55.448V12.502ZM65.121 12.502H65.665L66.124 12.4L67.586 13.556C67.0987 14.032 66.5603 14.5193 65.971 15.018C65.393 15.5053 64.7923 15.97 64.169 16.412C63.5457 16.854 62.928 17.245 62.316 17.585C62.2253 17.449 62.1007 17.296 61.942 17.126C61.7947 16.956 61.6417 16.7917 61.483 16.633C61.3357 16.463 61.1997 16.327 61.075 16.225C61.5737 15.953 62.0837 15.6243 62.605 15.239C63.1377 14.8423 63.625 14.44 64.067 14.032C64.509 13.624 64.8603 13.2613 65.121 12.944V12.502ZM53.799 18.044H67.688V19.999H53.799V18.044ZM57.811 16.565L58.848 15.018C59.3013 15.1767 59.8113 15.358 60.378 15.562C60.956 15.766 61.534 15.9757 62.112 16.191C62.69 16.4063 63.2397 16.616 63.761 16.82C64.2823 17.024 64.7243 17.211 65.087 17.381L63.999 19.132C63.659 18.962 63.2397 18.7693 62.741 18.554C62.2423 18.3273 61.704 18.1007 61.126 17.874C60.5593 17.636 59.987 17.4037 59.409 17.177C58.8423 16.9503 58.3097 16.7463 57.811 16.565ZM67.008 18.044H67.382L67.756 17.908L69.422 18.639C69.048 19.4323 68.6173 20.2313 68.13 21.036C67.654 21.8293 67.1723 22.515 66.685 23.093L64.934 22.073C65.1833 21.7557 65.4327 21.393 65.682 20.985C65.9427 20.5657 66.1863 20.135 66.413 19.693C66.651 19.2397 66.8493 18.8033 67.008 18.384V18.044ZM78.381 19.251L80.03 18.435C80.3247 18.8203 80.6193 19.2453 80.914 19.71C81.2087 20.1633 81.475 20.6167 81.713 21.07C81.951 21.512 82.1267 21.9143 82.24 22.277L80.472 23.195C80.37 22.8437 80.2057 22.4413 79.979 21.988C79.7637 21.5233 79.5143 21.053 79.231 20.577C78.959 20.101 78.6757 19.659 78.381 19.251ZM78.959 14.44H85.062V16.378H78.959V14.44ZM84.178 14.44H86.15C86.15 14.44 86.15 14.5023 86.15 14.627C86.15 14.7517 86.15 14.8877 86.15 15.035C86.15 15.1823 86.1443 15.3013 86.133 15.392C86.0763 17.262 86.014 18.8543 85.946 20.169C85.8893 21.4723 85.8157 22.549 85.725 23.399C85.6343 24.249 85.5267 24.9177 85.402 25.405C85.2887 25.8923 85.1413 26.2493 84.96 26.476C84.722 26.8047 84.4727 27.0313 84.212 27.156C83.9627 27.2807 83.6567 27.3713 83.294 27.428C82.988 27.4733 82.5913 27.496 82.104 27.496C81.628 27.496 81.135 27.4903 80.625 27.479C80.6137 27.1843 80.5457 26.8387 80.421 26.442C80.2963 26.0567 80.1377 25.7167 79.945 25.422C80.489 25.4673 80.9877 25.4957 81.441 25.507C81.8943 25.5183 82.2287 25.524 82.444 25.524C82.6253 25.524 82.767 25.5013 82.869 25.456C82.9823 25.4107 83.09 25.337 83.192 25.235C83.328 25.0877 83.447 24.7873 83.549 24.334C83.651 23.8807 83.736 23.246 83.804 22.43C83.8833 21.6027 83.9513 20.5657 84.008 19.319C84.076 18.0723 84.1327 16.582 84.178 14.848V14.44ZM79.061 11.533L81.169 12.009C80.931 12.8477 80.642 13.675 80.302 14.491C79.9733 15.2957 79.6107 16.0493 79.214 16.752C78.8173 17.4547 78.4037 18.0667 77.973 18.588C77.837 18.4633 77.6613 18.3217 77.446 18.163C77.2307 18.0043 77.004 17.8513 76.766 17.704C76.528 17.5567 76.324 17.4377 76.154 17.347C76.596 16.8937 76.9983 16.361 77.361 15.749C77.7237 15.1257 78.0467 14.457 78.33 13.743C78.6247 13.0177 78.8683 12.281 79.061 11.533ZM73.06 11.567L74.862 12.196C74.6353 12.638 74.3973 13.0913 74.148 13.556C73.8987 14.0093 73.655 14.4513 73.417 14.882C73.179 15.3013 72.9467 15.6697 72.72 15.987L71.343 15.426C71.547 15.0747 71.7567 14.678 71.972 14.236C72.1873 13.7827 72.3913 13.3237 72.584 12.859C72.7767 12.3943 72.9353 11.9637 73.06 11.567ZM75.1 13.59L76.834 14.304C76.4147 14.95 75.9613 15.63 75.474 16.344C74.9867 17.0467 74.4937 17.721 73.995 18.367C73.4963 19.013 73.0317 19.5797 72.601 20.067L71.36 19.438C71.6887 19.0527 72.023 18.6163 72.363 18.129C72.703 17.6417 73.0373 17.1373 73.366 16.616C73.706 16.0947 74.0233 15.5733 74.318 15.052C74.624 14.5193 74.8847 14.032 75.1 13.59ZM70.442 15.596L71.411 14.202C71.7057 14.4513 72.0117 14.7347 72.329 15.052C72.6463 15.358 72.9353 15.664 73.196 15.97C73.468 16.276 73.672 16.5593 73.808 16.82L72.771 18.401C72.635 18.1403 72.4367 17.8457 72.176 17.517C71.9267 17.177 71.649 16.8427 71.343 16.514C71.037 16.174 70.7367 15.868 70.442 15.596ZM74.692 17.687L76.137 17.058C76.3637 17.432 76.5847 17.8343 76.8 18.265C77.0153 18.6957 77.2023 19.1207 77.361 19.54C77.5197 19.948 77.6387 20.3163 77.718 20.645L76.154 21.359C76.086 21.0417 75.9783 20.6733 75.831 20.254C75.6837 19.8233 75.508 19.387 75.304 18.945C75.1113 18.4917 74.9073 18.0723 74.692 17.687ZM70.442 19.047C71.224 19.0243 72.1647 18.9903 73.264 18.945C74.3747 18.8997 75.5023 18.8487 76.647 18.792L76.63 20.407C75.5647 20.4863 74.505 20.5657 73.451 20.645C72.397 20.713 71.4507 20.7697 70.612 20.815L70.442 19.047ZM74.981 21.937L76.477 21.444C76.715 21.954 76.936 22.5093 77.14 23.11C77.344 23.7107 77.4913 24.232 77.582 24.674L76.001 25.252C75.9217 24.7987 75.7857 24.266 75.593 23.654C75.4003 23.0307 75.1963 22.4583 74.981 21.937ZM71.173 21.546L72.856 21.852C72.7653 22.668 72.6293 23.4727 72.448 24.266C72.2667 25.0593 72.057 25.728 71.819 26.272C71.7057 26.1927 71.5527 26.102 71.36 26C71.1673 25.9093 70.969 25.8187 70.765 25.728C70.5723 25.6373 70.4023 25.5693 70.255 25.524C70.5043 25.014 70.7027 24.4077 70.85 23.705C70.9973 22.991 71.105 22.2713 71.173 21.546ZM73.145 19.948H74.947V27.53H73.145V19.948Z" fill="white"/>
</svg>
