<svg width="156" height="45" viewBox="0 0 156 45" fill="none" xmlns="http://www.w3.org/2000/svg">
<path d="M156 0H0V45H156V0Z" fill="#DF8F00"/>
<path d="M39.7075 27.8622C38.1562 27.8622 36.6408 27.4332 35.8652 26.6503C35.623 26.4115 35.5244 26.155 35.5244 25.9338C35.5244 25.5181 35.8652 25.1996 36.2821 25.1996C36.4749 25.1996 36.6677 25.2616 36.8784 25.4075C37.7482 26.0134 38.6718 26.2523 39.5909 26.2523C40.38 26.2523 41.1736 26.0754 41.9492 25.8056C42.0613 25.7569 42.1734 25.7437 42.29 25.7437C42.7428 25.7437 43.0477 26.0931 43.0477 26.4911C43.0477 26.8272 42.837 27.1899 42.29 27.4155C41.5143 27.7162 40.6132 27.8622 39.7075 27.8622ZM40.9315 20.9538H40.5773C39.6896 20.9538 37.8827 20.8742 36.995 20.0957C36.7529 19.8879 36.6542 19.649 36.6542 19.4279C36.6542 19.0299 36.995 18.6937 37.412 18.6937C37.5554 18.6937 37.7168 18.7247 37.8648 18.8352C38.5283 19.282 39.3488 19.4102 40.2052 19.4102C40.4787 19.4102 40.7701 19.3925 41.0615 19.3793H41.1915C41.7565 19.3793 42.0613 19.7287 42.0613 20.1134C42.0613 20.4982 41.7071 20.9405 40.9315 20.9582V20.9538ZM43.1419 19.9675C42.9491 19.9675 42.7563 19.8702 42.6397 19.6181C42.6083 19.5562 42.5769 19.3969 42.5276 19.2996C42.3662 18.9635 42.1869 18.7247 41.9941 18.5655C41.8641 18.4549 41.8013 18.3266 41.8013 18.1851C41.8013 17.9286 42.0255 17.6897 42.3348 17.6897C42.4783 17.6897 42.6263 17.7517 42.7877 17.8799C43.1419 18.1807 43.5454 18.7733 43.6933 19.136C43.7247 19.2333 43.7426 19.3129 43.7426 19.3925C43.7426 19.7287 43.4512 19.9675 43.1463 19.9675H43.1419ZM44.2403 19.0608C44.2089 18.9989 44.1775 18.8397 44.1282 18.7424C43.9489 18.4062 43.7561 18.1851 43.5633 18.0259C43.4198 17.9153 43.3526 17.787 43.3526 17.6455C43.3526 17.4067 43.5768 17.1855 43.8861 17.1855C44.0161 17.1855 44.1596 17.2342 44.321 17.3448C44.6931 17.6146 45.128 18.1718 45.2581 18.5566C45.2894 18.6539 45.3074 18.7335 45.3074 18.8131C45.3074 19.1625 45.0159 19.4014 44.7245 19.4014C44.5452 19.4014 44.3524 19.3041 44.2403 19.0652V19.0608Z" fill="white"/>
<path d="M58.3493 19.185C58.3179 20.0607 58.3 20.9187 58.3 21.7635H58.4121C58.5555 21.7635 58.7349 21.7635 58.9142 21.5247C59.255 21.0293 59.5912 20.4411 59.8513 19.8352C59.9813 19.5344 60.2234 19.4194 60.479 19.4194C60.8825 19.4194 61.3039 19.7069 61.3039 20.105C61.3039 20.2023 61.286 20.2951 61.2232 20.4057C60.9497 20.8834 60.6269 21.3433 60.2727 21.7414C61.1291 21.7237 62.0482 21.6927 63.0973 21.6441H63.1287C63.6622 21.6441 63.9357 21.9935 63.9357 22.3429C63.9357 22.6923 63.6622 23.0417 63.1287 23.0417H63.0973C61.3219 22.993 59.9678 22.9621 58.6901 22.9444C59.9992 24.5366 61.9002 25.9519 64.5634 26.8453C65.0297 27.0045 65.2404 27.323 65.2404 27.6414C65.2404 28.0704 64.8548 28.4861 64.2899 28.4861C64.1464 28.4861 63.9671 28.4685 63.7878 28.3888C61.5281 27.4954 59.7033 26.0625 58.3179 24.3951C58.3493 25.5892 58.3807 26.8143 58.4614 28.2164V28.265C58.4614 28.7604 58.0758 28.9992 57.6857 28.9992C57.2957 28.9992 56.928 28.7604 56.928 28.265V28.2164C56.9908 26.8011 57.0401 25.5406 57.0581 24.3641C55.6368 26.0359 53.812 27.4999 51.7631 28.4065C51.5523 28.5038 51.3595 28.5348 51.1981 28.5348C50.6825 28.5348 50.3418 28.1677 50.3418 27.7697C50.3418 27.4512 50.5525 27.1151 51.0502 26.9249C52.9871 26.1907 55.0046 24.855 56.6007 22.9444C55.3274 22.9621 53.9689 22.993 52.2293 23.0417H52.198C51.6824 23.0417 51.4223 22.7056 51.4223 22.3738C51.4223 22.0068 51.6958 21.6397 52.198 21.6397H52.2293C53.3099 21.6883 54.2469 21.7193 55.1346 21.737C55.1033 21.6883 55.0719 21.6397 55.0539 21.5954C54.7805 21.0205 54.3904 20.6578 54.1169 20.4499C53.9555 20.3217 53.8927 20.1801 53.8927 20.0342C53.8927 19.7334 54.1976 19.446 54.5877 19.446C54.7177 19.446 54.8612 19.4769 55.0091 19.5565C55.3947 19.7644 56.0403 20.304 56.3631 20.9276C56.4259 21.0559 56.4618 21.1664 56.4618 21.277C56.4618 21.4672 56.3631 21.6264 56.2376 21.7547H57.0939C57.076 20.9099 57.0625 20.0519 57.0312 19.1762C55.6592 19.1762 54.368 19.1939 53.3502 19.2248H53.3188C52.7853 19.2248 52.5297 18.8754 52.5297 18.526C52.5297 18.1766 52.8032 17.8272 53.3188 17.8272H53.3502C54.3994 17.8582 55.6727 17.8759 56.9998 17.8759L56.937 16.4606V16.4119C56.937 15.9166 57.3226 15.6777 57.6947 15.6777C58.0668 15.6777 58.4704 15.9166 58.4704 16.4119V16.4606C58.439 16.9559 58.421 17.4159 58.4076 17.8759C59.6361 17.8759 60.8466 17.8582 61.9406 17.8272H61.972C62.4876 17.8272 62.7476 18.1766 62.7476 18.526C62.7476 18.8754 62.4876 19.2248 61.972 19.2248H61.9406L58.3583 19.1762L58.3493 19.185Z" fill="white"/>
<path d="M74.2311 23.085C74.3432 23.0363 74.4419 23.023 74.536 23.023C74.8768 23.023 75.1323 23.2796 75.1323 23.5803C75.1323 23.8015 74.9888 24.0403 74.666 24.1862C73.6662 24.6462 71.8908 25.3627 70.743 25.6811C70.6309 25.7121 70.5323 25.7298 70.4381 25.7298C69.9853 25.7298 69.7432 25.3937 69.7432 25.062C69.7432 24.7612 69.9225 24.456 70.3395 24.3632C70.7744 24.2658 71.2451 24.142 71.6935 24.0137C71.8056 23.9651 71.9535 23.8855 71.9535 23.598C71.9715 22.9788 71.9715 21.8952 71.9715 20.763C71.5993 20.763 71.2272 20.7807 70.873 20.7807H70.8416C70.326 20.7807 70.066 20.4622 70.066 20.1438C70.066 19.8077 70.3395 19.4583 70.8416 19.4583H70.873C71.2272 19.476 71.5993 19.4892 71.9715 19.4892C71.9535 18.5162 71.9401 17.5299 71.9401 16.6542V16.6365C71.9401 16.1412 72.3122 15.9023 72.6664 15.9023C73.0206 15.9023 73.4107 16.1589 73.4107 16.6498C73.3927 17.5432 73.3613 18.5295 73.3613 19.4848C73.6348 19.4848 73.9263 19.4671 74.1863 19.4538H74.2177C74.7198 19.4538 74.9619 19.79 74.9619 20.1084C74.9619 20.4446 74.7019 20.7763 74.2177 20.7763H74.1863C73.9128 20.7763 73.6214 20.7586 73.3479 20.7586V23.2265C73.3479 23.3061 73.33 23.3857 73.3165 23.4653L74.2356 23.085H74.2311ZM79.0419 24.4693C77.8807 26.349 75.5896 27.9545 73.5048 28.5294C73.3927 28.5604 73.2806 28.5781 73.182 28.5781C72.7292 28.5781 72.505 28.2773 72.505 27.9589C72.505 27.6891 72.6843 27.4193 73.0385 27.3397C74.7826 26.9726 76.5715 25.8757 77.6207 24.5047C77.4592 24.5047 77.2978 24.5224 77.1544 24.5224C76.8809 24.5401 76.7015 24.5843 76.5267 24.7126C75.6883 25.4467 74.7826 26.0482 73.9442 26.4153C73.7828 26.4772 73.6528 26.5126 73.5227 26.5126C73.1192 26.5126 72.8771 26.2119 72.8771 25.9067C72.8771 25.6679 73.0071 25.429 73.312 25.3185C74.6526 24.8099 75.8766 23.9828 76.8943 22.6913L74.4419 22.74H74.4239C73.9711 22.74 73.7604 22.4215 73.7604 22.1031C73.7604 21.7847 73.9711 21.4662 74.406 21.4662H74.4374C75.8093 21.4972 77.1499 21.5149 78.5218 21.5149C80.0372 21.5149 81.5885 21.4972 83.234 21.453H83.2654C83.7182 21.453 83.9289 21.7714 83.9289 22.0898C83.9289 22.4083 83.7182 22.7267 83.2654 22.7267H83.234C81.4764 22.6958 79.8758 22.6781 78.3425 22.6781C78.1497 22.9479 77.9569 23.2176 77.7282 23.4742C78.2439 23.4565 78.8267 23.4565 79.3916 23.4565C79.8131 23.4565 80.23 23.4565 80.6336 23.4742C81.8934 23.5361 82.7498 24.2703 82.7811 25.4335V25.5308C82.7811 27.9677 81.1985 28.9673 79.5844 28.9673C79.4858 28.9673 79.3916 28.9496 79.293 28.9496C78.7774 28.9186 78.5353 28.5825 78.5353 28.2641C78.5353 27.9456 78.7774 27.6272 79.1988 27.6272H79.2975C79.3961 27.6449 79.4903 27.6449 79.571 27.6449C80.5887 27.6449 81.4451 26.9593 81.4451 25.5927V25.4158C81.4137 25.0973 81.2523 24.8275 80.9608 24.6683C80.0417 26.7072 78.4277 28.2331 76.6836 28.9009C76.5401 28.9629 76.4101 28.9805 76.298 28.9805C75.8766 28.9805 75.6345 28.6621 75.6345 28.3614C75.6345 28.1225 75.7645 27.8837 76.0694 27.7731C77.6834 27.1849 78.8626 26.2428 79.7324 24.4781H79.0374L79.0419 24.4693ZM79.3647 20.9222C79.1047 20.9532 78.7998 20.9532 78.477 20.9532C78.1542 20.9532 77.8314 20.9532 77.5579 20.9222C76.428 20.8116 75.8138 20.1438 75.7197 19.33C75.6883 19.0912 75.6883 18.7418 75.6883 18.4233C75.6883 18.1535 75.6883 17.897 75.7062 17.7378C75.7869 16.8002 76.4818 16.066 77.5938 15.9864C77.9166 15.9687 78.1766 15.9687 78.4501 15.9687C78.7101 15.9687 78.9657 15.9687 79.2751 15.9864C80.4228 16.066 81.1805 16.7029 81.2612 17.7201C81.2792 18.0209 81.2926 18.3083 81.2926 18.5781C81.2926 18.817 81.2747 19.0381 81.2612 19.2769C81.1805 20.1526 80.4856 20.7895 79.3737 20.9178L79.3647 20.9222ZM79.9924 17.8174C79.961 17.3221 79.6203 17.1009 79.1675 17.0523C78.9567 17.0346 78.6653 17.0213 78.3918 17.0213C78.1497 17.0213 77.9255 17.039 77.7282 17.0523C77.2754 17.1009 76.9526 17.3221 76.9212 17.8174C76.9212 17.8661 76.9033 17.897 76.9033 17.9457H79.9879V17.8174H79.9924ZM76.9436 19.2194C76.993 19.5865 77.2485 19.8563 77.6879 19.905C77.93 19.9359 78.2349 19.9536 78.5442 19.9536C78.8043 19.9536 79.0598 19.9359 79.2526 19.905C79.6875 19.8431 79.961 19.6352 79.9969 19.2062C79.9969 19.1443 80.0148 19.0646 80.0148 18.985C79.4992 18.985 78.9836 18.9673 78.4501 18.9673C77.9166 18.9673 77.401 18.985 76.9167 18.985L76.9481 19.2239L76.9436 19.2194Z" fill="white"/>
<path d="M96.7332 25.7307V25.828C96.7332 27.8005 95.1999 28.9328 93.4423 28.9328H93.2989C92.6533 28.9151 92.3618 28.5347 92.3618 28.1544C92.3618 27.774 92.6533 27.4379 93.1509 27.4379H93.411C94.218 27.4379 95.1864 27.0089 95.2044 25.4476C95.2044 25.0672 95.2223 24.7002 95.2223 24.3331C95.2223 23.5856 95.2044 22.8514 95.1595 22.1217C93.6576 22.1526 92.1421 22.1836 91.1558 22.1836C90.8644 22.1836 90.6088 22.1659 90.4294 22.1659C89.9452 22.1482 89.7031 21.8298 89.7031 21.5113C89.7031 21.1929 89.9632 20.8744 90.4294 20.8744H90.4608C90.7209 20.8921 91.1244 20.8921 91.5907 20.8921C92.6577 20.8921 94.1238 20.8744 95.5586 20.8612C94.9936 20.4145 94.3166 20.0651 93.6396 19.8439C93.3347 19.7466 93.2047 19.5432 93.2047 19.3353C93.2047 18.9992 93.5096 18.6498 93.9624 18.6498C94.0252 18.6498 94.0925 18.6675 94.1732 18.6807C94.8502 18.8576 95.6079 19.1761 96.24 19.5741L96.3835 19.5122C96.8991 19.3353 97.5134 19.0169 97.9169 18.6055C98.029 18.495 98.0783 18.349 98.0783 18.2252C98.0783 18.0173 97.9348 17.8271 97.5447 17.8094C97.2712 17.7917 96.9305 17.7917 96.5763 17.7917C95.2537 17.7917 93.5275 17.8714 92.4919 17.8714H92.2991C91.7835 17.8714 91.5234 17.522 91.5234 17.2035C91.5234 16.8674 91.7655 16.5489 92.2677 16.5489H92.994C93.8638 16.5489 94.9802 16.5312 96.0607 16.5312C96.6749 16.5312 97.3026 16.5313 97.8541 16.5622C99.114 16.6241 99.7103 17.3406 99.7103 18.1235C99.7103 18.5834 99.4995 19.0611 99.0826 19.4459C98.6297 19.8439 98.0648 20.2729 97.3385 20.5427C97.4013 20.64 97.4506 20.7506 97.4685 20.8435C98.567 20.8435 99.5489 20.8435 100.002 20.8612C101.275 20.9098 101.876 21.6573 101.876 22.4843C101.876 22.931 101.714 23.3777 101.392 23.7758C100.795 24.4923 99.8268 25.1601 98.9212 25.3503C98.8405 25.368 98.7598 25.368 98.697 25.368C98.1814 25.368 97.872 24.9876 97.872 24.6205C97.872 24.3331 98.0514 24.0456 98.4863 23.966C99.1633 23.8244 99.7775 23.4706 100.199 22.9487C100.298 22.8205 100.342 22.6922 100.342 22.5684C100.342 22.3118 100.163 22.0907 99.7775 22.073H99.2126C98.6297 22.073 97.7286 22.073 96.7108 22.0907C96.6929 22.4401 96.6929 22.8072 96.6929 23.1433C96.6929 23.7979 96.7108 24.3198 96.7108 24.3198L96.7422 25.7351L96.7332 25.7307Z" fill="white"/>
<path d="M108.224 27.8308C107.839 27.8308 107.498 27.5434 107.498 27.2117C107.498 27.0524 107.579 26.8755 107.74 26.7163C108.287 26.19 108.758 25.3452 108.919 24.5668C108.982 24.2307 109.242 24.0715 109.516 24.0715C109.87 24.0715 110.242 24.328 110.242 24.7393C110.242 24.788 110.242 24.8499 110.224 24.8985C110.081 25.646 109.368 27.079 108.753 27.623C108.592 27.7645 108.399 27.8308 108.22 27.8308H108.224ZM111.968 23.1206V24.1555C111.968 25.1727 111.968 26.2563 112.049 28.1847V28.2333C112.049 28.7287 111.677 28.9675 111.305 28.9675C110.932 28.9675 110.56 28.7287 110.56 28.2201V28.1891C110.641 25.7212 110.672 24.5757 110.69 23.24C110.013 23.2886 109.35 23.3506 108.946 23.3506H108.915C108.413 23.3506 108.189 23.0498 108.189 22.7446C108.189 22.4262 108.431 22.1254 108.834 22.1254H108.883C108.946 22.1254 109.013 22.1431 109.076 22.1431H109.108C109.332 22.1431 109.493 22.0016 109.61 21.8557L109.834 21.5682C109.883 21.4576 109.897 21.3913 109.897 21.3293C109.897 21.232 109.865 21.1701 109.816 21.1082L109.574 20.918C109.04 20.489 108.816 19.9937 108.816 19.516C108.816 19.1489 108.946 18.7995 109.139 18.4634C109.574 17.7159 109.964 16.9685 110.206 16.3448C110.336 16.0087 110.61 15.8672 110.883 15.8672C111.237 15.8672 111.591 16.106 111.591 16.4731C111.591 16.5704 111.56 16.681 111.511 16.7916C111.139 17.5877 110.784 18.2068 110.318 18.8924C110.206 19.0516 110.157 19.2285 110.157 19.3877C110.157 19.6266 110.269 19.8654 110.529 20.0246C110.61 20.0865 110.69 20.1352 110.753 20.2015C111.287 19.3745 111.784 18.512 112.076 17.8619C112.206 17.5744 112.43 17.4638 112.672 17.4638C113.044 17.4638 113.416 17.7336 113.416 18.1184C113.416 18.2157 113.385 18.3263 113.336 18.4368C112.869 19.3745 111.753 20.9667 110.865 22.1122C111.287 22.0945 111.672 22.0635 111.977 22.0503C112.251 22.0326 112.412 21.8733 112.412 21.7141V21.6655L112.219 21.4089C112.107 21.2807 112.04 21.1524 112.04 21.0286C112.04 20.7411 112.363 20.52 112.668 20.52C112.798 20.52 112.928 20.5686 113.04 20.6482L113.25 20.8694V20.7898C113.25 20.6305 113.313 20.489 113.492 20.2944C114.25 19.4983 114.846 18.2422 115.411 16.4908C115.523 16.1724 115.784 16.0308 116.057 16.0308C116.429 16.0308 116.815 16.2874 116.815 16.6987C116.815 16.7783 116.797 16.8579 116.765 16.9552C116.573 17.4815 116.331 18.052 116.07 18.5961C116.375 18.5651 116.734 18.5474 117.12 18.5474C117.393 18.5474 117.667 18.5474 117.945 18.5651C119.657 18.6624 120.545 19.631 120.688 20.9224C120.738 21.4178 120.769 21.9397 120.769 22.4527C120.769 25.5398 119.72 28.6623 116.591 28.6623H116.38C115.864 28.6446 115.636 28.3129 115.636 27.9768C115.636 27.6407 115.896 27.278 116.38 27.278H116.573C118.72 27.278 119.348 24.6199 119.348 22.4527C119.348 21.9928 119.317 21.5593 119.267 21.179C119.169 20.3342 118.702 19.9052 117.716 19.8256C117.456 19.8079 117.2 19.7946 116.94 19.7946C116.617 19.7946 116.295 19.8123 115.972 19.8256C115.586 19.8565 115.358 20.0025 115.263 20.0821C115.003 20.4979 114.748 20.8605 114.519 21.1347C114.34 21.3249 114.134 21.4045 113.923 21.4045C113.811 21.4045 113.699 21.3868 113.6 21.3426C113.891 21.8026 114.116 22.3466 114.196 22.7269C114.214 22.7889 114.214 22.8375 114.214 22.8862C114.214 23.2665 113.972 23.5054 113.681 23.5717C113.631 23.5894 113.582 23.5894 113.537 23.5894C113.264 23.5894 112.99 23.4125 112.923 23.0144C112.923 22.9967 112.905 22.9658 112.905 22.9525C112.874 22.8729 112.856 22.8419 112.842 22.8419C112.78 22.8419 112.65 23.0808 112.165 23.1117L111.955 23.1427L111.968 23.1206ZM113.277 26.7163C113.165 26.0971 112.793 25.301 112.439 24.8543C112.358 24.7437 112.309 24.6155 112.309 24.5049C112.309 24.2042 112.614 23.9476 112.972 23.9476C113.152 23.9476 113.327 24.0096 113.488 24.1688C113.972 24.6287 114.506 25.7433 114.636 26.3359C114.654 26.4156 114.667 26.4952 114.667 26.5571C114.667 27.0347 114.295 27.3045 113.923 27.3045C113.631 27.3045 113.358 27.1276 113.277 26.7163ZM116.631 24.0096C116.259 23.4832 115.564 23.0233 115.147 22.8331C114.855 22.7048 114.725 22.4837 114.725 22.2581C114.725 21.922 114.999 21.6036 115.434 21.6036C115.546 21.6036 115.658 21.6212 115.788 21.6655C116.371 21.8557 117.29 22.382 117.743 22.9392C117.886 23.1294 117.954 23.3196 117.954 23.4965C117.954 23.9432 117.568 24.3103 117.178 24.3103C116.985 24.3103 116.774 24.213 116.631 24.0096Z" fill="white"/>
</svg>
