<svg width="449" height="85" viewBox="0 0 449 85" fill="none" xmlns="http://www.w3.org/2000/svg">
<path d="M449 0H0V85H449V0Z" fill="#2998AE"/>
<path d="M71.81 45.2201C71.41 45.2201 71.02 45.1101 70.59 44.8601C66.13 42.2701 62.53 37.3701 58.46 33.0201C58.14 32.6601 57.7 32.4801 57.27 32.4801C56.87 32.4801 56.44 32.6601 56.15 32.9801C52.41 37.1901 48.95 42.3401 44.49 45.5801C43.91 46.0101 43.37 46.1901 42.87 46.1901C41.79 46.1901 41 45.2901 41 44.3501C41 43.7401 41.32 43.1301 42.04 42.7301C46.47 40.2801 50.07 34.8801 53.77 30.7401C54.81 29.5901 56 29.0801 57.19 29.0801C58.49 29.0801 59.75 29.6901 60.72 30.7001C65.29 35.4901 68.1 38.9801 72.63 41.4601C73.49 41.9301 73.85 42.5801 73.85 43.2201C73.85 44.2301 72.95 45.2001 71.8 45.2001L71.81 45.2201ZM60.4 58.1101C59.5 58.1101 58.67 57.5001 58.67 56.5301C58.67 56.2401 58.74 55.9501 58.89 55.6301C59.54 54.1901 60.33 52.2501 60.91 50.2301C60.98 49.9801 61.02 49.7601 61.02 49.5101C61.02 48.5001 60.34 47.7101 58.9 47.6401C58.22 47.6001 57.53 47.6001 56.88 47.6001C55.08 47.6001 53.39 47.6701 51.59 47.6701H50.8C49.61 47.6701 49.04 46.8401 49.04 46.0501C49.04 45.2601 49.62 44.4301 50.73 44.4301H50.8C52.06 44.4701 53.18 44.4701 54.26 44.4701H56.85C57.64 44.4701 58.43 44.4701 59.26 44.5101C62.32 44.6201 64.62 45.9901 64.62 48.8701C64.62 49.3701 64.55 49.9501 64.4 50.5601C63.86 52.6801 63.14 54.9901 62.35 56.7501C61.92 57.6901 61.16 58.1201 60.41 58.1201L60.4 58.1101ZM61.48 38.3101C62.56 38.3101 63.1 39.1001 63.1 39.9301C63.1 40.7601 62.56 41.5101 61.48 41.5101H61.37C60.07 41.4701 58.89 41.4401 57.7 41.4401C56.3 41.4401 54.89 41.4801 53.45 41.5101H53.38C52.26 41.5101 51.72 40.7201 51.72 39.9301C51.72 39.1401 52.3 38.3101 53.38 38.3101H53.45C54.71 38.3801 55.97 38.3801 57.3 38.3801C58.63 38.3801 59.93 38.3801 61.37 38.3101H61.48Z" fill="white"/>
<path d="M97.5099 50.3L97.2899 50.44C96.6099 50.91 95.8099 51.12 95.0199 51.12C92.9699 51.12 90.9499 49.68 90.8799 46.98V46.87C90.8799 44.85 92.5699 42.91 95.0899 42.91H95.2699C96.1299 42.98 96.6699 43.09 97.0699 43.31C97.0699 42.27 97.0299 41.08 96.9999 39.6C92.6799 39.96 88.3599 40.64 84.1099 41.51C83.9299 41.55 83.7499 41.55 83.6099 41.55C82.5299 41.55 81.8799 40.79 81.8799 39.97C81.8799 39.21 82.4599 38.42 83.7199 38.24C86.1699 37.88 91.5999 37.16 96.8899 36.62C96.8499 35.68 96.7799 34.82 96.7499 34.17C96.6799 33.38 96.6399 32.95 96.5299 32.55C96.4599 32.33 96.4599 32.12 96.4599 31.94C96.4599 30.86 97.3199 30.21 98.2199 30.21C99.1199 30.21 99.9099 30.75 100.09 31.97C100.16 32.33 100.16 32.73 100.16 33.12C100.16 33.44 100.16 33.8 100.12 34.24L100.01 36.33C102.71 36.08 105.19 35.93 106.99 35.93C107.75 35.93 108.36 35.97 108.83 36C109.84 36.11 110.45 36.94 110.45 37.73C110.45 38.52 109.84 39.28 108.43 39.28H108.21C107.13 39.24 106.05 39.24 105.01 39.24C103.32 39.24 101.66 39.28 99.9699 39.38C99.9699 41.72 100.04 43.92 100.04 44.71V45.21C100.72 46.18 100.98 47.33 100.98 48.49C100.98 49.97 100.55 51.44 99.9399 52.34C98.1399 55 94.5799 57.6 89.8999 58.24C89.7899 58.24 89.6499 58.28 89.5399 58.28C88.5299 58.28 87.9899 57.6 87.9899 56.88C87.9899 56.23 88.4599 55.58 89.4699 55.44C93.9299 54.76 96.0599 52.52 97.2799 50.69L97.4999 50.29L97.5099 50.3ZM95.2099 45.47C94.1999 45.47 93.6999 46.08 93.6999 46.87V47.01C93.7699 47.77 94.4199 48.27 95.1399 48.27C95.3599 48.27 95.6099 48.23 95.8199 48.13C96.6799 47.77 96.8999 47.16 97.0099 46.33C96.5399 45.79 95.9299 45.47 95.2099 45.47Z" fill="white"/>
<path d="M125.09 40.2898C124.44 41.0498 124.08 41.7998 124.08 42.5898C124.08 43.3098 124.37 44.0698 125.05 44.8598C127.39 47.5998 129.8 51.3398 130.67 54.7598C130.74 55.0498 130.78 55.3398 130.78 55.6198C130.78 56.9898 129.84 57.8198 128.87 57.8198C128.04 57.8198 127.18 57.2098 126.89 55.7698C126.31 52.7498 124.23 49.1798 122.39 46.8398C121.24 45.3598 120.73 44.0298 120.73 42.7698C120.73 41.3698 121.34 39.9998 122.49 38.4898C123.68 36.9798 124.87 35.4298 125.59 34.3498C126.2 33.4898 126.56 32.9098 126.99 31.9698C127.39 31.1798 128.07 30.8198 128.75 30.8198C129.72 30.8198 130.69 31.4998 130.69 32.5798C130.69 32.9398 130.58 33.2998 130.33 33.7298C129.93 34.3398 129.75 34.5898 128.96 35.5998L125.07 40.2798L125.09 40.2898ZM132.43 40.7898C132 40.7898 131.57 40.5698 131.31 40.0298C131.24 39.8498 131.17 39.4898 131.06 39.2698C130.7 38.5098 130.3 37.9698 129.87 37.6098C129.55 37.3598 129.44 37.0298 129.44 36.7498C129.44 36.1698 129.94 35.6298 130.63 35.6298C130.95 35.6298 131.28 35.7698 131.64 36.0598C132.4 36.7398 133.3 38.0798 133.66 38.8998C133.73 39.1198 133.77 39.2998 133.77 39.4798C133.77 40.2398 133.12 40.7798 132.44 40.7798L132.43 40.7898ZM134.92 38.7398C134.85 38.5998 134.74 38.2398 134.63 38.0198C134.23 37.2598 133.84 36.7598 133.41 36.3998C133.09 36.1498 132.94 35.8598 132.94 35.5398C132.94 34.9998 133.44 34.4998 134.13 34.4998C134.42 34.4998 134.74 34.6098 135.1 34.8598C135.89 35.4698 136.86 36.7298 137.19 37.5998C137.26 37.8198 137.3 37.9998 137.3 38.1798C137.3 38.9698 136.65 39.5098 136 39.5098C135.6 39.5098 135.17 39.2898 134.92 38.7498V38.7398Z" fill="white"/>
<path d="M175.38 47.2002H175.42C176.46 47.2002 177 47.9202 177 48.6802C177 49.4402 176.46 50.1602 175.38 50.1202C170.84 50.0502 166.38 50.0102 161.85 50.0102C157.32 50.0102 152.78 50.0502 148.14 50.1202H148.1C146.98 50.1202 146.44 49.4402 146.44 48.7202C146.44 47.9602 147.05 47.1702 148.13 47.2102L153.39 47.3202C153.43 46.0602 153.43 44.6602 153.43 43.2502C152.6 43.2502 151.77 43.2902 150.91 43.2902H150.87C149.72 43.2902 149.18 42.5702 149.18 41.8502C149.18 41.0902 149.79 40.3002 150.91 40.3402L153.43 40.4102V36.8802C152.67 37.6002 151.92 38.2502 151.27 38.7502C150.87 39.0402 150.48 39.1502 150.12 39.1502C149.22 39.1502 148.43 38.4302 148.43 37.6002C148.43 37.1302 148.68 36.6302 149.33 36.2002C151.92 34.5102 153.97 32.1002 155.56 29.3202C155.88 28.7402 156.42 28.4902 156.93 28.4902C157.83 28.4902 158.69 29.1702 158.69 30.0702C158.69 30.3602 158.62 30.6502 158.4 30.9702C157.93 31.6502 157.36 32.4102 156.71 33.2002C158.19 33.2402 159.7 33.2402 161.25 33.2402C164.35 33.2402 167.69 33.2002 171.8 33.1002H171.84C172.96 33.1002 173.5 33.8202 173.5 34.5802C173.5 35.3402 172.92 36.0602 171.81 36.0202C171.16 36.0202 170.59 36.0202 169.97 35.9802C169.97 37.2402 169.93 38.7902 169.93 40.4102L172.7 40.3402H172.74C173.86 40.3402 174.4 41.0602 174.4 41.8202C174.4 42.5802 173.82 43.3302 172.71 43.3002C171.77 43.3002 170.84 43.2602 169.94 43.2602C169.94 44.6602 169.98 46.0702 169.98 47.3302L175.42 47.2202L175.38 47.2002ZM149.9 58.1802C148.86 58.1802 148.1 57.3902 148.1 56.5602C148.1 56.0202 148.46 55.4102 149.32 55.0102C150.65 54.4002 151.77 53.5002 152.42 51.9902C152.67 51.3402 153.25 51.0902 153.82 51.0902C154.68 51.0902 155.58 51.7402 155.58 52.6702C155.58 52.8502 155.54 53.0702 155.47 53.2802C154.75 55.1902 152.59 57.3102 150.79 58.0002C150.47 58.1102 150.18 58.1802 149.89 58.1802H149.9ZM156.09 35.9002C156.09 37.2002 156.05 38.7802 156.05 40.4002C156.73 40.4002 157.42 40.4402 158.07 40.4402C158.07 38.8202 158.07 37.2402 158.03 35.9002H156.09ZM158.03 47.3502C158.07 46.0502 158.07 44.6502 158.07 43.1702C157.42 43.1702 156.74 43.2102 156.05 43.2102C156.05 44.6502 156.09 46.0502 156.09 47.3502H158.03ZM159.07 57.8202C158.31 57.8202 157.63 57.3502 157.63 56.3402V56.2002C157.67 55.9102 157.67 55.6202 157.67 55.3702C157.67 54.2502 157.49 53.5302 157.17 52.6002C157.13 52.4602 157.1 52.3502 157.1 52.2002C157.1 51.4802 157.86 51.0502 158.61 51.0502C159.26 51.0502 159.91 51.3402 160.16 51.9902C160.63 53.1102 160.88 54.1902 160.88 55.5502V56.0902C160.84 57.2102 159.94 57.8202 159.08 57.8202H159.07ZM162.64 40.4302C162.64 38.8102 162.64 37.2302 162.6 35.8902H160.69C160.69 37.1502 160.65 38.7702 160.65 40.4302H162.63H162.64ZM162.6 47.3502C162.64 46.0502 162.64 44.6502 162.64 43.1702H160.66C160.66 44.6102 160.7 46.0502 160.7 47.3502H162.61H162.6ZM164.22 56.6002C163.86 54.8402 163.36 53.9702 162.67 52.9302C162.53 52.7102 162.45 52.5002 162.45 52.2802C162.45 51.6302 163.17 51.1302 163.96 51.1302C164.46 51.1302 165.04 51.3102 165.47 51.8102C166.19 52.6402 166.98 54.0102 167.38 55.7002C167.42 55.8802 167.42 56.0202 167.42 56.1702C167.42 57.2502 166.56 57.9002 165.69 57.9002C165.04 57.9002 164.39 57.5002 164.21 56.6002H164.22ZM167.25 35.9302C166.57 35.9302 165.92 35.8902 165.27 35.8902C165.27 37.1902 165.23 38.8102 165.23 40.4302C165.91 40.4302 166.6 40.3902 167.28 40.3902C167.28 38.8102 167.28 37.2602 167.24 35.9302H167.25ZM167.25 47.3502C167.29 46.0502 167.29 44.6502 167.29 43.2102C166.61 43.2102 165.92 43.1702 165.24 43.1702C165.24 44.6102 165.28 46.0502 165.28 47.3502H167.26H167.25ZM171.96 56.8802C171.06 55.3702 169.84 54.1402 168.54 53.2402C168.18 52.9902 168 52.6302 168 52.3002C168 51.6202 168.68 50.9702 169.62 50.9702C169.98 50.9702 170.34 51.0402 170.74 51.2602C172.11 51.9802 173.91 53.4902 174.77 54.8202C175.02 55.1802 175.09 55.5402 175.09 55.9002C175.09 56.9102 174.19 57.7002 173.29 57.7002C172.79 57.7002 172.28 57.4502 171.96 56.8702V56.8802Z" fill="white"/>
<path d="M194.54 41.4802V43.1402C194.76 43.0002 195.01 42.9202 195.26 42.9202C195.4 42.9202 195.58 42.9602 195.73 42.9902C196.81 43.4202 198.36 44.7502 198.86 45.5502C199.04 45.8402 199.11 46.1302 199.11 46.3802C199.11 47.2402 198.35 47.9602 197.6 47.9602C197.2 47.9602 196.81 47.7402 196.52 47.2802C195.94 46.3802 195.22 45.6602 194.54 45.1602C194.58 48.2902 194.65 51.8202 194.79 56.5302V56.6002C194.79 57.6102 193.96 58.1502 193.1 58.1502C192.24 58.1502 191.44 57.6102 191.44 56.6002V56.5302C191.55 52.5702 191.62 49.3702 191.66 46.5202C190.33 48.5402 188.89 50.1202 187.27 51.3802C186.84 51.7002 186.37 51.8502 185.97 51.8502C185.11 51.8502 184.42 51.1702 184.42 50.3702C184.42 49.9002 184.67 49.4002 185.28 48.9702C187.33 47.6002 189.13 45.6602 190.93 43.2802C191.36 42.6702 191.61 42.0202 191.69 41.4802C190.47 41.4802 189.21 41.5502 187.91 41.5902H187.8C186.68 41.5902 186.18 40.9102 186.18 40.1902C186.18 39.4302 186.76 38.6802 187.84 38.6802H187.91C189.28 38.7502 190.5 38.7902 191.69 38.7902C191.65 36.1302 191.58 33.3202 191.47 29.9402V29.8702C191.47 28.9002 192.3 28.3902 193.13 28.3902C193.96 28.3902 194.79 28.8902 194.79 29.8702V29.9402C194.72 32.0602 194.65 33.9002 194.61 35.6302C195.11 34.9502 195.91 33.6902 196.34 32.8202C196.59 32.3202 197.06 32.1002 197.49 32.1002C198.25 32.1002 199 32.6802 199 33.4702C199 33.7202 198.93 33.9702 198.78 34.2602C198.24 35.1202 197.23 36.4602 196.44 37.2502C196.15 37.5702 195.79 37.7202 195.43 37.7202C195.11 37.7202 194.78 37.6102 194.57 37.4002C194.57 37.8702 194.53 38.3402 194.53 38.8002L197.59 38.6902H197.66C198.74 38.6902 199.24 39.4102 199.24 40.1302C199.24 40.8502 198.7 41.6102 197.69 41.6102H197.58L194.52 41.5002L194.54 41.4802ZM188.88 36.6202C188.52 35.7602 187.58 34.7102 187.22 34.3902C186.9 34.1002 186.79 33.7802 186.79 33.4902C186.79 32.8102 187.51 32.1902 188.3 32.1902C188.55 32.1902 188.8 32.2302 189.02 32.3702C189.78 32.8002 191.04 34.3502 191.4 35.1802C191.54 35.4702 191.58 35.7202 191.58 35.9702C191.58 36.8702 190.82 37.5202 190.1 37.5202C189.63 37.5202 189.13 37.2302 188.88 36.6202ZM198.85 51.8402C198.56 51.9502 198.27 51.9802 198.02 51.9802C196.94 51.9802 196.29 51.1902 196.29 50.3602C196.29 49.7102 196.72 49.0602 197.66 48.8502C200.86 48.0902 204.21 47.1202 207.45 46.1102V43.1602C207.45 38.5902 207.38 34.1302 207.31 29.8802V29.8402C207.31 28.7602 208.17 28.2202 209 28.2202C209.9 28.2202 210.76 28.7602 210.76 29.8002V29.8702C210.65 33.5102 210.62 37.3902 210.62 41.3502V45.0602C211.81 44.6302 213 44.2302 214.15 43.8002C214.4 43.6902 214.65 43.6602 214.87 43.6602C215.88 43.6602 216.49 44.4502 216.49 45.2802C216.49 45.9302 216.09 46.5802 215.16 46.8302C213.72 47.2302 212.21 47.6602 210.66 48.1302C210.7 50.9002 210.73 53.6402 210.8 56.3402V56.3802C210.8 57.5702 209.86 58.1802 208.96 58.1802C208.06 58.1802 207.27 57.6402 207.27 56.4202V56.3502C207.34 53.9702 207.38 51.5302 207.41 49.1102C204.49 50.0102 201.54 50.9502 198.84 51.8502L198.85 51.8402ZM203.64 43.9602C202.45 42.9502 201.34 42.5902 200.4 42.3402C199.72 42.1602 199.43 41.6602 199.43 41.1202C199.43 40.3602 200.04 39.5702 201.09 39.5702C201.23 39.5702 201.38 39.5702 201.52 39.6102C202.78 39.8602 204.51 40.4702 205.52 41.3002C206.02 41.7302 206.2 42.2002 206.2 42.6702C206.2 43.5702 205.48 44.3602 204.65 44.3602C204.33 44.3602 203.97 44.2502 203.64 43.9602ZM203.75 37.1202C203.03 36.2602 201.88 35.5702 200.98 35.2102C200.33 34.9202 200.04 34.4502 200.04 33.9902C200.04 33.2702 200.65 32.5902 201.62 32.5902C201.84 32.5902 202.09 32.6302 202.34 32.7002C203.38 32.9902 205.18 33.9202 206.05 34.8602C206.41 35.2602 206.55 35.6502 206.55 36.0502C206.55 36.9502 205.76 37.7402 204.93 37.7402C204.53 37.7402 204.1 37.5602 203.74 37.1302L203.75 37.1202Z" fill="white"/>
<path d="M227.19 41.59H226.94C225.75 41.59 224.96 40.69 224.96 39.79C224.96 38.96 225.61 38.13 227.08 37.95C227.76 37.88 228.59 37.66 229.06 37.52C231.11 36.94 233.96 35.83 236.29 34.93C237.23 34.57 238.45 34.07 239.6 33.67C242.44 32.77 243.88 32.41 245.75 32.3H246C247.33 32.3 247.98 33.13 247.98 33.96C247.98 34.9 247.22 35.87 245.75 35.87H245.21C243.3 35.87 239.81 36.37 238.51 37.85C237.61 38.86 237.18 40.33 237.18 41.95C237.18 45.98 239.7 51.09 243.41 53.43C244.49 54.08 244.92 54.94 244.92 55.66C244.92 56.6 244.2 57.39 243.08 57.39C242.4 57.39 241.57 57.1 240.7 56.38C236.92 53.28 234.18 47.31 234.18 42.49C234.18 41.23 234.36 40.04 234.76 39C234.83 38.82 234.87 38.68 234.87 38.6C234.87 38.6 234.857 38.5867 234.83 38.56C234.83 38.56 234.72 38.6 234.61 38.63C233.13 39.24 231.23 40.32 229.46 40.93C228.6 41.18 227.91 41.47 227.16 41.58L227.19 41.59ZM249 32.16C248.53 32.16 248.1 31.94 247.88 31.37C247.81 31.19 247.74 30.83 247.63 30.61C247.27 29.82 246.91 29.28 246.48 28.92C246.19 28.67 246.05 28.38 246.05 28.09C246.05 27.51 246.59 26.97 247.24 26.97C247.56 26.97 247.89 27.11 248.25 27.4C249.04 28.12 249.91 29.45 250.23 30.28C250.3 30.5 250.34 30.68 250.34 30.86C250.34 31.62 249.66 32.16 249.01 32.16H249ZM251.66 30.32C251.59 30.14 251.52 29.78 251.41 29.6C251.05 28.81 250.65 28.3 250.22 27.94C249.9 27.69 249.75 27.36 249.75 27.08C249.75 26.54 250.25 26 250.94 26C251.23 26 251.59 26.11 251.91 26.4C252.74 27.05 253.67 28.31 253.96 29.17C254.03 29.35 254.07 29.53 254.07 29.71C254.07 30.5 253.42 31.08 252.74 31.08C252.34 31.08 251.91 30.86 251.66 30.32Z" fill="white"/>
<path d="M275.32 53.5402C274.42 53.5402 273.59 53.5002 272.58 53.4302C273.19 53.6502 273.62 54.2602 273.62 54.8702C273.62 55.3402 273.37 55.8102 272.79 56.1302C270.23 57.5302 266.89 58.4002 264.08 58.6102H263.9C262.75 58.6102 262.17 57.8502 262.17 57.1002C262.17 56.3502 262.67 55.7002 263.75 55.6202C266.38 55.4002 268.97 54.7902 271.24 53.5302C271.38 53.4602 271.53 53.3902 271.71 53.3502C269.12 53.0602 267.71 51.9802 267.57 49.8902C267.5 49.1002 267.46 48.3102 267.46 47.5102C267.46 46.6102 267.5 45.7502 267.57 44.8502C267.64 43.4802 268.51 42.4402 269.87 41.8602C269.01 41.7902 268.54 41.2102 268.54 40.6002C268.54 40.3802 268.61 40.1702 268.72 39.9502C266.99 40.8102 265.48 41.4302 263.75 41.9702C263.5 42.0402 263.25 42.0802 263.03 42.0802C261.99 42.0802 261.41 41.2902 261.41 40.4602C261.41 39.8102 261.77 39.1602 262.6 38.9502C264.83 38.3402 266.78 37.6502 268.76 36.7202C268.98 36.6102 269.23 36.5802 269.41 36.5802C270.2 36.5802 270.78 37.2602 270.78 37.9802C270.78 38.4502 270.56 38.8802 270.1 39.2402C274.71 38.7702 276.58 37.0802 276.58 34.7802V34.7102C276.54 33.8502 277.37 33.4502 278.2 33.4502C279.03 33.4502 279.78 33.8502 279.78 34.6002C279.78 34.7802 279.74 34.9602 279.74 35.1402C280.24 37.6602 282.62 39.9302 289.14 40.4302C290.08 40.5002 290.58 41.2202 290.58 41.9402C290.58 42.7302 289.97 43.5602 288.71 43.5602H288.46C283.28 43.0902 280 40.8602 278.31 38.2302C277.23 39.4902 275.47 40.6102 273.13 41.2902C273.74 41.2502 274.28 41.2502 274.79 41.2502C275.73 41.2502 276.7 41.2902 278.39 41.3602C281.27 41.4702 282.96 42.8002 283.11 44.7402C283.18 45.6402 283.22 46.4702 283.22 47.3302C283.22 48.1902 283.18 49.0602 283.11 49.9602C282.93 51.8702 281.49 52.9802 279.04 53.3102C279.26 53.3502 279.44 53.4202 279.65 53.4902C281.02 54.1402 284.15 54.9702 286.6 55.0402C287.64 55.0802 288.18 55.8302 288.18 56.5502C288.18 57.3802 287.57 58.2102 286.38 58.2102H286.24C283.14 57.9602 279.98 56.9902 278.14 56.0502C277.56 55.7602 277.35 55.2902 277.35 54.8602C277.35 54.2102 277.82 53.5602 278.47 53.3802C277.17 53.4902 276.2 53.5202 275.34 53.5202L275.32 53.5402ZM267.51 34.3102C266.36 33.4502 264.81 32.8702 263.66 32.6502C262.87 32.4702 262.51 31.9302 262.51 31.3902C262.51 30.6002 263.16 29.8102 264.24 29.8102H264.31C265.43 29.8802 268.2 30.7802 269.24 31.5002C269.82 31.9002 270.07 32.4002 270.07 32.9002C270.07 33.8002 269.31 34.6602 268.45 34.6602C268.16 34.6602 267.84 34.5502 267.51 34.3002V34.3102ZM272.98 36.5802C272.55 36.9402 272.08 37.0802 271.68 37.0802C270.82 37.0802 270.13 36.4302 270.13 35.7102C270.13 35.3102 270.31 34.8802 270.78 34.5202C272.69 33.0102 273.88 30.9902 274.96 28.6902C275.21 28.1502 275.68 27.9302 276.18 27.9302C277.01 27.9302 277.91 28.5402 277.91 29.3302C277.91 29.5502 277.84 29.7602 277.73 29.9802C277.62 30.2002 277.48 30.4102 277.37 30.6602C278.38 30.6202 279.67 30.5902 281.01 30.5902C281.84 30.5902 282.7 30.5902 283.49 30.6302C285.72 30.7402 286.91 32.1102 286.91 33.6202C286.91 34.3002 286.66 35.0202 286.12 35.6402C285.54 36.3202 284.82 37.0102 284.14 37.5102C283.74 37.8002 283.38 37.9102 283.02 37.9102C282.23 37.9102 281.58 37.3002 281.58 36.6102C281.58 36.2502 281.72 35.8902 282.12 35.6002C282.66 35.1702 282.95 34.8802 283.24 34.4802C283.42 34.2602 283.49 34.0102 283.49 33.8302C283.49 33.4002 283.17 33.1102 282.59 33.0702C281.69 33.0002 280.65 33.0002 279.53 33.0002C278.67 33.0002 277.73 33.0002 276.9 33.0402C276.07 33.0802 275.71 33.4402 275.46 33.7202C274.7 34.8002 273.84 35.8102 272.98 36.5602V36.5802ZM280.14 46.7002C277.98 46.6602 276.5 46.6602 275.06 46.6602C273.62 46.6602 272.29 46.6602 270.45 46.7002V48.0002C272.32 48.0402 273.65 48.0402 275.09 48.0402C276.53 48.0402 277.97 48.0402 280.13 48.0002V46.7002H280.14ZM275.07 49.7902C273.67 49.7902 272.33 49.7902 270.57 49.8302C270.68 50.6202 271.33 51.1602 272.51 51.3102C273.3 51.3802 274.2 51.4202 275.14 51.4202C276.18 51.4202 277.26 51.3802 278.16 51.3102C279.46 51.2002 279.85 50.6302 280 49.8302C277.91 49.7902 276.47 49.7902 275.07 49.7902ZM278.09 43.4202C277.44 43.3502 276.54 43.3102 275.68 43.3102C274.53 43.3102 273.34 43.3802 272.48 43.4502C271.26 43.5602 270.75 44.1302 270.61 44.8502C272.41 44.8902 273.71 44.8902 275.11 44.8902C276.51 44.8902 277.92 44.8902 280.01 44.8502C279.87 44.0902 279.4 43.5902 278.1 43.4102L278.09 43.4202Z" fill="white"/>
<path d="M308.3 41.4802V43.1402C308.52 43.0002 308.77 42.9202 309.02 42.9202C309.16 42.9202 309.34 42.9602 309.49 42.9902C310.57 43.4202 312.12 44.7502 312.62 45.5502C312.8 45.8402 312.87 46.1302 312.87 46.3802C312.87 47.2402 312.11 47.9602 311.36 47.9602C310.96 47.9602 310.57 47.7402 310.28 47.2802C309.7 46.3802 308.98 45.6602 308.3 45.1602C308.34 48.2902 308.41 51.8202 308.55 56.5302V56.6002C308.55 57.6102 307.72 58.1502 306.86 58.1502C306 58.1502 305.2 57.6102 305.2 56.6002V56.5302C305.31 52.5702 305.38 49.3702 305.42 46.5202C304.09 48.5402 302.65 50.1202 301.03 51.3802C300.6 51.7002 300.13 51.8502 299.73 51.8502C298.87 51.8502 298.18 51.1702 298.18 50.3702C298.18 49.9002 298.43 49.4002 299.04 48.9702C301.09 47.6002 302.89 45.6602 304.69 43.2802C305.12 42.6702 305.37 42.0202 305.45 41.4802C304.23 41.4802 302.97 41.5502 301.67 41.5902H301.56C300.44 41.5902 299.94 40.9102 299.94 40.1902C299.94 39.4302 300.52 38.6802 301.6 38.6802H301.67C303.04 38.7502 304.26 38.7902 305.45 38.7902C305.41 36.1302 305.34 33.3202 305.23 29.9402V29.8702C305.23 28.9002 306.06 28.3902 306.89 28.3902C307.72 28.3902 308.55 28.8902 308.55 29.8702V29.9402C308.48 32.0602 308.41 33.9002 308.37 35.6302C308.87 34.9502 309.67 33.6902 310.1 32.8202C310.35 32.3202 310.82 32.1002 311.25 32.1002C312.01 32.1002 312.76 32.6802 312.76 33.4702C312.76 33.7202 312.69 33.9702 312.54 34.2602C312 35.1202 310.99 36.4602 310.2 37.2502C309.91 37.5702 309.55 37.7202 309.19 37.7202C308.87 37.7202 308.54 37.6102 308.33 37.4002C308.33 37.8702 308.29 38.3402 308.29 38.8002L311.35 38.6902H311.42C312.5 38.6902 313 39.4102 313 40.1302C313 40.8502 312.46 41.6102 311.45 41.6102H311.34L308.28 41.5002L308.3 41.4802ZM302.64 36.6202C302.28 35.7602 301.34 34.7102 300.98 34.3902C300.66 34.1002 300.55 33.7802 300.55 33.4902C300.55 32.8102 301.27 32.1902 302.06 32.1902C302.31 32.1902 302.56 32.2302 302.78 32.3702C303.54 32.8002 304.8 34.3502 305.16 35.1802C305.3 35.4702 305.34 35.7202 305.34 35.9702C305.34 36.8702 304.58 37.5202 303.86 37.5202C303.39 37.5202 302.89 37.2302 302.64 36.6202ZM312.61 51.8402C312.32 51.9502 312.03 51.9802 311.78 51.9802C310.7 51.9802 310.05 51.1902 310.05 50.3602C310.05 49.7102 310.48 49.0602 311.42 48.8502C314.62 48.0902 317.97 47.1202 321.21 46.1102V43.1602C321.21 38.5902 321.14 34.1302 321.07 29.8802V29.8402C321.07 28.7602 321.93 28.2202 322.76 28.2202C323.66 28.2202 324.52 28.7602 324.52 29.8002V29.8702C324.41 33.5102 324.38 37.3902 324.38 41.3502V45.0602C325.57 44.6302 326.76 44.2302 327.91 43.8002C328.16 43.6902 328.41 43.6602 328.63 43.6602C329.64 43.6602 330.25 44.4502 330.25 45.2802C330.25 45.9302 329.85 46.5802 328.92 46.8302C327.48 47.2302 325.97 47.6602 324.42 48.1302C324.46 50.9002 324.49 53.6402 324.56 56.3402V56.3802C324.56 57.5702 323.62 58.1802 322.72 58.1802C321.82 58.1802 321.03 57.6402 321.03 56.4202V56.3502C321.1 53.9702 321.14 51.5302 321.17 49.1102C318.25 50.0102 315.3 50.9502 312.6 51.8502L312.61 51.8402ZM317.4 43.9602C316.21 42.9502 315.1 42.5902 314.16 42.3402C313.48 42.1602 313.19 41.6602 313.19 41.1202C313.19 40.3602 313.8 39.5702 314.85 39.5702C314.99 39.5702 315.14 39.5702 315.28 39.6102C316.54 39.8602 318.27 40.4702 319.28 41.3002C319.78 41.7302 319.96 42.2002 319.96 42.6702C319.96 43.5702 319.24 44.3602 318.41 44.3602C318.09 44.3602 317.73 44.2502 317.4 43.9602ZM317.51 37.1202C316.79 36.2602 315.64 35.5702 314.74 35.2102C314.09 34.9202 313.8 34.4502 313.8 33.9902C313.8 33.2702 314.41 32.5902 315.38 32.5902C315.6 32.5902 315.85 32.6302 316.1 32.7002C317.14 32.9902 318.94 33.9202 319.81 34.8602C320.17 35.2602 320.31 35.6502 320.31 36.0502C320.31 36.9502 319.52 37.7402 318.69 37.7402C318.29 37.7402 317.86 37.5602 317.5 37.1302L317.51 37.1202Z" fill="white"/>
<path d="M339.26 36.8301C338.22 36.8301 337.71 36.1501 337.71 35.4301C337.71 34.6401 338.29 33.8501 339.29 33.8501H339.33C340.95 33.9201 342.46 33.9601 343.97 33.9601C345.88 33.9601 347.75 33.8901 349.73 33.8201H349.8C350.77 33.8201 351.24 34.5801 351.24 35.3301C351.24 36.0801 350.77 36.8401 349.8 36.8401H349.73C348.11 36.7701 346.53 36.7301 344.94 36.7301C343.14 36.7301 341.3 36.7701 339.32 36.8401H339.25L339.26 36.8301ZM349.59 52.3801C349.59 52.8101 349.55 53.2101 349.55 53.7101C349.41 55.8301 348.15 57.2701 345.59 57.4501C345.05 57.4901 344.73 57.5201 344.4 57.5201C344.07 57.5201 343.75 57.4801 343.25 57.4501C341.16 57.3101 339.69 55.9401 339.58 53.7801C339.54 53.1001 339.51 52.7001 339.51 52.2701C339.51 51.9801 339.55 51.6901 339.55 51.2601C339.69 48.9601 341.28 47.6601 343.37 47.5201C343.84 47.4801 344.13 47.4801 344.45 47.4801C344.77 47.4801 345.13 47.4801 345.71 47.5201C347.83 47.6601 349.42 48.8501 349.56 51.0501C349.56 51.5901 349.6 51.9901 349.6 52.3801H349.59ZM347.64 29.3501C348.58 29.3501 349.04 30.0701 349.04 30.7901C349.04 31.5101 348.61 32.1901 347.67 32.1901H347.6C346.23 32.1501 345.33 32.1501 344.47 32.1501C343.61 32.1501 342.81 32.1501 341.7 32.1901H341.63C340.66 32.1901 340.19 31.5401 340.19 30.8201C340.19 30.1001 340.69 29.3401 341.67 29.3401H341.71C342.93 29.4101 343.73 29.4101 344.55 29.4101C345.37 29.4101 346.24 29.4101 347.61 29.3401H347.65L347.64 29.3501ZM347.61 41.3301C346.24 41.2901 345.34 41.2901 344.48 41.2901C343.62 41.2901 342.82 41.2901 341.71 41.3301H341.64C340.67 41.3301 340.2 40.6501 340.2 39.9601C340.2 39.2401 340.7 38.4801 341.64 38.4801H341.71C343.08 38.5201 343.91 38.5501 344.81 38.5501C345.57 38.5501 346.39 38.5101 347.62 38.4801H347.69C348.63 38.4801 349.06 39.2001 349.06 39.9201C349.06 40.6401 348.63 41.3201 347.69 41.3201H347.62L347.61 41.3301ZM347.61 45.7601C346.39 45.7201 345.52 45.6901 344.73 45.6901C343.79 45.6901 342.97 45.7301 341.71 45.7601H341.64C340.67 45.7601 340.2 45.0801 340.2 44.3901C340.2 43.6701 340.7 42.9101 341.64 42.9101H341.71C343.08 42.9501 343.91 42.9801 344.81 42.9801C345.57 42.9801 346.39 42.9401 347.62 42.9101H347.69C348.63 42.9101 349.06 43.6301 349.06 44.3501C349.06 45.0701 348.63 45.7501 347.69 45.7501H347.62L347.61 45.7601ZM346.71 53.5001C346.75 53.1401 346.75 52.8201 346.75 52.4901C346.75 52.1601 346.75 51.8401 346.71 51.4501C346.67 50.8401 346.24 50.1201 345.27 50.0501C344.98 50.0101 344.8 49.9801 344.59 49.9801C344.38 49.9801 344.16 50.0201 343.83 50.0501C343.04 50.1201 342.5 50.7001 342.43 51.4901C342.39 51.8901 342.36 52.1701 342.36 52.5001C342.36 52.7901 342.4 53.1101 342.43 53.5101C342.5 54.3701 343.15 54.7701 343.69 54.8801C344.01 54.9501 344.3 54.9501 344.55 54.9501C344.84 54.9501 345.13 54.9501 345.45 54.8801C346.17 54.7401 346.67 54.2301 346.71 53.5101V53.5001ZM360.28 38.8101C362.87 38.7701 365.43 38.7401 367.84 38.6701H367.88C368.78 38.6701 369.25 39.2801 369.25 39.9301C369.25 40.5401 368.78 41.1901 367.88 41.1901H367.84C365.36 41.1201 362.62 41.0801 359.78 41.0801C356.94 41.0801 353.98 41.1201 351.11 41.1901H351.07C350.17 41.1901 349.74 40.5801 349.74 39.9301C349.74 39.2801 350.17 38.6701 351.07 38.6701H351.11C353.16 38.7401 355.29 38.7801 357.41 38.8101V37.3301C356.19 37.3301 354.96 37.3701 353.59 37.4001H353.55C352.72 37.4001 352.33 36.8201 352.33 36.2801C352.33 35.6701 352.76 35.0901 353.55 35.0901H353.59C354.92 35.1301 356.18 35.1601 357.41 35.1601C357.41 34.7601 357.37 34.3301 357.37 33.9001L352.19 33.9701H352.15C351.25 33.9701 350.82 33.3601 350.82 32.7501C350.82 32.1001 351.29 31.4501 352.15 31.4501H352.19C353.74 31.5201 355.5 31.5601 357.34 31.5601C357.3 30.8001 357.3 30.0501 357.3 29.3601V29.2901C357.3 28.2801 358.06 27.8101 358.81 27.8101C359.56 27.8101 360.36 28.3101 360.36 29.2901V29.3601L360.29 31.5601C362.34 31.5601 364.32 31.5601 365.87 31.4901H365.91C366.77 31.4901 367.17 32.1001 367.17 32.7101C367.17 33.3601 366.74 33.9701 365.91 33.9701H365.87C364.11 33.9301 362.2 33.9001 360.29 33.9001V35.1601C361.59 35.1601 362.92 35.1201 364.5 35.0901H364.54C365.37 35.0901 365.8 35.6701 365.8 36.2401C365.8 36.8101 365.37 37.3901 364.54 37.3901H364.5C362.92 37.3501 361.58 37.3201 360.29 37.3201V38.8001L360.28 38.8101ZM365.1 53.0301V53.1401C365.1 55.4801 363.88 58.1801 360.6 58.1801C360.42 58.1801 360.2 58.1401 360.02 58.1401C359.01 58.0701 358.54 57.3501 358.54 56.6601C358.54 55.9401 359.01 55.2601 359.87 55.2601H360.19C361.34 55.2601 362.13 54.5401 362.17 52.7401V52.3101C361.09 52.3101 359.94 52.2701 358.82 52.2701C357.7 52.2701 356.55 52.3101 355.58 52.3101C355.58 53.9301 355.58 55.5101 355.54 56.8801C355.5 57.8201 354.75 58.3201 353.99 58.3201C353.23 58.3201 352.59 57.8501 352.59 56.9201V56.8501C352.7 53.8301 352.77 49.5801 352.81 46.0201C352.85 43.5701 354.65 42.2001 357.17 41.9901C357.57 41.9501 358.25 41.9501 358.9 41.9501C359.51 41.9501 360.16 41.9501 360.52 41.9901C363.54 42.2801 364.91 43.7901 364.95 46.0201C364.95 47.1701 364.99 49.4401 365.02 50.3401L365.09 53.0401L365.1 53.0301ZM362.22 48.5701C360.92 48.5301 359.59 48.5001 358.3 48.5001C357.4 48.5001 356.46 48.5401 355.6 48.5401V50.1201H362.22V48.5701ZM362.15 46.3001C362.11 45.3301 361.43 44.5401 360.24 44.3901C359.84 44.3501 359.34 44.3501 358.8 44.3501C358.3 44.3501 357.76 44.3501 357.43 44.3901C356.39 44.5001 355.67 45.2501 355.63 46.2301V46.3701H362.15V46.3001Z" fill="white"/>
<path d="M382.38 43.0298C381.26 42.7398 380.83 42.1298 380.83 41.4798C380.83 40.6898 381.55 39.9298 382.63 39.9298C382.88 39.9298 383.17 39.9698 383.46 40.0698L386.16 40.9698C388.1 41.6198 389.11 42.9898 389.11 44.7898C389.11 45.3298 389.04 45.8698 388.86 46.4798C387.53 50.7298 381.98 54.6098 378.75 55.2598C378.53 55.2998 378.32 55.3298 378.14 55.3298C376.84 55.3298 376.16 54.4698 376.16 53.5998C376.16 52.8798 376.63 52.1598 377.64 51.9398C381.24 51.1498 384.8 48.3398 385.67 45.7098C385.78 45.4198 385.81 45.1298 385.81 44.8798C385.81 44.2998 385.56 43.7998 384.73 43.5798L382.39 42.9998L382.38 43.0298ZM393.9 51.0498V51.2998C393.9 53.5998 392.93 58.0698 387.35 58.0698H387.21C385.7 58.0298 385.01 57.1698 385.01 56.3398C385.01 55.5098 385.69 54.6098 386.99 54.6098H387.42C389.4 54.6098 390.55 53.2398 390.55 50.6498V50.5398C390.48 47.0498 390.48 42.5498 390.44 38.1898C387.42 38.1898 384.43 38.2598 381.23 38.3298H381.16C379.9 38.3298 379.32 37.5698 379.32 36.7798C379.32 35.9898 379.97 35.1198 381.19 35.1198H381.23C384.43 35.2298 387.42 35.2598 390.41 35.2998C390.41 33.4298 390.34 31.5898 390.3 29.9398V29.8698C390.3 28.8598 391.16 28.3198 392.03 28.3198C392.9 28.3198 393.72 28.8198 393.72 29.8998V29.9398L393.61 35.2998C396.67 35.2598 399.84 35.2298 403.29 35.1198C404.48 35.1198 405.09 35.9098 405.09 36.6998C405.09 37.4898 404.48 38.3198 403.33 38.3198H403.29C399.83 38.2498 396.67 38.1798 393.61 38.1798C393.61 41.1298 393.65 44.1198 393.79 48.0398L393.9 51.0298V51.0498ZM406 55.2298C405.86 55.2298 405.68 55.2298 405.53 55.1898C402.22 54.7198 396.71 51.2298 395.16 46.4398C394.98 45.8298 394.87 45.2498 394.87 44.7498C394.87 42.9898 395.91 41.6498 397.82 40.9698C399.22 40.4998 399.55 40.4698 400.99 39.8498C401.31 39.7098 401.67 39.6298 401.96 39.6298C402.97 39.6298 403.69 40.3898 403.69 41.1398C403.69 41.7498 403.29 42.3598 402.29 42.7198C400.92 43.1898 400.6 43.1198 399.27 43.5498C398.41 43.8398 398.12 44.3098 398.12 44.8798C398.12 45.1298 398.19 45.3798 398.26 45.6398C399.3 48.5898 402.98 51.1798 406.65 51.7898C407.66 51.9698 408.13 52.6498 408.13 53.3698C408.13 54.2698 407.41 55.2098 406.01 55.2098L406 55.2298ZM398.87 34.0598C397.93 33.0198 396.93 32.6198 396.21 32.3698C395.56 32.1498 395.27 31.6898 395.27 31.1798C395.27 30.4598 395.92 29.6698 397 29.6698C397.14 29.6698 397.29 29.6698 397.43 29.7098C398.44 29.9298 400.38 30.7898 401.25 31.7598C401.61 32.1598 401.75 32.5498 401.75 32.9498C401.75 33.8498 400.96 34.6398 400.09 34.6398C399.69 34.6398 399.26 34.4598 398.87 34.0598Z" fill="white"/>
</svg>
