<svg width="449" height="85" viewBox="0 0 449 85" fill="none" xmlns="http://www.w3.org/2000/svg">
<path d="M449 0H0V85H449V0Z" fill="#DF8F00"/>
<path d="M138.33 54.5502C134.87 54.5502 131.49 53.5802 129.76 51.8102C129.22 51.2702 129 50.6902 129 50.1902C129 49.2502 129.76 48.5302 130.69 48.5302C131.12 48.5302 131.55 48.6702 132.02 49.0002C133.96 50.3702 136.02 50.9102 138.07 50.9102C139.83 50.9102 141.6 50.5102 143.33 49.9002C143.58 49.7902 143.83 49.7602 144.09 49.7602C145.1 49.7602 145.78 50.5502 145.78 51.4502C145.78 52.2102 145.31 53.0302 144.09 53.5402C142.36 54.2202 140.35 54.5502 138.33 54.5502ZM141.06 38.9302H140.27C138.29 38.9302 134.26 38.7502 132.28 36.9902C131.74 36.5202 131.52 35.9802 131.52 35.4802C131.52 34.5802 132.28 33.8202 133.21 33.8202C133.53 33.8202 133.89 33.8902 134.22 34.1402C135.7 35.1502 137.53 35.4402 139.44 35.4402C140.05 35.4402 140.7 35.4002 141.35 35.3702H141.64C142.9 35.3702 143.58 36.1602 143.58 37.0302C143.58 37.9002 142.79 38.9002 141.06 38.9402V38.9302ZM145.99 36.7002C145.56 36.7002 145.13 36.4802 144.87 35.9102C144.8 35.7702 144.73 35.4102 144.62 35.1902C144.26 34.4302 143.86 33.8902 143.43 33.5302C143.14 33.2802 143 32.9902 143 32.6702C143 32.0902 143.5 31.5502 144.19 31.5502C144.51 31.5502 144.84 31.6902 145.2 31.9802C145.99 32.6602 146.89 34.0002 147.22 34.8202C147.29 35.0402 147.33 35.2202 147.33 35.4002C147.33 36.1602 146.68 36.7002 146 36.7002H145.99ZM148.44 34.6502C148.37 34.5102 148.3 34.1502 148.19 33.9302C147.79 33.1702 147.36 32.6702 146.93 32.3102C146.61 32.0602 146.46 31.7702 146.46 31.4502C146.46 30.9102 146.96 30.4102 147.65 30.4102C147.94 30.4102 148.26 30.5202 148.62 30.7702C149.45 31.3802 150.42 32.6402 150.71 33.5102C150.78 33.7302 150.82 33.9102 150.82 34.0902C150.82 34.8802 150.17 35.4202 149.52 35.4202C149.12 35.4202 148.69 35.2002 148.44 34.6602V34.6502Z" fill="white"/>
<path d="M179.91 34.93C179.84 36.91 179.8 38.85 179.8 40.76H180.05C180.37 40.76 180.77 40.76 181.17 40.22C181.93 39.1 182.68 37.77 183.26 36.4C183.55 35.72 184.09 35.46 184.66 35.46C185.56 35.46 186.5 36.11 186.5 37.01C186.5 37.23 186.46 37.44 186.32 37.69C185.71 38.77 184.99 39.81 184.2 40.71C186.11 40.67 188.16 40.6 190.5 40.49H190.57C191.76 40.49 192.37 41.28 192.37 42.07C192.37 42.86 191.76 43.65 190.57 43.65H190.5C186.54 43.54 183.52 43.47 180.67 43.43C183.59 47.03 187.83 50.23 193.77 52.25C194.81 52.61 195.28 53.33 195.28 54.05C195.28 55.02 194.42 55.96 193.16 55.96C192.84 55.96 192.44 55.92 192.04 55.74C187 53.72 182.93 50.48 179.84 46.71C179.91 49.41 179.98 52.18 180.16 55.35V55.46C180.16 56.58 179.3 57.12 178.43 57.12C177.56 57.12 176.74 56.58 176.74 55.46V55.35C176.88 52.15 176.99 49.3 177.03 46.64C173.86 50.42 169.79 53.73 165.22 55.78C164.75 56 164.32 56.07 163.96 56.07C162.81 56.07 162.05 55.24 162.05 54.34C162.05 53.62 162.52 52.86 163.63 52.43C167.95 50.77 172.45 47.75 176.01 43.43C173.17 43.47 170.14 43.54 166.26 43.65H166.19C165.04 43.65 164.46 42.89 164.46 42.14C164.46 41.31 165.07 40.48 166.19 40.48H166.26C168.67 40.59 170.76 40.66 172.74 40.7C172.67 40.59 172.6 40.48 172.56 40.38C171.95 39.08 171.08 38.26 170.47 37.79C170.11 37.5 169.97 37.18 169.97 36.85C169.97 36.17 170.65 35.52 171.52 35.52C171.81 35.52 172.13 35.59 172.46 35.77C173.32 36.24 174.76 37.46 175.48 38.87C175.62 39.16 175.7 39.41 175.7 39.66C175.7 40.09 175.48 40.45 175.2 40.74H177.11C177.07 38.83 177.04 36.89 176.97 34.91C173.91 34.91 171.03 34.95 168.76 35.02H168.69C167.5 35.02 166.93 34.23 166.93 33.44C166.93 32.65 167.54 31.86 168.69 31.86H168.76C171.1 31.93 173.94 31.97 176.9 31.97L176.76 28.77V28.66C176.76 27.54 177.62 27 178.45 27C179.28 27 180.18 27.54 180.18 28.66V28.77C180.11 29.89 180.07 30.93 180.04 31.97C182.78 31.97 185.48 31.93 187.92 31.86H187.99C189.14 31.86 189.72 32.65 189.72 33.44C189.72 34.23 189.14 35.02 187.99 35.02H187.92L179.93 34.91L179.91 34.93Z" fill="white"/>
<path d="M215.33 43.7498C215.58 43.6398 215.8 43.6098 216.01 43.6098C216.77 43.6098 217.34 44.1898 217.34 44.8698C217.34 45.3698 217.02 45.9098 216.3 46.2398C214.07 47.2798 210.11 48.8998 207.55 49.6198C207.3 49.6898 207.08 49.7298 206.87 49.7298C205.86 49.7298 205.32 48.9698 205.32 48.2198C205.32 47.5398 205.72 46.8498 206.65 46.6398C207.62 46.4198 208.67 46.1398 209.67 45.8498C209.92 45.7398 210.25 45.5598 210.25 44.9098C210.29 43.5098 210.29 41.0598 210.29 38.4998C209.46 38.4998 208.63 38.5398 207.84 38.5398H207.77C206.62 38.5398 206.04 37.8198 206.04 37.0998C206.04 36.3398 206.65 35.5498 207.77 35.5498H207.84C208.63 35.5898 209.46 35.6198 210.29 35.6198C210.25 33.4198 210.22 31.1898 210.22 29.2098V29.1698C210.22 28.0498 211.05 27.5098 211.84 27.5098C212.63 27.5098 213.5 28.0898 213.5 29.1998C213.46 31.2198 213.39 33.4498 213.39 35.6098C214 35.6098 214.65 35.5698 215.23 35.5398H215.3C216.42 35.5398 216.96 36.2998 216.96 37.0198C216.96 37.7798 216.38 38.5298 215.3 38.5298H215.23C214.62 38.5298 213.97 38.4898 213.36 38.4898V44.0698C213.36 44.2498 213.32 44.4298 213.29 44.6098L215.34 43.7498H215.33ZM226.06 46.8798C223.47 51.1298 218.36 54.7598 213.71 56.0598C213.46 56.1298 213.21 56.1698 212.99 56.1698C211.98 56.1698 211.48 55.4898 211.48 54.7698C211.48 54.1598 211.88 53.5498 212.67 53.3698C216.56 52.5398 220.55 50.0598 222.89 46.9598C222.53 46.9598 222.17 46.9998 221.85 46.9998C221.24 47.0398 220.84 47.1398 220.45 47.4298C218.58 49.0898 216.56 50.4498 214.69 51.2798C214.33 51.4198 214.04 51.4998 213.75 51.4998C212.85 51.4998 212.31 50.8198 212.31 50.1298C212.31 49.5898 212.6 49.0498 213.28 48.7998C216.27 47.6498 219 45.7798 221.27 42.8598L215.8 42.9698H215.76C214.75 42.9698 214.28 42.2498 214.28 41.5298C214.28 40.8098 214.75 40.0898 215.72 40.0898H215.79C218.85 40.1598 221.84 40.1998 224.9 40.1998C228.28 40.1998 231.74 40.1598 235.41 40.0598H235.48C236.49 40.0598 236.96 40.7798 236.96 41.4998C236.96 42.2198 236.49 42.9398 235.48 42.9398H235.41C231.49 42.8698 227.92 42.8298 224.5 42.8298C224.07 43.4398 223.64 44.0498 223.13 44.6298C224.28 44.5898 225.58 44.5898 226.84 44.5898C227.78 44.5898 228.71 44.5898 229.61 44.6298C232.42 44.7698 234.33 46.4298 234.4 49.0598V49.2798C234.4 54.7898 230.87 57.0498 227.27 57.0498C227.05 57.0498 226.84 57.0098 226.62 57.0098C225.47 56.9398 224.93 56.1798 224.93 55.4598C224.93 54.7398 225.47 54.0198 226.41 54.0198H226.63C226.85 54.0598 227.06 54.0598 227.24 54.0598C229.51 54.0598 231.42 52.5098 231.42 49.4198V49.0198C231.35 48.2998 230.99 47.6898 230.34 47.3298C228.29 51.9398 224.69 55.3898 220.8 56.8998C220.48 57.0398 220.19 57.0798 219.94 57.0798C219 57.0798 218.46 56.3598 218.46 55.6798C218.46 55.1398 218.75 54.5998 219.43 54.3498C223.03 53.0198 225.66 50.8898 227.6 46.8998H226.05L226.06 46.8798ZM226.78 38.8598C226.2 38.9298 225.52 38.9298 224.8 38.9298C224.08 38.9298 223.36 38.9298 222.75 38.8598C220.23 38.6098 218.86 37.0998 218.65 35.2598C218.58 34.7198 218.58 33.9298 218.58 33.2098C218.58 32.5998 218.58 32.0198 218.62 31.6598C218.8 29.5398 220.35 27.8798 222.83 27.6998C223.55 27.6598 224.13 27.6598 224.74 27.6598C225.32 27.6598 225.89 27.6598 226.58 27.6998C229.14 27.8798 230.83 29.3198 231.01 31.6198C231.05 32.2998 231.08 32.9498 231.08 33.5598C231.08 34.0998 231.04 34.5998 231.01 35.1398C230.83 37.1198 229.28 38.5598 226.8 38.8498L226.78 38.8598ZM228.18 31.8398C228.11 30.7198 227.35 30.2198 226.34 30.1098C225.87 30.0698 225.22 30.0398 224.61 30.0398C224.07 30.0398 223.57 30.0798 223.13 30.1098C222.12 30.2198 221.4 30.7198 221.33 31.8398C221.33 31.9498 221.29 32.0198 221.29 32.1298H228.17V31.8398H228.18ZM221.38 35.0098C221.49 35.8398 222.06 36.4498 223.04 36.5598C223.58 36.6298 224.26 36.6698 224.95 36.6698C225.53 36.6698 226.1 36.6298 226.53 36.5598C227.5 36.4198 228.11 35.9498 228.19 34.9798C228.19 34.8398 228.23 34.6598 228.23 34.4798C227.08 34.4798 225.93 34.4398 224.74 34.4398C223.55 34.4398 222.4 34.4798 221.32 34.4798L221.39 35.0198L221.38 35.0098Z" fill="white"/>
<path d="M265.52 49.7297V49.9497C265.52 54.4097 262.1 56.9697 258.18 56.9697H257.86C256.42 56.9297 255.77 56.0697 255.77 55.2097C255.77 54.3497 256.42 53.5897 257.53 53.5897H258.11C259.91 53.5897 262.07 52.6197 262.11 49.0897C262.11 48.2297 262.15 47.3997 262.15 46.5697C262.15 44.8797 262.11 43.2197 262.01 41.5697C258.66 41.6397 255.28 41.7097 253.08 41.7097C252.43 41.7097 251.86 41.6697 251.46 41.6697C250.38 41.6297 249.84 40.9097 249.84 40.1897C249.84 39.4697 250.42 38.7497 251.46 38.7497H251.53C252.11 38.7897 253.01 38.7897 254.05 38.7897C256.43 38.7897 259.7 38.7497 262.9 38.7197C261.64 37.7097 260.13 36.9197 258.62 36.4197C257.94 36.1997 257.65 35.7397 257.65 35.2697C257.65 34.5097 258.33 33.7197 259.34 33.7197C259.48 33.7197 259.63 33.7597 259.81 33.7897C261.32 34.1897 263.01 34.9097 264.42 35.8097L264.74 35.6697C265.89 35.2697 267.26 34.5497 268.16 33.6197C268.41 33.3697 268.52 33.0397 268.52 32.7597C268.52 32.2897 268.2 31.8597 267.33 31.8197C266.72 31.7797 265.96 31.7797 265.17 31.7797C262.22 31.7797 258.37 31.9597 256.06 31.9597H255.63C254.48 31.9597 253.9 31.1697 253.9 30.4497C253.9 29.6897 254.44 28.9697 255.56 28.9697H257.18C259.12 28.9697 261.61 28.9297 264.02 28.9297C265.39 28.9297 266.79 28.9297 268.02 28.9997C270.83 29.1397 272.16 30.7597 272.16 32.5297C272.16 33.5697 271.69 34.6497 270.76 35.5197C269.75 36.4197 268.49 37.3897 266.87 37.9997C267.01 38.2197 267.12 38.4697 267.16 38.6797C269.61 38.6797 271.8 38.6797 272.81 38.7197C275.65 38.8297 276.99 40.5197 276.99 42.3897C276.99 43.3997 276.63 44.4097 275.91 45.3097C274.58 46.9297 272.42 48.4397 270.4 48.8697C270.22 48.9097 270.04 48.9097 269.9 48.9097C268.75 48.9097 268.06 48.0497 268.06 47.2197C268.06 46.5697 268.46 45.9197 269.43 45.7397C270.94 45.4197 272.31 44.6197 273.25 43.4397C273.47 43.1497 273.57 42.8597 273.57 42.5797C273.57 41.9997 273.17 41.4997 272.31 41.4597H271.05C269.75 41.4597 267.74 41.4597 265.47 41.4997C265.43 42.2897 265.43 43.1197 265.43 43.8797C265.43 45.3597 265.47 46.5397 265.47 46.5397L265.54 49.7397L265.52 49.7297Z" fill="white"/>
<path d="M291.15 54.4797C290.29 54.4797 289.53 53.8297 289.53 53.0797C289.53 52.7197 289.71 52.3197 290.07 51.9597C291.29 50.7697 292.34 48.8597 292.7 47.0997C292.84 46.3397 293.42 45.9797 294.03 45.9797C294.82 45.9797 295.65 46.5597 295.65 47.4897C295.65 47.5997 295.65 47.7397 295.61 47.8497C295.29 49.5397 293.7 52.7797 292.33 54.0097C291.97 54.3297 291.54 54.4797 291.14 54.4797H291.15ZM299.5 43.8297V46.1697C299.5 48.4697 299.5 50.9197 299.68 55.2797V55.3897C299.68 56.5097 298.85 57.0497 298.02 57.0497C297.19 57.0497 296.36 56.5097 296.36 55.3597V55.2897C296.54 49.7097 296.61 47.1197 296.65 44.0997C295.14 44.2097 293.66 44.3497 292.76 44.3497H292.69C291.57 44.3497 291.07 43.6697 291.07 42.9797C291.07 42.2597 291.61 41.5797 292.51 41.5797H292.62C292.76 41.5797 292.91 41.6197 293.05 41.6197H293.12C293.62 41.6197 293.98 41.2997 294.24 40.9697L294.74 40.3197C294.85 40.0697 294.88 39.9197 294.88 39.7797C294.88 39.5597 294.81 39.4197 294.7 39.2797L294.16 38.8497C292.97 37.8797 292.47 36.7597 292.47 35.6797C292.47 34.8497 292.76 34.0597 293.19 33.2997C294.16 31.6097 295.03 29.9197 295.57 28.5097C295.86 27.7497 296.47 27.4297 297.08 27.4297C297.87 27.4297 298.66 27.9697 298.66 28.7997C298.66 29.0197 298.59 29.2697 298.48 29.5197C297.65 31.3197 296.86 32.7197 295.82 34.2697C295.57 34.6297 295.46 35.0297 295.46 35.3897C295.46 35.9297 295.71 36.4697 296.29 36.8297C296.47 36.9697 296.65 37.0797 296.79 37.2297C297.98 35.3597 299.09 33.4097 299.74 31.9397C300.03 31.2897 300.53 31.0397 301.07 31.0397C301.9 31.0397 302.73 31.6497 302.73 32.5197C302.73 32.7397 302.66 32.9897 302.55 33.2397C301.51 35.3597 299.02 38.9597 297.04 41.5497C297.98 41.5097 298.84 41.4397 299.52 41.4097C300.13 41.3697 300.49 41.0097 300.49 40.6497V40.5397L300.06 39.9597C299.81 39.6697 299.66 39.3797 299.66 39.0997C299.66 38.4497 300.38 37.9497 301.06 37.9497C301.35 37.9497 301.64 38.0597 301.89 38.2397L302.36 38.7397V38.5597C302.36 38.1997 302.5 37.8797 302.9 37.4397C304.59 35.6397 305.92 32.7997 307.18 28.8397C307.43 28.1197 308.01 27.7997 308.62 27.7997C309.45 27.7997 310.31 28.3797 310.31 29.3097C310.31 29.4897 310.27 29.6697 310.2 29.8897C309.77 31.0797 309.23 32.3697 308.65 33.5997C309.33 33.5297 310.13 33.4897 310.99 33.4897C311.6 33.4897 312.21 33.4897 312.83 33.5297C316.65 33.7497 318.63 35.9397 318.95 38.8597C319.06 39.9797 319.13 41.1597 319.13 42.3197C319.13 49.2997 316.79 56.3597 309.81 56.3597H309.34C308.19 56.3197 307.68 55.5697 307.68 54.8097C307.68 54.0497 308.26 53.2297 309.34 53.2297H309.77C314.56 53.2297 315.96 47.2197 315.96 42.3197C315.96 41.2797 315.89 40.2997 315.78 39.4397C315.56 37.5297 314.52 36.5597 312.32 36.3797C311.74 36.3397 311.17 36.3097 310.59 36.3097C309.87 36.3097 309.15 36.3497 308.43 36.3797C307.57 36.4497 307.06 36.7797 306.85 36.9597C306.27 37.8997 305.7 38.7197 305.19 39.3397C304.79 39.7697 304.33 39.9497 303.86 39.9497C303.61 39.9497 303.36 39.9097 303.14 39.8097C303.79 40.8497 304.29 42.0797 304.47 42.9397C304.51 43.0797 304.51 43.1897 304.51 43.2997C304.51 44.1597 303.97 44.6997 303.32 44.8497C303.21 44.8897 303.1 44.8897 303 44.8897C302.39 44.8897 301.78 44.4897 301.63 43.5897C301.63 43.5497 301.59 43.4797 301.59 43.4497C301.52 43.2697 301.48 43.1997 301.45 43.1997C301.31 43.1997 301.02 43.7397 299.94 43.8097L299.47 43.8797L299.5 43.8297ZM302.42 51.9597C302.17 50.5597 301.34 48.7597 300.55 47.7497C300.37 47.4997 300.26 47.2097 300.26 46.9597C300.26 46.2797 300.94 45.6997 301.74 45.6997C302.14 45.6997 302.53 45.8397 302.89 46.1997C303.97 47.2397 305.16 49.7597 305.45 51.0997C305.49 51.2797 305.52 51.4597 305.52 51.5997C305.52 52.6797 304.69 53.2897 303.86 53.2897C303.21 53.2897 302.6 52.8897 302.42 51.9597ZM309.9 45.8397C309.07 44.6497 307.52 43.6097 306.59 43.1797C305.94 42.8897 305.65 42.3897 305.65 41.8797C305.65 41.1197 306.26 40.3997 307.23 40.3997C307.48 40.3997 307.73 40.4397 308.02 40.5397C309.32 40.9697 311.37 42.1597 312.38 43.4197C312.7 43.8497 312.85 44.2797 312.85 44.6797C312.85 45.6897 311.99 46.5197 311.12 46.5197C310.69 46.5197 310.22 46.2997 309.9 45.8397Z" fill="white"/>
</svg>
