<svg width="449" height="85" viewBox="0 0 449 85" fill="none" xmlns="http://www.w3.org/2000/svg">
<path d="M449 0H0V85H449V0Z" fill="#2998AE"/>
<path d="M71.81 45.22C71.41 45.22 71.02 45.11 70.59 44.86C66.13 42.27 62.53 37.37 58.46 33.02C58.14 32.66 57.7 32.48 57.27 32.48C56.87 32.48 56.44 32.66 56.15 32.98C52.41 37.19 48.95 42.34 44.49 45.58C43.91 46.01 43.37 46.19 42.87 46.19C41.79 46.19 41 45.29 41 44.35C41 43.74 41.32 43.13 42.04 42.73C46.47 40.28 50.07 34.88 53.77 30.74C54.81 29.59 56 29.08 57.19 29.08C58.49 29.08 59.75 29.69 60.72 30.7C65.29 35.49 68.1 38.98 72.63 41.46C73.49 41.93 73.85 42.58 73.85 43.22C73.85 44.23 72.95 45.2 71.8 45.2L71.81 45.22ZM60.4 58.11C59.5 58.11 58.67 57.5 58.67 56.53C58.67 56.24 58.74 55.95 58.89 55.63C59.54 54.19 60.33 52.25 60.91 50.23C60.98 49.98 61.02 49.76 61.02 49.51C61.02 48.5 60.34 47.71 58.9 47.64C58.22 47.6 57.53 47.6 56.88 47.6C55.08 47.6 53.39 47.67 51.59 47.67H50.8C49.61 47.67 49.04 46.84 49.04 46.05C49.04 45.26 49.62 44.43 50.73 44.43H50.8C52.06 44.47 53.18 44.47 54.26 44.47H56.85C57.64 44.47 58.43 44.47 59.26 44.51C62.32 44.62 64.62 45.99 64.62 48.87C64.62 49.37 64.55 49.95 64.4 50.56C63.86 52.68 63.14 54.99 62.35 56.75C61.92 57.69 61.16 58.12 60.41 58.12L60.4 58.11ZM61.48 38.31C62.56 38.31 63.1 39.1 63.1 39.93C63.1 40.76 62.56 41.51 61.48 41.51H61.37C60.07 41.47 58.89 41.44 57.7 41.44C56.3 41.44 54.89 41.48 53.45 41.51H53.38C52.26 41.51 51.72 40.72 51.72 39.93C51.72 39.14 52.3 38.31 53.38 38.31H53.45C54.71 38.38 55.97 38.38 57.3 38.38C58.63 38.38 59.93 38.38 61.37 38.31H61.48Z" fill="white"/>
<path d="M97.5099 50.3L97.2899 50.44C96.6099 50.91 95.8099 51.12 95.0199 51.12C92.9699 51.12 90.9499 49.68 90.8799 46.98V46.87C90.8799 44.85 92.5699 42.91 95.0899 42.91H95.2699C96.1299 42.98 96.6699 43.09 97.0699 43.31C97.0699 42.27 97.0299 41.08 96.9999 39.6C92.6799 39.96 88.3599 40.64 84.1099 41.51C83.9299 41.55 83.7499 41.55 83.6099 41.55C82.5299 41.55 81.8799 40.79 81.8799 39.97C81.8799 39.21 82.4599 38.42 83.7199 38.24C86.1699 37.88 91.5999 37.16 96.8899 36.62C96.8499 35.68 96.7799 34.82 96.7499 34.17C96.6799 33.38 96.6399 32.95 96.5299 32.55C96.4599 32.33 96.4599 32.12 96.4599 31.94C96.4599 30.86 97.3199 30.21 98.2199 30.21C99.1199 30.21 99.9099 30.75 100.09 31.97C100.16 32.33 100.16 32.73 100.16 33.12C100.16 33.44 100.16 33.8 100.12 34.24L100.01 36.33C102.71 36.08 105.19 35.93 106.99 35.93C107.75 35.93 108.36 35.97 108.83 36C109.84 36.11 110.45 36.94 110.45 37.73C110.45 38.52 109.84 39.28 108.43 39.28H108.21C107.13 39.24 106.05 39.24 105.01 39.24C103.32 39.24 101.66 39.28 99.9699 39.38C99.9699 41.72 100.04 43.92 100.04 44.71V45.21C100.72 46.18 100.98 47.33 100.98 48.49C100.98 49.97 100.55 51.44 99.9399 52.34C98.1399 55 94.5799 57.6 89.8999 58.24C89.7899 58.24 89.6499 58.28 89.5399 58.28C88.5299 58.28 87.9899 57.6 87.9899 56.88C87.9899 56.23 88.4599 55.58 89.4699 55.44C93.9299 54.76 96.0599 52.52 97.2799 50.69L97.4999 50.29L97.5099 50.3ZM95.2099 45.47C94.1999 45.47 93.6999 46.08 93.6999 46.87V47.01C93.7699 47.77 94.4199 48.27 95.1399 48.27C95.3599 48.27 95.6099 48.23 95.8199 48.13C96.6799 47.77 96.8999 47.16 97.0099 46.33C96.5399 45.79 95.9299 45.47 95.2099 45.47Z" fill="white"/>
<path d="M125.09 40.2899C124.44 41.0499 124.08 41.7999 124.08 42.5899C124.08 43.3099 124.37 44.0699 125.05 44.8599C127.39 47.5999 129.8 51.3399 130.67 54.7599C130.74 55.0499 130.78 55.3399 130.78 55.6199C130.78 56.9899 129.84 57.8199 128.87 57.8199C128.04 57.8199 127.18 57.2099 126.89 55.7699C126.31 52.7499 124.23 49.1799 122.39 46.8399C121.24 45.3599 120.73 44.0299 120.73 42.7699C120.73 41.3699 121.34 39.9999 122.49 38.4899C123.68 36.9799 124.87 35.4299 125.59 34.3499C126.2 33.4899 126.56 32.9099 126.99 31.9699C127.39 31.1799 128.07 30.8199 128.75 30.8199C129.72 30.8199 130.69 31.4999 130.69 32.5799C130.69 32.9399 130.58 33.2999 130.33 33.7299C129.93 34.3399 129.75 34.5899 128.96 35.5999L125.07 40.2799L125.09 40.2899ZM132.43 40.7899C132 40.7899 131.57 40.5699 131.31 40.0299C131.24 39.8499 131.17 39.4899 131.06 39.2699C130.7 38.5099 130.3 37.9699 129.87 37.6099C129.55 37.3599 129.44 37.0299 129.44 36.7499C129.44 36.1699 129.94 35.6299 130.63 35.6299C130.95 35.6299 131.28 35.7699 131.64 36.0599C132.4 36.7399 133.3 38.0799 133.66 38.8999C133.73 39.1199 133.77 39.2999 133.77 39.4799C133.77 40.2399 133.12 40.7799 132.44 40.7799L132.43 40.7899ZM134.92 38.7399C134.85 38.5999 134.74 38.2399 134.63 38.0199C134.23 37.2599 133.84 36.7599 133.41 36.3999C133.09 36.1499 132.94 35.8599 132.94 35.5399C132.94 34.9999 133.44 34.4999 134.13 34.4999C134.42 34.4999 134.74 34.6099 135.1 34.8599C135.89 35.4699 136.86 36.7299 137.19 37.5999C137.26 37.8199 137.3 37.9999 137.3 38.1799C137.3 38.9699 136.65 39.5099 136 39.5099C135.6 39.5099 135.17 39.2899 134.92 38.7499V38.7399Z" fill="white"/>
<path d="M175.38 47.2H175.42C176.46 47.2 177 47.92 177 48.68C177 49.44 176.46 50.16 175.38 50.12C170.84 50.05 166.38 50.01 161.85 50.01C157.32 50.01 152.78 50.05 148.14 50.12H148.1C146.98 50.12 146.44 49.44 146.44 48.72C146.44 47.96 147.05 47.17 148.13 47.21L153.39 47.32C153.43 46.06 153.43 44.66 153.43 43.25C152.6 43.25 151.77 43.29 150.91 43.29H150.87C149.72 43.29 149.18 42.57 149.18 41.85C149.18 41.09 149.79 40.3 150.91 40.34L153.43 40.41V36.88C152.67 37.6 151.92 38.25 151.27 38.75C150.87 39.04 150.48 39.15 150.12 39.15C149.22 39.15 148.43 38.43 148.43 37.6C148.43 37.13 148.68 36.63 149.33 36.2C151.92 34.51 153.97 32.1 155.56 29.32C155.88 28.74 156.42 28.49 156.93 28.49C157.83 28.49 158.69 29.17 158.69 30.07C158.69 30.36 158.62 30.65 158.4 30.97C157.93 31.65 157.36 32.41 156.71 33.2C158.19 33.24 159.7 33.24 161.25 33.24C164.35 33.24 167.69 33.2 171.8 33.1H171.84C172.96 33.1 173.5 33.82 173.5 34.58C173.5 35.34 172.92 36.06 171.81 36.02C171.16 36.02 170.59 36.02 169.97 35.98C169.97 37.24 169.93 38.79 169.93 40.41L172.7 40.34H172.74C173.86 40.34 174.4 41.06 174.4 41.82C174.4 42.58 173.82 43.33 172.71 43.3C171.77 43.3 170.84 43.26 169.94 43.26C169.94 44.66 169.98 46.07 169.98 47.33L175.42 47.22L175.38 47.2ZM149.9 58.18C148.86 58.18 148.1 57.39 148.1 56.56C148.1 56.02 148.46 55.41 149.32 55.01C150.65 54.4 151.77 53.5 152.42 51.99C152.67 51.34 153.25 51.09 153.82 51.09C154.68 51.09 155.58 51.74 155.58 52.67C155.58 52.85 155.54 53.07 155.47 53.28C154.75 55.19 152.59 57.31 150.79 58C150.47 58.11 150.18 58.18 149.89 58.18H149.9ZM156.09 35.9C156.09 37.2 156.05 38.78 156.05 40.4C156.73 40.4 157.42 40.44 158.07 40.44C158.07 38.82 158.07 37.24 158.03 35.9H156.09ZM158.03 47.35C158.07 46.05 158.07 44.65 158.07 43.17C157.42 43.17 156.74 43.21 156.05 43.21C156.05 44.65 156.09 46.05 156.09 47.35H158.03ZM159.07 57.82C158.31 57.82 157.63 57.35 157.63 56.34V56.2C157.67 55.91 157.67 55.62 157.67 55.37C157.67 54.25 157.49 53.53 157.17 52.6C157.13 52.46 157.1 52.35 157.1 52.2C157.1 51.48 157.86 51.05 158.61 51.05C159.26 51.05 159.91 51.34 160.16 51.99C160.63 53.11 160.88 54.19 160.88 55.55V56.09C160.84 57.21 159.94 57.82 159.08 57.82H159.07ZM162.64 40.43C162.64 38.81 162.64 37.23 162.6 35.89H160.69C160.69 37.15 160.65 38.77 160.65 40.43H162.63H162.64ZM162.6 47.35C162.64 46.05 162.64 44.65 162.64 43.17H160.66C160.66 44.61 160.7 46.05 160.7 47.35H162.61H162.6ZM164.22 56.6C163.86 54.84 163.36 53.97 162.67 52.93C162.53 52.71 162.45 52.5 162.45 52.28C162.45 51.63 163.17 51.13 163.96 51.13C164.46 51.13 165.04 51.31 165.47 51.81C166.19 52.64 166.98 54.01 167.38 55.7C167.42 55.88 167.42 56.02 167.42 56.17C167.42 57.25 166.56 57.9 165.69 57.9C165.04 57.9 164.39 57.5 164.21 56.6H164.22ZM167.25 35.93C166.57 35.93 165.92 35.89 165.27 35.89C165.27 37.19 165.23 38.81 165.23 40.43C165.91 40.43 166.6 40.39 167.28 40.39C167.28 38.81 167.28 37.26 167.24 35.93H167.25ZM167.25 47.35C167.29 46.05 167.29 44.65 167.29 43.21C166.61 43.21 165.92 43.17 165.24 43.17C165.24 44.61 165.28 46.05 165.28 47.35H167.26H167.25ZM171.96 56.88C171.06 55.37 169.84 54.14 168.54 53.24C168.18 52.99 168 52.63 168 52.3C168 51.62 168.68 50.97 169.62 50.97C169.98 50.97 170.34 51.04 170.74 51.26C172.11 51.98 173.91 53.49 174.77 54.82C175.02 55.18 175.09 55.54 175.09 55.9C175.09 56.91 174.19 57.7 173.29 57.7C172.79 57.7 172.28 57.45 171.96 56.87V56.88Z" fill="white"/>
<path d="M194.54 41.48V43.14C194.76 43 195.01 42.92 195.26 42.92C195.4 42.92 195.58 42.96 195.73 42.99C196.81 43.42 198.36 44.75 198.86 45.55C199.04 45.84 199.11 46.13 199.11 46.38C199.11 47.24 198.35 47.96 197.6 47.96C197.2 47.96 196.81 47.74 196.52 47.28C195.94 46.38 195.22 45.66 194.54 45.16C194.58 48.29 194.65 51.82 194.79 56.53V56.6C194.79 57.61 193.96 58.15 193.1 58.15C192.24 58.15 191.44 57.61 191.44 56.6V56.53C191.55 52.57 191.62 49.37 191.66 46.52C190.33 48.54 188.89 50.12 187.27 51.38C186.84 51.7 186.37 51.85 185.97 51.85C185.11 51.85 184.42 51.17 184.42 50.37C184.42 49.9 184.67 49.4 185.28 48.97C187.33 47.6 189.13 45.66 190.93 43.28C191.36 42.67 191.61 42.02 191.69 41.48C190.47 41.48 189.21 41.55 187.91 41.59H187.8C186.68 41.59 186.18 40.91 186.18 40.19C186.18 39.43 186.76 38.68 187.84 38.68H187.91C189.28 38.75 190.5 38.79 191.69 38.79C191.65 36.13 191.58 33.32 191.47 29.94V29.87C191.47 28.9 192.3 28.39 193.13 28.39C193.96 28.39 194.79 28.89 194.79 29.87V29.94C194.72 32.06 194.65 33.9 194.61 35.63C195.11 34.95 195.91 33.69 196.34 32.82C196.59 32.32 197.06 32.1 197.49 32.1C198.25 32.1 199 32.68 199 33.47C199 33.72 198.93 33.97 198.78 34.26C198.24 35.12 197.23 36.46 196.44 37.25C196.15 37.57 195.79 37.72 195.43 37.72C195.11 37.72 194.78 37.61 194.57 37.4C194.57 37.87 194.53 38.34 194.53 38.8L197.59 38.69H197.66C198.74 38.69 199.24 39.41 199.24 40.13C199.24 40.85 198.7 41.61 197.69 41.61H197.58L194.52 41.5L194.54 41.48ZM188.88 36.62C188.52 35.76 187.58 34.71 187.22 34.39C186.9 34.1 186.79 33.78 186.79 33.49C186.79 32.81 187.51 32.19 188.3 32.19C188.55 32.19 188.8 32.23 189.02 32.37C189.78 32.8 191.04 34.35 191.4 35.18C191.54 35.47 191.58 35.72 191.58 35.97C191.58 36.87 190.82 37.52 190.1 37.52C189.63 37.52 189.13 37.23 188.88 36.62ZM198.85 51.84C198.56 51.95 198.27 51.98 198.02 51.98C196.94 51.98 196.29 51.19 196.29 50.36C196.29 49.71 196.72 49.06 197.66 48.85C200.86 48.09 204.21 47.12 207.45 46.11V43.16C207.45 38.59 207.38 34.13 207.31 29.88V29.84C207.31 28.76 208.17 28.22 209 28.22C209.9 28.22 210.76 28.76 210.76 29.8V29.87C210.65 33.51 210.62 37.39 210.62 41.35V45.06C211.81 44.63 213 44.23 214.15 43.8C214.4 43.69 214.65 43.66 214.87 43.66C215.88 43.66 216.49 44.45 216.49 45.28C216.49 45.93 216.09 46.58 215.16 46.83C213.72 47.23 212.21 47.66 210.66 48.13C210.7 50.9 210.73 53.64 210.8 56.34V56.38C210.8 57.57 209.86 58.18 208.96 58.18C208.06 58.18 207.27 57.64 207.27 56.42V56.35C207.34 53.97 207.38 51.53 207.41 49.11C204.49 50.01 201.54 50.95 198.84 51.85L198.85 51.84ZM203.64 43.96C202.45 42.95 201.34 42.59 200.4 42.34C199.72 42.16 199.43 41.66 199.43 41.12C199.43 40.36 200.04 39.57 201.09 39.57C201.23 39.57 201.38 39.57 201.52 39.61C202.78 39.86 204.51 40.47 205.52 41.3C206.02 41.73 206.2 42.2 206.2 42.67C206.2 43.57 205.48 44.36 204.65 44.36C204.33 44.36 203.97 44.25 203.64 43.96ZM203.75 37.12C203.03 36.26 201.88 35.57 200.98 35.21C200.33 34.92 200.04 34.45 200.04 33.99C200.04 33.27 200.65 32.59 201.62 32.59C201.84 32.59 202.09 32.63 202.34 32.7C203.38 32.99 205.18 33.92 206.05 34.86C206.41 35.26 206.55 35.65 206.55 36.05C206.55 36.95 205.76 37.74 204.93 37.74C204.53 37.74 204.1 37.56 203.74 37.13L203.75 37.12Z" fill="white"/>
<path d="M227.19 41.59H226.94C225.75 41.59 224.96 40.69 224.96 39.79C224.96 38.96 225.61 38.13 227.08 37.95C227.76 37.88 228.59 37.66 229.06 37.52C231.11 36.94 233.96 35.83 236.29 34.93C237.23 34.57 238.45 34.07 239.6 33.67C242.44 32.77 243.88 32.41 245.75 32.3H246C247.33 32.3 247.98 33.13 247.98 33.96C247.98 34.9 247.22 35.87 245.75 35.87H245.21C243.3 35.87 239.81 36.37 238.51 37.85C237.61 38.86 237.18 40.33 237.18 41.95C237.18 45.98 239.7 51.09 243.41 53.43C244.49 54.08 244.92 54.94 244.92 55.66C244.92 56.6 244.2 57.39 243.08 57.39C242.4 57.39 241.57 57.1 240.7 56.38C236.92 53.28 234.18 47.31 234.18 42.49C234.18 41.23 234.36 40.04 234.76 39C234.83 38.82 234.87 38.68 234.87 38.6C234.87 38.6 234.857 38.5867 234.83 38.56C234.83 38.56 234.72 38.6 234.61 38.63C233.13 39.24 231.23 40.32 229.46 40.93C228.6 41.18 227.91 41.47 227.16 41.58L227.19 41.59ZM249 32.16C248.53 32.16 248.1 31.94 247.88 31.37C247.81 31.19 247.74 30.83 247.63 30.61C247.27 29.82 246.91 29.28 246.48 28.92C246.19 28.67 246.05 28.38 246.05 28.09C246.05 27.51 246.59 26.97 247.24 26.97C247.56 26.97 247.89 27.11 248.25 27.4C249.04 28.12 249.91 29.45 250.23 30.28C250.3 30.5 250.34 30.68 250.34 30.86C250.34 31.62 249.66 32.16 249.01 32.16H249ZM251.66 30.32C251.59 30.14 251.52 29.78 251.41 29.6C251.05 28.81 250.65 28.3 250.22 27.94C249.9 27.69 249.75 27.36 249.75 27.08C249.75 26.54 250.25 26 250.94 26C251.23 26 251.59 26.11 251.91 26.4C252.74 27.05 253.67 28.31 253.96 29.17C254.03 29.35 254.07 29.53 254.07 29.71C254.07 30.5 253.42 31.08 252.74 31.08C252.34 31.08 251.91 30.86 251.66 30.32Z" fill="white"/>
<path d="M275.32 53.5401C274.42 53.5401 273.59 53.5001 272.58 53.4301C273.19 53.6501 273.62 54.2601 273.62 54.8701C273.62 55.3401 273.37 55.8101 272.79 56.1301C270.23 57.5301 266.89 58.4001 264.08 58.6101H263.9C262.75 58.6101 262.17 57.8501 262.17 57.1001C262.17 56.3501 262.67 55.7001 263.75 55.6201C266.38 55.4001 268.97 54.7901 271.24 53.5301C271.38 53.4601 271.53 53.3901 271.71 53.3501C269.12 53.0601 267.71 51.9801 267.57 49.8901C267.5 49.1001 267.46 48.3101 267.46 47.5101C267.46 46.6101 267.5 45.7501 267.57 44.8501C267.64 43.4801 268.51 42.4401 269.87 41.8601C269.01 41.7901 268.54 41.2101 268.54 40.6001C268.54 40.3801 268.61 40.1701 268.72 39.9501C266.99 40.8101 265.48 41.4301 263.75 41.9701C263.5 42.0401 263.25 42.0801 263.03 42.0801C261.99 42.0801 261.41 41.2901 261.41 40.4601C261.41 39.8101 261.77 39.1601 262.6 38.9501C264.83 38.3401 266.78 37.6501 268.76 36.7201C268.98 36.6101 269.23 36.5801 269.41 36.5801C270.2 36.5801 270.78 37.2601 270.78 37.9801C270.78 38.4501 270.56 38.8801 270.1 39.2401C274.71 38.7701 276.58 37.0801 276.58 34.7801V34.7101C276.54 33.8501 277.37 33.4501 278.2 33.4501C279.03 33.4501 279.78 33.8501 279.78 34.6001C279.78 34.7801 279.74 34.9601 279.74 35.1401C280.24 37.6601 282.62 39.9301 289.14 40.4301C290.08 40.5001 290.58 41.2201 290.58 41.9401C290.58 42.7301 289.97 43.5601 288.71 43.5601H288.46C283.28 43.0901 280 40.8601 278.31 38.2301C277.23 39.4901 275.47 40.6101 273.13 41.2901C273.74 41.2501 274.28 41.2501 274.79 41.2501C275.73 41.2501 276.7 41.2901 278.39 41.3601C281.27 41.4701 282.96 42.8001 283.11 44.7401C283.18 45.6401 283.22 46.4701 283.22 47.3301C283.22 48.1901 283.18 49.0601 283.11 49.9601C282.93 51.8701 281.49 52.9801 279.04 53.3101C279.26 53.3501 279.44 53.4201 279.65 53.4901C281.02 54.1401 284.15 54.9701 286.6 55.0401C287.64 55.0801 288.18 55.8301 288.18 56.5501C288.18 57.3801 287.57 58.2101 286.38 58.2101H286.24C283.14 57.9601 279.98 56.9901 278.14 56.0501C277.56 55.7601 277.35 55.2901 277.35 54.8601C277.35 54.2101 277.82 53.5601 278.47 53.3801C277.17 53.4901 276.2 53.5201 275.34 53.5201L275.32 53.5401ZM267.51 34.3101C266.36 33.4501 264.81 32.8701 263.66 32.6501C262.87 32.4701 262.51 31.9301 262.51 31.3901C262.51 30.6001 263.16 29.8101 264.24 29.8101H264.31C265.43 29.8801 268.2 30.7801 269.24 31.5001C269.82 31.9001 270.07 32.4001 270.07 32.9001C270.07 33.8001 269.31 34.6601 268.45 34.6601C268.16 34.6601 267.84 34.5501 267.51 34.3001V34.3101ZM272.98 36.5801C272.55 36.9401 272.08 37.0801 271.68 37.0801C270.82 37.0801 270.13 36.4301 270.13 35.7101C270.13 35.3101 270.31 34.8801 270.78 34.5201C272.69 33.0101 273.88 30.9901 274.96 28.6901C275.21 28.1501 275.68 27.9301 276.18 27.9301C277.01 27.9301 277.91 28.5401 277.91 29.3301C277.91 29.5501 277.84 29.7601 277.73 29.9801C277.62 30.2001 277.48 30.4101 277.37 30.6601C278.38 30.6201 279.67 30.5901 281.01 30.5901C281.84 30.5901 282.7 30.5901 283.49 30.6301C285.72 30.7401 286.91 32.1101 286.91 33.6201C286.91 34.3001 286.66 35.0201 286.12 35.6401C285.54 36.3201 284.82 37.0101 284.14 37.5101C283.74 37.8001 283.38 37.9101 283.02 37.9101C282.23 37.9101 281.58 37.3001 281.58 36.6101C281.58 36.2501 281.72 35.8901 282.12 35.6001C282.66 35.1701 282.95 34.8801 283.24 34.4801C283.42 34.2601 283.49 34.0101 283.49 33.8301C283.49 33.4001 283.17 33.1101 282.59 33.0701C281.69 33.0001 280.65 33.0001 279.53 33.0001C278.67 33.0001 277.73 33.0001 276.9 33.0401C276.07 33.0801 275.71 33.4401 275.46 33.7201C274.7 34.8001 273.84 35.8101 272.98 36.5601V36.5801ZM280.14 46.7001C277.98 46.6601 276.5 46.6601 275.06 46.6601C273.62 46.6601 272.29 46.6601 270.45 46.7001V48.0001C272.32 48.0401 273.65 48.0401 275.09 48.0401C276.53 48.0401 277.97 48.0401 280.13 48.0001V46.7001H280.14ZM275.07 49.7901C273.67 49.7901 272.33 49.7901 270.57 49.8301C270.68 50.6201 271.33 51.1601 272.51 51.3101C273.3 51.3801 274.2 51.4201 275.14 51.4201C276.18 51.4201 277.26 51.3801 278.16 51.3101C279.46 51.2001 279.85 50.6301 280 49.8301C277.91 49.7901 276.47 49.7901 275.07 49.7901ZM278.09 43.4201C277.44 43.3501 276.54 43.3101 275.68 43.3101C274.53 43.3101 273.34 43.3801 272.48 43.4501C271.26 43.5601 270.75 44.1301 270.61 44.8501C272.41 44.8901 273.71 44.8901 275.11 44.8901C276.51 44.8901 277.92 44.8901 280.01 44.8501C279.87 44.0901 279.4 43.5901 278.1 43.4101L278.09 43.4201Z" fill="white"/>
<path d="M308.3 41.48V43.14C308.52 43 308.77 42.92 309.02 42.92C309.16 42.92 309.34 42.96 309.49 42.99C310.57 43.42 312.12 44.75 312.62 45.55C312.8 45.84 312.87 46.13 312.87 46.38C312.87 47.24 312.11 47.96 311.36 47.96C310.96 47.96 310.57 47.74 310.28 47.28C309.7 46.38 308.98 45.66 308.3 45.16C308.34 48.29 308.41 51.82 308.55 56.53V56.6C308.55 57.61 307.72 58.15 306.86 58.15C306 58.15 305.2 57.61 305.2 56.6V56.53C305.31 52.57 305.38 49.37 305.42 46.52C304.09 48.54 302.65 50.12 301.03 51.38C300.6 51.7 300.13 51.85 299.73 51.85C298.87 51.85 298.18 51.17 298.18 50.37C298.18 49.9 298.43 49.4 299.04 48.97C301.09 47.6 302.89 45.66 304.69 43.28C305.12 42.67 305.37 42.02 305.45 41.48C304.23 41.48 302.97 41.55 301.67 41.59H301.56C300.44 41.59 299.94 40.91 299.94 40.19C299.94 39.43 300.52 38.68 301.6 38.68H301.67C303.04 38.75 304.26 38.79 305.45 38.79C305.41 36.13 305.34 33.32 305.23 29.94V29.87C305.23 28.9 306.06 28.39 306.89 28.39C307.72 28.39 308.55 28.89 308.55 29.87V29.94C308.48 32.06 308.41 33.9 308.37 35.63C308.87 34.95 309.67 33.69 310.1 32.82C310.35 32.32 310.82 32.1 311.25 32.1C312.01 32.1 312.76 32.68 312.76 33.47C312.76 33.72 312.69 33.97 312.54 34.26C312 35.12 310.99 36.46 310.2 37.25C309.91 37.57 309.55 37.72 309.19 37.72C308.87 37.72 308.54 37.61 308.33 37.4C308.33 37.87 308.29 38.34 308.29 38.8L311.35 38.69H311.42C312.5 38.69 313 39.41 313 40.13C313 40.85 312.46 41.61 311.45 41.61H311.34L308.28 41.5L308.3 41.48ZM302.64 36.62C302.28 35.76 301.34 34.71 300.98 34.39C300.66 34.1 300.55 33.78 300.55 33.49C300.55 32.81 301.27 32.19 302.06 32.19C302.31 32.19 302.56 32.23 302.78 32.37C303.54 32.8 304.8 34.35 305.16 35.18C305.3 35.47 305.34 35.72 305.34 35.97C305.34 36.87 304.58 37.52 303.86 37.52C303.39 37.52 302.89 37.23 302.64 36.62ZM312.61 51.84C312.32 51.95 312.03 51.98 311.78 51.98C310.7 51.98 310.05 51.19 310.05 50.36C310.05 49.71 310.48 49.06 311.42 48.85C314.62 48.09 317.97 47.12 321.21 46.11V43.16C321.21 38.59 321.14 34.13 321.07 29.88V29.84C321.07 28.76 321.93 28.22 322.76 28.22C323.66 28.22 324.52 28.76 324.52 29.8V29.87C324.41 33.51 324.38 37.39 324.38 41.35V45.06C325.57 44.63 326.76 44.23 327.91 43.8C328.16 43.69 328.41 43.66 328.63 43.66C329.64 43.66 330.25 44.45 330.25 45.28C330.25 45.93 329.85 46.58 328.92 46.83C327.48 47.23 325.97 47.66 324.42 48.13C324.46 50.9 324.49 53.64 324.56 56.34V56.38C324.56 57.57 323.62 58.18 322.72 58.18C321.82 58.18 321.03 57.64 321.03 56.42V56.35C321.1 53.97 321.14 51.53 321.17 49.11C318.25 50.01 315.3 50.95 312.6 51.85L312.61 51.84ZM317.4 43.96C316.21 42.95 315.1 42.59 314.16 42.34C313.48 42.16 313.19 41.66 313.19 41.12C313.19 40.36 313.8 39.57 314.85 39.57C314.99 39.57 315.14 39.57 315.28 39.61C316.54 39.86 318.27 40.47 319.28 41.3C319.78 41.73 319.96 42.2 319.96 42.67C319.96 43.57 319.24 44.36 318.41 44.36C318.09 44.36 317.73 44.25 317.4 43.96ZM317.51 37.12C316.79 36.26 315.64 35.57 314.74 35.21C314.09 34.92 313.8 34.45 313.8 33.99C313.8 33.27 314.41 32.59 315.38 32.59C315.6 32.59 315.85 32.63 316.1 32.7C317.14 32.99 318.94 33.92 319.81 34.86C320.17 35.26 320.31 35.65 320.31 36.05C320.31 36.95 319.52 37.74 318.69 37.74C318.29 37.74 317.86 37.56 317.5 37.13L317.51 37.12Z" fill="white"/>
<path d="M339.26 36.8301C338.22 36.8301 337.71 36.1501 337.71 35.4301C337.71 34.6401 338.29 33.8501 339.29 33.8501H339.33C340.95 33.9201 342.46 33.9601 343.97 33.9601C345.88 33.9601 347.75 33.8901 349.73 33.8201H349.8C350.77 33.8201 351.24 34.5801 351.24 35.3301C351.24 36.0801 350.77 36.8401 349.8 36.8401H349.73C348.11 36.7701 346.53 36.7301 344.94 36.7301C343.14 36.7301 341.3 36.7701 339.32 36.8401H339.25L339.26 36.8301ZM349.59 52.3801C349.59 52.8101 349.55 53.2101 349.55 53.7101C349.41 55.8301 348.15 57.2701 345.59 57.4501C345.05 57.4901 344.73 57.5201 344.4 57.5201C344.07 57.5201 343.75 57.4801 343.25 57.4501C341.16 57.3101 339.69 55.9401 339.58 53.7801C339.54 53.1001 339.51 52.7001 339.51 52.2701C339.51 51.9801 339.55 51.6901 339.55 51.2601C339.69 48.9601 341.28 47.6601 343.37 47.5201C343.84 47.4801 344.13 47.4801 344.45 47.4801C344.77 47.4801 345.13 47.4801 345.71 47.5201C347.83 47.6601 349.42 48.8501 349.56 51.0501C349.56 51.5901 349.6 51.9901 349.6 52.3801H349.59ZM347.64 29.3501C348.58 29.3501 349.04 30.0701 349.04 30.7901C349.04 31.5101 348.61 32.1901 347.67 32.1901H347.6C346.23 32.1501 345.33 32.1501 344.47 32.1501C343.61 32.1501 342.81 32.1501 341.7 32.1901H341.63C340.66 32.1901 340.19 31.5401 340.19 30.8201C340.19 30.1001 340.69 29.3401 341.67 29.3401H341.71C342.93 29.4101 343.73 29.4101 344.55 29.4101C345.37 29.4101 346.24 29.4101 347.61 29.3401H347.65L347.64 29.3501ZM347.61 41.3301C346.24 41.2901 345.34 41.2901 344.48 41.2901C343.62 41.2901 342.82 41.2901 341.71 41.3301H341.64C340.67 41.3301 340.2 40.6501 340.2 39.9601C340.2 39.2401 340.7 38.4801 341.64 38.4801H341.71C343.08 38.5201 343.91 38.5501 344.81 38.5501C345.57 38.5501 346.39 38.5101 347.62 38.4801H347.69C348.63 38.4801 349.06 39.2001 349.06 39.9201C349.06 40.6401 348.63 41.3201 347.69 41.3201H347.62L347.61 41.3301ZM347.61 45.7601C346.39 45.7201 345.52 45.6901 344.73 45.6901C343.79 45.6901 342.97 45.7301 341.71 45.7601H341.64C340.67 45.7601 340.2 45.0801 340.2 44.3901C340.2 43.6701 340.7 42.9101 341.64 42.9101H341.71C343.08 42.9501 343.91 42.9801 344.81 42.9801C345.57 42.9801 346.39 42.9401 347.62 42.9101H347.69C348.63 42.9101 349.06 43.6301 349.06 44.3501C349.06 45.0701 348.63 45.7501 347.69 45.7501H347.62L347.61 45.7601ZM346.71 53.5001C346.75 53.1401 346.75 52.8201 346.75 52.4901C346.75 52.1601 346.75 51.8401 346.71 51.4501C346.67 50.8401 346.24 50.1201 345.27 50.0501C344.98 50.0101 344.8 49.9801 344.59 49.9801C344.38 49.9801 344.16 50.0201 343.83 50.0501C343.04 50.1201 342.5 50.7001 342.43 51.4901C342.39 51.8901 342.36 52.1701 342.36 52.5001C342.36 52.7901 342.4 53.1101 342.43 53.5101C342.5 54.3701 343.15 54.7701 343.69 54.8801C344.01 54.9501 344.3 54.9501 344.55 54.9501C344.84 54.9501 345.13 54.9501 345.45 54.8801C346.17 54.7401 346.67 54.2301 346.71 53.5101V53.5001ZM360.28 38.8101C362.87 38.7701 365.43 38.7401 367.84 38.6701H367.88C368.78 38.6701 369.25 39.2801 369.25 39.9301C369.25 40.5401 368.78 41.1901 367.88 41.1901H367.84C365.36 41.1201 362.62 41.0801 359.78 41.0801C356.94 41.0801 353.98 41.1201 351.11 41.1901H351.07C350.17 41.1901 349.74 40.5801 349.74 39.9301C349.74 39.2801 350.17 38.6701 351.07 38.6701H351.11C353.16 38.7401 355.29 38.7801 357.41 38.8101V37.3301C356.19 37.3301 354.96 37.3701 353.59 37.4001H353.55C352.72 37.4001 352.33 36.8201 352.33 36.2801C352.33 35.6701 352.76 35.0901 353.55 35.0901H353.59C354.92 35.1301 356.18 35.1601 357.41 35.1601C357.41 34.7601 357.37 34.3301 357.37 33.9001L352.19 33.9701H352.15C351.25 33.9701 350.82 33.3601 350.82 32.7501C350.82 32.1001 351.29 31.4501 352.15 31.4501H352.19C353.74 31.5201 355.5 31.5601 357.34 31.5601C357.3 30.8001 357.3 30.0501 357.3 29.3601V29.2901C357.3 28.2801 358.06 27.8101 358.81 27.8101C359.56 27.8101 360.36 28.3101 360.36 29.2901V29.3601L360.29 31.5601C362.34 31.5601 364.32 31.5601 365.87 31.4901H365.91C366.77 31.4901 367.17 32.1001 367.17 32.7101C367.17 33.3601 366.74 33.9701 365.91 33.9701H365.87C364.11 33.9301 362.2 33.9001 360.29 33.9001V35.1601C361.59 35.1601 362.92 35.1201 364.5 35.0901H364.54C365.37 35.0901 365.8 35.6701 365.8 36.2401C365.8 36.8101 365.37 37.3901 364.54 37.3901H364.5C362.92 37.3501 361.58 37.3201 360.29 37.3201V38.8001L360.28 38.8101ZM365.1 53.0301V53.1401C365.1 55.4801 363.88 58.1801 360.6 58.1801C360.42 58.1801 360.2 58.1401 360.02 58.1401C359.01 58.0701 358.54 57.3501 358.54 56.6601C358.54 55.9401 359.01 55.2601 359.87 55.2601H360.19C361.34 55.2601 362.13 54.5401 362.17 52.7401V52.3101C361.09 52.3101 359.94 52.2701 358.82 52.2701C357.7 52.2701 356.55 52.3101 355.58 52.3101C355.58 53.9301 355.58 55.5101 355.54 56.8801C355.5 57.8201 354.75 58.3201 353.99 58.3201C353.23 58.3201 352.59 57.8501 352.59 56.9201V56.8501C352.7 53.8301 352.77 49.5801 352.81 46.0201C352.85 43.5701 354.65 42.2001 357.17 41.9901C357.57 41.9501 358.25 41.9501 358.9 41.9501C359.51 41.9501 360.16 41.9501 360.52 41.9901C363.54 42.2801 364.91 43.7901 364.95 46.0201C364.95 47.1701 364.99 49.4401 365.02 50.3401L365.09 53.0401L365.1 53.0301ZM362.22 48.5701C360.92 48.5301 359.59 48.5001 358.3 48.5001C357.4 48.5001 356.46 48.5401 355.6 48.5401V50.1201H362.22V48.5701ZM362.15 46.3001C362.11 45.3301 361.43 44.5401 360.24 44.3901C359.84 44.3501 359.34 44.3501 358.8 44.3501C358.3 44.3501 357.76 44.3501 357.43 44.3901C356.39 44.5001 355.67 45.2501 355.63 46.2301V46.3701H362.15V46.3001Z" fill="white"/>
<path d="M382.38 43.0299C381.26 42.7399 380.83 42.1299 380.83 41.4799C380.83 40.6899 381.55 39.9299 382.63 39.9299C382.88 39.9299 383.17 39.9699 383.46 40.0699L386.16 40.9699C388.1 41.6199 389.11 42.9899 389.11 44.7899C389.11 45.3299 389.04 45.8699 388.86 46.4799C387.53 50.7299 381.98 54.6099 378.75 55.2599C378.53 55.2999 378.32 55.3299 378.14 55.3299C376.84 55.3299 376.16 54.4699 376.16 53.5999C376.16 52.8799 376.63 52.1599 377.64 51.9399C381.24 51.1499 384.8 48.3399 385.67 45.7099C385.78 45.4199 385.81 45.1299 385.81 44.8799C385.81 44.2999 385.56 43.7999 384.73 43.5799L382.39 42.9999L382.38 43.0299ZM393.9 51.0499V51.2999C393.9 53.5999 392.93 58.0699 387.35 58.0699H387.21C385.7 58.0299 385.01 57.1699 385.01 56.3399C385.01 55.5099 385.69 54.6099 386.99 54.6099H387.42C389.4 54.6099 390.55 53.2399 390.55 50.6499V50.5399C390.48 47.0499 390.48 42.5499 390.44 38.1899C387.42 38.1899 384.43 38.2599 381.23 38.3299H381.16C379.9 38.3299 379.32 37.5699 379.32 36.7799C379.32 35.9899 379.97 35.1199 381.19 35.1199H381.23C384.43 35.2299 387.42 35.2599 390.41 35.2999C390.41 33.4299 390.34 31.5899 390.3 29.9399V29.8699C390.3 28.8599 391.16 28.3199 392.03 28.3199C392.9 28.3199 393.72 28.8199 393.72 29.8999V29.9399L393.61 35.2999C396.67 35.2599 399.84 35.2299 403.29 35.1199C404.48 35.1199 405.09 35.9099 405.09 36.6999C405.09 37.4899 404.48 38.3199 403.33 38.3199H403.29C399.83 38.2499 396.67 38.1799 393.61 38.1799C393.61 41.1299 393.65 44.1199 393.79 48.0399L393.9 51.0299V51.0499ZM406 55.2299C405.86 55.2299 405.68 55.2299 405.53 55.1899C402.22 54.7199 396.71 51.2299 395.16 46.4399C394.98 45.8299 394.87 45.2499 394.87 44.7499C394.87 42.9899 395.91 41.6499 397.82 40.9699C399.22 40.4999 399.55 40.4699 400.99 39.8499C401.31 39.7099 401.67 39.6299 401.96 39.6299C402.97 39.6299 403.69 40.3899 403.69 41.1399C403.69 41.7499 403.29 42.3599 402.29 42.7199C400.92 43.1899 400.6 43.1199 399.27 43.5499C398.41 43.8399 398.12 44.3099 398.12 44.8799C398.12 45.1299 398.19 45.3799 398.26 45.6399C399.3 48.5899 402.98 51.1799 406.65 51.7999C407.66 51.9799 408.13 52.6599 408.13 53.3799C408.13 54.2799 407.41 55.2199 406.01 55.2199L406 55.2299ZM398.87 34.0599C397.93 33.0199 396.93 32.6199 396.21 32.3699C395.56 32.1499 395.27 31.6899 395.27 31.1799C395.27 30.4599 395.92 29.6699 397 29.6699C397.14 29.6699 397.29 29.6699 397.43 29.7099C398.44 29.9299 400.38 30.7899 401.25 31.7599C401.61 32.1599 401.75 32.5499 401.75 32.9499C401.75 33.8499 400.96 34.6399 400.09 34.6399C399.69 34.6399 399.26 34.4599 398.87 34.0599Z" fill="white"/>
</svg>
