<svg width="449" height="85" viewBox="0 0 449 85" fill="none" xmlns="http://www.w3.org/2000/svg">
<path d="M449 0H0V85H449V0Z" fill="#DF8F00"/>
<path d="M138.33 54.5502C134.87 54.5502 131.49 53.5802 129.76 51.8102C129.22 51.2702 129 50.6902 129 50.1902C129 49.2502 129.76 48.5302 130.69 48.5302C131.12 48.5302 131.55 48.6702 132.02 49.0002C133.96 50.3702 136.02 50.9102 138.07 50.9102C139.83 50.9102 141.6 50.5102 143.33 49.9002C143.58 49.7902 143.83 49.7602 144.09 49.7602C145.1 49.7602 145.78 50.5502 145.78 51.4502C145.78 52.2102 145.31 53.0302 144.09 53.5402C142.36 54.2202 140.35 54.5502 138.33 54.5502ZM141.06 38.9302H140.27C138.29 38.9302 134.26 38.7502 132.28 36.9902C131.74 36.5202 131.52 35.9802 131.52 35.4802C131.52 34.5802 132.28 33.8202 133.21 33.8202C133.53 33.8202 133.89 33.8902 134.22 34.1402C135.7 35.1502 137.53 35.4402 139.44 35.4402C140.05 35.4402 140.7 35.4002 141.35 35.3702H141.64C142.9 35.3702 143.58 36.1602 143.58 37.0302C143.58 37.9002 142.79 38.9002 141.06 38.9402V38.9302ZM145.99 36.7002C145.56 36.7002 145.13 36.4802 144.87 35.9102C144.8 35.7702 144.73 35.4102 144.62 35.1902C144.26 34.4302 143.86 33.8902 143.43 33.5302C143.14 33.2802 143 32.9902 143 32.6702C143 32.0902 143.5 31.5502 144.19 31.5502C144.51 31.5502 144.84 31.6902 145.2 31.9802C145.99 32.6602 146.89 34.0002 147.22 34.8202C147.29 35.0402 147.33 35.2202 147.33 35.4002C147.33 36.1602 146.68 36.7002 146 36.7002H145.99ZM148.44 34.6502C148.37 34.5102 148.3 34.1502 148.19 33.9302C147.79 33.1702 147.36 32.6702 146.93 32.3102C146.61 32.0602 146.46 31.7702 146.46 31.4502C146.46 30.9102 146.96 30.4102 147.65 30.4102C147.94 30.4102 148.26 30.5202 148.62 30.7702C149.45 31.3802 150.42 32.6402 150.71 33.5102C150.78 33.7302 150.82 33.9102 150.82 34.0902C150.82 34.8802 150.17 35.4202 149.52 35.4202C149.12 35.4202 148.69 35.2002 148.44 34.6602V34.6502Z" fill="white"/>
<path d="M179.91 34.93C179.84 36.91 179.8 38.85 179.8 40.76H180.05C180.37 40.76 180.77 40.76 181.17 40.22C181.93 39.1 182.68 37.77 183.26 36.4C183.55 35.72 184.09 35.46 184.66 35.46C185.56 35.46 186.5 36.11 186.5 37.01C186.5 37.23 186.46 37.44 186.32 37.69C185.71 38.77 184.99 39.81 184.2 40.71C186.11 40.67 188.16 40.6 190.5 40.49H190.57C191.76 40.49 192.37 41.28 192.37 42.07C192.37 42.86 191.76 43.65 190.57 43.65H190.5C186.54 43.54 183.52 43.47 180.67 43.43C183.59 47.03 187.83 50.23 193.77 52.25C194.81 52.61 195.28 53.33 195.28 54.05C195.28 55.02 194.42 55.96 193.16 55.96C192.84 55.96 192.44 55.92 192.04 55.74C187 53.72 182.93 50.48 179.84 46.71C179.91 49.41 179.98 52.18 180.16 55.35V55.46C180.16 56.58 179.3 57.12 178.43 57.12C177.56 57.12 176.74 56.58 176.74 55.46V55.35C176.88 52.15 176.99 49.3 177.03 46.64C173.86 50.42 169.79 53.73 165.22 55.78C164.75 56 164.32 56.07 163.96 56.07C162.81 56.07 162.05 55.24 162.05 54.34C162.05 53.62 162.52 52.86 163.63 52.43C167.95 50.77 172.45 47.75 176.01 43.43C173.17 43.47 170.14 43.54 166.26 43.65H166.19C165.04 43.65 164.46 42.89 164.46 42.14C164.46 41.31 165.07 40.48 166.19 40.48H166.26C168.67 40.59 170.76 40.66 172.74 40.7C172.67 40.59 172.6 40.48 172.56 40.38C171.95 39.08 171.08 38.26 170.47 37.79C170.11 37.5 169.97 37.18 169.97 36.85C169.97 36.17 170.65 35.52 171.52 35.52C171.81 35.52 172.13 35.59 172.46 35.77C173.32 36.24 174.76 37.46 175.48 38.87C175.62 39.16 175.7 39.41 175.7 39.66C175.7 40.09 175.48 40.45 175.2 40.74H177.11C177.07 38.83 177.04 36.89 176.97 34.91C173.91 34.91 171.03 34.95 168.76 35.02H168.69C167.5 35.02 166.93 34.23 166.93 33.44C166.93 32.65 167.54 31.86 168.69 31.86H168.76C171.1 31.93 173.94 31.97 176.9 31.97L176.76 28.77V28.66C176.76 27.54 177.62 27 178.45 27C179.28 27 180.18 27.54 180.18 28.66V28.77C180.11 29.89 180.07 30.93 180.04 31.97C182.78 31.97 185.48 31.93 187.92 31.86H187.99C189.14 31.86 189.72 32.65 189.72 33.44C189.72 34.23 189.14 35.02 187.99 35.02H187.92L179.93 34.91L179.91 34.93Z" fill="white"/>
<path d="M215.33 43.7498C215.58 43.6398 215.8 43.6098 216.01 43.6098C216.77 43.6098 217.34 44.1898 217.34 44.8698C217.34 45.3698 217.02 45.9098 216.3 46.2398C214.07 47.2798 210.11 48.8998 207.55 49.6198C207.3 49.6898 207.08 49.7298 206.87 49.7298C205.86 49.7298 205.32 48.9698 205.32 48.2198C205.32 47.5398 205.72 46.8498 206.65 46.6398C207.62 46.4198 208.67 46.1398 209.67 45.8498C209.92 45.7398 210.25 45.5598 210.25 44.9098C210.29 43.5098 210.29 41.0598 210.29 38.4998C209.46 38.4998 208.63 38.5398 207.84 38.5398H207.77C206.62 38.5398 206.04 37.8198 206.04 37.0998C206.04 36.3398 206.65 35.5498 207.77 35.5498H207.84C208.63 35.5898 209.46 35.6198 210.29 35.6198C210.25 33.4198 210.22 31.1898 210.22 29.2098V29.1698C210.22 28.0498 211.05 27.5098 211.84 27.5098C212.63 27.5098 213.5 28.0898 213.5 29.1998C213.46 31.2198 213.39 33.4498 213.39 35.6098C214 35.6098 214.65 35.5698 215.23 35.5398H215.3C216.42 35.5398 216.96 36.2998 216.96 37.0198C216.96 37.7798 216.38 38.5298 215.3 38.5298H215.23C214.62 38.5298 213.97 38.4898 213.36 38.4898V44.0698C213.36 44.2498 213.32 44.4298 213.29 44.6098L215.34 43.7498H215.33ZM226.06 46.8798C223.47 51.1298 218.36 54.7598 213.71 56.0598C213.46 56.1298 213.21 56.1698 212.99 56.1698C211.98 56.1698 211.48 55.4898 211.48 54.7698C211.48 54.1598 211.88 53.5498 212.67 53.3698C216.56 52.5398 220.55 50.0598 222.89 46.9598C222.53 46.9598 222.17 46.9998 221.85 46.9998C221.24 47.0398 220.84 47.1398 220.45 47.4298C218.58 49.0898 216.56 50.4498 214.69 51.2798C214.33 51.4198 214.04 51.4998 213.75 51.4998C212.85 51.4998 212.31 50.8198 212.31 50.1298C212.31 49.5898 212.6 49.0498 213.28 48.7998C216.27 47.6498 219 45.7798 221.27 42.8598L215.8 42.9698H215.76C214.75 42.9698 214.28 42.2498 214.28 41.5298C214.28 40.8098 214.75 40.0898 215.72 40.0898H215.79C218.85 40.1598 221.84 40.1998 224.9 40.1998C228.28 40.1998 231.74 40.1598 235.41 40.0598H235.48C236.49 40.0598 236.96 40.7798 236.96 41.4998C236.96 42.2198 236.49 42.9398 235.48 42.9398H235.41C231.49 42.8698 227.92 42.8298 224.5 42.8298C224.07 43.4398 223.64 44.0498 223.13 44.6298C224.28 44.5898 225.58 44.5898 226.84 44.5898C227.78 44.5898 228.71 44.5898 229.61 44.6298C232.42 44.7698 234.33 46.4298 234.4 49.0598V49.2798C234.4 54.7898 230.87 57.0498 227.27 57.0498C227.05 57.0498 226.84 57.0098 226.62 57.0098C225.47 56.9398 224.93 56.1798 224.93 55.4598C224.93 54.7398 225.47 54.0198 226.41 54.0198H226.63C226.85 54.0598 227.06 54.0598 227.24 54.0598C229.51 54.0598 231.42 52.5098 231.42 49.4198V49.0198C231.35 48.2998 230.99 47.6898 230.34 47.3298C228.29 51.9398 224.69 55.3898 220.8 56.8998C220.48 57.0398 220.19 57.0798 219.94 57.0798C219 57.0798 218.46 56.3598 218.46 55.6798C218.46 55.1398 218.75 54.5998 219.43 54.3498C223.03 53.0198 225.66 50.8898 227.6 46.8998H226.05L226.06 46.8798ZM226.78 38.8598C226.2 38.9298 225.52 38.9298 224.8 38.9298C224.08 38.9298 223.36 38.9298 222.75 38.8598C220.23 38.6098 218.86 37.0998 218.65 35.2598C218.58 34.7198 218.58 33.9298 218.58 33.2098C218.58 32.5998 218.58 32.0198 218.62 31.6598C218.8 29.5398 220.35 27.8798 222.83 27.6998C223.55 27.6598 224.13 27.6598 224.74 27.6598C225.32 27.6598 225.89 27.6598 226.58 27.6998C229.14 27.8798 230.83 29.3198 231.01 31.6198C231.05 32.2998 231.08 32.9498 231.08 33.5598C231.08 34.0998 231.04 34.5998 231.01 35.1398C230.83 37.1198 229.28 38.5598 226.8 38.8498L226.78 38.8598ZM228.18 31.8398C228.11 30.7198 227.35 30.2198 226.34 30.1098C225.87 30.0698 225.22 30.0398 224.61 30.0398C224.07 30.0398 223.57 30.0798 223.13 30.1098C222.12 30.2198 221.4 30.7198 221.33 31.8398C221.33 31.9498 221.29 32.0198 221.29 32.1298H228.17V31.8398H228.18ZM221.38 35.0098C221.49 35.8398 222.06 36.4498 223.04 36.5598C223.58 36.6298 224.26 36.6698 224.95 36.6698C225.53 36.6698 226.1 36.6298 226.53 36.5598C227.5 36.4198 228.11 35.9498 228.19 34.9798C228.19 34.8398 228.23 34.6598 228.23 34.4798C227.08 34.4798 225.93 34.4398 224.74 34.4398C223.55 34.4398 222.4 34.4798 221.32 34.4798L221.39 35.0198L221.38 35.0098Z" fill="white"/>
<path d="M265.52 49.7302V49.9502C265.52 54.4102 262.1 56.9702 258.18 56.9702H257.86C256.42 56.9302 255.77 56.0702 255.77 55.2102C255.77 54.3502 256.42 53.5902 257.53 53.5902H258.11C259.91 53.5902 262.07 52.6202 262.11 49.0902C262.11 48.2302 262.15 47.4002 262.15 46.5702C262.15 44.8802 262.11 43.2202 262.01 41.5702C258.66 41.6402 255.28 41.7102 253.08 41.7102C252.43 41.7102 251.86 41.6702 251.46 41.6702C250.38 41.6302 249.84 40.9102 249.84 40.1902C249.84 39.4702 250.42 38.7502 251.46 38.7502H251.53C252.11 38.7902 253.01 38.7902 254.05 38.7902C256.43 38.7902 259.7 38.7502 262.9 38.7202C261.64 37.7102 260.13 36.9202 258.62 36.4202C257.94 36.2002 257.65 35.7402 257.65 35.2702C257.65 34.5102 258.33 33.7202 259.34 33.7202C259.48 33.7202 259.63 33.7602 259.81 33.7902C261.32 34.1902 263.01 34.9102 264.42 35.8102L264.74 35.6702C265.89 35.2702 267.26 34.5502 268.16 33.6202C268.41 33.3702 268.52 33.0402 268.52 32.7602C268.52 32.2902 268.2 31.8602 267.33 31.8202C266.72 31.7802 265.96 31.7802 265.17 31.7802C262.22 31.7802 258.37 31.9602 256.06 31.9602H255.63C254.48 31.9602 253.9 31.1702 253.9 30.4502C253.9 29.6902 254.44 28.9702 255.56 28.9702H257.18C259.12 28.9702 261.61 28.9302 264.02 28.9302C265.39 28.9302 266.79 28.9302 268.02 29.0002C270.83 29.1402 272.16 30.7602 272.16 32.5302C272.16 33.5702 271.69 34.6502 270.76 35.5202C269.75 36.4202 268.49 37.3902 266.87 38.0002C267.01 38.2202 267.12 38.4702 267.16 38.6802C269.61 38.6802 271.8 38.6802 272.81 38.7202C275.65 38.8302 276.99 40.5202 276.99 42.3902C276.99 43.4002 276.63 44.4102 275.91 45.3102C274.58 46.9302 272.42 48.4402 270.4 48.8702C270.22 48.9102 270.04 48.9102 269.9 48.9102C268.75 48.9102 268.06 48.0502 268.06 47.2202C268.06 46.5702 268.46 45.9202 269.43 45.7402C270.94 45.4202 272.31 44.6202 273.25 43.4402C273.47 43.1502 273.57 42.8602 273.57 42.5802C273.57 42.0002 273.17 41.5002 272.31 41.4602H271.05C269.75 41.4602 267.74 41.4602 265.47 41.5002C265.43 42.2902 265.43 43.1202 265.43 43.8802C265.43 45.3602 265.47 46.5402 265.47 46.5402L265.54 49.7402L265.52 49.7302Z" fill="white"/>
<path d="M291.15 54.4802C290.29 54.4802 289.53 53.8302 289.53 53.0802C289.53 52.7202 289.71 52.3202 290.07 51.9602C291.29 50.7702 292.34 48.8602 292.7 47.1002C292.84 46.3402 293.42 45.9802 294.03 45.9802C294.82 45.9802 295.65 46.5602 295.65 47.4902C295.65 47.6002 295.65 47.7402 295.61 47.8502C295.29 49.5402 293.7 52.7802 292.33 54.0102C291.97 54.3302 291.54 54.4802 291.14 54.4802H291.15ZM299.5 43.8302V46.1702C299.5 48.4702 299.5 50.9202 299.68 55.2802V55.3902C299.68 56.5102 298.85 57.0502 298.02 57.0502C297.19 57.0502 296.36 56.5102 296.36 55.3602V55.2902C296.54 49.7102 296.61 47.1202 296.65 44.1002C295.14 44.2102 293.66 44.3502 292.76 44.3502H292.69C291.57 44.3502 291.07 43.6702 291.07 42.9802C291.07 42.2602 291.61 41.5802 292.51 41.5802H292.62C292.76 41.5802 292.91 41.6202 293.05 41.6202H293.12C293.62 41.6202 293.98 41.3002 294.24 40.9702L294.74 40.3202C294.85 40.0702 294.88 39.9202 294.88 39.7802C294.88 39.5602 294.81 39.4202 294.7 39.2802L294.16 38.8502C292.97 37.8802 292.47 36.7602 292.47 35.6802C292.47 34.8502 292.76 34.0602 293.19 33.3002C294.16 31.6102 295.03 29.9202 295.57 28.5102C295.86 27.7502 296.47 27.4302 297.08 27.4302C297.87 27.4302 298.66 27.9702 298.66 28.8002C298.66 29.0202 298.59 29.2702 298.48 29.5202C297.65 31.3202 296.86 32.7202 295.82 34.2702C295.57 34.6302 295.46 35.0302 295.46 35.3902C295.46 35.9302 295.71 36.4702 296.29 36.8302C296.47 36.9702 296.65 37.0802 296.79 37.2302C297.98 35.3602 299.09 33.4102 299.74 31.9402C300.03 31.2902 300.53 31.0402 301.07 31.0402C301.9 31.0402 302.73 31.6502 302.73 32.5202C302.73 32.7402 302.66 32.9902 302.55 33.2402C301.51 35.3602 299.02 38.9602 297.04 41.5502C297.98 41.5102 298.84 41.4402 299.52 41.4102C300.13 41.3702 300.49 41.0102 300.49 40.6502V40.5402L300.06 39.9602C299.81 39.6702 299.66 39.3802 299.66 39.1002C299.66 38.4502 300.38 37.9502 301.06 37.9502C301.35 37.9502 301.64 38.0602 301.89 38.2402L302.36 38.7402V38.5602C302.36 38.2002 302.5 37.8802 302.9 37.4402C304.59 35.6402 305.92 32.8002 307.18 28.8402C307.43 28.1202 308.01 27.8002 308.62 27.8002C309.45 27.8002 310.31 28.3802 310.31 29.3102C310.31 29.4902 310.27 29.6702 310.2 29.8902C309.77 31.0802 309.23 32.3702 308.65 33.6002C309.33 33.5302 310.13 33.4902 310.99 33.4902C311.6 33.4902 312.21 33.4902 312.83 33.5302C316.65 33.7502 318.63 35.9402 318.95 38.8602C319.06 39.9802 319.13 41.1602 319.13 42.3202C319.13 49.3002 316.79 56.3602 309.81 56.3602H309.34C308.19 56.3202 307.68 55.5702 307.68 54.8102C307.68 54.0502 308.26 53.2302 309.34 53.2302H309.77C314.56 53.2302 315.96 47.2202 315.96 42.3202C315.96 41.2802 315.89 40.3002 315.78 39.4402C315.56 37.5302 314.52 36.5602 312.32 36.3802C311.74 36.3402 311.17 36.3102 310.59 36.3102C309.87 36.3102 309.15 36.3502 308.43 36.3802C307.57 36.4502 307.06 36.7802 306.85 36.9602C306.27 37.9002 305.7 38.7202 305.19 39.3402C304.79 39.7702 304.33 39.9502 303.86 39.9502C303.61 39.9502 303.36 39.9102 303.14 39.8102C303.79 40.8502 304.29 42.0802 304.47 42.9402C304.51 43.0802 304.51 43.1902 304.51 43.3002C304.51 44.1602 303.97 44.7002 303.32 44.8502C303.21 44.8902 303.1 44.8902 303 44.8902C302.39 44.8902 301.78 44.4902 301.63 43.5902C301.63 43.5502 301.59 43.4802 301.59 43.4502C301.52 43.2702 301.48 43.2002 301.45 43.2002C301.31 43.2002 301.02 43.7402 299.94 43.8102L299.47 43.8802L299.5 43.8302ZM302.42 51.9602C302.17 50.5602 301.34 48.7602 300.55 47.7502C300.37 47.5002 300.26 47.2102 300.26 46.9602C300.26 46.2802 300.94 45.7002 301.74 45.7002C302.14 45.7002 302.53 45.8402 302.89 46.2002C303.97 47.2402 305.16 49.7602 305.45 51.1002C305.49 51.2802 305.52 51.4602 305.52 51.6002C305.52 52.6802 304.69 53.2902 303.86 53.2902C303.21 53.2902 302.6 52.8902 302.42 51.9602ZM309.9 45.8402C309.07 44.6502 307.52 43.6102 306.59 43.1802C305.94 42.8902 305.65 42.3902 305.65 41.8802C305.65 41.1202 306.26 40.4002 307.23 40.4002C307.48 40.4002 307.73 40.4402 308.02 40.5402C309.32 40.9702 311.37 42.1602 312.38 43.4202C312.7 43.8502 312.85 44.2802 312.85 44.6802C312.85 45.6902 311.99 46.5202 311.12 46.5202C310.69 46.5202 310.22 46.3002 309.9 45.8402Z" fill="white"/>
</svg>
