<svg width="105" height="40" viewBox="0 0 105 40" fill="none" xmlns="http://www.w3.org/2000/svg">
<rect width="105" height="40" rx="5" fill="#2998AE"/>
<path d="M20.343 13.199L21.244 11.805C21.6293 11.8957 22.043 12.0147 22.485 12.162C22.927 12.298 23.3577 12.4453 23.777 12.604C24.2077 12.7513 24.5647 12.893 24.848 13.029L23.93 14.576C23.658 14.44 23.318 14.287 22.91 14.117C22.502 13.9357 22.0713 13.7657 21.618 13.607C21.1647 13.4483 20.7397 13.3123 20.343 13.199ZM19.595 16.072C20.2183 15.9587 20.9663 15.8 21.839 15.596C22.723 15.392 23.6127 15.188 24.508 14.984L24.695 16.582C23.9583 16.82 23.2103 17.0467 22.451 17.262C21.703 17.466 21.006 17.6587 20.36 17.84L19.595 16.072ZM27.126 12.689H33.654V14.134H25.987L27.126 12.689ZM33.178 12.689H33.467L33.773 12.621L35.116 12.978C34.9007 13.4313 34.6457 13.896 34.351 14.372C34.0677 14.848 33.79 15.2447 33.518 15.562L31.92 15.069C32.1467 14.797 32.379 14.4627 32.617 14.066C32.855 13.658 33.042 13.2783 33.178 12.927V12.689ZM28.877 13.301H30.696C30.6167 13.9017 30.4807 14.4513 30.288 14.95C30.0953 15.4373 29.812 15.8737 29.438 16.259C29.0753 16.633 28.5823 16.9617 27.959 17.245C27.347 17.5283 26.5593 17.7663 25.596 17.959C25.5167 17.7437 25.3863 17.4943 25.205 17.211C25.0237 16.9163 24.848 16.684 24.678 16.514C25.494 16.378 26.1627 16.2137 26.684 16.021C27.2053 15.8283 27.6077 15.6073 27.891 15.358C28.1857 15.0973 28.4067 14.797 28.554 14.457C28.7013 14.117 28.809 13.7317 28.877 13.301ZM30.594 13.726C30.662 14.0433 30.7753 14.3493 30.934 14.644C31.104 14.9387 31.359 15.2107 31.699 15.46C32.039 15.698 32.515 15.9133 33.127 16.106C33.739 16.2873 34.5267 16.4347 35.49 16.548C35.2973 16.752 35.1047 17.0183 34.912 17.347C34.7193 17.6757 34.572 17.9703 34.47 18.231C33.416 18.061 32.549 17.823 31.869 17.517C31.2003 17.211 30.6733 16.8653 30.288 16.48C29.914 16.0947 29.625 15.681 29.421 15.239C29.2283 14.7857 29.0753 14.338 28.962 13.896L30.594 13.726ZM27.075 11.55L28.877 11.856C28.5483 12.5247 28.163 13.1707 27.721 13.794C27.279 14.406 26.735 14.9727 26.089 15.494C25.9077 15.3127 25.664 15.1313 25.358 14.95C25.0633 14.7687 24.7913 14.627 24.542 14.525C25.1653 14.0943 25.6867 13.6183 26.106 13.097C26.5253 12.5643 26.8483 12.0487 27.075 11.55ZM23.879 20.815V21.529H31.274V20.815H23.879ZM23.879 22.685V23.433H31.274V22.685H23.879ZM23.879 18.928V19.659H31.274V18.928H23.879ZM21.907 17.721H33.331V24.64H21.907V17.721ZM28.452 25.541L30.152 24.572C30.764 24.7873 31.3817 25.0197 32.005 25.269C32.6397 25.507 33.2403 25.7507 33.807 26C34.385 26.238 34.8723 26.4533 35.269 26.646L32.889 27.564C32.5717 27.3827 32.175 27.173 31.699 26.935C31.223 26.697 30.7073 26.4533 30.152 26.204C29.608 25.966 29.0413 25.745 28.452 25.541ZM24.695 24.504L26.548 25.354C26.0947 25.6487 25.562 25.9377 24.95 26.221C24.338 26.5043 23.709 26.7593 23.063 26.986C22.417 27.224 21.805 27.4223 21.227 27.581C21.1023 27.445 20.9493 27.2807 20.768 27.088C20.598 26.9067 20.4167 26.7197 20.224 26.527C20.0313 26.3457 19.8613 26.1983 19.714 26.085C20.3147 25.9717 20.921 25.8357 21.533 25.677C22.1563 25.5183 22.74 25.337 23.284 25.133C23.8393 24.929 24.3097 24.7193 24.695 24.504ZM39.23 11.635H41.1V27.479H39.23V11.635ZM36.646 17.228H43.616V19.132H36.646V17.228ZM38.856 18.231L39.995 18.792C39.8477 19.3587 39.6777 19.9593 39.485 20.594C39.2923 21.2173 39.077 21.8407 38.839 22.464C38.601 23.0873 38.3517 23.6767 38.091 24.232C37.8303 24.776 37.5527 25.252 37.258 25.66C37.2013 25.4447 37.1163 25.2123 37.003 24.963C36.901 24.7023 36.7877 24.4473 36.663 24.198C36.5497 23.9487 36.442 23.7333 36.34 23.552C36.68 23.1327 37.0087 22.617 37.326 22.005C37.6547 21.3817 37.955 20.7413 38.227 20.084C38.499 19.4153 38.7087 18.7977 38.856 18.231ZM41.083 19.217C41.1737 19.3077 41.304 19.4493 41.474 19.642C41.6553 19.8347 41.8537 20.0557 42.069 20.305C42.2843 20.543 42.4883 20.7867 42.681 21.036C42.885 21.274 43.0663 21.4893 43.225 21.682C43.395 21.8747 43.514 22.022 43.582 22.124L42.341 23.722C42.2277 23.4727 42.0803 23.1837 41.899 22.855C41.7177 22.515 41.5193 22.1693 41.304 21.818C41.0887 21.4553 40.879 21.1153 40.675 20.798C40.471 20.4807 40.2953 20.22 40.148 20.016L41.083 19.217ZM36.629 12.944L38.057 12.57C38.2043 12.978 38.3347 13.42 38.448 13.896C38.5727 14.372 38.6747 14.8367 38.754 15.29C38.8333 15.7433 38.89 16.1513 38.924 16.514L37.394 16.922C37.3827 16.5593 37.3373 16.1513 37.258 15.698C37.19 15.2333 37.0993 14.763 36.986 14.287C36.884 13.7997 36.765 13.352 36.629 12.944ZM42.222 12.485L43.939 12.859C43.803 13.3237 43.6557 13.7997 43.497 14.287C43.3383 14.7743 43.1797 15.2447 43.021 15.698C42.8623 16.14 42.715 16.531 42.579 16.871L41.287 16.497C41.4117 16.1343 41.5307 15.7207 41.644 15.256C41.7687 14.78 41.882 14.2983 41.984 13.811C42.086 13.3237 42.1653 12.8817 42.222 12.485ZM48.665 11.55H50.569V27.513H48.665V11.55ZM43.582 22.192L52.32 20.628L52.626 22.515L43.888 24.096L43.582 22.192ZM44.534 13.862L45.537 12.485C45.8543 12.6663 46.183 12.876 46.523 13.114C46.8743 13.352 47.203 13.5957 47.509 13.845C47.8263 14.0943 48.0757 14.3267 48.257 14.542L47.203 16.072C47.033 15.8453 46.795 15.6017 46.489 15.341C46.1943 15.0803 45.877 14.8197 45.537 14.559C45.197 14.2983 44.8627 14.066 44.534 13.862ZM43.769 18.146L44.721 16.684C45.061 16.854 45.4123 17.058 45.775 17.296C46.1377 17.5227 46.4833 17.755 46.812 17.993C47.1407 18.2197 47.407 18.4407 47.611 18.656L46.574 20.288C46.3927 20.0727 46.1433 19.8403 45.826 19.591C45.5087 19.3303 45.1687 19.0753 44.806 18.826C44.4547 18.5653 44.109 18.3387 43.769 18.146ZM54.309 16.769H59.443V18.316H54.309V16.769ZM54.377 12.094H59.409V13.624H54.377V12.094ZM54.309 19.098H59.443V20.628H54.309V19.098ZM53.51 14.372H60.004V15.987H53.51V14.372ZM55.193 21.444H59.477V26.629H55.193V25.014H57.726V23.059H55.193V21.444ZM54.275 21.444H55.992V27.292H54.275V21.444ZM60.412 12.485H69.082V13.93H60.412V12.485ZM60.854 14.559H68.827V15.919H60.854V14.559ZM60.021 16.599H69.405V18.061H60.021V16.599ZM63.727 11.55H65.648V17.84H63.727V11.55ZM61.177 18.707H67.688V20.152H63.047V27.496H61.177V18.707ZM66.583 18.707H68.487V25.626C68.487 26.0453 68.436 26.374 68.334 26.612C68.232 26.8613 68.0337 27.054 67.739 27.19C67.4557 27.326 67.11 27.4053 66.702 27.428C66.294 27.462 65.818 27.479 65.274 27.479C65.24 27.2297 65.1663 26.9463 65.053 26.629C64.951 26.323 64.849 26.0623 64.747 25.847C65.053 25.8583 65.359 25.864 65.665 25.864C65.9823 25.864 66.192 25.8583 66.294 25.847C66.4073 25.847 66.481 25.83 66.515 25.796C66.5603 25.7507 66.583 25.6827 66.583 25.592V18.707ZM61.993 20.9H67.552V22.243H61.993V20.9ZM61.993 23.025H67.552V24.351H61.993V23.025ZM70.986 14.134H86.082V16.106H70.986V14.134ZM79.35 15.868C79.656 16.8087 80.047 17.7153 80.523 18.588C80.999 19.4493 81.543 20.2597 82.155 21.019C82.767 21.7783 83.447 22.4583 84.195 23.059C84.943 23.6483 85.7533 24.1413 86.626 24.538C86.4673 24.674 86.2917 24.8497 86.099 25.065C85.9063 25.269 85.7193 25.49 85.538 25.728C85.368 25.9547 85.2263 26.1643 85.113 26.357C83.923 25.7223 82.8633 24.9007 81.934 23.892C81.0047 22.8833 80.1943 21.7387 79.503 20.458C78.8117 19.166 78.228 17.789 77.752 16.327L79.35 15.868ZM83.77 16.429L85.572 17.687C85.1867 18.1177 84.7787 18.5597 84.348 19.013C83.9173 19.455 83.4867 19.88 83.056 20.288C82.6253 20.6847 82.223 21.0417 81.849 21.359L80.353 20.22C80.7157 19.9027 81.1067 19.5287 81.526 19.098C81.9453 18.6673 82.3533 18.2197 82.75 17.755C83.1467 17.2903 83.4867 16.8483 83.77 16.429ZM80.608 12.757L81.815 11.465C82.155 11.6237 82.5233 11.805 82.92 12.009C83.3167 12.213 83.6963 12.4283 84.059 12.655C84.433 12.8703 84.739 13.0687 84.977 13.25L83.702 14.678C83.4753 14.4853 83.1863 14.2757 82.835 14.049C82.4837 13.8223 82.1097 13.5957 81.713 13.369C81.3277 13.1423 80.9593 12.9383 80.608 12.757ZM71.649 17.755L73.196 16.667C73.5247 16.9503 73.859 17.2677 74.199 17.619C74.539 17.9703 74.8563 18.3217 75.151 18.673C75.4457 19.013 75.6837 19.3303 75.865 19.625L74.199 20.849C74.0403 20.5543 73.8193 20.2257 73.536 19.863C73.2527 19.5003 72.9467 19.132 72.618 18.758C72.2893 18.384 71.9663 18.0497 71.649 17.755ZM77.412 11.584H79.503V25.014C79.503 25.6147 79.435 26.0737 79.299 26.391C79.163 26.7083 78.9137 26.952 78.551 27.122C78.211 27.3033 77.7633 27.4167 77.208 27.462C76.6527 27.5187 75.9897 27.5413 75.219 27.53C75.185 27.2353 75.0943 26.8783 74.947 26.459C74.811 26.0397 74.6693 25.6827 74.522 25.388C75.0433 25.4107 75.5363 25.422 76.001 25.422C76.477 25.422 76.8 25.422 76.97 25.422C77.1287 25.422 77.242 25.3937 77.31 25.337C77.378 25.269 77.412 25.1613 77.412 25.014V11.584ZM70.442 24.062C70.918 23.8127 71.462 23.5237 72.074 23.195C72.6973 22.8663 73.3547 22.5093 74.046 22.124C74.7487 21.7273 75.44 21.3363 76.12 20.951L76.8 22.804C75.95 23.3593 75.0717 23.9147 74.165 24.47C73.2697 25.014 72.4537 25.5013 71.717 25.932L70.442 24.062Z" fill="white"/>
</svg>
