<svg width="449" height="85" viewBox="0 0 449 85" fill="none" xmlns="http://www.w3.org/2000/svg">
<path d="M449 0H0V85H449V0Z" fill="#2998AE"/>
<path d="M71.81 45.2201C71.41 45.2201 71.02 45.1101 70.59 44.8601C66.13 42.2701 62.53 37.3701 58.46 33.0201C58.14 32.6601 57.7 32.4801 57.27 32.4801C56.87 32.4801 56.44 32.6601 56.15 32.9801C52.41 37.1901 48.95 42.3401 44.49 45.5801C43.91 46.0101 43.37 46.1901 42.87 46.1901C41.79 46.1901 41 45.2901 41 44.3501C41 43.7401 41.32 43.1301 42.04 42.7301C46.47 40.2801 50.07 34.8801 53.77 30.7401C54.81 29.5901 56 29.0801 57.19 29.0801C58.49 29.0801 59.75 29.6901 60.72 30.7001C65.29 35.4901 68.1 38.9801 72.63 41.4601C73.49 41.9301 73.85 42.5801 73.85 43.2201C73.85 44.2301 72.95 45.2001 71.8 45.2001L71.81 45.2201ZM60.4 58.1101C59.5 58.1101 58.67 57.5001 58.67 56.5301C58.67 56.2401 58.74 55.9501 58.89 55.6301C59.54 54.1901 60.33 52.2501 60.91 50.2301C60.98 49.9801 61.02 49.7601 61.02 49.5101C61.02 48.5001 60.34 47.7101 58.9 47.6401C58.22 47.6001 57.53 47.6001 56.88 47.6001C55.08 47.6001 53.39 47.6701 51.59 47.6701H50.8C49.61 47.6701 49.04 46.8401 49.04 46.0501C49.04 45.2601 49.62 44.4301 50.73 44.4301H50.8C52.06 44.4701 53.18 44.4701 54.26 44.4701H56.85C57.64 44.4701 58.43 44.4701 59.26 44.5101C62.32 44.6201 64.62 45.9901 64.62 48.8701C64.62 49.3701 64.55 49.9501 64.4 50.5601C63.86 52.6801 63.14 54.9901 62.35 56.7501C61.92 57.6901 61.16 58.1201 60.41 58.1201L60.4 58.1101ZM61.48 38.3101C62.56 38.3101 63.1 39.1001 63.1 39.9301C63.1 40.7601 62.56 41.5101 61.48 41.5101H61.37C60.07 41.4701 58.89 41.4401 57.7 41.4401C56.3 41.4401 54.89 41.4801 53.45 41.5101H53.38C52.26 41.5101 51.72 40.7201 51.72 39.9301C51.72 39.1401 52.3 38.3101 53.38 38.3101H53.45C54.71 38.3801 55.97 38.3801 57.3 38.3801C58.63 38.3801 59.93 38.3801 61.37 38.3101H61.48Z" fill="white"/>
<path d="M97.5099 50.3L97.2899 50.44C96.6099 50.91 95.8099 51.12 95.0199 51.12C92.9699 51.12 90.9499 49.68 90.8799 46.98V46.87C90.8799 44.85 92.5699 42.91 95.0899 42.91H95.2699C96.1299 42.98 96.6699 43.09 97.0699 43.31C97.0699 42.27 97.0299 41.08 96.9999 39.6C92.6799 39.96 88.3599 40.64 84.1099 41.51C83.9299 41.55 83.7499 41.55 83.6099 41.55C82.5299 41.55 81.8799 40.79 81.8799 39.97C81.8799 39.21 82.4599 38.42 83.7199 38.24C86.1699 37.88 91.5999 37.16 96.8899 36.62C96.8499 35.68 96.7799 34.82 96.7499 34.17C96.6799 33.38 96.6399 32.95 96.5299 32.55C96.4599 32.33 96.4599 32.12 96.4599 31.94C96.4599 30.86 97.3199 30.21 98.2199 30.21C99.1199 30.21 99.9099 30.75 100.09 31.97C100.16 32.33 100.16 32.73 100.16 33.12C100.16 33.44 100.16 33.8 100.12 34.24L100.01 36.33C102.71 36.08 105.19 35.93 106.99 35.93C107.75 35.93 108.36 35.97 108.83 36C109.84 36.11 110.45 36.94 110.45 37.73C110.45 38.52 109.84 39.28 108.43 39.28H108.21C107.13 39.24 106.05 39.24 105.01 39.24C103.32 39.24 101.66 39.28 99.9699 39.38C99.9699 41.72 100.04 43.92 100.04 44.71V45.21C100.72 46.18 100.98 47.33 100.98 48.49C100.98 49.97 100.55 51.44 99.9399 52.34C98.1399 55 94.5799 57.6 89.8999 58.24C89.7899 58.24 89.6499 58.28 89.5399 58.28C88.5299 58.28 87.9899 57.6 87.9899 56.88C87.9899 56.23 88.4599 55.58 89.4699 55.44C93.9299 54.76 96.0599 52.52 97.2799 50.69L97.4999 50.29L97.5099 50.3ZM95.2099 45.47C94.1999 45.47 93.6999 46.08 93.6999 46.87V47.01C93.7699 47.77 94.4199 48.27 95.1399 48.27C95.3599 48.27 95.6099 48.23 95.8199 48.13C96.6799 47.77 96.8999 47.16 97.0099 46.33C96.5399 45.79 95.9299 45.47 95.2099 45.47Z" fill="white"/>
<path d="M125.09 40.2903C124.44 41.0503 124.08 41.8003 124.08 42.5903C124.08 43.3103 124.37 44.0703 125.05 44.8603C127.39 47.6003 129.8 51.3403 130.67 54.7603C130.74 55.0503 130.78 55.3403 130.78 55.6203C130.78 56.9903 129.84 57.8203 128.87 57.8203C128.04 57.8203 127.18 57.2103 126.89 55.7703C126.31 52.7503 124.23 49.1803 122.39 46.8403C121.24 45.3603 120.73 44.0303 120.73 42.7703C120.73 41.3703 121.34 40.0003 122.49 38.4903C123.68 36.9803 124.87 35.4303 125.59 34.3503C126.2 33.4903 126.56 32.9103 126.99 31.9703C127.39 31.1803 128.07 30.8203 128.75 30.8203C129.72 30.8203 130.69 31.5003 130.69 32.5803C130.69 32.9403 130.58 33.3003 130.33 33.7303C129.93 34.3403 129.75 34.5903 128.96 35.6003L125.07 40.2803L125.09 40.2903ZM132.43 40.7903C132 40.7903 131.57 40.5703 131.31 40.0303C131.24 39.8503 131.17 39.4903 131.06 39.2703C130.7 38.5103 130.3 37.9703 129.87 37.6103C129.55 37.3603 129.44 37.0303 129.44 36.7503C129.44 36.1703 129.94 35.6303 130.63 35.6303C130.95 35.6303 131.28 35.7703 131.64 36.0603C132.4 36.7403 133.3 38.0803 133.66 38.9003C133.73 39.1203 133.77 39.3003 133.77 39.4803C133.77 40.2403 133.12 40.7803 132.44 40.7803L132.43 40.7903ZM134.92 38.7403C134.85 38.6003 134.74 38.2403 134.63 38.0203C134.23 37.2603 133.84 36.7603 133.41 36.4003C133.09 36.1503 132.94 35.8603 132.94 35.5403C132.94 35.0003 133.44 34.5003 134.13 34.5003C134.42 34.5003 134.74 34.6103 135.1 34.8603C135.89 35.4703 136.86 36.7303 137.19 37.6003C137.26 37.8203 137.3 38.0003 137.3 38.1803C137.3 38.9703 136.65 39.5103 136 39.5103C135.6 39.5103 135.17 39.2903 134.92 38.7503V38.7403Z" fill="white"/>
<path d="M175.38 47.2002H175.42C176.46 47.2002 177 47.9202 177 48.6802C177 49.4402 176.46 50.1602 175.38 50.1202C170.84 50.0502 166.38 50.0102 161.85 50.0102C157.32 50.0102 152.78 50.0502 148.14 50.1202H148.1C146.98 50.1202 146.44 49.4402 146.44 48.7202C146.44 47.9602 147.05 47.1702 148.13 47.2102L153.39 47.3202C153.43 46.0602 153.43 44.6602 153.43 43.2502C152.6 43.2502 151.77 43.2902 150.91 43.2902H150.87C149.72 43.2902 149.18 42.5702 149.18 41.8502C149.18 41.0902 149.79 40.3002 150.91 40.3402L153.43 40.4102V36.8802C152.67 37.6002 151.92 38.2502 151.27 38.7502C150.87 39.0402 150.48 39.1502 150.12 39.1502C149.22 39.1502 148.43 38.4302 148.43 37.6002C148.43 37.1302 148.68 36.6302 149.33 36.2002C151.92 34.5102 153.97 32.1002 155.56 29.3202C155.88 28.7402 156.42 28.4902 156.93 28.4902C157.83 28.4902 158.69 29.1702 158.69 30.0702C158.69 30.3602 158.62 30.6502 158.4 30.9702C157.93 31.6502 157.36 32.4102 156.71 33.2002C158.19 33.2402 159.7 33.2402 161.25 33.2402C164.35 33.2402 167.69 33.2002 171.8 33.1002H171.84C172.96 33.1002 173.5 33.8202 173.5 34.5802C173.5 35.3402 172.92 36.0602 171.81 36.0202C171.16 36.0202 170.59 36.0202 169.97 35.9802C169.97 37.2402 169.93 38.7902 169.93 40.4102L172.7 40.3402H172.74C173.86 40.3402 174.4 41.0602 174.4 41.8202C174.4 42.5802 173.82 43.3302 172.71 43.3002C171.77 43.3002 170.84 43.2602 169.94 43.2602C169.94 44.6602 169.98 46.0702 169.98 47.3302L175.42 47.2202L175.38 47.2002ZM149.9 58.1802C148.86 58.1802 148.1 57.3902 148.1 56.5602C148.1 56.0202 148.46 55.4102 149.32 55.0102C150.65 54.4002 151.77 53.5002 152.42 51.9902C152.67 51.3402 153.25 51.0902 153.82 51.0902C154.68 51.0902 155.58 51.7402 155.58 52.6702C155.58 52.8502 155.54 53.0702 155.47 53.2802C154.75 55.1902 152.59 57.3102 150.79 58.0002C150.47 58.1102 150.18 58.1802 149.89 58.1802H149.9ZM156.09 35.9002C156.09 37.2002 156.05 38.7802 156.05 40.4002C156.73 40.4002 157.42 40.4402 158.07 40.4402C158.07 38.8202 158.07 37.2402 158.03 35.9002H156.09ZM158.03 47.3502C158.07 46.0502 158.07 44.6502 158.07 43.1702C157.42 43.1702 156.74 43.2102 156.05 43.2102C156.05 44.6502 156.09 46.0502 156.09 47.3502H158.03ZM159.07 57.8202C158.31 57.8202 157.63 57.3502 157.63 56.3402V56.2002C157.67 55.9102 157.67 55.6202 157.67 55.3702C157.67 54.2502 157.49 53.5302 157.17 52.6002C157.13 52.4602 157.1 52.3502 157.1 52.2002C157.1 51.4802 157.86 51.0502 158.61 51.0502C159.26 51.0502 159.91 51.3402 160.16 51.9902C160.63 53.1102 160.88 54.1902 160.88 55.5502V56.0902C160.84 57.2102 159.94 57.8202 159.08 57.8202H159.07ZM162.64 40.4302C162.64 38.8102 162.64 37.2302 162.6 35.8902H160.69C160.69 37.1502 160.65 38.7702 160.65 40.4302H162.63H162.64ZM162.6 47.3502C162.64 46.0502 162.64 44.6502 162.64 43.1702H160.66C160.66 44.6102 160.7 46.0502 160.7 47.3502H162.61H162.6ZM164.22 56.6002C163.86 54.8402 163.36 53.9702 162.67 52.9302C162.53 52.7102 162.45 52.5002 162.45 52.2802C162.45 51.6302 163.17 51.1302 163.96 51.1302C164.46 51.1302 165.04 51.3102 165.47 51.8102C166.19 52.6402 166.98 54.0102 167.38 55.7002C167.42 55.8802 167.42 56.0202 167.42 56.1702C167.42 57.2502 166.56 57.9002 165.69 57.9002C165.04 57.9002 164.39 57.5002 164.21 56.6002H164.22ZM167.25 35.9302C166.57 35.9302 165.92 35.8902 165.27 35.8902C165.27 37.1902 165.23 38.8102 165.23 40.4302C165.91 40.4302 166.6 40.3902 167.28 40.3902C167.28 38.8102 167.28 37.2602 167.24 35.9302H167.25ZM167.25 47.3502C167.29 46.0502 167.29 44.6502 167.29 43.2102C166.61 43.2102 165.92 43.1702 165.24 43.1702C165.24 44.6102 165.28 46.0502 165.28 47.3502H167.26H167.25ZM171.96 56.8802C171.06 55.3702 169.84 54.1402 168.54 53.2402C168.18 52.9902 168 52.6302 168 52.3002C168 51.6202 168.68 50.9702 169.62 50.9702C169.98 50.9702 170.34 51.0402 170.74 51.2602C172.11 51.9802 173.91 53.4902 174.77 54.8202C175.02 55.1802 175.09 55.5402 175.09 55.9002C175.09 56.9102 174.19 57.7002 173.29 57.7002C172.79 57.7002 172.28 57.4502 171.96 56.8702V56.8802Z" fill="white"/>
<path d="M194.54 41.4797V43.1397C194.76 42.9997 195.01 42.9197 195.26 42.9197C195.4 42.9197 195.58 42.9597 195.73 42.9897C196.81 43.4197 198.36 44.7497 198.86 45.5497C199.04 45.8397 199.11 46.1297 199.11 46.3797C199.11 47.2397 198.35 47.9597 197.6 47.9597C197.2 47.9597 196.81 47.7397 196.52 47.2797C195.94 46.3797 195.22 45.6597 194.54 45.1597C194.58 48.2897 194.65 51.8197 194.79 56.5297V56.5997C194.79 57.6097 193.96 58.1497 193.1 58.1497C192.24 58.1497 191.44 57.6097 191.44 56.5997V56.5297C191.55 52.5697 191.62 49.3697 191.66 46.5197C190.33 48.5397 188.89 50.1197 187.27 51.3797C186.84 51.6997 186.37 51.8497 185.97 51.8497C185.11 51.8497 184.42 51.1697 184.42 50.3697C184.42 49.8997 184.67 49.3997 185.28 48.9697C187.33 47.5997 189.13 45.6597 190.93 43.2797C191.36 42.6697 191.61 42.0197 191.69 41.4797C190.47 41.4797 189.21 41.5497 187.91 41.5897H187.8C186.68 41.5897 186.18 40.9097 186.18 40.1897C186.18 39.4297 186.76 38.6797 187.84 38.6797H187.91C189.28 38.7497 190.5 38.7897 191.69 38.7897C191.65 36.1297 191.58 33.3197 191.47 29.9397V29.8697C191.47 28.8997 192.3 28.3897 193.13 28.3897C193.96 28.3897 194.79 28.8897 194.79 29.8697V29.9397C194.72 32.0597 194.65 33.8997 194.61 35.6297C195.11 34.9497 195.91 33.6897 196.34 32.8197C196.59 32.3197 197.06 32.0997 197.49 32.0997C198.25 32.0997 199 32.6797 199 33.4697C199 33.7197 198.93 33.9697 198.78 34.2597C198.24 35.1197 197.23 36.4597 196.44 37.2497C196.15 37.5697 195.79 37.7197 195.43 37.7197C195.11 37.7197 194.78 37.6097 194.57 37.3997C194.57 37.8697 194.53 38.3397 194.53 38.7997L197.59 38.6897H197.66C198.74 38.6897 199.24 39.4097 199.24 40.1297C199.24 40.8497 198.7 41.6097 197.69 41.6097H197.58L194.52 41.4997L194.54 41.4797ZM188.88 36.6197C188.52 35.7597 187.58 34.7097 187.22 34.3897C186.9 34.0997 186.79 33.7797 186.79 33.4897C186.79 32.8097 187.51 32.1897 188.3 32.1897C188.55 32.1897 188.8 32.2297 189.02 32.3697C189.78 32.7997 191.04 34.3497 191.4 35.1797C191.54 35.4697 191.58 35.7197 191.58 35.9697C191.58 36.8697 190.82 37.5197 190.1 37.5197C189.63 37.5197 189.13 37.2297 188.88 36.6197ZM198.85 51.8397C198.56 51.9497 198.27 51.9797 198.02 51.9797C196.94 51.9797 196.29 51.1897 196.29 50.3597C196.29 49.7097 196.72 49.0597 197.66 48.8497C200.86 48.0897 204.21 47.1197 207.45 46.1097V43.1597C207.45 38.5897 207.38 34.1297 207.31 29.8797V29.8397C207.31 28.7597 208.17 28.2197 209 28.2197C209.9 28.2197 210.76 28.7597 210.76 29.7997V29.8697C210.65 33.5097 210.62 37.3897 210.62 41.3497V45.0597C211.81 44.6297 213 44.2297 214.15 43.7997C214.4 43.6897 214.65 43.6597 214.87 43.6597C215.88 43.6597 216.49 44.4497 216.49 45.2797C216.49 45.9297 216.09 46.5797 215.16 46.8297C213.72 47.2297 212.21 47.6597 210.66 48.1297C210.7 50.8997 210.73 53.6397 210.8 56.3397V56.3797C210.8 57.5697 209.86 58.1797 208.96 58.1797C208.06 58.1797 207.27 57.6397 207.27 56.4197V56.3497C207.34 53.9697 207.38 51.5297 207.41 49.1097C204.49 50.0097 201.54 50.9497 198.84 51.8497L198.85 51.8397ZM203.64 43.9597C202.45 42.9497 201.34 42.5897 200.4 42.3397C199.72 42.1597 199.43 41.6597 199.43 41.1197C199.43 40.3597 200.04 39.5697 201.09 39.5697C201.23 39.5697 201.38 39.5697 201.52 39.6097C202.78 39.8597 204.51 40.4697 205.52 41.2997C206.02 41.7297 206.2 42.1997 206.2 42.6697C206.2 43.5697 205.48 44.3597 204.65 44.3597C204.33 44.3597 203.97 44.2497 203.64 43.9597ZM203.75 37.1197C203.03 36.2597 201.88 35.5697 200.98 35.2097C200.33 34.9197 200.04 34.4497 200.04 33.9897C200.04 33.2697 200.65 32.5897 201.62 32.5897C201.84 32.5897 202.09 32.6297 202.34 32.6997C203.38 32.9897 205.18 33.9197 206.05 34.8597C206.41 35.2597 206.55 35.6497 206.55 36.0497C206.55 36.9497 205.76 37.7397 204.93 37.7397C204.53 37.7397 204.1 37.5597 203.74 37.1297L203.75 37.1197Z" fill="white"/>
<path d="M227.19 41.59H226.94C225.75 41.59 224.96 40.69 224.96 39.79C224.96 38.96 225.61 38.13 227.08 37.95C227.76 37.88 228.59 37.66 229.06 37.52C231.11 36.94 233.96 35.83 236.29 34.93C237.23 34.57 238.45 34.07 239.6 33.67C242.44 32.77 243.88 32.41 245.75 32.3H246C247.33 32.3 247.98 33.13 247.98 33.96C247.98 34.9 247.22 35.87 245.75 35.87H245.21C243.3 35.87 239.81 36.37 238.51 37.85C237.61 38.86 237.18 40.33 237.18 41.95C237.18 45.98 239.7 51.09 243.41 53.43C244.49 54.08 244.92 54.94 244.92 55.66C244.92 56.6 244.2 57.39 243.08 57.39C242.4 57.39 241.57 57.1 240.7 56.38C236.92 53.28 234.18 47.31 234.18 42.49C234.18 41.23 234.36 40.04 234.76 39C234.83 38.82 234.87 38.68 234.87 38.6C234.87 38.6 234.857 38.5867 234.83 38.56C234.83 38.56 234.72 38.6 234.61 38.63C233.13 39.24 231.23 40.32 229.46 40.93C228.6 41.18 227.91 41.47 227.16 41.58L227.19 41.59ZM249 32.16C248.53 32.16 248.1 31.94 247.88 31.37C247.81 31.19 247.74 30.83 247.63 30.61C247.27 29.82 246.91 29.28 246.48 28.92C246.19 28.67 246.05 28.38 246.05 28.09C246.05 27.51 246.59 26.97 247.24 26.97C247.56 26.97 247.89 27.11 248.25 27.4C249.04 28.12 249.91 29.45 250.23 30.28C250.3 30.5 250.34 30.68 250.34 30.86C250.34 31.62 249.66 32.16 249.01 32.16H249ZM251.66 30.32C251.59 30.14 251.52 29.78 251.41 29.6C251.05 28.81 250.65 28.3 250.22 27.94C249.9 27.69 249.75 27.36 249.75 27.08C249.75 26.54 250.25 26 250.94 26C251.23 26 251.59 26.11 251.91 26.4C252.74 27.05 253.67 28.31 253.96 29.17C254.03 29.35 254.07 29.53 254.07 29.71C254.07 30.5 253.42 31.08 252.74 31.08C252.34 31.08 251.91 30.86 251.66 30.32Z" fill="white"/>
<path d="M275.32 53.5397C274.42 53.5397 273.59 53.4997 272.58 53.4297C273.19 53.6497 273.62 54.2597 273.62 54.8697C273.62 55.3397 273.37 55.8097 272.79 56.1297C270.23 57.5297 266.89 58.3997 264.08 58.6097H263.9C262.75 58.6097 262.17 57.8497 262.17 57.0997C262.17 56.3497 262.67 55.6997 263.75 55.6197C266.38 55.3997 268.97 54.7897 271.24 53.5297C271.38 53.4597 271.53 53.3897 271.71 53.3497C269.12 53.0597 267.71 51.9797 267.57 49.8897C267.5 49.0997 267.46 48.3097 267.46 47.5097C267.46 46.6097 267.5 45.7497 267.57 44.8497C267.64 43.4797 268.51 42.4397 269.87 41.8597C269.01 41.7897 268.54 41.2097 268.54 40.5997C268.54 40.3797 268.61 40.1697 268.72 39.9497C266.99 40.8097 265.48 41.4297 263.75 41.9697C263.5 42.0397 263.25 42.0797 263.03 42.0797C261.99 42.0797 261.41 41.2897 261.41 40.4597C261.41 39.8097 261.77 39.1597 262.6 38.9497C264.83 38.3397 266.78 37.6497 268.76 36.7197C268.98 36.6097 269.23 36.5797 269.41 36.5797C270.2 36.5797 270.78 37.2597 270.78 37.9797C270.78 38.4497 270.56 38.8797 270.1 39.2397C274.71 38.7697 276.58 37.0797 276.58 34.7797V34.7097C276.54 33.8497 277.37 33.4497 278.2 33.4497C279.03 33.4497 279.78 33.8497 279.78 34.5997C279.78 34.7797 279.74 34.9597 279.74 35.1397C280.24 37.6597 282.62 39.9297 289.14 40.4297C290.08 40.4997 290.58 41.2197 290.58 41.9397C290.58 42.7297 289.97 43.5597 288.71 43.5597H288.46C283.28 43.0897 280 40.8597 278.31 38.2297C277.23 39.4897 275.47 40.6097 273.13 41.2897C273.74 41.2497 274.28 41.2497 274.79 41.2497C275.73 41.2497 276.7 41.2897 278.39 41.3597C281.27 41.4697 282.96 42.7997 283.11 44.7397C283.18 45.6397 283.22 46.4697 283.22 47.3297C283.22 48.1897 283.18 49.0597 283.11 49.9597C282.93 51.8697 281.49 52.9797 279.04 53.3097C279.26 53.3497 279.44 53.4197 279.65 53.4897C281.02 54.1397 284.15 54.9697 286.6 55.0397C287.64 55.0797 288.18 55.8297 288.18 56.5497C288.18 57.3797 287.57 58.2097 286.38 58.2097H286.24C283.14 57.9597 279.98 56.9897 278.14 56.0497C277.56 55.7597 277.35 55.2897 277.35 54.8597C277.35 54.2097 277.82 53.5597 278.47 53.3797C277.17 53.4897 276.2 53.5197 275.34 53.5197L275.32 53.5397ZM267.51 34.3097C266.36 33.4497 264.81 32.8697 263.66 32.6497C262.87 32.4697 262.51 31.9297 262.51 31.3897C262.51 30.5997 263.16 29.8097 264.24 29.8097H264.31C265.43 29.8797 268.2 30.7797 269.24 31.4997C269.82 31.8997 270.07 32.3997 270.07 32.8997C270.07 33.7997 269.31 34.6597 268.45 34.6597C268.16 34.6597 267.84 34.5497 267.51 34.2997V34.3097ZM272.98 36.5797C272.55 36.9397 272.08 37.0797 271.68 37.0797C270.82 37.0797 270.13 36.4297 270.13 35.7097C270.13 35.3097 270.31 34.8797 270.78 34.5197C272.69 33.0097 273.88 30.9897 274.96 28.6897C275.21 28.1497 275.68 27.9297 276.18 27.9297C277.01 27.9297 277.91 28.5397 277.91 29.3297C277.91 29.5497 277.84 29.7597 277.73 29.9797C277.62 30.1997 277.48 30.4097 277.37 30.6597C278.38 30.6197 279.67 30.5897 281.01 30.5897C281.84 30.5897 282.7 30.5897 283.49 30.6297C285.72 30.7397 286.91 32.1097 286.91 33.6197C286.91 34.2997 286.66 35.0197 286.12 35.6397C285.54 36.3197 284.82 37.0097 284.14 37.5097C283.74 37.7997 283.38 37.9097 283.02 37.9097C282.23 37.9097 281.58 37.2997 281.58 36.6097C281.58 36.2497 281.72 35.8897 282.12 35.5997C282.66 35.1697 282.95 34.8797 283.24 34.4797C283.42 34.2597 283.49 34.0097 283.49 33.8297C283.49 33.3997 283.17 33.1097 282.59 33.0697C281.69 32.9997 280.65 32.9997 279.53 32.9997C278.67 32.9997 277.73 32.9997 276.9 33.0397C276.07 33.0797 275.71 33.4397 275.46 33.7197C274.7 34.7997 273.84 35.8097 272.98 36.5597V36.5797ZM280.14 46.6997C277.98 46.6597 276.5 46.6597 275.06 46.6597C273.62 46.6597 272.29 46.6597 270.45 46.6997V47.9997C272.32 48.0397 273.65 48.0397 275.09 48.0397C276.53 48.0397 277.97 48.0397 280.13 47.9997V46.6997H280.14ZM275.07 49.7897C273.67 49.7897 272.33 49.7897 270.57 49.8297C270.68 50.6197 271.33 51.1597 272.51 51.3097C273.3 51.3797 274.2 51.4197 275.14 51.4197C276.18 51.4197 277.26 51.3797 278.16 51.3097C279.46 51.1997 279.85 50.6297 280 49.8297C277.91 49.7897 276.47 49.7897 275.07 49.7897ZM278.09 43.4197C277.44 43.3497 276.54 43.3097 275.68 43.3097C274.53 43.3097 273.34 43.3797 272.48 43.4497C271.26 43.5597 270.75 44.1297 270.61 44.8497C272.41 44.8897 273.71 44.8897 275.11 44.8897C276.51 44.8897 277.92 44.8897 280.01 44.8497C279.87 44.0897 279.4 43.5897 278.1 43.4097L278.09 43.4197Z" fill="white"/>
<path d="M308.3 41.4797V43.1397C308.52 42.9997 308.77 42.9197 309.02 42.9197C309.16 42.9197 309.34 42.9597 309.49 42.9897C310.57 43.4197 312.12 44.7497 312.62 45.5497C312.8 45.8397 312.87 46.1297 312.87 46.3797C312.87 47.2397 312.11 47.9597 311.36 47.9597C310.96 47.9597 310.57 47.7397 310.28 47.2797C309.7 46.3797 308.98 45.6597 308.3 45.1597C308.34 48.2897 308.41 51.8197 308.55 56.5297V56.5997C308.55 57.6097 307.72 58.1497 306.86 58.1497C306 58.1497 305.2 57.6097 305.2 56.5997V56.5297C305.31 52.5697 305.38 49.3697 305.42 46.5197C304.09 48.5397 302.65 50.1197 301.03 51.3797C300.6 51.6997 300.13 51.8497 299.73 51.8497C298.87 51.8497 298.18 51.1697 298.18 50.3697C298.18 49.8997 298.43 49.3997 299.04 48.9697C301.09 47.5997 302.89 45.6597 304.69 43.2797C305.12 42.6697 305.37 42.0197 305.45 41.4797C304.23 41.4797 302.97 41.5497 301.67 41.5897H301.56C300.44 41.5897 299.94 40.9097 299.94 40.1897C299.94 39.4297 300.52 38.6797 301.6 38.6797H301.67C303.04 38.7497 304.26 38.7897 305.45 38.7897C305.41 36.1297 305.34 33.3197 305.23 29.9397V29.8697C305.23 28.8997 306.06 28.3897 306.89 28.3897C307.72 28.3897 308.55 28.8897 308.55 29.8697V29.9397C308.48 32.0597 308.41 33.8997 308.37 35.6297C308.87 34.9497 309.67 33.6897 310.1 32.8197C310.35 32.3197 310.82 32.0997 311.25 32.0997C312.01 32.0997 312.76 32.6797 312.76 33.4697C312.76 33.7197 312.69 33.9697 312.54 34.2597C312 35.1197 310.99 36.4597 310.2 37.2497C309.91 37.5697 309.55 37.7197 309.19 37.7197C308.87 37.7197 308.54 37.6097 308.33 37.3997C308.33 37.8697 308.29 38.3397 308.29 38.7997L311.35 38.6897H311.42C312.5 38.6897 313 39.4097 313 40.1297C313 40.8497 312.46 41.6097 311.45 41.6097H311.34L308.28 41.4997L308.3 41.4797ZM302.64 36.6197C302.28 35.7597 301.34 34.7097 300.98 34.3897C300.66 34.0997 300.55 33.7797 300.55 33.4897C300.55 32.8097 301.27 32.1897 302.06 32.1897C302.31 32.1897 302.56 32.2297 302.78 32.3697C303.54 32.7997 304.8 34.3497 305.16 35.1797C305.3 35.4697 305.34 35.7197 305.34 35.9697C305.34 36.8697 304.58 37.5197 303.86 37.5197C303.39 37.5197 302.89 37.2297 302.64 36.6197ZM312.61 51.8397C312.32 51.9497 312.03 51.9797 311.78 51.9797C310.7 51.9797 310.05 51.1897 310.05 50.3597C310.05 49.7097 310.48 49.0597 311.42 48.8497C314.62 48.0897 317.97 47.1197 321.21 46.1097V43.1597C321.21 38.5897 321.14 34.1297 321.07 29.8797V29.8397C321.07 28.7597 321.93 28.2197 322.76 28.2197C323.66 28.2197 324.52 28.7597 324.52 29.7997V29.8697C324.41 33.5097 324.38 37.3897 324.38 41.3497V45.0597C325.57 44.6297 326.76 44.2297 327.91 43.7997C328.16 43.6897 328.41 43.6597 328.63 43.6597C329.64 43.6597 330.25 44.4497 330.25 45.2797C330.25 45.9297 329.85 46.5797 328.92 46.8297C327.48 47.2297 325.97 47.6597 324.42 48.1297C324.46 50.8997 324.49 53.6397 324.56 56.3397V56.3797C324.56 57.5697 323.62 58.1797 322.72 58.1797C321.82 58.1797 321.03 57.6397 321.03 56.4197V56.3497C321.1 53.9697 321.14 51.5297 321.17 49.1097C318.25 50.0097 315.3 50.9497 312.6 51.8497L312.61 51.8397ZM317.4 43.9597C316.21 42.9497 315.1 42.5897 314.16 42.3397C313.48 42.1597 313.19 41.6597 313.19 41.1197C313.19 40.3597 313.8 39.5697 314.85 39.5697C314.99 39.5697 315.14 39.5697 315.28 39.6097C316.54 39.8597 318.27 40.4697 319.28 41.2997C319.78 41.7297 319.96 42.1997 319.96 42.6697C319.96 43.5697 319.24 44.3597 318.41 44.3597C318.09 44.3597 317.73 44.2497 317.4 43.9597ZM317.51 37.1197C316.79 36.2597 315.64 35.5697 314.74 35.2097C314.09 34.9197 313.8 34.4497 313.8 33.9897C313.8 33.2697 314.41 32.5897 315.38 32.5897C315.6 32.5897 315.85 32.6297 316.1 32.6997C317.14 32.9897 318.94 33.9197 319.81 34.8597C320.17 35.2597 320.31 35.6497 320.31 36.0497C320.31 36.9497 319.52 37.7397 318.69 37.7397C318.29 37.7397 317.86 37.5597 317.5 37.1297L317.51 37.1197Z" fill="white"/>
<path d="M339.26 36.8296C338.22 36.8296 337.71 36.1496 337.71 35.4296C337.71 34.6396 338.29 33.8496 339.29 33.8496H339.33C340.95 33.9196 342.46 33.9596 343.97 33.9596C345.88 33.9596 347.75 33.8896 349.73 33.8196H349.8C350.77 33.8196 351.24 34.5796 351.24 35.3296C351.24 36.0796 350.77 36.8396 349.8 36.8396H349.73C348.11 36.7696 346.53 36.7296 344.94 36.7296C343.14 36.7296 341.3 36.7696 339.32 36.8396H339.25L339.26 36.8296ZM349.59 52.3796C349.59 52.8096 349.55 53.2096 349.55 53.7096C349.41 55.8296 348.15 57.2696 345.59 57.4496C345.05 57.4896 344.73 57.5196 344.4 57.5196C344.07 57.5196 343.75 57.4796 343.25 57.4496C341.16 57.3096 339.69 55.9396 339.58 53.7796C339.54 53.0996 339.51 52.6996 339.51 52.2696C339.51 51.9796 339.55 51.6896 339.55 51.2596C339.69 48.9596 341.28 47.6596 343.37 47.5196C343.84 47.4796 344.13 47.4796 344.45 47.4796C344.77 47.4796 345.13 47.4796 345.71 47.5196C347.83 47.6596 349.42 48.8496 349.56 51.0496C349.56 51.5896 349.6 51.9896 349.6 52.3796H349.59ZM347.64 29.3496C348.58 29.3496 349.04 30.0696 349.04 30.7896C349.04 31.5096 348.61 32.1896 347.67 32.1896H347.6C346.23 32.1496 345.33 32.1496 344.47 32.1496C343.61 32.1496 342.81 32.1496 341.7 32.1896H341.63C340.66 32.1896 340.19 31.5396 340.19 30.8196C340.19 30.0996 340.69 29.3396 341.67 29.3396H341.71C342.93 29.4096 343.73 29.4096 344.55 29.4096C345.37 29.4096 346.24 29.4096 347.61 29.3396H347.65L347.64 29.3496ZM347.61 41.3296C346.24 41.2896 345.34 41.2896 344.48 41.2896C343.62 41.2896 342.82 41.2896 341.71 41.3296H341.64C340.67 41.3296 340.2 40.6496 340.2 39.9596C340.2 39.2396 340.7 38.4796 341.64 38.4796H341.71C343.08 38.5196 343.91 38.5496 344.81 38.5496C345.57 38.5496 346.39 38.5096 347.62 38.4796H347.69C348.63 38.4796 349.06 39.1996 349.06 39.9196C349.06 40.6396 348.63 41.3196 347.69 41.3196H347.62L347.61 41.3296ZM347.61 45.7596C346.39 45.7196 345.52 45.6896 344.73 45.6896C343.79 45.6896 342.97 45.7296 341.71 45.7596H341.64C340.67 45.7596 340.2 45.0796 340.2 44.3896C340.2 43.6696 340.7 42.9096 341.64 42.9096H341.71C343.08 42.9496 343.91 42.9796 344.81 42.9796C345.57 42.9796 346.39 42.9396 347.62 42.9096H347.69C348.63 42.9096 349.06 43.6296 349.06 44.3496C349.06 45.0696 348.63 45.7496 347.69 45.7496H347.62L347.61 45.7596ZM346.71 53.4996C346.75 53.1396 346.75 52.8196 346.75 52.4896C346.75 52.1596 346.75 51.8396 346.71 51.4496C346.67 50.8396 346.24 50.1196 345.27 50.0496C344.98 50.0096 344.8 49.9796 344.59 49.9796C344.38 49.9796 344.16 50.0196 343.83 50.0496C343.04 50.1196 342.5 50.6996 342.43 51.4896C342.39 51.8896 342.36 52.1696 342.36 52.4996C342.36 52.7896 342.4 53.1096 342.43 53.5096C342.5 54.3696 343.15 54.7696 343.69 54.8796C344.01 54.9496 344.3 54.9496 344.55 54.9496C344.84 54.9496 345.13 54.9496 345.45 54.8796C346.17 54.7396 346.67 54.2296 346.71 53.5096V53.4996ZM360.28 38.8096C362.87 38.7696 365.43 38.7396 367.84 38.6696H367.88C368.78 38.6696 369.25 39.2796 369.25 39.9296C369.25 40.5396 368.78 41.1896 367.88 41.1896H367.84C365.36 41.1196 362.62 41.0796 359.78 41.0796C356.94 41.0796 353.98 41.1196 351.11 41.1896H351.07C350.17 41.1896 349.74 40.5796 349.74 39.9296C349.74 39.2796 350.17 38.6696 351.07 38.6696H351.11C353.16 38.7396 355.29 38.7796 357.41 38.8096V37.3296C356.19 37.3296 354.96 37.3696 353.59 37.3996H353.55C352.72 37.3996 352.33 36.8196 352.33 36.2796C352.33 35.6696 352.76 35.0896 353.55 35.0896H353.59C354.92 35.1296 356.18 35.1596 357.41 35.1596C357.41 34.7596 357.37 34.3296 357.37 33.8996L352.19 33.9696H352.15C351.25 33.9696 350.82 33.3596 350.82 32.7496C350.82 32.0996 351.29 31.4496 352.15 31.4496H352.19C353.74 31.5196 355.5 31.5596 357.34 31.5596C357.3 30.7996 357.3 30.0496 357.3 29.3596V29.2896C357.3 28.2796 358.06 27.8096 358.81 27.8096C359.56 27.8096 360.36 28.3096 360.36 29.2896V29.3596L360.29 31.5596C362.34 31.5596 364.32 31.5596 365.87 31.4896H365.91C366.77 31.4896 367.17 32.0996 367.17 32.7096C367.17 33.3596 366.74 33.9696 365.91 33.9696H365.87C364.11 33.9296 362.2 33.8996 360.29 33.8996V35.1596C361.59 35.1596 362.92 35.1196 364.5 35.0896H364.54C365.37 35.0896 365.8 35.6696 365.8 36.2396C365.8 36.8096 365.37 37.3896 364.54 37.3896H364.5C362.92 37.3496 361.58 37.3196 360.29 37.3196V38.7996L360.28 38.8096ZM365.1 53.0296V53.1396C365.1 55.4796 363.88 58.1796 360.6 58.1796C360.42 58.1796 360.2 58.1396 360.02 58.1396C359.01 58.0696 358.54 57.3496 358.54 56.6596C358.54 55.9396 359.01 55.2596 359.87 55.2596H360.19C361.34 55.2596 362.13 54.5396 362.17 52.7396V52.3096C361.09 52.3096 359.94 52.2696 358.82 52.2696C357.7 52.2696 356.55 52.3096 355.58 52.3096C355.58 53.9296 355.58 55.5096 355.54 56.8796C355.5 57.8196 354.75 58.3196 353.99 58.3196C353.23 58.3196 352.59 57.8496 352.59 56.9196V56.8496C352.7 53.8296 352.77 49.5796 352.81 46.0196C352.85 43.5696 354.65 42.1996 357.17 41.9896C357.57 41.9496 358.25 41.9496 358.9 41.9496C359.51 41.9496 360.16 41.9496 360.52 41.9896C363.54 42.2796 364.91 43.7896 364.95 46.0196C364.95 47.1696 364.99 49.4396 365.02 50.3396L365.09 53.0396L365.1 53.0296ZM362.22 48.5696C360.92 48.5296 359.59 48.4996 358.3 48.4996C357.4 48.4996 356.46 48.5396 355.6 48.5396V50.1196H362.22V48.5696ZM362.15 46.2996C362.11 45.3296 361.43 44.5396 360.24 44.3896C359.84 44.3496 359.34 44.3496 358.8 44.3496C358.3 44.3496 357.76 44.3496 357.43 44.3896C356.39 44.4996 355.67 45.2496 355.63 46.2296V46.3696H362.15V46.2996Z" fill="white"/>
<path d="M382.38 43.0303C381.26 42.7403 380.83 42.1303 380.83 41.4803C380.83 40.6903 381.55 39.9303 382.63 39.9303C382.88 39.9303 383.17 39.9703 383.46 40.0703L386.16 40.9703C388.1 41.6203 389.11 42.9903 389.11 44.7903C389.11 45.3303 389.04 45.8703 388.86 46.4803C387.53 50.7303 381.98 54.6103 378.75 55.2603C378.53 55.3003 378.32 55.3303 378.14 55.3303C376.84 55.3303 376.16 54.4703 376.16 53.6003C376.16 52.8803 376.63 52.1603 377.64 51.9403C381.24 51.1503 384.8 48.3403 385.67 45.7103C385.78 45.4203 385.81 45.1303 385.81 44.8803C385.81 44.3003 385.56 43.8003 384.73 43.5803L382.39 43.0003L382.38 43.0303ZM393.9 51.0503V51.3003C393.9 53.6003 392.93 58.0703 387.35 58.0703H387.21C385.7 58.0303 385.01 57.1703 385.01 56.3403C385.01 55.5103 385.69 54.6103 386.99 54.6103H387.42C389.4 54.6103 390.55 53.2403 390.55 50.6503V50.5403C390.48 47.0503 390.48 42.5503 390.44 38.1903C387.42 38.1903 384.43 38.2603 381.23 38.3303H381.16C379.9 38.3303 379.32 37.5703 379.32 36.7803C379.32 35.9903 379.97 35.1203 381.19 35.1203H381.23C384.43 35.2303 387.42 35.2603 390.41 35.3003C390.41 33.4303 390.34 31.5903 390.3 29.9403V29.8703C390.3 28.8603 391.16 28.3203 392.03 28.3203C392.9 28.3203 393.72 28.8203 393.72 29.9003V29.9403L393.61 35.3003C396.67 35.2603 399.84 35.2303 403.29 35.1203C404.48 35.1203 405.09 35.9103 405.09 36.7003C405.09 37.4903 404.48 38.3203 403.33 38.3203H403.29C399.83 38.2503 396.67 38.1803 393.61 38.1803C393.61 41.1303 393.65 44.1203 393.79 48.0403L393.9 51.0303V51.0503ZM406 55.2303C405.86 55.2303 405.68 55.2303 405.53 55.1903C402.22 54.7203 396.71 51.2303 395.16 46.4403C394.98 45.8303 394.87 45.2503 394.87 44.7503C394.87 42.9903 395.91 41.6503 397.82 40.9703C399.22 40.5003 399.55 40.4703 400.99 39.8503C401.31 39.7103 401.67 39.6303 401.96 39.6303C402.97 39.6303 403.69 40.3903 403.69 41.1403C403.69 41.7503 403.29 42.3603 402.29 42.7203C400.92 43.1903 400.6 43.1203 399.27 43.5503C398.41 43.8403 398.12 44.3103 398.12 44.8803C398.12 45.1303 398.19 45.3803 398.26 45.6403C399.3 48.5903 402.98 51.1803 406.65 51.7903C407.66 51.9703 408.13 52.6503 408.13 53.3703C408.13 54.2703 407.41 55.2103 406.01 55.2103L406 55.2303ZM398.87 34.0603C397.93 33.0203 396.93 32.6203 396.21 32.3703C395.56 32.1503 395.27 31.6903 395.27 31.1803C395.27 30.4603 395.92 29.6703 397 29.6703C397.14 29.6703 397.29 29.6703 397.43 29.7103C398.44 29.9303 400.38 30.7903 401.25 31.7603C401.61 32.1603 401.75 32.5503 401.75 32.9503C401.75 33.8503 400.96 34.6403 400.09 34.6403C399.69 34.6403 399.26 34.4603 398.87 34.0603Z" fill="white"/>
</svg>
