<svg width="156" height="45" viewBox="0 0 156 45" fill="none" xmlns="http://www.w3.org/2000/svg">
<path d="M156 0H0V45H156V0Z" fill="#2998AE"/>
<path d="M16.359 23.8008C16.1986 23.8008 16.0421 23.7572 15.8696 23.6583C14.0806 22.6334 12.6365 20.6945 11.0038 18.9731C10.8755 18.8307 10.699 18.7595 10.5265 18.7595C10.366 18.7595 10.1935 18.8307 10.0772 18.9573C8.57697 20.6232 7.18903 22.6611 5.39997 23.9432C5.16731 24.1134 4.95069 24.1846 4.75012 24.1846C4.3169 24.1846 4 23.8285 4 23.4565C4 23.2151 4.12836 22.9737 4.41718 22.8155C6.19422 21.846 7.63831 19.7092 9.12251 18.0709C9.53969 17.6159 10.017 17.4141 10.4944 17.4141C11.0159 17.4141 11.5213 17.6554 11.9104 18.0551C13.7436 19.9505 14.8708 21.3316 16.6879 22.3129C17.0329 22.4989 17.1773 22.7561 17.1773 23.0094C17.1773 23.409 16.8163 23.7929 16.355 23.7929L16.359 23.8008ZM11.782 28.9014C11.421 28.9014 11.0881 28.6601 11.0881 28.2762C11.0881 28.1615 11.1162 28.0467 11.1763 27.9201C11.4371 27.3503 11.754 26.5826 11.9866 25.7833C12.0147 25.6843 12.0307 25.5973 12.0307 25.4984C12.0307 25.0987 11.758 24.7861 11.1803 24.7584C10.9076 24.7426 10.6308 24.7426 10.37 24.7426C9.648 24.7426 8.97008 24.7703 8.24803 24.7703H7.93114C7.45378 24.7703 7.22514 24.4418 7.22514 24.1292C7.22514 23.8166 7.45779 23.4882 7.90306 23.4882H7.93114C8.43657 23.504 8.88584 23.504 9.31907 23.504H10.358C10.6749 23.504 10.9918 23.504 11.3247 23.5198C12.5522 23.5633 13.4748 24.1055 13.4748 25.2451C13.4748 25.443 13.4468 25.6725 13.3866 25.9139C13.17 26.7527 12.8812 27.6668 12.5643 28.3633C12.3918 28.7352 12.0869 28.9054 11.7861 28.9054L11.782 28.9014ZM12.2153 21.0664C12.6485 21.0664 12.8651 21.379 12.8651 21.7075C12.8651 22.0359 12.6485 22.3327 12.2153 22.3327H12.1711C11.6497 22.3169 11.1763 22.305 10.699 22.305C10.1374 22.305 9.57178 22.3208 8.99415 22.3327H8.96607C8.5168 22.3327 8.30018 22.0201 8.30018 21.7075C8.30018 21.3949 8.53284 21.0664 8.96607 21.0664H8.99415C9.49958 21.0941 10.005 21.0941 10.5385 21.0941C11.072 21.0941 11.5935 21.0941 12.1711 21.0664H12.2153Z" fill="white"/>
<path d="M26.6682 25.8111L26.5799 25.8665C26.3072 26.0525 25.9863 26.1356 25.6694 26.1356C24.847 26.1356 24.0367 25.5657 24.0087 24.4973V24.4538C24.0087 23.6545 24.6866 22.8868 25.6975 22.8868H25.7697C26.1146 22.9145 26.3312 22.958 26.4917 23.0451C26.4917 22.6336 26.4757 22.1627 26.4636 21.577C24.7307 21.7195 22.9978 21.9886 21.293 22.3328C21.2208 22.3486 21.1486 22.3486 21.0924 22.3486C20.6592 22.3486 20.3984 22.0479 20.3984 21.7234C20.3984 21.4227 20.6311 21.1101 21.1365 21.0389C22.1193 20.8964 24.2975 20.6115 26.4195 20.3978C26.4034 20.0258 26.3754 19.6855 26.3633 19.4283C26.3353 19.1157 26.3192 18.9456 26.2751 18.7873C26.247 18.7002 26.247 18.6171 26.247 18.5459C26.247 18.1185 26.592 17.8613 26.953 17.8613C27.314 17.8613 27.6309 18.075 27.7031 18.5578C27.7312 18.7002 27.7312 18.8585 27.7312 19.0128C27.7312 19.1395 27.7312 19.2819 27.7152 19.456L27.671 20.2831C28.7541 20.1841 29.7489 20.1248 30.471 20.1248C30.7758 20.1248 31.0205 20.1406 31.2091 20.1525C31.6142 20.196 31.8589 20.5244 31.8589 20.837C31.8589 21.1497 31.6142 21.4504 31.0486 21.4504H30.9604C30.5271 21.4346 30.0939 21.4346 29.6767 21.4346C28.9988 21.4346 28.3329 21.4504 27.655 21.49C27.655 22.4159 27.6831 23.2865 27.6831 23.5991V23.7969C27.9558 24.1808 28.0601 24.6358 28.0601 25.0949C28.0601 25.6805 27.8877 26.2622 27.643 26.6183C26.9209 27.6709 25.4929 28.6997 23.6156 28.953C23.5714 28.953 23.5153 28.9688 23.4711 28.9688C23.066 28.9688 22.8494 28.6997 22.8494 28.4148C22.8494 28.1576 23.0379 27.9004 23.4431 27.845C25.2321 27.5759 26.0866 26.6896 26.5759 25.9654L26.6642 25.8071L26.6682 25.8111ZM25.7456 23.8998C25.3404 23.8998 25.1399 24.1412 25.1399 24.4538V24.5092C25.1679 24.8099 25.4287 25.0078 25.7175 25.0078C25.8058 25.0078 25.906 24.992 25.9903 24.9524C26.3353 24.8099 26.4235 24.5686 26.4676 24.2401C26.2791 24.0264 26.0344 23.8998 25.7456 23.8998Z" fill="white"/>
<path d="M37.7314 21.8509C37.4706 22.1516 37.3262 22.4484 37.3262 22.761C37.3262 23.0459 37.4426 23.3466 37.7153 23.6592C38.654 24.7435 39.6207 26.2234 39.9697 27.5767C39.9978 27.6915 40.0138 27.8063 40.0138 27.9171C40.0138 28.4592 39.6368 28.7876 39.2477 28.7876C38.9147 28.7876 38.5697 28.5462 38.4534 27.9764C38.2208 26.7814 37.3864 25.3687 36.6483 24.4427C36.187 23.8571 35.9824 23.3308 35.9824 22.8322C35.9824 22.2782 36.2271 21.7361 36.6884 21.1386C37.1658 20.5411 37.6431 19.9277 37.9319 19.5004C38.1766 19.1601 38.321 18.9305 38.4935 18.5586C38.654 18.246 38.9268 18.1035 39.1995 18.1035C39.5886 18.1035 39.9777 18.3726 39.9777 18.8C39.9777 18.9424 39.9336 19.0849 39.8333 19.255C39.6729 19.4964 39.6007 19.5953 39.2838 19.995L37.7234 21.8469L37.7314 21.8509ZM40.6757 22.0487C40.5032 22.0487 40.3307 21.9617 40.2264 21.748C40.1984 21.6768 40.1703 21.5343 40.1262 21.4472C39.9817 21.1465 39.8213 20.9328 39.6488 20.7904C39.5204 20.6914 39.4763 20.5609 39.4763 20.4501C39.4763 20.2205 39.6769 20.0069 39.9537 20.0069C40.082 20.0069 40.2144 20.0623 40.3588 20.177C40.6637 20.4461 41.0247 20.9763 41.1691 21.3008C41.1972 21.3879 41.2132 21.4591 41.2132 21.5303C41.2132 21.8311 40.9525 22.0448 40.6797 22.0448L40.6757 22.0487ZM41.6745 21.2375C41.6465 21.1821 41.6023 21.0397 41.5582 20.9526C41.3978 20.6519 41.2413 20.454 41.0688 20.3116C40.9405 20.2126 40.8803 20.0979 40.8803 19.9713C40.8803 19.7576 41.0809 19.5597 41.3576 19.5597C41.474 19.5597 41.6023 19.6032 41.7467 19.7022C42.0636 19.9436 42.4527 20.4421 42.5851 20.7864C42.6132 20.8735 42.6292 20.9447 42.6292 21.0159C42.6292 21.3285 42.3685 21.5422 42.1078 21.5422C41.9473 21.5422 41.7748 21.4552 41.6745 21.2415V21.2375Z" fill="white"/>
<path d="M57.9048 24.5853H57.9208C58.338 24.5853 58.5546 24.8702 58.5546 25.171C58.5546 25.4717 58.338 25.7566 57.9048 25.7408C56.0836 25.7131 54.2946 25.6973 52.4774 25.6973C50.6603 25.6973 48.8391 25.7131 46.9778 25.7408H46.9618C46.5125 25.7408 46.2959 25.4717 46.2959 25.1868C46.2959 24.8861 46.5406 24.5734 46.9738 24.5893L49.0838 24.6328C49.0998 24.1342 49.0998 23.5802 49.0998 23.0223C48.7669 23.0223 48.434 23.0381 48.089 23.0381H48.0729C47.6116 23.0381 47.395 22.7532 47.395 22.4683C47.395 22.1676 47.6397 21.8549 48.089 21.8708L49.0998 21.8985V20.5016C48.795 20.7865 48.4941 21.0437 48.2334 21.2416C48.0729 21.3564 47.9165 21.3999 47.7721 21.3999C47.4111 21.3999 47.0942 21.115 47.0942 20.7865C47.0942 20.6005 47.1944 20.4027 47.4552 20.2325C48.4941 19.5638 49.3165 18.6101 49.9543 17.5101C50.0826 17.2806 50.2992 17.1816 50.5038 17.1816C50.8648 17.1816 51.2098 17.4507 51.2098 17.8069C51.2098 17.9216 51.1817 18.0364 51.0935 18.163C50.9049 18.4321 50.6763 18.7328 50.4156 19.0454C51.0093 19.0612 51.615 19.0612 52.2367 19.0612C53.4802 19.0612 54.82 19.0454 56.4687 19.0059H56.4848C56.934 19.0059 57.1506 19.2908 57.1506 19.5915C57.1506 19.8922 56.918 20.1771 56.4727 20.1613C56.212 20.1613 55.9833 20.1613 55.7346 20.1455C55.7346 20.6441 55.7186 21.2574 55.7186 21.8985L56.8297 21.8708H56.8458C57.2951 21.8708 57.5117 22.1557 57.5117 22.4564C57.5117 22.7572 57.279 23.0539 56.8337 23.0421C56.4567 23.0421 56.0836 23.0262 55.7226 23.0262C55.7226 23.5802 55.7386 24.1382 55.7386 24.6368L57.9208 24.5932L57.9048 24.5853ZM47.6838 28.9302C47.2666 28.9302 46.9618 28.6176 46.9618 28.2891C46.9618 28.0755 47.1062 27.8341 47.4512 27.6758C47.9847 27.4344 48.434 27.0783 48.6947 26.4808C48.795 26.2235 49.0276 26.1246 49.2563 26.1246C49.6013 26.1246 49.9623 26.3818 49.9623 26.7498C49.9623 26.8211 49.9462 26.9081 49.9182 26.9912C49.6293 27.747 48.7629 28.5859 48.0408 28.859C47.9125 28.9025 47.7961 28.9302 47.6798 28.9302H47.6838ZM50.1669 20.1138C50.1669 20.6282 50.1508 21.2535 50.1508 21.8945C50.4236 21.8945 50.7004 21.9103 50.9611 21.9103C50.9611 21.2693 50.9611 20.6441 50.9451 20.1138H50.1669ZM50.9451 24.6447C50.9611 24.1303 50.9611 23.5763 50.9611 22.9906C50.7004 22.9906 50.4276 23.0064 50.1508 23.0064C50.1508 23.5763 50.1669 24.1303 50.1669 24.6447H50.9451ZM51.3623 28.7877C51.0574 28.7877 50.7846 28.6017 50.7846 28.2021V28.1467C50.8007 28.0319 50.8007 27.9172 50.8007 27.8182C50.8007 27.3751 50.7285 27.0901 50.6001 26.7221C50.584 26.6667 50.572 26.6232 50.572 26.5639C50.572 26.2789 50.8769 26.1088 51.1777 26.1088C51.4385 26.1088 51.6992 26.2235 51.7995 26.4808C51.988 26.9239 52.0883 27.3513 52.0883 27.8895V28.1032C52.0723 28.5463 51.7112 28.7877 51.3663 28.7877H51.3623ZM52.7943 21.9064C52.7943 21.2653 52.7943 20.6401 52.7783 20.1099H52.0121C52.0121 20.6085 51.996 21.2495 51.996 21.9064H52.7903H52.7943ZM52.7783 24.6447C52.7943 24.1303 52.7943 23.5763 52.7943 22.9906H52.0001C52.0001 23.5604 52.0161 24.1303 52.0161 24.6447H52.7823H52.7783ZM53.4281 28.305C53.2837 27.6085 53.0831 27.2643 52.8063 26.8527C52.7502 26.7657 52.7181 26.6826 52.7181 26.5955C52.7181 26.3383 53.0069 26.1405 53.3238 26.1405C53.5244 26.1405 53.757 26.2117 53.9295 26.4095C54.2183 26.738 54.5352 27.2801 54.6957 27.9488C54.7117 28.0201 54.7117 28.0755 54.7117 28.1348C54.7117 28.5622 54.3668 28.8194 54.0178 28.8194C53.757 28.8194 53.4963 28.6611 53.4241 28.305H53.4281ZM54.6435 20.1257C54.3708 20.1257 54.11 20.1099 53.8493 20.1099C53.8493 20.6243 53.8332 21.2653 53.8332 21.9064C54.106 21.9064 54.3828 21.8906 54.6556 21.8906C54.6556 21.2653 54.6556 20.652 54.6395 20.1257H54.6435ZM54.6435 24.6447C54.6596 24.1303 54.6596 23.5763 54.6596 23.0064C54.3868 23.0064 54.11 22.9906 53.8373 22.9906C53.8373 23.5604 53.8533 24.1303 53.8533 24.6447H54.6476H54.6435ZM56.5329 28.4158C56.1719 27.8182 55.6825 27.3315 55.161 26.9754C55.0166 26.8765 54.9444 26.734 54.9444 26.6034C54.9444 26.3343 55.2172 26.0771 55.5942 26.0771C55.7386 26.0771 55.8831 26.1048 56.0435 26.1919C56.5931 26.4768 57.3151 27.0743 57.6601 27.6006C57.7604 27.7431 57.7884 27.8855 57.7884 28.028C57.7884 28.4276 57.4274 28.7402 57.0664 28.7402C56.8658 28.7402 56.6613 28.6413 56.5329 28.4118V28.4158Z" fill="white"/>
<path d="M65.5907 22.3213V22.9782C65.679 22.9228 65.7793 22.8911 65.8796 22.8911C65.9357 22.8911 66.0079 22.9069 66.0681 22.9188C66.5013 23.089 67.1231 23.6153 67.3237 23.9318C67.3959 24.0466 67.4239 24.1613 67.4239 24.2603C67.4239 24.6006 67.1191 24.8855 66.8182 24.8855C66.6578 24.8855 66.5013 24.7984 66.385 24.6164C66.1523 24.2603 65.8635 23.9753 65.5907 23.7775C65.6068 25.0161 65.6349 26.4129 65.691 28.2767V28.3044C65.691 28.704 65.3581 28.9177 65.0131 28.9177C64.6681 28.9177 64.3472 28.704 64.3472 28.3044V28.2767C64.3914 26.7097 64.4194 25.4434 64.4355 24.3157C63.902 25.115 63.3243 25.7402 62.6745 26.2388C62.502 26.3654 62.3135 26.4248 62.153 26.4248C61.808 26.4248 61.5312 26.1557 61.5312 25.8391C61.5312 25.6531 61.6315 25.4553 61.8762 25.2851C62.6986 24.743 63.4206 23.9753 64.1427 23.0336C64.3151 22.7922 64.4154 22.535 64.4475 22.3213C63.9581 22.3213 63.4527 22.349 62.9312 22.3648H62.8871C62.4378 22.3648 62.2373 22.0957 62.2373 21.8108C62.2373 21.5101 62.4699 21.2133 62.9031 21.2133H62.9312C63.4808 21.241 63.9702 21.2568 64.4475 21.2568C64.4315 20.2043 64.4034 19.0923 64.3593 17.7548V17.7271C64.3593 17.3433 64.6922 17.1415 65.0251 17.1415C65.3581 17.1415 65.691 17.3393 65.691 17.7271V17.7548C65.663 18.5937 65.6349 19.3218 65.6188 20.0064C65.8194 19.7373 66.1403 19.2387 66.3128 18.8945C66.4131 18.6966 66.6016 18.6096 66.7741 18.6096C67.079 18.6096 67.3798 18.8391 67.3798 19.1517C67.3798 19.2506 67.3517 19.3495 67.2916 19.4643C67.075 19.8046 66.6698 20.3348 66.3529 20.6475C66.2366 20.7741 66.0922 20.8334 65.9478 20.8334C65.8194 20.8334 65.687 20.7899 65.6028 20.7068C65.6028 20.8928 65.5867 21.0788 65.5867 21.2608L66.8142 21.2173H66.8423C67.2755 21.2173 67.4761 21.5022 67.4761 21.7871C67.4761 22.072 67.2595 22.3727 66.8543 22.3727H66.8102L65.5827 22.3292L65.5907 22.3213ZM63.3203 20.3982C63.1759 20.0578 62.7988 19.6424 62.6544 19.5157C62.5261 19.401 62.4819 19.2744 62.4819 19.1596C62.4819 18.8905 62.7708 18.6452 63.0877 18.6452C63.1879 18.6452 63.2882 18.661 63.3765 18.7164C63.6813 18.8866 64.1868 19.4999 64.3312 19.8283C64.3873 19.9431 64.4034 20.042 64.4034 20.1409C64.4034 20.4971 64.0985 20.7543 63.8097 20.7543C63.6212 20.7543 63.4206 20.6395 63.3203 20.3982ZM67.3196 26.4208C67.2033 26.4643 67.087 26.4762 66.9867 26.4762C66.5535 26.4762 66.2927 26.1636 66.2927 25.8352C66.2927 25.578 66.4652 25.3208 66.8423 25.2377C68.1259 24.9369 69.4697 24.5531 70.7694 24.1534V22.9861C70.7694 21.1777 70.7413 19.4128 70.7133 17.7311V17.7153C70.7133 17.2879 71.0582 17.0742 71.3912 17.0742C71.7522 17.0742 72.0972 17.2879 72.0972 17.6994V17.7271C72.0531 19.1675 72.041 20.7029 72.041 22.2699V23.7379C72.5184 23.5678 72.9957 23.4095 73.457 23.2393C73.5573 23.1958 73.6576 23.1839 73.7458 23.1839C74.151 23.1839 74.3957 23.4965 74.3957 23.825C74.3957 24.0822 74.2352 24.3394 73.8622 24.4383C73.2845 24.5966 72.6788 24.7668 72.0571 24.9527C72.0731 26.0489 72.0851 27.1331 72.1132 28.2015V28.2173C72.1132 28.6882 71.7362 28.9296 71.3751 28.9296C71.0141 28.9296 70.6972 28.7159 70.6972 28.2332V28.2055C70.7253 27.2637 70.7413 26.2982 70.7534 25.3405C69.5821 25.6967 68.3987 26.0686 67.3156 26.4248L67.3196 26.4208ZM69.2411 23.3026C68.7637 22.903 68.3185 22.7605 67.9414 22.6616C67.6686 22.5904 67.5523 22.3925 67.5523 22.1788C67.5523 21.8781 67.797 21.5655 68.2182 21.5655C68.2743 21.5655 68.3345 21.5655 68.3907 21.5813C68.8961 21.6802 69.5901 21.9216 69.9952 22.2501C70.1958 22.4202 70.268 22.6062 70.268 22.7922C70.268 23.1483 69.9792 23.4609 69.6462 23.4609C69.5179 23.4609 69.3735 23.4174 69.2411 23.3026ZM69.2852 20.596C68.9964 20.2557 68.5351 19.9827 68.1741 19.8402C67.9133 19.7255 67.797 19.5395 67.797 19.3574C67.797 19.0725 68.0417 18.8035 68.4308 18.8035C68.519 18.8035 68.6193 18.8193 68.7196 18.847C69.1368 18.9617 69.8588 19.3297 70.2078 19.7017C70.3522 19.86 70.4084 20.0143 70.4084 20.1726C70.4084 20.5287 70.0915 20.8413 69.7586 20.8413C69.5981 20.8413 69.4256 20.7701 69.2812 20.6L69.2852 20.596Z" fill="white"/>
<path d="M78.6875 22.3644H78.5872C78.1099 22.3644 77.793 22.0082 77.793 21.6521C77.793 21.3237 78.0537 20.9952 78.6434 20.924C78.9161 20.8963 79.2491 20.8093 79.4376 20.7539C80.26 20.5243 81.4032 20.0851 82.3378 19.729C82.7149 19.5865 83.2043 19.3887 83.6656 19.2304C84.8048 18.8742 85.3825 18.7318 86.1326 18.6883H86.2329C86.7664 18.6883 87.0271 19.0167 87.0271 19.3451C87.0271 19.7171 86.7223 20.1009 86.1326 20.1009H85.916C85.1498 20.1009 83.7498 20.2988 83.2284 20.8844C82.8673 21.2841 82.6949 21.8658 82.6949 22.5068C82.6949 24.1015 83.7057 26.1236 85.1939 27.0496C85.6272 27.3068 85.7996 27.6471 85.7996 27.932C85.7996 28.3039 85.5108 28.6166 85.0616 28.6166C84.7888 28.6166 84.4558 28.5018 84.1068 28.2169C82.5906 26.9902 81.4914 24.6278 81.4914 22.7205C81.4914 22.2219 81.5636 21.751 81.7241 21.3395C81.7522 21.2683 81.7682 21.2129 81.7682 21.1812C81.7682 21.1812 81.7629 21.1759 81.7522 21.1654C81.7522 21.1654 81.7081 21.1812 81.6639 21.1931C81.0702 21.4345 80.3081 21.8618 79.5981 22.1032C79.2531 22.2021 78.9763 22.3169 78.6755 22.3604L78.6875 22.3644ZM87.4363 18.6329C87.2477 18.6329 87.0753 18.5458 86.987 18.3203C86.9589 18.249 86.9309 18.1066 86.8867 18.0195C86.7423 17.7069 86.5979 17.4932 86.4254 17.3508C86.3091 17.2519 86.2529 17.1371 86.2529 17.0223C86.2529 16.7928 86.4695 16.5791 86.7303 16.5791C86.8586 16.5791 86.991 16.6345 87.1354 16.7493C87.4523 17.0342 87.8013 17.5605 87.9297 17.8889C87.9578 17.976 87.9738 18.0472 87.9738 18.1184C87.9738 18.4192 87.701 18.6329 87.4403 18.6329H87.4363ZM88.5033 17.9048C88.4752 17.8335 88.4471 17.6911 88.403 17.6199C88.2586 17.3072 88.0982 17.1054 87.9257 16.963C87.7973 16.8641 87.7371 16.7335 87.7371 16.6227C87.7371 16.409 87.9377 16.1953 88.2145 16.1953C88.3308 16.1953 88.4752 16.2388 88.6036 16.3536C88.9365 16.6108 89.3096 17.1094 89.4259 17.4497C89.454 17.5209 89.47 17.5922 89.47 17.6634C89.47 17.976 89.2093 18.2055 88.9365 18.2055C88.7761 18.2055 88.6036 18.1184 88.5033 17.9048Z" fill="white"/>
<path d="M97.9968 27.093C97.6358 27.093 97.3028 27.0772 96.8977 27.0495C97.1424 27.1366 97.3149 27.378 97.3149 27.6193C97.3149 27.8053 97.2146 27.9913 96.9819 28.1179C95.955 28.6719 94.6152 29.0162 93.488 29.0993H93.4158C92.9545 29.0993 92.7219 28.7985 92.7219 28.5018C92.7219 28.205 92.9224 27.9478 93.3556 27.9161C94.4106 27.8291 95.4496 27.5877 96.3602 27.0891C96.4163 27.0614 96.4765 27.0337 96.5487 27.0179C95.5098 26.9031 94.9441 26.4757 94.888 25.6487C94.8599 25.3361 94.8439 25.0235 94.8439 24.7069C94.8439 24.3508 94.8599 24.0105 94.888 23.6543C94.9161 23.1122 95.2651 22.7007 95.8106 22.4712C95.4656 22.4435 95.2771 22.214 95.2771 21.9726C95.2771 21.8855 95.3052 21.8024 95.3493 21.7154C94.6553 22.0557 94.0496 22.301 93.3556 22.5147C93.2554 22.5424 93.1551 22.5582 93.0668 22.5582C92.6496 22.5582 92.417 22.2456 92.417 21.9172C92.417 21.66 92.5614 21.4028 92.8943 21.3197C93.7889 21.0783 94.5711 20.8053 95.3653 20.4372C95.4536 20.3937 95.5539 20.3818 95.6261 20.3818C95.943 20.3818 96.1756 20.6509 96.1756 20.9358C96.1756 21.1218 96.0874 21.292 95.9029 21.4344C97.7521 21.2484 98.5022 20.5797 98.5022 19.6696V19.6419C98.4862 19.3016 98.8191 19.1433 99.1521 19.1433C99.485 19.1433 99.7859 19.3016 99.7859 19.5984C99.7859 19.6696 99.7698 19.7408 99.7698 19.812C99.9704 20.8092 100.925 21.7075 103.54 21.9053C103.918 21.933 104.118 22.2179 104.118 22.5028C104.118 22.8154 103.873 23.1439 103.368 23.1439H103.268C101.19 22.9579 99.8741 22.0755 99.1962 21.0348C98.763 21.5334 98.057 21.9766 97.1183 22.2456C97.363 22.2298 97.5796 22.2298 97.7842 22.2298C98.1613 22.2298 98.5504 22.2456 99.2283 22.2733C100.384 22.3169 101.061 22.8431 101.122 23.6108C101.15 23.967 101.166 24.2954 101.166 24.6357C101.166 24.976 101.15 25.3203 101.122 25.6764C101.049 26.4322 100.472 26.8714 99.489 27.002C99.5773 27.0179 99.6495 27.0456 99.7337 27.0733C100.283 27.3305 101.539 27.6589 102.522 27.6866C102.939 27.7024 103.155 27.9992 103.155 28.2841C103.155 28.6126 102.911 28.941 102.433 28.941H102.377C101.134 28.8421 99.8661 28.4582 99.128 28.0863C98.8953 27.9715 98.8111 27.7855 98.8111 27.6154C98.8111 27.3582 98.9996 27.101 99.2604 27.0297C98.7389 27.0733 98.3498 27.0851 98.0048 27.0851L97.9968 27.093ZM94.8639 19.4836C94.4026 19.1433 93.7809 18.9138 93.3195 18.8267C93.0027 18.7555 92.8582 18.5418 92.8582 18.3281C92.8582 18.0155 93.119 17.7029 93.5522 17.7029H93.5803C94.0296 17.7306 95.1407 18.0867 95.5579 18.3717C95.7905 18.5299 95.8908 18.7278 95.8908 18.9256C95.8908 19.2818 95.586 19.6221 95.241 19.6221C95.1247 19.6221 94.9963 19.5786 94.8639 19.4796V19.4836ZM97.0581 20.3818C96.8856 20.5243 96.6971 20.5797 96.5367 20.5797C96.1917 20.5797 95.9149 20.3225 95.9149 20.0376C95.9149 19.8793 95.9871 19.7091 96.1756 19.5667C96.9418 18.9692 97.4192 18.1698 97.8524 17.2597C97.9527 17.046 98.1412 16.959 98.3418 16.959C98.6747 16.959 99.0357 17.2004 99.0357 17.513C99.0357 17.6 99.0077 17.6831 98.9635 17.7702C98.9194 17.8572 98.8633 17.9403 98.8191 18.0393C99.2243 18.0234 99.7417 18.0116 100.279 18.0116C100.612 18.0116 100.957 18.0116 101.274 18.0274C102.169 18.0709 102.646 18.613 102.646 19.2106C102.646 19.4796 102.546 19.7645 102.329 20.0099C102.096 20.279 101.808 20.552 101.535 20.7499C101.374 20.8646 101.23 20.9081 101.086 20.9081C100.769 20.9081 100.508 20.6668 100.508 20.3937C100.508 20.2513 100.564 20.1088 100.725 19.9941C100.941 19.8239 101.057 19.7091 101.174 19.5509C101.246 19.4638 101.274 19.3649 101.274 19.2937C101.274 19.1235 101.146 19.0087 100.913 18.9929C100.552 18.9652 100.135 18.9652 99.6856 18.9652C99.3406 18.9652 98.9635 18.9652 98.6306 18.981C98.2977 18.9969 98.1532 19.1393 98.053 19.2501C97.7481 19.6775 97.4031 20.0772 97.0581 20.3739V20.3818ZM99.9303 24.3864C99.0638 24.3706 98.4701 24.3706 97.8925 24.3706C97.3149 24.3706 96.7814 24.3706 96.0433 24.3864V24.9008C96.7934 24.9167 97.3269 24.9167 97.9045 24.9167C98.4822 24.9167 99.0598 24.9167 99.9263 24.9008V24.3864H99.9303ZM97.8965 25.6091C97.3349 25.6091 96.7974 25.6091 96.0914 25.625C96.1355 25.9376 96.3963 26.1513 96.8696 26.2106C97.1865 26.2383 97.5475 26.2541 97.9246 26.2541C98.3418 26.2541 98.775 26.2383 99.136 26.2106C99.6575 26.1671 99.8139 25.9415 99.8741 25.625C99.0357 25.6091 98.4581 25.6091 97.8965 25.6091ZM99.1079 23.0885C98.8472 23.0608 98.4862 23.045 98.1412 23.045C97.6799 23.045 97.2025 23.0727 96.8576 23.1004C96.3682 23.1439 96.1636 23.3694 96.1074 23.6543C96.8295 23.6702 97.351 23.6702 97.9126 23.6702C98.4741 23.6702 99.0397 23.6702 99.8781 23.6543C99.822 23.3536 99.6334 23.1558 99.112 23.0845L99.1079 23.0885Z" fill="white"/>
<path d="M111.224 22.3213V22.9782C111.312 22.9228 111.412 22.8911 111.512 22.8911C111.569 22.8911 111.641 22.9069 111.701 22.9188C112.134 23.089 112.756 23.6153 112.956 23.9318C113.029 24.0466 113.057 24.1613 113.057 24.2603C113.057 24.6006 112.752 24.8855 112.451 24.8855C112.291 24.8855 112.134 24.7984 112.018 24.6164C111.785 24.2603 111.496 23.9753 111.224 23.7775C111.24 25.0161 111.268 26.4129 111.324 28.2767V28.3044C111.324 28.704 110.991 28.9177 110.646 28.9177C110.301 28.9177 109.98 28.704 109.98 28.3044V28.2767C110.024 26.7097 110.052 25.4434 110.068 24.3157C109.535 25.115 108.957 25.7402 108.307 26.2388C108.135 26.3654 107.946 26.4248 107.786 26.4248C107.441 26.4248 107.164 26.1557 107.164 25.8391C107.164 25.6531 107.264 25.4553 107.509 25.2851C108.331 24.743 109.053 23.9753 109.775 23.0336C109.948 22.7922 110.048 22.535 110.08 22.3213C109.591 22.3213 109.086 22.349 108.564 22.3648H108.52C108.071 22.3648 107.87 22.0957 107.87 21.8108C107.87 21.5101 108.103 21.2133 108.536 21.2133H108.564C109.114 21.241 109.603 21.2568 110.08 21.2568C110.064 20.2043 110.036 19.0923 109.992 17.7548V17.7271C109.992 17.3433 110.325 17.1415 110.658 17.1415C110.991 17.1415 111.324 17.3393 111.324 17.7271V17.7548C111.296 18.5937 111.268 19.3218 111.252 20.0064C111.452 19.7373 111.773 19.2387 111.946 18.8945C112.046 18.6966 112.234 18.6096 112.407 18.6096C112.712 18.6096 113.013 18.8391 113.013 19.1517C113.013 19.2506 112.985 19.3495 112.924 19.4643C112.708 19.8046 112.303 20.3348 111.986 20.6475C111.869 20.7741 111.725 20.8334 111.581 20.8334C111.452 20.8334 111.32 20.7899 111.236 20.7068C111.236 20.8928 111.22 21.0788 111.22 21.2608L112.447 21.2173H112.475C112.908 21.2173 113.109 21.5022 113.109 21.7871C113.109 22.072 112.892 22.3727 112.487 22.3727H112.443L111.216 22.3292L111.224 22.3213ZM108.953 20.3982C108.809 20.0578 108.432 19.6424 108.287 19.5157C108.159 19.401 108.115 19.2744 108.115 19.1596C108.115 18.8905 108.404 18.6452 108.72 18.6452C108.821 18.6452 108.921 18.661 109.009 18.7164C109.314 18.8866 109.82 19.4999 109.964 19.8283C110.02 19.9431 110.036 20.042 110.036 20.1409C110.036 20.4971 109.731 20.7543 109.443 20.7543C109.254 20.7543 109.053 20.6395 108.953 20.3982ZM112.952 26.4208C112.836 26.4643 112.72 26.4762 112.62 26.4762C112.186 26.4762 111.926 26.1636 111.926 25.8352C111.926 25.578 112.098 25.3208 112.475 25.2377C113.759 24.9369 115.103 24.5531 116.402 24.1534V22.9861C116.402 21.1777 116.374 19.4128 116.346 17.7311V17.7153C116.346 17.2879 116.691 17.0742 117.024 17.0742C117.385 17.0742 117.73 17.2879 117.73 17.6994V17.7271C117.686 19.1675 117.674 20.7029 117.674 22.2699V23.7379C118.151 23.5678 118.629 23.4095 119.09 23.2393C119.19 23.1958 119.29 23.1839 119.379 23.1839C119.784 23.1839 120.029 23.4965 120.029 23.825C120.029 24.0822 119.868 24.3394 119.495 24.4383C118.917 24.5966 118.312 24.7668 117.69 24.9527C117.706 26.0489 117.718 27.1331 117.746 28.2015V28.2173C117.746 28.6882 117.369 28.9296 117.008 28.9296C116.647 28.9296 116.33 28.7159 116.33 28.2332V28.2055C116.358 27.2637 116.374 26.2982 116.386 25.3405C115.215 25.6967 114.032 26.0686 112.948 26.4248L112.952 26.4208ZM114.874 23.3026C114.397 22.903 113.951 22.7605 113.574 22.6616C113.301 22.5904 113.185 22.3925 113.185 22.1788C113.185 21.8781 113.43 21.5655 113.851 21.5655C113.907 21.5655 113.967 21.5655 114.023 21.5813C114.529 21.6802 115.223 21.9216 115.628 22.2501C115.829 22.4202 115.901 22.6062 115.901 22.7922C115.901 23.1483 115.612 23.4609 115.279 23.4609C115.151 23.4609 115.006 23.4174 114.874 23.3026ZM114.918 20.596C114.629 20.2557 114.168 19.9827 113.807 19.8402C113.546 19.7255 113.43 19.5395 113.43 19.3574C113.43 19.0725 113.674 18.8035 114.064 18.8035C114.152 18.8035 114.252 18.8193 114.352 18.847C114.77 18.9617 115.492 19.3297 115.841 19.7017C115.985 19.86 116.041 20.0143 116.041 20.1726C116.041 20.5287 115.724 20.8413 115.391 20.8413C115.231 20.8413 115.058 20.7701 114.914 20.6L114.918 20.596Z" fill="white"/>
<path d="M123.643 20.4814C123.226 20.4814 123.021 20.2123 123.021 19.9274C123.021 19.6148 123.254 19.3022 123.655 19.3022H123.671C124.321 19.3299 124.927 19.3457 125.533 19.3457C126.299 19.3457 127.049 19.318 127.843 19.2903H127.871C128.26 19.2903 128.449 19.591 128.449 19.8878C128.449 20.1846 128.26 20.4853 127.871 20.4853H127.843C127.193 20.4576 126.559 20.4418 125.922 20.4418C125.2 20.4418 124.462 20.4576 123.667 20.4853H123.639L123.643 20.4814ZM127.787 26.6346C127.787 26.8048 127.771 26.9631 127.771 27.1609C127.715 27.9998 127.209 28.5696 126.182 28.6409C125.966 28.6567 125.837 28.6686 125.705 28.6686C125.573 28.6686 125.444 28.6527 125.244 28.6409C124.405 28.5855 123.816 28.0433 123.772 27.1886C123.756 26.9195 123.744 26.7613 123.744 26.5911C123.744 26.4763 123.76 26.3616 123.76 26.1914C123.816 25.2813 124.454 24.7669 125.292 24.7115C125.48 24.6957 125.597 24.6957 125.725 24.6957C125.854 24.6957 125.998 24.6957 126.231 24.7115C127.081 24.7669 127.719 25.2378 127.775 26.1083C127.775 26.322 127.791 26.4803 127.791 26.6346H127.787ZM127.005 17.5215C127.382 17.5215 127.566 17.8064 127.566 18.0913C127.566 18.3762 127.394 18.6453 127.017 18.6453H126.989C126.439 18.6295 126.078 18.6295 125.733 18.6295C125.388 18.6295 125.067 18.6295 124.622 18.6453H124.594C124.205 18.6453 124.016 18.3881 124.016 18.1032C124.016 17.8183 124.217 17.5175 124.61 17.5175H124.626C125.115 17.5452 125.436 17.5452 125.765 17.5452C126.094 17.5452 126.443 17.5452 126.993 17.5175H127.009L127.005 17.5215ZM126.993 22.2621C126.443 22.2462 126.082 22.2462 125.737 22.2462C125.392 22.2462 125.071 22.2462 124.626 22.2621H124.598C124.209 22.2621 124.02 21.993 124.02 21.72C124.02 21.435 124.221 21.1343 124.598 21.1343H124.626C125.176 21.1501 125.509 21.162 125.87 21.162C126.174 21.162 126.503 21.1462 126.997 21.1343H127.025C127.402 21.1343 127.574 21.4192 127.574 21.7041C127.574 21.989 127.402 22.2581 127.025 22.2581H126.997L126.993 22.2621ZM126.993 24.0151C126.503 23.9992 126.154 23.9874 125.837 23.9874C125.46 23.9874 125.131 24.0032 124.626 24.0151H124.598C124.209 24.0151 124.02 23.746 124.02 23.4729C124.02 23.188 124.221 22.8873 124.598 22.8873H124.626C125.176 22.9031 125.509 22.915 125.87 22.915C126.174 22.915 126.503 22.8992 126.997 22.8873H127.025C127.402 22.8873 127.574 23.1722 127.574 23.4571C127.574 23.742 127.402 24.0111 127.025 24.0111H126.997L126.993 24.0151ZM126.632 27.0778C126.648 26.9354 126.648 26.8087 126.648 26.6782C126.648 26.5476 126.648 26.421 126.632 26.2666C126.616 26.0252 126.443 25.7403 126.054 25.7126C125.938 25.6968 125.866 25.6849 125.781 25.6849C125.697 25.6849 125.609 25.7008 125.476 25.7126C125.16 25.7403 124.943 25.9698 124.915 26.2825C124.899 26.4407 124.887 26.5515 124.887 26.6821C124.887 26.7969 124.903 26.9235 124.915 27.0818C124.943 27.4221 125.204 27.5804 125.42 27.6239C125.549 27.6516 125.665 27.6516 125.765 27.6516C125.882 27.6516 125.998 27.6516 126.126 27.6239C126.415 27.5685 126.616 27.3667 126.632 27.0818V27.0778ZM132.075 21.2649C133.114 21.2491 134.141 21.2372 135.108 21.2095H135.124C135.485 21.2095 135.673 21.4509 135.673 21.7081C135.673 21.9495 135.485 22.2067 135.124 22.2067H135.108C134.113 22.179 133.014 22.1631 131.875 22.1631C130.735 22.1631 129.548 22.179 128.397 22.2067H128.381C128.02 22.2067 127.847 21.9653 127.847 21.7081C127.847 21.4509 128.02 21.2095 128.381 21.2095H128.397C129.219 21.2372 130.073 21.253 130.924 21.2649V20.6792C130.434 20.6792 129.941 20.6951 129.392 20.7069H129.375C129.043 20.7069 128.886 20.4774 128.886 20.2637C128.886 20.0224 129.059 19.7929 129.375 19.7929H129.392C129.925 19.8087 130.43 19.8206 130.924 19.8206C130.924 19.6623 130.908 19.4921 130.908 19.322L128.83 19.3497H128.814C128.453 19.3497 128.28 19.1083 128.28 18.8669C128.28 18.6097 128.469 18.3525 128.814 18.3525H128.83C129.452 18.3802 130.158 18.396 130.896 18.396C130.88 18.0953 130.88 17.7985 130.88 17.5255V17.4978C130.88 17.0981 131.185 16.9121 131.485 16.9121C131.786 16.9121 132.107 17.11 132.107 17.4978V17.5255L132.079 18.396C132.901 18.396 133.696 18.396 134.317 18.3683H134.334C134.678 18.3683 134.839 18.6097 134.839 18.8511C134.839 19.1083 134.666 19.3497 134.334 19.3497H134.317C133.611 19.3338 132.845 19.322 132.079 19.322V19.8206C132.601 19.8206 133.134 19.8047 133.768 19.7929H133.784C134.117 19.7929 134.289 20.0224 134.289 20.2479C134.289 20.4735 134.117 20.703 133.784 20.703H133.768C133.134 20.6872 132.597 20.6753 132.079 20.6753V21.2609L132.075 21.2649ZM134.009 26.8918V26.9354C134.009 27.8613 133.519 28.9297 132.203 28.9297C132.131 28.9297 132.043 28.9139 131.971 28.9139C131.566 28.8862 131.377 28.6013 131.377 28.3283C131.377 28.0433 131.566 27.7743 131.911 27.7743H132.039C132.5 27.7743 132.817 27.4894 132.833 26.7771V26.6069C132.4 26.6069 131.939 26.5911 131.489 26.5911C131.04 26.5911 130.579 26.6069 130.19 26.6069C130.19 27.248 130.19 27.8732 130.174 28.4153C130.158 28.7873 129.857 28.9851 129.552 28.9851C129.247 28.9851 128.99 28.7991 128.99 28.4311V28.4034C129.035 27.2084 129.063 25.5267 129.079 24.1179C129.095 23.1485 129.817 22.6063 130.828 22.5232C130.988 22.5074 131.261 22.5074 131.522 22.5074C131.766 22.5074 132.027 22.5074 132.171 22.5232C133.383 22.638 133.932 23.2355 133.948 24.1179C133.948 24.573 133.964 25.4713 133.977 25.8274L134.005 26.8958L134.009 26.8918ZM132.853 25.127C132.332 25.1112 131.798 25.0993 131.281 25.0993C130.92 25.0993 130.543 25.1151 130.198 25.1151V25.7403H132.853V25.127ZM132.825 24.2287C132.809 23.8449 132.536 23.5323 132.059 23.4729C131.899 23.4571 131.698 23.4571 131.481 23.4571C131.281 23.4571 131.064 23.4571 130.932 23.4729C130.515 23.5165 130.226 23.8132 130.21 24.201V24.2564H132.825V24.2287Z" fill="white"/>
<path d="M140.94 22.9341C140.491 22.8194 140.319 22.578 140.319 22.3208C140.319 22.0082 140.607 21.7074 141.041 21.7074C141.141 21.7074 141.257 21.7233 141.374 21.7628L142.457 22.119C143.235 22.3762 143.64 22.9183 143.64 23.6306C143.64 23.8443 143.612 24.0579 143.54 24.2993C143.006 25.9811 140.78 27.5164 139.484 27.7736C139.396 27.7895 139.312 27.8013 139.24 27.8013C138.718 27.8013 138.445 27.461 138.445 27.1168C138.445 26.8318 138.634 26.5469 139.039 26.4599C140.483 26.1473 141.911 25.0353 142.26 23.9946C142.304 23.8799 142.316 23.7651 142.316 23.6662C142.316 23.4367 142.216 23.2388 141.883 23.1518L140.944 22.9223L140.94 22.9341ZM145.561 26.1077V26.2066C145.561 27.1168 145.172 28.8856 142.934 28.8856H142.878C142.272 28.8697 141.995 28.5294 141.995 28.201C141.995 27.8726 142.268 27.5164 142.79 27.5164H142.962C143.756 27.5164 144.218 26.9743 144.218 25.9494V25.9059C144.19 24.5249 144.19 22.7442 144.174 21.0189C142.962 21.0189 141.763 21.0466 140.479 21.0743H140.451C139.946 21.0743 139.713 20.7736 139.713 20.461C139.713 20.1484 139.974 19.8041 140.463 19.8041H140.479C141.763 19.8476 142.962 19.8595 144.162 19.8753C144.162 19.1353 144.133 18.4072 144.117 17.7543V17.7266C144.117 17.327 144.462 17.1133 144.811 17.1133C145.16 17.1133 145.489 17.3111 145.489 17.7385V17.7543L145.445 19.8753C146.673 19.8595 147.944 19.8476 149.328 19.8041C149.805 19.8041 150.05 20.1167 150.05 20.4293C150.05 20.7419 149.805 21.0704 149.344 21.0704H149.328C147.94 21.0427 146.673 21.015 145.445 21.015C145.445 22.1823 145.461 23.3655 145.517 24.9166L145.561 26.0998V26.1077ZM150.415 27.7618C150.359 27.7618 150.287 27.7618 150.227 27.7459C148.899 27.5599 146.689 26.1789 146.067 24.2835C145.995 24.0421 145.951 23.8126 145.951 23.6147C145.951 22.9183 146.368 22.3881 147.134 22.119C147.696 21.933 147.828 21.9211 148.406 21.6758C148.534 21.6204 148.678 21.5887 148.795 21.5887C149.2 21.5887 149.489 21.8895 149.489 22.1862C149.489 22.4276 149.328 22.669 148.927 22.8115C148.377 22.9974 148.249 22.9697 147.716 23.1399C147.371 23.2547 147.254 23.4406 147.254 23.6662C147.254 23.7651 147.282 23.864 147.31 23.9669C147.728 25.1343 149.204 26.1591 150.676 26.4005C151.081 26.4718 151.27 26.7408 151.27 27.0257C151.27 27.3819 150.981 27.7538 150.419 27.7538L150.415 27.7618ZM147.555 19.3846C147.178 18.9731 146.777 18.8148 146.488 18.7159C146.227 18.6288 146.111 18.4468 146.111 18.245C146.111 17.9601 146.372 17.6475 146.805 17.6475C146.861 17.6475 146.921 17.6475 146.977 17.6633C147.383 17.7504 148.161 18.0907 148.51 18.4745C148.654 18.6328 148.71 18.7871 148.71 18.9454C148.71 19.3015 148.394 19.6142 148.045 19.6142C147.884 19.6142 147.712 19.5429 147.555 19.3846Z" fill="white"/>
</svg>
